<svg width="46" height="13" viewBox="0 0 46 13" fill="none" xmlns="http://www.w3.org/2000/svg">
<path fill-rule="evenodd" clip-rule="evenodd" d="M8.93556 8.59849L6.9719 4.82562L5.38332 8.59849H8.93556ZM0.875 12.4596V12.717L3.27993 12.7906L4.22131 10.7092L10.1049 10.7313L11.0022 12.8568L13.363 12.695L7.06751 0.457031L0.875 12.4596Z" fill="#435F74"/>
<path fill-rule="evenodd" clip-rule="evenodd" d="M15.1484 11.7392C17.649 13.9235 20.9217 12.5482 21.8558 10.2021C22.4515 8.70911 22.2603 2.06061 22.1426 0.148438L21.0982 0.18521H20.0833V0.214628C20.0613 0.95008 20.0686 1.68553 20.0833 2.41363V8.42963C19.9657 9.59165 19.3111 10.5624 17.9432 10.6066C17.0459 10.5919 16.5532 10.3712 16.3031 10.3271C15.9574 10.2683 15.8545 10.7978 15.1484 11.7392Z" fill="#435F74"/>
<path fill-rule="evenodd" clip-rule="evenodd" d="M15.9202 11.7837C15.6628 11.7616 15.398 11.7469 15.1406 11.7248C15.4569 11.1953 15.7658 10.6584 16.082 10.1289C16.5674 10.4304 16.8027 10.504 17.369 10.5849C17.2955 10.8644 17.222 11.1365 17.1484 11.4159C16.7439 11.5336 16.3321 11.6586 15.9202 11.7837Z" fill="#435F74"/>
<path fill-rule="evenodd" clip-rule="evenodd" d="M8.57594 4.24414L8.93631 8.59802L6.97266 4.82515L8.57594 4.24414Z" fill="#435F74"/>
<path fill-rule="evenodd" clip-rule="evenodd" d="M38.6186 0.119141C42.1414 0.119141 45.0023 2.97269 45.0023 6.49551C45.0023 10.0183 42.1414 12.8719 38.6186 12.8719C35.0957 12.8719 32.2422 10.0183 32.2422 6.49551C32.2422 2.97269 35.0957 0.119141 38.6186 0.119141ZM38.6186 2.29608C40.9352 2.29608 42.818 4.17884 42.818 6.49551C42.818 8.81219 40.9426 10.6949 38.6186 10.6949C36.3019 10.6949 34.4191 8.81219 34.4191 6.49551C34.4191 4.17884 36.3019 2.29608 38.6186 2.29608Z" fill="#435F74"/>
<path d="M28.5799 0.148438H26.6016V12.8791H28.5799V0.148438Z" fill="#435F74"/>
</svg>
