<svg width="48" height="14" viewBox="0 0 48 14" fill="none" xmlns="http://www.w3.org/2000/svg">
<path fill-rule="evenodd" clip-rule="evenodd" d="M29.4845 10.9491C26.7659 12.9399 22.8115 14.0004 19.4009 14.0004C14.6227 14.0004 10.3388 12.2545 7.07642 9.35007C6.82928 9.12171 7.04349 8.81162 7.3565 8.99109C10.866 11.0144 15.1994 12.2219 19.681 12.2219C22.6962 12.2219 26.0244 11.6018 29.0891 10.3127C29.5503 10.1333 29.9293 10.6228 29.4845 10.9491H29.4845Z" fill="#FF9900"/>
<path fill-rule="evenodd" clip-rule="evenodd" d="M30.6217 9.65899C30.2758 9.21844 28.315 9.44686 27.4418 9.56109C27.1781 9.59371 27.1287 9.36529 27.3759 9.20211C28.9411 8.10887 31.495 8.43519 31.7916 8.79417C32.0881 9.15316 31.7092 11.6984 30.2425 12.906C30.0119 13.0855 29.7977 12.9876 29.8966 12.7429C30.2263 11.927 30.9677 10.1157 30.6217 9.65899Z" fill="#FF9900"/>
<path fill-rule="evenodd" clip-rule="evenodd" d="M27.4922 1.53404V0.473169C27.4903 0.438395 27.4959 0.40362 27.5085 0.371105C27.5211 0.338589 27.5404 0.30906 27.5653 0.284436C27.5901 0.259813 27.62 0.240646 27.6528 0.22818C27.6856 0.215715 27.7207 0.210231 27.7559 0.212084H32.5341C32.606 0.210585 32.6756 0.237098 32.728 0.285923C32.7804 0.334748 32.8114 0.401983 32.8142 0.473169V1.3706C32.8142 1.51746 32.6824 1.71316 32.4517 2.03962L29.9803 5.53147C30.903 5.51514 31.8752 5.64565 32.6989 6.10239C32.8801 6.20029 32.9295 6.36347 32.946 6.51032V7.63618C32.946 7.79936 32.7813 7.97873 32.6001 7.88093C31.1337 7.11401 29.173 7.03244 27.5583 7.89726C27.3936 7.97883 27.2124 7.8157 27.2124 7.65251V6.57571C27.2124 6.41252 27.2124 6.11897 27.3937 5.85779L30.2606 1.79487H27.7723C27.7005 1.79637 27.6309 1.76989 27.5785 1.72112C27.5261 1.67235 27.4951 1.60518 27.4922 1.53404ZM10.0765 8.1095H8.6266C8.56162 8.10301 8.5006 8.07553 8.45296 8.0313C8.40531 7.98707 8.37369 7.92854 8.36296 7.86475V0.489502C8.36581 0.418325 8.39674 0.351097 8.44912 0.302274C8.5015 0.253451 8.57113 0.226931 8.64304 0.228418H9.99412C10.0609 0.229418 10.125 0.255052 10.1737 0.300311C10.2225 0.34557 10.2524 0.407203 10.2578 0.473169V1.43589H10.2907C10.6366 0.505835 11.3123 0.0652835 12.202 0.0652835C13.1082 0.0652835 13.6848 0.505835 14.0803 1.43589C14.4262 0.505835 15.2337 0.0652835 16.0906 0.0652835C16.7002 0.0652835 17.3593 0.310034 17.7712 0.881153C18.2324 1.50117 18.1337 2.39861 18.1337 3.19814V7.86479C18.1309 7.93597 18.0999 8.0032 18.0475 8.05202C17.9952 8.10085 17.9255 8.12737 17.8536 8.12588H16.42C16.2717 8.10955 16.1563 7.99536 16.1563 7.86479V3.94868C16.1563 3.63865 16.1893 2.85544 16.1234 2.56174C16.0081 2.07224 15.695 1.92539 15.2666 1.92539C15.0775 1.93072 14.894 1.99072 14.7389 2.09799C14.5837 2.20526 14.4636 2.35512 14.3933 2.52913C14.2451 2.90439 14.2615 3.52446 14.2615 3.94868V7.86479C14.2587 7.93597 14.2278 8.0032 14.1754 8.05202C14.123 8.10085 14.0534 8.12737 13.9815 8.12588H12.5315C12.3832 8.10955 12.2679 7.99536 12.2679 7.86479V3.94868C12.2679 3.13281 12.3997 1.90906 11.3782 1.90906C10.3402 1.90906 10.3731 3.08386 10.3731 3.94868V7.86479C10.3627 7.93458 10.3268 7.99814 10.272 8.0433C10.2173 8.08845 10.1477 8.11204 10.0765 8.10955V8.1095ZM36.9333 0.0652835C39.0917 0.0652835 40.2616 1.89277 40.2616 4.2261C40.2616 6.47786 38.9764 8.27268 36.9333 8.27268C34.8243 8.27268 33.6709 6.44519 33.6709 4.16081C33.6544 1.86011 34.8243 0.0650849 36.9333 0.0650849V0.0652835ZM36.9333 1.58274C35.8623 1.58274 35.7964 3.03496 35.7964 3.9324C35.7964 4.82983 35.7799 6.75522 36.9169 6.75522C38.0373 6.75522 38.1031 5.2051 38.1031 4.25872C38.1031 3.63865 38.0702 2.88811 37.8889 2.30066C37.7242 1.77849 37.3947 1.58274 36.9333 1.58274ZM43.0461 8.1095H41.5962C41.4479 8.09316 41.3325 7.97898 41.3325 7.84841V0.456736C41.3416 0.389358 41.3749 0.327491 41.4264 0.28252C41.4779 0.23755 41.544 0.212502 41.6127 0.211985H42.9637C43.025 0.214124 43.0839 0.235995 43.1315 0.274279C43.179 0.312562 43.2127 0.365169 43.2274 0.424119V1.54997H43.2603C43.6722 0.538303 44.2324 0.0651345 45.2375 0.0651345C45.8801 0.0651345 46.5227 0.293503 46.9346 0.929954C47.3135 1.51736 47.3135 2.51269 47.3135 3.23066V7.88098C47.3036 7.9466 47.2695 8.00624 47.2177 8.04841C47.166 8.09058 47.1003 8.11229 47.0334 8.10935H45.5834C45.4516 8.09301 45.3362 7.99516 45.3197 7.88098V3.86711C45.3197 3.05124 45.4186 1.87634 44.4135 1.87634C44.0676 1.87634 43.738 2.10471 43.5732 2.46374C43.3755 2.92048 43.3426 3.36118 43.3426 3.86701V7.84856C43.3334 7.92023 43.2983 7.98617 43.2438 8.03417C43.1892 8.08217 43.119 8.10899 43.046 8.10964L43.0461 8.1095ZM23.6862 4.58508C23.6862 5.13987 23.7027 5.61304 23.4226 6.11912C23.192 6.52705 22.8295 6.77181 22.4175 6.77181C21.8573 6.77181 21.5278 6.34759 21.5278 5.72752C21.5278 4.50376 22.6317 4.2753 23.6862 4.2753V4.58508ZM25.1527 8.09321C25.1057 8.13381 25.0471 8.15879 24.985 8.16464C24.923 8.17049 24.8606 8.15692 24.8068 8.12583C24.329 7.73423 24.2303 7.53843 23.9665 7.16311C23.1756 7.9624 22.5989 8.2074 21.5774 8.2074C20.3581 8.2074 19.4025 7.45681 19.4025 5.97197C19.4025 4.79717 20.045 4.01396 20.9515 3.62231C21.7424 3.27976 22.8464 3.21438 23.6866 3.11648V2.93701C23.6866 2.59446 23.7195 2.18642 23.5054 1.89272C23.3241 1.63164 22.9946 1.51746 22.6983 1.51746C22.138 1.51746 21.6438 1.79482 21.5284 2.38228C21.4955 2.51279 21.4131 2.64336 21.2813 2.64336L19.8808 2.49651C19.7655 2.46389 19.6336 2.38232 19.6665 2.20281C19.9961 0.505835 21.5284 0 22.9124 0C23.6209 0 24.5436 0.179467 25.1038 0.717919C25.8123 1.3706 25.7464 2.25196 25.7464 3.19809V5.43352C25.7464 6.10254 26.0264 6.39624 26.2901 6.77151C26.3889 6.90202 26.4054 7.06521 26.2901 7.14678C25.977 7.39153 25.4498 7.84841 25.1532 8.09316L25.1527 8.09321ZM4.65574 4.58508C4.65574 5.13987 4.67223 5.61304 4.3921 6.11912C4.1615 6.52705 3.79895 6.77181 3.38703 6.77181C2.82682 6.77181 2.49731 6.34759 2.49731 5.72752C2.49731 4.50376 3.60124 4.2753 4.65574 4.2753V4.58508ZM6.10567 8.09321C6.05871 8.13381 6.00007 8.15879 5.93802 8.16464C5.87597 8.17049 5.81362 8.15692 5.75977 8.12583C5.28197 7.73423 5.18326 7.53843 4.91948 7.16311C4.12861 7.9624 3.55191 8.2074 2.53039 8.2074C1.31111 8.2074 0.355469 7.45681 0.355469 5.97197C0.355469 4.79717 0.998045 4.01396 1.90451 3.62231C2.69537 3.27976 3.79945 3.21438 4.6396 3.11648V2.93701C4.6396 2.59446 4.67253 2.18642 4.45837 1.89272C4.27715 1.63164 3.94759 1.51746 3.65127 1.51746C3.09106 1.51746 2.59677 1.79482 2.48142 2.38228C2.44848 2.51279 2.36611 2.64336 2.23427 2.64336L0.833767 2.49651C0.718466 2.46389 0.586622 2.38232 0.619558 2.20281C0.949067 0.505835 2.48142 0 3.86543 0C4.57392 0 5.49658 0.179467 6.05679 0.717919C6.76529 1.3706 6.69937 2.25196 6.69937 3.19809V5.43352C6.69937 6.10254 6.97945 6.39624 7.24309 6.77151C7.34195 6.90202 7.35839 7.06521 7.24309 7.14678C6.93002 7.39153 6.4028 7.84841 6.10622 8.09316L6.10567 8.09321Z" fill="black"/>
</svg>
