<svg width="47" height="38" viewBox="0 0 47 38" fill="none" xmlns="http://www.w3.org/2000/svg">
<g clip-path="url(#clip0_1621_934)">
<path fill-rule="evenodd" clip-rule="evenodd" d="M44.3035 6.85156H42.4761C41.6326 6.85156 41.0703 7.41086 41.0703 8.11003V14.8212C41.0703 15.6601 41.6326 16.2194 42.4761 16.2194H44.3035C45.147 16.2194 45.7093 15.6601 45.7093 14.8212V8.11003C45.7093 7.41092 45.147 6.85156 44.3035 6.85156Z" fill="#1A5096"/>
<path fill-rule="evenodd" clip-rule="evenodd" d="M11.8345 0H35.1687C37.9802 0 40.3697 2.37705 40.3697 5.17333V29.2224C40.3697 30.4809 39.8074 31.5995 39.1045 32.5782V35.0951C39.1045 36.2137 38.261 37.0527 37.1365 37.0527H33.0601C31.9355 37.0527 31.0921 36.2137 31.0921 35.0951V34.396H15.9104V35.0951C15.9104 36.2137 14.9264 37.0527 13.9424 37.0527H9.86604C8.74147 37.0527 7.89801 36.2137 7.89801 35.0951V32.5782C7.05454 31.5995 6.63281 30.4809 6.63281 29.2224V5.17333C6.63281 2.37679 9.02258 0 11.8338 0L11.8345 0ZM17.8789 1.53808H29.1239C30.8108 1.53808 30.8108 4.19474 29.1239 4.19474H17.8789C16.192 4.19474 16.192 1.53808 17.8789 1.53808ZM19.0034 31.0405C18.3006 31.0405 18.3006 29.9219 19.0034 29.9219H28.0001C28.703 29.9219 28.703 31.0405 28.0001 31.0405H19.0034ZM16.7543 28.8033C15.9108 28.8033 15.9108 27.8245 16.7543 27.8245H30.249C31.0925 27.8245 31.0925 28.8033 30.249 28.8033H16.7543ZM13.24 5.45294H33.6221C36.5741 5.45294 38.8231 7.69012 38.8231 10.4864V18.456C38.8231 21.2525 36.5739 23.4895 33.6221 23.4895H13.24C10.4285 23.4895 8.17958 21.2523 8.17958 18.456V10.4864C8.17958 7.68986 10.4287 5.45294 13.24 5.45294ZM35.309 25.587C34.0438 25.587 33.0598 26.5658 33.0598 27.8242C33.0598 29.0827 34.0439 30.0614 35.309 30.0614C36.4336 30.0614 37.5581 29.0826 37.5581 27.8242C37.5581 26.5657 36.4336 25.587 35.309 25.587ZM11.6934 25.587C12.9586 25.587 13.9425 26.5658 13.9425 27.8242C13.9425 29.0827 12.9585 30.0614 11.6934 30.0614C10.4283 30.0614 9.44424 29.0826 9.44424 27.8242C9.44424 26.5657 10.4283 25.587 11.6934 25.587Z" fill="#1A5096"/>
<path fill-rule="evenodd" clip-rule="evenodd" d="M2.69481 6.85156H4.52229C5.22513 6.85156 5.92804 7.41086 5.92804 8.11003V14.8212C5.92804 15.6601 5.2252 16.2194 4.52229 16.2194H2.69481C1.85135 16.2194 1.28906 15.6601 1.28906 14.8212V8.11003C1.28906 7.41092 1.85135 6.85156 2.69481 6.85156Z" fill="#1A5096"/>
</g>
<defs>
<clipPath id="clip0_1621_934">
<rect width="47" height="38" fill="white"/>
</clipPath>
</defs>
</svg>
