<svg width="35" height="35" viewBox="0 0 35 35" fill="none" xmlns="http://www.w3.org/2000/svg">
<path d="M19.2698 17.5L28.242 6.80518C28.3924 6.62744 28.2659 6.35742 28.0335 6.35742H25.3059C25.1453 6.35742 24.9915 6.4292 24.8855 6.55225L17.4856 15.374L10.0857 6.55225C9.98318 6.4292 9.82938 6.35742 9.66531 6.35742H6.93777C6.70535 6.35742 6.57889 6.62744 6.72928 6.80518L15.7014 17.5L6.72928 28.1948C6.69559 28.2344 6.67398 28.2829 6.667 28.3344C6.66003 28.386 6.668 28.4384 6.68995 28.4856C6.7119 28.5327 6.74692 28.5726 6.79085 28.6004C6.83478 28.6282 6.88577 28.6429 6.93777 28.6426H9.66531C9.82596 28.6426 9.97977 28.5708 10.0857 28.4478L17.4856 19.626L24.8855 28.4478C24.9881 28.5708 25.1419 28.6426 25.3059 28.6426H28.0335C28.2659 28.6426 28.3924 28.3726 28.242 28.1948L19.2698 17.5Z" fill="#C4C4C4"/>
</svg>
