<svg width="364" height="342" viewBox="0 0 364 342" fill="none" xmlns="http://www.w3.org/2000/svg">
<path d="M395.74 303.079L178.56 274.026C178.106 268.337 175.189 263.103 170.457 260.524L155.547 252.256C153.407 250.814 151.592 249.752 150.036 249.07L127.542 233.064C125.467 231.471 122.68 232.154 121.318 234.657C119.957 237.084 120.54 240.346 122.68 241.939L142.128 255.821C142.128 256.504 142.192 257.11 142.192 257.793L128.255 247.856C126.18 246.263 123.393 246.946 122.031 249.449C120.67 251.876 121.253 255.138 123.393 256.731L139.664 268.337L139.21 269.551L128.903 262.193C126.829 260.6 124.041 261.283 122.68 263.786C121.318 266.213 121.902 269.475 124.041 271.068L135.386 279.185C135.321 279.336 135.321 279.412 135.256 279.564L133.959 278.578C131.885 276.985 129.097 277.668 127.736 280.171C126.375 282.598 126.958 285.936 129.097 287.453L137.201 293.294C138.432 294.735 140.053 295.949 141.803 297.239C148.286 301.714 153.213 303.079 153.213 303.079C159.436 306.417 166.827 305.355 170.651 299.438L395.74 338.88C402.871 327.425 390.36 315.899 395.74 303.079Z" fill="#F4D19A"/>
<path d="M157.424 341.083L154.572 341.766C149.126 343.055 143.746 338.883 142.644 332.511L107.638 129.595C106.535 123.223 110.101 116.927 115.546 115.637L118.399 114.955C123.844 113.665 129.225 117.837 130.327 124.209L165.398 327.125C166.5 333.497 162.935 339.793 157.424 341.083Z" fill="#333334"/>
<path d="M221.086 144.615L30.7556 185.046C25.2453 186.184 19.9295 181.936 18.9571 175.488L0.157447 54.4216C-0.814951 47.9738 2.81534 41.7536 8.32559 40.6157L198.592 0.184236C204.102 -0.953611 209.418 3.29435 210.39 9.74215L229.19 130.809C230.227 137.257 226.532 143.477 221.086 144.615Z" fill="#09376E"/>
<path d="M164.557 269.323C166.696 271.371 169.808 271.068 171.623 268.64C173.373 266.137 173.114 262.496 171.04 260.372L145.498 236.629C143.359 234.581 140.247 234.884 138.432 237.311C136.682 239.815 136.941 243.456 139.015 245.58L164.557 269.323ZM131.69 261.965C133.764 263.558 136.617 262.875 137.913 260.372C139.275 257.944 138.691 254.607 136.552 253.09L127.995 247.021C125.92 245.428 123.133 246.111 121.771 248.614C120.41 251.042 120.993 254.379 123.133 255.896L131.69 261.965ZM135.385 278.274C137.459 279.867 140.247 279.184 141.608 276.681C142.97 274.254 142.386 270.992 140.247 269.399L128.578 261.282C126.504 259.689 123.716 260.372 122.355 262.875C120.993 265.303 121.577 268.564 123.716 270.157L135.385 278.274ZM136.617 293.673C138.561 295.493 141.414 295.038 142.97 292.763C144.526 290.487 144.137 287.149 142.192 285.329L135.709 280.17C133.764 278.35 130.912 278.805 129.356 281.081C127.8 283.356 128.189 286.694 130.134 288.515L136.617 293.673Z" fill="#F4D19A"/>
<path d="M50.0748 105.626L52.992 114.88C50.6582 116.625 48.2596 118.066 45.861 119.128C44.3052 119.887 42.6845 120.418 40.999 120.797C40.1563 121.025 39.3136 121.1 38.406 121.176C35.8777 121.48 33.6088 121.252 31.5344 120.494C29.4599 119.735 27.5799 118.218 26.0241 115.866C24.4034 113.515 23.3014 110.405 22.6531 106.536L17.6615 76.952C16.8836 72.3247 16.8187 68.6078 17.5318 65.9528C18.2449 63.2978 19.6063 60.8704 21.5511 58.6706C23.6255 56.6224 26.2186 55.1812 29.4599 54.4226C29.7841 54.3467 30.1082 54.2709 30.4323 54.195C34.0626 53.5123 37.5632 53.8157 40.9342 54.9536L40.0915 64.7391C37.5632 64.2081 34.8405 64.3598 31.9882 64.9666C29.8489 65.4976 28.1634 66.5596 27.0613 68.3043C25.9593 70.049 25.5703 71.9454 25.9593 74.1453L31.0806 104.336C31.2751 105.474 31.5344 106.384 31.9233 107.219C32.2475 108.053 32.7661 108.736 33.2847 109.115C33.8681 109.57 34.3867 109.95 34.9053 110.253C35.424 110.556 36.1371 110.708 36.9798 110.632C37.8225 110.556 38.5356 110.481 39.1191 110.481C39.7025 110.405 40.4804 110.177 41.4528 109.798C42.4252 109.343 43.2031 109.039 43.7218 108.812C44.3052 108.584 45.0831 108.205 46.0555 107.674C47.0279 107.143 47.741 106.764 48.13 106.536C48.5837 106.536 49.232 106.157 50.0748 105.626ZM74.0606 69.8215L77.1074 87.496C77.7557 91.213 77.2371 94.1714 75.6164 96.3712C73.9958 98.5711 71.8565 100.012 69.1338 100.619C66.4111 101.226 63.9476 100.923 61.6787 99.633C59.4098 98.3435 57.9836 95.8402 57.3353 92.1232L54.2885 74.4487C53.6402 70.6559 54.0292 67.6216 55.4554 65.2701C56.8815 62.9185 59.1505 61.4014 62.2622 60.6428C65.3738 59.8843 67.9669 60.3394 69.9765 62.0082C72.051 63.6012 73.4123 66.1803 74.0606 69.8215ZM71.7268 87.496L69.1986 73.0074C68.8096 70.6559 68.1614 68.987 67.3835 68.0009C66.5407 67.0148 65.2442 66.7113 63.2994 67.1665C61.4194 67.6216 60.2525 68.456 59.7987 69.7456C59.4098 71.0352 59.345 72.8557 59.7987 75.2073L62.327 89.9234C62.6511 91.6681 63.2346 92.9577 64.207 93.7921C65.1794 94.6265 66.4111 94.8541 68.0317 94.4748C69.5227 94.0955 70.56 93.3369 71.2082 92.0474C71.7917 90.7578 71.9861 89.2407 71.7268 87.496Z" fill="white"/>
<path d="M120.928 97.2042L113.214 99.0248L108.028 68.8339L105.11 100.997L99.2112 102.362L86.0514 74.1438L91.2375 104.259L83.5232 106.079L73.7344 48.9595L81.3839 47.1389L98.8223 82.3363L103.425 41.9049L111.074 40.1602L120.928 97.2042Z" fill="white"/>
<path d="M140.31 93.6394L132.336 95.5358L123.779 45.6222L119.306 46.5325L117.75 37.5814L130.132 34.623L140.31 93.6394Z" fill="white"/>
<path d="M179.92 79.4536L173.178 81.0465L150.943 51.3867L156.777 84.9152L150.1 86.5082L141.543 36.8222L148.22 35.2292L170.391 64.7374L164.621 31.3606L171.363 29.7676L179.92 79.4536Z" fill="white"/>
<path d="M205.397 67.621L200.535 68.7588L200.146 68.3795C198.655 69.4415 197.294 70.0484 196.062 70.3518C193.274 71.0345 190.811 70.6552 188.542 69.2898C186.273 67.9244 184.847 65.4211 184.263 61.78L181.281 44.4848C180.503 39.7817 181.281 36.1406 183.68 33.5614C184.912 32.3477 186.532 31.4375 188.477 30.9823C188.672 30.9065 188.866 30.9065 189.061 30.8306C191.265 30.4513 193.404 30.5272 195.414 31.2099L194.83 37.0508C193.209 36.7474 191.718 36.7474 190.357 37.0508C188.866 37.4301 187.764 38.037 186.986 38.8714C186.273 39.7058 186.014 40.9954 186.338 42.7401L189.385 60.6422C189.709 62.3869 190.292 63.5247 191.2 64.0557C192.107 64.5867 193.339 64.6626 194.895 64.2833C197.747 63.6006 198.914 61.7042 198.396 58.5941L198.331 58.0631L195.673 58.6699L193.015 53.2841L202.48 51.0084L205.397 67.621ZM75.6141 151.594L80.6705 149.622C81.0595 151.139 81.7726 152.201 82.8098 152.959C83.847 153.718 85.1436 153.946 86.5698 153.642C88.3849 153.263 89.6166 152.504 90.3297 151.367C91.0428 150.229 91.3021 149.167 91.1724 148.029C90.978 146.663 90.5242 145.526 89.8111 144.615C89.098 143.705 88.2553 143.098 87.2829 142.643C86.3105 142.188 85.2732 141.809 84.1063 141.505C83.0043 141.202 81.8374 140.898 80.7354 140.519C79.6333 140.14 78.5313 139.76 77.5589 139.229C76.5865 138.698 75.7437 137.94 74.9658 136.878C74.2527 135.816 73.7341 134.526 73.5396 132.933C73.1507 130.506 73.7341 128.23 75.1603 126.106C76.5865 123.982 78.9202 122.617 82.1616 121.934C84.625 121.403 86.8291 121.479 88.8387 122.162L88.709 123.148C88.6442 123.831 88.5146 124.589 88.3849 125.575C88.2553 126.561 88.1904 127.32 88.0608 127.851C85.9215 127.472 84.3008 127.472 83.0043 127.699C81.3188 128.079 80.1519 128.61 79.4388 129.52C78.8554 130.278 78.5961 131.113 78.7257 132.099C78.7257 132.175 78.7257 132.327 78.7906 132.402C78.9851 133.313 79.6981 133.995 80.865 134.526C82.0319 135.057 83.3933 135.513 84.9491 135.968C86.5049 136.423 88.0608 136.954 89.6814 137.561C91.2373 138.243 92.6635 139.305 93.8952 140.747C95.1269 142.264 95.9696 144.16 96.2937 146.436C96.7475 149.47 96.2937 152.201 94.8676 154.552C93.4414 156.904 90.9131 158.421 87.3477 159.18C84.1712 159.862 81.4485 159.407 79.3092 157.738C77.3644 156.221 76.0679 154.173 75.6141 151.594ZM113.473 128.458L115.353 141.05C115.742 143.705 115.353 145.753 114.186 147.27C113.019 148.787 111.463 149.774 109.518 150.153C107.574 150.532 105.823 150.305 104.267 149.318C102.712 148.332 101.674 146.588 101.285 143.933L99.4054 131.265C99.0165 128.534 99.3406 126.41 100.378 124.741C101.415 123.072 103.036 122.01 105.305 121.555C107.509 121.1 109.324 121.479 110.75 122.693C112.176 123.982 113.149 125.879 113.473 128.458ZM111.593 140.974L110.037 130.582C109.778 128.913 109.389 127.699 108.805 126.941C108.222 126.182 107.314 125.955 105.888 126.258C104.527 126.561 103.684 127.092 103.36 128.003C103.036 128.913 103.036 130.203 103.295 131.871L104.851 142.34C105.045 143.629 105.434 144.539 106.147 145.146C106.796 145.753 107.703 145.905 108.87 145.677C109.907 145.45 110.685 144.919 111.139 144.008C111.658 143.25 111.787 142.188 111.593 140.974ZM134.347 125.955L135.708 134.83C135.968 136.726 135.708 138.167 134.866 139.229C134.023 140.291 132.921 140.974 131.559 141.278C130.198 141.581 128.966 141.353 127.864 140.671C126.762 139.988 126.049 138.698 125.79 136.878L124.428 127.927C124.169 126.03 124.364 124.513 125.142 123.3C125.855 122.162 127.022 121.403 128.577 121.1C130.133 120.796 131.43 121.024 132.467 121.934C133.375 122.844 134.023 124.134 134.347 125.955ZM132.986 134.83L131.884 127.472C131.689 126.258 131.43 125.424 131.041 124.893C130.652 124.362 129.939 124.21 129.031 124.437C128.059 124.665 127.475 125.044 127.281 125.651C127.086 126.258 127.022 127.168 127.216 128.382L128.318 135.816C128.448 136.726 128.772 137.333 129.226 137.788C129.679 138.243 130.328 138.319 131.106 138.167C131.819 138.016 132.402 137.636 132.726 137.03C132.986 136.423 133.115 135.74 132.986 134.83Z" fill="white"/>
<path d="M168.448 144.993L162.743 146.207L144.527 120.643L148.805 149.089L143.166 150.227L136.812 108.127L142.452 106.989L160.604 132.401L156.39 104.107L162.095 102.969L168.448 144.993Z" fill="white"/>
</svg>
