<svg width="21" height="11" viewBox="0 0 21 11" fill="none" xmlns="http://www.w3.org/2000/svg">
<path fill-rule="evenodd" clip-rule="evenodd" d="M20.7039 0.366323C20.8915 0.563868 20.9961 0.825895 20.9961 1.09832C20.9961 1.37075 20.8915 1.63278 20.7039 1.83032L12.4399 10.3933C12.2577 10.585 12.0385 10.7376 11.7955 10.8419C11.5525 10.9462 11.2908 11 11.0264 11C10.762 11 10.5003 10.9462 10.2573 10.8419C10.0143 10.7376 9.79506 10.585 9.6129 10.3933L1.2879 1.76832C0.902901 1.36832 0.897902 0.720323 1.2779 0.314323C1.36843 0.216029 1.4782 0.137393 1.6004 0.0832995C1.72259 0.0292061 1.8546 0.000808567 1.98823 -0.000128894C2.12186 -0.00106635 2.25425 0.0254744 2.3772 0.0778483C2.50014 0.130222 2.611 0.207309 2.7029 0.304323L10.3199 8.19732C10.411 8.29324 10.5206 8.36962 10.6422 8.42181C10.7637 8.47401 10.8946 8.50092 11.0269 8.50092C11.1592 8.50092 11.2901 8.47401 11.4116 8.42181C11.5332 8.36962 11.6428 8.29324 11.7339 8.19732L19.2909 0.367323C19.3819 0.271433 19.4915 0.195071 19.6129 0.142889C19.7344 0.0907068 19.8652 0.063796 19.9974 0.063796C20.1296 0.063796 20.2604 0.0907068 20.3819 0.142889C20.5033 0.195071 20.6129 0.270433 20.7039 0.366323Z" fill="#09376E"/>
</svg>
