<svg width="46" height="23" viewBox="0 0 46 23" fill="none" xmlns="http://www.w3.org/2000/svg">
<path d="M39.9491 20.5988C39.7782 20.5079 39.5976 20.4602 39.415 20.4602C39.2273 20.4602 39.0549 20.5079 38.8843 20.5988C38.7077 20.6984 38.576 20.8307 38.4713 21.0096C38.3735 21.1875 38.3317 21.3742 38.3317 21.5642C38.3317 21.7552 38.3735 21.9363 38.4713 22.1125C38.5707 22.2887 38.7012 22.4261 38.8755 22.5202C39.049 22.6198 39.223 22.6663 39.4148 22.6663C39.6029 22.6674 39.7876 22.6169 39.9489 22.5202C40.1212 22.4262 40.2612 22.2887 40.3484 22.1124C40.4459 21.9363 40.4928 21.7552 40.4928 21.5642C40.4928 21.3742 40.4455 21.1875 40.3483 21.0096C40.255 20.8309 40.1199 20.6981 39.9491 20.5988ZM40.1997 22.0188C40.114 22.1647 40.0004 22.2788 39.8578 22.3608C39.7181 22.4448 39.5699 22.4858 39.4148 22.4858C39.2572 22.4863 39.1024 22.4431 38.9679 22.3609C38.8256 22.2801 38.7084 22.1617 38.629 22.0188C38.5513 21.8791 38.5159 21.727 38.5159 21.5645C38.5159 21.4069 38.5556 21.25 38.6335 21.1037C38.7118 20.9557 38.8283 20.8431 38.9711 20.7637C39.1147 20.6827 39.2629 20.6441 39.415 20.6441C39.5662 20.6441 39.7128 20.6825 39.858 20.7637C39.9964 20.8433 40.106 20.9557 40.2 21.1037C40.2749 21.2457 40.3137 21.4039 40.3129 21.5645C40.3127 21.7271 40.277 21.8791 40.1997 22.0188ZM39.6017 21.7072C39.5732 21.6791 39.539 21.6576 39.5014 21.6442C39.6017 21.6346 39.6872 21.5974 39.7497 21.5344C39.8095 21.4699 39.8361 21.3929 39.8361 21.3079C39.8361 21.2479 39.8186 21.1872 39.7829 21.1322C39.7479 21.08 39.6969 21.0405 39.6376 21.0198C39.5751 20.9988 39.4754 20.9899 39.3458 20.9899H38.9401V22.1716H39.1274V21.6758H39.2375C39.3056 21.6739 39.3499 21.6843 39.3882 21.7133C39.4349 21.7493 39.5014 21.8412 39.5841 21.985L39.6873 22.1717H39.9185L39.7782 21.9424C39.7048 21.8335 39.6506 21.755 39.6016 21.7071M39.3526 21.5045H39.1271V21.1489H39.3455C39.4344 21.1489 39.4972 21.1553 39.5276 21.1694C39.566 21.1872 39.5974 21.2054 39.6101 21.2303C39.63 21.2608 39.637 21.2927 39.637 21.3268C39.637 21.3854 39.6186 21.4239 39.5796 21.459C39.5392 21.4851 39.4659 21.5045 39.3526 21.5045ZM16.6546 7.33343C15.9345 7.33343 15.6807 8.00632 15.6807 8.67371H17.6241C17.6241 7.92831 17.3793 7.33343 16.6546 7.33343ZM0.691406 0.328125L5.03383 20.8307L5.36406 20.6603C9.98281 18.2375 14.5944 18.3822 17.6457 18.9312C20.9663 19.5248 23.215 20.7082 23.242 20.7163L23.3625 20.7845L23.4863 20.725C28.9377 18.3038 33.4397 18.4433 36.2557 18.9849C39.3054 19.5752 41.0949 20.753 41.1133 20.7665L41.4566 20.9936L41.545 20.5875L45.9991 0.328125H0.691406ZM12.6664 12.8304H6.27274V6.1061H8.81823V11.1134H12.6664V12.8304ZM16.7792 13.0618C14.1708 13.0618 12.7889 11.7159 12.7889 9.46883C12.7889 7.22243 14.2272 5.8794 16.6349 5.8794C19.2029 5.8794 20.4797 7.52165 20.4797 9.46883C20.4797 9.62279 20.4686 9.76999 20.4477 9.88122H15.5875C15.5875 10.8373 16.1226 11.423 16.9718 11.423C17.6979 11.423 18.2532 11.2176 18.3713 10.6223H20.4918C20.2346 12.1615 19.1511 13.0618 16.7792 13.0618ZM25.2104 12.842H23.1169L19.7754 6.04711H22.7073L24.5003 9.97058H24.5468L26.3413 6.04711H28.445L25.2103 12.8419L25.2104 12.842ZM31.3738 12.8273H28.8274V6.03405H31.3738V12.8273ZM33.725 6.57921L32.8429 7.64376H32.4788L32.8783 6.48505H32.0715V4.93651H33.7252L33.725 6.57921ZM37.0445 12.9799C34.711 12.9799 33.844 11.9546 33.844 10.7131V10.6739H35.9767C35.9767 11.2619 36.4412 11.5592 37.0943 11.5592C37.671 11.5592 37.9671 11.3681 37.9671 11.0022C37.9671 10.0337 33.9017 10.9615 33.9017 8.22375C33.9017 6.75872 35.2707 5.90037 37.4091 5.90037C39.3124 5.90037 40.4666 6.84349 40.4666 7.96898H38.5142C38.5142 7.64422 38.107 7.3198 37.4137 7.3198C36.7082 7.3198 36.4341 7.56873 36.4341 7.78821C36.4341 8.85608 40.6856 7.80872 40.6856 10.5948C40.685 11.9367 39.6777 12.9799 37.0446 12.9799" fill="#C41230"/>
</svg>
