<svg width="35" height="24" viewBox="0 0 35 24" fill="none" xmlns="http://www.w3.org/2000/svg">
<path fill-rule="evenodd" clip-rule="evenodd" d="M18.0553 23.9258C18.0395 23.9289 18.024 23.9335 18.0091 23.9397C18.0252 23.9378 18.0409 23.9331 18.0553 23.9258ZM17.9074 23.9628C17.8751 23.9674 17.8335 23.9766 17.8058 23.9813C17.8335 23.9766 17.8705 23.9674 17.9074 23.9628ZM17.7226 23.9859C17.695 23.9896 17.6672 23.9911 17.6394 23.9905C17.6671 23.9958 17.6956 23.9942 17.7226 23.9859Z" fill="#F37320"/>
<path fill-rule="evenodd" clip-rule="evenodd" d="M17.7963 23.9762C17.7686 23.9762 17.7408 23.9808 17.7224 23.9808C17.7471 23.9813 17.7718 23.9797 17.7963 23.9762ZM17.1216 23.953C17.078 23.946 17.0348 23.9368 16.9922 23.9253C17.0338 23.9299 17.0754 23.9438 17.1216 23.953ZM17.482 23.9946C17.367 23.9922 17.2524 23.9783 17.1401 23.953C17.2519 23.9808 17.3668 23.9948 17.482 23.9946ZM17.6346 23.99C17.6022 23.99 17.5606 23.9946 17.519 23.9946C17.5576 23.9956 17.5962 23.9941 17.6346 23.99ZM25.0056 4.78095H25.001C24.9361 4.7564 24.8669 4.74539 24.7976 4.74859C24.8893 4.75629 24.9795 4.77651 25.0656 4.80869C25.0448 4.80137 25.0247 4.79208 25.0056 4.78095Z" fill="#F15E22"/>
<path fill-rule="evenodd" clip-rule="evenodd" d="M9.86457 0.920836H9.86919C9.88767 0.916213 9.9154 0.906967 9.93851 0.902344C8.10384 1.17973 4.03707 7.72607 1.85118 13.7315C-0.473348 20.1253 0.0858334 23.2089 1.91126 23.8793H1.91588C3.7413 24.5404 6.14902 22.5386 8.47817 16.1402C9.10667 14.4157 9.64274 12.548 10.0679 10.7357C8.93568 5.86295 8.68613 1.36466 9.86457 0.920836Z" fill="#F13AB1"/>
<path fill-rule="evenodd" clip-rule="evenodd" d="M16.8464 23.8795C15.0117 23.2045 14.4618 20.1162 16.7863 13.7317C17.0174 13.0983 17.2623 12.4557 17.535 11.8224C15.1457 6.1128 11.4625 0.578927 9.9375 0.897922C10.0476 0.882864 10.1596 0.892336 10.2656 0.925661H10.2702V0.930284C11.4514 1.36948 11.1991 5.86316 10.065 10.7406C10.4824 12.5718 11.0133 14.3752 11.6548 16.1404C13.4895 21.1796 15.375 23.4865 16.9832 23.9164C16.9362 23.9073 16.8899 23.895 16.8445 23.8795" fill="#FD913C"/>
<path fill-rule="evenodd" clip-rule="evenodd" d="M10.2686 0.930768H10.264C10.1626 0.898089 10.0552 0.888609 9.94973 0.903029C9.91738 0.907652 9.90352 0.916898 9.87579 0.921521H9.87117C8.69273 1.36534 8.94228 5.86364 10.0699 10.7364C11.1929 5.86364 11.447 1.37459 10.2686 0.930768Z" fill="#F05524"/>
<path fill-rule="evenodd" clip-rule="evenodd" d="M24.6652 0.953125C22.9553 1.57262 19.7203 6.63032 17.5391 11.8175C17.8071 12.4508 18.0567 13.0934 18.2877 13.7268C20.6122 20.116 20.0577 23.2042 18.2276 23.8699V23.8746C18.1722 23.8884 18.1121 23.9069 18.0659 23.9208C19.6787 23.5047 21.5827 21.2024 23.4128 16.1355C24.0389 14.4172 24.5575 12.6617 24.9655 10.879C23.8333 6.04781 23.5468 1.54026 24.6652 0.953125Z" fill="#FD913C"/>
<path fill-rule="evenodd" clip-rule="evenodd" d="M18.2188 23.8755H18.2234C20.0489 23.2097 20.6034 20.1122 18.2835 13.7277C18.0432 13.0943 17.7983 12.4517 17.5256 11.8184C17.2576 12.4517 17.008 13.0943 16.777 13.7277C14.4524 20.1169 15.0116 23.2097 16.837 23.8755C16.8833 23.894 16.9341 23.9032 16.9803 23.9171C17.0222 23.9322 17.0656 23.943 17.1097 23.9494H17.1282C17.242 23.9756 17.3581 23.991 17.4748 23.9957H17.6227C17.6508 23.9937 17.6786 23.989 17.7058 23.9818C17.7382 23.9818 17.7613 23.9772 17.7937 23.9772C17.826 23.9772 17.8537 23.9633 17.8907 23.9587C17.9283 23.9574 17.9656 23.9512 18.0016 23.9402C18.0201 23.9402 18.034 23.9356 18.0478 23.9356C18.1079 23.9124 18.1634 23.8986 18.2188 23.8755Z" fill="#F05524"/>
<path fill-rule="evenodd" clip-rule="evenodd" d="M25.2475 0.949219C26.3797 1.51324 26.0978 6.02541 24.9609 10.8889C25.3704 12.6677 25.8874 14.42 26.5091 16.1362C28.8382 22.53 31.2459 24.5364 33.0806 23.8753H33.0852C34.906 23.2003 35.4652 20.1213 33.1407 13.7275C31.0287 7.92551 27.1635 1.62419 25.2475 0.949219Z" fill="#F13AB1"/>
<path fill-rule="evenodd" clip-rule="evenodd" d="M25.2452 0.948773C25.1588 0.917325 25.0687 0.897125 24.9772 0.888672C24.8648 0.893972 24.754 0.917389 24.6491 0.958019C23.5399 1.54516 23.8172 6.04345 24.9541 10.8885C26.1002 6.02958 26.3774 1.51742 25.2452 0.948773Z" fill="#F05524"/>
</svg>
