<svg width="249" height="172" viewBox="0 0 249 172" fill="none" xmlns="http://www.w3.org/2000/svg">
<path d="M1.04688 171H65.8088" stroke="#043A7B" stroke-width="2" stroke-linecap="round" stroke-linejoin="round"/>
<path d="M114.381 9.09524C114.381 6.94825 113.528 4.88919 112.01 3.37104C110.492 1.85289 108.433 1 106.286 1H25.3335C23.1865 1 21.1275 1.85289 19.6093 3.37104C18.0912 4.88919 17.2383 6.94825 17.2383 9.09524V162.905C17.2383 165.052 18.0912 167.111 19.6093 168.629C21.1275 170.147 23.1865 171 25.3335 171H215.572C217.719 171 219.778 170.147 221.296 168.629C222.814 167.111 223.667 165.052 223.667 162.905V25.2857C223.667 23.1387 222.814 21.0797 221.296 19.5615C219.778 18.0434 217.719 17.1905 215.572 17.1905H122.476C120.329 17.1905 118.27 16.3376 116.752 14.8194C115.234 13.3013 114.381 11.2422 114.381 9.09524Z" fill="#09376E" stroke="#043A7B" stroke-width="2" stroke-linecap="round" stroke-linejoin="round"/>
<path d="M239.857 45.5234H49.6192C47.4722 45.5234 45.4132 46.3763 43.895 47.8945C42.3769 49.4126 41.524 51.4717 41.524 53.6187L17.2383 162.904C17.2383 165.051 18.0912 167.11 19.6093 168.629C21.1275 170.147 23.1865 171 25.3335 171H215.572C217.719 171 219.778 170.147 221.296 168.629C222.814 167.11 223.667 165.051 223.667 162.904L247.953 53.6187C247.953 51.4717 247.1 49.4126 245.582 47.8945C244.063 46.3763 242.004 45.5234 239.857 45.5234Z" fill="#CFD8DC" stroke="#CFD8DC" stroke-width="2" stroke-linecap="round" stroke-linejoin="round"/>
<path opacity="0.1" d="M68.8049 45.5234H49.6192C47.4722 45.5234 45.4132 46.3763 43.895 47.8945C42.3769 49.4126 41.524 51.4717 41.524 53.6187L17.2383 162.904C17.2383 165.051 18.0912 167.11 19.6093 168.629C21.1275 170.147 23.1865 171 25.3335 171H46.624L68.8049 45.5234Z" fill="#5B3B63" stroke="#5B3B63" stroke-width="2" stroke-miterlimit="10" stroke-linecap="round"/>
<path d="M121.906 126.478C124.669 123.841 127.936 121.789 131.511 120.447C135.086 119.104 138.896 118.499 142.711 118.666C146.499 118.521 150.279 119.137 153.824 120.479C157.37 121.821 160.611 123.861 163.354 126.478" stroke="#54596E" stroke-width="2" stroke-linecap="round" stroke-linejoin="round"/>
<path d="M175.095 98.1436C179.566 98.1436 183.19 94.5192 183.19 90.0484C183.19 85.5775 179.566 81.9531 175.095 81.9531C170.624 81.9531 167 85.5775 167 90.0484C167 94.5192 170.624 98.1436 175.095 98.1436Z" fill="#4F4F4F"/>
<path d="M114.38 98.1436C118.851 98.1436 122.476 94.5192 122.476 90.0484C122.476 85.5775 118.851 81.9531 114.38 81.9531C109.91 81.9531 106.285 85.5775 106.285 90.0484C106.285 94.5192 109.91 98.1436 114.38 98.1436Z" fill="#4F4F4F"/>
<path d="M98.189 114.333C102.66 114.333 106.284 110.709 106.284 106.238C106.284 101.767 102.66 98.1426 98.189 98.1426C93.7181 98.1426 90.0938 101.767 90.0938 106.238C90.0938 110.709 93.7181 114.333 98.189 114.333Z" fill="#ADADAD"/>
<path d="M191.287 114.333C195.758 114.333 199.382 110.709 199.382 106.238C199.382 101.767 195.758 98.1426 191.287 98.1426C186.816 98.1426 183.191 101.767 183.191 106.238C183.191 110.709 186.816 114.333 191.287 114.333Z" fill="#ADADAD"/>
</svg>
