<svg width="376" height="597" viewBox="0 0 376 597" fill="none" xmlns="http://www.w3.org/2000/svg">
<rect x="18" y="57" width="340" height="525" fill="white"/>
<rect x="18" width="340" height="520" rx="23" fill="white"/>
<circle cx="16" cy="335" r="16" fill="#09376E"/>
<circle cx="360" cy="335" r="16" fill="#09376E"/>
<circle cx="28" cy="584" r="13" fill="#09376E"/>
<circle cx="123" cy="584" r="13" fill="#09376E"/>
<circle cx="218" cy="584" r="13" fill="#09376E"/>
<circle cx="59" cy="584" r="13" fill="#09376E"/>
<circle cx="154" cy="584" r="13" fill="#09376E"/>
<circle cx="249" cy="584" r="13" fill="#09376E"/>
<circle cx="282" cy="584" r="13" fill="#09376E"/>
<circle cx="92" cy="584" r="13" fill="#09376E"/>
<circle cx="187" cy="584" r="13" fill="#09376E"/>
<circle cx="315" cy="584" r="13" fill="#09376E"/>
<circle cx="346" cy="584" r="13" fill="#09376E"/>
<line x1="38" y1="334.5" x2="58" y2="334.5" stroke="black"/>
<line x1="143" y1="334.5" x2="163" y2="334.5" stroke="black"/>
<line x1="247" y1="334.5" x2="267" y2="334.5" stroke="black"/>
<line x1="73" y1="334.5" x2="93" y2="334.5" stroke="black"/>
<line x1="178" y1="334.5" x2="198" y2="334.5" stroke="black"/>
<line x1="282" y1="334.5" x2="302" y2="334.5" stroke="black"/>
<line x1="107" y1="334.5" x2="127" y2="334.5" stroke="black"/>
<line x1="212" y1="334.5" x2="232" y2="334.5" stroke="black"/>
<line x1="316" y1="334.5" x2="336" y2="334.5" stroke="black"/>
</svg>
