<svg width="287" height="178" viewBox="0 0 287 178" fill="none" xmlns="http://www.w3.org/2000/svg">
<path d="M8.55167 48V44.784L8.82767 45.528L5.21567 39.6H6.49967L9.53567 44.604H8.83967L11.8877 39.6H13.0757L9.47567 45.528L9.73967 44.784V48H8.55167ZM15.801 48.072C15.161 48.072 14.593 47.932 14.097 47.652C13.601 47.372 13.209 46.988 12.921 46.5C12.633 46.004 12.489 45.444 12.489 44.82C12.489 44.188 12.633 43.628 12.921 43.14C13.209 42.652 13.601 42.272 14.097 42C14.593 41.72 15.161 41.58 15.801 41.58C16.433 41.58 16.997 41.72 17.493 42C17.997 42.272 18.389 42.652 18.669 43.14C18.957 43.62 19.101 44.18 19.101 44.82C19.101 45.452 18.957 46.012 18.669 46.5C18.389 46.988 17.997 47.372 17.493 47.652C16.997 47.932 16.433 48.072 15.801 48.072ZM15.801 47.064C16.209 47.064 16.573 46.972 16.893 46.788C17.221 46.604 17.477 46.344 17.661 46.008C17.845 45.664 17.937 45.268 17.937 44.82C17.937 44.364 17.845 43.972 17.661 43.644C17.477 43.308 17.221 43.048 16.893 42.864C16.573 42.68 16.209 42.588 15.801 42.588C15.393 42.588 15.029 42.68 14.709 42.864C14.389 43.048 14.133 43.308 13.941 43.644C13.749 43.972 13.653 44.364 13.653 44.82C13.653 45.268 13.749 45.664 13.941 46.008C14.133 46.344 14.389 46.604 14.709 46.788C15.029 46.972 15.393 47.064 15.801 47.064ZM23.0369 48.072C22.4929 48.072 22.0129 47.972 21.5969 47.772C21.1889 47.572 20.8689 47.268 20.6369 46.86C20.4129 46.444 20.3009 45.924 20.3009 45.3V41.64H21.4529V45.168C21.4529 45.792 21.6009 46.26 21.8969 46.572C22.2009 46.884 22.6249 47.04 23.1689 47.04C23.5689 47.04 23.9169 46.96 24.2129 46.8C24.5089 46.632 24.7369 46.392 24.8969 46.08C25.0569 45.76 25.1369 45.376 25.1369 44.928V41.64H26.2889V48H25.1969V46.284L25.3769 46.74C25.1689 47.164 24.8569 47.492 24.4409 47.724C24.0249 47.956 23.5569 48.072 23.0369 48.072ZM28.1486 48V41.64H29.2526V43.368L29.1446 42.936C29.3206 42.496 29.6166 42.16 30.0326 41.928C30.4486 41.696 30.9606 41.58 31.5686 41.58V42.696C31.5206 42.688 31.4726 42.684 31.4246 42.684C31.3846 42.684 31.3446 42.684 31.3046 42.684C30.6886 42.684 30.2006 42.868 29.8406 43.236C29.4806 43.604 29.3006 44.136 29.3006 44.832V48H28.1486ZM43.5825 41.58C44.0945 41.58 44.5465 41.68 44.9385 41.88C45.3305 42.08 45.6345 42.384 45.8505 42.792C46.0745 43.2 46.1865 43.716 46.1865 44.34V48H45.0345V44.472C45.0345 43.856 44.8905 43.392 44.6025 43.08C44.3145 42.768 43.9105 42.612 43.3905 42.612C43.0065 42.612 42.6705 42.692 42.3825 42.852C42.0945 43.012 41.8705 43.248 41.7105 43.56C41.5585 43.872 41.4825 44.26 41.4825 44.724V48H40.3305V44.472C40.3305 43.856 40.1865 43.392 39.8985 43.08C39.6185 42.768 39.2145 42.612 38.6865 42.612C38.3105 42.612 37.9785 42.692 37.6905 42.852C37.4025 43.012 37.1785 43.248 37.0185 43.56C36.8585 43.872 36.7785 44.26 36.7785 44.724V48H35.6265V41.64H36.7305V43.332L36.5505 42.9C36.7505 42.484 37.0585 42.16 37.4745 41.928C37.8905 41.696 38.3745 41.58 38.9265 41.58C39.5345 41.58 40.0585 41.732 40.4985 42.036C40.9385 42.332 41.2265 42.784 41.3625 43.392L40.8945 43.2C41.0865 42.712 41.4225 42.32 41.9025 42.024C42.3825 41.728 42.9425 41.58 43.5825 41.58ZM50.6969 48.072C50.0569 48.072 49.4889 47.932 48.9929 47.652C48.4969 47.372 48.1049 46.988 47.8169 46.5C47.5289 46.004 47.3849 45.444 47.3849 44.82C47.3849 44.188 47.5289 43.628 47.8169 43.14C48.1049 42.652 48.4969 42.272 48.9929 42C49.4889 41.72 50.0569 41.58 50.6969 41.58C51.3289 41.58 51.8929 41.72 52.3889 42C52.8929 42.272 53.2849 42.652 53.5649 43.14C53.8529 43.62 53.9969 44.18 53.9969 44.82C53.9969 45.452 53.8529 46.012 53.5649 46.5C53.2849 46.988 52.8929 47.372 52.3889 47.652C51.8929 47.932 51.3289 48.072 50.6969 48.072ZM50.6969 47.064C51.1049 47.064 51.4689 46.972 51.7889 46.788C52.1169 46.604 52.3729 46.344 52.5569 46.008C52.7409 45.664 52.8329 45.268 52.8329 44.82C52.8329 44.364 52.7409 43.972 52.5569 43.644C52.3729 43.308 52.1169 43.048 51.7889 42.864C51.4689 42.68 51.1049 42.588 50.6969 42.588C50.2889 42.588 49.9249 42.68 49.6049 42.864C49.2849 43.048 49.0289 43.308 48.8369 43.644C48.6449 43.972 48.5489 44.364 48.5489 44.82C48.5489 45.268 48.6449 45.664 48.8369 46.008C49.0289 46.344 49.2849 46.604 49.6049 46.788C49.9249 46.972 50.2889 47.064 50.6969 47.064ZM58.6527 41.58C59.1727 41.58 59.6287 41.68 60.0207 41.88C60.4207 42.08 60.7327 42.384 60.9567 42.792C61.1807 43.2 61.2927 43.716 61.2927 44.34V48H60.1407V44.472C60.1407 43.856 59.9887 43.392 59.6847 43.08C59.3887 42.768 58.9687 42.612 58.4247 42.612C58.0167 42.612 57.6607 42.692 57.3567 42.852C57.0527 43.012 56.8167 43.248 56.6487 43.56C56.4887 43.872 56.4087 44.26 56.4087 44.724V48H55.2567V41.64H56.3607V43.356L56.1807 42.9C56.3887 42.484 56.7087 42.16 57.1407 41.928C57.5727 41.696 58.0767 41.58 58.6527 41.58ZM65.9233 48.072C65.2433 48.072 64.6433 47.932 64.1233 47.652C63.6113 47.372 63.2113 46.988 62.9233 46.5C62.6433 46.012 62.5033 45.452 62.5033 44.82C62.5033 44.188 62.6393 43.628 62.9113 43.14C63.1913 42.652 63.5713 42.272 64.0513 42C64.5393 41.72 65.0873 41.58 65.6953 41.58C66.3113 41.58 66.8553 41.716 67.3273 41.988C67.7993 42.26 68.1673 42.644 68.4313 43.14C68.7033 43.628 68.8393 44.2 68.8393 44.856C68.8393 44.904 68.8353 44.96 68.8273 45.024C68.8273 45.088 68.8233 45.148 68.8153 45.204H63.4033V44.376H68.2153L67.7473 44.664C67.7553 44.256 67.6713 43.892 67.4953 43.572C67.3193 43.252 67.0753 43.004 66.7633 42.828C66.4593 42.644 66.1033 42.552 65.6953 42.552C65.2953 42.552 64.9393 42.644 64.6273 42.828C64.3153 43.004 64.0713 43.256 63.8953 43.584C63.7193 43.904 63.6313 44.272 63.6313 44.688V44.88C63.6313 45.304 63.7273 45.684 63.9193 46.02C64.1193 46.348 64.3953 46.604 64.7473 46.788C65.0993 46.972 65.5033 47.064 65.9593 47.064C66.3353 47.064 66.6753 47 66.9793 46.872C67.2913 46.744 67.5633 46.552 67.7953 46.296L68.4313 47.04C68.1433 47.376 67.7833 47.632 67.3513 47.808C66.9273 47.984 66.4513 48.072 65.9233 48.072ZM70.2645 50.4C69.9605 50.4 69.6645 50.348 69.3765 50.244C69.0885 50.148 68.8405 50.004 68.6325 49.812L69.1245 48.948C69.2845 49.1 69.4605 49.216 69.6525 49.296C69.8445 49.376 70.0485 49.416 70.2645 49.416C70.5445 49.416 70.7765 49.344 70.9605 49.2C71.1445 49.056 71.3165 48.8 71.4765 48.432L71.8725 47.556L71.9925 47.412L74.4885 41.64H75.6165L72.5325 48.636C72.3485 49.084 72.1405 49.436 71.9085 49.692C71.6845 49.948 71.4365 50.128 71.1645 50.232C70.8925 50.344 70.5925 50.4 70.2645 50.4ZM71.7765 48.204L68.8725 41.64H70.0725L72.5445 47.304L71.7765 48.204ZM82.6436 41.58C83.1636 41.58 83.6196 41.68 84.0116 41.88C84.4116 42.08 84.7236 42.384 84.9476 42.792C85.1716 43.2 85.2836 43.716 85.2836 44.34V48H84.1316V44.472C84.1316 43.856 83.9796 43.392 83.6756 43.08C83.3796 42.768 82.9596 42.612 82.4156 42.612C82.0076 42.612 81.6516 42.692 81.3476 42.852C81.0436 43.012 80.8076 43.248 80.6396 43.56C80.4796 43.872 80.3996 44.26 80.3996 44.724V48H79.2476V39.096H80.3996V43.356L80.1716 42.9C80.3796 42.484 80.6996 42.16 81.1316 41.928C81.5636 41.696 82.0676 41.58 82.6436 41.58ZM91.0302 48V46.656L90.9702 46.404V44.112C90.9702 43.624 90.8262 43.248 90.5382 42.984C90.2582 42.712 89.8342 42.576 89.2662 42.576C88.8902 42.576 88.5222 42.64 88.1622 42.768C87.8022 42.888 87.4982 43.052 87.2502 43.26L86.7702 42.396C87.0982 42.132 87.4902 41.932 87.9462 41.796C88.4102 41.652 88.8942 41.58 89.3982 41.58C90.2702 41.58 90.9422 41.792 91.4142 42.216C91.8862 42.64 92.1222 43.288 92.1222 44.16V48H91.0302ZM88.9422 48.072C88.4702 48.072 88.0542 47.992 87.6942 47.832C87.3422 47.672 87.0702 47.452 86.8782 47.172C86.6862 46.884 86.5902 46.56 86.5902 46.2C86.5902 45.856 86.6702 45.544 86.8302 45.264C86.9982 44.984 87.2662 44.76 87.6342 44.592C88.0102 44.424 88.5142 44.34 89.1462 44.34H91.1622V45.168H89.1942C88.6182 45.168 88.2302 45.264 88.0302 45.456C87.8302 45.648 87.7302 45.88 87.7302 46.152C87.7302 46.464 87.8542 46.716 88.1022 46.908C88.3502 47.092 88.6942 47.184 89.1342 47.184C89.5662 47.184 89.9422 47.088 90.2622 46.896C90.5902 46.704 90.8262 46.424 90.9702 46.056L91.1982 46.848C91.0462 47.224 90.7782 47.524 90.3942 47.748C90.0102 47.964 89.5262 48.072 88.9422 48.072ZM95.7448 48.072C95.2168 48.072 94.7128 48 94.2328 47.856C93.7608 47.712 93.3888 47.536 93.1168 47.328L93.5968 46.416C93.8688 46.6 94.2048 46.756 94.6048 46.884C95.0048 47.012 95.4128 47.076 95.8288 47.076C96.3648 47.076 96.7488 47 96.9808 46.848C97.2208 46.696 97.3408 46.484 97.3408 46.212C97.3408 46.012 97.2688 45.856 97.1248 45.744C96.9808 45.632 96.7888 45.548 96.5488 45.492C96.3168 45.436 96.0568 45.388 95.7688 45.348C95.4808 45.3 95.1928 45.244 94.9048 45.18C94.6168 45.108 94.3528 45.012 94.1128 44.892C93.8728 44.764 93.6808 44.592 93.5368 44.376C93.3928 44.152 93.3208 43.856 93.3208 43.488C93.3208 43.104 93.4288 42.768 93.6448 42.48C93.8608 42.192 94.1648 41.972 94.5568 41.82C94.9568 41.66 95.4288 41.58 95.9728 41.58C96.3888 41.58 96.8088 41.632 97.2328 41.736C97.6648 41.832 98.0168 41.972 98.2888 42.156L97.7968 43.068C97.5088 42.876 97.2088 42.744 96.8968 42.672C96.5848 42.6 96.2728 42.564 95.9608 42.564C95.4568 42.564 95.0808 42.648 94.8328 42.816C94.5848 42.976 94.4608 43.184 94.4608 43.44C94.4608 43.656 94.5328 43.824 94.6768 43.944C94.8288 44.056 95.0208 44.144 95.2528 44.208C95.4928 44.272 95.7568 44.328 96.0448 44.376C96.3328 44.416 96.6208 44.472 96.9088 44.544C97.1968 44.608 97.4568 44.7 97.6888 44.82C97.9288 44.94 98.1208 45.108 98.2648 45.324C98.4168 45.54 98.4928 45.828 98.4928 46.188C98.4928 46.572 98.3808 46.904 98.1568 47.184C97.9328 47.464 97.6168 47.684 97.2088 47.844C96.8008 47.996 96.3128 48.072 95.7448 48.072ZM105.86 48.072C105.316 48.072 104.824 47.952 104.384 47.712C103.952 47.464 103.608 47.1 103.352 46.62C103.104 46.14 102.98 45.54 102.98 44.82C102.98 44.1 103.108 43.5 103.364 43.02C103.628 42.54 103.976 42.18 104.408 41.94C104.848 41.7 105.332 41.58 105.86 41.58C106.484 41.58 107.036 41.716 107.516 41.988C107.996 42.26 108.376 42.64 108.656 43.128C108.936 43.608 109.076 44.172 109.076 44.82C109.076 45.468 108.936 46.036 108.656 46.524C108.376 47.012 107.996 47.392 107.516 47.664C107.036 47.936 106.484 48.072 105.86 48.072ZM102.488 48V39.096H103.64V43.332L103.52 44.808L103.592 46.284V48H102.488ZM105.764 47.064C106.172 47.064 106.536 46.972 106.856 46.788C107.184 46.604 107.44 46.344 107.624 46.008C107.816 45.664 107.912 45.268 107.912 44.82C107.912 44.364 107.816 43.972 107.624 43.644C107.44 43.308 107.184 43.048 106.856 42.864C106.536 42.68 106.172 42.588 105.764 42.588C105.364 42.588 105 42.68 104.672 42.864C104.352 43.048 104.096 43.308 103.904 43.644C103.72 43.972 103.628 44.364 103.628 44.82C103.628 45.268 103.72 45.664 103.904 46.008C104.096 46.344 104.352 46.604 104.672 46.788C105 46.972 105.364 47.064 105.764 47.064ZM113.167 48.072C112.487 48.072 111.887 47.932 111.367 47.652C110.855 47.372 110.455 46.988 110.167 46.5C109.887 46.012 109.747 45.452 109.747 44.82C109.747 44.188 109.883 43.628 110.155 43.14C110.435 42.652 110.815 42.272 111.295 42C111.783 41.72 112.331 41.58 112.939 41.58C113.555 41.58 114.099 41.716 114.571 41.988C115.043 42.26 115.411 42.644 115.675 43.14C115.947 43.628 116.083 44.2 116.083 44.856C116.083 44.904 116.079 44.96 116.071 45.024C116.071 45.088 116.067 45.148 116.059 45.204H110.647V44.376H115.459L114.991 44.664C114.999 44.256 114.915 43.892 114.739 43.572C114.563 43.252 114.319 43.004 114.007 42.828C113.703 42.644 113.347 42.552 112.939 42.552C112.539 42.552 112.183 42.644 111.871 42.828C111.559 43.004 111.315 43.256 111.139 43.584C110.963 43.904 110.875 44.272 110.875 44.688V44.88C110.875 45.304 110.971 45.684 111.163 46.02C111.363 46.348 111.639 46.604 111.991 46.788C112.343 46.972 112.747 47.064 113.203 47.064C113.579 47.064 113.919 47 114.223 46.872C114.535 46.744 114.807 46.552 115.039 46.296L115.675 47.04C115.387 47.376 115.027 47.632 114.595 47.808C114.171 47.984 113.695 48.072 113.167 48.072ZM120.181 48.072C119.501 48.072 118.901 47.932 118.381 47.652C117.869 47.372 117.469 46.988 117.181 46.5C116.901 46.012 116.761 45.452 116.761 44.82C116.761 44.188 116.897 43.628 117.169 43.14C117.449 42.652 117.829 42.272 118.309 42C118.797 41.72 119.345 41.58 119.953 41.58C120.569 41.58 121.113 41.716 121.585 41.988C122.057 42.26 122.425 42.644 122.689 43.14C122.961 43.628 123.097 44.2 123.097 44.856C123.097 44.904 123.093 44.96 123.085 45.024C123.085 45.088 123.081 45.148 123.073 45.204H117.661V44.376H122.473L122.005 44.664C122.013 44.256 121.929 43.892 121.753 43.572C121.577 43.252 121.333 43.004 121.021 42.828C120.717 42.644 120.361 42.552 119.953 42.552C119.553 42.552 119.197 42.644 118.885 42.828C118.573 43.004 118.329 43.256 118.153 43.584C117.977 43.904 117.889 44.272 117.889 44.688V44.88C117.889 45.304 117.985 45.684 118.177 46.02C118.377 46.348 118.653 46.604 119.005 46.788C119.357 46.972 119.761 47.064 120.217 47.064C120.593 47.064 120.933 47 121.237 46.872C121.549 46.744 121.821 46.552 122.053 46.296L122.689 47.04C122.401 47.376 122.041 47.632 121.609 47.808C121.185 47.984 120.709 48.072 120.181 48.072ZM127.759 41.58C128.279 41.58 128.735 41.68 129.127 41.88C129.527 42.08 129.839 42.384 130.063 42.792C130.287 43.2 130.399 43.716 130.399 44.34V48H129.247V44.472C129.247 43.856 129.095 43.392 128.791 43.08C128.495 42.768 128.075 42.612 127.531 42.612C127.123 42.612 126.767 42.692 126.463 42.852C126.159 43.012 125.923 43.248 125.755 43.56C125.595 43.872 125.515 44.26 125.515 44.724V48H124.363V41.64H125.467V43.356L125.287 42.9C125.495 42.484 125.815 42.16 126.247 41.928C126.679 41.696 127.183 41.58 127.759 41.58ZM136.911 48.072C136.383 48.072 135.879 48 135.399 47.856C134.927 47.712 134.555 47.536 134.283 47.328L134.763 46.416C135.035 46.6 135.371 46.756 135.771 46.884C136.171 47.012 136.579 47.076 136.995 47.076C137.531 47.076 137.915 47 138.147 46.848C138.387 46.696 138.507 46.484 138.507 46.212C138.507 46.012 138.435 45.856 138.291 45.744C138.147 45.632 137.955 45.548 137.715 45.492C137.483 45.436 137.223 45.388 136.935 45.348C136.647 45.3 136.359 45.244 136.071 45.18C135.783 45.108 135.519 45.012 135.279 44.892C135.039 44.764 134.847 44.592 134.703 44.376C134.559 44.152 134.487 43.856 134.487 43.488C134.487 43.104 134.595 42.768 134.811 42.48C135.027 42.192 135.331 41.972 135.723 41.82C136.123 41.66 136.595 41.58 137.139 41.58C137.555 41.58 137.975 41.632 138.399 41.736C138.831 41.832 139.183 41.972 139.455 42.156L138.963 43.068C138.675 42.876 138.375 42.744 138.063 42.672C137.751 42.6 137.439 42.564 137.127 42.564C136.623 42.564 136.247 42.648 135.999 42.816C135.751 42.976 135.627 43.184 135.627 43.44C135.627 43.656 135.699 43.824 135.843 43.944C135.995 44.056 136.187 44.144 136.419 44.208C136.659 44.272 136.923 44.328 137.211 44.376C137.499 44.416 137.787 44.472 138.075 44.544C138.363 44.608 138.623 44.7 138.855 44.82C139.095 44.94 139.287 45.108 139.431 45.324C139.583 45.54 139.659 45.828 139.659 46.188C139.659 46.572 139.547 46.904 139.323 47.184C139.099 47.464 138.783 47.684 138.375 47.844C137.967 47.996 137.479 48.072 136.911 48.072ZM143.442 48.072C142.898 48.072 142.418 47.972 142.002 47.772C141.594 47.572 141.274 47.268 141.042 46.86C140.818 46.444 140.706 45.924 140.706 45.3V41.64H141.858V45.168C141.858 45.792 142.006 46.26 142.302 46.572C142.606 46.884 143.03 47.04 143.574 47.04C143.974 47.04 144.322 46.96 144.618 46.8C144.914 46.632 145.142 46.392 145.302 46.08C145.462 45.76 145.542 45.376 145.542 44.928V41.64H146.694V48H145.602V46.284L145.782 46.74C145.574 47.164 145.262 47.492 144.846 47.724C144.43 47.956 143.962 48.072 143.442 48.072ZM151.326 48.072C150.678 48.072 150.098 47.932 149.586 47.652C149.082 47.372 148.686 46.988 148.398 46.5C148.11 46.012 147.966 45.452 147.966 44.82C147.966 44.188 148.11 43.628 148.398 43.14C148.686 42.652 149.082 42.272 149.586 42C150.098 41.72 150.678 41.58 151.326 41.58C151.902 41.58 152.414 41.696 152.862 41.928C153.318 42.152 153.67 42.488 153.918 42.936L153.042 43.5C152.834 43.188 152.578 42.96 152.274 42.816C151.978 42.664 151.658 42.588 151.314 42.588C150.898 42.588 150.526 42.68 150.198 42.864C149.87 43.048 149.61 43.308 149.418 43.644C149.226 43.972 149.13 44.364 149.13 44.82C149.13 45.276 149.226 45.672 149.418 46.008C149.61 46.344 149.87 46.604 150.198 46.788C150.526 46.972 150.898 47.064 151.314 47.064C151.658 47.064 151.978 46.992 152.274 46.848C152.578 46.696 152.834 46.464 153.042 46.152L153.918 46.704C153.67 47.144 153.318 47.484 152.862 47.724C152.414 47.956 151.902 48.072 151.326 48.072ZM157.754 48.072C157.106 48.072 156.526 47.932 156.014 47.652C155.51 47.372 155.114 46.988 154.826 46.5C154.538 46.012 154.394 45.452 154.394 44.82C154.394 44.188 154.538 43.628 154.826 43.14C155.114 42.652 155.51 42.272 156.014 42C156.526 41.72 157.106 41.58 157.754 41.58C158.33 41.58 158.842 41.696 159.29 41.928C159.746 42.152 160.098 42.488 160.346 42.936L159.47 43.5C159.262 43.188 159.006 42.96 158.702 42.816C158.406 42.664 158.086 42.588 157.742 42.588C157.326 42.588 156.954 42.68 156.626 42.864C156.298 43.048 156.038 43.308 155.846 43.644C155.654 43.972 155.558 44.364 155.558 44.82C155.558 45.276 155.654 45.672 155.846 46.008C156.038 46.344 156.298 46.604 156.626 46.788C156.954 46.972 157.326 47.064 157.742 47.064C158.086 47.064 158.406 46.992 158.702 46.848C159.006 46.696 159.262 46.464 159.47 46.152L160.346 46.704C160.098 47.144 159.746 47.484 159.29 47.724C158.842 47.956 158.33 48.072 157.754 48.072ZM164.242 48.072C163.562 48.072 162.962 47.932 162.442 47.652C161.93 47.372 161.53 46.988 161.242 46.5C160.962 46.012 160.822 45.452 160.822 44.82C160.822 44.188 160.958 43.628 161.23 43.14C161.51 42.652 161.89 42.272 162.37 42C162.858 41.72 163.406 41.58 164.014 41.58C164.63 41.58 165.174 41.716 165.646 41.988C166.118 42.26 166.486 42.644 166.75 43.14C167.022 43.628 167.158 44.2 167.158 44.856C167.158 44.904 167.154 44.96 167.146 45.024C167.146 45.088 167.142 45.148 167.134 45.204H161.722V44.376H166.534L166.066 44.664C166.074 44.256 165.99 43.892 165.814 43.572C165.638 43.252 165.394 43.004 165.082 42.828C164.778 42.644 164.422 42.552 164.014 42.552C163.614 42.552 163.258 42.644 162.946 42.828C162.634 43.004 162.39 43.256 162.214 43.584C162.038 43.904 161.95 44.272 161.95 44.688V44.88C161.95 45.304 162.046 45.684 162.238 46.02C162.438 46.348 162.714 46.604 163.066 46.788C163.418 46.972 163.822 47.064 164.278 47.064C164.654 47.064 164.994 47 165.298 46.872C165.61 46.744 165.882 46.552 166.114 46.296L166.75 47.04C166.462 47.376 166.102 47.632 165.67 47.808C165.246 47.984 164.77 48.072 164.242 48.072ZM170.249 48.072C169.721 48.072 169.217 48 168.737 47.856C168.265 47.712 167.893 47.536 167.621 47.328L168.101 46.416C168.373 46.6 168.709 46.756 169.109 46.884C169.509 47.012 169.917 47.076 170.333 47.076C170.869 47.076 171.253 47 171.485 46.848C171.725 46.696 171.845 46.484 171.845 46.212C171.845 46.012 171.773 45.856 171.629 45.744C171.485 45.632 171.293 45.548 171.053 45.492C170.821 45.436 170.561 45.388 170.273 45.348C169.985 45.3 169.697 45.244 169.409 45.18C169.121 45.108 168.857 45.012 168.617 44.892C168.377 44.764 168.185 44.592 168.041 44.376C167.897 44.152 167.825 43.856 167.825 43.488C167.825 43.104 167.933 42.768 168.149 42.48C168.365 42.192 168.669 41.972 169.061 41.82C169.461 41.66 169.933 41.58 170.477 41.58C170.893 41.58 171.313 41.632 171.737 41.736C172.169 41.832 172.521 41.972 172.793 42.156L172.301 43.068C172.013 42.876 171.713 42.744 171.401 42.672C171.089 42.6 170.777 42.564 170.465 42.564C169.961 42.564 169.585 42.648 169.337 42.816C169.089 42.976 168.965 43.184 168.965 43.44C168.965 43.656 169.037 43.824 169.181 43.944C169.333 44.056 169.525 44.144 169.757 44.208C169.997 44.272 170.261 44.328 170.549 44.376C170.837 44.416 171.125 44.472 171.413 44.544C171.701 44.608 171.961 44.7 172.193 44.82C172.433 44.94 172.625 45.108 172.769 45.324C172.921 45.54 172.997 45.828 172.997 46.188C172.997 46.572 172.885 46.904 172.661 47.184C172.437 47.464 172.121 47.684 171.713 47.844C171.305 47.996 170.817 48.072 170.249 48.072ZM175.927 48.072C175.399 48.072 174.895 48 174.415 47.856C173.943 47.712 173.571 47.536 173.299 47.328L173.779 46.416C174.051 46.6 174.387 46.756 174.787 46.884C175.187 47.012 175.595 47.076 176.011 47.076C176.547 47.076 176.931 47 177.163 46.848C177.403 46.696 177.523 46.484 177.523 46.212C177.523 46.012 177.451 45.856 177.307 45.744C177.163 45.632 176.971 45.548 176.731 45.492C176.499 45.436 176.239 45.388 175.951 45.348C175.663 45.3 175.375 45.244 175.087 45.18C174.799 45.108 174.535 45.012 174.295 44.892C174.055 44.764 173.863 44.592 173.719 44.376C173.575 44.152 173.503 43.856 173.503 43.488C173.503 43.104 173.611 42.768 173.827 42.48C174.043 42.192 174.347 41.972 174.739 41.82C175.139 41.66 175.611 41.58 176.155 41.58C176.571 41.58 176.991 41.632 177.415 41.736C177.847 41.832 178.199 41.972 178.471 42.156L177.979 43.068C177.691 42.876 177.391 42.744 177.079 42.672C176.767 42.6 176.455 42.564 176.143 42.564C175.639 42.564 175.263 42.648 175.015 42.816C174.767 42.976 174.643 43.184 174.643 43.44C174.643 43.656 174.715 43.824 174.859 43.944C175.011 44.056 175.203 44.144 175.435 44.208C175.675 44.272 175.939 44.328 176.227 44.376C176.515 44.416 176.803 44.472 177.091 44.544C177.379 44.608 177.639 44.7 177.871 44.82C178.111 44.94 178.303 45.108 178.447 45.324C178.599 45.54 178.675 45.828 178.675 46.188C178.675 46.572 178.563 46.904 178.339 47.184C178.115 47.464 177.799 47.684 177.391 47.844C176.983 47.996 176.495 48.072 175.927 48.072ZM179.949 48V41.076C179.949 40.452 180.129 39.956 180.489 39.588C180.857 39.212 181.377 39.024 182.049 39.024C182.297 39.024 182.533 39.056 182.757 39.12C182.989 39.176 183.185 39.268 183.345 39.396L182.997 40.272C182.877 40.176 182.741 40.104 182.589 40.056C182.437 40 182.277 39.972 182.109 39.972C181.773 39.972 181.517 40.068 181.341 40.26C181.165 40.444 181.077 40.72 181.077 41.088V41.94L181.101 42.468V48H179.949ZM178.869 42.588V41.64H182.925V42.588H178.869ZM186.355 48.072C185.811 48.072 185.331 47.972 184.915 47.772C184.507 47.572 184.187 47.268 183.955 46.86C183.731 46.444 183.619 45.924 183.619 45.3V41.64H184.771V45.168C184.771 45.792 184.919 46.26 185.215 46.572C185.519 46.884 185.943 47.04 186.487 47.04C186.887 47.04 187.235 46.96 187.531 46.8C187.827 46.632 188.055 46.392 188.215 46.08C188.375 45.76 188.455 45.376 188.455 44.928V41.64H189.607V48H188.515V46.284L188.695 46.74C188.487 47.164 188.175 47.492 187.759 47.724C187.343 47.956 186.875 48.072 186.355 48.072ZM191.466 48V39.096H192.618V48H191.466ZM194.485 48V39.096H195.637V48H194.485ZM197.779 50.4C197.475 50.4 197.179 50.348 196.891 50.244C196.603 50.148 196.355 50.004 196.147 49.812L196.639 48.948C196.799 49.1 196.975 49.216 197.167 49.296C197.359 49.376 197.563 49.416 197.779 49.416C198.059 49.416 198.291 49.344 198.475 49.2C198.659 49.056 198.831 48.8 198.991 48.432L199.387 47.556L199.507 47.412L202.003 41.64H203.131L200.047 48.636C199.863 49.084 199.655 49.436 199.423 49.692C199.199 49.948 198.951 50.128 198.679 50.232C198.407 50.344 198.107 50.4 197.779 50.4ZM199.291 48.204L196.387 41.64H197.587L200.059 47.304L199.291 48.204ZM210.71 48V46.656L210.65 46.404V44.112C210.65 43.624 210.506 43.248 210.218 42.984C209.938 42.712 209.514 42.576 208.946 42.576C208.57 42.576 208.202 42.64 207.842 42.768C207.482 42.888 207.178 43.052 206.93 43.26L206.45 42.396C206.778 42.132 207.17 41.932 207.626 41.796C208.09 41.652 208.574 41.58 209.078 41.58C209.95 41.58 210.622 41.792 211.094 42.216C211.566 42.64 211.802 43.288 211.802 44.16V48H210.71ZM208.622 48.072C208.15 48.072 207.734 47.992 207.374 47.832C207.022 47.672 206.75 47.452 206.558 47.172C206.366 46.884 206.27 46.56 206.27 46.2C206.27 45.856 206.35 45.544 206.51 45.264C206.678 44.984 206.946 44.76 207.314 44.592C207.69 44.424 208.194 44.34 208.826 44.34H210.842V45.168H208.874C208.298 45.168 207.91 45.264 207.71 45.456C207.51 45.648 207.41 45.88 207.41 46.152C207.41 46.464 207.534 46.716 207.782 46.908C208.03 47.092 208.374 47.184 208.814 47.184C209.246 47.184 209.622 47.088 209.942 46.896C210.27 46.704 210.506 46.424 210.65 46.056L210.878 46.848C210.726 47.224 210.458 47.524 210.074 47.748C209.69 47.964 209.206 48.072 208.622 48.072ZM216.228 48.072C215.612 48.072 215.06 47.936 214.572 47.664C214.092 47.392 213.712 47.012 213.432 46.524C213.152 46.036 213.012 45.468 213.012 44.82C213.012 44.172 213.152 43.608 213.432 43.128C213.712 42.64 214.092 42.26 214.572 41.988C215.06 41.716 215.612 41.58 216.228 41.58C216.764 41.58 217.248 41.7 217.68 41.94C218.112 42.18 218.456 42.54 218.712 43.02C218.976 43.5 219.108 44.1 219.108 44.82C219.108 45.54 218.98 46.14 218.724 46.62C218.476 47.1 218.136 47.464 217.704 47.712C217.272 47.952 216.78 48.072 216.228 48.072ZM216.324 47.064C216.724 47.064 217.084 46.972 217.404 46.788C217.732 46.604 217.988 46.344 218.172 46.008C218.364 45.664 218.46 45.268 218.46 44.82C218.46 44.364 218.364 43.972 218.172 43.644C217.988 43.308 217.732 43.048 217.404 42.864C217.084 42.68 216.724 42.588 216.324 42.588C215.916 42.588 215.552 42.68 215.232 42.864C214.912 43.048 214.656 43.308 214.464 43.644C214.272 43.972 214.176 44.364 214.176 44.82C214.176 45.268 214.272 45.664 214.464 46.008C214.656 46.344 214.912 46.604 215.232 46.788C215.552 46.972 215.916 47.064 216.324 47.064ZM218.496 48V46.284L218.568 44.808L218.448 43.332V39.096H219.6V48H218.496ZM224.075 48.072C223.459 48.072 222.907 47.936 222.419 47.664C221.939 47.392 221.559 47.012 221.279 46.524C220.999 46.036 220.859 45.468 220.859 44.82C220.859 44.172 220.999 43.608 221.279 43.128C221.559 42.64 221.939 42.26 222.419 41.988C222.907 41.716 223.459 41.58 224.075 41.58C224.611 41.58 225.095 41.7 225.527 41.94C225.959 42.18 226.303 42.54 226.559 43.02C226.823 43.5 226.955 44.1 226.955 44.82C226.955 45.54 226.827 46.14 226.571 46.62C226.323 47.1 225.983 47.464 225.551 47.712C225.119 47.952 224.627 48.072 224.075 48.072ZM224.171 47.064C224.571 47.064 224.931 46.972 225.251 46.788C225.579 46.604 225.835 46.344 226.019 46.008C226.211 45.664 226.307 45.268 226.307 44.82C226.307 44.364 226.211 43.972 226.019 43.644C225.835 43.308 225.579 43.048 225.251 42.864C224.931 42.68 224.571 42.588 224.171 42.588C223.763 42.588 223.399 42.68 223.079 42.864C222.759 43.048 222.503 43.308 222.311 43.644C222.119 43.972 222.023 44.364 222.023 44.82C222.023 45.268 222.119 45.664 222.311 46.008C222.503 46.344 222.759 46.604 223.079 46.788C223.399 46.972 223.763 47.064 224.171 47.064ZM226.343 48V46.284L226.415 44.808L226.295 43.332V39.096H227.447V48H226.343ZM232.125 48.072C231.445 48.072 230.845 47.932 230.325 47.652C229.813 47.372 229.413 46.988 229.125 46.5C228.845 46.012 228.705 45.452 228.705 44.82C228.705 44.188 228.841 43.628 229.113 43.14C229.393 42.652 229.773 42.272 230.253 42C230.741 41.72 231.289 41.58 231.897 41.58C232.513 41.58 233.057 41.716 233.529 41.988C234.001 42.26 234.369 42.644 234.633 43.14C234.905 43.628 235.041 44.2 235.041 44.856C235.041 44.904 235.037 44.96 235.029 45.024C235.029 45.088 235.025 45.148 235.017 45.204H229.605V44.376H234.417L233.949 44.664C233.957 44.256 233.873 43.892 233.697 43.572C233.521 43.252 233.277 43.004 232.965 42.828C232.661 42.644 232.305 42.552 231.897 42.552C231.497 42.552 231.141 42.644 230.829 42.828C230.517 43.004 230.273 43.256 230.097 43.584C229.921 43.904 229.833 44.272 229.833 44.688V44.88C229.833 45.304 229.929 45.684 230.121 46.02C230.321 46.348 230.597 46.604 230.949 46.788C231.301 46.972 231.705 47.064 232.161 47.064C232.537 47.064 232.877 47 233.181 46.872C233.493 46.744 233.765 46.552 233.997 46.296L234.633 47.04C234.345 47.376 233.985 47.632 233.553 47.808C233.129 47.984 232.653 48.072 232.125 48.072ZM238.935 48.072C238.319 48.072 237.767 47.936 237.279 47.664C236.799 47.392 236.419 47.012 236.139 46.524C235.859 46.036 235.719 45.468 235.719 44.82C235.719 44.172 235.859 43.608 236.139 43.128C236.419 42.64 236.799 42.26 237.279 41.988C237.767 41.716 238.319 41.58 238.935 41.58C239.471 41.58 239.956 41.7 240.388 41.94C240.82 42.18 241.164 42.54 241.42 43.02C241.684 43.5 241.816 44.1 241.816 44.82C241.816 45.54 241.688 46.14 241.431 46.62C241.184 47.1 240.844 47.464 240.412 47.712C239.98 47.952 239.487 48.072 238.935 48.072ZM239.032 47.064C239.432 47.064 239.792 46.972 240.112 46.788C240.44 46.604 240.696 46.344 240.88 46.008C241.072 45.664 241.168 45.268 241.168 44.82C241.168 44.364 241.072 43.972 240.88 43.644C240.696 43.308 240.44 43.048 240.112 42.864C239.792 42.68 239.432 42.588 239.032 42.588C238.624 42.588 238.26 42.68 237.94 42.864C237.619 43.048 237.363 43.308 237.171 43.644C236.979 43.972 236.884 44.364 236.884 44.82C236.884 45.268 236.979 45.664 237.171 46.008C237.363 46.344 237.619 46.604 237.94 46.788C238.26 46.972 238.624 47.064 239.032 47.064ZM241.204 48V46.284L241.275 44.808L241.156 43.332V39.096H242.308V48H241.204ZM249.227 48.072C248.587 48.072 248.091 47.9 247.739 47.556C247.387 47.212 247.211 46.72 247.211 46.08V40.248H248.363V46.032C248.363 46.376 248.447 46.64 248.615 46.824C248.791 47.008 249.039 47.1 249.359 47.1C249.719 47.1 250.019 47 250.259 46.8L250.619 47.628C250.443 47.78 250.231 47.892 249.983 47.964C249.743 48.036 249.491 48.072 249.227 48.072ZM246.131 42.588V41.64H250.187V42.588H246.131ZM254.192 48.072C253.552 48.072 252.984 47.932 252.488 47.652C251.992 47.372 251.6 46.988 251.312 46.5C251.024 46.004 250.88 45.444 250.88 44.82C250.88 44.188 251.024 43.628 251.312 43.14C251.6 42.652 251.992 42.272 252.488 42C252.984 41.72 253.552 41.58 254.192 41.58C254.824 41.58 255.388 41.72 255.884 42C256.388 42.272 256.78 42.652 257.06 43.14C257.348 43.62 257.492 44.18 257.492 44.82C257.492 45.452 257.348 46.012 257.06 46.5C256.78 46.988 256.388 47.372 255.884 47.652C255.388 47.932 254.824 48.072 254.192 48.072ZM254.192 47.064C254.6 47.064 254.964 46.972 255.284 46.788C255.612 46.604 255.868 46.344 256.052 46.008C256.236 45.664 256.328 45.268 256.328 44.82C256.328 44.364 256.236 43.972 256.052 43.644C255.868 43.308 255.612 43.048 255.284 42.864C254.964 42.68 254.6 42.588 254.192 42.588C253.784 42.588 253.42 42.68 253.1 42.864C252.78 43.048 252.524 43.308 252.332 43.644C252.14 43.972 252.044 44.364 252.044 44.82C252.044 45.268 252.14 45.664 252.332 46.008C252.524 46.344 252.78 46.604 253.1 46.788C253.42 46.972 253.784 47.064 254.192 47.064ZM261.917 50.4C261.613 50.4 261.317 50.348 261.029 50.244C260.741 50.148 260.493 50.004 260.285 49.812L260.777 48.948C260.937 49.1 261.113 49.216 261.305 49.296C261.497 49.376 261.701 49.416 261.917 49.416C262.197 49.416 262.429 49.344 262.613 49.2C262.797 49.056 262.969 48.8 263.129 48.432L263.525 47.556L263.645 47.412L266.141 41.64H267.269L264.185 48.636C264.001 49.084 263.793 49.436 263.561 49.692C263.337 49.948 263.089 50.128 262.817 50.232C262.545 50.344 262.245 50.4 261.917 50.4ZM263.429 48.204L260.525 41.64H261.725L264.197 47.304L263.429 48.204ZM270.559 48.072C269.919 48.072 269.351 47.932 268.855 47.652C268.359 47.372 267.967 46.988 267.679 46.5C267.391 46.004 267.247 45.444 267.247 44.82C267.247 44.188 267.391 43.628 267.679 43.14C267.967 42.652 268.359 42.272 268.855 42C269.351 41.72 269.919 41.58 270.559 41.58C271.191 41.58 271.755 41.72 272.251 42C272.755 42.272 273.147 42.652 273.427 43.14C273.715 43.62 273.859 44.18 273.859 44.82C273.859 45.452 273.715 46.012 273.427 46.5C273.147 46.988 272.755 47.372 272.251 47.652C271.755 47.932 271.191 48.072 270.559 48.072ZM270.559 47.064C270.967 47.064 271.331 46.972 271.651 46.788C271.979 46.604 272.235 46.344 272.419 46.008C272.603 45.664 272.695 45.268 272.695 44.82C272.695 44.364 272.603 43.972 272.419 43.644C272.235 43.308 271.979 43.048 271.651 42.864C271.331 42.68 270.967 42.588 270.559 42.588C270.151 42.588 269.787 42.68 269.467 42.864C269.147 43.048 268.891 43.308 268.699 43.644C268.507 43.972 268.411 44.364 268.411 44.82C268.411 45.268 268.507 45.664 268.699 46.008C268.891 46.344 269.147 46.604 269.467 46.788C269.787 46.972 270.151 47.064 270.559 47.064ZM277.795 48.072C277.251 48.072 276.771 47.972 276.355 47.772C275.947 47.572 275.627 47.268 275.395 46.86C275.171 46.444 275.059 45.924 275.059 45.3V41.64H276.211V45.168C276.211 45.792 276.359 46.26 276.655 46.572C276.959 46.884 277.383 47.04 277.927 47.04C278.327 47.04 278.675 46.96 278.971 46.8C279.267 46.632 279.495 46.392 279.655 46.08C279.815 45.76 279.895 45.376 279.895 44.928V41.64H281.047V48H279.955V46.284L280.135 46.74C279.927 47.164 279.615 47.492 279.199 47.724C278.783 47.956 278.315 48.072 277.795 48.072ZM282.906 48V41.64H284.01V43.368L283.902 42.936C284.078 42.496 284.374 42.16 284.79 41.928C285.206 41.696 285.718 41.58 286.326 41.58V42.696C286.278 42.688 286.23 42.684 286.182 42.684C286.142 42.684 286.102 42.684 286.062 42.684C285.446 42.684 284.958 42.868 284.598 43.236C284.238 43.604 284.058 44.136 284.058 44.832V48H282.906ZM130.877 63L128.513 56.64H129.605L131.705 62.4H131.189L133.373 56.64H134.345L136.481 62.4H135.977L138.125 56.64H139.157L136.781 63H135.677L133.673 57.744H134.009L131.981 63H130.877ZM143.741 63V61.656L143.681 61.404V59.112C143.681 58.624 143.537 58.248 143.249 57.984C142.969 57.712 142.545 57.576 141.977 57.576C141.601 57.576 141.233 57.64 140.873 57.768C140.513 57.888 140.209 58.052 139.961 58.26L139.481 57.396C139.809 57.132 140.201 56.932 140.657 56.796C141.121 56.652 141.605 56.58 142.109 56.58C142.981 56.58 143.653 56.792 144.125 57.216C144.597 57.64 144.833 58.288 144.833 59.16V63H143.741ZM141.653 63.072C141.181 63.072 140.765 62.992 140.405 62.832C140.053 62.672 139.781 62.452 139.589 62.172C139.397 61.884 139.301 61.56 139.301 61.2C139.301 60.856 139.381 60.544 139.541 60.264C139.709 59.984 139.977 59.76 140.345 59.592C140.721 59.424 141.225 59.34 141.857 59.34H143.873V60.168H141.905C141.329 60.168 140.941 60.264 140.741 60.456C140.541 60.648 140.441 60.88 140.441 61.152C140.441 61.464 140.565 61.716 140.813 61.908C141.061 62.092 141.405 62.184 141.845 62.184C142.277 62.184 142.653 62.088 142.973 61.896C143.301 61.704 143.537 61.424 143.681 61.056L143.909 61.848C143.757 62.224 143.489 62.524 143.105 62.748C142.721 62.964 142.237 63.072 141.653 63.072ZM146.632 63V54.096H147.784V63H146.632ZM149.65 63V54.096H150.802V63H149.65ZM155.5 63.072C154.82 63.072 154.22 62.932 153.7 62.652C153.188 62.372 152.788 61.988 152.5 61.5C152.22 61.012 152.08 60.452 152.08 59.82C152.08 59.188 152.216 58.628 152.488 58.14C152.768 57.652 153.148 57.272 153.628 57C154.116 56.72 154.664 56.58 155.272 56.58C155.888 56.58 156.432 56.716 156.904 56.988C157.376 57.26 157.744 57.644 158.008 58.14C158.28 58.628 158.416 59.2 158.416 59.856C158.416 59.904 158.412 59.96 158.404 60.024C158.404 60.088 158.4 60.148 158.392 60.204H152.98V59.376H157.792L157.324 59.664C157.332 59.256 157.248 58.892 157.072 58.572C156.896 58.252 156.652 58.004 156.34 57.828C156.036 57.644 155.68 57.552 155.272 57.552C154.872 57.552 154.516 57.644 154.204 57.828C153.892 58.004 153.648 58.256 153.472 58.584C153.296 58.904 153.208 59.272 153.208 59.688V59.88C153.208 60.304 153.304 60.684 153.496 61.02C153.696 61.348 153.972 61.604 154.324 61.788C154.676 61.972 155.08 62.064 155.536 62.064C155.912 62.064 156.252 62 156.556 61.872C156.868 61.744 157.14 61.552 157.372 61.296L158.008 62.04C157.72 62.376 157.36 62.632 156.928 62.808C156.504 62.984 156.028 63.072 155.5 63.072ZM161.866 63.072C161.226 63.072 160.73 62.9 160.378 62.556C160.026 62.212 159.85 61.72 159.85 61.08V55.248H161.002V61.032C161.002 61.376 161.086 61.64 161.255 61.824C161.431 62.008 161.679 62.1 161.998 62.1C162.359 62.1 162.659 62 162.899 61.8L163.259 62.628C163.083 62.78 162.871 62.892 162.623 62.964C162.383 63.036 162.131 63.072 161.866 63.072ZM158.77 57.588V56.64H162.827V57.588H158.77Z" fill="#6D6D6D"/>
<path d="M98.902 88V79.418H95.542V78.2H103.648V79.418H100.288V88H98.902ZM107.056 88.084C106.309 88.084 105.647 87.9207 105.068 87.594C104.489 87.2673 104.032 86.8193 103.696 86.25C103.36 85.6713 103.192 85.018 103.192 84.29C103.192 83.5527 103.36 82.8993 103.696 82.33C104.032 81.7607 104.489 81.3173 105.068 81C105.647 80.6733 106.309 80.51 107.056 80.51C107.793 80.51 108.451 80.6733 109.03 81C109.618 81.3173 110.075 81.7607 110.402 82.33C110.738 82.89 110.906 83.5433 110.906 84.29C110.906 85.0273 110.738 85.6807 110.402 86.25C110.075 86.8193 109.618 87.2673 109.03 87.594C108.451 87.9207 107.793 88.084 107.056 88.084ZM107.056 86.908C107.532 86.908 107.957 86.8007 108.33 86.586C108.713 86.3713 109.011 86.068 109.226 85.676C109.441 85.2747 109.548 84.8127 109.548 84.29C109.548 83.758 109.441 83.3007 109.226 82.918C109.011 82.526 108.713 82.2227 108.33 82.008C107.957 81.7933 107.532 81.686 107.056 81.686C106.58 81.686 106.155 81.7933 105.782 82.008C105.409 82.2227 105.11 82.526 104.886 82.918C104.662 83.3007 104.55 83.758 104.55 84.29C104.55 84.8127 104.662 85.2747 104.886 85.676C105.11 86.068 105.409 86.3713 105.782 86.586C106.155 86.8007 106.58 86.908 107.056 86.908ZM114.979 88.084C114.233 88.084 113.654 87.8833 113.243 87.482C112.833 87.0807 112.627 86.5067 112.627 85.76V78.956H113.971V85.704C113.971 86.1053 114.069 86.4133 114.265 86.628C114.471 86.8427 114.76 86.95 115.133 86.95C115.553 86.95 115.903 86.8333 116.183 86.6L116.603 87.566C116.398 87.7433 116.151 87.874 115.861 87.958C115.581 88.042 115.287 88.084 114.979 88.084ZM111.367 81.686V80.58H116.099V81.686H111.367ZM122.501 88V86.432L122.431 86.138V83.464C122.431 82.8947 122.263 82.456 121.927 82.148C121.6 81.8307 121.105 81.672 120.443 81.672C120.004 81.672 119.575 81.7467 119.155 81.896C118.735 82.036 118.38 82.2273 118.091 82.47L117.531 81.462C117.913 81.154 118.371 80.9207 118.903 80.762C119.444 80.594 120.009 80.51 120.597 80.51C121.614 80.51 122.398 80.7573 122.949 81.252C123.499 81.7467 123.775 82.5027 123.775 83.52V88H122.501ZM120.065 88.084C119.514 88.084 119.029 87.9907 118.609 87.804C118.198 87.6173 117.881 87.3607 117.657 87.034C117.433 86.698 117.321 86.32 117.321 85.9C117.321 85.4987 117.414 85.1347 117.601 84.808C117.797 84.4813 118.109 84.22 118.539 84.024C118.977 83.828 119.565 83.73 120.303 83.73H122.655V84.696H120.359C119.687 84.696 119.234 84.808 119.001 85.032C118.767 85.256 118.651 85.5267 118.651 85.844C118.651 86.208 118.795 86.502 119.085 86.726C119.374 86.9407 119.775 87.048 120.289 87.048C120.793 87.048 121.231 86.936 121.605 86.712C121.987 86.488 122.263 86.1613 122.431 85.732L122.697 86.656C122.519 87.0947 122.207 87.4447 121.759 87.706C121.311 87.958 120.746 88.084 120.065 88.084ZM125.929 88V77.612H127.273V88H125.929ZM135.074 88V79.418H131.714V78.2H139.82V79.418H136.46V88H135.074ZM140.638 88V80.58H141.926V82.596L141.8 82.092C142.005 81.5787 142.35 81.1867 142.836 80.916C143.321 80.6453 143.918 80.51 144.628 80.51V81.812C144.572 81.8027 144.516 81.798 144.46 81.798C144.413 81.798 144.366 81.798 144.32 81.798C143.601 81.798 143.032 82.0127 142.612 82.442C142.192 82.8713 141.982 83.492 141.982 84.304V88H140.638ZM150.01 88V86.432L149.94 86.138V83.464C149.94 82.8947 149.772 82.456 149.436 82.148C149.109 81.8307 148.615 81.672 147.952 81.672C147.513 81.672 147.084 81.7467 146.664 81.896C146.244 82.036 145.889 82.2273 145.6 82.47L145.04 81.462C145.423 81.154 145.88 80.9207 146.412 80.762C146.953 80.594 147.518 80.51 148.106 80.51C149.123 80.51 149.907 80.7573 150.458 81.252C151.009 81.7467 151.284 82.5027 151.284 83.52V88H150.01ZM147.574 88.084C147.023 88.084 146.538 87.9907 146.118 87.804C145.707 87.6173 145.39 87.3607 145.166 87.034C144.942 86.698 144.83 86.32 144.83 85.9C144.83 85.4987 144.923 85.1347 145.11 84.808C145.306 84.4813 145.619 84.22 146.048 84.024C146.487 83.828 147.075 83.73 147.812 83.73H150.164V84.696H147.868C147.196 84.696 146.743 84.808 146.51 85.032C146.277 85.256 146.16 85.5267 146.16 85.844C146.16 86.208 146.305 86.502 146.594 86.726C146.883 86.9407 147.285 87.048 147.798 87.048C148.302 87.048 148.741 86.936 149.114 86.712C149.497 86.488 149.772 86.1613 149.94 85.732L150.206 86.656C150.029 87.0947 149.716 87.4447 149.268 87.706C148.82 87.958 148.255 88.084 147.574 88.084ZM157.4 80.51C158.006 80.51 158.538 80.6267 158.996 80.86C159.462 81.0933 159.826 81.448 160.088 81.924C160.349 82.4 160.48 83.002 160.48 83.73V88H159.136V83.884C159.136 83.1653 158.958 82.624 158.604 82.26C158.258 81.896 157.768 81.714 157.134 81.714C156.658 81.714 156.242 81.8073 155.888 81.994C155.533 82.1807 155.258 82.456 155.062 82.82C154.875 83.184 154.782 83.6367 154.782 84.178V88H153.438V80.58H154.726V82.582L154.516 82.05C154.758 81.5647 155.132 81.1867 155.636 80.916C156.14 80.6453 156.728 80.51 157.4 80.51ZM164.762 88.084C164.146 88.084 163.558 88 162.998 87.832C162.447 87.664 162.013 87.4587 161.696 87.216L162.256 86.152C162.573 86.3667 162.965 86.5487 163.432 86.698C163.898 86.8473 164.374 86.922 164.86 86.922C165.485 86.922 165.933 86.8333 166.204 86.656C166.484 86.4787 166.624 86.2313 166.624 85.914C166.624 85.6807 166.54 85.4987 166.372 85.368C166.204 85.2373 165.98 85.1393 165.7 85.074C165.429 85.0087 165.126 84.9527 164.79 84.906C164.454 84.85 164.118 84.7847 163.782 84.71C163.446 84.626 163.138 84.514 162.858 84.374C162.578 84.2247 162.354 84.024 162.186 83.772C162.018 83.5107 161.934 83.1653 161.934 82.736C161.934 82.288 162.06 81.896 162.312 81.56C162.564 81.224 162.918 80.9673 163.376 80.79C163.842 80.6033 164.393 80.51 165.028 80.51C165.513 80.51 166.003 80.5707 166.498 80.692C167.002 80.804 167.412 80.9673 167.73 81.182L167.156 82.246C166.82 82.022 166.47 81.868 166.106 81.784C165.742 81.7 165.378 81.658 165.014 81.658C164.426 81.658 163.987 81.756 163.698 81.952C163.408 82.1387 163.264 82.3813 163.264 82.68C163.264 82.932 163.348 83.128 163.516 83.268C163.693 83.3987 163.917 83.5013 164.188 83.576C164.468 83.6507 164.776 83.716 165.112 83.772C165.448 83.8187 165.784 83.884 166.12 83.968C166.456 84.0427 166.759 84.15 167.03 84.29C167.31 84.43 167.534 84.626 167.702 84.878C167.879 85.13 167.968 85.466 167.968 85.886C167.968 86.334 167.837 86.7213 167.576 87.048C167.314 87.3747 166.946 87.6313 166.47 87.818C165.994 87.9953 165.424 88.084 164.762 88.084ZM169.51 88V79.922C169.51 79.194 169.72 78.6153 170.14 78.186C170.569 77.7473 171.176 77.528 171.96 77.528C172.249 77.528 172.525 77.5653 172.786 77.64C173.057 77.7053 173.285 77.8127 173.472 77.962L173.066 78.984C172.926 78.872 172.767 78.788 172.59 78.732C172.413 78.6667 172.226 78.634 172.03 78.634C171.638 78.634 171.339 78.746 171.134 78.97C170.929 79.1847 170.826 79.5067 170.826 79.936V80.93L170.854 81.546V88H169.51ZM168.25 81.686V80.58H172.982V81.686H168.25ZM177.111 88.084C176.318 88.084 175.618 87.9207 175.011 87.594C174.414 87.2673 173.947 86.8193 173.611 86.25C173.284 85.6807 173.121 85.0273 173.121 84.29C173.121 83.5527 173.28 82.8993 173.597 82.33C173.924 81.7607 174.367 81.3173 174.927 81C175.496 80.6733 176.136 80.51 176.845 80.51C177.564 80.51 178.198 80.6687 178.749 80.986C179.3 81.3033 179.729 81.7513 180.037 82.33C180.354 82.8993 180.513 83.5667 180.513 84.332C180.513 84.388 180.508 84.4533 180.499 84.528C180.499 84.6027 180.494 84.6727 180.485 84.738H174.171V83.772H179.785L179.239 84.108C179.248 83.632 179.15 83.2073 178.945 82.834C178.74 82.4607 178.455 82.1713 178.091 81.966C177.736 81.7513 177.321 81.644 176.845 81.644C176.378 81.644 175.963 81.7513 175.599 81.966C175.235 82.1713 174.95 82.4653 174.745 82.848C174.54 83.2213 174.437 83.6507 174.437 84.136V84.36C174.437 84.8547 174.549 85.298 174.773 85.69C175.006 86.0727 175.328 86.3713 175.739 86.586C176.15 86.8007 176.621 86.908 177.153 86.908C177.592 86.908 177.988 86.8333 178.343 86.684C178.707 86.5347 179.024 86.3107 179.295 86.012L180.037 86.88C179.701 87.272 179.281 87.5707 178.777 87.776C178.282 87.9813 177.727 88.084 177.111 88.084ZM182.046 88V80.58H183.334V82.596L183.208 82.092C183.413 81.5787 183.758 81.1867 184.244 80.916C184.729 80.6453 185.326 80.51 186.036 80.51V81.812C185.98 81.8027 185.924 81.798 185.868 81.798C185.821 81.798 185.774 81.798 185.728 81.798C185.009 81.798 184.44 82.0127 184.02 82.442C183.6 82.8713 183.39 83.492 183.39 84.304V88H182.046Z" fill="#6D6D6D"/>
<path d="M66.3581 174V165.15H62.8781V163.5H71.7881V165.15H68.3081V174H66.3581ZM72.8811 174V165.99H74.6661V168.195L74.4561 167.55C74.6961 167.01 75.0711 166.6 75.5811 166.32C76.1011 166.04 76.7461 165.9 77.5161 165.9V167.685C77.4361 167.665 77.3611 167.655 77.2911 167.655C77.2211 167.645 77.1511 167.64 77.0811 167.64C76.3711 167.64 75.8061 167.85 75.3861 168.27C74.9661 168.68 74.7561 169.295 74.7561 170.115V174H72.8811ZM83.4704 174V172.38L83.3654 172.035V169.2C83.3654 168.65 83.2004 168.225 82.8704 167.925C82.5404 167.615 82.0404 167.46 81.3704 167.46C80.9204 167.46 80.4754 167.53 80.0354 167.67C79.6054 167.81 79.2404 168.005 78.9404 168.255L78.2054 166.89C78.6354 166.56 79.1454 166.315 79.7354 166.155C80.3354 165.985 80.9554 165.9 81.5954 165.9C82.7554 165.9 83.6504 166.18 84.2804 166.74C84.9204 167.29 85.2404 168.145 85.2404 169.305V174H83.4704ZM80.9504 174.105C80.3504 174.105 79.8254 174.005 79.3754 173.805C78.9254 173.595 78.5754 173.31 78.3254 172.95C78.0854 172.58 77.9654 172.165 77.9654 171.705C77.9654 171.255 78.0704 170.85 78.2804 170.49C78.5004 170.13 78.8554 169.845 79.3454 169.635C79.8354 169.425 80.4854 169.32 81.2954 169.32H83.6204V170.565H81.4304C80.7904 170.565 80.3604 170.67 80.1404 170.88C79.9204 171.08 79.8104 171.33 79.8104 171.63C79.8104 171.97 79.9454 172.24 80.2154 172.44C80.4854 172.64 80.8604 172.74 81.3404 172.74C81.8004 172.74 82.2104 172.635 82.5704 172.425C82.9404 172.215 83.2054 171.905 83.3654 171.495L83.6804 172.62C83.5004 173.09 83.1754 173.455 82.7054 173.715C82.2454 173.975 81.6604 174.105 80.9504 174.105ZM92.1917 165.9C92.8317 165.9 93.4017 166.025 93.9017 166.275C94.4117 166.525 94.8117 166.91 95.1017 167.43C95.3917 167.94 95.5367 168.6 95.5367 169.41V174H93.6617V169.65C93.6617 168.94 93.4917 168.41 93.1517 168.06C92.8217 167.71 92.3567 167.535 91.7567 167.535C91.3167 167.535 90.9267 167.625 90.5867 167.805C90.2467 167.985 89.9817 168.255 89.7917 168.615C89.6117 168.965 89.5217 169.41 89.5217 169.95V174H87.6467V165.99H89.4317V168.15L89.1167 167.49C89.3967 166.98 89.8017 166.59 90.3317 166.32C90.8717 166.04 91.4917 165.9 92.1917 165.9ZM100.39 174.105C99.7202 174.105 99.0752 174.02 98.4552 173.85C97.8452 173.67 97.3602 173.455 97.0002 173.205L97.7202 171.78C98.0802 172.01 98.5102 172.2 99.0102 172.35C99.5102 172.5 100.01 172.575 100.51 172.575C101.1 172.575 101.525 172.495 101.785 172.335C102.055 172.175 102.19 171.96 102.19 171.69C102.19 171.47 102.1 171.305 101.92 171.195C101.74 171.075 101.505 170.985 101.215 170.925C100.925 170.865 100.6 170.81 100.24 170.76C99.8902 170.71 99.5352 170.645 99.1752 170.565C98.8252 170.475 98.5052 170.35 98.2152 170.19C97.9252 170.02 97.6902 169.795 97.5102 169.515C97.3302 169.235 97.2402 168.865 97.2402 168.405C97.2402 167.895 97.3852 167.455 97.6752 167.085C97.9652 166.705 98.3702 166.415 98.8902 166.215C99.4202 166.005 100.045 165.9 100.765 165.9C101.305 165.9 101.85 165.96 102.4 166.08C102.95 166.2 103.405 166.37 103.765 166.59L103.045 168.015C102.665 167.785 102.28 167.63 101.89 167.55C101.51 167.46 101.13 167.415 100.75 167.415C100.18 167.415 99.7552 167.5 99.4752 167.67C99.2052 167.84 99.0702 168.055 99.0702 168.315C99.0702 168.555 99.1602 168.735 99.3402 168.855C99.5202 168.975 99.7552 169.07 100.045 169.14C100.335 169.21 100.655 169.27 101.005 169.32C101.365 169.36 101.72 169.425 102.07 169.515C102.42 169.605 102.74 169.73 103.03 169.89C103.33 170.04 103.57 170.255 103.75 170.535C103.93 170.815 104.02 171.18 104.02 171.63C104.02 172.13 103.87 172.565 103.57 172.935C103.28 173.305 102.865 173.595 102.325 173.805C101.785 174.005 101.14 174.105 100.39 174.105ZM105.89 174V165.54C105.89 164.7 106.135 164.03 106.625 163.53C107.125 163.02 107.835 162.765 108.755 162.765C109.085 162.765 109.395 162.8 109.685 162.87C109.985 162.94 110.235 163.05 110.435 163.2L109.925 164.61C109.785 164.5 109.625 164.42 109.445 164.37C109.265 164.31 109.08 164.28 108.89 164.28C108.5 164.28 108.205 164.39 108.005 164.61C107.805 164.82 107.705 165.14 107.705 165.57V166.47L107.765 167.31V174H105.89ZM104.57 167.55V166.05H109.91V167.55H104.57ZM114.82 174.105C113.93 174.105 113.15 173.93 112.48 173.58C111.82 173.22 111.305 172.73 110.935 172.11C110.575 171.49 110.395 170.785 110.395 169.995C110.395 169.195 110.57 168.49 110.92 167.88C111.28 167.26 111.77 166.775 112.39 166.425C113.02 166.075 113.735 165.9 114.535 165.9C115.315 165.9 116.01 166.07 116.62 166.41C117.23 166.75 117.71 167.23 118.06 167.85C118.41 168.47 118.585 169.2 118.585 170.04C118.585 170.12 118.58 170.21 118.57 170.31C118.57 170.41 118.565 170.505 118.555 170.595H111.88V169.35H117.565L116.83 169.74C116.84 169.28 116.745 168.875 116.545 168.525C116.345 168.175 116.07 167.9 115.72 167.7C115.38 167.5 114.985 167.4 114.535 167.4C114.075 167.4 113.67 167.5 113.32 167.7C112.98 167.9 112.71 168.18 112.51 168.54C112.32 168.89 112.225 169.305 112.225 169.785V170.085C112.225 170.565 112.335 170.99 112.555 171.36C112.775 171.73 113.085 172.015 113.485 172.215C113.885 172.415 114.345 172.515 114.865 172.515C115.315 172.515 115.72 172.445 116.08 172.305C116.44 172.165 116.76 171.945 117.04 171.645L118.045 172.8C117.685 173.22 117.23 173.545 116.68 173.775C116.14 173.995 115.52 174.105 114.82 174.105ZM120.386 174V165.99H122.171V168.195L121.961 167.55C122.201 167.01 122.576 166.6 123.086 166.32C123.606 166.04 124.251 165.9 125.021 165.9V167.685C124.941 167.665 124.866 167.655 124.796 167.655C124.726 167.645 124.656 167.64 124.586 167.64C123.876 167.64 123.311 167.85 122.891 168.27C122.471 168.68 122.261 169.295 122.261 170.115V174H120.386ZM140.94 165.9C141.58 165.9 142.145 166.025 142.635 166.275C143.135 166.525 143.525 166.91 143.805 167.43C144.085 167.94 144.225 168.6 144.225 169.41V174H142.35V169.65C142.35 168.94 142.195 168.41 141.885 168.06C141.575 167.71 141.13 167.535 140.55 167.535C140.14 167.535 139.775 167.625 139.455 167.805C139.145 167.985 138.9 168.25 138.72 168.6C138.55 168.95 138.465 169.395 138.465 169.935V174H136.59V169.65C136.59 168.94 136.435 168.41 136.125 168.06C135.815 167.71 135.37 167.535 134.79 167.535C134.38 167.535 134.015 167.625 133.695 167.805C133.385 167.985 133.14 168.25 132.96 168.6C132.79 168.95 132.705 169.395 132.705 169.935V174H130.83V165.99H132.615V168.12L132.3 167.49C132.57 166.97 132.96 166.575 133.47 166.305C133.99 166.035 134.58 165.9 135.24 165.9C135.99 165.9 136.64 166.085 137.19 166.455C137.75 166.825 138.12 167.385 138.3 168.135L137.565 167.88C137.825 167.28 138.255 166.8 138.855 166.44C139.455 166.08 140.15 165.9 140.94 165.9ZM150.236 174.105C149.416 174.105 148.686 173.93 148.046 173.58C147.406 173.22 146.901 172.73 146.531 172.11C146.161 171.49 145.976 170.785 145.976 169.995C145.976 169.195 146.161 168.49 146.531 167.88C146.901 167.26 147.406 166.775 148.046 166.425C148.686 166.075 149.416 165.9 150.236 165.9C151.066 165.9 151.801 166.075 152.441 166.425C153.091 166.775 153.596 167.255 153.956 167.865C154.326 168.475 154.511 169.185 154.511 169.995C154.511 170.785 154.326 171.49 153.956 172.11C153.596 172.73 153.091 173.22 152.441 173.58C151.801 173.93 151.066 174.105 150.236 174.105ZM150.236 172.5C150.696 172.5 151.106 172.4 151.466 172.2C151.826 172 152.106 171.71 152.306 171.33C152.516 170.95 152.621 170.505 152.621 169.995C152.621 169.475 152.516 169.03 152.306 168.66C152.106 168.28 151.826 167.99 151.466 167.79C151.106 167.59 150.701 167.49 150.251 167.49C149.791 167.49 149.381 167.59 149.021 167.79C148.671 167.99 148.391 168.28 148.181 168.66C147.971 169.03 147.866 169.475 147.866 169.995C147.866 170.505 147.971 170.95 148.181 171.33C148.391 171.71 148.671 172 149.021 172.2C149.381 172.4 149.786 172.5 150.236 172.5ZM156.304 174V165.99H158.089V168.195L157.879 167.55C158.119 167.01 158.494 166.6 159.004 166.32C159.524 166.04 160.169 165.9 160.939 165.9V167.685C160.859 167.665 160.784 167.655 160.714 167.655C160.644 167.645 160.574 167.64 160.504 167.64C159.794 167.64 159.229 167.85 158.809 168.27C158.389 168.68 158.179 169.295 158.179 170.115V174H156.304ZM166.221 174.105C165.331 174.105 164.551 173.93 163.881 173.58C163.221 173.22 162.706 172.73 162.336 172.11C161.976 171.49 161.796 170.785 161.796 169.995C161.796 169.195 161.971 168.49 162.321 167.88C162.681 167.26 163.171 166.775 163.791 166.425C164.421 166.075 165.136 165.9 165.936 165.9C166.716 165.9 167.411 166.07 168.021 166.41C168.631 166.75 169.111 167.23 169.461 167.85C169.811 168.47 169.986 169.2 169.986 170.04C169.986 170.12 169.981 170.21 169.971 170.31C169.971 170.41 169.966 170.505 169.956 170.595H163.281V169.35H168.966L168.231 169.74C168.241 169.28 168.146 168.875 167.946 168.525C167.746 168.175 167.471 167.9 167.121 167.7C166.781 167.5 166.386 167.4 165.936 167.4C165.476 167.4 165.071 167.5 164.721 167.7C164.381 167.9 164.111 168.18 163.911 168.54C163.721 168.89 163.626 169.305 163.626 169.785V170.085C163.626 170.565 163.736 170.99 163.956 171.36C164.176 171.73 164.486 172.015 164.886 172.215C165.286 172.415 165.746 172.515 166.266 172.515C166.716 172.515 167.121 172.445 167.481 172.305C167.841 172.165 168.161 171.945 168.441 171.645L169.446 172.8C169.086 173.22 168.631 173.545 168.081 173.775C167.541 173.995 166.921 174.105 166.221 174.105ZM186.043 165.9C186.683 165.9 187.248 166.025 187.738 166.275C188.238 166.525 188.628 166.91 188.908 167.43C189.188 167.94 189.328 168.6 189.328 169.41V174H187.453V169.65C187.453 168.94 187.298 168.41 186.988 168.06C186.678 167.71 186.233 167.535 185.653 167.535C185.243 167.535 184.878 167.625 184.558 167.805C184.248 167.985 184.003 168.25 183.823 168.6C183.653 168.95 183.568 169.395 183.568 169.935V174H181.693V169.65C181.693 168.94 181.538 168.41 181.228 168.06C180.918 167.71 180.473 167.535 179.893 167.535C179.483 167.535 179.118 167.625 178.798 167.805C178.488 167.985 178.243 168.25 178.063 168.6C177.893 168.95 177.808 169.395 177.808 169.935V174H175.933V165.99H177.718V168.12L177.403 167.49C177.673 166.97 178.063 166.575 178.573 166.305C179.093 166.035 179.683 165.9 180.343 165.9C181.093 165.9 181.743 166.085 182.293 166.455C182.853 166.825 183.223 167.385 183.403 168.135L182.668 167.88C182.928 167.28 183.358 166.8 183.958 166.44C184.558 166.08 185.253 165.9 186.043 165.9ZM195.338 174.105C194.518 174.105 193.788 173.93 193.148 173.58C192.508 173.22 192.003 172.73 191.633 172.11C191.263 171.49 191.078 170.785 191.078 169.995C191.078 169.195 191.263 168.49 191.633 167.88C192.003 167.26 192.508 166.775 193.148 166.425C193.788 166.075 194.518 165.9 195.338 165.9C196.168 165.9 196.903 166.075 197.543 166.425C198.193 166.775 198.698 167.255 199.058 167.865C199.428 168.475 199.613 169.185 199.613 169.995C199.613 170.785 199.428 171.49 199.058 172.11C198.698 172.73 198.193 173.22 197.543 173.58C196.903 173.93 196.168 174.105 195.338 174.105ZM195.338 172.5C195.798 172.5 196.208 172.4 196.568 172.2C196.928 172 197.208 171.71 197.408 171.33C197.618 170.95 197.723 170.505 197.723 169.995C197.723 169.475 197.618 169.03 197.408 168.66C197.208 168.28 196.928 167.99 196.568 167.79C196.208 167.59 195.803 167.49 195.353 167.49C194.893 167.49 194.483 167.59 194.123 167.79C193.773 167.99 193.493 168.28 193.283 168.66C193.073 169.03 192.968 169.475 192.968 169.995C192.968 170.505 193.073 170.95 193.283 171.33C193.493 171.71 193.773 172 194.123 172.2C194.483 172.4 194.888 172.5 195.338 172.5ZM205.951 165.9C206.591 165.9 207.161 166.025 207.661 166.275C208.171 166.525 208.571 166.91 208.861 167.43C209.151 167.94 209.296 168.6 209.296 169.41V174H207.421V169.65C207.421 168.94 207.251 168.41 206.911 168.06C206.581 167.71 206.116 167.535 205.516 167.535C205.076 167.535 204.686 167.625 204.346 167.805C204.006 167.985 203.741 168.255 203.551 168.615C203.371 168.965 203.281 169.41 203.281 169.95V174H201.406V165.99H203.191V168.15L202.876 167.49C203.156 166.98 203.561 166.59 204.091 166.32C204.631 166.04 205.251 165.9 205.951 165.9ZM215.455 174.105C214.565 174.105 213.785 173.93 213.115 173.58C212.455 173.22 211.94 172.73 211.57 172.11C211.21 171.49 211.03 170.785 211.03 169.995C211.03 169.195 211.205 168.49 211.555 167.88C211.915 167.26 212.405 166.775 213.025 166.425C213.655 166.075 214.37 165.9 215.17 165.9C215.95 165.9 216.645 166.07 217.255 166.41C217.865 166.75 218.345 167.23 218.695 167.85C219.045 168.47 219.22 169.2 219.22 170.04C219.22 170.12 219.215 170.21 219.205 170.31C219.205 170.41 219.2 170.505 219.19 170.595H212.515V169.35H218.2L217.465 169.74C217.475 169.28 217.38 168.875 217.18 168.525C216.98 168.175 216.705 167.9 216.355 167.7C216.015 167.5 215.62 167.4 215.17 167.4C214.71 167.4 214.305 167.5 213.955 167.7C213.615 167.9 213.345 168.18 213.145 168.54C212.955 168.89 212.86 169.305 212.86 169.785V170.085C212.86 170.565 212.97 170.99 213.19 171.36C213.41 171.73 213.72 172.015 214.12 172.215C214.52 172.415 214.98 172.515 215.5 172.515C215.95 172.515 216.355 172.445 216.715 172.305C217.075 172.165 217.395 171.945 217.675 171.645L218.68 172.8C218.32 173.22 217.865 173.545 217.315 173.775C216.775 173.995 216.155 174.105 215.455 174.105ZM221.534 177.015C221.144 177.015 220.754 176.95 220.364 176.82C219.974 176.69 219.649 176.51 219.389 176.28L220.139 174.9C220.329 175.07 220.544 175.205 220.784 175.305C221.024 175.405 221.269 175.455 221.519 175.455C221.859 175.455 222.134 175.37 222.344 175.2C222.554 175.03 222.749 174.745 222.929 174.345L223.394 173.295L223.544 173.07L226.574 165.99H228.374L224.624 174.645C224.374 175.245 224.094 175.72 223.784 176.07C223.484 176.42 223.144 176.665 222.764 176.805C222.394 176.945 221.984 177.015 221.534 177.015ZM223.184 174.285L219.569 165.99H221.519L224.459 172.905L223.184 174.285Z" fill="#09376E"/>
<path d="M43.5162 23V8.84H37.9482V6.2H52.2042V8.84H46.6362V23H43.5162ZM53.953 23V10.184H56.809V13.712L56.473 12.68C56.857 11.816 57.457 11.16 58.273 10.712C59.105 10.264 60.137 10.04 61.369 10.04V12.896C61.241 12.864 61.121 12.848 61.009 12.848C60.897 12.832 60.785 12.824 60.673 12.824C59.537 12.824 58.633 13.16 57.961 13.832C57.289 14.488 56.953 15.472 56.953 16.784V23H53.953ZM70.8959 23V20.408L70.7279 19.856V15.32C70.7279 14.44 70.4639 13.76 69.9359 13.28C69.4079 12.784 68.6079 12.536 67.5359 12.536C66.8159 12.536 66.1039 12.648 65.3999 12.872C64.7119 13.096 64.1279 13.408 63.6479 13.808L62.4719 11.624C63.1599 11.096 63.9759 10.704 64.9199 10.448C65.8799 10.176 66.8719 10.04 67.8959 10.04C69.7519 10.04 71.1839 10.488 72.1919 11.384C73.2159 12.264 73.7279 13.632 73.7279 15.488V23H70.8959ZM66.8639 23.168C65.9039 23.168 65.0639 23.008 64.3439 22.688C63.6239 22.352 63.0639 21.896 62.6639 21.32C62.2799 20.728 62.0879 20.064 62.0879 19.328C62.0879 18.608 62.2559 17.96 62.5919 17.384C62.9439 16.808 63.5119 16.352 64.2959 16.016C65.0799 15.68 66.1199 15.512 67.4159 15.512H71.1359V17.504H67.6319C66.6079 17.504 65.9199 17.672 65.5679 18.008C65.2159 18.328 65.0399 18.728 65.0399 19.208C65.0399 19.752 65.2559 20.184 65.6879 20.504C66.1199 20.824 66.7199 20.984 67.4879 20.984C68.2239 20.984 68.8799 20.816 69.4559 20.48C70.0479 20.144 70.4719 19.648 70.7279 18.992L71.2319 20.792C70.9439 21.544 70.4239 22.128 69.6719 22.544C68.9359 22.96 67.9999 23.168 66.8639 23.168ZM84.85 10.04C85.874 10.04 86.786 10.24 87.586 10.64C88.402 11.04 89.042 11.656 89.506 12.488C89.97 13.304 90.202 14.36 90.202 15.656V23H87.202V16.04C87.202 14.904 86.93 14.056 86.386 13.496C85.858 12.936 85.114 12.656 84.154 12.656C83.45 12.656 82.826 12.8 82.282 13.088C81.738 13.376 81.314 13.808 81.01 14.384C80.722 14.944 80.578 15.656 80.578 16.52V23H77.578V10.184H80.434V13.64L79.93 12.584C80.378 11.768 81.026 11.144 81.874 10.712C82.738 10.264 83.73 10.04 84.85 10.04ZM97.9677 23.168C96.8957 23.168 95.8637 23.032 94.8717 22.76C93.8957 22.472 93.1197 22.128 92.5437 21.728L93.6957 19.448C94.2717 19.816 94.9597 20.12 95.7597 20.36C96.5597 20.6 97.3597 20.72 98.1597 20.72C99.1037 20.72 99.7837 20.592 100.2 20.336C100.632 20.08 100.848 19.736 100.848 19.304C100.848 18.952 100.704 18.688 100.416 18.512C100.128 18.32 99.7517 18.176 99.2877 18.08C98.8237 17.984 98.3037 17.896 97.7277 17.816C97.1677 17.736 96.5997 17.632 96.0237 17.504C95.4637 17.36 94.9517 17.16 94.4877 16.904C94.0237 16.632 93.6477 16.272 93.3597 15.824C93.0717 15.376 92.9277 14.784 92.9277 14.048C92.9277 13.232 93.1597 12.528 93.6237 11.936C94.0877 11.328 94.7357 10.864 95.5677 10.544C96.4157 10.208 97.4157 10.04 98.5677 10.04C99.4317 10.04 100.304 10.136 101.184 10.328C102.064 10.52 102.792 10.792 103.368 11.144L102.216 13.424C101.608 13.056 100.992 12.808 100.368 12.68C99.7597 12.536 99.1517 12.464 98.5437 12.464C97.6317 12.464 96.9517 12.6 96.5037 12.872C96.0717 13.144 95.8557 13.488 95.8557 13.904C95.8557 14.288 95.9997 14.576 96.2877 14.768C96.5757 14.96 96.9517 15.112 97.4157 15.224C97.8797 15.336 98.3917 15.432 98.9517 15.512C99.5277 15.576 100.096 15.68 100.656 15.824C101.216 15.968 101.728 16.168 102.192 16.424C102.672 16.664 103.056 17.008 103.344 17.456C103.632 17.904 103.776 18.488 103.776 19.208C103.776 20.008 103.536 20.704 103.056 21.296C102.592 21.888 101.928 22.352 101.064 22.688C100.2 23.008 99.1677 23.168 97.9677 23.168ZM106.767 23V9.464C106.767 8.12 107.159 7.048 107.943 6.248C108.743 5.432 109.879 5.024 111.351 5.024C111.879 5.024 112.375 5.08 112.839 5.192C113.319 5.304 113.719 5.48 114.039 5.72L113.223 7.976C112.999 7.8 112.743 7.672 112.455 7.592C112.167 7.496 111.871 7.448 111.567 7.448C110.943 7.448 110.471 7.624 110.151 7.976C109.831 8.312 109.671 8.824 109.671 9.512V10.952L109.767 12.296V23H106.767ZM104.655 12.68V10.28H113.199V12.68H104.655ZM121.055 23.168C119.631 23.168 118.383 22.888 117.311 22.328C116.255 21.752 115.431 20.968 114.839 19.976C114.263 18.984 113.975 17.856 113.975 16.592C113.975 15.312 114.255 14.184 114.815 13.208C115.391 12.216 116.175 11.44 117.167 10.88C118.175 10.32 119.319 10.04 120.599 10.04C121.847 10.04 122.959 10.312 123.935 10.856C124.911 11.4 125.679 12.168 126.239 13.16C126.799 14.152 127.079 15.32 127.079 16.664C127.079 16.792 127.071 16.936 127.055 17.096C127.055 17.256 127.047 17.408 127.031 17.552H116.351V15.56H125.447L124.271 16.184C124.287 15.448 124.135 14.8 123.815 14.24C123.495 13.68 123.055 13.24 122.495 12.92C121.951 12.6 121.319 12.44 120.599 12.44C119.863 12.44 119.215 12.6 118.655 12.92C118.111 13.24 117.679 13.688 117.359 14.264C117.055 14.824 116.903 15.488 116.903 16.256V16.736C116.903 17.504 117.079 18.184 117.431 18.776C117.783 19.368 118.279 19.824 118.919 20.144C119.559 20.464 120.295 20.624 121.127 20.624C121.847 20.624 122.495 20.512 123.071 20.288C123.647 20.064 124.159 19.712 124.607 19.232L126.215 21.08C125.639 21.752 124.911 22.272 124.031 22.64C123.167 22.992 122.175 23.168 121.055 23.168ZM129.961 23V10.184H132.817V13.712L132.481 12.68C132.865 11.816 133.465 11.16 134.281 10.712C135.113 10.264 136.145 10.04 137.377 10.04V12.896C137.249 12.864 137.129 12.848 137.017 12.848C136.905 12.832 136.793 12.824 136.681 12.824C135.545 12.824 134.641 13.16 133.969 13.832C133.297 14.488 132.961 15.472 132.961 16.784V23H129.961ZM152.168 23.24C150.856 23.24 149.6 23.056 148.4 22.688C147.2 22.304 146.248 21.816 145.544 21.224L146.624 18.8C147.296 19.328 148.128 19.768 149.12 20.12C150.112 20.472 151.128 20.648 152.168 20.648C153.048 20.648 153.76 20.552 154.304 20.36C154.848 20.168 155.248 19.912 155.504 19.592C155.76 19.256 155.888 18.88 155.888 18.464C155.888 17.952 155.704 17.544 155.336 17.24C154.968 16.92 154.488 16.672 153.896 16.496C153.32 16.304 152.672 16.128 151.952 15.968C151.248 15.808 150.536 15.624 149.816 15.416C149.112 15.192 148.464 14.912 147.872 14.576C147.296 14.224 146.824 13.76 146.456 13.184C146.088 12.608 145.904 11.872 145.904 10.976C145.904 10.064 146.144 9.232 146.624 8.48C147.12 7.712 147.864 7.104 148.856 6.656C149.864 6.192 151.136 5.96 152.672 5.96C153.68 5.96 154.68 6.088 155.672 6.344C156.664 6.6 157.528 6.968 158.264 7.448L157.28 9.872C156.528 9.424 155.752 9.096 154.952 8.888C154.152 8.664 153.384 8.552 152.648 8.552C151.784 8.552 151.08 8.656 150.536 8.864C150.008 9.072 149.616 9.344 149.36 9.68C149.12 10.016 149 10.4 149 10.832C149 11.344 149.176 11.76 149.528 12.08C149.896 12.384 150.368 12.624 150.944 12.8C151.536 12.976 152.192 13.152 152.912 13.328C153.632 13.488 154.344 13.672 155.048 13.88C155.768 14.088 156.416 14.36 156.992 14.696C157.584 15.032 158.056 15.488 158.408 16.064C158.776 16.64 158.96 17.368 158.96 18.248C158.96 19.144 158.712 19.976 158.216 20.744C157.736 21.496 156.992 22.104 155.984 22.568C154.976 23.016 153.704 23.24 152.168 23.24ZM167.19 23.168C166.102 23.168 165.142 22.968 164.31 22.568C163.478 22.152 162.83 21.528 162.366 20.696C161.902 19.848 161.67 18.784 161.67 17.504V10.184H164.67V17.096C164.67 18.248 164.926 19.112 165.438 19.688C165.966 20.248 166.71 20.528 167.67 20.528C168.374 20.528 168.982 20.384 169.494 20.096C170.022 19.808 170.43 19.376 170.718 18.8C171.022 18.224 171.174 17.512 171.174 16.664V10.184H174.174V23H171.318V19.544L171.822 20.6C171.39 21.432 170.758 22.072 169.926 22.52C169.094 22.952 168.182 23.168 167.19 23.168ZM183.981 23.168C182.637 23.168 181.437 22.888 180.381 22.328C179.341 21.752 178.525 20.968 177.933 19.976C177.341 18.984 177.045 17.856 177.045 16.592C177.045 15.312 177.341 14.184 177.933 13.208C178.525 12.216 179.341 11.44 180.381 10.88C181.437 10.32 182.637 10.04 183.981 10.04C185.229 10.04 186.325 10.296 187.269 10.808C188.229 11.304 188.957 12.04 189.453 13.016L187.149 14.36C186.765 13.752 186.293 13.304 185.733 13.016C185.189 12.728 184.597 12.584 183.957 12.584C183.221 12.584 182.557 12.744 181.965 13.064C181.373 13.384 180.909 13.848 180.573 14.456C180.237 15.048 180.069 15.76 180.069 16.592C180.069 17.424 180.237 18.144 180.573 18.752C180.909 19.344 181.373 19.8 181.965 20.12C182.557 20.44 183.221 20.6 183.957 20.6C184.597 20.6 185.189 20.456 185.733 20.168C186.293 19.88 186.765 19.432 187.149 18.824L189.453 20.168C188.957 21.128 188.229 21.872 187.269 22.4C186.325 22.912 185.229 23.168 183.981 23.168ZM197.739 23.168C196.395 23.168 195.195 22.888 194.139 22.328C193.099 21.752 192.283 20.968 191.691 19.976C191.099 18.984 190.803 17.856 190.803 16.592C190.803 15.312 191.099 14.184 191.691 13.208C192.283 12.216 193.099 11.44 194.139 10.88C195.195 10.32 196.395 10.04 197.739 10.04C198.987 10.04 200.083 10.296 201.027 10.808C201.987 11.304 202.715 12.04 203.211 13.016L200.907 14.36C200.523 13.752 200.051 13.304 199.491 13.016C198.947 12.728 198.355 12.584 197.715 12.584C196.979 12.584 196.315 12.744 195.723 13.064C195.131 13.384 194.667 13.848 194.331 14.456C193.995 15.048 193.827 15.76 193.827 16.592C193.827 17.424 193.995 18.144 194.331 18.752C194.667 19.344 195.131 19.8 195.723 20.12C196.315 20.44 196.979 20.6 197.715 20.6C198.355 20.6 198.947 20.456 199.491 20.168C200.051 19.88 200.523 19.432 200.907 18.824L203.211 20.168C202.715 21.128 201.987 21.872 201.027 22.4C200.083 22.912 198.987 23.168 197.739 23.168ZM211.641 23.168C210.217 23.168 208.969 22.888 207.897 22.328C206.841 21.752 206.017 20.968 205.425 19.976C204.849 18.984 204.561 17.856 204.561 16.592C204.561 15.312 204.841 14.184 205.401 13.208C205.977 12.216 206.761 11.44 207.753 10.88C208.761 10.32 209.905 10.04 211.185 10.04C212.433 10.04 213.545 10.312 214.521 10.856C215.497 11.4 216.265 12.168 216.825 13.16C217.385 14.152 217.665 15.32 217.665 16.664C217.665 16.792 217.657 16.936 217.641 17.096C217.641 17.256 217.633 17.408 217.617 17.552H206.937V15.56H216.033L214.857 16.184C214.873 15.448 214.721 14.8 214.401 14.24C214.081 13.68 213.641 13.24 213.081 12.92C212.537 12.6 211.905 12.44 211.185 12.44C210.449 12.44 209.801 12.6 209.241 12.92C208.697 13.24 208.265 13.688 207.945 14.264C207.641 14.824 207.489 15.488 207.489 16.256V16.736C207.489 17.504 207.665 18.184 208.017 18.776C208.369 19.368 208.865 19.824 209.505 20.144C210.145 20.464 210.881 20.624 211.713 20.624C212.433 20.624 213.081 20.512 213.657 20.288C214.233 20.064 214.745 19.712 215.193 19.232L216.801 21.08C216.225 21.752 215.497 22.272 214.617 22.64C213.753 22.992 212.761 23.168 211.641 23.168ZM224.507 23.168C223.435 23.168 222.403 23.032 221.411 22.76C220.435 22.472 219.659 22.128 219.083 21.728L220.235 19.448C220.811 19.816 221.499 20.12 222.299 20.36C223.099 20.6 223.899 20.72 224.699 20.72C225.643 20.72 226.323 20.592 226.739 20.336C227.171 20.08 227.387 19.736 227.387 19.304C227.387 18.952 227.243 18.688 226.955 18.512C226.667 18.32 226.291 18.176 225.827 18.08C225.363 17.984 224.843 17.896 224.267 17.816C223.707 17.736 223.139 17.632 222.563 17.504C222.003 17.36 221.491 17.16 221.027 16.904C220.563 16.632 220.187 16.272 219.899 15.824C219.611 15.376 219.467 14.784 219.467 14.048C219.467 13.232 219.699 12.528 220.163 11.936C220.627 11.328 221.275 10.864 222.107 10.544C222.955 10.208 223.955 10.04 225.107 10.04C225.971 10.04 226.843 10.136 227.723 10.328C228.603 10.52 229.331 10.792 229.907 11.144L228.755 13.424C228.147 13.056 227.531 12.808 226.907 12.68C226.299 12.536 225.691 12.464 225.083 12.464C224.171 12.464 223.491 12.6 223.043 12.872C222.611 13.144 222.395 13.488 222.395 13.904C222.395 14.288 222.539 14.576 222.827 14.768C223.115 14.96 223.491 15.112 223.955 15.224C224.419 15.336 224.931 15.432 225.491 15.512C226.067 15.576 226.635 15.68 227.195 15.824C227.755 15.968 228.267 16.168 228.731 16.424C229.211 16.664 229.595 17.008 229.883 17.456C230.171 17.904 230.315 18.488 230.315 19.208C230.315 20.008 230.075 20.704 229.595 21.296C229.131 21.888 228.467 22.352 227.603 22.688C226.739 23.008 225.707 23.168 224.507 23.168ZM236.858 23.168C235.786 23.168 234.754 23.032 233.762 22.76C232.786 22.472 232.01 22.128 231.434 21.728L232.586 19.448C233.162 19.816 233.85 20.12 234.65 20.36C235.45 20.6 236.25 20.72 237.05 20.72C237.994 20.72 238.674 20.592 239.09 20.336C239.522 20.08 239.738 19.736 239.738 19.304C239.738 18.952 239.594 18.688 239.306 18.512C239.018 18.32 238.642 18.176 238.178 18.08C237.714 17.984 237.194 17.896 236.618 17.816C236.058 17.736 235.49 17.632 234.914 17.504C234.354 17.36 233.842 17.16 233.378 16.904C232.914 16.632 232.538 16.272 232.25 15.824C231.962 15.376 231.818 14.784 231.818 14.048C231.818 13.232 232.05 12.528 232.514 11.936C232.978 11.328 233.626 10.864 234.458 10.544C235.306 10.208 236.306 10.04 237.458 10.04C238.322 10.04 239.194 10.136 240.074 10.328C240.954 10.52 241.682 10.792 242.258 11.144L241.106 13.424C240.498 13.056 239.882 12.808 239.258 12.68C238.65 12.536 238.042 12.464 237.434 12.464C236.522 12.464 235.842 12.6 235.394 12.872C234.962 13.144 234.746 13.488 234.746 13.904C234.746 14.288 234.89 14.576 235.178 14.768C235.466 14.96 235.842 15.112 236.306 15.224C236.77 15.336 237.282 15.432 237.842 15.512C238.418 15.576 238.986 15.68 239.546 15.824C240.106 15.968 240.618 16.168 241.082 16.424C241.562 16.664 241.946 17.008 242.234 17.456C242.522 17.904 242.666 18.488 242.666 19.208C242.666 20.008 242.426 20.704 241.946 21.296C241.482 21.888 240.818 22.352 239.954 22.688C239.09 23.008 238.058 23.168 236.858 23.168Z" fill="#09376E"/>
<path d="M65.9436 125.64V121.28H73.1436C75.6236 121.28 77.3969 120.76 78.4636 119.72C79.5569 118.68 80.1036 117.413 80.1036 115.92C80.1036 114.027 79.5036 112.533 78.3036 111.44C77.1303 110.32 75.2903 109.773 72.7836 109.8H63.5836V107H89.0636V109.8H78.9836L80.4236 108.32C82.2103 109.093 83.4769 110.187 84.2236 111.6C84.9703 112.987 85.3436 114.507 85.3436 116.16C85.3436 118.133 84.8636 119.84 83.9036 121.28C82.9436 122.693 81.5836 123.773 79.8236 124.52C78.0636 125.267 75.9436 125.64 73.4636 125.64H65.9436ZM80.2636 135L72.9436 123.8H78.5036L85.8636 135H80.2636ZM63.5836 115.36V112.56H89.0636V115.36H63.5836ZM92.4508 135V131.52L103.571 120.96C104.504 120.08 105.197 119.307 105.651 118.64C106.104 117.973 106.397 117.36 106.531 116.8C106.691 116.213 106.771 115.667 106.771 115.16C106.771 113.88 106.331 112.893 105.451 112.2C104.571 111.48 103.277 111.12 101.571 111.12C100.211 111.12 98.9708 111.36 97.8508 111.84C96.7574 112.32 95.8108 113.053 95.0108 114.04L91.3708 111.24C92.4641 109.773 93.9308 108.64 95.7708 107.84C97.6374 107.013 99.7174 106.6 102.011 106.6C104.037 106.6 105.797 106.933 107.291 107.6C108.811 108.24 109.971 109.16 110.771 110.36C111.597 111.56 112.011 112.987 112.011 114.64C112.011 115.547 111.891 116.453 111.651 117.36C111.411 118.24 110.957 119.173 110.291 120.16C109.624 121.147 108.651 122.253 107.371 123.48L97.8108 132.56L96.7308 130.6H113.091V135H92.4508ZM127.772 135.4C125.559 135.4 123.559 134.84 121.772 133.72C120.012 132.6 118.625 130.973 117.612 128.84C116.599 126.68 116.092 124.067 116.092 121C116.092 117.933 116.599 115.333 117.612 113.2C118.625 111.04 120.012 109.4 121.772 108.28C123.559 107.16 125.559 106.6 127.772 106.6C130.012 106.6 132.012 107.16 133.772 108.28C135.532 109.4 136.919 111.04 137.932 113.2C138.972 115.333 139.492 117.933 139.492 121C139.492 124.067 138.972 126.68 137.932 128.84C136.919 130.973 135.532 132.6 133.772 133.72C132.012 134.84 130.012 135.4 127.772 135.4ZM127.772 130.88C129.079 130.88 130.212 130.533 131.172 129.84C132.132 129.12 132.879 128.027 133.412 126.56C133.972 125.093 134.252 123.24 134.252 121C134.252 118.733 133.972 116.88 133.412 115.44C132.879 113.973 132.132 112.893 131.172 112.2C130.212 111.48 129.079 111.12 127.772 111.12C126.519 111.12 125.399 111.48 124.412 112.2C123.452 112.893 122.692 113.973 122.132 115.44C121.599 116.88 121.332 118.733 121.332 121C121.332 123.24 121.599 125.093 122.132 126.56C122.692 128.027 123.452 129.12 124.412 129.84C125.399 130.533 126.519 130.88 127.772 130.88ZM154.686 135.4C152.473 135.4 150.473 134.84 148.686 133.72C146.926 132.6 145.539 130.973 144.526 128.84C143.513 126.68 143.006 124.067 143.006 121C143.006 117.933 143.513 115.333 144.526 113.2C145.539 111.04 146.926 109.4 148.686 108.28C150.473 107.16 152.473 106.6 154.686 106.6C156.926 106.6 158.926 107.16 160.686 108.28C162.446 109.4 163.833 111.04 164.846 113.2C165.886 115.333 166.406 117.933 166.406 121C166.406 124.067 165.886 126.68 164.846 128.84C163.833 130.973 162.446 132.6 160.686 133.72C158.926 134.84 156.926 135.4 154.686 135.4ZM154.686 130.88C155.993 130.88 157.126 130.533 158.086 129.84C159.046 129.12 159.793 128.027 160.326 126.56C160.886 125.093 161.166 123.24 161.166 121C161.166 118.733 160.886 116.88 160.326 115.44C159.793 113.973 159.046 112.893 158.086 112.2C157.126 111.48 155.993 111.12 154.686 111.12C153.433 111.12 152.313 111.48 151.326 112.2C150.366 112.893 149.606 113.973 149.046 115.44C148.513 116.88 148.246 118.733 148.246 121C148.246 123.24 148.513 125.093 149.046 126.56C149.606 128.027 150.366 129.12 151.326 129.84C152.313 130.533 153.433 130.88 154.686 130.88ZM181.6 135.4C179.387 135.4 177.387 134.84 175.6 133.72C173.84 132.6 172.453 130.973 171.44 128.84C170.427 126.68 169.92 124.067 169.92 121C169.92 117.933 170.427 115.333 171.44 113.2C172.453 111.04 173.84 109.4 175.6 108.28C177.387 107.16 179.387 106.6 181.6 106.6C183.84 106.6 185.84 107.16 187.6 108.28C189.36 109.4 190.747 111.04 191.76 113.2C192.8 115.333 193.32 117.933 193.32 121C193.32 124.067 192.8 126.68 191.76 128.84C190.747 130.973 189.36 132.6 187.6 133.72C185.84 134.84 183.84 135.4 181.6 135.4ZM181.6 130.88C182.907 130.88 184.04 130.533 185 129.84C185.96 129.12 186.707 128.027 187.24 126.56C187.8 125.093 188.08 123.24 188.08 121C188.08 118.733 187.8 116.88 187.24 115.44C186.707 113.973 185.96 112.893 185 112.2C184.04 111.48 182.907 111.12 181.6 111.12C180.347 111.12 179.227 111.48 178.24 112.2C177.28 112.893 176.52 113.973 175.96 115.44C175.427 116.88 175.16 118.733 175.16 121C175.16 123.24 175.427 125.093 175.96 126.56C176.52 128.027 177.28 129.12 178.24 129.84C179.227 130.533 180.347 130.88 181.6 130.88ZM199.485 135.28C198.579 135.28 197.805 134.973 197.165 134.36C196.525 133.72 196.205 132.92 196.205 131.96C196.205 130.947 196.525 130.147 197.165 129.56C197.805 128.947 198.579 128.64 199.485 128.64C200.392 128.64 201.165 128.947 201.805 129.56C202.445 130.147 202.765 130.947 202.765 131.96C202.765 132.92 202.445 133.72 201.805 134.36C201.165 134.973 200.392 135.28 199.485 135.28ZM217.342 135.4C215.129 135.4 213.129 134.84 211.342 133.72C209.582 132.6 208.196 130.973 207.182 128.84C206.169 126.68 205.662 124.067 205.662 121C205.662 117.933 206.169 115.333 207.182 113.2C208.196 111.04 209.582 109.4 211.342 108.28C213.129 107.16 215.129 106.6 217.342 106.6C219.582 106.6 221.582 107.16 223.342 108.28C225.102 109.4 226.489 111.04 227.502 113.2C228.542 115.333 229.062 117.933 229.062 121C229.062 124.067 228.542 126.68 227.502 128.84C226.489 130.973 225.102 132.6 223.342 133.72C221.582 134.84 219.582 135.4 217.342 135.4ZM217.342 130.88C218.649 130.88 219.782 130.533 220.742 129.84C221.702 129.12 222.449 128.027 222.982 126.56C223.542 125.093 223.822 123.24 223.822 121C223.822 118.733 223.542 116.88 222.982 115.44C222.449 113.973 221.702 112.893 220.742 112.2C219.782 111.48 218.649 111.12 217.342 111.12C216.089 111.12 214.969 111.48 213.982 112.2C213.022 112.893 212.262 113.973 211.702 115.44C211.169 116.88 210.902 118.733 210.902 121C210.902 123.24 211.169 125.093 211.702 126.56C212.262 128.027 213.022 129.12 213.982 129.84C214.969 130.533 216.089 130.88 217.342 130.88Z" fill="#09376E"/>
</svg>
