<svg width="46" height="22" viewBox="0 0 46 22" fill="none" xmlns="http://www.w3.org/2000/svg">
<path fill-rule="evenodd" clip-rule="evenodd" d="M36.5834 16.8363C35.9214 16.373 35.0613 16.1078 34.0015 16.1078C33.0089 16.1078 32.1486 16.373 31.421 16.8363C30.6926 17.4313 30.2954 18.1602 30.2954 19.0865C30.2954 20.0132 30.6926 20.675 31.421 21.2705C32.1486 21.7338 33.0091 21.999 34.0015 21.999C35.0613 21.999 35.9214 21.7338 36.5834 21.2705C37.3776 20.675 37.7086 20.0132 37.7086 19.0865C37.7084 18.1602 37.3776 17.4313 36.5834 16.8363ZM34.0013 17.7626C34.4651 17.7626 34.7959 17.8951 35.1269 18.0934C35.3921 18.3585 35.5903 18.6226 35.5903 18.9539C35.656 19.8806 35.1269 20.344 34.0013 20.344C33.5379 20.344 33.1412 20.2114 32.8104 19.9463C32.5453 19.6817 32.4132 19.3509 32.4132 18.9537C32.4789 18.6224 32.6119 18.3582 32.8761 18.0931C33.2071 17.8951 33.5379 17.7626 34.0013 17.7626ZM45.1212 16.3061H42.7384L40.4221 18.491V14.5198H38.2377V21.8664H40.4221V18.8878L42.6059 21.8664H45.3863L42.5402 18.6893L45.1212 16.3061ZM18.5798 16.2404C17.4544 16.2404 16.5943 16.5055 15.9322 16.9679C15.2704 17.4982 14.9393 18.1602 14.8732 19.0865C14.8732 20.8733 16.1307 21.8005 18.7124 21.8664H21.9556V20.3442H18.8444C17.9841 20.2776 17.3884 20.0791 17.1897 19.6822C16.9251 19.285 16.9251 18.888 17.1236 18.4913C17.3884 18.0279 17.9177 17.7628 18.5798 17.7628H19.9035L18.4472 19.6822H20.4991L21.9554 17.8292V16.2406L18.5798 16.2404ZM24.8676 14.5198H22.6172V21.8005H26.7206C27.6478 21.8005 28.3753 21.5353 28.905 21.0058C29.501 20.5425 29.7656 19.8806 29.8318 19.0865C29.8318 17.4979 29.1702 16.6371 27.8462 16.373L25.9933 16.3063L25.0002 17.7628H25.8607C27.1847 17.7628 27.7801 18.1605 27.7801 19.0867C27.7139 19.8809 27.1185 20.3442 25.9933 20.3442H24.8676V14.5198ZM0.046875 14.5198V21.8005H2.29727V16.174H4.41534C4.87846 16.3061 5.2095 16.5712 5.14358 17.1002C5.14358 17.431 5.01102 17.6962 4.74638 17.7623L2.62831 17.9606L4.94486 21.8659H7.65862L5.40822 18.8216C6.7983 18.755 7.46014 18.0274 7.32758 16.7035C7.32758 15.975 6.99654 15.4455 6.4011 15.0488C5.87134 14.718 5.2095 14.5195 4.41534 14.5195L0.046875 14.5198Z" fill="black"/>
<path fill-rule="evenodd" clip-rule="evenodd" d="M11.1664 16.2408C10.0412 16.2408 9.18086 16.5059 8.51878 16.9683C7.85694 17.4317 7.5259 18.1607 7.5259 19.0207C7.45998 20.8737 8.7175 21.8011 11.2325 21.8011H14.542V20.3446H11.4315C10.5707 20.278 9.97526 20.0795 9.77678 19.6826C9.5119 19.2854 9.5119 18.8884 9.71062 18.4917C9.97526 18.0283 10.5045 17.7632 11.1666 17.7632H12.4903L11.0343 19.6826H13.0862L14.5422 17.7632V16.2411L11.1664 16.2408ZM22.9481 2.87052L26.3896 4.9886L31.883 2.93692C33.737 2.34125 36.1197 1.67917 38.9655 0.884766C31.9499 1.48069 26.6547 2.07612 22.9481 2.87052ZM20.3008 5.12116L17.256 4.32676C15.5351 4.79036 13.8804 5.51812 12.3582 6.44508C10.8356 7.37131 9.64446 8.43083 8.85006 9.55603H14.0129C14.4101 8.96011 15.072 8.29803 15.9323 7.63619C17.1896 6.5774 18.646 5.783 20.3008 5.12116ZM23.9412 6.37843L21.3598 5.51787C20.7639 5.783 20.0361 6.11379 19.1753 6.70923C17.984 7.50363 16.9249 8.49651 15.9984 9.55603H20.83C21.4919 8.49651 22.5509 7.43771 23.9412 6.37843ZM18.0504 0.884766H7.72486L18.0501 3.66492C22.6171 5.05452 26.853 6.64356 30.7588 8.29803L18.0504 0.884766Z" fill="black"/>
</svg>
