<svg width="46" height="48" viewBox="0 0 46 48" fill="none" xmlns="http://www.w3.org/2000/svg">
<path d="M1.27344 10.078V20.6645C1.27344 32.0482 8.68487 41.9863 19.7004 47.3039C30.7159 41.9863 38.1283 32.0482 38.1283 20.6645V10.078C34.5135 9.59169 31.0108 8.48026 27.777 6.79344C24.7764 5.22478 22.0498 3.18031 19.7032 0.739502C17.6813 2.73846 15.4149 4.47384 12.9579 5.90437C9.35076 7.99779 5.39053 9.41239 1.27344 10.078Z" fill="#AEADB3"/>
<path d="M19.7028 43.7102C15.3089 41.3437 11.6243 38.1537 8.98517 34.4175C6.04252 30.2513 4.48828 25.4949 4.48828 20.6617V12.6985C8.03297 11.8595 11.4345 10.502 14.5829 8.67002C16.3709 7.62794 18.0679 6.43705 19.6559 5.10999C21.6835 6.86902 23.9099 8.38485 26.2898 9.62655C29.0142 11.0511 31.917 12.1048 34.921 12.7594V20.6645C34.921 25.4978 33.3658 30.2542 30.4241 34.4203C27.7794 38.1537 24.0938 41.3437 19.7028 43.7102Z" fill="#174987"/>
<path d="M26.285 9.62362C23.9052 8.38192 21.6788 6.86609 19.6512 5.10706C19.1828 5.49804 18.7053 5.8759 18.2188 6.24065C19.8645 7.5253 21.6236 8.65762 23.4745 9.62362C26.1989 11.0482 29.1018 12.1018 32.1057 12.7565V20.6616C32.1057 25.4948 30.5505 30.2512 27.6088 34.4174C25.2554 37.7479 22.072 40.6437 18.2956 42.91C18.7556 43.1854 19.224 43.4533 19.7008 43.71C24.0947 41.3436 27.7803 38.1536 30.4194 34.4174C33.362 30.2512 34.9163 25.4948 34.9163 20.6616V12.7565C31.9123 12.1018 29.0095 11.0482 26.285 9.62362Z" fill="#787681"/>
<path d="M19.7031 33.1077C17.6038 33.1027 15.5712 32.3702 13.9513 31.0349C12.3315 29.6995 11.2247 27.844 10.8193 25.7842C10.4139 23.7244 10.7351 21.5878 11.7281 19.7383C12.7211 17.8887 14.3245 16.4406 16.2653 15.6404C18.2062 14.8403 20.3643 14.7377 22.3723 15.3501C24.3803 15.9625 26.1139 17.2519 27.2779 18.999C28.4419 20.746 28.9643 22.8425 28.7562 24.9314C28.5481 27.0203 27.6222 28.9725 26.1364 30.4555C25.2917 31.2997 24.2885 31.9686 23.1845 32.4237C22.0804 32.8789 20.8973 33.1114 19.7031 33.1077Z" fill="#FED947"/>
<path d="M26.1327 17.644C25.2885 16.8 24.2857 16.1312 23.1822 15.676C22.0786 15.2208 20.8959 14.9883 19.7022 14.9917C19.2317 14.9918 18.7619 15.0275 18.2969 15.0985C20.4323 15.4295 22.3789 16.5133 23.7851 18.1541C25.1912 19.7949 25.9641 21.8846 25.9641 24.0455C25.9641 26.2064 25.1912 28.296 23.7851 29.9369C22.3789 31.5777 20.4323 32.6615 18.2969 32.9924C18.7617 33.0667 19.2315 33.1052 19.7022 33.1076C21.4972 33.1171 23.2544 32.5924 24.7504 31.6002C26.2464 30.6081 27.4135 29.1935 28.1032 27.5362C28.7929 25.879 28.9741 24.054 28.6237 22.2935C28.2733 20.533 27.4072 18.9165 26.1355 17.6496L26.1327 17.644Z" fill="#FECC30"/>
<path d="M41.8792 32.2777H29.3067C27.7544 32.2777 26.4961 33.536 26.4961 35.0883V44.4905C26.4961 46.0427 27.7544 47.3011 29.3067 47.3011H41.8792C43.4314 47.3011 44.6898 46.0427 44.6898 44.4905V35.0883C44.6898 33.536 43.4314 32.2777 41.8792 32.2777Z" fill="#E1E1E3"/>
<path d="M41.8809 32.2777H39.0703C39.8157 32.2777 40.5306 32.5738 41.0577 33.1009C41.5848 33.628 41.8809 34.3429 41.8809 35.0883V44.4905C41.8809 45.2359 41.5848 45.9508 41.0577 46.4779C40.5306 47.005 39.8157 47.3011 39.0703 47.3011H41.8809C42.25 47.3011 42.6154 47.2284 42.9564 47.0871C43.2974 46.9459 43.6072 46.7389 43.8682 46.4779C44.1292 46.2169 44.3362 45.9071 44.4775 45.5661C44.6187 45.2251 44.6914 44.8596 44.6914 44.4905V35.0883C44.6914 34.7192 44.6187 34.3537 44.4775 34.0127C44.3362 33.6717 44.1292 33.3619 43.8682 33.1009C43.6072 32.8399 43.2974 32.6329 42.9564 32.4916C42.6154 32.3504 42.25 32.2777 41.8809 32.2777Z" fill="#C8C5CC"/>
<path d="M44.6898 35.0882V36.8551H26.4961V35.0845C26.4961 34.3391 26.7922 33.6242 27.3193 33.0971C27.8464 32.57 28.5612 32.2739 29.3066 32.2739H41.8792C42.2486 32.2739 42.6144 32.3467 42.9556 32.4882C43.2969 32.6297 43.6069 32.8371 43.8679 33.0984C44.1289 33.3598 44.3359 33.6701 44.4769 34.0115C44.6179 34.353 44.6903 34.7188 44.6898 35.0882Z" fill="#EB304A"/>
<path d="M41.8809 32.2777H39.0703C39.8157 32.2777 40.5306 32.5738 41.0577 33.1009C41.5848 33.628 41.8809 34.3429 41.8809 35.0883V36.8552H44.6914V35.0845C44.6904 34.3398 44.3939 33.6258 43.8669 33.0996C43.3399 32.5733 42.6256 32.2777 41.8809 32.2777Z" fill="#E4222E"/>
<path d="M41.9145 31.5694V30.6719C41.9145 30.4856 41.8405 30.3069 41.7087 30.1751C41.577 30.0433 41.3982 29.9693 41.2119 29.9693C41.0255 29.9693 40.8468 30.0433 40.715 30.1751C40.5833 30.3069 40.5093 30.4856 40.5093 30.6719V31.5676H36.5089C38.0387 28.1326 38.8293 24.4144 38.8295 20.6542V10.0677C38.8296 9.89761 38.7679 9.73322 38.6559 9.60518C38.5439 9.47713 38.3892 9.39414 38.2205 9.37166C34.6868 8.8977 31.2628 7.8109 28.1025 6.16013C25.1676 4.6294 22.5009 2.63192 20.2067 0.245781C20.1422 0.178748 20.065 0.125189 19.9795 0.0882066C19.8941 0.0512244 19.8022 0.0315538 19.7092 0.0303339C19.6161 0.029114 19.5238 0.0463691 19.4374 0.0810999C19.3511 0.115831 19.2725 0.167347 19.2062 0.232665C17.2269 2.19025 15.0084 3.89003 12.6032 5.29167C9.07172 7.34441 5.19256 8.72967 1.15959 9.37821C0.995022 9.40493 0.845339 9.48936 0.73736 9.6164C0.629381 9.74343 0.570162 9.90476 0.570313 10.0715V20.6579C0.570313 26.2987 2.37188 31.8308 5.78202 36.6575C9.07787 41.3239 13.7855 45.2222 19.3945 47.9297C19.4897 47.9759 19.5941 47.9999 19.6999 47.9999C19.8057 47.9999 19.9101 47.9759 20.0053 47.9297C22.0314 46.9531 23.9679 45.8004 25.7922 44.4849C25.7935 45.4162 26.164 46.3089 26.8227 46.9674C27.4813 47.6258 28.3741 47.9961 29.3054 47.9971H41.8799C42.8112 47.9959 43.7041 47.6254 44.3627 46.9668C45.0213 46.3082 45.3918 45.4153 45.3931 44.4839V35.0817C45.3919 34.1564 45.0261 33.2688 44.3749 32.6113C43.7238 31.9539 42.8398 31.5795 41.9145 31.5694ZM25.7922 42.7311C23.8908 44.1874 21.8512 45.4538 19.7027 46.5122C14.4423 43.9153 10.0316 40.2353 6.93248 35.8443C3.69097 31.2537 1.9784 26.0073 1.9784 20.6551V10.6636C5.97031 9.9501 9.80593 8.54123 13.3106 6.50114C15.6135 5.15991 17.7535 3.55659 19.6877 1.7232C21.9732 3.99969 24.5905 5.9167 27.4505 7.40895C30.5723 9.04079 33.9422 10.1458 37.4242 10.6795V20.6551C37.4215 24.4303 36.5806 28.1578 34.9622 31.5685H32.9545C34.7008 28.1321 35.6189 24.3838 35.6189 20.6551V12.7499C35.6189 12.5896 35.5641 12.434 35.4636 12.3091C35.3631 12.1842 35.2228 12.0974 35.0661 12.0632C32.1231 11.4214 29.2789 10.3892 26.6092 8.99411C24.2783 7.77726 22.0975 6.29228 20.1112 4.56935C19.985 4.46023 19.8242 4.39948 19.6574 4.39794C19.4906 4.3964 19.3287 4.45416 19.2006 4.56092C17.6424 5.86123 15.9777 7.02829 14.224 8.04976C11.1352 9.84698 7.79857 11.1794 4.32147 12.0042C4.16753 12.0407 4.03041 12.1281 3.93231 12.2522C3.8342 12.3763 3.78086 12.5299 3.7809 12.6881V20.6514C3.7809 25.6307 5.38105 30.5276 8.40802 34.8119C11.0968 38.6183 14.8863 41.9057 19.3692 44.3181C19.4716 44.3735 19.5863 44.4024 19.7027 44.4024C19.8192 44.4024 19.9338 44.3735 20.0362 44.3181C22.0822 43.221 24.0108 41.9179 25.7922 40.4292V42.7311ZM25.7922 35.0817V38.5621C23.9376 40.2404 21.894 41.6973 19.7027 42.9035C15.5581 40.611 12.0561 37.54 9.55847 34.0034C6.70014 29.9571 5.18899 25.3403 5.18899 20.6532V13.239C8.60623 12.3748 11.8858 11.0368 14.9323 9.26392C16.5823 8.30221 18.157 7.21672 19.6427 6.01679C21.5903 7.64782 23.7084 9.0638 25.9599 10.2401C28.5724 11.6045 31.3456 12.6362 34.2145 13.3111V20.6551C34.2145 24.3931 33.2308 28.1574 31.3665 31.5685H30.6779V30.6719C30.6779 30.4856 30.6039 30.3069 30.4721 30.1751C30.3404 30.0433 30.1616 29.9693 29.9753 29.9693C29.7889 29.9693 29.6102 30.0433 29.4784 30.1751C29.3467 30.3069 29.2726 30.4856 29.2726 30.6719V31.5685C28.3469 31.5781 27.4623 31.9524 26.8107 32.6101C26.1591 33.2678 25.7932 34.1559 25.7922 35.0817ZM43.9878 44.4839C43.987 45.0428 43.7647 45.5785 43.3696 45.9736C42.9744 46.3688 42.4387 46.5911 41.8799 46.5919H29.3064C28.7475 46.5911 28.2118 46.3688 27.8167 45.9736C27.4215 45.5785 27.1992 45.0428 27.1985 44.4839V37.5512H43.9878V44.4839ZM43.9878 36.146H27.1975V35.0779C27.1982 34.5251 27.4158 33.9947 27.8035 33.6007C28.1912 33.2066 28.7181 32.9805 29.2708 32.971V33.5462C29.2708 33.7325 29.3448 33.9113 29.4766 34.043C29.6083 34.1748 29.7871 34.2488 29.9734 34.2488C30.1598 34.2488 30.3385 34.1748 30.4703 34.043C30.602 33.9113 30.6761 33.7325 30.6761 33.5462V32.97H40.513V33.5462C40.513 33.7325 40.587 33.9113 40.7188 34.043C40.8506 34.1748 41.0293 34.2488 41.2156 34.2488C41.402 34.2488 41.5807 34.1748 41.7125 34.043C41.8442 33.9113 41.9183 33.7325 41.9183 33.5462V32.971C42.4709 32.9808 42.9976 33.207 43.3853 33.6009C43.773 33.9949 43.9906 34.5252 43.9915 35.0779L43.9878 36.146ZM26.6279 17.14C25.0321 15.5542 22.936 14.5703 20.6964 14.3559C18.4569 14.1415 16.2122 14.7098 14.3445 15.9642C12.4768 17.2185 11.1014 19.0813 10.4526 21.2355C9.80367 23.3897 9.92135 25.7022 10.7856 27.7794C11.6498 29.8566 13.2071 31.5701 15.1925 32.6284C17.1779 33.6866 19.4687 34.0241 21.6749 33.5835C23.8811 33.1428 25.8665 31.9513 27.2931 30.2116C28.7197 28.4719 29.4994 26.2916 29.4994 24.0418C29.498 22.7591 29.2437 21.4893 28.751 20.305C28.2583 19.1206 27.5368 18.0452 26.6279 17.14ZM25.6367 29.9477C24.271 31.3047 22.4773 32.1465 20.5608 32.3298C18.6443 32.513 16.7235 32.0264 15.1254 30.9528C13.5273 29.8792 12.3507 28.2849 11.7958 26.4414C11.2409 24.5978 11.3421 22.619 12.0821 20.8416C12.8221 19.0643 14.1551 17.5983 15.8544 16.6933C17.5537 15.7882 19.514 15.5001 21.4019 15.8778C23.2897 16.2555 24.9883 17.2759 26.2084 18.7651C27.4286 20.2543 28.095 22.1203 28.0941 24.0456C28.0895 26.2609 27.2056 28.3837 25.6367 29.9477ZM23.8136 19.1121C23.8136 18.9258 23.7396 18.747 23.6078 18.6153C23.476 18.4835 23.2973 18.4095 23.111 18.4095H16.2888C16.1025 18.4095 15.9237 18.4835 15.792 18.6153C15.6602 18.747 15.5862 18.9258 15.5862 19.1121C15.5862 19.2985 15.6602 19.4772 15.792 19.6089C15.9237 19.7407 16.1025 19.8147 16.2888 19.8147H18.6722C19.1254 19.8148 19.5675 19.956 19.9368 20.2187C20.3062 20.4815 20.5845 20.8527 20.7332 21.2809H16.2888C16.1025 21.2809 15.9237 21.3549 15.792 21.4867C15.6602 21.6185 15.5862 21.7972 15.5862 21.9836C15.5862 22.1699 15.6602 22.3486 15.792 22.4804C15.9237 22.6122 16.1025 22.6862 16.2888 22.6862H20.7332C20.5843 23.1141 20.3058 23.4851 19.9365 23.7477C19.5672 24.0102 19.1253 24.1513 18.6722 24.1514H16.2823H16.242H16.212L16.1764 24.1571L16.1436 24.1627L16.1127 24.1702L16.078 24.1795L16.0452 24.1908L16.0143 24.203L15.9778 24.2198L15.9525 24.2329C15.9412 24.2389 15.9303 24.2455 15.9197 24.2526L15.8944 24.2685C15.885 24.2742 15.8766 24.2817 15.8672 24.2882L15.8391 24.3107L15.8176 24.3294L15.7867 24.3585C15.781 24.3641 15.7773 24.3697 15.7726 24.3753L15.7445 24.4063L15.7258 24.4316L15.7042 24.4615L15.6874 24.4906L15.6696 24.5206L15.6546 24.5524C15.6499 24.5627 15.6452 24.573 15.6415 24.5833C15.6377 24.5936 15.633 24.6049 15.6293 24.6152C15.6255 24.6255 15.6218 24.6367 15.619 24.648C15.6153 24.659 15.6125 24.6702 15.6105 24.6817C15.6075 24.6925 15.605 24.7034 15.603 24.7145C15.6003 24.7265 15.5984 24.7387 15.5974 24.751C15.5974 24.7613 15.5974 24.7716 15.5974 24.7829C15.5974 24.7941 15.5974 24.8091 15.5974 24.8232C15.5974 24.8372 15.5974 24.8381 15.5974 24.8456V24.8634V24.9047C15.5974 24.914 15.5974 24.9243 15.5974 24.9337C15.5974 24.9431 15.5974 24.9571 15.5974 24.9684L15.603 25.0021C15.603 25.0115 15.6077 25.0208 15.6105 25.0302C15.613 25.0433 15.6164 25.0561 15.6208 25.0686L15.6293 25.0939C15.634 25.1061 15.6386 25.1201 15.6443 25.1323C15.6499 25.1445 15.6527 25.1511 15.6574 25.1604C15.6621 25.1698 15.6677 25.1829 15.6733 25.1932C15.6789 25.2035 15.6855 25.212 15.6911 25.2213C15.6967 25.232 15.7029 25.2424 15.7098 25.2522C15.7155 25.2597 15.7211 25.2682 15.7276 25.2757C15.7342 25.2832 15.7426 25.2972 15.7511 25.3075L15.7698 25.3272C15.7792 25.3384 15.7885 25.3487 15.7988 25.359H15.8035L20.9618 30.329C21.0961 30.4582 21.2763 30.5288 21.4626 30.5252C21.6489 30.5216 21.8262 30.4441 21.9554 30.3098C22.0846 30.1755 22.1551 29.9954 22.1515 29.8091C22.1479 29.6228 22.0705 29.4455 21.9362 29.3163L18.0314 25.5567H18.6722C19.4993 25.5568 20.301 25.2711 20.9417 24.748C21.5824 24.225 22.0228 23.4966 22.1882 22.6862H23.1091C23.2954 22.6862 23.4742 22.6122 23.6059 22.4804C23.7377 22.3486 23.8117 22.1699 23.8117 21.9836C23.8117 21.7972 23.7377 21.6185 23.6059 21.4867C23.4742 21.3549 23.2954 21.2809 23.1091 21.2809H22.1882C22.0809 20.7474 21.8523 20.2458 21.5202 19.8147H23.1128C23.2989 19.8143 23.4771 19.74 23.6085 19.6083C23.7398 19.4766 23.8136 19.2981 23.8136 19.1121Z" fill="white"/>
</svg>
