<svg width="37" height="44" viewBox="0 0 37 44" fill="none" xmlns="http://www.w3.org/2000/svg">
<path d="M2.13983 0.68517C2.13983 0.68517 0.426843 1.02777 0.726615 3.12617C1.02639 5.22458 0.726615 41.9897 0.726615 41.9897C0.726615 41.9897 1.30458 43.5738 4.34512 43.1672C7.38567 42.7605 26.9781 43.1672 26.9781 43.1672C26.9781 43.1672 28.6626 43.9664 28.8052 40.7118C28.9477 37.4571 28.8052 8.77902 28.8052 8.77902L17.3426 0.428223L2.13983 0.68517Z" fill="#174987"/>
<path opacity="0.5" d="M23.714 12.3335H5.74379C5.56206 12.3335 5.38778 12.4057 5.25928 12.5342C5.13078 12.6627 5.05859 12.837 5.05859 13.0187C5.05859 13.2004 5.13078 13.3747 5.25928 13.5032C5.38778 13.6317 5.56206 13.7039 5.74379 13.7039H23.714C23.8957 13.7039 24.07 13.6317 24.1985 13.5032C24.327 13.3747 24.3992 13.2004 24.3992 13.0187C24.3992 12.837 24.327 12.6627 24.1985 12.5342C24.07 12.4057 23.8957 12.3335 23.714 12.3335ZM5.74379 41.1116H23.714C23.8957 41.1116 24.07 41.0394 24.1985 40.9109C24.327 40.7824 24.3992 40.6082 24.3992 40.4264C24.3992 40.2447 24.327 40.0704 24.1985 39.9419C24.07 39.8134 23.8957 39.7412 23.714 39.7412H5.74379C5.56206 39.7412 5.38778 39.8134 5.25928 39.9419C5.13078 40.0704 5.05859 40.2447 5.05859 40.4264C5.05859 40.6082 5.13078 40.7824 5.25928 40.9109C5.38778 41.0394 5.56206 41.1116 5.74379 41.1116ZM23.9727 16.4344C24.103 16.3725 24.2387 16.3225 24.378 16.285C24.3424 16.1356 24.2576 16.0024 24.1371 15.9071C24.0167 15.8118 23.8676 15.7598 23.714 15.7595H5.74379C5.56206 15.7595 5.38778 15.8317 5.25928 15.9602C5.13078 16.0887 5.05859 16.2629 5.05859 16.4447C5.05859 16.6264 5.13078 16.8007 5.25928 16.9292C5.38778 17.0577 5.56206 17.1299 5.74379 17.1299H23.108C23.3384 16.8341 23.6344 16.596 23.9727 16.4344ZM20.4796 19.219C20.4898 19.2067 20.5008 19.1974 20.5107 19.1854H5.74379C5.56206 19.1854 5.38778 19.2576 5.25928 19.3861C5.13078 19.5146 5.05859 19.6889 5.05859 19.8706C5.05859 20.0523 5.13078 20.2266 5.25928 20.3551C5.38778 20.4836 5.56206 20.5558 5.74379 20.5558H19.9516C19.9896 20.0674 20.1735 19.6016 20.4796 19.219ZM5.05859 23.2966C5.05855 23.3866 5.07624 23.4757 5.11066 23.5589C5.14508 23.642 5.19555 23.7176 5.25918 23.7812C5.32282 23.8448 5.39837 23.8953 5.48152 23.9297C5.56467 23.9641 5.65379 23.9818 5.74379 23.9818H18.5069C18.464 23.508 18.5596 23.0319 18.782 22.6114H5.74379C5.65379 22.6114 5.56467 22.629 5.48152 22.6635C5.39837 22.6979 5.32282 22.7484 5.25918 22.812C5.19555 22.8756 5.14508 22.9512 5.11066 23.0343C5.07624 23.1175 5.05855 23.2066 5.05859 23.2966ZM5.74379 26.0374C5.56206 26.0374 5.38778 26.1096 5.25928 26.2381C5.13078 26.3666 5.05859 26.5408 5.05859 26.7226C5.05859 26.9043 5.13078 27.0786 5.25928 27.2071C5.38778 27.3356 5.56206 27.4078 5.74379 27.4078H18.5566C18.4941 26.9405 18.5662 26.4651 18.7645 26.0374H5.74379ZM5.74379 29.4633C5.56206 29.4633 5.38778 29.5355 5.25928 29.664C5.13078 29.7925 5.05859 29.9668 5.05859 30.1485C5.05859 30.3303 5.13078 30.5045 5.25928 30.633C5.38778 30.7615 5.56206 30.8337 5.74379 30.8337H20.1606C20.0261 30.3898 19.9954 29.921 20.0708 29.4633H5.74379ZM5.74379 32.8893C5.56206 32.8893 5.38778 32.9615 5.25928 33.09C5.13078 33.2185 5.05859 33.3928 5.05859 33.5745C5.05859 33.7562 5.13078 33.9305 5.25928 34.059C5.38778 34.1875 5.56206 34.2597 5.74379 34.2597H20.5724L21.2175 32.8893H5.74379ZM5.74379 36.3153C5.56206 36.3153 5.38778 36.3875 5.25928 36.516C5.13078 36.6445 5.05859 36.8187 5.05859 37.0005C5.05859 37.1822 5.13078 37.3565 5.25928 37.485C5.38778 37.6135 5.56206 37.6857 5.74379 37.6857H20.0242C19.7632 37.2795 19.6536 36.7942 19.7149 36.3153H5.74379Z" fill="#829D9E"/>
<path d="M23.714 11.6483H5.74379C5.56206 11.6483 5.38778 11.7205 5.25928 11.849C5.13078 11.9775 5.05859 12.1518 5.05859 12.3335C5.05859 12.5152 5.13078 12.6895 5.25928 12.818C5.38778 12.9465 5.56206 13.0187 5.74379 13.0187H23.714C23.8957 13.0187 24.07 12.9465 24.1985 12.818C24.327 12.6895 24.3992 12.5152 24.3992 12.3335C24.3992 12.1518 24.327 11.9775 24.1985 11.849C24.07 11.7205 23.8957 11.6483 23.714 11.6483ZM5.74379 40.4264H23.714C23.8957 40.4264 24.07 40.3543 24.1985 40.2258C24.327 40.0973 24.3992 39.923 24.3992 39.7413C24.3992 39.5595 24.327 39.3852 24.1985 39.2567C24.07 39.1282 23.8957 39.0561 23.714 39.0561H5.74379C5.56206 39.0561 5.38778 39.1282 5.25928 39.2567C5.13078 39.3852 5.05859 39.5595 5.05859 39.7413C5.05859 39.923 5.13078 40.0973 5.25928 40.2258C5.38778 40.3543 5.56206 40.4264 5.74379 40.4264ZM23.9727 15.7492C24.103 15.6874 24.2387 15.6374 24.378 15.5998C24.3424 15.4504 24.2576 15.3173 24.1371 15.2219C24.0167 15.1266 23.8676 15.0746 23.714 15.0743H5.74379C5.56206 15.0743 5.38778 15.1465 5.25928 15.275C5.13078 15.4035 5.05859 15.5778 5.05859 15.7595C5.05859 15.9412 5.13078 16.1155 5.25928 16.244C5.38778 16.3725 5.56206 16.4447 5.74379 16.4447H23.108C23.3384 16.1489 23.6344 15.9109 23.9727 15.7492Z" fill="white"/>
<path d="M17.6848 0H3.08337C1.18196 0 0 1.18196 0 3.08337V21.9262C0 22.1079 0.07219 22.2822 0.200689 22.4107C0.329187 22.5392 0.503469 22.6114 0.685193 22.6114C0.866918 22.6114 1.0412 22.5392 1.1697 22.4107C1.2982 22.2822 1.37039 22.1079 1.37039 21.9262V3.08337C1.37039 1.94595 1.94595 1.37039 3.08337 1.37039H16.4515V6.14619C16.4489 7.0563 16.8075 7.93027 17.4485 8.57638C18.0894 9.22249 18.9605 9.58799 19.8706 9.59271H28.0929V14.7522C28.1723 14.7401 28.2524 14.7333 28.3327 14.7317C28.7255 14.7296 29.1131 14.8212 29.4633 14.9989V8.20862L17.6848 0ZM19.8706 8.22232C19.3238 8.21816 18.801 7.99721 18.4169 7.60798C18.0328 7.21874 17.8188 6.69302 17.8219 6.14619V1.76437L27.0857 8.22232H19.8706Z" fill="#2D4356"/>
<path d="M27.0842 8.22223H19.8691C19.3222 8.21807 18.7994 7.99712 18.4153 7.60789C18.0312 7.21865 17.8172 6.69293 17.8203 6.1461V1.76428L27.0842 8.22223Z" fill="#E1EBF4"/>
<path d="M28.0926 35.4375V40.769C28.0926 41.9057 27.516 42.482 26.3786 42.482H3.08269C1.94698 42.482 1.37039 41.9057 1.37039 40.769V27.4077C1.37039 27.226 1.2982 27.0517 1.1697 26.9232C1.0412 26.7947 0.866918 26.7225 0.685194 26.7225C0.503469 26.7225 0.329187 26.7947 0.200689 26.9232C0.07219 27.0517 0 27.226 0 27.4077V40.769C0 42.6708 1.18093 43.8524 3.08269 43.8524H26.3786C28.2807 43.8524 29.4626 42.6708 29.4626 40.769V36.9357L28.4348 34.6883L28.0926 35.4375Z" fill="#2D4356"/>
<path d="M36.3173 24.9685C36.2054 24.8497 36.1012 24.7238 36.0055 24.5916C36.0995 24.4567 36.2013 24.3274 36.3105 24.2045C36.6565 23.8002 37.0882 23.2932 36.934 22.6731C36.7867 22.0632 36.1734 21.8029 35.6835 21.5973C35.525 21.5338 35.3705 21.4606 35.221 21.378C35.2469 21.221 35.2812 21.0655 35.3238 20.9121C35.4574 20.3914 35.6218 19.7473 35.2107 19.2505C35.0543 19.0924 34.8646 18.9713 34.6553 18.896C34.4461 18.8208 34.2226 18.7932 34.0014 18.8154C33.8814 18.8154 33.7547 18.8188 33.6314 18.8257C33.4499 18.8358 33.268 18.8346 33.0866 18.8223C33.0315 18.6588 32.988 18.4917 32.9564 18.3221C32.8502 17.8082 32.7166 17.1744 32.1445 16.9106C31.9965 16.8415 31.835 16.8064 31.6717 16.8078C31.2571 16.8423 30.8573 16.9775 30.5069 17.2018C30.3558 17.2835 30.2002 17.3567 30.0409 17.421C29.9208 17.297 29.8087 17.1654 29.7052 17.0271C29.3832 16.6159 28.9857 16.1021 28.3485 16.1021C27.7147 16.1089 27.3207 16.6365 27.0055 17.0579C26.9067 17.197 26.7991 17.3298 26.6835 17.4553C26.5206 17.3943 26.3616 17.3233 26.2073 17.2429C25.8607 17.033 25.4702 16.9064 25.0664 16.8729C24.8958 16.8714 24.7271 16.9089 24.5731 16.9825C24.001 17.26 23.8811 17.9007 23.7817 18.418C23.7552 18.5837 23.7174 18.7474 23.6686 18.9079C23.58 18.9186 23.4907 18.9231 23.4014 18.9216C23.3226 18.9216 22.98 18.9113 22.8909 18.9113C22.5826 18.9113 21.9351 18.9113 21.5548 19.3876C21.1506 19.898 21.3287 20.5387 21.4726 21.056C21.5189 21.2065 21.5555 21.3599 21.5822 21.5151C21.4345 21.6018 21.2811 21.6785 21.1231 21.7446C20.6367 21.9605 20.0337 22.2277 19.8967 22.8444C19.7596 23.4679 20.2016 23.9646 20.5579 24.3655C20.6687 24.4842 20.7717 24.6101 20.8662 24.7423C20.7735 24.8773 20.6728 25.0066 20.5647 25.1295C20.2187 25.5337 19.787 26.0408 19.9378 26.6609C20.0885 27.2707 20.6983 27.5311 21.1882 27.7366C21.3471 27.7995 21.5016 27.8727 21.6507 27.9559C21.6265 28.1133 21.5922 28.2689 21.548 28.4218C21.4144 28.9391 21.2499 29.5832 21.6645 30.0834C21.8207 30.2417 22.0104 30.363 22.2197 30.4383C22.429 30.5136 22.6525 30.541 22.8738 30.5185C22.9937 30.5185 23.1171 30.5151 23.2438 30.5082C23.3432 30.5048 23.446 30.5014 23.5385 30.5048L21.1369 35.6027C21.0783 35.7267 21.0583 35.8655 21.0796 36.0011C21.1009 36.1366 21.1625 36.2626 21.2563 36.3627C21.3501 36.4628 21.4719 36.5324 21.6058 36.5624C21.7396 36.5925 21.8795 36.5815 22.007 36.5311L23.7851 35.8356L24.3059 37.5452C24.3478 37.6773 24.4283 37.7939 24.5369 37.88C24.6456 37.966 24.7775 38.0177 24.9157 38.0282H24.9637C25.0947 38.0283 25.2229 37.9905 25.3329 37.9194C25.4429 37.8483 25.53 37.7469 25.5838 37.6274L27.7353 32.9304C27.9509 33.1194 28.2263 33.2261 28.513 33.2319H28.5267C28.761 33.2273 28.9883 33.1508 29.1776 33.0126L31.288 37.6274C31.3424 37.7471 31.4302 37.8485 31.5408 37.9196C31.6513 37.9907 31.7801 38.0284 31.9115 38.0282H31.9561C32.0946 38.0187 32.227 37.9675 32.3359 37.8813C32.4447 37.795 32.5249 37.6779 32.5659 37.5452L33.0901 35.8356L34.8681 36.5311C34.9957 36.5815 35.1355 36.5925 35.2694 36.5624C35.4033 36.5324 35.5251 36.4628 35.6189 36.3627C35.7127 36.2626 35.7743 36.1366 35.7956 36.0011C35.8169 35.8655 35.7969 35.7267 35.7383 35.6027L33.2956 30.4192C33.3401 30.4157 33.3984 30.4123 33.4738 30.4123C33.5526 30.4123 33.6314 30.4157 33.7102 30.4157C33.8027 30.4192 33.8917 30.4226 33.9842 30.4226C34.2926 30.4226 34.9366 30.4226 35.3204 29.943C35.7246 29.4359 35.543 28.7953 35.3992 28.2779C35.3528 28.1274 35.3162 27.9741 35.2895 27.8189C35.4384 27.7322 35.5929 27.6555 35.752 27.5893C36.2351 27.3735 36.8415 27.1063 36.9751 26.4896C37.1156 25.8661 36.6736 25.3693 36.3173 24.9685ZM25.0904 35.4177L24.878 34.7256C24.8506 34.6356 24.8047 34.5523 24.7434 34.4809C24.6821 34.4096 24.6066 34.3517 24.5217 34.3111C24.4285 34.267 24.3268 34.2436 24.2236 34.2425C24.1379 34.2412 24.0527 34.2575 23.9736 34.2905L23.1102 34.6263L24.3093 32.0808C24.4177 32.2282 24.5614 32.346 24.7273 32.4234C24.8766 32.4921 25.0391 32.5271 25.2035 32.5261C25.617 32.4916 26.0157 32.3564 26.3649 32.1322C26.4471 32.091 26.5567 32.0328 26.6595 31.9848L25.0904 35.4177ZM33.765 34.6263L32.9016 34.2905C32.8139 34.256 32.7201 34.24 32.6259 34.2434C32.5317 34.2469 32.4393 34.2697 32.3544 34.3106C32.2695 34.3514 32.1939 34.4094 32.1324 34.4808C32.071 34.5522 32.0249 34.6356 31.9972 34.7256L31.7848 35.4177L30.1746 31.8958L30.1917 31.8786C30.3541 31.9383 30.512 32.0093 30.6645 32.091C31.0123 32.3009 31.4039 32.4276 31.8087 32.461C31.9793 32.4622 32.148 32.4247 32.3021 32.3514C32.4097 32.2979 32.5071 32.2261 32.5899 32.139L33.765 34.6263ZM35.1936 26.3388C34.7516 26.5341 34.2549 26.7568 34.0322 27.2193C33.8095 27.6818 33.9534 28.1957 34.0802 28.6479C34.111 28.7576 34.1555 28.922 34.1795 29.0454C34.0836 29.0522 33.9089 29.0522 33.741 29.0454C33.2442 29.0351 32.7372 29.0214 32.3398 29.3366C31.9321 29.662 31.8327 30.1931 31.7471 30.6624C31.7231 30.772 31.6957 30.9262 31.6648 31.0461C31.533 30.9917 31.4038 30.9311 31.2777 30.8645C30.9319 30.6562 30.5426 30.5308 30.1403 30.498C30.0515 30.4979 29.9629 30.5082 29.8765 30.5288C29.3729 30.6453 29.0543 31.077 28.7699 31.4572C28.698 31.5497 28.5952 31.6868 28.5095 31.7827C28.4239 31.6902 28.3211 31.5566 28.2457 31.4641C27.9545 31.0872 27.6256 30.6624 27.1186 30.5562C27.0398 30.5396 26.9593 30.5315 26.8788 30.5322C26.4705 30.5665 26.0767 30.6993 25.7311 30.9194C25.6214 30.9776 25.4638 31.0598 25.3439 31.1078C25.3131 30.9913 25.2788 30.8406 25.2583 30.7309C25.1589 30.2616 25.0459 29.7305 24.6313 29.4119C24.314 29.204 23.9375 29.1053 23.559 29.131C23.4391 29.131 23.3123 29.1344 23.1856 29.1413C23.0451 29.1447 22.8909 29.1516 22.7882 29.1481C22.8087 29.0248 22.8498 28.8741 22.8772 28.7644C22.9937 28.3088 23.1273 27.7915 22.8978 27.3324C22.6648 26.8733 22.1646 26.6609 21.7227 26.4759C21.6199 26.4313 21.476 26.3697 21.363 26.3149C21.4383 26.2155 21.5377 26.099 21.6062 26.0168C21.918 25.6536 22.2674 25.2425 22.2606 24.7252C22.2571 24.2147 21.8974 23.8105 21.5822 23.4542C21.5069 23.372 21.4041 23.2589 21.3287 23.1595C21.4383 23.1013 21.5822 23.0396 21.6816 22.9951C22.1201 22.7998 22.6169 22.5771 22.843 22.1146C23.0622 21.6521 22.9184 21.1382 22.795 20.686C22.7608 20.5764 22.7162 20.4119 22.6922 20.2886C22.7882 20.2817 22.9663 20.2817 23.1308 20.2852C23.631 20.2954 24.1346 20.3126 24.532 19.9939C24.9397 19.6719 25.039 19.1409 25.1281 18.6715C25.1487 18.5619 25.1795 18.4077 25.2103 18.2878C25.3302 18.3358 25.4878 18.4146 25.5975 18.4694C25.9425 18.6767 26.3304 18.8021 26.7315 18.836C26.8214 18.8363 26.9111 18.8259 26.9987 18.8051C27.4989 18.6887 27.8209 18.257 28.1053 17.8801C28.1738 17.7842 28.28 17.6472 28.3622 17.5512C28.4479 17.6437 28.5541 17.7773 28.626 17.8698C28.9172 18.2467 29.2495 18.6681 29.7532 18.7777C29.8332 18.7944 29.9147 18.8024 29.9964 18.8017C30.4042 18.7653 30.7976 18.6326 31.1441 18.4146C31.2503 18.3563 31.4079 18.2741 31.5278 18.2227C31.5621 18.3392 31.5929 18.4934 31.6169 18.603C31.7162 19.0689 31.8259 19.6034 32.2438 19.922C32.5599 20.1299 32.9353 20.2286 33.3127 20.2029C33.4326 20.2029 33.5594 20.1995 33.6862 20.1927C33.8266 20.1892 33.9842 20.1824 34.087 20.1858C34.063 20.3091 34.0253 20.4599 33.9979 20.5695C33.878 21.0252 33.7478 21.5425 33.9774 22.0016C34.2069 22.4606 34.7105 22.6696 35.1491 22.8581C35.2518 22.9026 35.3992 22.9608 35.5088 23.0191C35.4368 23.1184 35.3375 23.2349 35.2655 23.3171C34.9572 23.6803 34.6078 24.0914 34.6112 24.6087C34.618 25.1192 34.9743 25.5235 35.2929 25.8798C35.3649 25.962 35.4677 26.075 35.543 26.1744C35.4334 26.2326 35.2929 26.2943 35.1936 26.3388Z" fill="#2D4356"/>
<path d="M26.6589 31.985L25.0898 35.4178L24.8774 34.7258C24.85 34.6358 24.8041 34.5524 24.7428 34.4811C24.6815 34.4097 24.606 34.3519 24.5211 34.3112C24.4279 34.2671 24.3262 34.2437 24.2231 34.2427C24.1373 34.2414 24.0522 34.2577 23.973 34.2907L23.1096 34.6264L24.3087 32.0809C24.4171 32.2284 24.5608 32.3462 24.7267 32.4235C24.876 32.4922 25.0385 32.5273 25.2029 32.5263C25.6164 32.4918 26.0152 32.3565 26.3643 32.1323C26.4465 32.0912 26.5562 32.033 26.6589 31.985ZM33.7644 34.6264L32.901 34.2907C32.8134 34.2561 32.7195 34.2401 32.6253 34.2436C32.5312 34.247 32.4387 34.2699 32.3538 34.3107C32.2689 34.3516 32.1933 34.4095 32.1319 34.481C32.0704 34.5524 32.0243 34.6357 31.9966 34.7258L31.7842 35.4178L30.174 31.8959L30.1911 31.8788C30.3535 31.9384 30.5115 32.0094 30.6639 32.0912C31.0117 32.3011 31.4033 32.4277 31.8082 32.4612C31.9788 32.4623 32.1474 32.4248 32.3015 32.3516C32.4091 32.2981 32.5065 32.2262 32.5893 32.1392L33.7644 34.6264ZM35.5425 26.1746C35.4328 26.2328 35.2924 26.2945 35.193 26.339C34.7511 26.5343 34.2543 26.757 34.0316 27.2195C33.8089 27.682 33.9528 28.1959 34.0796 28.6481C34.1104 28.7577 34.1549 28.9222 34.1789 29.0455C34.083 29.0524 33.9083 29.0524 33.7404 29.0455C33.2436 29.0352 32.7366 29.0215 32.3392 29.3367C31.9315 29.6622 31.8321 30.1932 31.7465 30.6626C31.7225 30.7722 31.6951 30.9264 31.6643 31.0463C31.5324 30.9919 31.4032 30.9313 31.2771 30.8647C30.9314 30.6564 30.5421 30.5309 30.1397 30.4981C30.0509 30.498 29.9623 30.5084 29.8759 30.529C29.3723 30.6454 29.0537 31.0771 28.7693 31.4574C28.6974 31.5499 28.5946 31.6869 28.509 31.7829C28.4233 31.6904 28.3205 31.5567 28.2452 31.4642C27.9539 31.0874 27.6251 30.6626 27.118 30.5564C27.0392 30.5397 26.9588 30.5317 26.8782 30.5324C26.4699 30.5666 26.0761 30.6995 25.7305 30.9195C25.6209 30.9778 25.4633 31.06 25.3434 31.1079C25.3125 30.9915 25.2783 30.8407 25.2577 30.7311C25.1584 30.2617 25.0453 29.7307 24.6308 29.4121C24.3135 29.2041 23.9369 29.1055 23.5584 29.1312C23.4385 29.1312 23.3118 29.1346 23.185 29.1414C23.0445 29.1449 22.8904 29.1517 22.7876 29.1483C22.8081 29.025 22.8493 28.8742 22.8767 28.7646C22.9931 28.3089 23.1268 27.7916 22.8972 27.3325C22.6643 26.8734 22.1641 26.661 21.7221 26.476C21.6193 26.4315 21.4754 26.3698 21.3624 26.315C21.4378 26.2157 21.5371 26.0992 21.6056 26.017C21.9174 25.6538 22.2668 25.2427 22.26 24.7254C22.2566 24.2149 21.8968 23.8106 21.5816 23.4543C21.5063 23.3721 21.4035 23.2591 21.3281 23.1597C21.4378 23.1015 21.5816 23.0398 21.681 22.9953C22.1195 22.8 22.6163 22.5773 22.8424 22.1148C23.0617 21.6523 22.9178 21.1384 22.7944 20.6862C22.7602 20.5765 22.7156 20.4121 22.6917 20.2887C22.7876 20.2819 22.9657 20.2819 23.1302 20.2853C23.6304 20.2956 24.134 20.3127 24.5314 19.9941C24.9391 19.6721 25.0384 19.141 25.1275 18.6717C25.1481 18.5621 25.1789 18.4079 25.2097 18.288C25.3297 18.3359 25.4872 18.4147 25.5969 18.4696C25.9419 18.6768 26.3298 18.8022 26.7309 18.8361C26.8209 18.8364 26.9106 18.8261 26.9981 18.8053C27.4983 18.6888 27.8203 18.2571 28.1047 17.8803C28.1732 17.7844 28.2794 17.6473 28.3616 17.5514C28.4473 17.6439 28.5535 17.7775 28.6254 17.87C28.9166 18.2469 29.249 18.6683 29.7526 18.7779C29.8326 18.7945 29.9141 18.8025 29.9958 18.8019C30.4036 18.7655 30.797 18.6328 31.1435 18.4147C31.2497 18.3565 31.4073 18.2743 31.5272 18.2229C31.5615 18.3394 31.5923 18.4935 31.6163 18.6032C31.7157 19.0691 31.8253 19.6035 32.2433 19.9222C32.5593 20.1301 32.9347 20.2287 33.3122 20.2031C33.4321 20.2031 33.5588 20.1997 33.6856 20.1928C33.8261 20.1894 33.9836 20.1825 34.0864 20.186C34.0624 20.3093 34.0248 20.46 33.9974 20.5697C33.8774 21.0253 33.7473 21.5426 33.9768 22.0017C34.2063 22.4608 34.71 22.6698 35.1485 22.8582C35.2513 22.9028 35.3986 22.961 35.5082 23.0192C35.4363 23.1186 35.3369 23.2351 35.265 23.3173C34.9566 23.6804 34.6072 24.0916 34.6106 24.6089C34.6175 25.1194 34.9738 25.5236 35.2924 25.8799C35.3643 25.9621 35.4671 26.0752 35.5425 26.1746Z" fill="#FC785E"/>
<path d="M28.4354 20.5558C27.6223 20.5558 26.8274 20.7969 26.1513 21.2486C25.4753 21.7004 24.9483 22.3425 24.6372 23.0937C24.326 23.8449 24.2446 24.6715 24.4032 25.469C24.5618 26.2665 24.9534 26.999 25.5284 27.574C26.1033 28.1489 26.8358 28.5405 27.6333 28.6991C28.4308 28.8577 29.2574 28.7763 30.0087 28.4652C30.7599 28.154 31.4019 27.6271 31.8537 26.951C32.3054 26.2749 32.5465 25.4801 32.5465 24.6669C32.5456 23.5769 32.1122 22.5317 31.3414 21.7609C30.5706 20.9901 29.5255 20.5567 28.4354 20.5558ZM28.4354 27.4077C27.8933 27.4077 27.3634 27.247 26.9127 26.9458C26.462 26.6447 26.1107 26.2166 25.9032 25.7158C25.6958 25.215 25.6415 24.6639 25.7473 24.1322C25.853 23.6006 26.1141 23.1122 26.4974 22.7289C26.8807 22.3456 27.369 22.0846 27.9007 21.9788C28.4323 21.8731 28.9834 21.9274 29.4842 22.1348C29.985 22.3422 30.4131 22.6935 30.7143 23.1443C31.0154 23.595 31.1762 24.1249 31.1762 24.6669C31.1752 25.3936 30.8862 26.0902 30.3724 26.604C29.8586 27.1178 29.162 27.4068 28.4354 27.4077Z" fill="#2D4356"/>
<path d="M31.1769 24.6669C31.1769 25.209 31.0161 25.7389 30.715 26.1896C30.4138 26.6403 29.9857 26.9916 29.4849 27.1991C28.9841 27.4065 28.433 27.4608 27.9014 27.355C27.3697 27.2493 26.8814 26.9882 26.4981 26.6049C26.1148 26.2216 25.8537 25.7333 25.748 25.2016C25.6422 24.67 25.6965 24.1189 25.9039 23.6181C26.1114 23.1173 26.4627 22.6892 26.9134 22.3881C27.3641 22.0869 27.894 21.9261 28.4361 21.9261C29.1627 21.9271 29.8593 22.2161 30.3731 22.7299C30.8869 23.2437 31.176 23.9403 31.1769 24.6669Z" fill="#E1EBF4"/>
<path d="M0.685193 25.3522C1.06362 25.3522 1.37039 25.0454 1.37039 24.667C1.37039 24.2886 1.06362 23.9818 0.685193 23.9818C0.306772 23.9818 0 24.2886 0 24.667C0 25.0454 0.306772 25.3522 0.685193 25.3522Z" fill="#2D4356"/>
<path d="M20.4796 18.5338C20.4898 18.5215 20.5008 18.5122 20.5107 18.5002H5.74379C5.56206 18.5002 5.38778 18.5724 5.25928 18.7009C5.13078 18.8294 5.05859 19.0037 5.05859 19.1854C5.05859 19.3672 5.13078 19.5414 5.25928 19.6699C5.38778 19.7984 5.56206 19.8706 5.74379 19.8706H19.9516C19.9895 19.3822 20.1735 18.9164 20.4796 18.5338ZM5.05859 22.6114C5.05855 22.7014 5.07624 22.7905 5.11066 22.8737C5.14508 22.9568 5.19555 23.0324 5.25918 23.096C5.32282 23.1596 5.39837 23.2101 5.48152 23.2445C5.56467 23.279 5.65379 23.2966 5.74379 23.2966H18.5069C18.464 22.8228 18.5596 22.3468 18.782 21.9262H5.74379C5.65379 21.9262 5.56467 21.9439 5.48152 21.9783C5.39837 22.0127 5.32282 22.0632 5.25918 22.1268C5.19555 22.1904 5.14508 22.266 5.11066 22.3491C5.07624 22.4323 5.05855 22.5214 5.05859 22.6114ZM5.74379 25.3522C5.56206 25.3522 5.38778 25.4244 5.25928 25.5529C5.13078 25.6814 5.05859 25.8556 5.05859 26.0374C5.05859 26.2191 5.13078 26.3934 5.25928 26.5219C5.38778 26.6504 5.56206 26.7226 5.74379 26.7226H18.5566C18.4941 26.2553 18.5662 25.7799 18.7645 25.3522H5.74379ZM5.74379 28.7781C5.56206 28.7781 5.38778 28.8503 5.25928 28.9788C5.13078 29.1073 5.05859 29.2816 5.05859 29.4633C5.05859 29.6451 5.13078 29.8193 5.25928 29.9478C5.38778 30.0763 5.56206 30.1485 5.74379 30.1485H20.1606C20.0261 29.7046 19.9954 29.2358 20.0708 28.7781H5.74379ZM5.74379 32.2041C5.56206 32.2041 5.38778 32.2763 5.25928 32.4048C5.13078 32.5333 5.05859 32.7076 5.05859 32.8893C5.05859 33.071 5.13078 33.2453 5.25928 33.3738C5.38778 33.5023 5.56206 33.5745 5.74379 33.5745H20.5724L21.2175 32.2041H5.74379ZM5.74379 35.6301C5.56206 35.6301 5.38778 35.7023 5.25928 35.8308C5.13078 35.9593 5.05859 36.1336 5.05859 36.3153C5.05859 36.497 5.13078 36.6713 5.25928 36.7998C5.38778 36.9283 5.56206 37.0005 5.74379 37.0005H20.0242C19.7632 36.5943 19.6536 36.109 19.7149 35.6301H5.74379Z" fill="white"/>
<path opacity="0.5" d="M28.0936 40.0839V40.7691C28.0936 41.9065 27.5181 42.482 26.3807 42.482H3.08408C1.94666 42.482 1.37109 41.9065 1.37109 40.7691V40.0839C1.37109 41.2213 1.94666 41.7968 3.08408 41.7968H26.3807C27.5181 41.7968 28.0936 41.2213 28.0936 40.0839Z" fill="#829D9E"/>
<path opacity="0.5" d="M27.0842 8.22227H19.8691C19.3222 8.2181 18.7994 7.99716 18.4153 7.60792C18.0312 7.21869 17.8172 6.69296 17.8203 6.14613V5.46094C17.8172 6.00777 18.0312 6.53349 18.4153 6.92273C18.7994 7.31196 19.3222 7.53291 19.8691 7.53707H26.1009L27.0842 8.22227Z" fill="white"/>
<path opacity="0.5" d="M16.4522 1.37036V2.05555H3.08408C1.94666 2.05555 1.37109 2.63112 1.37109 3.76854V3.08335C1.37109 1.94592 1.94666 1.37036 3.08408 1.37036H16.4522Z" fill="#E4EDED"/>
<path opacity="0.5" d="M30.5506 32.0327L31.9107 35.0064L31.784 35.4176L30.1738 31.8957L30.1909 31.8785C30.3137 31.9201 30.4328 31.9717 30.5472 32.0327H30.5506ZM26.6587 31.9847L25.0896 35.4176L24.9766 35.0441L26.251 32.1903C26.2887 32.1732 26.3264 32.1526 26.3641 32.1321C26.4463 32.0909 26.5559 32.0327 26.6587 31.9847Z" fill="#A54B3F"/>
<path opacity="0.3" d="M34.0862 20.186C34.0622 20.3093 34.0245 20.46 33.9971 20.5697C33.9697 20.669 33.9423 20.7718 33.9217 20.8746C33.8464 20.8746 33.7641 20.8746 33.6853 20.878C33.5586 20.8849 33.4318 20.8883 33.3119 20.8883C32.9345 20.9139 32.559 20.8153 32.243 20.6074C31.825 20.2887 31.7154 19.7543 31.616 19.2884C31.5921 19.1787 31.5612 19.0246 31.527 18.9081C31.4071 18.9595 31.2495 19.0417 31.1433 19.0999C30.7967 19.318 30.4034 19.4507 29.9956 19.4871C29.9139 19.4877 29.8323 19.4797 29.7523 19.4631C29.2487 19.3535 28.9164 18.9321 28.6252 18.5552C28.5532 18.4627 28.447 18.3291 28.3614 18.2366C28.2792 18.3325 28.173 18.4696 28.1044 18.5655C27.8201 18.9423 27.498 19.374 26.9978 19.4905C26.9103 19.5113 26.8206 19.5216 26.7306 19.5213C26.3296 19.4874 25.9416 19.362 25.5966 19.1547C25.487 19.0999 25.3294 19.0211 25.2095 18.9732C25.1787 19.0931 25.1478 19.2472 25.1273 19.3569C25.0382 19.8262 24.9388 20.3573 24.5311 20.6793C24.1337 20.9979 23.6301 20.9808 23.1299 20.9705C23.0409 20.9671 22.9518 20.9671 22.8696 20.9671C22.8456 20.8712 22.8182 20.7787 22.7942 20.6862C22.7599 20.5765 22.7154 20.4121 22.6914 20.2887C22.7873 20.2819 22.9655 20.2819 23.1299 20.2853C23.6301 20.2956 24.1337 20.3127 24.5311 19.9941C24.9388 19.6721 25.0382 19.141 25.1273 18.6717C25.1478 18.5621 25.1787 18.4079 25.2095 18.288C25.3294 18.3359 25.487 18.4147 25.5966 18.4696C25.9416 18.6768 26.3296 18.8022 26.7306 18.8361C26.8206 18.8364 26.9103 18.8261 26.9978 18.8053C27.498 18.6888 27.8201 18.2571 28.1044 17.8803C28.173 17.7844 28.2792 17.6473 28.3614 17.5514C28.447 17.6439 28.5532 17.7775 28.6252 17.87C28.9164 18.2469 29.2487 18.6683 29.7523 18.7779C29.8323 18.7945 29.9139 18.8025 29.9956 18.8019C30.4034 18.7655 30.7967 18.6328 31.1433 18.4147C31.2495 18.3565 31.4071 18.2743 31.527 18.2229C31.5612 18.3394 31.5921 18.4935 31.616 18.6032C31.7154 19.0691 31.825 19.6035 32.243 19.9222C32.559 20.1301 32.9345 20.2287 33.3119 20.2031C33.4318 20.2031 33.5586 20.1997 33.6853 20.1928C33.8258 20.1894 33.9834 20.1825 34.0862 20.186Z" fill="#F9DBD7"/>
<path opacity="0.5" d="M34.1765 29.0453C34.0806 29.0522 33.9058 29.0522 33.738 29.0453C33.2412 29.0351 32.7342 29.0214 32.3368 29.3366C31.9291 29.662 31.8297 30.193 31.7441 30.6624C31.7201 30.772 31.6927 30.9262 31.6618 31.0461C31.53 30.9917 31.4008 30.9311 31.2747 30.8645C30.9289 30.6562 30.5396 30.5307 30.1373 30.498C30.0484 30.4979 29.9599 30.5082 29.8735 30.5288C29.3699 30.6453 29.0513 31.0769 28.7669 31.4572C28.695 31.5497 28.5922 31.6868 28.5065 31.7827C28.4209 31.6902 28.3181 31.5566 28.2427 31.4641C27.9515 31.0872 27.6226 30.6624 27.1156 30.5562C27.0367 30.5396 26.9563 30.5315 26.8758 30.5322C26.4675 30.5665 26.0737 30.6993 25.7281 30.9194C25.6184 30.9776 25.4608 31.0598 25.3409 31.1078C25.3101 30.9913 25.2758 30.8406 25.2553 30.7309C25.1559 30.2616 25.0429 29.7305 24.6283 29.4119C24.311 29.204 23.9345 29.1053 23.556 29.131C23.4361 29.131 23.3093 29.1344 23.1826 29.1413C23.0421 29.1447 22.8879 29.1516 22.7852 29.1481C22.8057 29.0248 22.8468 28.874 22.8742 28.7644C22.8982 28.6651 22.9256 28.5657 22.9462 28.4629C23.0215 28.4595 23.1038 28.4595 23.1826 28.4561C23.3093 28.4492 23.4361 28.4458 23.556 28.4458C23.9345 28.4201 24.311 28.5188 24.6283 28.7267C25.0429 29.0453 25.1559 29.5764 25.2553 30.0457C25.2758 30.1554 25.3101 30.3061 25.3409 30.4226C25.4608 30.3746 25.6184 30.2924 25.7281 30.2342C26.0737 30.0141 26.4675 29.8813 26.8758 29.847C26.9563 29.8463 27.0367 29.8544 27.1156 29.871C27.6226 29.9772 27.9515 30.402 28.2427 30.7789C28.3181 30.8714 28.4209 31.005 28.5065 31.0975C28.5922 31.0016 28.695 30.8645 28.7669 30.772C29.0513 30.3918 29.3699 29.9601 29.8735 29.8436C29.9599 29.823 30.0484 29.8127 30.1373 29.8128C30.5396 29.8456 30.9289 29.971 31.2747 30.1793C31.3809 30.2342 31.5385 30.313 31.6618 30.3609C31.6927 30.241 31.7201 30.0868 31.7441 29.9772C31.8297 29.5079 31.9291 28.9768 32.3368 28.6514C32.7342 28.3362 33.2412 28.3499 33.738 28.3602C33.8271 28.3636 33.9196 28.367 34.0018 28.367C34.0258 28.4629 34.0532 28.5554 34.0771 28.6479C34.108 28.7576 34.1525 28.922 34.1765 29.0453Z" fill="#A54B3F"/>
<path opacity="0.5" d="M31.1769 24.6669C31.1769 24.7814 31.1701 24.8958 31.1563 25.0095C31.0727 24.3471 30.7502 23.7379 30.2494 23.2963C29.7486 22.8547 29.1038 22.6111 28.4361 22.6111C27.7684 22.6111 27.1236 22.8547 26.6228 23.2963C26.122 23.7379 25.7995 24.3471 25.7159 25.0095C25.7021 24.8958 25.6952 24.7814 25.6953 24.6669C25.6953 23.94 25.9841 23.2429 26.4981 22.7289C27.0121 22.2149 27.7092 21.9261 28.4361 21.9261C29.163 21.9261 29.8601 22.2149 30.3741 22.7289C30.8881 23.2429 31.1769 23.94 31.1769 24.6669Z" fill="white"/>
<path opacity="0.5" d="M31.1769 24.6669C31.1769 25.3938 30.8881 26.091 30.3741 26.605C29.8601 27.119 29.163 27.4077 28.4361 27.4077C27.7092 27.4077 27.0121 27.119 26.4981 26.605C25.9841 26.091 25.6953 25.3938 25.6953 24.6669C25.6952 24.5524 25.7021 24.438 25.7159 24.3243C25.7995 24.9868 26.122 25.596 26.6228 26.0375C27.1236 26.4791 27.7684 26.7228 28.4361 26.7228C29.1038 26.7228 29.7486 26.4791 30.2494 26.0375C30.7502 25.596 31.0727 24.9868 31.1563 24.3243C31.1701 24.438 31.1769 24.5524 31.1769 24.6669Z" fill="white"/>
</svg>
