<svg width="55" height="55" viewBox="0 0 55 55" fill="none" xmlns="http://www.w3.org/2000/svg">
<path d="M55 15.1724V41.7241C53.7328 41.7224 52.4666 41.6528 51.2069 41.5155V33.1896H46.4655C46.214 33.1896 45.9728 33.2895 45.795 33.4674C45.6171 33.6452 45.5172 33.8864 45.5172 34.1379V40.4819C45.0716 40.387 44.6448 40.2922 44.2276 40.2069C42.7769 39.9368 41.3031 39.8098 39.8276 39.8276C38.5581 39.8143 37.2897 39.9031 36.0345 40.0931C34.1569 40.406 32.9621 40.9086 31.2931 41.2784C30.0442 41.5346 28.7746 41.6774 27.5 41.7051C26.2254 41.6774 24.9558 41.5346 23.7069 41.2784C22.0379 40.9086 20.8431 40.406 18.9655 40.0931C17.7103 39.9031 16.4419 39.8143 15.1724 39.8276C13.6969 39.8098 12.2231 39.9368 10.7724 40.2069C7.2521 41.1262 3.63728 41.6353 0 41.7241V15.1724C1.26815 15.1749 2.53514 15.0958 3.7931 14.9353V21.8103H8.53448C8.78598 21.8103 9.02718 21.7104 9.20502 21.5326C9.38285 21.3547 9.48276 21.1135 9.48276 20.862V13.8448C10.8375 13.5732 12.2095 13.3958 13.5888 13.3138C14.0724 13.2948 14.594 13.2758 15.1724 13.2758C16.4419 13.2626 17.7103 13.3514 18.9655 13.5413C20.8431 13.8543 22.0379 14.3569 23.7069 14.7267C24.9558 14.9829 26.2254 15.1257 27.5 15.1534C28.7746 15.1257 30.0442 14.9829 31.2931 14.7267C32.9621 14.3569 34.1569 13.8543 36.0345 13.5413C37.2897 13.3514 38.5581 13.2626 39.8276 13.2758C40.406 13.2758 40.9276 13.2948 41.4112 13.3138C46.5129 13.5888 48.9405 15.1724 55 15.1724Z" fill="#89C053"/>
<path d="M51.2068 21.8387V33.1895H46.4654C46.2139 33.1895 45.9727 33.2894 45.7948 33.4673C45.617 33.6451 45.5171 33.8863 45.5171 34.1378V36.48C43.6343 36.2664 41.7413 36.1556 39.8464 36.1481C37.2497 36.0981 34.6621 36.4696 32.1843 37.2481C31.8904 37.3335 31.6154 37.4094 31.3309 37.4852C31.2076 37.5231 31.0749 37.5611 30.9516 37.5895C30.54 37.6874 30.1215 37.754 29.6999 37.7887C29.1688 37.8361 28.3912 37.9025 27.5473 37.9309C26.7033 37.9025 25.9257 37.8361 25.3947 37.7887C24.973 37.754 24.5546 37.6874 24.143 37.5895C24.0197 37.5611 23.8869 37.5231 23.7637 37.4852C23.4792 37.4094 23.2042 37.3335 22.9102 37.2481C20.4325 36.4696 17.8448 36.0981 15.2481 36.1481C12.3525 36.1302 9.4622 36.397 6.61883 36.9447C6.58821 36.2164 6.27687 35.5282 5.75007 35.0244C5.22327 34.5206 4.5219 34.2402 3.79297 34.2421V21.8387C3.91679 21.8386 4.04043 21.8291 4.1628 21.8102H8.53435C8.78585 21.8102 9.02704 21.7103 9.20488 21.5325C9.38272 21.3546 9.48262 21.1134 9.48262 20.8619V17.505C11.391 17.217 13.3181 17.0712 15.2481 17.0688C17.1399 17.0162 19.0265 17.2921 20.824 17.8844C21.6869 18.1214 22.6068 18.3869 23.7637 18.5956C24.0576 18.6525 24.38 18.6999 24.7119 18.7473C24.7119 18.7473 26.0111 18.9085 27.5473 18.9559C29.0835 18.9085 30.3826 18.7473 30.3826 18.7473C30.7145 18.6999 31.0369 18.6525 31.3309 18.5956C32.4878 18.3869 33.4076 18.1214 34.2706 17.8844C36.068 17.2921 37.9546 17.0162 39.8464 17.0688C42.3953 17.0411 44.9385 17.3148 47.4231 17.8844C47.793 17.9887 48.0774 18.093 48.4852 18.1973C48.4083 18.4493 48.37 18.7114 48.3714 18.9749C48.3689 19.3493 48.4403 19.7205 48.5816 20.0672C48.7228 20.4139 48.9312 20.7293 49.1946 20.9954C49.458 21.2614 49.7713 21.4729 50.1166 21.6176C50.4619 21.7623 50.8324 21.8374 51.2068 21.8387Z" fill="#B4DF80"/>
<path d="M55 46.4655L48.3621 55L41.7241 46.4655H45.5172V34.1379C45.5172 33.8864 45.6171 33.6452 45.795 33.4674C45.9728 33.2896 46.214 33.1897 46.4655 33.1897H51.2069V46.4655H55ZM13.2759 8.53448H9.48276V20.8621C9.48276 21.1136 9.38285 21.3548 9.20502 21.5326C9.02718 21.7104 8.78598 21.8103 8.53448 21.8103H3.7931V8.53448H0L6.63793 0L13.2759 8.53448Z" fill="#4A88DA"/>
<path d="M40.7745 29.3966C42.3457 29.3966 43.6193 28.1229 43.6193 26.5517C43.6193 24.9806 42.3457 23.7069 40.7745 23.7069C39.2034 23.7069 37.9297 24.9806 37.9297 26.5517C37.9297 28.1229 39.2034 29.3966 40.7745 29.3966Z" fill="#89C053"/>
<path d="M14.2237 29.3966C15.7949 29.3966 17.0686 28.1229 17.0686 26.5517C17.0686 24.9806 15.7949 23.7069 14.2237 23.7069C12.6526 23.7069 11.3789 24.9806 11.3789 26.5517C11.3789 28.1229 12.6526 29.3966 14.2237 29.3966Z" fill="#89C053"/>
<path d="M27.4992 33.1897C30.1178 33.1897 32.2406 31.0669 32.2406 28.4483C32.2406 25.8297 30.1178 23.7069 27.4992 23.7069C24.8806 23.7069 22.7578 25.8297 22.7578 28.4483C22.7578 31.0669 24.8806 33.1897 27.4992 33.1897Z" fill="#89C053"/>
<path d="M7.58499 33.1896C7.3335 33.1896 7.0923 33.0897 6.91446 32.9119C6.73663 32.7341 6.63672 32.4929 6.63672 32.2414V31.2931C6.63672 31.0416 6.73663 30.8004 6.91446 30.6225C7.0923 30.4447 7.3335 30.3448 7.58499 30.3448C7.83649 30.3448 8.07769 30.4447 8.25553 30.6225C8.43336 30.8004 8.53327 31.0416 8.53327 31.2931V32.2414C8.53327 32.4929 8.43336 32.7341 8.25553 32.9119C8.07769 33.0897 7.83649 33.1896 7.58499 33.1896ZM7.58499 28.4483C7.3335 28.4483 7.0923 28.3483 6.91446 28.1705C6.73663 27.9927 6.63672 27.7515 6.63672 27.5V25.6034C6.63672 25.3519 6.73663 25.1107 6.91446 24.9329C7.0923 24.7551 7.3335 24.6552 7.58499 24.6552C7.83649 24.6552 8.07769 24.7551 8.25553 24.9329C8.43336 25.1107 8.53327 25.3519 8.53327 25.6034V27.5C8.53327 27.7515 8.43336 27.9927 8.25553 28.1705C8.07769 28.3483 7.83649 28.4483 7.58499 28.4483Z" fill="#F4F6F8"/>
</svg>
