<svg width="260" height="200" viewBox="0 0 260 200" fill="none" xmlns="http://www.w3.org/2000/svg">
<g clip-path="url(#clip0_340_1445)">
<path d="M174.24 56.3142C179.818 41.3177 192.996 28.3597 208.922 26.8184C199.347 41.3468 195.22 58.7937 197.271 76.0721C198.086 82.7328 199.686 90.0563 196.095 95.7252C193.861 99.2526 189.924 101.424 185.865 102.404C181.806 103.384 177.577 103.308 173.402 103.227L172.468 103.688C169.532 87.9598 168.663 71.3107 174.24 56.3142Z" fill="#F0F0F0"/>
<path d="M208.998 27.1448C198.141 34.7295 189.95 45.5421 185.589 58.0468C184.67 60.7315 183.973 63.5348 183.932 66.3857C183.915 69.1648 184.641 71.898 186.037 74.3013C187.293 76.5683 188.841 78.7416 189.524 81.2745C190.245 83.9444 189.657 86.6452 188.186 88.9519C186.386 91.7741 183.679 93.7812 180.963 95.6519C177.948 97.729 174.784 99.8387 172.939 103.102C172.715 103.497 172.115 103.127 172.338 102.732C175.548 97.0552 182.284 94.9931 186.404 90.171C188.327 87.9208 189.584 85.0776 188.989 82.0814C188.469 79.4614 186.875 77.2188 185.583 74.9344C184.227 72.5358 183.341 70.0465 183.237 67.2713C183.132 64.4325 183.721 61.596 184.567 58.8996C186.529 52.7996 189.439 47.046 193.189 41.8498C197.436 35.8956 202.67 30.7118 208.665 26.5227C209.036 26.2636 209.366 26.8874 208.998 27.1448V27.1448Z" fill="white"/>
<path d="M186.758 53.9382C184.759 52.9216 183.187 51.2276 182.322 49.1588C181.457 47.09 181.355 44.7811 182.035 42.6444C182.174 42.2125 182.852 42.4084 182.713 42.8409C182.076 44.8294 182.17 46.9802 182.98 48.905C183.789 50.8298 185.26 52.4019 187.127 53.3374C187.532 53.5412 187.161 54.1408 186.758 53.9382Z" fill="white"/>
<path d="M185.25 73.2374C189.621 71.8569 193.311 68.8796 195.585 64.8992C195.809 64.5046 196.41 64.8745 196.185 65.2685C193.812 69.4062 189.965 72.4967 185.414 73.9233C184.98 74.059 184.818 73.3723 185.25 73.2374V73.2374Z" fill="white"/>
<path d="M197.92 36.6961C198.611 37.2506 199.429 37.6247 200.301 37.7848C201.173 37.9448 202.071 37.8859 202.914 37.6133C203.346 37.4722 203.507 38.159 203.077 38.2992C202.144 38.5961 201.153 38.66 200.189 38.4852C199.226 38.3105 198.32 37.9025 197.55 37.2968C197.473 37.2458 197.418 37.1673 197.397 37.0772C197.375 36.9871 197.389 36.8922 197.435 36.8118C197.484 36.7325 197.563 36.6759 197.653 36.6542C197.744 36.6325 197.84 36.6476 197.92 36.6961V36.6961Z" fill="white"/>
<path d="M247.305 65.045C247.038 65.1408 246.771 65.2365 246.502 65.3381C242.916 66.6444 239.442 68.24 236.114 70.109C235.854 70.2494 235.593 70.3956 235.338 70.5432C227.369 75.1315 220.32 81.1595 214.551 88.3209C212.258 91.1726 210.185 94.1947 208.351 97.361C205.818 101.734 203.419 106.677 199.698 109.864C199.314 110.2 198.909 110.513 198.486 110.8L173.101 104.793C173.05 104.75 172.998 104.713 172.946 104.671L171.922 104.477C172.005 104.307 172.095 104.133 172.178 103.963C172.226 103.864 172.28 103.767 172.327 103.668C172.361 103.603 172.395 103.537 172.422 103.476C172.433 103.455 172.444 103.433 172.454 103.417C172.481 103.356 172.512 103.302 172.537 103.247C173.037 102.27 173.545 101.296 174.061 100.323C174.062 100.317 174.062 100.317 174.069 100.313C178.017 92.9108 182.617 85.7732 188.154 79.5608C188.32 79.374 188.488 79.1812 188.666 78.9971C191.178 76.2107 193.913 73.6342 196.844 71.2934C198.453 70.0167 200.126 68.8224 201.856 67.7149C206.331 64.862 211.227 62.7307 216.365 61.3993C226.607 58.7466 237.584 59.3991 246.619 64.6379C246.85 64.7721 247.076 64.905 247.305 65.045Z" fill="#F0F0F0"/>
<path d="M247.175 65.354C233.94 64.8734 220.89 68.5753 209.879 75.9337C207.529 77.5245 205.284 79.3427 203.536 81.5947C201.848 83.8029 200.783 86.4227 200.45 89.1819C200.089 91.7484 200.016 94.4155 199.036 96.8493C198.004 99.4147 195.909 101.218 193.346 102.173C190.209 103.343 186.839 103.316 183.545 103.174C179.887 103.018 176.09 102.797 172.652 104.291C172.236 104.472 171.979 103.816 172.395 103.635C178.376 101.034 184.996 103.444 191.189 102.074C194.079 101.435 196.794 99.9217 198.123 97.1714C199.286 94.7665 199.363 92.0162 199.707 89.4145C200.068 86.6826 200.859 84.1615 202.448 81.8834C204.072 79.5531 206.251 77.6433 208.549 75.9994C213.789 72.3105 219.576 69.4685 225.699 67.5773C232.675 65.3802 239.975 64.3926 247.284 64.6572C247.736 64.6738 247.624 65.3705 247.175 65.354L247.175 65.354Z" fill="white"/>
<path d="M213.283 73.3556C212.299 71.3406 212.063 69.0415 212.618 66.8689C213.173 64.6962 214.482 62.7916 216.312 61.4951C216.683 61.234 217.106 61.7984 216.734 62.0598C215.028 63.264 213.809 65.0383 213.297 67.0625C212.784 69.0867 213.012 71.2275 213.939 73.0984C214.14 73.5052 213.482 73.7601 213.283 73.3557V73.3556Z" fill="white"/>
<path d="M200.463 87.857C204.784 89.3864 209.523 89.2308 213.735 87.4214C214.152 87.2418 214.409 87.8986 213.992 88.078C209.606 89.9527 204.674 90.1046 200.181 88.5032C199.753 88.3502 200.037 87.7049 200.463 87.857Z" fill="white"/>
<path d="M232.576 66.3094C232.794 67.1683 233.222 67.9597 233.822 68.6123C234.422 69.2649 235.174 69.7584 236.011 70.0485C236.441 70.1959 236.156 70.8411 235.729 70.6947C234.805 70.3699 233.975 69.8239 233.311 69.1043C232.647 68.3847 232.169 67.5135 231.919 66.5666C231.888 66.4794 231.892 66.3836 231.929 66.2987C231.966 66.2138 232.034 66.1463 232.119 66.1097C232.206 66.0761 232.303 66.0782 232.389 66.1156C232.474 66.153 232.542 66.2226 232.576 66.3094V66.3094Z" fill="white"/>
<path d="M27.1559 193.775C12.6234 187.08 0.697594 172.961 0.363281 156.965C14.1272 167.609 31.2126 173.042 48.5966 172.302C55.2998 171.992 62.7232 170.95 68.1048 174.958C71.4535 177.452 73.3215 181.543 73.9922 185.664C74.6629 189.785 74.2678 193.996 73.8712 198.153L74.2608 199.119C58.3556 200.859 41.6884 200.469 27.1559 193.775Z" fill="#F0F0F0"/>
<path d="M0.694302 156.913C7.43742 168.312 17.6006 177.296 29.7403 182.589C32.348 183.707 35.0906 184.615 37.9303 184.87C40.7001 185.098 43.4804 184.58 45.9822 183.37C48.3376 182.288 50.6216 180.909 53.1989 180.419C55.9155 179.902 58.5643 180.692 60.7532 182.333C63.4315 184.341 65.2284 187.192 66.8887 190.041C68.7322 193.204 70.5968 196.519 73.7112 198.605C74.0885 198.858 73.6743 199.429 73.2975 199.176C67.8791 195.547 66.3316 188.675 61.8343 184.201C59.7359 182.114 56.9956 180.647 53.9631 181.013C51.3113 181.334 48.9547 182.754 46.5793 183.87C44.0851 185.041 41.536 185.737 38.7609 185.63C35.9222 185.521 33.1383 184.719 30.5135 183.673C24.5791 181.255 19.0617 177.919 14.1634 173.787C8.547 169.103 3.77329 163.492 0.0488356 157.198C-0.181538 156.808 0.465414 156.526 0.694266 156.913H0.694302Z" fill="white"/>
<path d="M25.7302 181.114C24.5656 183.031 22.7577 184.47 20.6295 185.177C18.5013 185.883 16.1913 185.81 14.1121 184.97C13.692 184.799 13.9385 184.138 14.3591 184.31C16.2939 185.095 18.4457 185.163 20.4261 184.501C22.4066 183.839 24.0852 182.491 25.1591 180.701C25.3929 180.312 25.9627 180.728 25.7302 181.114Z" fill="white"/>
<path d="M44.8582 184.075C43.8117 179.612 41.1216 175.708 37.3242 173.141C36.9478 172.886 37.3619 172.316 37.7379 172.569C41.6845 175.249 44.4758 179.317 45.5546 183.964C45.6571 184.407 44.9602 184.516 44.8582 184.075Z" fill="white"/>
<path d="M9.38274 168.682C9.98786 168.035 10.4227 167.247 10.6481 166.39C10.8736 165.533 10.8826 164.633 10.6745 163.772C10.5664 163.33 11.2634 163.222 11.3708 163.66C11.5964 164.613 11.5852 165.607 11.3382 166.554C11.0912 167.502 10.6159 168.374 9.95385 169.096C9.89715 169.169 9.81469 169.218 9.72323 169.233C9.63177 169.247 9.53818 169.226 9.46147 169.175C9.38613 169.119 9.33559 169.037 9.32085 168.945C9.30611 168.852 9.32835 168.758 9.38274 168.682Z" fill="white"/>
<path d="M41.3783 121.576C41.4536 121.85 41.529 122.124 41.6099 122.399C42.6417 126.074 43.9703 129.659 45.5827 133.118C45.7031 133.388 45.8292 133.659 45.9571 133.924C49.9305 142.218 55.409 149.701 62.1143 155.995C64.7848 158.497 67.6417 160.792 70.6604 162.86C74.8295 165.716 79.5771 168.481 82.4738 172.432C82.7807 172.841 83.0619 173.268 83.3159 173.711L75.4092 198.57C75.3629 198.618 75.3221 198.668 75.2757 198.715L75.0054 199.722C74.8423 199.626 74.6752 199.524 74.512 199.428C74.4171 199.373 74.324 199.312 74.2292 199.257C74.1665 199.218 74.1039 199.179 74.0451 199.148C74.0242 199.135 74.0034 199.122 73.9881 199.111C73.9293 199.08 73.878 199.045 73.825 199.016C72.8891 198.443 71.9556 197.863 71.0246 197.276C71.0189 197.274 71.0189 197.274 71.015 197.266C63.9322 192.771 57.1624 187.646 51.3858 181.655C51.2121 181.475 51.0326 181.293 50.8625 181.101C48.2736 178.387 45.911 175.465 43.7982 172.365C42.6468 170.664 41.5821 168.906 40.6085 167.098C38.1016 162.42 36.3462 157.377 35.4066 152.153C33.5349 141.74 35.0144 130.844 40.9206 122.23C41.0719 122.01 41.2214 121.795 41.3783 121.576Z" fill="#F0F0F0"/>
<path d="M41.6766 121.733C40.1979 134.893 42.9037 148.186 49.4096 159.721C50.8185 162.184 52.462 164.56 54.5755 166.473C56.65 168.323 59.1819 169.583 61.9081 170.123C64.4399 170.677 67.0938 170.951 69.4468 172.112C71.9269 173.335 73.5665 175.56 74.326 178.188C75.2553 181.404 74.9735 184.762 74.5839 188.037C74.1513 191.672 73.6444 195.442 74.8751 198.982C75.0243 199.411 74.3499 199.618 74.201 199.189C72.0597 193.029 74.9619 186.61 74.0642 180.331C73.6454 177.401 72.341 174.58 69.699 173.046C67.3887 171.706 64.6522 171.421 62.0838 170.881C59.387 170.315 56.9328 169.336 54.7812 167.58C52.5802 165.784 50.8404 163.467 49.3748 161.051C46.0921 155.548 43.6952 149.563 42.2718 143.315C40.6078 136.193 40.1742 128.839 40.99 121.571C41.0407 121.121 41.7269 121.286 41.6766 121.733V121.733Z" fill="white"/>
<path d="M47.0961 156.129C45.0126 156.958 42.7022 157.019 40.5777 156.301C38.4532 155.584 36.6528 154.135 35.4982 152.213C35.2659 151.823 35.8606 151.444 36.0932 151.834C37.1651 153.626 38.8423 154.976 40.822 155.64C42.8017 156.304 44.9536 156.238 46.8892 155.455C47.31 155.285 47.5146 155.96 47.0961 156.129Z" fill="white"/>
<path d="M60.5883 170.011C62.4396 165.817 62.6424 161.08 61.1562 156.744C61.0086 156.315 61.6829 156.108 61.8303 156.537C63.3685 161.053 63.1474 165.982 61.2113 170.341C61.0265 170.757 60.4045 170.424 60.5883 170.011Z" fill="white"/>
<path d="M41.526 136.359C42.399 136.206 43.2204 135.839 43.9165 135.29C44.6125 134.742 45.1614 134.029 45.5139 133.216C45.6933 132.798 46.3152 133.131 46.1369 133.546C45.7433 134.443 45.1362 135.229 44.3685 135.837C43.6008 136.445 42.6959 136.855 41.733 137.033C41.6436 137.057 41.5483 137.047 41.4665 137.003C41.3847 136.96 41.3224 136.887 41.2924 136.799C41.2655 136.71 41.2749 136.613 41.3186 136.531C41.3624 136.448 41.4369 136.387 41.526 136.359Z" fill="white"/>
<path d="M60.6151 105.374C47.7737 92.7328 42.3501 79.5447 45.3429 68.2395C49.1837 53.7317 66.2464 43.7008 92.1559 40.7188L92.2516 41.5509C66.7028 44.4912 49.9004 54.297 46.1526 68.4538C43.24 79.4559 48.5848 92.356 61.2027 104.778L60.6151 105.374Z" fill="#F0F0F0"/>
<path d="M184.512 150.248C168.485 150.248 151.069 147.866 133.77 143.286C112.378 137.623 92.7631 129.075 77.0469 118.565L77.5123 117.869C93.1528 128.328 112.681 136.837 133.985 142.477C153.237 147.574 172.633 149.935 190.07 149.312L190.1 150.149C188.259 150.215 186.396 150.248 184.512 150.248Z" fill="#F0F0F0"/>
<path d="M221.28 144.98L221.011 144.187C235.345 139.34 244.31 131.534 246.938 121.609C250.278 108.993 243.022 94.3532 226.507 80.3858C209.907 66.3474 185.971 54.6992 159.105 47.5871L159.32 46.7773C186.303 53.9207 210.356 65.6293 227.047 79.7464C243.823 93.9342 251.175 108.878 247.748 121.824C245.045 132.032 235.892 140.04 221.28 144.98Z" fill="#F0F0F0"/>
<path d="M89.6618 150.598C58.1701 136.631 33.9033 118.511 21.332 99.5747L22.0297 99.1113C34.5141 117.916 58.6534 135.93 90.0012 149.833L89.6618 150.598Z" fill="#F0F0F0"/>
<path d="M200.388 174.794C197.139 174.794 193.836 174.722 190.477 174.577L190.513 173.74C215.581 174.825 237.699 171.825 254.481 165.062L254.794 165.839C240.155 171.738 221.497 174.794 200.388 174.794Z" fill="#F0F0F0"/>
<path d="M182.113 41.4697C176.908 39.775 171.554 38.1971 166.201 36.7797C135.391 28.6234 105.105 25.7275 78.6155 28.4067L78.5312 27.5732C105.12 24.8853 135.509 27.7881 166.415 35.97C171.784 37.3915 177.153 38.9739 182.372 40.6734L182.113 41.4697Z" fill="#F0F0F0"/>
<path d="M40.9354 106.632C28.094 93.9906 22.6704 80.8025 25.6633 69.4973C29.504 54.9895 46.5667 44.9586 72.4762 41.9766L72.5719 42.8088C47.0231 45.749 30.2207 55.5549 26.473 69.7116C23.5603 80.7137 28.9051 93.6138 41.523 106.035L40.9354 106.632Z" fill="#F0F0F0"/>
<path d="M164.832 151.504C148.806 151.504 131.39 149.122 114.091 144.542C92.6981 138.879 73.0834 130.33 57.3672 119.821L57.8326 119.125C73.4732 129.583 93.0009 138.093 114.305 143.732C133.557 148.829 152.954 151.191 170.39 150.568L170.421 151.405C168.579 151.471 166.716 151.504 164.832 151.504Z" fill="#F0F0F0"/>
<path d="M201.6 146.238L201.332 145.445C215.666 140.598 224.631 132.791 227.258 122.867C230.598 110.251 223.342 95.611 206.827 81.6436C190.228 67.6053 166.291 55.957 139.426 48.8449L139.64 48.0352C166.623 55.1785 190.676 66.8871 207.368 81.0042C224.144 95.192 231.495 110.135 228.068 123.081C225.365 133.29 216.213 141.297 201.6 146.238Z" fill="#F0F0F0"/>
<path d="M69.9821 151.854C38.4904 137.887 14.2236 119.767 1.65234 100.831L2.35 100.367C14.8344 119.172 38.9738 137.185 70.3216 151.089L69.9821 151.854Z" fill="#F0F0F0"/>
<path d="M180.704 176.052C177.456 176.052 174.152 175.979 170.793 175.834L170.829 174.998C195.897 176.083 218.016 173.083 234.797 166.32L235.11 167.097C220.472 172.996 201.813 176.052 180.704 176.052Z" fill="#F0F0F0"/>
<path d="M162.434 42.7255C157.229 41.0309 151.875 39.453 146.521 38.0356C115.711 29.8792 85.4254 26.9833 58.9358 29.6625L58.8516 28.8291C85.4399 26.1411 115.83 29.044 146.735 37.2259C152.104 38.6474 157.473 40.2297 162.693 41.9293L162.434 42.7255Z" fill="#F0F0F0"/>
<path d="M79.2302 104.914C77.5094 104.916 75.8595 105.6 74.6427 106.817C73.4259 108.034 72.7414 109.684 72.7395 111.405C70.2717 129.575 69.4476 147.93 70.2771 166.248C70.3263 167.418 70.3809 168.487 70.4443 169.519C70.5363 171.224 70.6533 173.023 70.7917 174.868C70.8713 175.957 70.9551 177.049 71.0469 178.137C71.2007 179.909 71.3696 181.71 71.5493 183.49C71.6622 184.577 71.7793 185.669 71.9047 186.757C72.1453 188.893 72.4177 191.084 72.7377 193.453C72.7345 195.178 73.4166 196.834 74.6342 198.057C75.8517 199.279 77.5049 199.968 79.2302 199.972H188.107C189.828 199.97 191.477 199.285 192.694 198.068C193.911 196.852 194.596 195.202 194.597 193.481L194.602 193.436C195.087 191.226 195.539 188.975 195.945 186.743C196.162 185.567 196.35 184.498 196.518 183.477C196.824 181.617 197.095 179.817 197.325 178.126C197.483 176.992 197.625 175.893 197.748 174.859C197.951 173.167 198.134 171.419 198.308 169.513C198.404 168.477 198.491 167.407 198.576 166.243V166.242C199.907 147.882 198.569 129.426 194.602 111.45L194.597 111.405C194.596 109.684 193.911 108.034 192.694 106.817C191.477 105.6 189.828 104.916 188.107 104.914L79.2302 104.914Z" fill="#3F3D56"/>
<path d="M137.895 132.702C114.304 132.702 89.306 130.558 56.5895 126.27H56.586C54.8899 126.267 53.2544 125.639 51.9929 124.505C50.7315 123.371 49.9329 121.812 49.7503 120.126C49.7206 119.872 49.7061 119.617 49.7072 119.362V99.6802C49.7064 99.6381 49.7084 99.596 49.7129 99.5542C49.7497 97.7458 50.4927 96.0237 51.7828 94.756C53.073 93.4883 54.8079 92.7757 56.6167 92.7707C113.536 85.0315 148.113 85.0323 210.745 92.7723H210.747C212.555 92.7842 214.287 93.5027 215.572 94.7741C216.857 96.0456 217.593 97.7692 217.624 99.5767C217.628 99.6111 217.629 99.6456 217.628 99.6802V119.362C217.629 119.618 217.615 119.873 217.585 120.128C217.4 121.818 216.596 123.381 215.329 124.515C214.061 125.649 212.42 126.274 210.719 126.271C183.659 130.558 161.48 132.702 137.895 132.702Z" fill="#5AA0F4"/>
<path d="M141.681 146.37H127.368C125.546 146.368 123.799 145.643 122.511 144.355C121.223 143.067 120.498 141.32 120.496 139.498V87.4964C120.498 85.6747 121.223 83.9281 122.511 82.6399C123.799 81.3517 125.546 80.6271 127.368 80.625H141.681C143.503 80.627 145.25 81.3516 146.538 82.6398C147.826 83.928 148.551 85.6746 148.553 87.4964V139.498C148.551 141.32 147.826 143.067 146.538 144.355C145.25 145.643 143.503 146.368 141.681 146.37Z" fill="#3F3D56"/>
<path d="M174.179 70.675C174.075 69.7001 173.892 68.7352 173.633 67.7898C173.353 66.8425 172.998 65.919 172.572 65.0277C171.045 61.7511 168.47 59.0769 165.253 57.4279C161.26 55.4624 156.693 55.3016 152.4 56.2485C148.792 57.0568 145.403 58.6432 142.472 60.897C140.951 62.0422 139.563 63.352 138.331 64.8025C137.059 66.3286 134.693 70.5215 134.522 70.9097C133.184 67.8726 131.265 65.1269 128.872 62.8274C126.091 60.1873 122.77 58.1808 119.14 56.9457C117.21 56.2954 115.206 55.8881 113.175 55.7332C111.026 55.5546 108.862 55.7434 106.776 56.2915C103.03 57.3407 99.7895 59.7095 97.6528 62.9608C95.6168 65.9826 94.6168 69.5837 94.8033 73.2226C94.9064 75.0599 95.3026 76.8688 95.9769 78.5809C96.3383 79.5078 96.767 80.4069 97.2594 81.2713C97.769 82.1251 98.3387 82.9414 98.9643 83.7142C101.419 86.7268 104.726 88.9287 108.452 90.0321C112.43 91.2616 116.65 91.3017 120.741 90.7245C124.942 90.1317 128.985 88.7719 132.942 87.2826C133.47 87.0839 133.995 86.8795 134.522 86.677C138.039 88.0301 141.586 89.3352 145.268 90.1635C149.41 91.1638 153.709 91.3362 157.918 90.6708C161.841 90.0268 165.489 88.2451 168.408 85.5466C171.11 83.0045 173 79.7215 173.843 76.1092C174.259 74.3295 174.372 72.4924 174.179 70.675ZM119.648 86.679C117.378 86.9699 115.081 86.9834 112.807 86.719C111.177 86.4829 109.581 86.0579 108.049 85.4528C104.44 83.9495 101.562 81.0926 100.033 77.4939C99.5763 76.3594 99.2508 75.1763 99.0632 73.9676C98.9429 72.8923 98.9426 71.807 99.0622 70.7316C99.2403 69.6003 99.5455 68.4926 99.9719 67.4297C100.433 66.3958 101.006 65.4154 101.68 64.5058C102.333 63.692 103.072 62.9502 103.883 62.293C104.652 61.7244 105.479 61.2396 106.351 60.8469C107.391 60.4405 108.474 60.151 109.578 59.9836C111.074 59.818 112.585 59.8298 114.078 60.0187C115.855 60.2931 117.594 60.7725 119.261 61.4473C121.033 62.2167 122.709 63.1934 124.251 64.3571C125.679 65.488 126.973 66.778 128.108 68.202C129.232 69.697 130.175 71.3202 130.916 73.0375C131.637 74.8291 132.143 76.6997 132.424 78.6102L132.427 78.6381C132.317 79.598 132.263 80.5634 132.263 81.5296C132.263 81.9018 132.28 82.2735 132.298 82.645C132.122 82.8153 131.974 83.0137 131.862 83.2322C128.945 84.3766 125.955 85.3248 122.912 86.0706C121.833 86.3196 120.745 86.5224 119.648 86.679ZM169.989 73.9675C169.802 75.1763 169.476 76.3596 169.019 77.4943C167.497 81.0979 164.618 83.9571 161.003 85.4528C159.472 86.0579 157.875 86.4829 156.245 86.7191C153.968 86.9838 151.666 86.9699 149.392 86.6776C145.352 86.0998 141.454 84.8246 137.642 83.4014C137.485 83.3428 137.329 83.281 137.173 83.222C137.066 83.0068 136.925 82.8105 136.755 82.6412C136.822 81.2929 136.781 79.9413 136.63 78.5997C136.912 76.6928 137.417 74.8258 138.136 73.0375C138.878 71.3203 139.82 69.6972 140.944 68.2022C142.08 66.7781 143.374 65.488 144.801 64.3571C146.344 63.1934 148.019 62.2167 149.792 61.4473C151.458 60.7725 153.198 60.2931 154.975 60.0187C156.468 59.8298 157.978 59.818 159.474 59.9836C160.579 60.151 161.661 60.4405 162.702 60.8469C163.574 61.2396 164.401 61.7245 165.17 62.2931C165.981 62.9503 166.719 63.6921 167.373 64.506C168.047 65.4155 168.619 66.3959 169.081 67.4297C169.507 68.4926 169.812 69.6003 169.99 70.7316C170.11 71.807 170.11 72.8923 169.989 73.9675Z" fill="#3F3D56"/>
<path d="M90.9578 148.674C92.3455 148.674 93.4704 147.549 93.4704 146.161C93.4704 144.773 92.3455 143.648 90.9578 143.648C89.5702 143.648 88.4453 144.773 88.4453 146.161C88.4453 147.549 89.5702 148.674 90.9578 148.674Z" fill="#5AA0F4"/>
<path d="M108.962 142.392C110.349 142.392 111.474 141.267 111.474 139.88C111.474 138.492 110.349 137.367 108.962 137.367C107.574 137.367 106.449 138.492 106.449 139.88C106.449 141.267 107.574 142.392 108.962 142.392Z" fill="#5AA0F4"/>
<path d="M101.005 162.074C102.392 162.074 103.517 160.949 103.517 159.561C103.517 158.174 102.392 157.049 101.005 157.049C99.6171 157.049 98.4922 158.174 98.4922 159.561C98.4922 160.949 99.6171 162.074 101.005 162.074Z" fill="#5AA0F4"/>
<path d="M175.544 148.674C176.931 148.674 178.056 147.549 178.056 146.161C178.056 144.773 176.931 143.648 175.544 143.648C174.156 143.648 173.031 144.773 173.031 146.161C173.031 147.549 174.156 148.674 175.544 148.674Z" fill="#5AA0F4"/>
<path d="M157.54 142.392C158.928 142.392 160.052 141.267 160.052 139.88C160.052 138.492 158.928 137.367 157.54 137.367C156.152 137.367 155.027 138.492 155.027 139.88C155.027 141.267 156.152 142.392 157.54 142.392Z" fill="#5AA0F4"/>
<path d="M165.497 162.074C166.885 162.074 168.009 160.949 168.009 159.561C168.009 158.174 166.885 157.049 165.497 157.049C164.109 157.049 162.984 158.174 162.984 159.561C162.984 160.949 164.109 162.074 165.497 162.074Z" fill="#5AA0F4"/>
<path d="M177.638 192.642C179.025 192.642 180.15 191.517 180.15 190.13C180.15 188.742 179.025 187.617 177.638 187.617C176.25 187.617 175.125 188.742 175.125 190.13C175.125 191.517 176.25 192.642 177.638 192.642Z" fill="#5AA0F4"/>
<path d="M183.919 174.636C185.306 174.636 186.431 173.512 186.431 172.124C186.431 170.736 185.306 169.611 183.919 169.611C182.531 169.611 181.406 170.736 181.406 172.124C181.406 173.512 182.531 174.636 183.919 174.636Z" fill="#5AA0F4"/>
<path d="M164.239 182.593C165.627 182.593 166.752 181.469 166.752 180.081C166.752 178.693 165.627 177.568 164.239 177.568C162.851 177.568 161.727 178.693 161.727 180.081C161.727 181.469 162.851 182.593 164.239 182.593Z" fill="#5AA0F4"/>
<path d="M105.614 192.642C107.002 192.642 108.127 191.517 108.127 190.13C108.127 188.742 107.002 187.617 105.614 187.617C104.226 187.617 103.102 188.742 103.102 190.13C103.102 191.517 104.226 192.642 105.614 192.642Z" fill="#5AA0F4"/>
<path d="M111.895 174.636C113.283 174.636 114.408 173.512 114.408 172.124C114.408 170.736 113.283 169.611 111.895 169.611C110.508 169.611 109.383 170.736 109.383 172.124C109.383 173.512 110.508 174.636 111.895 174.636Z" fill="#5AA0F4"/>
<path d="M92.2118 182.593C93.5994 182.593 94.7243 181.469 94.7243 180.081C94.7243 178.693 93.5994 177.568 92.2118 177.568C90.8241 177.568 89.6992 178.693 89.6992 180.081C89.6992 181.469 90.8241 182.593 92.2118 182.593Z" fill="#5AA0F4"/>
<path d="M164.404 15.191C165.356 15.5882 166.393 15.7336 167.417 15.6133C168.441 15.493 169.417 15.1111 170.25 14.5042C172.375 12.9195 173.172 10.1532 173.839 7.58823L175.81 0L172.481 2.02102C170.087 3.47416 167.638 4.97543 165.91 7.18152C164.182 9.38761 163.308 12.4791 164.447 15.0391" fill="#F2F2F2"/>
<path d="M75.3731 80.009C76.0156 79.2027 76.4397 78.2446 76.6044 77.2269C76.7692 76.2091 76.669 75.1661 76.3137 74.1983C75.3715 71.7207 72.9291 70.1969 70.645 68.8528L63.8867 64.8789L64.9188 68.6339C65.6606 71.3344 66.4338 74.1008 68.0822 76.367C69.7307 78.6331 72.4645 80.3206 75.2386 79.9265" fill="#F2F2F2"/>
<path d="M234.08 196.843C234.723 196.037 235.147 195.079 235.311 194.061C235.476 193.043 235.376 192 235.021 191.032C234.079 188.555 231.636 187.031 229.352 185.687L222.594 181.713L223.626 185.468C224.368 188.168 225.141 190.935 226.789 193.201C228.438 195.467 231.172 197.155 233.946 196.76" fill="#F2F2F2"/>
<path d="M106.452 48.5907C108.302 48.5907 109.802 47.0909 109.802 45.2407C109.802 43.3905 108.302 41.8906 106.452 41.8906C104.601 41.8906 103.102 43.3905 103.102 45.2407C103.102 47.0909 104.601 48.5907 106.452 48.5907Z" fill="#FF7200"/>
<path d="M17.2563 147.417C19.1065 147.417 20.6063 145.917 20.6063 144.067C20.6063 142.217 19.1065 140.717 17.2563 140.717C15.4061 140.717 13.9062 142.217 13.9062 144.067C13.9062 145.917 15.4061 147.417 17.2563 147.417Z" fill="#FF7200"/>
<path d="M247.573 120.198C249.423 120.198 250.923 118.698 250.923 116.848C250.923 114.998 249.423 113.498 247.573 113.498C245.723 113.498 244.223 114.998 244.223 116.848C244.223 118.698 245.723 120.198 247.573 120.198Z" fill="#FF7200"/>
<path d="M13.9047 63.247C15.7549 63.247 17.2548 61.7471 17.2548 59.8969C17.2548 58.0467 15.7549 56.5469 13.9047 56.5469C12.0546 56.5469 10.5547 58.0467 10.5547 59.8969C10.5547 61.7471 12.0546 63.247 13.9047 63.247Z" fill="#E6E6E6"/>
<path d="M221.19 158.724C223.04 158.724 224.54 157.224 224.54 155.373C224.54 153.523 223.04 152.023 221.19 152.023C219.34 152.023 217.84 153.523 217.84 155.373C217.84 157.224 219.34 158.724 221.19 158.724Z" fill="#E6E6E6"/>
<path d="M227.889 56.9657C229.739 56.9657 231.239 55.4659 231.239 53.6157C231.239 51.7655 229.739 50.2656 227.889 50.2656C226.039 50.2656 224.539 51.7655 224.539 53.6157C224.539 55.4659 226.039 56.9657 227.889 56.9657Z" fill="#E6E6E6"/>
<path d="M81.0021 110.248C80.7125 110.706 80.0104 110.639 79.6161 110.353C79.0688 109.955 79.246 109.19 79.6229 108.737C80.8208 107.299 82.802 108.817 83.0692 110.245C83.1686 110.942 83.0614 111.652 82.7608 112.288C82.4603 112.924 81.9797 113.458 81.3787 113.823C80.0119 114.633 78.2366 114.227 77.0616 113.257C74.6103 111.235 75.2777 107.187 78.0004 105.724C79.7381 104.79 81.9348 105.2 83.6466 105.982C85.5734 106.862 87.2303 108.212 89.0122 109.336C92.922 111.784 97.3447 113.294 101.935 113.749C102.738 113.831 102.733 112.574 101.935 112.493C99.3912 112.23 96.8941 111.629 94.5095 110.705C92.1503 109.749 89.911 108.52 87.8374 107.043C85.7393 105.605 83.5474 104.208 80.9509 103.97C79.9031 103.848 78.8416 104.005 77.8743 104.426C76.907 104.847 76.0684 105.516 75.4438 106.366C74.8881 107.127 74.5162 108.006 74.3571 108.935C74.1981 109.863 74.2562 110.816 74.5269 111.718C74.8532 112.661 75.4236 113.502 76.1801 114.153C76.9367 114.804 77.8523 115.244 78.8338 115.426C79.7787 115.605 80.7557 115.484 81.6286 115.081C82.5015 114.677 83.2268 114.012 83.7032 113.176C84.6589 111.523 84.6278 109.303 83.1844 107.933C82.7706 107.512 82.2526 107.209 81.6833 107.054C81.114 106.899 80.5138 106.899 79.944 107.052C79.4191 107.229 78.9572 107.555 78.6148 107.991C78.2725 108.427 78.0646 108.953 78.0165 109.505C77.8772 111.65 80.9227 112.723 82.0868 110.882C82.5201 110.196 81.4334 109.565 81.0021 110.248L81.0021 110.248Z" fill="#FF7200"/>
<path d="M188.432 110.248C188.721 110.706 189.423 110.639 189.818 110.353C190.365 109.955 190.188 109.19 189.811 108.737C188.613 107.299 186.632 108.817 186.365 110.245C186.265 110.942 186.372 111.652 186.673 112.288C186.973 112.924 187.454 113.458 188.055 113.823C189.422 114.633 191.197 114.227 192.372 113.257C194.824 111.235 194.156 107.187 191.433 105.724C189.696 104.79 187.499 105.2 185.787 105.982C183.86 106.862 182.203 108.212 180.422 109.336C176.512 111.784 172.089 113.294 167.499 113.749C166.695 113.831 166.701 112.574 167.499 112.493C170.043 112.23 172.54 111.629 174.924 110.705C177.284 109.749 179.523 108.52 181.596 107.043C183.695 105.605 185.886 104.208 188.483 103.97C189.531 103.848 190.592 104.005 191.559 104.426C192.527 104.847 193.365 105.516 193.99 106.366C194.546 107.127 194.918 108.006 195.077 108.935C195.236 109.863 195.178 110.816 194.907 111.718C194.581 112.661 194.01 113.502 193.254 114.153C192.497 114.804 191.582 115.244 190.6 115.426C189.655 115.605 188.678 115.484 187.805 115.081C186.932 114.677 186.207 114.012 185.731 113.176C184.775 111.523 184.806 109.303 186.249 107.933C186.663 107.512 187.181 107.209 187.75 107.054C188.32 106.899 188.92 106.899 189.49 107.052C190.015 107.229 190.477 107.555 190.819 107.991C191.161 108.427 191.369 108.953 191.417 109.505C191.557 111.65 188.511 112.723 187.347 110.882C186.914 110.196 188 109.565 188.432 110.248L188.432 110.248Z" fill="#FF7200"/>
<path d="M37.2819 15.2273L35.6224 17.3092L29.7539 13.8377L31.413 11.7559L37.2819 15.2273Z" fill="#E4E4E4"/>
<path d="M43.4073 24.1719L44.8728 26.3591L38.7077 29.4256L37.2422 27.2387L43.4073 24.1719Z" fill="#E4E4E4"/>
<path d="M49.788 14.6641L52.7167 14.7678L52.4251 20.8958L49.4961 20.7924L49.788 14.6641Z" fill="#E4E4E4"/>
<path d="M244.567 143.366L242.908 145.448L237.039 141.976L238.699 139.895L244.567 143.366Z" fill="#E4E4E4"/>
<path d="M250.692 152.311L252.158 154.498L245.993 157.564L244.527 155.377L250.692 152.311Z" fill="#E4E4E4"/>
<path d="M257.073 142.803L260.002 142.906L259.71 149.034L256.781 148.931L257.073 142.803Z" fill="#E4E4E4"/>
</g>
<defs>
<clipPath id="clip0_340_1445">
<rect width="260.002" height="200" fill="white"/>
</clipPath>
</defs>
</svg>
