<svg width="34" height="32" viewBox="0 0 34 32" fill="none" xmlns="http://www.w3.org/2000/svg">
<path d="M4.98219 29.0201C3.92189 29.0201 3.15194 29.053 2.38658 29.0128C1.00471 28.9398 0.0188437 27.9654 0.0142497 26.5891C-0.00504506 20.1582 -0.00504608 13.7282 0.0160863 7.29722C0.0206803 5.78766 1.06259 4.8443 2.67325 4.83699C6.48442 4.82055 10.2956 4.8306 14.1058 4.82969C14.4513 4.82969 14.7968 4.82969 15.4041 4.82969C14.5634 3.63153 13.7916 2.62516 13.1393 1.54755C12.9399 1.21788 12.882 0.543915 13.0869 0.285472C13.4994 -0.235067 14.013 0.0233773 14.3714 0.523825C15.2158 1.70371 16.062 2.88269 17.001 4.19134C17.8646 2.98497 18.6493 1.89549 19.4275 0.801444C19.7785 0.308302 20.1423 -0.287121 20.8388 0.183191C21.526 0.64711 21.1539 1.1987 20.7883 1.70737C20.1001 2.66443 19.4275 3.63245 18.6227 4.77489C19.1473 4.79864 19.5029 4.82877 19.8575 4.82877C23.5639 4.83243 27.2695 4.82877 30.9759 4.83151C33.0937 4.83334 33.9951 5.71186 33.9969 7.78215C34.0006 13.8999 34.0015 20.0176 33.9969 26.1353C33.9951 28.1014 33.0864 29.0092 31.1275 29.0256C30.4724 29.0311 29.8173 29.0256 28.9095 29.0256C29.3882 29.695 29.8311 30.1507 30.0617 30.695C30.2133 31.0539 30.0589 31.5406 30.0415 31.9699C29.6225 31.8667 29.2008 31.7744 28.7882 31.653C28.7074 31.6292 28.6421 31.5023 28.6008 31.4091C27.6508 29.3124 26.0043 28.8996 23.7927 28.9708C18.5188 29.1398 13.2357 29.0384 7.95633 29.0101C7.28561 29.0064 6.84183 29.1854 6.48166 29.748C6.05075 30.421 5.59962 31.0986 5.0465 31.6676C4.80486 31.916 4.28666 31.8977 3.89433 32C3.8539 31.5717 3.66371 31.084 3.80796 30.7297C4.03215 30.179 4.48328 29.7188 4.9831 29.0174L4.98219 29.0201ZM16.9651 27.411C21.6152 27.411 26.2643 27.4138 30.9143 27.4092C32.1979 27.4083 32.3697 27.2375 32.3706 25.9581C32.3743 19.9454 32.3734 13.9318 32.3688 7.91913C32.3679 6.61778 32.2034 6.45066 30.9318 6.44975C21.6675 6.44701 12.4024 6.44701 3.13816 6.44975C1.78661 6.44975 1.63041 6.60774 1.62949 7.95292C1.62674 13.9309 1.62674 19.9098 1.62949 25.8878C1.62949 27.2704 1.77558 27.4074 3.22453 27.4083C7.80473 27.411 12.384 27.4092 16.9642 27.411H16.9651Z" fill="#1A5096"/>
<path d="M16.4763 9.00337C19.4165 9.00337 22.3566 8.99419 25.2959 9.00612C28.2807 9.01805 29.9737 10.6781 29.9923 13.6183C30.0081 16.1685 29.9951 18.7187 29.9923 21.2689C29.9923 21.8397 30.0184 22.4821 29.2114 22.5023C28.3254 22.5252 28.3617 21.8425 28.3617 21.2359C28.3598 18.7554 28.3691 16.275 28.3598 13.7954C28.3524 11.6086 27.3853 10.6313 25.2065 10.6286C19.3979 10.6221 13.5883 10.6221 7.7796 10.6322C5.64359 10.6359 4.66353 11.6068 4.65329 13.7156C4.64026 16.2658 4.64119 18.816 4.65701 21.3662C4.66911 23.3117 5.70874 24.3422 7.6856 24.3468C13.3882 24.3587 19.0907 24.3514 24.7942 24.3532C25.1125 24.3532 25.4736 24.2725 25.7389 24.3927C26.0404 24.5294 26.4891 24.8891 26.4565 25.0837C26.4034 25.4021 26.0563 25.7316 25.7491 25.9298C25.5481 26.0592 25.1981 25.9701 24.9152 25.9701C19.1773 25.972 13.4384 25.9738 7.70049 25.972C4.80779 25.9711 3.03662 24.2715 3.01428 21.4359C2.99288 18.7811 2.99567 16.1263 3.02173 13.4715C3.04965 10.7167 4.74171 9.04467 7.55064 9.01714C10.5252 8.98777 13.5017 9.01071 16.4763 9.01071V9.00612V9.00337Z" fill="#1A5096"/>
</svg>
