<svg width="26" height="44" viewBox="0 0 26 44" fill="none" xmlns="http://www.w3.org/2000/svg">
<path d="M18.7463 10.4883H6.42768C3.43006 10.4883 1 12.9183 1 15.916V34.474C1 37.4716 3.43006 39.9016 6.42768 39.9016H18.7463C21.7439 39.9016 24.174 37.4716 24.174 34.474V15.916C24.174 12.9183 21.7439 10.4883 18.7463 10.4883Z" stroke="#2775B3" stroke-width="2" stroke-miterlimit="10"/>
<path d="M8.92445 4.00391H6.26172V10.489H8.92445V4.00391Z" stroke="#2775B3" stroke-width="2" stroke-miterlimit="10"/>
<path d="M19.0299 4.00391H16.3672V10.489H19.0299V4.00391Z" stroke="#2775B3" stroke-width="2" stroke-miterlimit="10"/>
<path d="M20.8401 1H4.72169C4.0858 1 3.57031 1.51549 3.57031 2.15137V2.57975C3.57031 3.21564 4.0858 3.73113 4.72169 3.73113H20.8401C21.476 3.73113 21.9915 3.21564 21.9915 2.57975V2.15137C21.9915 1.51549 21.476 1 20.8401 1Z" stroke="#2775B3" stroke-width="2" stroke-miterlimit="10"/>
<path d="M4.48828 39.9023H20.8052V41.2093C20.8052 42.1149 20.0701 42.8499 19.1645 42.8499H6.21534C5.26238 42.8499 4.48828 42.0758 4.48828 41.1229V39.9023Z" stroke="#2775B3" stroke-width="2" stroke-miterlimit="10"/>
<path d="M12.5849 8.40625H12.1641V10.4888H12.5849V8.40625Z" stroke="#2775B3" stroke-width="2" stroke-miterlimit="10"/>
<path d="M11.3359 7.57132V7.99219H13.4185V7.57132H11.3359Z" stroke="#2775B3" stroke-width="2" stroke-miterlimit="10"/>
<path d="M12.3965 20.5658C12.5641 19.8638 12.4529 19.364 12.1695 18.8958C12.0237 18.6553 11.9373 18.4163 12.1342 18.1668C12.3251 17.9248 12.5866 17.9391 12.8572 17.9819C13.9454 18.1533 14.8308 18.6869 15.5793 19.4745C18.4915 22.5401 17.3499 27.5747 13.4607 28.8132C11.8516 29.3258 9.74728 28.5555 8.69662 27.0697C7.71434 25.6808 7.69255 23.6148 8.80409 22.3093C9.68716 21.2722 10.3485 20.2433 10.0231 18.8192C9.97124 18.5937 10.1065 18.4051 10.3207 18.2946C10.577 18.1631 10.7844 18.2653 10.9738 18.4359C11.5878 18.989 11.9441 19.7218 12.3972 20.565L12.3965 20.5658Z" fill="#2775B3"/>
<path d="M14.444 24.5305C14.0449 24.057 13.6578 23.5715 13.1122 23.2476C12.8785 23.1085 12.6478 22.9883 12.3832 23.1762C12.1578 23.3362 12.0991 23.5662 12.1713 23.8097C12.3614 24.4455 12.1262 24.81 11.5445 25.1249C10.8057 25.5255 10.354 26.1966 10.2736 27.0857C8.88627 26.0816 8.66531 24.1502 9.74303 22.8214C10.0136 22.4877 10.3225 22.1804 10.5547 21.8226C10.7824 21.4716 10.9357 21.0726 11.1364 20.666C11.4167 20.9456 11.4438 21.2973 11.4964 21.6423C11.5452 21.9609 11.652 22.254 12.0037 22.3532C12.3855 22.4607 12.644 22.2465 12.8687 21.9812C13.2144 21.5739 13.3895 21.0786 13.5759 20.5893C13.8735 20.5615 14.0727 20.7066 14.2117 20.9531C14.7694 21.9391 14.9174 22.998 14.7679 24.1073C14.7408 24.3072 14.6506 24.4651 14.4425 24.5297L14.444 24.5305Z" fill="#FCDC59"/>
<path d="M14.4454 24.53C14.5589 23.1284 14.4619 21.7726 13.5781 20.5896C13.5781 20.1906 13.5781 19.7915 13.5781 19.3789C16.2364 20.501 17.015 24.6164 14.9106 26.5442C14.9256 25.8084 14.725 25.1591 14.4447 24.53H14.4454Z" fill="#FCCF30"/>
<path d="M12.882 27.798C12.5986 27.8844 12.3213 27.8769 12.0508 27.7484C11.3278 27.4049 11.2083 26.8353 11.796 26.2972C12.1755 25.9499 12.6264 25.6794 13.0458 25.375C13.4885 25.3825 13.4787 25.7658 13.4885 26.0153C13.514 26.6729 13.4231 27.3193 12.8812 27.7972L12.882 27.798Z" fill="#F6A041"/>
<path d="M12.8836 27.7963C13.1143 27.0005 13.4427 26.2113 13.0482 25.3734C13.1128 25.226 13.1293 25.0134 13.3172 24.9916C13.4833 24.972 13.5156 25.1719 13.578 25.2907C14.0612 26.2076 13.7215 27.4221 12.8828 27.7956L12.8836 27.7963Z" fill="#F29432"/>
</svg>
