<svg width="27" height="38" viewBox="0 0 27 38" fill="none" xmlns="http://www.w3.org/2000/svg">
<path d="M6.49551 37.0427C4.73953 37.0427 2.9825 37.051 1.22652 37.0406C0.216386 37.0344 0.0638727 36.8428 0.0116425 35.836C-0.0499892 34.6459 0.0993894 33.5725 1.28815 32.9384C1.56079 32.7926 1.58482 32.5167 1.62556 32.2502C1.97759 29.9637 2.32126 27.6752 2.6921 25.3909C2.78716 24.8057 2.60435 24.4007 2.19905 23.9697C0.949698 22.6422 0.868218 20.717 2.03504 19.3437C2.47482 18.8262 2.47586 18.4514 2.22412 17.8548C0.109835 12.8228 0.774203 8.17496 4.28721 3.96755C5.09469 3.0003 5.39867 3.00238 6.28659 3.88634C8.56174 6.14986 10.8296 8.42276 13.1141 10.6769C13.3711 10.9299 13.5999 11.4672 14.0031 11.2714C14.4836 11.0372 14.9599 10.6592 15.009 10.0085C15.0247 9.80545 15.0571 9.58888 15.1448 9.40772C15.4499 8.7726 15.9753 8.47482 16.672 8.59352C17.327 8.70492 17.7396 9.12868 17.8263 9.78567C17.9183 10.4833 17.6049 10.9976 16.9551 11.2777C16.7692 11.3578 16.553 11.3766 16.3472 11.3985C15.7392 11.464 15.383 11.9128 15.1448 12.3605C14.9182 12.7863 15.4499 13.004 15.7006 13.2559C18.005 15.5746 20.3271 17.8756 22.6388 20.1881C23.3941 20.944 23.4087 21.2293 22.5981 21.9258C18.5576 25.395 14.0229 26.1842 9.02345 24.3528C8.74454 24.2508 8.47921 24.1133 8.20448 23.9988C8.01749 23.9207 7.81693 23.7781 7.63099 23.9697C7.47952 24.1269 7.59443 24.308 7.66128 24.4653C8.79572 27.1119 9.93539 29.7555 11.0688 32.4022C11.1952 32.6968 11.4354 32.8436 11.6966 33.0009C12.7558 33.6412 13.298 35.3987 12.8101 36.544C12.6075 37.0198 12.1928 37.0417 11.7634 37.0417C10.0075 37.0417 8.25044 37.0417 6.49446 37.0417L6.49551 37.0427ZM13.5111 23.8843C16.3399 23.8437 18.5764 23.1544 20.5768 21.7322C21.4375 21.12 21.4438 21.0398 20.676 20.2735C15.8176 15.4289 10.9581 10.5843 6.09647 5.74172C5.31197 4.96084 5.22318 4.95043 4.58388 5.9031C2.07056 9.64198 1.69345 13.6172 3.72417 17.6226C5.79353 21.7051 9.31698 23.6979 13.51 23.8843H13.5111ZM6.27718 32.7697C7.10973 32.7697 7.94333 32.7395 8.77379 32.7791C9.47263 32.8124 9.60112 32.599 9.31907 31.9659C8.48757 30.097 7.69785 28.2104 6.88619 26.3321C6.30643 24.9911 6.30434 25.0181 4.87323 25.1014C4.35615 25.1316 4.14828 25.3065 4.07516 25.8157C3.77535 27.898 3.45257 29.9762 3.1089 32.0513C3.01175 32.6396 3.25723 32.7843 3.77953 32.7728C4.61208 32.7551 5.44463 32.7676 6.27718 32.7697ZM6.52371 35.6173C7.91826 35.6173 9.3128 35.5986 10.7074 35.6257C11.3895 35.6382 11.5545 35.3081 11.3916 34.7396C11.2505 34.2492 10.8254 34.194 10.3867 34.1951C8.99211 34.1972 7.59756 34.1951 6.20302 34.1951C4.92755 34.1951 3.65105 34.1961 2.37558 34.2003C1.80523 34.2024 1.48767 34.4825 1.46573 35.0603C1.44066 35.7329 1.94729 35.6121 2.34006 35.6153C3.73461 35.6257 5.12916 35.6194 6.52371 35.6173ZM4.83249 23.6896C4.97978 23.6677 5.1605 23.6594 5.32973 23.6105C5.67236 23.5115 6.08289 23.4189 6.18944 23.0513C6.30121 22.6661 5.87919 22.5172 5.64415 22.3215C4.9568 21.7478 4.33526 21.1116 3.79311 20.4057C3.42332 19.9236 3.18097 20.0715 2.95012 20.5036C2.57093 21.2116 2.5657 21.9279 2.96369 22.6245C3.36482 23.3273 4.00203 23.6531 4.83354 23.6906L4.83249 23.6896Z" fill="#1A5096"/>
<path d="M26.4343 10.0687C26.4301 10.8433 26.3215 11.6034 26.1387 12.3561C26.0154 12.8632 25.7407 13.1828 25.1954 13.0298C24.7003 12.8903 24.6251 12.4925 24.741 12.0292C25.2017 10.1822 25.0429 8.37987 24.3023 6.63173C22.7625 3.00322 18.9121 0.904195 15.021 1.56326C14.787 1.60283 14.5509 1.64031 14.3211 1.69862C13.8447 1.81939 13.4666 1.69862 13.3392 1.20614C13.2096 0.706372 13.5052 0.43879 13.9722 0.31593C15.4984 -0.0859651 17.0329 -0.0963759 18.5674 0.238884C23.195 1.24883 26.4594 5.33754 26.4333 10.0697L26.4343 10.0687Z" fill="#2775B3"/>
<path d="M16.4104 2.81445C20.944 2.85402 24.3431 7.00312 23.4259 11.4063C23.3142 11.9404 23.1564 12.4485 22.4722 12.2996C21.8256 12.159 21.9259 11.6322 22.0042 11.147C22.6822 6.92295 19.4596 3.71403 15.2467 4.41891C14.7547 4.50117 14.2324 4.58654 14.0955 3.94517C13.9503 3.2632 14.4559 3.0862 14.9981 3.00499C15.4682 2.93523 15.9393 2.87797 16.4093 2.81445H16.4104Z" fill="#2775B3"/>
<path d="M16.3896 5.71841C19.0606 5.69134 21.1676 8.16623 20.6464 10.7046C20.544 11.2013 20.3873 11.6906 19.7543 11.574C19.1379 11.4605 19.1484 10.993 19.2257 10.462C19.5046 8.53897 18.0244 6.97095 16.1211 7.1542C15.5539 7.20834 14.8864 7.42907 14.8237 6.57843C14.7642 5.76735 15.4954 5.82253 16.0323 5.72154C16.1472 5.69967 16.2695 5.71841 16.3885 5.71841H16.3896Z" fill="#2775B3"/>
</svg>
