<svg width="32" height="34" viewBox="0 0 32 34" fill="none" xmlns="http://www.w3.org/2000/svg">
<path d="M15.9302 32.4818C16.3879 32.4818 16.8457 32.4782 17.3035 32.4827C17.7755 32.4881 17.9484 32.6646 17.9538 33.1331C17.9619 33.8748 17.8409 33.9984 17.1064 33.9993C16.2401 33.9993 15.3739 34.0029 14.5086 33.9993C13.972 33.9975 13.8107 33.8148 13.8125 33.2343C13.8143 32.6502 13.9666 32.4872 14.5202 32.4827C14.7549 32.4809 14.9905 32.4827 15.2252 32.4818C15.4599 32.4818 15.6955 32.4818 15.9302 32.4818Z" fill="#02437E"/>
<path d="M12.5859 27.1565C12.8672 26.9271 13.0428 26.61 13.2578 26.3279C15.8771 22.9005 18.4911 19.4687 21.1059 16.0378C21.1641 15.9607 21.2215 15.8828 21.2887 15.7923C21.1758 15.709 21.0638 15.7431 20.9617 15.7431C19.4612 15.7404 17.9599 15.7341 16.4594 15.7466C16.1718 15.7493 16.1369 15.6848 16.2229 15.417C17.116 12.6355 17.9993 9.85048 18.8745 7.06364C18.9452 6.8379 19.0151 6.81102 19.2328 6.89612C22.6467 8.22818 24.9014 11.9081 24.6157 15.5558C24.4329 17.8894 23.5703 19.9444 22.3287 21.8793C21.6927 22.8701 21.0038 23.8259 20.4117 24.8453C20.0372 25.4903 19.7273 26.163 19.523 26.8832C19.3976 27.3258 19.1495 27.5157 18.6837 27.5175C16.8607 27.522 15.0377 27.5229 13.2139 27.5148C12.9541 27.5139 12.654 27.522 12.5877 27.1556L12.5859 27.1574V27.1565Z" fill="#02437E"/>
<path d="M12.5899 27.1543C12.4842 27.1175 12.4099 27.0575 12.3803 26.9411C12.0238 25.5436 11.2194 24.3773 10.4355 23.2011C9.47255 21.7562 8.5024 20.3139 7.93177 18.6567C7.04672 16.0875 6.91235 13.5157 8.19693 11.0406C9.67053 8.2009 12.0444 6.62071 15.2388 6.29195C16.3532 6.17729 17.4362 6.33047 18.5067 6.63504C18.7602 6.7076 18.7952 6.77031 18.6312 6.99426C16.8163 9.47473 15.0104 11.9615 13.2027 14.4473C12.4368 15.4999 11.6717 16.5525 10.9076 17.605C10.8799 17.6427 10.8637 17.6883 10.827 17.7609C12.0471 17.966 13.2412 18.164 14.4344 18.3674C14.7748 18.4256 15.2711 18.3871 15.4099 18.5895C15.5586 18.8072 15.2541 19.2193 15.1421 19.5435C14.3126 21.9559 13.4759 24.3656 12.6446 26.778C12.6034 26.8972 12.4941 27.0136 12.5873 27.1561L12.589 27.1543H12.5899Z" fill="#F39323"/>
<path d="M15.8912 29.5281C14.8995 29.5281 13.907 29.5299 12.9153 29.5281C12.4173 29.5263 12.2399 29.3373 12.2345 28.8168C12.2291 28.2095 12.3805 28.0052 12.8902 28.0034C14.8861 27.9963 16.8828 27.9963 18.8787 28.0034C19.4081 28.0052 19.5344 28.1942 19.5281 28.8849C19.5245 29.3462 19.3436 29.5263 18.8661 29.5272C17.8745 29.5299 16.8819 29.5272 15.8903 29.5272L15.8912 29.5281Z" fill="#07447F"/>
<path d="M15.863 30.2498C16.7677 30.2498 17.6734 30.248 18.5782 30.2498C19.1058 30.2515 19.25 30.4155 19.25 30.9951C19.25 31.5746 19.0906 31.7565 18.5889 31.7574C16.791 31.7601 14.9932 31.7592 13.1962 31.7574C12.6865 31.7574 12.5234 31.5702 12.5234 31.0067C12.5234 30.4316 12.6775 30.2497 13.1854 30.248C14.0777 30.2444 14.9708 30.2471 15.863 30.2471V30.2489V30.2498Z" fill="#02437E"/>
<path d="M8.37755 2.06931C8.53431 2.07199 8.6221 2.16964 8.69377 2.29326C9.44087 3.58948 10.1889 4.88571 10.9369 6.18104C11.0444 6.36647 11.0488 6.54742 10.8544 6.66567C10.6394 6.79735 10.4791 6.69344 10.3644 6.49546C9.62271 5.21088 8.87741 3.9272 8.14106 2.63904C7.96907 2.33805 8.09358 2.06393 8.37755 2.06841V2.06931Z" fill="#2775B3"/>
<path d="M24.9809 10.3928C24.8331 10.3811 24.7185 10.3184 24.6719 10.1706C24.6199 10.0076 24.6728 9.87409 24.817 9.78809C25.0821 9.62864 25.3527 9.47904 25.6205 9.32407C26.6274 8.74179 27.6343 8.15863 28.6403 7.57636C28.849 7.45542 29.0765 7.30672 29.2521 7.59069C29.4295 7.87824 29.1966 8.01082 28.9843 8.13265C27.7507 8.84302 26.5181 9.55249 25.2846 10.2638C25.1878 10.3193 25.0983 10.3883 24.9809 10.3937V10.3928Z" fill="#2775B3"/>
<path d="M23.7552 2.33271C23.7203 2.40258 23.6773 2.50381 23.6226 2.59877C22.906 3.84124 22.1858 5.08193 21.4718 6.3253C21.3473 6.54298 21.1995 6.70602 20.9433 6.55194C20.696 6.40323 20.7946 6.19541 20.9048 6.00371C21.6339 4.74063 22.364 3.47755 23.0923 2.21267C23.1935 2.0371 23.318 1.91437 23.5393 1.98156C23.6925 2.02724 23.7445 2.14639 23.7543 2.33182L23.7552 2.33271Z" fill="#2775B3"/>
<path d="M25.1344 20.1758C25.1989 20.2071 25.2894 20.2457 25.3736 20.2949C26.6277 21.0169 27.8791 21.7407 29.1341 22.461C29.3509 22.5855 29.5149 22.7378 29.3545 22.9913C29.2058 23.2269 28.9953 23.1409 28.8009 23.028C27.5387 22.297 26.2765 21.5643 25.0117 20.8378C24.8442 20.7419 24.7295 20.6273 24.7761 20.4275C24.8146 20.2654 24.9355 20.1838 25.1335 20.1767L25.1344 20.1758Z" fill="#2775B3"/>
<path d="M3.03111 23.3429C2.84389 23.3151 2.7346 23.239 2.69877 23.0921C2.65398 22.9085 2.74714 22.7839 2.90032 22.6961C3.40376 22.4059 3.9072 22.1166 4.41064 21.8254C5.17118 21.3865 5.93082 20.9466 6.69046 20.5068C6.90366 20.3832 7.13478 20.2578 7.29423 20.5507C7.44114 20.8203 7.22615 20.9502 7.02459 21.0667C6.08221 21.6095 5.13983 22.1542 4.19744 22.6979C3.89735 22.8708 3.59994 23.0473 3.29806 23.2175C3.2031 23.2712 3.10009 23.3116 3.03021 23.3438L3.03111 23.3429Z" fill="#2775B3"/>
<path d="M7.22207 10.2706C7.2149 10.5555 6.95064 10.6594 6.64338 10.4838C5.87031 10.0431 5.10081 9.59516 4.33042 9.14994C3.83773 8.86508 3.34773 8.57752 2.85325 8.29714C2.6508 8.18247 2.49134 8.04183 2.62124 7.79728C2.75292 7.54914 2.95806 7.602 3.16051 7.71935C4.42269 8.45032 5.68577 9.1795 6.94796 9.91137C7.08681 9.992 7.2364 10.0708 7.22207 10.2706Z" fill="#2775B3"/>
<path d="M3.22793 15.8216C2.51039 15.8216 1.79285 15.8189 1.07531 15.8234C0.842406 15.8252 0.627415 15.7786 0.617561 15.509C0.606811 15.2124 0.829867 15.1632 1.078 15.1641C2.52562 15.1677 3.97234 15.1677 5.41995 15.1641C5.65017 15.1641 5.86606 15.199 5.87502 15.4758C5.88487 15.7759 5.6654 15.8243 5.41637 15.8225C4.68629 15.818 3.95711 15.8207 3.22703 15.8207L3.22793 15.8216Z" fill="#2775B3"/>
<path d="M15.5644 2.63639C15.5644 1.90631 15.5688 1.17623 15.5626 0.447051C15.5608 0.209664 15.6118 0.00363047 15.8824 4.726e-05C16.1502 -0.00353595 16.2192 0.197123 16.2192 0.436302C16.2174 1.89646 16.2192 3.35572 16.2192 4.81588C16.2192 5.04341 16.1762 5.26199 15.8949 5.26109C15.5921 5.26109 15.5608 5.03266 15.5626 4.789C15.567 4.07147 15.5644 3.35393 15.5644 2.63639Z" fill="#2775B3"/>
<path d="M28.767 14.952C29.4864 14.952 30.2057 14.9565 30.9241 14.9493C31.1624 14.9466 31.3649 14.9932 31.372 15.2673C31.3801 15.5495 31.1651 15.6006 30.9349 15.6006C29.472 15.6006 28.0083 15.5988 26.5455 15.6006C26.3063 15.6006 26.1128 15.5379 26.1173 15.2593C26.1208 14.995 26.317 14.9502 26.5347 14.9511C27.2782 14.9529 28.0226 14.9511 28.7661 14.9511V14.9529L28.767 14.952Z" fill="#2775B3"/>
</svg>
