<svg width="22" height="38" viewBox="0 0 22 38" fill="none" xmlns="http://www.w3.org/2000/svg">
<path d="M0.000619746 26.179C0.019194 26.0787 0.0408636 25.979 0.0544847 25.8781C0.0668676 25.7877 0.0693444 25.6961 0.093491 25.5977C0.63524 28.6327 2.13666 31.0597 4.68319 32.802C6.63782 34.1393 8.81967 34.7195 11.1829 34.6055C16.2915 34.3579 20.4756 30.3799 21.1554 25.6261C21.1554 26.2725 21.2013 26.9226 21.148 27.5647C20.7988 31.7451 17.8585 35.4098 13.8731 36.6673C13.0323 36.9329 12.1828 37.1168 11.2907 37.0685C10.8071 37.0425 10.3211 37.058 9.8363 37.0648C7.91201 37.0933 6.21184 36.4066 4.66833 35.3417C1.89705 33.4298 0.365914 30.7669 0.0594389 27.4074C0.0501518 27.3065 0.0204317 27.2074 0 27.1071C0 26.7976 0 26.488 0 26.1784L0.000619746 26.179Z" fill="#1A5096"/>
<path d="M17.7982 27.5103C17.9548 26.498 18.1684 25.4461 18.2724 24.3836C18.5294 21.7603 17.917 19.3061 16.719 16.98C15.8466 15.2866 14.7371 13.7462 13.6462 12.1928C12.4215 10.4499 11.3021 8.64817 10.5672 6.63472C10.4236 6.24032 10.3109 5.83479 10.1765 5.41191C10.1332 5.44782 10.0899 5.47259 10.0601 5.50912C7.1155 9.1119 4.90455 13.0955 3.86934 17.6647C2.95982 21.678 3.27311 25.5755 5.13239 29.2965C5.23393 29.4996 5.34104 29.6996 5.45001 29.8983C5.55403 30.0878 5.66361 30.2742 5.73977 30.4927C5.5175 30.2773 5.29089 30.0655 5.07357 29.8451C2.99078 27.7307 1.52341 25.2789 0.972998 22.3293C0.50307 19.8107 0.757536 17.3372 1.47079 14.8978C2.35802 11.8652 3.84086 9.12614 5.62399 6.53999C7.19165 4.26588 8.96116 2.15956 10.9319 0.22289C11.0037 0.152308 11.0811 0.0866798 11.1771 0C11.2817 0.572706 11.364 1.11817 11.4823 1.65558C12.1107 4.50487 13.3329 7.08545 14.986 9.48029C16.3878 11.5117 17.6811 13.6075 18.5894 15.9175C19.3231 17.783 19.7293 19.7066 19.6153 21.7207C19.4965 23.8221 18.8197 25.7482 17.7994 27.5097L17.7982 27.5103Z" fill="#1A5096"/>
<path d="M9.9111 17.1841C9.24367 17.9599 8.83503 18.8521 8.60409 19.8241C8.15212 21.7255 8.4586 23.5365 9.44241 25.1908C10.2944 26.6241 10.4615 28.1509 10.3705 29.7502C10.3439 30.2226 10.2758 30.6925 10.2262 31.1717C10.1699 31.1668 10.1352 31.1742 10.116 31.1606C8.20908 29.827 6.66556 28.1887 5.8031 25.9864C4.99141 23.9148 4.97159 21.793 5.47248 19.6582C6.19997 16.5544 7.7342 13.855 9.7105 11.3865C9.73465 11.3561 9.76994 11.3351 9.81947 11.293C10.6367 13.473 12.0267 15.2567 13.5015 16.9922C14.5726 18.2534 15.5106 19.6093 16.1719 21.1398C17.4882 24.186 16.9829 26.956 14.9144 29.4908C14.8048 29.6251 14.6896 29.7551 14.546 29.9229C14.4958 29.5484 14.468 29.2159 14.4048 28.8902C14.0371 26.9975 13.0489 25.4286 11.7982 24.0108C11.0274 23.1371 10.3346 22.2251 9.96497 21.102C9.56748 19.8941 9.51857 18.6762 9.84857 17.4454C9.8721 17.3581 9.89129 17.2702 9.91234 17.1829L9.9111 17.1841Z" fill="#2775B3"/>
</svg>
