<svg width="26" height="44" viewBox="0 0 26 44" fill="none" xmlns="http://www.w3.org/2000/svg">
<path d="M18.7463 10.4883H6.42768C3.43006 10.4883 1 12.9183 1 15.916V34.474C1 37.4716 3.43006 39.9016 6.42768 39.9016H18.7463C21.7439 39.9016 24.174 37.4716 24.174 34.474V15.916C24.174 12.9183 21.7439 10.4883 18.7463 10.4883Z" stroke="#2775B3" stroke-width="2" stroke-miterlimit="10"/>
<path d="M8.92445 4.00391H6.26172V10.489H8.92445V4.00391Z" stroke="#2775B3" stroke-width="2" stroke-miterlimit="10"/>
<path d="M19.0299 4.00391H16.3672V10.489H19.0299V4.00391Z" stroke="#2775B3" stroke-width="2" stroke-miterlimit="10"/>
<path d="M20.8401 1H4.72169C4.0858 1 3.57031 1.51549 3.57031 2.15137V2.57975C3.57031 3.21564 4.0858 3.73113 4.72169 3.73113H20.8401C21.476 3.73113 21.9915 3.21564 21.9915 2.57975V2.15137C21.9915 1.51549 21.476 1 20.8401 1Z" stroke="#2775B3" stroke-width="2" stroke-miterlimit="10"/>
<path d="M4.48828 39.9023H20.8052V41.2093C20.8052 42.1149 20.0701 42.8499 19.1645 42.8499H6.21534C5.26238 42.8499 4.48828 42.0758 4.48828 41.1229V39.9023Z" stroke="#2775B3" stroke-width="2" stroke-miterlimit="10"/>
<path d="M12.5849 8.40625H12.1641V10.4888H12.5849V8.40625Z" stroke="#2775B3" stroke-width="2" stroke-miterlimit="10"/>
<path d="M11.3359 7.57132V7.99219H13.4185V7.57132H11.3359Z" stroke="#2775B3" stroke-width="2" stroke-miterlimit="10"/>
</svg>
