<svg width="21" height="34" viewBox="0 0 21 34" fill="none" xmlns="http://www.w3.org/2000/svg">
<path d="M13.5593 30.3242H6.5V33.4365H13.5593V30.3242Z" fill="#CFE9F9"/>
<path d="M16.6994 2.00477C16.6994 2.63109 14.0401 3.13844 10.7599 3.13844C7.47964 3.13844 4.82031 2.63109 4.82031 2.00477C4.82031 1.37844 7.47964 0.871094 10.7599 0.871094C14.0401 0.871094 16.6994 1.37844 16.6994 2.00477Z" fill="#CFE9F9"/>
<path d="M17.7888 0.109375H10.457V1.38679H14.2778C14.575 1.38679 14.816 1.62718 14.816 1.92434C14.816 2.22149 14.575 2.46248 14.2778 2.46248H10.457V3.64508H17.9796C18.258 3.64508 18.4857 3.87278 18.4857 4.15121V29.2575C18.4857 29.5359 18.258 29.7636 17.9796 29.7636H10.457V30.5385C11.09 30.6448 11.5726 31.1932 11.5726 31.8558C11.5726 32.5184 11.09 33.068 10.457 33.1743V33.9987H17.7888C19.0499 33.9987 20.0784 32.9689 20.0784 31.709V2.39846C20.0784 1.13795 19.0481 0.109375 17.7888 0.109375ZM12.5704 32.3903C12.275 32.3903 12.0358 32.1505 12.0358 31.8552C12.0358 31.5599 12.275 31.3213 12.5704 31.3213C12.8657 31.3213 13.1049 31.5605 13.1049 31.8552C13.1049 32.1499 12.8657 32.3903 12.5704 32.3903Z" fill="#2775B3"/>
<path d="M10.2337 33.1936C9.49442 33.1936 8.89588 32.5945 8.89588 31.8552C8.89588 31.1159 9.49442 30.518 10.2337 30.518C10.3092 30.518 10.3835 30.5258 10.456 30.5379V29.763H2.51664C2.2382 29.763 2.0105 29.5353 2.0105 29.2569V4.15121C2.0105 3.87278 2.2382 3.64508 2.51664 3.64508H10.456V2.46248H6.19065C5.89349 2.46248 5.6525 2.2221 5.6525 1.92434C5.6525 1.62657 5.89349 1.38679 6.19065 1.38679H10.456V0.109375H2.67971C1.42041 0.109375 0.390625 1.13977 0.390625 2.39846V31.7096C0.390625 32.9695 1.42102 33.9987 2.67971 33.9975H10.456V33.1731C10.3835 33.1852 10.3098 33.193 10.2337 33.193V33.1936ZM7.8981 32.3903C7.60276 32.3903 7.36358 32.1505 7.36358 31.8552C7.36358 31.5598 7.60336 31.3213 7.8981 31.3213C8.19284 31.3213 8.43263 31.5604 8.43263 31.8552C8.43263 32.1499 8.19345 32.3903 7.8981 32.3903Z" fill="#2775B3"/>
<path d="M11.1015 6.62109L5.57812 19.2014L10.692 17.872L8.34013 27.4862L14.4766 14.2916L9.26059 15.7237L11.1015 6.62109Z" fill="#2775B3"/>
</svg>
