<svg width="35" height="35" viewBox="0 0 35 35" fill="none" xmlns="http://www.w3.org/2000/svg">
<path d="M30.4771 6.93683C27.0914 11.0144 23.7066 15.0936 20.3193 19.1694C19.4285 20.2411 18.5308 21.3068 17.6306 22.3699C17.418 22.6211 17.2457 22.9983 16.8102 22.6254C14.6719 20.795 12.5251 18.9748 10.4727 16.9832C11.2777 17.1881 12.0819 17.3939 12.8869 17.5979C14.407 17.9846 15.952 17.5336 16.3789 16.5802C16.8367 15.56 16.3335 14.4077 14.9214 13.3824C14.3607 12.9751 13.7691 12.5713 13.1304 12.3192C12.1856 11.9454 12.364 11.5888 12.9109 10.9621C14.3084 9.3614 15.639 7.70158 16.9953 6.06577C18.5823 4.22419 20.2061 2.41091 21.7382 0.523888C22.3049 -0.173134 22.641 -0.146557 23.2574 0.437295C25.6099 2.66296 28.23 4.59199 30.4771 6.93683ZM22.5132 11.8614C21.661 11.8614 20.9288 11.8709 20.1967 11.8563C19.9583 11.852 19.5022 11.9377 19.6325 11.5382C19.8349 10.9141 19.4619 10.2179 19.93 9.64604C20.0123 9.54487 20.0869 9.33997 20.0398 9.24995C19.9206 9.02361 19.7251 9.0982 19.5717 9.24738C19.281 9.52944 18.9844 9.43428 18.7529 9.20537C18.3911 8.847 18.8446 8.68839 18.9921 8.46548C19.0967 8.30773 19.2853 8.15683 19.1061 7.97079C18.8781 7.7333 18.6877 7.93735 18.5283 8.0951C17.9487 8.66352 17.3743 9.23709 16.8059 9.81665C16.655 9.97097 16.3746 10.1544 16.5727 10.3799C16.8419 10.686 17.0399 10.3585 17.232 10.193C17.3494 10.0927 17.4472 9.96755 17.5706 9.87667C17.8707 9.65547 18.1742 9.72406 18.4065 9.96583C18.7049 10.2753 18.3122 10.4117 18.2016 10.6234C18.049 10.9183 17.3443 11.0709 17.7841 11.4859C18.1065 11.7903 18.2856 11.1627 18.5729 11.0255C18.6697 10.9792 18.7803 10.9595 18.9089 10.9209C18.9381 11.0547 19.0135 11.1867 18.9767 11.263C18.3525 12.5516 19.0821 12.6708 20.0955 12.603C20.5165 12.5747 20.9443 12.6347 21.3678 12.6665C21.8848 12.7051 22.2569 12.5224 22.5124 11.8614H22.5132Z" fill="#2775B3"/>
<path d="M15.2564 6.01865C14.7275 7.75478 13.3643 8.89419 12.2455 10.2059C11.9942 10.5009 11.5879 10.3611 11.2586 10.4434C10.836 10.5497 10.2067 10.1914 10.0738 11.0033C9.94348 11.804 10.487 11.9506 11.0306 12.1975C12.0843 12.6777 13.1165 13.2049 14.1479 13.7322C14.7035 14.016 15.157 14.4369 15.5831 14.8905C15.8917 15.2197 16.1447 15.5798 15.9295 16.0256C15.7177 16.4628 15.4982 16.8709 14.8715 16.9472C12.783 17.201 10.9706 16.3582 9.31076 15.3594C7.53177 14.2886 5.88566 13.1072 3.65828 13.5058C3.15159 13.5967 2.98784 13.3164 2.99641 12.8328C3.0307 10.9012 3.04357 8.96878 3.06414 7.03632C4.46762 7.1092 5.78793 6.81598 7.10995 6.32558C9.77458 5.33706 12.5069 5.22904 15.2564 6.0178V6.01865Z" fill="#1A5096"/>
<path d="M2.3337 6.73301C2.31998 9.08213 2.30197 11.4321 2.2934 13.7812C2.2874 15.5551 2.29254 15.5551 0.575281 15.5962C0.18176 12.6633 0.204909 9.70285 0.00343321 6.75702C-0.0222871 6.37464 0.0917402 6.13715 0.507553 6.22546C1.1257 6.35749 1.83129 6.18345 2.3337 6.73301Z" fill="#2775B3"/>
<path d="M24.1626 22.8804C25.0148 22.8804 25.8842 22.9876 26.7167 22.8573C28.3019 22.6095 29.3522 23.3631 30.3432 24.4408C32.0931 26.3424 33.2265 28.5466 33.8018 31.0544C33.9518 31.7094 33.9784 32.1655 33.0525 32.1312C30.8988 32.0515 28.7863 32.8188 26.6138 32.487C26.3669 32.4493 26.1208 32.613 25.8713 32.3455C24.8219 31.225 23.4665 31.1521 22.0304 31.1898C20.0199 31.243 17.8432 31.6314 16.0402 31.0064C14.2775 30.3951 12.8928 28.6915 11.3436 27.4664C10.7058 26.9614 10.0773 26.4436 9.43174 25.948C9.0485 25.6548 8.78187 25.3093 8.65755 24.8301C8.47408 24.1262 8.34805 23.4231 8.97306 22.8924C9.6555 22.312 10.3028 22.7441 10.8832 23.1222C12.5388 24.199 14.1823 25.2956 15.8078 26.4161C16.3771 26.8088 16.9558 26.9734 17.6485 26.958C19.3529 26.9194 21.059 26.9537 22.7635 26.9365C23.0661 26.9331 23.5694 27.1106 23.5496 26.5525C23.5342 26.1092 23.0901 26.2412 22.8106 26.2284C22.0759 26.1958 21.3385 26.2027 20.6029 26.1795C19.4558 26.1426 18.3533 25.2407 18.3919 24.3817C18.4279 23.5715 19.4069 22.8865 20.5592 22.8804C21.7604 22.8736 22.9615 22.8787 24.1635 22.8787L24.1626 22.8804Z" fill="#1A5096"/>
<path d="M30.0074 34.8817C28.6519 34.8817 27.2964 34.8748 25.941 34.886C25.5166 34.8894 25.1719 34.8757 25.2054 34.2918C25.2319 33.822 25.1411 33.3745 25.8492 33.3136C28.6536 33.0727 31.4563 32.7983 34.2572 32.5231C34.7022 32.4794 34.8479 32.6217 34.8959 33.077C35.0751 34.7822 35.004 34.8817 33.261 34.8808C32.1764 34.8808 31.0919 34.8808 30.0082 34.8808L30.0074 34.8817Z" fill="#2775B3"/>
<path d="M22.5159 11.8617C22.2595 12.5228 21.8874 12.7054 21.3713 12.6668C20.9478 12.6351 20.52 12.5751 20.099 12.6033C19.0856 12.6711 18.356 12.5519 18.9802 11.2633C19.017 11.1862 18.9416 11.055 18.9124 10.9212C18.7847 10.9598 18.6741 10.9787 18.5764 11.0258C18.2891 11.163 18.11 11.7906 17.7876 11.4862C17.3469 11.0713 18.0525 10.9187 18.2051 10.6237C18.3149 10.4111 18.7075 10.2748 18.41 9.96615C18.1768 9.72438 17.8742 9.65665 17.5741 9.87699C17.4507 9.96787 17.3529 10.0922 17.2355 10.1933C17.0426 10.3588 16.8454 10.6872 16.5762 10.3802C16.3781 10.1548 16.6585 9.97129 16.8094 9.81697C17.3778 9.23741 17.9522 8.66384 18.5318 8.09542C18.6921 7.93853 18.8824 7.73448 19.1096 7.97111C19.2888 8.15801 19.1011 8.30805 18.9956 8.4658C18.8473 8.68871 18.3937 8.84646 18.7564 9.20569C18.987 9.4346 19.2837 9.52976 19.5752 9.2477C19.7286 9.09852 19.9232 9.02307 20.0433 9.25027C20.0913 9.34115 20.0167 9.54605 19.9335 9.64636C19.4654 10.2182 19.8384 10.9135 19.636 11.5385C19.5066 11.9389 19.9618 11.8523 20.2002 11.8566C20.9323 11.8712 21.6645 11.8617 22.5167 11.8617H22.5159Z" fill="white"/>
</svg>
