<svg width="45" height="45" viewBox="0 0 45 45" fill="none" xmlns="http://www.w3.org/2000/svg">
<circle cx="22.5" cy="22.5" r="22.5" fill="#EEF4FF"/>
<path fill-rule="evenodd" clip-rule="evenodd" d="M19.2332 16.2045C19.3589 16.0732 19.5257 16 19.699 16C19.8724 16 20.0391 16.0732 20.1648 16.2045L25.6139 21.9893C25.7359 22.1168 25.833 22.2703 25.8994 22.4404C25.9658 22.6105 26 22.7936 26 22.9788C26 23.1639 25.9658 23.347 25.8994 23.5171C25.833 23.6872 25.7359 23.8407 25.6139 23.9682L20.1254 29.7957C19.8708 30.0652 19.4585 30.0687 19.2001 29.8027C19.1376 29.7393 19.0875 29.6625 19.0531 29.5769C19.0187 29.4914 19.0006 29.399 19 29.3054C18.9994 29.2119 19.0163 29.1192 19.0496 29.0332C19.083 28.9471 19.132 28.8695 19.1938 28.8052L24.2165 23.4733C24.2775 23.4095 24.3261 23.3328 24.3594 23.2477C24.3926 23.1626 24.4097 23.071 24.4097 22.9784C24.4097 22.8858 24.3926 22.7942 24.3594 22.7091C24.3261 22.624 24.2775 22.5473 24.2165 22.4835L19.2338 17.1936C19.1728 17.1299 19.1242 17.0532 19.091 16.9682C19.0578 16.8832 19.0407 16.7916 19.0407 16.6991C19.0407 16.6065 19.0578 16.515 19.091 16.43C19.1242 16.3449 19.1722 16.2682 19.2332 16.2045Z" fill="#09376E"/>
</svg>
