<svg width="30" height="32" viewBox="0 0 30 32" fill="none" xmlns="http://www.w3.org/2000/svg">
<path d="M13.8276 30.0676C14.2864 29.5034 14.7184 28.9915 15.1266 28.4624C15.3438 28.1799 15.6329 28.2558 15.9031 28.2558C19.1202 28.2509 22.3381 28.2533 25.5552 28.2525C27.3662 28.2525 28.1419 27.4834 28.1427 25.6862C28.1444 21.0998 28.1354 16.5135 28.155 11.9279C28.1574 11.4086 28.0121 11.2747 27.4993 11.2763C20.2821 11.2927 13.0649 11.2919 5.84775 11.2772C5.34886 11.2763 5.15861 11.3898 5.19046 11.9206C5.237 12.7003 5.18801 13.485 5.20842 14.2672C5.2174 14.6363 5.14228 14.8796 4.73811 14.9866C4.40579 15.0748 4.08408 15.2266 3.7787 15.3899C3.41045 15.5867 3.33533 15.4593 3.33696 15.0952C3.3484 12.4431 3.3043 9.79109 3.36473 7.14068C3.41617 4.89281 5.1284 3.28917 7.36647 3.26468C7.84495 3.25978 8.32425 3.24427 8.80109 3.26876C9.20608 3.28999 9.33836 3.12342 9.32285 2.73394C9.3008 2.19178 9.30325 1.64634 9.32448 1.10418C9.35061 0.447698 9.70743 0.0729166 10.2578 0.0769992C10.8081 0.0810818 11.1567 0.469744 11.1714 1.12214C11.1837 1.66512 11.1861 2.20892 11.1706 2.75191C11.1608 3.08994 11.2408 3.27121 11.6352 3.26958C14.9397 3.25896 18.2441 3.25896 21.5477 3.26958C21.9478 3.27039 22.0883 3.11526 22.0719 2.72823C22.0515 2.22934 22.0605 1.72881 22.0687 1.22829C22.0817 0.471377 22.4124 0.0737336 23.0109 0.0761831C23.5906 0.0786327 23.9279 0.498323 23.9434 1.25197C23.9524 1.68635 23.9826 2.12564 23.936 2.55513C23.8707 3.15772 24.1369 3.31449 24.6848 3.27203C25.16 3.23528 25.6409 3.25406 26.1186 3.26631C28.2538 3.32428 29.9783 5.02101 29.9848 7.15293C30.0044 13.4997 30.0036 19.8465 29.9848 26.1933C29.9783 28.3252 28.2619 30.097 26.1496 30.1166C22.1283 30.1534 18.1061 30.1272 14.0848 30.1248C14.0227 30.1248 13.9607 30.0995 13.8251 30.0701L13.8276 30.0676ZM16.6307 9.44571C18.4344 9.44571 20.2389 9.44571 22.0425 9.44571C23.8683 9.44571 25.694 9.43183 27.5197 9.45551C27.9998 9.46204 28.1893 9.31996 28.1566 8.8276C28.1207 8.28625 28.1656 7.74082 28.1378 7.19865C28.0741 5.96082 27.2307 5.15083 25.9928 5.1198C25.5364 5.10837 25.0792 5.13042 24.6235 5.11246C24.1932 5.09531 23.8911 5.10266 23.9001 5.70851C23.9075 6.23435 23.5327 6.60341 22.9611 6.57565C22.4328 6.55034 22.094 6.20496 22.1079 5.68728C22.1234 5.13777 21.8507 5.11 21.4293 5.11082C18.2343 5.12144 15.0393 5.12307 11.8442 5.11001C11.3886 5.10837 11.1216 5.14838 11.1396 5.72647C11.1551 6.20577 10.8056 6.53156 10.3125 6.57565C9.84542 6.61729 9.40286 6.35846 9.4094 5.91917C9.42328 4.98835 8.84518 5.09858 8.26546 5.11572C7.98294 5.12389 7.70043 5.11246 7.41791 5.11817C6.11067 5.14512 5.26149 5.9551 5.19372 7.26479C5.16759 7.76368 5.21985 8.26666 5.17821 8.7631C5.13167 9.30772 5.32845 9.46204 5.87143 9.45796C9.45757 9.43509 13.0437 9.44652 16.6299 9.44652L16.6307 9.44571Z" fill="#1A5096"/>
<path d="M7.74147 15.6387C11.9555 15.6273 15.5082 19.1375 15.5221 23.3254C15.5368 27.6023 11.9939 31.2031 7.77005 31.2048C3.55764 31.2072 0.0196781 27.6619 8.16735e-05 23.4193C-0.0195147 19.1775 3.48987 15.6493 7.74147 15.6387ZM8.03623 18.7709C8.03623 18.7668 8.03623 18.7627 8.03623 18.7586C7.12337 18.7586 6.2105 18.7602 5.29846 18.7586C4.77017 18.757 4.51215 19.1628 4.50154 19.5441C4.49255 19.8805 4.9449 19.7303 5.19884 19.7523C5.47891 19.7768 5.76305 19.758 6.04557 19.7597C6.60651 19.7637 7.11929 19.9107 7.54632 20.2904C7.62226 20.3582 7.72188 20.4684 7.71289 20.5476C7.69411 20.7158 7.52509 20.6897 7.40017 20.6905C6.74859 20.6938 6.09538 20.715 5.44461 20.6848C5.04207 20.666 4.79222 20.8375 4.58155 21.1469C4.34721 21.4915 4.40111 21.6417 4.84202 21.6368C5.7108 21.627 6.58039 21.6523 7.44998 21.6368C8.00847 21.6262 8.01745 21.8851 7.82639 22.2876C7.69983 22.5538 7.4908 22.7383 7.24666 22.8885C6.67102 23.2437 6.03822 23.3393 5.37194 23.3335C5.13842 23.3311 4.79058 23.158 4.68199 23.4903C4.57747 23.8112 4.57176 24.1648 4.83468 24.4718C5.82348 25.6255 6.82044 26.7735 7.76923 27.9599C8.1383 28.4213 8.54737 28.6082 9.10832 28.5299C9.27407 28.507 9.49698 28.6033 9.59333 28.4384C9.71744 28.2269 9.4929 28.0783 9.38104 27.9395C8.4943 26.8421 7.59287 25.757 6.69878 24.6645C6.26684 24.137 6.28481 24.1109 6.92659 23.9574C7.95948 23.71 8.87153 23.2666 9.26183 22.1945C9.41615 21.7707 9.63416 21.5772 10.0669 21.6442C10.547 21.7185 10.7716 21.4213 10.9814 21.0677C11.1316 20.8146 11.0696 20.7084 10.7871 20.706C10.4392 20.7027 10.0914 20.7044 9.74439 20.6978C9.23243 20.6889 9.14588 20.2153 9.11975 19.9172C9.09199 19.5988 9.49127 19.7801 9.68886 19.7776C10.1976 19.7703 10.6834 19.807 10.9618 19.2297C11.1235 18.8958 11.1202 18.7627 10.7095 18.7676C9.81869 18.7782 8.92787 18.7709 8.03623 18.7709Z" fill="#2775B3"/>
<path d="M8.03686 18.772C8.92768 18.772 9.8185 18.7794 10.7101 18.7687C11.1208 18.7638 11.1241 18.8969 10.9624 19.2309C10.684 19.8082 10.1982 19.7714 9.68949 19.7788C9.49189 19.782 9.09261 19.6 9.12038 19.9184C9.1465 20.2164 9.23306 20.69 9.74501 20.699C10.0928 20.7055 10.4407 20.7039 10.7877 20.7072C11.071 20.7096 11.1323 20.8158 10.982 21.0689C10.7722 21.4216 10.5476 21.7196 10.0675 21.6453C9.63478 21.5784 9.41677 21.7711 9.26245 22.1957C8.87216 23.2678 7.95929 23.7119 6.92721 23.9585C6.28543 24.112 6.26829 24.1382 6.69941 24.6656C7.59267 25.7581 8.49493 26.8433 9.38166 27.9407C9.49352 28.0795 9.71807 28.2273 9.59396 28.4396C9.49761 28.6045 9.2747 28.5082 9.10895 28.531C8.548 28.6086 8.13893 28.4224 7.76986 27.9611C6.82107 26.7747 5.8241 25.6267 4.8353 24.4729C4.57238 24.1659 4.57728 23.8132 4.68261 23.4915C4.79121 23.1592 5.13904 23.3323 5.37257 23.3347C6.03884 23.3412 6.67164 23.2457 7.24729 22.8897C7.49061 22.7395 7.70045 22.5549 7.82701 22.2887C8.0189 21.8862 8.00992 21.6274 7.4506 21.638C6.58183 21.6535 5.71224 21.6282 4.84265 21.638C4.40173 21.6429 4.34784 21.4926 4.58218 21.1481C4.79284 20.8386 5.0427 20.668 5.44524 20.6859C6.096 20.7161 6.7484 20.6949 7.40079 20.6916C7.5249 20.6916 7.69474 20.717 7.71352 20.5488C7.7225 20.4696 7.62289 20.3593 7.54695 20.2915C7.12073 19.9127 6.60714 19.7649 6.04619 19.7608C5.76368 19.7592 5.47953 19.778 5.19947 19.7535C4.94635 19.7314 4.49318 19.8817 4.50216 19.5453C4.51278 19.1639 4.7708 18.759 5.29908 18.7598C6.21195 18.7622 7.12481 18.7598 8.03686 18.7598C8.03686 18.7638 8.03686 18.7679 8.03686 18.772Z" fill="white"/>
</svg>
