<svg width="50" height="14" viewBox="0 0 50 14" fill="none" xmlns="http://www.w3.org/2000/svg">
<path d="M49.6897 2.37094C49.6842 2.35276 49.6787 2.33458 49.6715 2.31641C45.3652 2.31822 41.0607 2.31641 36.7562 2.31822C36.7453 2.33095 36.738 2.34367 36.7362 2.36003C36.7362 5.69928 36.7362 9.03669 36.7344 12.3759C36.7616 12.5541 36.8598 12.7159 36.9907 12.8377C36.9962 12.8395 37.0089 12.8412 37.0143 12.8431C37.0816 12.914 37.1779 12.9485 37.2688 12.9812C37.3361 12.9776 37.4015 13.0067 37.4688 12.9994H42.813C42.8639 12.9976 42.9166 13.0067 42.9657 12.9867C42.9675 12.9795 42.9693 12.9667 42.9711 12.9595C42.973 12.9504 42.9748 12.9304 42.9766 12.9195C43.0912 12.2796 43.202 11.638 43.3238 10.9981L43.3347 10.9163C42.8403 10.9145 42.3441 10.9163 41.8496 10.9145C41.7296 10.9108 41.6061 10.9145 41.4861 10.8999C41.2807 10.8908 41.0735 10.8981 40.8681 10.8781C40.6136 10.8781 40.3609 10.8545 40.1064 10.8545C39.9065 10.8345 39.7047 10.8418 39.5029 10.8327C39.3721 10.8163 39.2375 10.8236 39.1049 10.8181C38.8885 10.7945 38.6686 10.8109 38.4523 10.7872C38.2232 10.7891 37.9942 10.769 37.7652 10.7636C37.767 10.7618 37.7688 10.7545 37.7688 10.7527C37.8451 10.7545 37.9197 10.749 37.996 10.7472C38.1651 10.7254 38.3359 10.74 38.505 10.7163C38.6813 10.7163 38.8558 10.6927 39.0321 10.6927C39.1885 10.6709 39.3466 10.6836 39.5029 10.6618C39.6865 10.6618 39.8665 10.6382 40.0501 10.6363C40.201 10.6163 40.3537 10.6272 40.5045 10.6072C40.6809 10.6091 40.8554 10.5818 41.0317 10.5836C41.2044 10.5636 41.3807 10.569 41.5534 10.5509C41.537 10.4836 41.5243 10.4164 41.5098 10.3491C41.497 10.3073 41.4461 10.3164 41.4134 10.3109C41.019 10.2545 40.6263 10.1982 40.2337 10.1437C40.2591 10.1237 40.2937 10.1327 40.3228 10.1291C40.6281 10.1055 40.9317 10.0782 41.2371 10.0564C41.3062 10.0528 41.3734 10.0401 41.4425 10.0382C41.4116 9.94374 41.3934 9.8401 41.3516 9.75287C40.6991 9.65289 40.0465 9.56382 39.3957 9.45655C39.5648 9.42929 39.7356 9.41658 39.9047 9.3984L39.9192 9.39293C40.4591 9.33654 41.0008 9.27292 41.5407 9.22024C42.2259 9.21663 42.9095 9.21839 43.5948 9.22024C43.6165 9.21663 43.6547 9.22748 43.6584 9.1966C43.7147 8.90213 43.7693 8.60767 43.8256 8.31316C43.9037 7.9042 44.0273 7.50063 44.2182 7.12799C44.5181 6.52813 44.9926 6.01915 45.5706 5.68106C46.1105 5.36477 46.7358 5.21208 47.3575 5.18299C47.5593 5.16482 47.7629 5.17027 47.9628 5.19572C48.0937 5.22662 48.2282 5.26298 48.3318 5.35205C48.4173 5.42112 48.4682 5.52292 48.5063 5.62471C48.59 5.86648 48.6372 6.11733 48.6772 6.37C48.679 6.47179 48.6972 6.58631 48.6427 6.67902C48.5918 6.76991 48.49 6.81353 48.3936 6.8408C48.0428 6.93169 47.6756 6.84624 47.3248 6.93169C47.0358 6.99349 46.7667 7.15344 46.5831 7.38431C46.3668 7.65333 46.2523 7.98776 46.1887 8.32228C46.1396 8.6204 46.0778 8.91849 46.0287 9.21843C46.3741 9.22028 46.7213 9.21661 47.0685 9.22028C47.2066 9.22028 47.3484 9.29661 47.4048 9.42747C47.4775 9.59472 47.4611 9.78379 47.4375 9.9601C47.4084 10.1582 47.3611 10.3545 47.2721 10.5363C47.1975 10.6908 47.0739 10.8326 46.9049 10.8872C46.8176 10.9217 46.7231 10.9144 46.6304 10.9144C46.325 10.9144 46.0196 10.918 45.7142 10.9144C45.6652 11.138 45.6324 11.3671 45.5888 11.5943C45.5089 12.036 45.4307 12.4795 45.3507 12.9231C45.3489 12.9376 45.347 12.9685 45.347 12.9849C45.4906 12.9921 45.6343 12.9849 45.7779 12.9885C46.8431 12.9885 47.9101 12.9866 48.9771 12.9885C49.0917 12.9921 49.208 12.9649 49.308 12.9085C49.368 12.8867 49.4043 12.834 49.457 12.8049C49.5079 12.7758 49.5225 12.7159 49.5661 12.6777C49.6134 12.594 49.6624 12.5068 49.6661 12.4086C49.6715 12.4086 49.6861 12.4068 49.6933 12.405C49.6878 9.06034 49.6933 5.71564 49.6897 2.37094Z" fill="url(#paint0_linear_546_559)" stroke="#FCD109" stroke-width="0.094"/>
<path d="M38.4248 0.170594C38.5793 0.121515 38.7411 0.154235 38.8993 0.143328C41.8677 0.145146 44.8361 0.143328 47.8045 0.143328C47.9808 0.136057 48.1353 0.236034 48.2989 0.286932C48.4298 0.339647 48.5661 0.381456 48.697 0.437807C48.7243 0.448713 48.7443 0.472345 48.7642 0.49234C48.7624 0.732286 48.7642 0.974049 48.7642 1.21581C48.7661 1.27943 48.7551 1.34487 48.777 1.40668C48.8152 1.41213 48.8351 1.44122 48.8606 1.46485C48.9806 1.51938 49.0823 1.60845 49.1914 1.68116C49.355 1.7975 49.5296 1.89929 49.6895 2.01927C49.6967 2.06653 49.6913 2.11561 49.6768 2.15924C49.6604 2.21013 49.6713 2.26467 49.6658 2.31556C45.3595 2.31738 41.0551 2.31556 36.7506 2.31738C36.7415 2.2574 36.7579 2.19741 36.7324 2.14106C36.7288 2.0938 36.7124 2.03199 36.7579 1.99927C36.9396 1.87203 37.1323 1.75751 37.3104 1.62299C37.4213 1.5521 37.5286 1.47939 37.6358 1.40668C37.6576 1.37032 37.6503 1.32488 37.6503 1.28489C37.6503 1.02131 37.6503 0.757735 37.6522 0.494158C37.714 0.414176 37.8213 0.405087 37.9067 0.365096C38.0794 0.299656 38.2539 0.236034 38.4248 0.170594ZM38.4357 0.201497C38.203 0.290567 37.9685 0.376003 37.7359 0.465073C37.705 0.470527 37.6886 0.497793 37.6722 0.521424C37.6741 0.535966 37.6759 0.561415 37.6759 0.575957C37.674 0.79409 37.6759 1.01222 37.674 1.23035C37.6759 1.28489 37.6686 1.33942 37.6886 1.3885C37.6649 1.41213 37.6395 1.43576 37.6104 1.45394C37.3468 1.62481 37.0923 1.81022 36.8288 1.97928C36.7833 2.00654 36.7324 2.0429 36.747 2.10288C36.7379 2.1356 36.7542 2.16287 36.7888 2.15378C37.3595 2.15015 37.9285 2.15742 38.4993 2.14833C39.3482 2.14833 40.1953 2.15015 41.0442 2.14833L41.0569 2.14288C41.0951 2.15196 41.1332 2.14833 41.1732 2.14833C42.7111 2.14833 44.2489 2.15015 45.7885 2.14833C46.2721 2.15015 46.7574 2.14833 47.2427 2.14833C48.0426 2.14833 48.8442 2.1556 49.644 2.15196C49.6677 2.14651 49.6749 2.13015 49.6658 2.10107C49.664 2.07198 49.6749 2.03199 49.644 2.01381C49.5168 1.95383 49.4077 1.86112 49.2859 1.78841C49.2423 1.75206 49.186 1.73206 49.1532 1.68298C49.0278 1.61209 48.9115 1.52483 48.7878 1.44667C48.7642 1.43213 48.746 1.4085 48.7261 1.3885C48.737 1.35033 48.7406 1.30852 48.7406 1.26853C48.7388 1.03767 48.7406 0.806814 48.7388 0.575957C48.7442 0.539602 48.7424 0.497793 48.7097 0.474162C48.4915 0.395998 48.2753 0.312381 48.0589 0.232399C47.9916 0.199679 47.9171 0.181501 47.8444 0.170594H38.5538C38.5139 0.172412 38.4757 0.192408 38.4357 0.201497Z" fill="#F8F3B5" stroke="#F8F3B5" stroke-width="0.094"/>
<path d="M37.6776 0.576172C37.8376 0.643429 38.0084 0.681603 38.1703 0.747042C38.2575 0.78158 38.2848 0.876104 38.3229 0.95245C38.2847 0.990624 38.2393 1.02153 38.1938 1.05061C38.0266 1.16331 37.8557 1.27238 37.6903 1.38872C37.6703 1.33964 37.6776 1.2851 37.6758 1.23057C37.6776 1.01244 37.6758 0.794304 37.6776 0.576172ZM48.2479 0.747042C48.4097 0.68342 48.5788 0.639794 48.7406 0.576172C48.7424 0.807029 48.7406 1.03789 48.7424 1.26874C48.7424 1.30873 48.7388 1.35054 48.7279 1.38872C48.5861 1.29056 48.4425 1.19785 48.3007 1.10151C48.2316 1.05061 48.1553 1.01244 48.0935 0.950633C48.1316 0.874286 48.1607 0.78158 48.2479 0.747042Z" fill="#F7B402" stroke="#F7B402" stroke-width="0.094"/>
<path d="M40.4525 0.820427C40.6524 0.773165 40.876 0.951306 40.8596 1.16035C40.8615 1.36576 40.6451 1.53299 40.447 1.48573C40.367 1.45846 40.2906 1.41666 40.2416 1.34576C40.178 1.24942 40.1634 1.12036 40.2143 1.01493C40.2507 0.913133 40.3489 0.844058 40.4525 0.820427ZM45.6386 0.934946C45.7222 0.84224 45.8549 0.789525 45.9785 0.822245C46.0712 0.849511 46.1621 0.909498 46.2021 1.00039C46.2821 1.15671 46.2203 1.36758 46.0639 1.44938C45.9257 1.52572 45.7513 1.48937 45.6458 1.37848C45.5386 1.25669 45.5313 1.05674 45.6386 0.934946Z" fill="#BDA727" stroke="#BDA727" stroke-width="0.094"/>
<path d="M38.1977 1.05115C38.2431 1.02206 38.2885 0.991163 38.3268 0.95299L38.3394 0.965714C38.3522 1.06024 38.3431 1.15658 38.3467 1.2511C38.3413 1.53468 38.3522 1.82007 38.3394 2.10364C37.8105 2.10364 37.2815 2.1 36.7525 2.10364C36.738 2.04365 36.7889 2.0073 36.8343 1.98003C37.0979 1.81098 37.3524 1.62556 37.616 1.45469C37.6451 1.43652 37.6705 1.41289 37.6941 1.38925C37.8596 1.27292 38.0304 1.16385 38.1977 1.05115ZM48.079 1.01479C48.079 0.991163 48.0845 0.971167 48.0972 0.951172C48.159 1.01298 48.2354 1.05115 48.3044 1.10205C48.4462 1.19839 48.5898 1.29109 48.7316 1.38925C48.7516 1.40925 48.7698 1.43288 48.7934 1.44742C48.917 1.52559 49.0333 1.61284 49.1588 1.68373C49.1915 1.73281 49.2478 1.75281 49.2915 1.78916C49.4133 1.86188 49.5223 1.95458 49.6496 2.01457C49.6805 2.03275 49.6696 2.07274 49.6714 2.10182C49.1424 2.10364 48.6152 2.1 48.0863 2.10364C48.0772 2.03093 48.0827 1.95822 48.0808 1.88732C48.0809 1.59648 48.0772 1.30564 48.079 1.01479Z" fill="#F7E62D" stroke="#F7E62D" stroke-width="0.094"/>
<path d="M49.6714 2.10039C49.1424 2.10221 48.6153 2.09858 48.0863 2.10221C48.0773 2.0295 48.0827 1.95679 48.0809 1.8859C48.0809 1.59505 48.0773 1.30421 48.079 1.01337C48.079 0.989737 48.0845 0.969741 48.0972 0.949746C48.1354 0.873399 48.1645 0.780693 48.2517 0.746155C48.4135 0.682533 48.5826 0.638907 48.7444 0.575285C48.7498 0.538929 48.748 0.497121 48.7153 0.47349C48.4971 0.395326 48.2809 0.311708 48.0645 0.231726C47.9972 0.199006 47.9227 0.180829 47.85 0.169922H38.5594C38.5194 0.17174 38.4812 0.191735 38.4412 0.200824C38.2085 0.289895 37.9741 0.37533 37.7414 0.464401C37.7105 0.469854 37.6941 0.497121 37.6778 0.520752C37.6796 0.535294 37.6814 0.560743 37.6814 0.575285C37.8414 0.642542 38.0122 0.680716 38.174 0.746155C38.2613 0.780693 38.2885 0.875217 38.3267 0.951563L38.3394 0.964288C38.3521 1.05881 38.343 1.15515 38.3467 1.24968C38.3412 1.53325 38.3521 1.81864 38.3394 2.10221C37.8104 2.10221 37.2815 2.09858 36.7525 2.10221C36.7434 2.13493 36.7597 2.1622 36.7943 2.15311C37.3651 2.14947 37.934 2.15675 38.5048 2.14766C39.3537 2.14766 40.2008 2.14947 41.0497 2.14766L41.0624 2.1422C41.1006 2.15129 41.1388 2.14766 41.1787 2.14766C42.7166 2.14766 44.2544 2.14947 45.7941 2.14766C46.2776 2.14947 46.7629 2.14766 47.2483 2.14766C48.0481 2.14766 48.8497 2.15493 49.6496 2.15129C49.6733 2.14584 49.6805 2.12948 49.6714 2.10039ZM40.2172 1.01519C40.2536 0.91339 40.3517 0.844315 40.4553 0.820684C40.6553 0.773422 40.8789 0.951563 40.8625 1.16061C40.8643 1.36602 40.648 1.53325 40.4499 1.48599C40.3699 1.45872 40.2935 1.41691 40.2445 1.34602C40.1809 1.24968 40.1663 1.12062 40.2172 1.01519ZM45.6414 0.935203C45.7251 0.842497 45.8578 0.789782 45.9814 0.822502C46.0741 0.849768 46.165 0.909755 46.205 1.00064C46.2849 1.15697 46.2231 1.36783 46.0668 1.44963C45.9286 1.52598 45.7542 1.48962 45.6487 1.37874C45.5415 1.25695 45.5342 1.05699 45.6414 0.935203Z" fill="url(#paint1_radial_546_559)" stroke="#FCD109" stroke-width="0.094"/>
<path d="M46.1017 2.89979C46.1271 2.90524 45.9692 2.74808 46.0001 2.74081C46.0292 2.74444 46.1395 2.65884 46.2728 2.72868C46.4061 2.79852 46.373 2.96196 46.3579 3.02256C46.3399 3.09469 46.294 3.14072 46.2576 3.17707C46.2376 3.19343 46.1928 3.21888 46.1655 3.21706C46.1819 3.12799 46.1292 3.11345 46.1255 3.02256L46.1017 2.89979Z" fill="url(#paint2_linear_546_559)" stroke="#FCD109" stroke-width="0.094"/>
<path d="M40.2903 2.99914C40.2866 3.09002 40.2339 3.10457 40.2503 3.19364C40.223 3.19545 40.1782 3.17001 40.1582 3.15365C40.1218 3.11729 40.076 3.07126 40.0579 2.99914C40.0428 2.93855 40.0097 2.77511 40.143 2.70526C40.2763 2.6354 40.3866 2.721 40.4157 2.71738C40.4466 2.72465 40.2887 2.88182 40.3141 2.87636L40.2903 2.99914Z" fill="url(#paint3_linear_546_559)" stroke="#FCD109" stroke-width="0.094"/>
<path d="M45.8642 4.06476C45.8916 4.04102 45.9098 4.04102 45.9461 4.04102C45.728 4.51364 45.4735 4.98626 45.0909 5.35423C45.05 5.39076 45.0067 5.42463 44.9615 5.45562C44.9177 5.48767 44.8747 5.51774 44.832 5.54837C44.7902 5.5774 44.7487 5.60659 44.7082 5.63704C44.6046 5.69339 44.5137 5.77157 44.3992 5.80609C44.1901 5.90607 43.9648 5.97332 43.7375 6.02059C43.6485 6.03515 43.5576 6.05694 43.4667 6.05876C43.354 6.0915 43.234 6.06785 43.1195 6.07512C43.0559 6.08603 42.9995 6.04967 42.9377 6.05694C42.8841 6.04936 42.8306 6.04027 42.7774 6.02966C42.7235 6.01863 42.6699 6.00591 42.6167 5.9915C41.7834 5.73154 40.9654 5.09532 40.7271 4.23488C40.7164 4.17693 40.711 4.11813 40.7109 4.05919C40.7364 4.11009 40.7627 4.16063 40.79 4.21069C41.129 4.9499 41.8016 5.53159 42.5962 5.70698C42.6607 5.7364 42.7305 5.72609 42.7923 5.75154C42.8487 5.75154 42.9032 5.74972 42.9577 5.7679C43.145 5.77152 43.3322 5.76972 43.5194 5.76972C43.5448 5.77153 43.5685 5.75881 43.5939 5.75336C43.906 5.74278 44.2117 5.65767 44.4964 5.52861C44.5534 5.50279 44.6095 5.47522 44.6646 5.44613C44.7129 5.42073 44.76 5.39321 44.8058 5.36364C44.8508 5.33463 44.8946 5.30372 44.937 5.27101C45.2735 5.00443 45.5644 4.65906 45.7619 4.26189C45.7995 4.19042 45.8339 4.12423 45.8642 4.06476Z" fill="#BDA727" stroke="#BDA727" stroke-width="0.094"/>
<path d="M45.5644 5.68065C46.1043 5.36436 46.7296 5.21166 47.3513 5.18258C47.5531 5.1644 47.7567 5.16985 47.9566 5.1953C48.0875 5.22621 48.222 5.26256 48.3256 5.35163C48.2729 5.35527 48.222 5.33164 48.1693 5.32437C48.0202 5.29528 47.8657 5.30619 47.7149 5.30255C47.2767 5.30255 46.8351 5.33709 46.4115 5.45706C46.1897 5.52432 45.968 5.60248 45.7662 5.71882C45.4172 5.9115 45.1027 6.16599 44.8482 6.47138C44.3938 6.9931 44.1266 7.65475 43.9975 8.32916C43.9357 8.69086 43.8648 9.05076 43.8085 9.41431C43.7176 9.4234 43.6249 9.41797 43.534 9.41797C43.1341 9.41615 42.7342 9.41431 42.3343 9.41073C42.2488 9.41431 42.1652 9.39437 42.0798 9.39979C41.3527 9.40341 40.6255 9.39797 39.8984 9.39797L39.913 9.3925C40.4529 9.33611 40.9946 9.27249 41.5344 9.21981C42.2197 9.21619 42.9032 9.21796 43.5885 9.21981C43.6103 9.21619 43.6485 9.22705 43.6521 9.19616C43.7085 8.9017 43.763 8.60724 43.8193 8.31273C43.8975 7.90378 44.0211 7.50022 44.212 7.12758C44.5119 6.52771 44.9864 6.01874 45.5644 5.68065Z" fill="#0D69B3" stroke="#0D69B3" stroke-width="0.094"/>
<path d="M46.4181 5.45724C46.8416 5.33727 47.2834 5.30273 47.7214 5.30273C47.8723 5.30637 48.0268 5.29546 48.1759 5.32455C48.2286 5.33182 48.2795 5.35545 48.3322 5.35181C48.4177 5.42089 48.4686 5.52268 48.5067 5.62448C48.5904 5.86624 48.6376 6.1171 48.6776 6.36977C48.6794 6.47156 48.6976 6.58608 48.6431 6.67879C48.5922 6.76968 48.4904 6.8133 48.394 6.84057C48.0432 6.93146 47.676 6.846 47.3252 6.93146C47.0362 6.99326 46.7671 7.15321 46.5835 7.38408C46.3672 7.65309 46.2527 7.98753 46.1891 8.32205C46.14 8.62017 46.0782 8.91826 46.0291 9.21819C46.0073 9.28547 45.9946 9.35818 45.9818 9.42909C46.3254 9.43456 46.669 9.42909 47.0125 9.43271C47.1434 9.42909 47.2742 9.43633 47.4052 9.42724C47.4779 9.59449 47.4615 9.78356 47.4379 9.95986C47.4088 10.158 47.3615 10.3543 47.2725 10.5361C47.1979 10.6906 47.0743 10.8324 46.9053 10.8869C46.818 10.9215 46.7235 10.9142 46.6308 10.9142C46.3254 10.9142 46.02 10.9178 45.7146 10.9142C45.6655 11.1378 45.6328 11.3668 45.5892 11.594C45.5093 12.0357 45.4311 12.4793 45.3511 12.9228C45.3493 12.9374 45.3474 12.9683 45.3474 12.9846V12.9865C44.5531 12.9865 43.7605 12.9883 42.9662 12.9865C42.968 12.9792 42.9698 12.9665 42.9716 12.9592C42.9735 12.9501 42.9752 12.9301 42.9771 12.9192C42.9789 12.9338 42.9807 12.961 42.9826 12.9737C43.0316 12.9792 43.1207 13.0046 43.1334 12.9338C43.257 12.2648 43.3716 11.5922 43.4988 10.9233C43.4497 10.9124 43.3988 10.9124 43.3479 10.9215C43.3407 10.9469 43.3334 10.9723 43.3243 10.9978L43.3352 10.916C42.8408 10.9141 42.3445 10.916 41.8501 10.9141C41.7301 10.9106 41.6065 10.9141 41.4866 10.8996C41.2812 10.8905 41.0739 10.8978 40.8685 10.8778C40.614 10.8778 40.3614 10.8542 40.1069 10.8542C39.9069 10.8342 39.7052 10.8414 39.5034 10.8323C39.3725 10.816 39.238 10.8232 39.1053 10.8178C38.889 10.7942 38.6691 10.8106 38.4527 10.7869C38.2237 10.7887 37.9947 10.7687 37.7656 10.7633C37.7674 10.7615 37.7693 10.7542 37.7693 10.7524C37.8456 10.7542 37.9201 10.7487 37.9965 10.7469C38.1655 10.7251 38.3364 10.7396 38.5055 10.716C38.6818 10.716 38.8563 10.6924 39.0326 10.6924C39.1889 10.6706 39.3471 10.6833 39.5034 10.6615C39.687 10.6615 39.8669 10.6378 40.0506 10.636C40.2014 10.616 40.3541 10.6269 40.505 10.607C40.6813 10.6088 40.8558 10.5815 41.0322 10.5833C41.2048 10.5633 41.3811 10.5687 41.5538 10.5506C41.5375 10.4833 41.5247 10.4161 41.5102 10.3488C41.4975 10.307 41.4466 10.3161 41.4139 10.3106C41.0194 10.2542 40.6268 10.1979 40.2342 10.1434C40.2596 10.1233 40.2941 10.1324 40.3232 10.1288C40.6286 10.1052 40.9322 10.0779 41.2376 10.0561C41.3066 10.0525 41.3739 10.0398 41.443 10.038C41.4121 9.94341 41.3939 9.83982 41.3521 9.75255C40.6995 9.65257 40.0469 9.5635 39.3962 9.45627C39.5652 9.429 39.7361 9.41626 39.9051 9.39808C40.6322 9.39808 41.3594 9.40355 42.0865 9.3999C42.1719 9.39446 42.2555 9.41446 42.341 9.41084C42.7409 9.41446 43.1408 9.41631 43.5407 9.41808C43.6316 9.41808 43.7243 9.42355 43.8152 9.41446C43.8715 9.05091 43.9424 8.69097 44.0042 8.32927C44.1333 7.65484 44.4005 6.99321 44.8549 6.47152C45.1094 6.16612 45.4239 5.91163 45.7729 5.71895C45.9746 5.60267 46.1963 5.5245 46.4181 5.45724Z" fill="#107BD4" stroke="#107BD4" stroke-width="0.094"/>
<path d="M46.0247 9.2168C46.3701 9.21865 46.7173 9.21498 47.0645 9.21865C47.2026 9.21865 47.3444 9.29498 47.4007 9.42584C47.2699 9.43493 47.139 9.42769 47.0081 9.43131C46.6645 9.42769 46.321 9.43317 45.9774 9.42769C45.9902 9.35678 46.0028 9.28407 46.0247 9.2168ZM43.3435 10.9201C43.3944 10.911 43.4453 10.911 43.4944 10.9219C43.3671 11.5908 43.2526 12.2634 43.129 12.9324C43.1163 13.0032 43.0272 12.9778 42.9781 12.9723C42.9763 12.9596 42.9745 12.9324 42.9727 12.9178C43.0872 12.278 43.198 11.6363 43.3199 10.9964C43.3289 10.9709 43.3362 10.9455 43.3435 10.9201Z" fill="#0D69B3" stroke="#0D69B3" stroke-width="0.094"/>
<path d="M46.1825 2.95024C46.168 2.92297 46.1662 2.89025 46.1662 2.85935L46.1516 2.86117C46.1298 2.78119 46.0626 2.70484 45.9753 2.7012C45.9099 2.69575 45.8281 2.69757 45.7899 2.75937C45.7172 2.85753 45.7517 2.98296 45.7481 3.09384C45.7481 3.10111 45.7499 3.11384 45.7499 3.12111C45.7499 3.19564 45.7408 3.26835 45.7281 3.34106C45.7172 3.36287 45.7118 3.3865 45.7118 3.41195C45.6809 3.58282 45.619 3.75188 45.5355 3.90639C45.5191 3.9282 45.5063 3.95183 45.5009 3.97728C45.4464 4.0718 45.381 4.15906 45.3137 4.24631C45.3028 4.2554 45.2937 4.26631 45.2846 4.27721C45.2373 4.33538 45.1865 4.38446 45.1337 4.43536C45.121 4.44263 45.1119 4.45172 45.101 4.45899C45.0392 4.51898 44.9701 4.57533 44.8956 4.62077C44.8865 4.62622 44.8774 4.63349 44.8665 4.64077C44.4011 4.94797 43.8358 5.07521 43.285 5.08067C42.8179 5.09521 42.347 4.99523 41.9253 4.79346C41.9181 4.78982 41.8999 4.78255 41.8926 4.77892C41.8217 4.74074 41.749 4.70802 41.6835 4.66076C41.669 4.65349 41.6544 4.6444 41.6381 4.63713C41.5708 4.59714 41.5072 4.55351 41.4472 4.50262C41.4272 4.48444 41.4054 4.4699 41.3836 4.45354C41.3182 4.40082 41.2509 4.34447 41.1946 4.28085C41.18 4.26449 41.1655 4.24995 41.151 4.2354C40.9529 4.03 40.7984 3.77914 40.7166 3.50648C40.6384 3.29016 40.6493 3.05385 40.6402 2.82663C40.5747 2.72665 40.4366 2.6703 40.3275 2.73211C40.2821 2.76483 40.2767 2.82481 40.2421 2.86662C40.1858 3.46649 40.4421 4.06453 40.8511 4.49716C40.8511 4.5117 40.8583 4.52079 40.8711 4.52625C40.9438 4.5935 41.0147 4.66258 41.0874 4.72802C41.1001 4.74074 41.1146 4.75347 41.131 4.76437C41.2037 4.82436 41.2819 4.87889 41.3582 4.93525C41.3728 4.94615 41.3873 4.95524 41.4037 4.96433C41.5036 5.0225 41.5981 5.09157 41.7054 5.13156C41.7127 5.13702 41.7254 5.14611 41.7327 5.14974C42.0781 5.31516 42.4507 5.42786 42.8324 5.46422C42.8742 5.46422 42.9161 5.46785 42.9579 5.47694C43.1396 5.48785 43.3214 5.48239 43.5032 5.47876C44.0648 5.42968 44.6448 5.29335 45.1137 4.96251L45.1192 4.96978C45.1337 4.95706 45.1465 4.94615 45.161 4.93525C45.2356 4.88071 45.3083 4.82254 45.381 4.76256C45.3973 4.74983 45.4155 4.73529 45.4319 4.71893C45.5118 4.63168 45.6046 4.5517 45.6718 4.45172L45.6827 4.45717C45.6882 4.44808 45.6973 4.4299 45.7028 4.42082C45.7645 4.3372 45.8209 4.24995 45.8755 4.16269C45.8791 4.15724 45.8881 4.14815 45.8918 4.1427L45.8845 4.13543C45.89 4.12815 45.9027 4.11361 45.9082 4.10634C46.0082 3.90275 46.0972 3.69007 46.1281 3.46467C46.1409 3.45921 46.1481 3.44831 46.1481 3.43558C46.15 3.36287 46.1754 3.2938 46.1682 3.22109C46.1843 3.13202 46.1862 3.04113 46.1825 2.95024Z" fill="white" stroke="white" stroke-width="0.094"/>
<mask id="mask0_546_559" style="mask-type:luminance" maskUnits="userSpaceOnUse" x="40" y="2" width="7" height="4">
<path d="M46.1864 2.95024C46.1719 2.92297 46.1701 2.89025 46.1701 2.85935L46.1555 2.86117C46.1337 2.78119 46.0665 2.70484 45.9792 2.7012C45.9138 2.69575 45.832 2.69757 45.7938 2.75937C45.7211 2.85753 45.7556 2.98296 45.752 3.09384C45.752 3.10111 45.7538 3.11384 45.7538 3.12111C45.7538 3.19564 45.7447 3.26835 45.732 3.34106C45.7211 3.36287 45.7157 3.3865 45.7157 3.41195C45.6848 3.58282 45.6229 3.75188 45.5394 3.90639C45.523 3.9282 45.5102 3.95183 45.5048 3.97728C45.4503 4.0718 45.3849 4.15906 45.3176 4.24631C45.3067 4.2554 45.2976 4.26631 45.2885 4.27721C45.2412 4.33538 45.1904 4.38446 45.1376 4.43536C45.1249 4.44263 45.1158 4.45172 45.1049 4.45899C45.0431 4.51898 44.974 4.57533 44.8995 4.62077C44.8904 4.62622 44.8813 4.63349 44.8704 4.64077C44.405 4.94797 43.8397 5.07521 43.2889 5.08067C42.8218 5.09521 42.3509 4.99523 41.9292 4.79346C41.922 4.78982 41.9038 4.78255 41.8965 4.77892C41.8256 4.74074 41.7529 4.70802 41.6874 4.66076C41.6729 4.65349 41.6584 4.6444 41.642 4.63713C41.5747 4.59714 41.5111 4.55351 41.4511 4.50262C41.4311 4.48444 41.4093 4.4699 41.3875 4.45354C41.3221 4.40082 41.2548 4.34447 41.1985 4.28085C41.184 4.26449 41.1694 4.24995 41.1549 4.2354C40.9568 4.03 40.8023 3.77914 40.7205 3.50648C40.6423 3.29016 40.6532 3.05385 40.6441 2.82663C40.5786 2.72665 40.4405 2.6703 40.3315 2.73211C40.286 2.76483 40.2806 2.82481 40.246 2.86662C40.1897 3.46649 40.446 4.06453 40.855 4.49716C40.855 4.5117 40.8622 4.52079 40.875 4.52625C40.9477 4.5935 41.0186 4.66258 41.0913 4.72802C41.104 4.74074 41.1185 4.75347 41.1349 4.76437C41.2076 4.82436 41.2858 4.87889 41.3621 4.93525C41.3767 4.94615 41.3912 4.95524 41.4076 4.96433C41.5076 5.0225 41.602 5.09157 41.7093 5.13156C41.7166 5.13702 41.7293 5.14611 41.7366 5.14974C42.082 5.31516 42.4546 5.42786 42.8363 5.46422C42.8782 5.46422 42.92 5.46785 42.9618 5.47694C43.1435 5.48785 43.3253 5.48239 43.5071 5.47876C44.0688 5.42968 44.6487 5.29335 45.1176 4.96251L45.1231 4.96978C45.1376 4.95706 45.1504 4.94615 45.1649 4.93525C45.2395 4.88071 45.3122 4.82254 45.3849 4.76256C45.4012 4.74983 45.4194 4.73529 45.4358 4.71893C45.5158 4.63168 45.6085 4.5517 45.6757 4.45172L45.6866 4.45717C45.6921 4.44808 45.7012 4.4299 45.7067 4.42082C45.7684 4.3372 45.8248 4.24995 45.8794 4.16269C45.883 4.15724 45.8921 4.14815 45.8957 4.1427L45.8885 4.13543C45.8939 4.12815 45.9066 4.11361 45.9121 4.10634C46.0121 3.90275 46.1011 3.69007 46.132 3.46467C46.1448 3.45921 46.152 3.44831 46.152 3.43558C46.1539 3.36287 46.1793 3.2938 46.1721 3.22109C46.1882 3.13202 46.1901 3.04113 46.1864 2.95024Z" fill="white"/>
</mask>
<g mask="url(#mask0_546_559)">
<path d="M40.1055 2.8896C40.2528 2.93583 40.5913 2.81953 40.6872 2.92596M40.1903 3.33797C40.3315 3.28884 40.6343 3.1725 40.7599 3.24103M40.3357 3.78636C40.404 3.80847 40.5385 3.68855 40.6054 3.65341C40.7048 3.60111 40.8068 3.56103 40.9174 3.544M40.5539 4.25898C40.6243 4.15893 40.7085 4.07584 40.8102 4.00477C40.911 3.93435 41.1868 3.74619 41.3052 3.81059M40.7599 4.59831C40.8398 4.53478 40.8723 4.4224 40.9562 4.35565C41.0577 4.27491 41.2132 4.26042 41.3173 4.2105M41.1022 4.84974C41.1261 4.674 41.3046 4.46192 41.4749 4.4771M41.3658 5.09516C41.4558 5.08614 41.5319 4.88473 41.5927 4.81648C41.6839 4.71423 41.7784 4.68278 41.899 4.64677M41.8869 5.31329C41.881 5.18612 42.0125 4.82149 42.1656 4.84067M42.2747 5.43448C42.2683 5.28419 42.346 4.83213 42.5292 4.81644M42.6746 5.67684C42.6398 5.46667 42.6421 5.16263 42.8079 5.01032M43.1714 5.72532C43.153 5.55013 42.9789 5.19597 43.1714 5.0588M43.7046 5.60413C43.6215 5.50777 43.5732 5.12768 43.6077 5.02245M44.2136 5.5193C44.1495 5.40291 44.0701 5.2936 44.0458 5.15849C44.0313 5.07774 44.0567 4.96272 44.0439 4.90126M44.6378 5.33752C44.4987 5.24658 44.4601 4.91233 44.5045 4.76796M45.0498 5.15574C44.9509 4.94359 44.8455 4.7791 44.8438 4.5377M45.4497 4.76796C45.296 4.66458 45.0999 4.47666 45.1225 4.27111M45.8739 4.44076C45.6404 4.38903 45.3602 4.18011 45.2195 3.99237M46.0677 4.04085C45.8993 4.00473 45.3428 3.7876 45.377 3.56823M46.2495 3.61671C46.0148 3.53067 45.6734 3.45333 45.4861 3.28951M46.3707 3.22891C46.2229 3.24156 46.0111 3.16999 45.8609 3.14407C45.694 3.1153 45.5393 3.05907 45.377 3.02288M46.2253 2.85325C45.9401 2.87032 45.6726 2.77276 45.4133 2.68359" stroke="#D1D1D1" stroke-width="2"/>
</g>
<path d="M9.74336 3.72668C10.0068 3.68693 10.31 3.66208 10.5336 3.82608C10.6728 3.93042 10.7224 4.11927 10.7125 4.28828C10.7224 4.56658 10.5932 4.86479 10.3448 5.00894C10.1261 5.12822 9.8627 5.13811 9.61913 5.11328C9.45513 5.09343 9.29113 5.004 9.20665 4.85488C9.01774 4.42249 9.25134 3.81117 9.74336 3.72668ZM1.86098 4.0398C1.87587 3.89068 2.01007 3.7565 2.16413 3.76149C3.31223 3.76149 4.45532 3.76644 5.59843 3.76149C5.72267 3.75155 5.85688 3.80619 5.91648 3.91553C6.00095 4.06464 5.92642 4.22864 5.91648 4.38274C5.88172 4.59143 5.89163 4.86979 5.64814 4.94928C4.81317 4.97413 3.97819 4.94928 3.14322 4.95922C3.06371 5.48601 2.98916 6.00786 2.90962 6.5297C2.90962 6.54959 2.91461 6.59436 2.91461 6.61418C3.52591 6.60923 4.13721 6.61418 4.74851 6.60923C4.91751 6.59929 5.09639 6.74347 5.08149 6.92234C5.0666 7.10625 5.02683 7.28515 5.002 7.46906C4.98207 7.59328 4.8827 7.7076 4.75347 7.73245C4.07257 7.74736 3.38173 7.71755 2.7009 7.74736C2.59152 8.49782 2.4623 9.24825 2.34798 9.99876C2.33311 10.1479 2.21379 10.2771 2.0647 10.282C1.78144 10.287 1.49811 10.287 1.21485 10.282C1.03097 10.287 0.881854 10.0832 0.931534 9.90925C1.23479 7.95116 1.54789 5.99799 1.86098 4.0398ZM6.91046 3.77138C7.16892 3.75153 7.4323 3.76644 7.69077 3.76149C7.84983 3.75155 8.00886 3.87578 8.02373 4.0398C8.02373 4.16898 7.98894 4.29823 7.97405 4.42743C7.7653 5.75941 7.5516 7.09138 7.34283 8.42333C7.31302 8.63703 7.25836 8.86563 7.32298 9.08433C7.39753 9.30299 7.73047 9.20855 7.81002 9.43716C7.85971 9.62106 7.80502 9.81487 7.79011 10.0038C7.77522 10.2522 7.49192 10.3069 7.29813 10.3616C6.8757 10.4411 6.36374 10.3815 6.06057 10.0335C5.8419 9.78013 5.82697 9.42225 5.87175 9.10421C6.13514 7.41443 6.39854 5.72465 6.66695 4.02985C6.68187 3.90559 6.78125 3.79129 6.91046 3.77138ZM16.7759 4.0398C16.7907 3.89068 16.925 3.76149 17.0741 3.76149H17.8295C18.0184 3.7565 18.1725 3.96029 18.1277 4.13917C17.9538 5.24252 17.7749 6.34587 17.6009 7.44915C17.8643 7.40942 18.1625 7.35972 18.3464 7.14602C18.6545 6.79808 18.9081 6.39559 19.0969 5.97314C19.1615 5.8091 19.1963 5.57056 19.41 5.54073C19.6933 5.53079 19.9815 5.53575 20.2648 5.54073C20.4587 5.53575 20.6028 5.75443 20.5382 5.93333C20.4636 6.1968 20.3394 6.44029 20.2102 6.67389C19.9219 7.14108 19.6039 7.60326 19.1863 7.97103C19.3702 8.52269 19.6038 9.05946 19.8076 9.60121C19.8672 9.78012 20.0114 9.98883 19.8772 10.1628C19.7231 10.3715 19.4348 10.2671 19.2211 10.292C18.9975 10.2671 18.6744 10.3815 18.5502 10.128C18.3166 9.58625 18.1228 9.02967 17.8842 8.48792C17.745 8.49284 17.6009 8.49786 17.4617 8.48295C17.4518 8.50284 17.4319 8.54256 17.422 8.56248C17.3474 9.05946 17.2679 9.55647 17.1884 10.0534C17.1585 10.1727 17.0641 10.2771 16.9349 10.2871C16.6715 10.297 16.4031 10.292 16.1348 10.292C16.0204 10.292 15.9161 10.2175 15.8664 10.1181C15.8167 10.0186 15.8465 9.90436 15.8614 9.79502C16.1695 7.8766 16.4727 5.95818 16.7759 4.0398ZM30.5874 4.58153C30.6223 4.44232 30.7564 4.34793 30.8956 4.35287C31.0944 4.35787 31.2982 4.34793 31.5019 4.35787C31.6659 4.36281 31.7952 4.52683 31.7753 4.68587C31.7454 4.96917 31.6758 5.25247 31.656 5.53571C31.8498 5.53571 32.0486 5.53077 32.2424 5.53571C32.4164 5.53571 32.5605 5.71465 32.5307 5.8836C32.5058 6.03773 32.471 6.18684 32.4462 6.34084C32.4213 6.4701 32.312 6.57446 32.1878 6.59433C31.9492 6.60923 31.7156 6.58438 31.482 6.60923C31.3827 7.27517 31.2733 7.94113 31.1689 8.60718C31.154 8.76124 31.1441 8.93516 31.2335 9.06937C31.3677 9.23338 31.6013 9.17371 31.7902 9.19363C31.9393 9.23833 32.0337 9.40238 32.0088 9.55151C31.984 9.72044 31.979 9.88944 31.9393 10.0534C31.8796 10.2373 31.6659 10.2721 31.5019 10.3168C31.0496 10.4361 30.5278 10.4361 30.1253 10.1727C29.7525 9.91921 29.6929 9.4272 29.7326 9.00971C29.8369 8.20456 30.001 7.40442 30.0905 6.59431C29.9513 6.59925 29.7823 6.61916 29.678 6.49489C29.5587 6.37067 29.6183 6.18676 29.6382 6.03265C29.668 5.86865 29.663 5.65496 29.842 5.56549C29.9861 5.51079 30.1501 5.5506 30.3042 5.53069C30.3986 5.21268 30.4881 4.89462 30.5874 4.58153ZM27.7794 6.19176C28.0925 5.87865 28.4702 5.62022 28.9026 5.49103C29.0915 5.40652 29.335 5.56558 29.3301 5.77431C29.2953 6.04767 29.2306 6.31601 29.1859 6.58438C29.166 6.71859 29.0517 6.83291 28.9175 6.84781C28.4304 6.93227 28.008 7.22546 27.6701 7.5734C27.5856 7.67781 27.4613 7.77719 27.4464 7.9213C27.3421 8.61709 27.2327 9.31289 27.1234 10.0087C27.1085 10.1578 26.9792 10.3019 26.8252 10.292H26.0697C25.8958 10.3019 25.7417 10.128 25.7616 9.95404C25.9803 8.57733 26.199 7.20566 26.4127 5.82894C26.4226 5.6898 26.522 5.55562 26.6661 5.54069C26.85 5.53075 27.0339 5.53571 27.2228 5.53571C27.3719 5.53571 27.511 5.6699 27.511 5.82399C27.511 6.03769 27.4911 6.25635 27.4862 6.47503C27.6055 6.40053 27.68 6.28123 27.7794 6.19176ZM9.20163 5.56058C9.47 5.50594 9.74832 5.55067 10.0167 5.53573C10.1708 5.51588 10.3348 5.61526 10.3596 5.76935C10.3795 5.90848 10.3397 6.04269 10.3248 6.17689C10.1211 7.4542 9.91727 8.73146 9.71847 10.0087C9.70357 10.1529 9.58434 10.297 9.43023 10.292C9.16187 10.292 8.89348 10.297 8.62016 10.2871C8.45116 10.2672 8.3269 10.0734 8.37165 9.90934C8.58537 8.5824 8.78916 7.26036 9.00286 5.93335C9.0128 5.78922 9.05255 5.62022 9.20163 5.56058ZM25.2845 5.62524C24.5439 5.48603 23.7885 5.38664 23.038 5.46118C22.3671 5.54569 21.6912 5.84888 21.2787 6.40053C20.7071 7.12613 20.5133 8.10028 20.6425 9.00484C20.7121 9.43719 20.9009 9.87457 21.2538 10.1429C21.5818 10.3964 22.0242 10.4312 22.4218 10.3666C22.9784 10.2572 23.4505 9.89945 23.8382 9.50181C23.8581 9.67078 23.8183 9.83977 23.8283 10.0038C23.8382 10.1578 23.9774 10.3019 24.1314 10.292H24.6384C24.7875 10.292 24.9117 10.1529 24.9217 10.0087C25.1354 8.66186 25.3491 7.31994 25.5578 5.97808C25.5876 5.80909 25.4535 5.64509 25.2845 5.62524ZM23.8879 7.96607C23.6891 8.33882 23.4108 8.67678 23.0977 8.96499C22.9188 9.1141 22.6901 9.2682 22.4467 9.21852C22.2081 9.16882 22.0937 8.92033 22.0391 8.70659C21.9149 8.14997 22.0292 7.5436 22.3422 7.06155C22.4814 6.83785 22.705 6.66891 22.9635 6.59931C23.3263 6.50984 23.709 6.55457 24.0619 6.65397L24.0818 6.67389C24.037 7.10625 23.9525 7.53368 23.8879 7.96607ZM15.5284 7.22059C15.5234 6.72357 15.3893 6.20174 15.0414 5.82897C14.8028 5.56558 14.445 5.43139 14.0971 5.43632C13.5205 5.41648 12.9788 5.69978 12.5564 6.07746C12.4619 6.15204 12.3973 6.26138 12.293 6.32101C12.293 6.15695 12.3079 5.99297 12.3029 5.82401C12.3079 5.6699 12.1637 5.53573 12.0146 5.53573H11.5077C11.3487 5.53573 11.2194 5.67492 11.2095 5.82895C10.8964 7.81696 10.5784 9.80495 10.2652 11.793C10.2205 11.9768 10.3796 12.1657 10.5684 12.1607C10.8467 12.1558 11.13 12.1806 11.4034 12.1408C11.6221 12.0812 11.6171 11.8277 11.6519 11.6438C11.7314 11.2064 11.7861 10.7691 11.8358 10.3268C12.8148 10.5156 13.953 10.3864 14.6836 9.64587C15.2799 8.99486 15.5582 8.09528 15.5284 7.22059ZM14.1368 7.72253C14.107 8.17977 13.943 8.64199 13.625 8.97493C13.2125 9.36761 12.5862 9.31289 12.0793 9.17876C12.0694 9.16382 12.0544 9.13399 12.0495 9.11912C12.129 8.68673 12.1687 8.24935 12.2682 7.82194C12.5465 7.36473 12.8844 6.90247 13.3665 6.64904C13.5454 6.56457 13.7889 6.58444 13.9182 6.74846C14.1368 7.02179 14.1567 7.38957 14.1368 7.72253Z" fill="#107BD4" stroke="#107BD4" stroke-width="0.101"/>
<defs>
<linearGradient id="paint0_linear_546_559" x1="43.2139" y1="2.31639" x2="43.2139" y2="13.0006" gradientUnits="userSpaceOnUse">
<stop stop-color="#F7E830"/>
<stop offset="1" stop-color="#FDCB06"/>
</linearGradient>
<radialGradient id="paint1_radial_546_559" cx="0" cy="0" r="1" gradientUnits="userSpaceOnUse" gradientTransform="translate(43.1581 7.18794) scale(8.6904 8.6904)">
<stop offset="0.596" stop-color="#F29405"/>
<stop offset="0.736" stop-color="#F7D01E"/>
<stop offset="1" stop-color="#FDCB06"/>
</radialGradient>
<linearGradient id="paint2_linear_546_559" x1="46.1837" y1="2.70103" x2="46.1867" y2="3.20697" gradientUnits="userSpaceOnUse">
<stop stop-color="#FADA1C"/>
<stop offset="1" stop-color="#FDCB06"/>
</linearGradient>
<linearGradient id="paint3_linear_546_559" x1="40.2321" y1="2.67761" x2="40.2291" y2="3.18355" gradientUnits="userSpaceOnUse">
<stop stop-color="#FADA1C"/>
<stop offset="1" stop-color="#FDCB06"/>
</linearGradient>
</defs>
</svg>
