<svg width="38" height="21" viewBox="0 0 38 21" fill="none" xmlns="http://www.w3.org/2000/svg">
<path fill-rule="evenodd" clip-rule="evenodd" d="M2.01111 11.5185C2.18332 11.6426 2.37405 11.7387 2.57624 11.8034C2.97637 11.9297 3.4057 11.9296 3.80578 11.8032C4.00909 11.7388 4.20096 11.6427 4.37429 11.5185C4.54905 11.3926 4.70267 11.2398 4.82941 11.0657C5.07758 10.7228 5.2109 10.3101 5.21026 9.88681C5.21026 9.67891 5.17889 9.47001 5.11495 9.26906C4.9844 8.85765 4.72501 8.49912 4.37508 8.24643C4.20197 8.12174 4.01014 8.02535 3.80677 7.96088C3.40603 7.8339 2.97584 7.83383 2.57505 7.96068C2.16508 8.09197 1.80826 8.35174 1.55738 8.70155C1.43305 8.87483 1.33694 9.06671 1.27263 9.27005C1.20909 9.471 1.17772 9.6795 1.17772 9.88681C1.17772 10.0941 1.20889 10.3004 1.27243 10.4996C1.40307 10.9096 1.66203 11.2668 2.01111 11.5185ZM6.38024 0.00976562H0L3.19677 7.25239L6.38024 0.00976562Z" fill="black"/>
<path fill-rule="evenodd" clip-rule="evenodd" d="M8.4047 17.4658C8.40448 17.6623 8.36576 17.857 8.29072 18.0386C8.13849 18.4051 7.84725 18.6964 7.48075 18.8486C7.29907 18.9236 7.10444 18.9623 6.90788 18.9624H6.60447C6.40868 18.9624 6.21269 18.9235 6.03159 18.8486C5.66504 18.6965 5.37377 18.4052 5.22163 18.0386C5.14664 17.857 5.10798 17.6623 5.10785 17.4658L5.10527 14.071L1.65234 14.0663V16.6292C1.65234 17.1504 1.75639 17.6719 1.95536 18.1534C2.15577 18.6366 2.44919 19.0757 2.81894 19.4457C3.18892 19.8154 3.62793 20.1087 4.11103 20.3091C4.59441 20.5088 5.11225 20.6118 5.63525 20.6123H7.77007C8.29132 20.6123 8.81256 20.5083 9.29429 20.3091C9.7774 20.1087 10.2164 19.8154 10.5864 19.4457C10.9562 19.0757 11.2496 18.6366 11.45 18.1534C11.6496 17.67 11.7525 17.1522 11.753 16.6292V0.024225L8.40311 0.0289911L8.4047 17.4658ZM33.925 14.071L33.9223 17.0851C33.9223 17.2809 33.8831 17.4771 33.8087 17.658C33.7333 17.8395 33.623 18.0045 33.484 18.1435C33.3451 18.2826 33.1801 18.3928 32.9985 18.468C32.8168 18.543 32.6222 18.5817 32.4256 18.5819H32.1224C31.9259 18.5817 31.7312 18.543 31.5496 18.468C31.3679 18.3928 31.203 18.2826 31.0641 18.1435C30.9257 18.0051 30.8143 17.8389 30.7394 17.658C30.6645 17.4771 30.6254 17.2811 30.6254 17.0851L30.627 0.0289911L27.2773 0.024225L27.2785 20.185H37.1472L37.15 14.0663L33.925 14.071ZM24.4858 11.0506C24.3204 10.659 24.08 10.3035 23.7781 10.0041C23.4962 9.72449 23.1576 9.50838 22.7853 9.37029C23.0951 9.22162 23.3795 9.025 23.628 8.78769C23.8812 8.54722 24.1046 8.26228 24.2551 7.94099C24.4062 7.6169 24.4846 7.26365 24.4847 6.90605L24.4866 3.23668C24.4866 2.81254 24.4021 2.38819 24.2404 1.99681C24.0788 1.60543 23.8391 1.24721 23.5397 0.94797C23.2406 0.648726 22.8826 0.408855 22.4914 0.246822C22.1002 0.0847892 21.6763 0 21.2519 0H14.5903V20.186H21.5055C22.1453 20.1859 22.7706 19.9962 23.3026 19.6408C23.8345 19.2853 24.2491 18.7802 24.494 18.1892C24.6562 17.796 24.7398 17.3748 24.7402 16.9495C24.7402 15.4024 24.7362 13.8556 24.7402 12.3087C24.7402 11.8766 24.6537 11.4488 24.4858 11.0506ZM17.8407 1.73907L19.5939 1.73311C19.7905 1.73296 19.9852 1.77161 20.1668 1.84685C20.3484 1.92208 20.5134 2.03243 20.6523 2.17156C20.7911 2.31016 20.9021 2.47616 20.9769 2.65706C21.0518 2.83795 21.0901 3.03394 21.0909 3.22993L21.1002 7.27698C21.1003 7.52287 21.0274 7.76327 20.8908 7.96772C20.7542 8.17218 20.56 8.33149 20.3328 8.4255C20.1818 8.48748 20.0203 8.51965 19.8572 8.52022L17.8407 8.52796V1.73907ZM21.1324 17.5706C21.07 17.7214 20.9784 17.8585 20.863 17.9739C20.7476 18.0893 20.6105 18.1808 20.4597 18.2432C20.3088 18.3053 20.1473 18.3375 19.9841 18.3379L17.8409 18.3456V10.3417L19.7208 10.3357C19.9174 10.3355 20.1121 10.3741 20.2937 10.4493C20.4754 10.5246 20.6403 10.635 20.7792 10.7742C20.9176 10.9126 21.029 11.0788 21.1038 11.2597C21.1787 11.4406 21.2174 11.6366 21.2178 11.8326L21.2271 17.095C21.2269 17.2582 21.1947 17.4198 21.1324 17.5706Z" fill="black"/>
</svg>
