<svg width="47" height="40" viewBox="0 0 47 40" fill="none" xmlns="http://www.w3.org/2000/svg">
<g filter="url(#filter0_d_179_91)">
<path d="M36 25.6H7.2C6.35131 25.6 5.53737 25.2629 4.93726 24.6627C4.33714 24.0626 4 23.2487 4 22.4V3.2C4 2.35131 4.33714 1.53737 4.93726 0.937258C5.53737 0.337142 6.35131 0 7.2 0H36C36.8487 0 37.6626 0.337142 38.2627 0.937258C38.8629 1.53737 39.2 2.35131 39.2 3.2V22.4C39.2 23.2487 38.8629 24.0626 38.2627 24.6627C37.6626 25.2629 36.8487 25.6 36 25.6Z" fill="#09376E"/>
<path opacity="0.2" d="M36 0H7.2C6.35131 0 5.53737 0.337142 4.93726 0.937258C4.33714 1.53737 4 2.35131 4 3.2L4 3.6C4 2.75131 4.33714 1.93737 4.93726 1.33726C5.53737 0.737142 6.35131 0.4 7.2 0.4H36C36.8487 0.4 37.6626 0.737142 38.2627 1.33726C38.8629 1.93737 39.2 2.75131 39.2 3.6V3.2C39.2 2.35131 38.8629 1.53737 38.2627 0.937258C37.6626 0.337142 36.8487 0 36 0Z" fill="white"/>
<path opacity="0.1" d="M36 25.2H7.2C6.35131 25.2 5.53737 24.8629 4.93726 24.2627C4.33714 23.6626 4 22.8487 4 22V22.4C4 23.2487 4.33714 24.0626 4.93726 24.6627C5.53737 25.2629 6.35131 25.6 7.2 25.6H36C36.8487 25.6 37.6626 25.2629 38.2627 24.6627C38.8629 24.0626 39.2 23.2487 39.2 22.4V22C39.2 22.8487 38.8629 23.6626 38.2627 24.2627C37.6626 24.8629 36.8487 25.2 36 25.2Z" fill="black"/>
<path d="M4 4.80078H39.2V11.2008H4V4.80078Z" fill="#2775B3"/>
<path opacity="0.05" d="M4 4.80078H39.2V8.00078H4V4.80078Z" fill="white"/>
<path d="M33.6008 32.0004C38.4609 32.0004 42.4008 28.0605 42.4008 23.2004C42.4008 18.3403 38.4609 14.4004 33.6008 14.4004C28.7407 14.4004 24.8008 18.3403 24.8008 23.2004C24.8008 28.0605 28.7407 32.0004 33.6008 32.0004Z" fill="#69B342"/>
<path opacity="0.1" d="M33.6005 31.6003C31.7685 31.5992 29.9806 31.0388 28.4758 29.9941C26.9709 28.9493 25.821 27.47 25.1797 25.7539C25.7279 27.5603 26.8424 29.1426 28.3587 30.267C29.875 31.3914 31.7127 31.9985 33.6005 31.9985C35.4882 31.9985 37.3259 31.3914 38.8423 30.267C40.3586 29.1426 41.4731 27.5603 42.0213 25.7539C41.38 27.47 40.2301 28.9493 38.7252 29.9941C37.2204 31.0388 35.4324 31.5992 33.6005 31.6003Z" fill="black"/>
<path opacity="0.2" d="M33.6005 14.8005C35.4324 14.8016 37.2204 15.362 38.7252 16.4068C40.2301 17.4516 41.38 18.9309 42.0213 20.6469C41.4731 18.8405 40.3586 17.2583 38.8423 16.1338C37.3259 15.0094 35.4882 14.4023 33.6005 14.4023C31.7127 14.4023 29.875 15.0094 28.3587 16.1338C26.8424 17.2583 25.7279 18.8405 25.1797 20.6469C25.821 18.9309 26.9709 17.4516 28.4758 16.4068C29.9806 15.362 31.7685 14.8016 33.6005 14.8005Z" fill="white"/>
<path d="M37.6016 22.3992H34.4016V19.1992H32.8016V22.3992H29.6016V23.9992H32.8016V27.1992H34.4016V23.9992H37.6016V22.3992Z" fill="white"/>
<path d="M29.6016 23.9992L32.8016 27.1992V23.9992H29.6016ZM34.4016 22.3992H37.6016L34.4016 19.1992V22.3992ZM37.6016 22.3992V23.9992H34.4016V27.1992H32.8016L36.9408 31.3384C38.0181 30.8948 38.997 30.2423 39.8208 29.4185C40.6447 28.5946 41.2972 27.6158 41.7408 26.5384L37.6016 22.3992Z" fill="url(#paint0_linear_179_91)"/>
<path d="M39.2 16.4112V3.2C39.2 2.35131 38.8629 1.53737 38.2627 0.937258C37.6626 0.337142 36.8487 0 36 0H7.2C6.35131 0 5.53737 0.337142 4.93726 0.937258C4.33714 1.53737 4 2.35131 4 3.2L4 22.4C4 23.2487 4.33714 24.0626 4.93726 24.6627C5.53737 25.2629 6.35131 25.6 7.2 25.6H25.1392C25.5161 26.9267 26.1996 28.1463 27.1347 29.1602C28.0698 30.174 29.2301 30.9538 30.5221 31.4366C31.8141 31.9194 33.2015 32.0916 34.5723 31.9393C35.9431 31.7871 37.2589 31.3146 38.4135 30.5601C39.5681 29.8056 40.529 28.7902 41.2188 27.5958C41.9086 26.4014 42.3079 25.0616 42.3845 23.6845C42.461 22.3074 42.2127 20.9316 41.6595 19.6681C41.1063 18.4047 40.2638 17.289 39.2 16.4112Z" fill="url(#paint1_linear_179_91)"/>
</g>
<defs>
<filter id="filter0_d_179_91" x="0" y="0" width="46.4023" height="40.0005" filterUnits="userSpaceOnUse" color-interpolation-filters="sRGB">
<feFlood flood-opacity="0" result="BackgroundImageFix"/>
<feColorMatrix in="SourceAlpha" type="matrix" values="0 0 0 0 0 0 0 0 0 0 0 0 0 0 0 0 0 0 127 0" result="hardAlpha"/>
<feOffset dy="4"/>
<feGaussianBlur stdDeviation="2"/>
<feComposite in2="hardAlpha" operator="out"/>
<feColorMatrix type="matrix" values="0 0 0 0 0 0 0 0 0 0 0 0 0 0 0 0 0 0 0.25 0"/>
<feBlend mode="normal" in2="BackgroundImageFix" result="effect1_dropShadow_179_91"/>
<feBlend mode="normal" in="SourceGraphic" in2="effect1_dropShadow_179_91" result="shape"/>
</filter>
<linearGradient id="paint0_linear_179_91" x1="32.0016" y1="21.5992" x2="39.8208" y2="29.4184" gradientUnits="userSpaceOnUse">
<stop stop-opacity="0.1"/>
<stop offset="1" stop-opacity="0"/>
</linearGradient>
<linearGradient id="paint1_linear_179_91" x1="3.1936" y1="4.2176" x2="43.4176" y2="22.9744" gradientUnits="userSpaceOnUse">
<stop stop-color="white" stop-opacity="0.2"/>
<stop offset="1" stop-color="white" stop-opacity="0"/>
</linearGradient>
</defs>
</svg>
