<svg width="37" height="28" viewBox="0 0 37 28" fill="none" xmlns="http://www.w3.org/2000/svg">
<path d="M32.7038 0H3.47913C2.5564 0 1.67147 0.36655 1.01901 1.01901C0.36655 1.67147 0 2.5564 0 3.47912V24.5209C0 25.4436 0.36655 26.3285 1.01901 26.981C1.67147 27.6335 2.5564 28 3.47913 28H32.7038C33.6265 28 34.5114 27.6335 35.1639 26.981C35.8164 26.3285 36.1829 25.4436 36.1829 24.5209V3.47912C36.1829 2.5564 35.8164 1.67147 35.1639 1.01901C34.5114 0.36655 33.6265 0 32.7038 0ZM34.7913 24.5209C34.7913 25.0745 34.5713 25.6055 34.1798 25.9969C33.7884 26.3884 33.2574 26.6084 32.7038 26.6084H3.47913C2.92549 26.6084 2.39453 26.3884 2.00306 25.9969C1.61158 25.6055 1.39165 25.0745 1.39165 24.5209V3.47912C1.39165 2.92549 1.61158 2.39453 2.00306 2.00306C2.39453 1.61158 2.92549 1.39165 3.47913 1.39165H32.7038C33.2574 1.39165 33.7884 1.61158 34.1798 2.00306C34.5713 2.39453 34.7913 2.92549 34.7913 3.47912V24.5209Z" fill="#09376E"/>
<path d="M29.9203 18.1752H16.6996C16.5151 18.1752 16.3381 18.2486 16.2076 18.379C16.0771 18.5095 16.0038 18.6865 16.0038 18.8711C16.0038 19.0556 16.0771 19.2326 16.2076 19.3631C16.3381 19.4936 16.5151 19.5669 16.6996 19.5669H29.9203C30.1048 19.5669 30.2818 19.4936 30.4123 19.3631C30.5428 19.2326 30.6161 19.0556 30.6161 18.8711C30.6161 18.6865 30.5428 18.5095 30.4123 18.379C30.2818 18.2486 30.1048 18.1752 29.9203 18.1752ZM29.9203 8.43369H16.6996C16.5151 8.43369 16.3381 8.507 16.2076 8.63749C16.0771 8.76799 16.0038 8.94497 16.0038 9.12952C16.0038 9.31406 16.0771 9.49105 16.2076 9.62154C16.3381 9.75203 16.5151 9.82534 16.6996 9.82534H29.9203C30.1048 9.82534 30.2818 9.75203 30.4123 9.62154C30.5428 9.49105 30.6161 9.31406 30.6161 9.12952C30.6161 8.94497 30.5428 8.76799 30.4123 8.63749C30.2818 8.507 30.1048 8.43369 29.9203 8.43369ZM10.559 15.3919H7.53212C7.00954 15.3938 6.50904 15.6029 6.1405 15.9734C5.77196 16.3439 5.56548 16.8455 5.56641 17.3681V20.374C5.56548 20.8966 5.77196 21.3982 6.1405 21.7687C6.50904 22.1392 7.00954 22.3484 7.53212 22.3502H10.559C11.0815 22.3484 11.582 22.1392 11.9506 21.7687C12.3191 21.3982 12.5256 20.8966 12.5247 20.374V17.3681C12.5256 16.8455 12.3191 16.3439 11.9506 15.9734C11.582 15.6029 11.0815 15.3938 10.559 15.3919ZM11.133 20.374C11.1339 20.4502 11.1198 20.5258 11.0914 20.5964C11.063 20.667 11.0209 20.7314 10.9676 20.7857C10.9142 20.84 10.8506 20.8833 10.7805 20.9129C10.7104 20.9426 10.6351 20.9581 10.559 20.9585H7.53212C7.45598 20.9581 7.38068 20.9426 7.31055 20.9129C7.24043 20.8833 7.17686 20.84 7.12351 20.7857C7.07016 20.7314 7.02807 20.667 6.99968 20.5964C6.97129 20.5258 6.95714 20.4502 6.95806 20.374V17.3681C6.95714 17.292 6.97129 17.2164 6.99968 17.1457C7.02807 17.0751 7.07016 17.0108 7.12351 16.9564C7.17686 16.9021 7.24043 16.8589 7.31055 16.8292C7.38068 16.7996 7.45598 16.784 7.53212 16.7836H10.559C10.6351 16.784 10.7104 16.7996 10.7805 16.8292C10.8506 16.8589 10.9142 16.9021 10.9676 16.9564C11.0209 17.0108 11.063 17.0751 11.0914 17.1457C11.1198 17.2164 11.1339 17.292 11.133 17.3681V20.374ZM10.559 5.65039H7.53212C7.00954 5.65223 6.50904 5.86136 6.1405 6.23186C5.77196 6.60236 5.56548 7.10395 5.56641 7.62653V10.6325C5.56548 11.1551 5.77196 11.6567 6.1405 12.0272C6.50904 12.3977 7.00954 12.6068 7.53212 12.6086H10.559C11.0815 12.6068 11.582 12.3977 11.9506 12.0272C12.3191 11.6567 12.5256 11.1551 12.5247 10.6325V7.62653C12.5256 7.10395 12.3191 6.60236 11.9506 6.23186C11.582 5.86136 11.0815 5.65223 10.559 5.65039ZM11.133 10.6325C11.1339 10.7086 11.1198 10.7842 11.0914 10.8548C11.063 10.9255 11.0209 10.9898 10.9676 11.0441C10.9142 11.0985 10.8506 11.1417 10.7805 11.1714C10.7104 11.201 10.6351 11.2165 10.559 11.217H7.53212C7.45598 11.2165 7.38068 11.201 7.31055 11.1714C7.24043 11.1417 7.17686 11.0985 7.12351 11.0441C7.07016 10.9898 7.02807 10.9255 6.99968 10.8548C6.97129 10.7842 6.95714 10.7086 6.95806 10.6325V7.62653C6.95714 7.5504 6.97129 7.47483 6.99968 7.40419C7.02807 7.33354 7.07016 7.2692 7.12351 7.21488C7.17686 7.16056 7.24043 7.11732 7.31055 7.08766C7.38068 7.058 7.45598 7.04249 7.53212 7.04204H10.559C10.6351 7.04249 10.7104 7.058 10.7805 7.08766C10.8506 7.11732 10.9142 7.16056 10.9676 7.21488C11.0209 7.2692 11.063 7.33354 11.0914 7.40419C11.1198 7.47483 11.1339 7.5504 11.133 7.62653V10.6325Z" fill="#09376E"/>
</svg>
