<svg width="31" height="30" viewBox="0 0 31 30" fill="none" xmlns="http://www.w3.org/2000/svg">
<path d="M6.99574 8.86364H8.35938V10.2273C8.35938 10.227 8.35938 10.2275 8.35938 10.2273C8.35962 10.6036 8.66483 10.9093 9.04119 10.9091C9.04086 10.9091 9.04144 10.9091 9.04119 10.9091C9.41747 10.9088 9.72326 10.6036 9.72301 10.2273V8.86364H11.0866C11.4632 8.86364 11.7685 8.55835 11.7685 8.18182C11.7685 7.80529 11.4632 7.5 11.0866 7.5H9.72301V6.13636C9.72301 5.75983 9.41772 5.45455 9.04119 5.45455C8.66466 5.45455 8.35938 5.75983 8.35938 6.13636V7.5H6.99574C6.61921 7.5 6.31392 7.80529 6.31392 8.18182C6.31392 8.55835 6.61921 8.86364 6.99574 8.86364ZM8.07706 21.8182L6.63086 23.2644C6.50302 23.3922 6.43127 23.5656 6.43119 23.7464C6.43119 24.1229 6.73639 24.4282 7.11293 24.4283C7.29378 24.4285 7.46732 24.3566 7.59499 24.2285L9.04119 22.7823L10.4874 24.2285C10.6151 24.3566 10.7885 24.4285 10.9694 24.4283C11.1502 24.4283 11.3235 24.3564 11.4514 24.2287C11.7177 23.9624 11.7177 23.5307 11.4515 23.2645L10.0052 21.8182L11.4515 20.3719C11.4548 20.3687 11.458 20.3655 11.4613 20.3622C11.7248 20.0932 11.7204 19.6616 11.4515 19.3981C11.1825 19.1345 10.7509 19.1389 10.4874 19.4078L9.04119 20.854L7.59491 19.4078C7.59175 19.4046 7.5885 19.4014 7.58517 19.3981C7.31626 19.1346 6.88463 19.1389 6.62112 19.4078C6.35753 19.6768 6.36194 20.1085 6.63086 20.372L8.07706 21.8182ZM24.723 7.5H20.6321C20.2556 7.5 19.9503 7.80529 19.9503 8.18182C19.9503 8.55835 20.2556 8.86364 20.6321 8.86364H24.723C25.0995 8.86364 25.4048 8.55835 25.4048 8.18182C25.4048 7.80529 25.0995 7.5 24.723 7.5ZM20.6321 20.4545H24.723C25.0995 20.4545 25.4048 20.1493 25.4048 19.7727C25.4048 19.3962 25.0995 19.0909 24.723 19.0909H20.6321C20.2556 19.0909 19.9503 19.3962 19.9503 19.7727C19.9503 20.1493 20.2556 20.4545 20.6321 20.4545ZM26.7685 0H4.95028C2.69193 0.00249695 0.861872 1.83255 0.859375 4.09091V25.9091C0.861872 28.1674 2.69193 29.9975 4.95028 30H15.8594H26.7685C29.0268 29.9975 30.8569 28.1674 30.8594 25.9091V4.09091C30.8569 1.83255 29.0268 0.00249695 26.7685 0ZM15.1776 28.6364H4.95028C3.44482 28.6344 2.22493 27.4146 2.22301 25.9091V15.6818H15.1776V28.6364ZM15.1776 14.3182H2.22301V4.09091C2.22493 2.58545 3.44482 1.36555 4.95028 1.36364H15.1776V14.3182ZM29.4957 25.9091C29.4938 27.4146 28.2739 28.6344 26.7685 28.6364H16.5412V15.6818H29.4957V25.9091ZM29.4957 14.3182H16.5412V1.36364H26.7685C28.2739 1.36555 29.4938 2.58545 29.4957 4.09091V14.3182ZM20.6321 24.5455H24.723C25.0995 24.5455 25.4048 24.2402 25.4048 23.8636C25.4048 23.4871 25.0995 23.1818 24.723 23.1818H20.6321C20.2556 23.1818 19.9503 23.4871 19.9503 23.8636C19.9503 24.2402 20.2556 24.5455 20.6321 24.5455Z" fill="#09376E"/>
</svg>
