<svg width="30" height="38" viewBox="0 0 30 38" fill="none" xmlns="http://www.w3.org/2000/svg">
<path d="M2.32642e-08 28.7485V37.3187C-2.34738e-05 37.4082 0.0177525 37.4968 0.0523126 37.5795C0.0868727 37.6621 0.13754 37.7373 0.201418 37.8005C0.265297 37.8638 0.341136 37.914 0.424602 37.9482C0.508068 37.9824 0.597526 38 0.687864 38H29.3121C29.4025 38 29.4919 37.9824 29.5754 37.9482C29.6589 37.914 29.7347 37.8638 29.7986 37.8005C29.8625 37.7373 29.9131 37.6621 29.9477 37.5795C29.9823 37.4968 30 37.4082 30 37.3187V23.9797C30 23.8902 29.9823 23.8016 29.9477 23.7189C29.9131 23.6363 29.8625 23.5612 29.7986 23.4979C29.7347 23.4346 29.6589 23.3845 29.5754 23.3502C29.4919 23.316 29.4025 23.2984 29.3121 23.2984H20.4586V18.5296C20.4586 18.4401 20.4408 18.3515 20.4063 18.2689C20.3717 18.1862 20.321 18.1111 20.2572 18.0478C20.1933 17.9846 20.1174 17.9344 20.034 17.9002C19.9505 17.8659 19.8611 17.8483 19.7707 17.8484H10.2293C10.1389 17.8483 10.0495 17.8659 9.96602 17.9002C9.88256 17.9344 9.80672 17.9846 9.74284 18.0478C9.67896 18.1111 9.62829 18.1862 9.59373 18.2689C9.55917 18.3515 9.5414 18.4401 9.54142 18.5296V28.0672H0.687864C0.597526 28.0672 0.508068 28.0848 0.424602 28.119C0.341136 28.1533 0.265297 28.2034 0.201418 28.2667C0.13754 28.33 0.0868727 28.4051 0.0523126 28.4877C0.0177525 28.5704 -2.34738e-05 28.659 2.32642e-08 28.7485ZM28.6243 24.6609V36.6375H20.4586V24.6609H28.6243ZM10.9171 19.2109H19.0829V36.6375H10.9171V19.2109ZM1.37573 29.4297H9.54142V36.6375H1.37573V29.4297ZM22.8224 5.62894C22.7776 5.49207 22.6901 5.37278 22.5725 5.28817C22.455 5.20356 22.3135 5.15796 22.1682 5.15791H17.1919L15.6543 0.470976C15.6094 0.334092 15.522 0.214792 15.4044 0.130182C15.2869 0.0455725 15.1453 0 15 0C14.8547 0 14.7131 0.0455725 14.5956 0.130182C14.478 0.214792 14.3906 0.334092 14.3457 0.470976L12.8081 5.15794H7.83184C7.68661 5.15793 7.5451 5.20345 7.42759 5.28798C7.31009 5.37252 7.22262 5.49172 7.17772 5.62851C7.13283 5.7653 7.13281 5.91266 7.17767 6.04947C7.22253 6.18627 7.30997 6.3055 7.42745 6.39006L11.4532 9.28676L9.91559 13.9744C9.8708 14.1112 9.87089 14.2585 9.91584 14.3953C9.96079 14.5321 10.0483 14.6512 10.1658 14.7357C10.2833 14.8202 10.4249 14.8657 10.5701 14.8656C10.7153 14.8656 10.8568 14.82 10.9742 14.7355L15 11.8395L19.0258 14.7355C19.1432 14.82 19.2847 14.8656 19.4299 14.8657C19.5751 14.8657 19.7167 14.8202 19.8342 14.7357C19.9517 14.6512 20.0392 14.5321 20.0842 14.3953C20.1291 14.2586 20.1292 14.1112 20.0844 13.9744L18.5468 9.28676L22.5725 6.39005C22.6901 6.30564 22.7776 6.1865 22.8225 6.04975C22.8674 5.913 22.8674 5.76568 22.8224 5.62894ZM17.3336 8.47571C17.2161 8.56013 17.1286 8.67927 17.0837 8.81604C17.0388 8.9528 17.0388 9.10013 17.0837 9.23688L18.1219 12.401L15.4044 10.4464C15.2869 10.3616 15.1453 10.316 15 10.316C14.8547 10.316 14.7131 10.3616 14.5956 10.4464L11.8781 12.401L12.9163 9.23688C12.9612 9.10014 12.9612 8.95282 12.9163 8.81607C12.8714 8.67933 12.7839 8.56019 12.6664 8.47578L9.94917 6.52049H13.3079C13.4532 6.52044 13.5947 6.47484 13.7122 6.39023C13.8298 6.30562 13.9172 6.18633 13.9621 6.04946L15 2.88598L16.0378 6.04943C16.0827 6.1863 16.1702 6.30558 16.2877 6.3902C16.4053 6.47481 16.5468 6.52041 16.6921 6.52046H20.0508L17.3336 8.47571Z" fill="#09376E"/>
</svg>
