<svg width="70" height="66" viewBox="0 0 70 66" fill="none" xmlns="http://www.w3.org/2000/svg">
<rect width="70" height="66" rx="11" fill="#EEF4FF"/>
<g filter="url(#filter0_d_1204_477)">
<path d="M48 42.6H19.2C18.3513 42.6 17.5374 42.2629 16.9373 41.6627C16.3371 41.0626 16 40.2487 16 39.4V20.2C16 19.3513 16.3371 18.5374 16.9373 17.9373C17.5374 17.3371 18.3513 17 19.2 17H48C48.8487 17 49.6626 17.3371 50.2627 17.9373C50.8629 18.5374 51.2 19.3513 51.2 20.2V39.4C51.2 40.2487 50.8629 41.0626 50.2627 41.6627C49.6626 42.2629 48.8487 42.6 48 42.6Z" fill="#09376E"/>
<path opacity="0.2" d="M48 17H19.2C18.3513 17 17.5374 17.3371 16.9373 17.9373C16.3371 18.5374 16 19.3513 16 20.2V20.6C16 19.7513 16.3371 18.9374 16.9373 18.3373C17.5374 17.7371 18.3513 17.4 19.2 17.4H48C48.8487 17.4 49.6626 17.7371 50.2627 18.3373C50.8629 18.9374 51.2 19.7513 51.2 20.6V20.2C51.2 19.3513 50.8629 18.5374 50.2627 17.9373C49.6626 17.3371 48.8487 17 48 17Z" fill="white"/>
<path opacity="0.1" d="M48 42.2H19.2C18.3513 42.2 17.5374 41.8629 16.9373 41.2627C16.3371 40.6626 16 39.8487 16 39V39.4C16 40.2487 16.3371 41.0626 16.9373 41.6627C17.5374 42.2629 18.3513 42.6 19.2 42.6H48C48.8487 42.6 49.6626 42.2629 50.2627 41.6627C50.8629 41.0626 51.2 40.2487 51.2 39.4V39C51.2 39.8487 50.8629 40.6626 50.2627 41.2627C49.6626 41.8629 48.8487 42.2 48 42.2Z" fill="black"/>
<path d="M16 21.8008H51.2V28.2008H16V21.8008Z" fill="#2775B3"/>
<path opacity="0.05" d="M16 21.8008H51.2V25.0008H16V21.8008Z" fill="white"/>
<path d="M45.6008 49.0004C50.4609 49.0004 54.4008 45.0605 54.4008 40.2004C54.4008 35.3403 50.4609 31.4004 45.6008 31.4004C40.7407 31.4004 36.8008 35.3403 36.8008 40.2004C36.8008 45.0605 40.7407 49.0004 45.6008 49.0004Z" fill="#69B342"/>
<path opacity="0.1" d="M45.6005 48.6003C43.7685 48.5992 41.9806 48.0388 40.4758 46.9941C38.9709 45.9493 37.821 44.47 37.1797 42.7539C37.7279 44.5603 38.8424 46.1426 40.3587 47.267C41.875 48.3914 43.7127 48.9985 45.6005 48.9985C47.4882 48.9985 49.3259 48.3914 50.8423 47.267C52.3586 46.1426 53.4731 44.5603 54.0213 42.7539C53.38 44.47 52.2301 45.9493 50.7252 46.9941C49.2204 48.0388 47.4324 48.5992 45.6005 48.6003Z" fill="black"/>
<path opacity="0.2" d="M45.6005 31.8005C47.4324 31.8016 49.2204 32.362 50.7252 33.4068C52.2301 34.4516 53.38 35.9309 54.0213 37.6469C53.4731 35.8405 52.3586 34.2583 50.8423 33.1338C49.3259 32.0094 47.4882 31.4023 45.6005 31.4023C43.7127 31.4023 41.875 32.0094 40.3587 33.1338C38.8424 34.2583 37.7279 35.8405 37.1797 37.6469C37.821 35.9309 38.9709 34.4516 40.4758 33.4068C41.9806 32.362 43.7685 31.8016 45.6005 31.8005Z" fill="white"/>
<path d="M49.6016 39.3992H46.4016V36.1992H44.8016V39.3992H41.6016V40.9992H44.8016V44.1992H46.4016V40.9992H49.6016V39.3992Z" fill="white"/>
<path d="M41.6016 40.9992L44.8016 44.1992V40.9992H41.6016ZM46.4016 39.3992H49.6016L46.4016 36.1992V39.3992ZM49.6016 39.3992V40.9992H46.4016V44.1992H44.8016L48.9408 48.3384C50.0181 47.8948 50.997 47.2423 51.8208 46.4185C52.6447 45.5946 53.2972 44.6158 53.7408 43.5384L49.6016 39.3992Z" fill="url(#paint0_linear_1204_477)"/>
<path d="M51.2 33.4112V20.2C51.2 19.3513 50.8629 18.5374 50.2627 17.9373C49.6626 17.3371 48.8487 17 48 17H19.2C18.3513 17 17.5374 17.3371 16.9373 17.9373C16.3371 18.5374 16 19.3513 16 20.2V39.4C16 40.2487 16.3371 41.0626 16.9373 41.6627C17.5374 42.2629 18.3513 42.6 19.2 42.6H37.1392C37.5161 43.9267 38.1996 45.1463 39.1347 46.1602C40.0698 47.174 41.2301 47.9538 42.5221 48.4366C43.8141 48.9194 45.2015 49.0916 46.5723 48.9393C47.9431 48.7871 49.2589 48.3146 50.4135 47.5601C51.5681 46.8056 52.529 45.7902 53.2188 44.5958C53.9086 43.4014 54.3079 42.0616 54.3845 40.6845C54.461 39.3074 54.2127 37.9316 53.6595 36.6681C53.1063 35.4047 52.2638 34.289 51.2 33.4112Z" fill="url(#paint1_linear_1204_477)"/>
</g>
<defs>
<filter id="filter0_d_1204_477" x="12" y="17" width="46.4023" height="40.0005" filterUnits="userSpaceOnUse" color-interpolation-filters="sRGB">
<feFlood flood-opacity="0" result="BackgroundImageFix"/>
<feColorMatrix in="SourceAlpha" type="matrix" values="0 0 0 0 0 0 0 0 0 0 0 0 0 0 0 0 0 0 127 0" result="hardAlpha"/>
<feOffset dy="4"/>
<feGaussianBlur stdDeviation="2"/>
<feComposite in2="hardAlpha" operator="out"/>
<feColorMatrix type="matrix" values="0 0 0 0 0 0 0 0 0 0 0 0 0 0 0 0 0 0 0.25 0"/>
<feBlend mode="normal" in2="BackgroundImageFix" result="effect1_dropShadow_1204_477"/>
<feBlend mode="normal" in="SourceGraphic" in2="effect1_dropShadow_1204_477" result="shape"/>
</filter>
<linearGradient id="paint0_linear_1204_477" x1="44.0016" y1="38.5992" x2="51.8208" y2="46.4184" gradientUnits="userSpaceOnUse">
<stop stop-opacity="0.1"/>
<stop offset="1" stop-opacity="0"/>
</linearGradient>
<linearGradient id="paint1_linear_1204_477" x1="15.1936" y1="21.2176" x2="55.4176" y2="39.9744" gradientUnits="userSpaceOnUse">
<stop stop-color="white" stop-opacity="0.2"/>
<stop offset="1" stop-color="white" stop-opacity="0"/>
</linearGradient>
</defs>
</svg>
