<svg width="21" height="24" viewBox="0 0 21 24" fill="none" xmlns="http://www.w3.org/2000/svg">
<path d="M12.5266 21.0834C12.8693 20.7862 13.3953 20.7678 13.7612 21.0594C14.1637 21.3801 14.2202 21.9545 13.8873 22.3423C13.0666 23.3762 11.7969 23.9878 10.446 24L10.1777 23.989C8.9322 23.9012 7.77938 23.3046 7.01562 22.3423L6.93445 22.2322C6.69584 21.8522 6.77573 21.351 7.14165 21.0594C7.54416 20.7387 8.14034 20.793 8.47324 21.1808C8.61944 21.3691 8.7929 21.5362 8.98834 21.6771C9.51071 22.0518 10.1667 22.2101 10.8107 22.1169C11.4548 22.0237 12.0336 21.6868 12.4187 21.1808H12.4296L12.5266 21.0834ZM10.4569 0C14.2489 0 18.5012 2.59745 18.9834 6.76815V8.94325C19.1481 9.72829 19.5263 10.4571 20.0794 11.055C20.1122 11.0911 20.1415 11.13 20.1671 11.1711C20.6686 11.9045 20.9562 12.7542 21 13.6313L20.9671 13.8531C21.0049 15.0534 20.5925 16.2267 19.8054 17.1579C18.8003 18.2115 17.4262 18.8697 15.9476 19.0057C12.3056 19.3941 8.63017 19.3941 4.9881 19.0057C3.53114 18.8604 2.181 18.2025 1.1961 17.1579C0.396055 16.2401 -0.0287242 15.0724 0.00150962 13.8742V13.7264C0.0617644 12.8229 0.372077 11.9516 0.900192 11.2028L0.987869 11.0972C1.5371 10.4968 1.91478 9.76906 2.08382 8.98548V6.81038L2.14443 6.68888C2.32868 6.38039 2.68754 6.19997 3.06339 6.23947C3.48622 6.28391 3.82576 6.59568 3.89215 7.00044V9.17554C3.89641 9.21415 3.89641 9.25308 3.89215 9.29169C3.66395 10.381 3.14236 11.3933 2.37973 12.227C2.08604 12.6777 1.9198 13.1946 1.89751 13.7264V13.9586C1.87318 14.7065 2.13005 15.4377 2.62084 16.0176C3.30128 16.6947 4.2112 17.1143 5.18537 17.2002C8.71125 17.5697 12.2683 17.5697 15.7942 17.2002C16.795 17.1117 17.7272 16.672 18.4135 15.9648C18.8802 15.3986 19.1247 14.6919 19.104 13.9692V13.7264C19.0815 13.1928 18.9194 12.6734 18.6327 12.2165C17.8384 11.3922 17.2861 10.3791 17.0326 9.28113C17.0284 9.24252 17.0284 9.20359 17.0326 9.16498V6.97932C16.7148 3.79059 13.416 1.8161 10.5446 1.8161C9.32382 1.8134 8.12313 2.11532 7.05946 2.69248L6.92918 2.7553C6.66135 2.86035 6.35494 2.84191 6.10027 2.69932C5.80315 2.53296 5.62356 2.22399 5.63159 1.89301C5.63962 1.56202 5.834 1.26147 6.13886 1.10867C7.4569 0.391286 8.94311 0.00969926 10.4569 0Z" fill="white"/>
</svg>
