<svg width="37" height="32" viewBox="0 0 37 32" fill="none" xmlns="http://www.w3.org/2000/svg">
<path d="M36.1364 0H0.674873C0.495885 0 0.324229 0.0711026 0.197666 0.197666C0.0711025 0.324229 0 0.495886 0 0.674873V17.7308C0 17.9097 0.0711025 18.0814 0.197666 18.208C0.324229 18.3345 0.495885 18.4056 0.674873 18.4056H18.4363C18.4363 18.6081 18.4363 18.8105 18.4363 19.0191C18.4406 19.3834 18.4755 19.7467 18.5406 20.1051C17.7263 20.4295 16.9909 20.9246 16.3841 21.5571C15.7772 22.1896 15.3129 22.9448 15.0225 23.7719C14.7321 24.5989 14.6222 25.4786 14.7004 26.3517C14.7785 27.2247 15.0429 28.0709 15.4756 28.8332C15.9083 29.5956 16.4993 30.2563 17.2088 30.771C17.9184 31.2856 18.73 31.6423 19.589 31.8169C20.448 31.9915 21.3344 31.9801 22.1886 31.7833C23.0427 31.5865 23.8448 31.2089 24.5408 30.676C25.6007 31.4765 26.8938 31.9076 28.222 31.9031C29.6392 31.9005 31.0119 31.4074 32.1067 30.5074C33.2016 29.6075 33.9511 28.3562 34.228 26.9663C34.5048 25.5763 34.2919 24.1334 33.6254 22.8826C32.9589 21.6319 31.8799 20.6504 30.5717 20.1051C30.6368 19.7467 30.6717 19.3834 30.676 19.0191C30.676 18.8105 30.676 18.6081 30.676 18.4056H36.1364C36.3154 18.4056 36.487 18.3345 36.6136 18.208C36.7401 18.0814 36.8112 17.9097 36.8112 17.7308V0.674873C36.8112 0.495886 36.7401 0.324229 36.6136 0.197666C36.487 0.0711026 36.3154 0 36.1364 0ZM15.9515 25.7679C15.9524 24.8753 16.1966 23.9999 16.6579 23.2359C17.1191 22.4718 17.78 21.8479 18.5695 21.4314C19.3589 21.015 20.2469 20.8216 21.138 20.8722C22.0291 20.9228 22.8895 21.2155 23.6267 21.7186C23.3549 22.0208 23.1144 22.3497 22.9089 22.7003C22.3542 22.3324 21.7102 22.1217 21.0454 22.0907C20.3806 22.0598 19.7198 22.2096 19.1333 22.5243C18.5469 22.8391 18.0567 23.3069 17.7151 23.8781C17.3734 24.4492 17.1929 25.1023 17.1929 25.7679C17.1929 26.4334 17.3734 27.0865 17.7151 27.6577C18.0567 28.2289 18.5469 28.6967 19.1333 29.0114C19.7198 29.3261 20.3806 29.476 21.0454 29.445C21.7102 29.414 22.3542 29.2034 22.9089 28.8355C23.1137 29.1904 23.3542 29.5234 23.6267 29.8294C22.8886 30.3331 22.0271 30.6258 21.1349 30.676C20.2428 30.7261 19.3538 30.5317 18.564 30.1137C17.7742 29.6958 17.1135 29.0701 16.6531 28.3043C16.1927 27.5384 15.9502 26.6614 15.9515 25.7679ZM22.0867 19.0191C22.0867 18.3683 22.3453 17.7441 22.8055 17.2838C23.2658 16.8236 23.89 16.5651 24.5408 16.5651C25.1917 16.5651 25.8159 16.8236 26.2761 17.2838C26.7364 17.7441 26.9949 18.3683 26.9949 19.0191C26.9904 19.2823 26.9449 19.5431 26.8599 19.7922C26.0206 19.9815 25.2305 20.3452 24.5408 20.8597C23.8517 20.343 23.0616 19.9772 22.2217 19.786C22.1346 19.5396 22.089 19.2805 22.0867 19.0191ZM22.3935 27.6759C21.9608 28.0298 21.4187 28.2228 20.8597 28.222C20.2088 28.222 19.5846 27.9634 19.1244 27.5032C18.6642 27.0429 18.4056 26.4187 18.4056 25.7679C18.4056 25.117 18.6642 24.4928 19.1244 24.0326C19.5846 23.5723 20.2088 23.3138 20.8597 23.3138C21.4187 23.313 21.9608 23.5059 22.3935 23.8598C21.9844 25.099 21.9844 26.4368 22.3935 27.6759ZM33.1301 25.7679C33.1301 26.7386 32.8423 27.6876 32.3029 28.4947C31.7636 29.3019 30.9971 29.9309 30.1002 30.3024C29.2034 30.6739 28.2165 30.7711 27.2644 30.5817C26.3123 30.3924 25.4378 29.9249 24.7514 29.2385C24.0649 28.5521 23.5975 27.6775 23.4081 26.7254C23.2187 25.7733 23.3159 24.7865 23.6874 23.8896C24.0589 22.9928 24.688 22.2262 25.4951 21.6869C26.3023 21.1476 27.2512 20.8597 28.222 20.8597C29.5237 20.8597 30.7721 21.3768 31.6926 22.2973C32.613 23.2177 33.1301 24.4661 33.1301 25.7679ZM28.222 19.6327H28.1667C28.2006 19.4298 28.2191 19.2248 28.222 19.0191C28.222 18.0429 27.8341 17.1065 27.1438 16.4162C26.4534 15.7259 25.5171 15.338 24.5408 15.338C23.5645 15.338 22.6282 15.7259 21.9379 16.4162C21.2475 17.1065 20.8597 18.0429 20.8597 19.0191C20.8626 19.2248 20.8811 19.4298 20.9149 19.6327H20.8597C20.4683 19.6338 20.0779 19.6728 19.694 19.7492C19.5821 19.0481 19.6236 18.3311 19.8157 17.6476C20.0078 16.9641 20.346 16.3304 20.8067 15.7903C21.2675 15.2501 21.84 14.8163 22.4846 14.5189C23.1293 14.2215 23.8309 14.0674 24.5408 14.0674C25.2508 14.0674 25.9523 14.2215 26.597 14.5189C27.2417 14.8163 27.8142 15.2501 28.2749 15.7903C28.7357 16.3304 29.0738 16.9641 29.2659 17.6476C29.458 18.3311 29.4996 19.0481 29.3876 19.7492C29.0038 19.6728 28.6134 19.6338 28.222 19.6327ZM24.5408 12.8839C23.726 12.8849 22.9195 13.0481 22.1685 13.3641C21.4174 13.6801 20.7368 14.1426 20.1664 14.7245H6.05545C5.93653 14.1374 5.64832 13.598 5.22639 13.1728C4.80446 12.7476 4.26728 12.4552 3.68112 12.3318V6.07386C4.27065 5.95363 4.81181 5.66269 5.23725 5.23725C5.66269 4.81181 5.95363 4.27065 6.07386 3.68113H30.7374C30.8576 4.27065 31.1486 4.81181 31.574 5.23725C31.9994 5.66269 32.5406 5.95363 33.1301 6.07386V12.3318C32.5406 12.452 31.9994 12.7429 31.574 13.1684C31.1486 13.5938 30.8576 14.135 30.7374 14.7245H28.8968C28.3286 14.1448 27.651 13.6836 26.9033 13.3677C26.1556 13.0517 25.3526 12.8873 24.5408 12.8839ZM35.5842 17.1786H30.3938C30.2562 16.7512 30.0731 16.3399 29.8478 15.9515H31.9031V15.338C31.9031 14.8499 32.097 14.3817 32.4422 14.0365C32.7873 13.6914 33.2555 13.4975 33.7436 13.4975H34.3572V4.90817H33.7436C33.2555 4.90817 32.7873 4.71425 32.4422 4.36908C32.097 4.02391 31.9031 3.55575 31.9031 3.0676V2.45408H4.90817V3.0676C4.90817 3.55575 4.71425 4.02391 4.36908 4.36908C4.02391 4.71425 3.55575 4.90817 3.0676 4.90817H2.45408V13.4975H3.0676C3.55575 13.4975 4.02391 13.6914 4.36908 14.0365C4.71425 14.3817 4.90817 14.8499 4.90817 15.338V15.9515H19.2339C19.0085 16.3399 18.8255 16.7512 18.6878 17.1786H1.22704V1.22704H35.5842V17.1786Z" fill="#09376E"/>
<path d="M9.81713 7.36328C9.4531 7.36328 9.09724 7.47123 8.79456 7.67347C8.49189 7.87572 8.25598 8.16317 8.11667 8.49949C7.97736 8.83581 7.94091 9.20589 8.01193 9.56292C8.08295 9.91995 8.25824 10.2479 8.51565 10.5053C8.77306 10.7627 9.10102 10.938 9.45805 11.009C9.81508 11.0801 10.1852 11.0436 10.5215 10.9043C10.8578 10.765 11.1453 10.5291 11.3475 10.2264C11.5497 9.92373 11.6577 9.56787 11.6577 9.20384C11.6577 8.7157 11.4638 8.24754 11.1186 7.90237C10.7734 7.5572 10.3053 7.36328 9.81713 7.36328ZM9.81713 9.81736C9.69578 9.81736 9.57716 9.78138 9.47627 9.71397C9.37538 9.64655 9.29674 9.55073 9.25031 9.43863C9.20387 9.32652 9.19172 9.20316 9.21539 9.08415C9.23907 8.96514 9.2975 8.85582 9.3833 8.77002C9.4691 8.68422 9.57842 8.62578 9.69743 8.60211C9.81645 8.57844 9.9398 8.59059 10.0519 8.63702C10.164 8.68346 10.2598 8.7621 10.3273 8.86299C10.3947 8.96388 10.4306 9.0825 10.4306 9.20384C10.4306 9.36656 10.366 9.52261 10.251 9.63767C10.1359 9.75273 9.97984 9.81736 9.81713 9.81736ZM26.9957 7.36328C26.6317 7.36328 26.2758 7.47123 25.9732 7.67347C25.6705 7.87572 25.4346 8.16317 25.2953 8.49949C25.1559 8.83581 25.1195 9.20589 25.1905 9.56292C25.2615 9.91995 25.4368 10.2479 25.6942 10.5053C25.9516 10.7627 26.2796 10.938 26.6366 11.009C26.9937 11.0801 27.3637 11.0436 27.7001 10.9043C28.0364 10.765 28.3238 10.5291 28.5261 10.2264C28.7283 9.92373 28.8363 9.56787 28.8363 9.20384C28.8363 8.7157 28.6424 8.24754 28.2972 7.90237C27.952 7.5572 27.4839 7.36328 26.9957 7.36328ZM26.9957 9.81736C26.8744 9.81736 26.7558 9.78138 26.6549 9.71397C26.554 9.64655 26.4753 9.55073 26.4289 9.43863C26.3825 9.32652 26.3703 9.20316 26.394 9.08415C26.4177 8.96514 26.4761 8.85582 26.5619 8.77002C26.6477 8.68422 26.757 8.62578 26.876 8.60211C26.995 8.57844 27.1184 8.59059 27.2305 8.63702C27.3426 8.68346 27.4384 8.7621 27.5058 8.86299C27.5733 8.96388 27.6092 9.0825 27.6092 9.20384C27.6092 9.36656 27.5446 9.52261 27.4295 9.63767C27.3145 9.75273 27.1584 9.81736 26.9957 9.81736ZM25.4067 19.0202C25.5072 18.9028 25.5597 18.7518 25.5538 18.5974C25.5478 18.443 25.4838 18.2965 25.3745 18.1873C25.2653 18.078 25.1188 18.014 24.9644 18.008C24.81 18.0021 24.659 18.0546 24.5416 18.1551L23.6766 19.0202C23.5623 19.1351 23.4982 19.2906 23.4982 19.4527C23.4982 19.6148 23.5623 19.7703 23.6766 19.8852C23.7898 20.0008 23.9442 20.067 24.106 20.0693C24.1872 20.069 24.2675 20.0525 24.3423 20.0209C24.417 19.9893 24.4848 19.9432 24.5416 19.8852L25.4067 19.0202ZM21.474 25.1554H20.247C20.0843 25.1554 19.9282 25.22 19.8132 25.3351C19.6981 25.4501 19.6335 25.6062 19.6335 25.7689C19.6335 25.9316 19.6981 26.0877 19.8132 26.2027C19.9282 26.3178 20.0843 26.3824 20.247 26.3824H21.474C21.6367 26.3824 21.7928 26.3178 21.9078 26.2027C22.0229 26.0877 22.0875 25.9316 22.0875 25.7689C22.0875 25.6062 22.0229 25.4501 21.9078 25.3351C21.7928 25.22 21.6367 25.1554 21.474 25.1554ZM24.5416 25.7689C24.5416 26.497 24.7575 27.2087 25.162 27.814C25.5665 28.4194 26.1414 28.8912 26.814 29.1698C27.4867 29.4484 28.2268 29.5213 28.9409 29.3793C29.655 29.2373 30.3109 28.8867 30.8257 28.3719C31.3405 27.857 31.6911 27.2011 31.8331 26.4871C31.9752 25.773 31.9023 25.0328 31.6237 24.3602C31.3451 23.6876 30.8732 23.1127 30.2679 22.7082C29.6625 22.3037 28.9508 22.0878 28.2228 22.0878C27.2465 22.0878 26.3101 22.4756 25.6198 23.166C24.9295 23.8563 24.5416 24.7926 24.5416 25.7689ZM30.6768 25.7689C30.6768 26.2543 30.5329 26.7288 30.2632 27.1323C29.9936 27.5359 29.6103 27.8504 29.1619 28.0362C28.7135 28.2219 28.22 28.2705 27.744 28.1758C27.2679 28.0811 26.8307 27.8474 26.4875 27.5042C26.1442 27.161 25.9105 26.7237 25.8158 26.2477C25.7211 25.7716 25.7697 25.2782 25.9555 24.8298C26.1412 24.3813 26.4558 23.9981 26.8593 23.7284C27.2629 23.4588 27.7374 23.3148 28.2228 23.3148C28.8736 23.3148 29.4978 23.5734 29.9581 24.0336C30.4183 24.4938 30.6768 25.118 30.6768 25.7689Z" fill="#09376E"/>
<path d="M27.3581 24.903C27.2438 25.018 27.1797 25.1735 27.1797 25.3355C27.1797 25.4976 27.2438 25.6531 27.3581 25.7681L28.2232 26.6331C28.28 26.6911 28.3477 26.7372 28.4225 26.7688C28.4973 26.8004 28.5776 26.8169 28.6588 26.8172C28.8206 26.8149 28.9749 26.7487 29.0882 26.6331C29.2025 26.5182 29.2666 26.3627 29.2666 26.2006C29.2666 26.0385 29.2025 25.883 29.0882 25.7681L28.2232 24.903C28.1082 24.7887 27.9527 24.7246 27.7906 24.7246C27.6285 24.7246 27.473 24.7887 27.3581 24.903Z" fill="#09376E"/>
</svg>
