<svg width="36" height="34" viewBox="0 0 36 34" fill="none" xmlns="http://www.w3.org/2000/svg">
<path d="M33.8027 0H11.8641C10.6523 0 9.66687 0.985472 9.66687 2.19727V4.15777H2.19727C0.985472 4.15777 0 5.14325 0 6.35504V15.232C0 16.4438 0.985472 17.4293 2.19727 17.4293H9.66687V31.5363C9.66687 32.748 10.6523 33.7335 11.8641 33.7335H29.9229C30.0764 33.7335 30.2208 33.6685 30.3206 33.5687C31.3891 32.4993 35.7033 28.1901 35.8455 28.0388C35.9094 27.9702 35.9404 27.9063 35.9655 27.8299C35.9823 27.7788 36 27.6657 36 27.6564V2.19727C36 0.985472 35.0145 0 33.8027 0ZM1.125 15.232V6.35504C1.125 5.76398 1.6062 5.28277 2.19727 5.28277C8.85392 5.28277 13.6923 5.28277 20.3214 5.28277C20.9125 5.28277 21.3937 5.76398 21.3937 6.35504V15.232C21.3937 15.8231 20.9125 16.3043 20.3214 16.3043C13.6923 16.3043 8.85391 16.3043 2.19727 16.3043C1.6062 16.3043 1.125 15.8231 1.125 15.232ZM10.7919 31.5363V17.4293H20.3214C21.5332 17.4293 22.5187 16.4438 22.5187 15.232V6.35504C22.5187 5.14325 21.5332 4.15777 20.3214 4.15777H10.7919V2.19727C10.7919 1.6062 11.2731 1.125 11.8641 1.125H33.8027C34.3938 1.125 34.875 1.6062 34.875 2.19727V27.0939H29.9218C29.6109 27.0939 29.3593 27.3455 29.3593 27.6564V32.6085H11.8641C11.2731 32.6085 10.7919 32.1273 10.7919 31.5363ZM30.4843 31.8131V28.2189H34.0785L30.4843 31.8131Z" fill="#09376E"/>
<path d="M14.418 14.125H2.74219V15.25H14.418V14.125Z" fill="#09376E"/>
<path d="M14.418 12.0723H2.74219V13.1973H14.418V12.0723Z" fill="#09376E"/>
<path d="M16.3456 10.3098C18.8984 11.347 20.6149 7.55783 18.1252 6.35071C17.598 6.0812 16.9223 6.06006 16.3464 6.28854C14.8796 5.7003 13.3885 6.81533 13.3885 8.30134C13.3885 9.78817 14.89 10.8974 16.3456 10.3098ZM18.2115 8.30133C18.2115 8.70124 17.9824 9.06873 17.6122 9.24451C16.427 9.85107 15.5066 8.04654 16.6366 7.39277L16.6382 7.39156C17.3314 6.99039 18.2115 7.48407 18.2115 8.30133ZM15.2391 7.29883C14.9289 7.90349 14.9109 8.65942 15.2369 9.29559C14.8178 9.15936 14.5135 8.76495 14.5135 8.30133C14.5135 7.82452 14.814 7.43121 15.2391 7.29883ZM6.14795 10.564C6.45886 10.564 6.71045 10.3124 6.71045 10.0015V6.5957C6.71045 6.28479 6.45886 6.0332 6.14795 6.0332H2.74219C2.43128 6.0332 2.17969 6.28479 2.17969 6.5957V10.0015C2.17969 10.3124 2.43128 10.564 2.74219 10.564H6.14795ZM3.30469 7.1582H5.58545V9.43897H3.30469V7.1582Z" fill="#09376E"/>
<path d="M32.5062 19.3145H13.1602V20.4395H32.5062V19.3145Z" fill="#09376E"/>
<path d="M32.5062 22.1406H13.1602V23.2656H32.5062V22.1406Z" fill="#09376E"/>
<path d="M32.5062 24.9668H13.1602V26.0918H32.5062V24.9668Z" fill="#09376E"/>
<path d="M27.7261 13.7093H25.9961C25.9961 15.677 26.8278 16.6012 28.967 16.7732V18.0672H29.5745V16.7732C31.7534 16.6539 32.5061 15.1485 32.5061 13.9341C32.5061 12.1134 31.3087 11.5952 29.5745 11.0417V8.57242C30.0895 8.57242 30.5782 8.71758 30.6572 9.93259H32.3609C32.1894 7.58214 30.5648 7.27836 29.5745 7.173V6.31445H28.967V7.173C27.0923 7.19937 26.194 8.47997 26.194 9.91969C26.194 11.7417 27.6729 12.2567 28.967 12.6002V15.3733C27.9503 15.1883 27.8052 14.6335 27.7261 13.7093ZM29.5745 12.8244C30.103 12.9701 30.7368 13.3131 30.7368 14.0792C30.7368 15.0959 30.0105 15.3469 29.5745 15.3733V12.8244ZM27.8579 9.60249C27.8579 9.16701 28.1879 8.6122 28.967 8.57241V10.8573C28.4519 10.7379 27.8579 10.4611 27.8579 9.60249Z" fill="#09376E"/>
</svg>
