<svg width="36" height="36" viewBox="0 0 36 36" fill="none" xmlns="http://www.w3.org/2000/svg">
<path d="M34.6448 3.17493C34.5081 3.12674 34.3578 3.13474 34.227 3.19719C34.0961 3.25964 33.9954 3.37143 33.9468 3.50805C33.393 5.13324 32.9246 6.78634 32.5438 8.46055L30.8547 9.91775C29.9869 10.6663 29.4795 10.799 29.2378 10.8042C29.2832 9.34231 30.6673 8.2743 30.6813 8.26391C30.7879 8.18383 30.8617 8.06764 30.8889 7.93708L31.3183 5.86095C31.3362 5.77407 31.3328 5.68411 31.3084 5.59883C31.2839 5.51355 31.239 5.4355 31.1777 5.37139L29.5312 3.65328C29.4811 3.60107 29.4211 3.55933 29.3547 3.53045C29.2883 3.50158 29.2169 3.48616 29.1445 3.48508L26.8898 3.44925C26.7559 3.44387 26.6252 3.49097 26.5255 3.58053L24.4833 5.32599C24.4773 5.33119 24.4732 5.33748 24.4674 5.34268C23.8484 5.4868 23.2595 5.7383 22.7274 6.08577L23.0655 4.40786L25.1804 2.13045L29.3988 1.07584C29.5379 1.03909 29.6569 0.949056 29.73 0.825224C29.8032 0.701391 29.8246 0.553728 29.7897 0.414203C29.7548 0.274677 29.6663 0.154519 29.5435 0.0797414C29.4206 0.00496406 29.2733 -0.0184143 29.1333 0.0146678L24.7573 1.10866C24.6545 1.13446 24.5614 1.18957 24.4893 1.26729L22.1585 3.77636C22.0899 3.85035 22.043 3.94188 22.0232 4.04083L21.3523 7.37312C20.8398 8.05073 20.4923 8.8385 20.3376 9.67387C20.1828 10.5092 20.2249 11.3692 20.4606 12.1854C20.6963 13.0017 21.1191 13.7517 21.6953 14.376C22.2716 15.0002 22.9855 15.4815 23.7803 15.7816C24.5751 16.0818 25.429 16.1924 26.274 16.1048C27.1191 16.0172 27.9321 15.7338 28.6484 15.277C29.3648 14.8202 29.9648 14.2027 30.4008 13.4735C30.8367 12.7443 31.0966 11.9235 31.1599 11.0763C31.2915 10.9767 31.4274 10.8684 31.5693 10.7459L33.3952 9.1711C33.4846 9.09379 33.5466 8.98958 33.5719 8.87408C33.9529 7.18358 34.4223 5.51423 34.9782 3.8729C35.0265 3.73613 35.0186 3.58577 34.956 3.45488C34.8935 3.32399 34.7816 3.22329 34.6448 3.17493ZM27.079 4.54625L28.8992 4.57497L30.1884 5.92058L29.9253 7.19344C29.0164 6.085 27.7078 5.37881 26.2823 5.22753L27.079 4.54625ZM26.3945 10.1177C26.6845 10.118 26.9626 10.2333 27.1677 10.4384C27.3728 10.6435 27.4882 10.9216 27.4885 11.2117V12.0322C27.4882 12.3222 27.3728 12.6003 27.1677 12.8054C26.9626 13.0105 26.6845 13.1259 26.3945 13.1261H26.121V13.6731C26.121 13.8182 26.0633 13.9573 25.9608 14.0599C25.8582 14.1625 25.7191 14.2201 25.574 14.2201C25.4289 14.2201 25.2898 14.1625 25.1872 14.0599C25.0846 13.9573 25.027 13.8182 25.027 13.6731V13.1261H24.48C24.3349 13.1261 24.1958 13.0685 24.0932 12.9659C23.9906 12.8634 23.933 12.7242 23.933 12.5792C23.933 12.4341 23.9906 12.2949 24.0932 12.1924C24.1958 12.0898 24.3349 12.0322 24.48 12.0322H26.3945V11.2117H25.027C24.7369 11.2114 24.4588 11.096 24.2537 10.8909C24.0486 10.6858 23.9333 10.4077 23.933 10.1177V9.29718C23.9333 9.00712 24.0486 8.72903 24.2537 8.52393C24.4588 8.31883 24.7369 8.20348 25.027 8.20319H25.3005V7.65619C25.3005 7.51112 25.3581 7.37199 25.4607 7.26941C25.5633 7.16683 25.7024 7.1092 25.8475 7.1092C25.9926 7.1092 26.1317 7.16683 26.2343 7.26941C26.3368 7.37199 26.3945 7.51112 26.3945 7.65619V8.20319H26.9415C27.0865 8.20319 27.2257 8.26082 27.3283 8.3634C27.4308 8.46598 27.4885 8.60511 27.4885 8.75018C27.4885 8.89526 27.4308 9.03439 27.3283 9.13697C27.2257 9.23955 27.0865 9.29718 26.9415 9.29718H25.027V10.1177H26.3945Z" fill="#09376E"/>
<path d="M0.547232 18.5958H34.4609C34.5843 18.596 34.704 18.5544 34.8008 18.4779C34.8975 18.4014 34.9655 18.2945 34.9938 18.1744C35.0222 18.0544 35.0091 17.9283 34.9567 17.8167C34.9044 17.705 34.8158 17.6143 34.7055 17.5593L30.283 15.3483C29.3108 16.3074 28.0628 16.9382 26.7141 17.1523C25.3653 17.3665 23.9834 17.1532 22.7619 16.5425C21.5404 15.9318 20.5406 14.9542 19.9027 13.7467C19.2647 12.5392 19.0206 11.1624 19.2044 9.80918L17.7486 9.08113C17.6726 9.04319 17.5889 9.02344 17.504 9.02344C17.419 9.02344 17.3353 9.04319 17.2593 9.08113L0.302452 17.5596C0.192205 17.6147 0.103798 17.7054 0.0515609 17.817C-0.000676628 17.9286 -0.013683 18.0546 0.0146501 18.1746C0.0429831 18.2945 0.110995 18.4014 0.207661 18.4779C0.304328 18.5543 0.423983 18.5959 0.547232 18.5958ZM34.4609 31.7237H33.6405V30.0827C33.6405 29.9377 33.5828 29.7985 33.4802 29.696C33.3777 29.5934 33.2385 29.5358 33.0935 29.5358H31.9995V19.6898H28.7175V29.5358H26.256V19.6898H22.974V29.5358H21.3331V24.0658C21.3331 23.0503 20.9297 22.0764 20.2116 21.3583C19.4935 20.6402 18.5196 20.2368 17.5041 20.2368C16.4886 20.2368 15.5147 20.6402 14.7966 21.3583C14.0785 22.0764 13.6751 23.0503 13.6751 24.0658V29.5358H12.0341V19.6898H8.75216V29.5358H6.29068V19.6898H3.00871V29.5358H1.91472C1.76965 29.5358 1.63052 29.5934 1.52794 29.696C1.42536 29.7985 1.36773 29.9377 1.36773 30.0827V31.7237H0.547232C0.40216 31.7237 0.26303 31.7814 0.160448 31.8839C0.0578666 31.9865 0.000236902 32.1257 0.000236902 32.2707V34.4587C0.000236902 34.6038 0.0578666 34.7429 0.160448 34.8455C0.26303 34.9481 0.40216 35.0057 0.547232 35.0057H34.4609C34.606 35.0057 34.7452 34.9481 34.8477 34.8455C34.9503 34.7429 35.0079 34.6038 35.0079 34.4587V32.2707C35.0079 32.1257 34.9503 31.9865 34.8477 31.8839C34.7452 31.7814 34.606 31.7237 34.4609 31.7237ZM14.7691 24.0658C14.7691 23.3404 15.0573 22.6448 15.5702 22.1319C16.0831 21.619 16.7787 21.3308 17.5041 21.3308C18.2295 21.3308 18.9251 21.619 19.438 22.1319C19.9509 22.6448 20.2391 23.3404 20.2391 24.0658V29.5358H14.7691V24.0658ZM32.5465 31.7237H2.46172V30.6297H32.5465V31.7237Z" fill="#09376E"/>
<ellipse cx="25.5834" cy="10.321" rx="3.14204" ry="4.03977" fill="#09376E"/>
</svg>
