<svg width="36" height="36" viewBox="0 0 36 36" fill="none" xmlns="http://www.w3.org/2000/svg">
<path fill-rule="evenodd" clip-rule="evenodd" d="M1.42578 23.1267L4.11008 23.1801L7.86435 19.4291L10.8407 22.4056C11.6188 21.405 12.5753 20.5664 13.6868 19.9238L13.8821 19.8126L14.0353 19.9735L13.3764 17.1855C12.8384 17.3226 12.2793 17.3933 11.7087 17.3933C9.85319 17.3933 8.12234 16.6477 6.83471 15.2979L6.68159 15.137L6.48629 15.2479C3.76266 16.8228 1.9714 19.5742 1.44517 23.0022L1.4258 23.1267H1.42578ZM11.7086 16.0158C8.33393 16.0158 5.58827 13.27 5.58827 9.8947C5.58827 6.51715 8.33393 3.77148 11.7086 3.77148C14.63 3.77148 17.0797 5.8287 17.6854 8.5704C15.1255 9.45357 12.9562 12.4601 12.933 15.8923C12.5301 15.9745 12.1199 16.0159 11.7086 16.0158Z" fill="#09376E"/>
<path fill-rule="evenodd" clip-rule="evenodd" d="M16.0469 35.209H35.2278C35.46 30.0939 33.6832 25.7171 28.9099 22.9602L28.6662 22.8192L28.4681 23.0234C26.8345 24.7358 24.6385 25.6819 22.2839 25.6819C19.9299 25.6819 17.7342 24.7358 16.1004 23.0234L15.9061 22.8192L15.6585 22.9602C14.6478 23.5445 13.7717 24.2018 13.0199 24.9232L16.2223 28.1256H11.2109C11.4376 30.5591 12.3423 32.5642 14.494 34.1004L16.0469 35.209ZM22.2839 23.9343C18.0025 23.9343 14.5191 20.4507 14.5191 16.1686C14.5191 11.8836 18.0025 8.40039 22.2839 8.40039C26.566 8.40039 30.0496 11.8836 30.0496 16.165C30.0496 20.4471 26.566 23.9343 22.2839 23.9343Z" fill="#09376E"/>
<path fill-rule="evenodd" clip-rule="evenodd" d="M7.42255 22L2.04688 27.1345H5.11661C5.88534 32.2737 9.72382 34.4734 13.5623 35.2083C10.8745 33.3735 9.64901 30.804 9.64901 27.1345H12.7936L7.42255 22Z" fill="#09376E"/>
</svg>
