<svg width="24" height="33" viewBox="0 0 24 33" fill="none" xmlns="http://www.w3.org/2000/svg">
<path d="M11.9994 13.8497L13.7137 10.4211V0H10.2852V10.4211L11.9994 13.8497Z" fill="#09376E"/>
<path d="M4.788 8.21697L7.212 5.79297L12 10.581L16.788 5.79297L19.212 8.21697L12 15.429L4.788 8.21697ZM24 27.1495V21.801H23.9571C23.5286 18.3638 17.568 16.7833 12 16.7833C6.432 16.7833 0.471428 18.3604 0.0411427 21.801H0V27.1513C0 27.777 0.207428 28.7455 1.23086 29.7004C1.85486 30.2833 2.78229 30.8644 4.15029 31.3615C6.27943 32.1347 9.06686 32.5615 12 32.5615C14.9331 32.5615 17.7206 32.1364 19.8514 31.3615C23.46 30.0484 24 28.1593 24 27.1495ZM12 20.2118C17.2337 20.2118 20.0657 21.6638 20.3349 22.1198V22.1387C20.064 22.7284 17.2286 24.1787 12 24.1787C6.77657 24.1787 3.94114 22.7421 3.66686 22.2724V22.2484C3.94114 21.6587 6.77486 20.2118 12 20.2118Z" fill="#09376E"/>
</svg>
