<svg width="31" height="26" viewBox="0 0 31 26" fill="none" xmlns="http://www.w3.org/2000/svg">
<path d="M27.625 8.29335V6.76002C27.6285 5.23129 27.0228 3.76415 25.9418 2.68317C24.8609 1.60219 23.3937 0.99648 21.865 1.00002H20.7583M3.62502 8.29335V6.76002C3.62149 5.2336 4.22537 3.76849 5.30346 2.6879C6.38156 1.60731 7.84526 1.00003 9.37168 1.00003H10.5317M27.625 14.1467V19.24C27.6285 20.7687 27.0228 22.2359 25.9418 23.3168C24.8609 24.3978 23.3937 25.0035 21.865 25H20.7583M3.62502 14.1467V19.24C3.62148 20.7687 4.22719 22.2359 5.30817 23.3168C6.38915 24.3978 7.85629 25.0035 9.38502 25H10.5317" stroke="white" stroke-width="1.5" stroke-linecap="round" stroke-linejoin="round"/>
<path d="M30.1999 14.1465H1" stroke="white" stroke-width="1.5" stroke-linecap="round" stroke-linejoin="round"/>
</svg>
