<svg width="28" height="24" viewBox="0 0 28 24" fill="none" xmlns="http://www.w3.org/2000/svg">
<path fill-rule="evenodd" clip-rule="evenodd" d="M2.856 4.49903L19.264 0.103023C20.865 -0.325977 22.51 0.624025 22.938 2.22403L23.547 4.49603H25C26.657 4.49603 28 5.83903 28 7.49603C28 10.767 28 17.225 28 20.496C28 22.153 26.657 23.496 25 23.496C20.157 23.496 7.843 23.496 3 23.496C1.343 23.496 0 22.153 0 20.496C0 17.225 0 10.767 0 7.49603C0 5.88803 1.266 4.57503 2.856 4.49903ZM26 10.496V7.49603C26 6.94403 25.552 6.49603 25 6.49603H3.018H3.009H2.986C2.44 6.50303 2 6.94803 2 7.49603C2 10.767 2 17.225 2 20.496C2 21.048 2.448 21.496 3 21.496C7.843 21.496 20.157 21.496 25 21.496C25.552 21.496 26 21.048 26 20.496V17.496H19C18.47 17.496 17.961 17.285 17.586 16.91C17.211 16.535 17 16.026 17 15.496C17 14.625 17 13.367 17 12.496C17 11.966 17.211 11.457 17.586 11.082C17.961 10.707 18.47 10.496 19 10.496H26ZM19 12.496V15.496H26V12.496H19ZM21.477 4.49603L21.007 2.74203C20.864 2.20803 20.315 1.89203 19.782 2.03503L10.596 4.49603H21.477Z" fill="#09376E"/>
</svg>
