<svg width="39" height="40" viewBox="0 0 39 40" fill="none" xmlns="http://www.w3.org/2000/svg">
<path d="M23.7183 0.0653006C23.5688 0.108051 23.2158 0.150802 22.9366 0.161411C21.8247 0.182631 18.2328 1.08944 16.9286 1.66548C16.811 1.71884 16.4795 1.8577 16.1803 1.97503C15.3986 2.27366 13.3367 3.25443 13.0162 3.48972C12.8664 3.58583 12.6206 3.71377 12.4602 3.74591C12.2998 3.78866 12.1716 3.86324 12.1716 3.90599C12.1716 3.94874 12.0859 4.0124 11.9899 4.05515C11.883 4.08635 11.6585 4.21523 11.4768 4.33256C11.2958 4.45251 11.1064 4.5595 10.9102 4.65272C10.7711 4.70608 10.5037 4.87677 10.3114 5.02718C10.1191 5.17758 9.92681 5.29398 9.89461 5.29398C9.64883 5.29398 6.20487 7.79036 5.23365 8.6641C4.44411 9.37744 2.97978 10.9377 2.97978 11.0641C2.97978 11.0953 2.88347 11.2454 2.75527 11.3842C2.43445 11.7468 1.47324 13.2618 1.19464 13.8272C1.07675 14.0937 0.84161 14.5634 0.692144 14.8832C0.168389 15.9501 -0.0454915 17.1128 0.00797846 18.4677C0.0720799 19.8014 0.371324 20.496 1.28 21.4122C2.23152 22.3618 3.24682 22.7777 4.85061 22.8629C5.95159 22.9163 6.74269 22.8317 7.84367 22.5215C8.19639 22.4257 8.66667 22.3084 8.89118 22.2444C9.11569 22.1911 9.37241 22.1056 9.47935 22.0416C9.72513 21.9137 11.1053 21.2949 11.1679 21.2949C11.3605 21.2949 13.6159 19.9187 15.7019 18.5317C17.0808 17.6143 18.2888 16.8154 18.3957 16.7608C18.492 16.6968 19.144 16.3127 19.8388 15.8967C20.5336 15.4911 21.3888 15.0005 21.7418 14.8192C22.0948 14.6379 22.597 14.3711 22.864 14.2326C23.1314 14.1047 23.6339 13.87 23.9866 13.7417C24.3393 13.6032 24.7777 13.4219 24.9487 13.347C25.1304 13.2724 25.3865 13.1551 25.5366 13.0911C25.9534 12.9204 26.8943 12.7497 27.8136 12.6855C29.802 12.5572 31.1907 13.4322 31.908 15.267C32.079 15.7039 32.1109 16.0671 32.1109 17.3475C32.1109 18.9049 31.9721 19.7583 31.5553 20.7613C31.4696 20.9638 31.352 21.2518 31.2879 21.4013C30.7532 22.6807 29.6522 24.5161 28.3908 26.1806C27.1935 27.7808 24.6173 30.4369 22.9188 31.8346C22.3309 32.3255 21.6786 32.8587 21.4757 33.0294C21.0267 33.4039 20.5029 33.7762 19.9257 34.1603C19.6906 34.3095 19.3056 34.566 19.0705 34.7363C18.4076 35.1844 16.6437 36.1231 15.6497 36.55C15.361 36.6779 14.9655 36.8486 14.7741 36.9341C14.5925 37.0193 14.3467 37.0833 14.2291 37.0833C14.1222 37.0833 13.8764 37.1366 13.6838 37.2006C12.989 37.4462 12.2836 36.9765 12.2836 36.2619C12.2836 35.3882 12.7004 34.8324 15.3301 32.2293C18.1737 29.4128 18.4836 28.9968 18.4836 27.9299C18.4836 26.8312 17.9598 26.0845 16.7841 25.4872C16.271 25.2204 16.0784 25.1883 15.1806 25.1883C14.1328 25.1883 13.5234 25.3378 12.7645 25.7965C12.5934 25.9032 12.3267 26.0417 12.1766 26.1166C12.0265 26.1915 11.888 26.2764 11.8558 26.3085C11.8236 26.3407 11.61 26.5005 11.3749 26.683C10.8083 27.1096 9.81393 28.1231 9.24859 28.8592C8.85303 29.3713 8.56442 29.8512 7.89089 31.11C7.33493 32.1557 6.83244 34.0973 6.83244 35.2291C6.83244 37.5226 8.02972 39.3575 9.87928 39.8786C10.4349 40.0387 12.7013 40.0387 13.4818 39.8892C14.2513 39.7294 16.261 39.1091 16.3898 38.9933C16.463 38.9352 16.5527 38.9016 16.6462 38.8972C16.9242 38.8972 20.0992 37.2864 21.1896 36.5821C21.4354 36.4223 21.7133 36.2407 21.8203 36.1764C21.9166 36.1231 22.4188 35.8138 22.9428 35.4937C23.456 35.1738 23.9047 34.8749 23.9369 34.8431C23.9682 34.8003 24.3324 34.5335 24.7386 34.2564C25.1554 33.9681 25.6367 33.6376 25.8077 33.5203C25.9894 33.392 26.4919 33.0082 26.9299 32.6559C29.7094 30.4479 32.1681 28.09 33.6006 26.2552C33.8357 25.9672 34.0496 25.7004 34.0818 25.6685C34.1672 25.6046 34.8948 24.5589 35.3951 23.7694C35.6715 23.3497 35.9249 22.9153 36.154 22.4682C36.3572 22.084 36.6349 21.5614 36.774 21.2946C36.9132 21.0278 37.2118 20.3344 37.4476 19.7477C37.6721 19.1608 37.8966 18.5847 37.9391 18.4683C38.2387 17.711 38.6983 15.7588 38.9013 14.3612C39.1258 12.7822 38.9548 10.19 38.5164 8.76052C38.3347 8.17387 38.2922 8.06715 37.8966 7.2137C37.0414 5.37854 35.6731 3.71439 34.1015 2.62659C33.8876 2.47743 33.6206 2.2746 33.503 2.15852C33.1181 1.81714 31.1619 0.941531 30.0181 0.611697C29.354 0.422826 28.6792 0.273199 27.9975 0.163596C26.8399 0.0119403 24.0726 -0.0626392 23.7183 0.0653006Z" fill="#FF0000"/>
</svg>
