<svg width="60" height="25" viewBox="0 0 60 25" fill="none" xmlns="http://www.w3.org/2000/svg">
<path d="M2.12987 18.2292L53.6566 18.1992L51.4468 24.4488L0 24.4788L2.12987 18.2292Z" fill="#4A5159"/>
<mask id="mask0_1559_542" style="mask-type:luminance" maskUnits="userSpaceOnUse" x="3" y="0" width="22" height="16">
<path d="M13.6744 0.0910125C8.55467 0.410992 7.10476 3.19082 6.44481 5.37068C5.84484 8.01051 6.38481 9.87039 10.0646 10.4104L15.6542 10.4604C15.6042 10.8203 14.7743 11.0403 14.4543 11.0403L5.06489 10.9603L3.375 15.88L13.5544 16C16.8941 15.72 19.444 15.32 21.2039 11.5603C22.5238 8.34049 22.0438 6.02064 17.5841 5.68066H12.3844C12.4244 5.45067 12.9544 4.88071 13.4244 4.90071L22.8238 4.9607L24.5137 0.0410156H24.5037L13.6744 0.0910125Z" fill="white"/>
</mask>
<g mask="url(#mask0_1559_542)">
<path d="M24.5039 16.5496L24.9439 0.0406683L3.38528 -0.529297L2.94531 15.9797L24.5039 16.5496Z" fill="url(#paint0_linear_1559_542)"/>
</g>
<path d="M24.5237 0.0292969L13.6743 0.0892937C8.55467 0.409273 7.10476 3.1891 6.44481 5.36896C6.31481 5.94892 6.23482 6.49889 6.23482 6.99886C6.23482 8.76875 7.19476 9.98867 10.0646 10.4086L15.6542 10.4586C15.6042 10.8186 14.7843 11.0386 14.4543 11.0386C14.4543 11.0386 14.4543 11.0386 14.4443 11.0386L5.05489 10.9586L3.375 15.8683L5.06489 10.9486L14.4543 11.0286C14.4543 11.0286 14.4543 11.0286 14.4643 11.0286C14.7943 11.0286 15.6042 10.8186 15.6642 10.4486L10.0746 10.3986C7.21476 9.97867 6.24482 8.75875 6.24482 6.98886C6.24482 6.48889 6.32481 5.93892 6.45481 5.35896C7.11476 3.1791 8.56467 0.399274 13.6843 0.0792937L24.5237 0.0292969Z" fill="url(#paint1_linear_1559_542)"/>
<mask id="mask1_1559_542" style="mask-type:luminance" maskUnits="userSpaceOnUse" x="22" y="0" width="21" height="17">
<path d="M22.9226 9.80938C21.9426 14.4791 23.6925 16.609 29.9021 16.089C33.3719 16.079 37.2017 14.4791 38.3616 10.9493L42.2313 0.0999937L36.5017 0.0499968L32.7319 10.5193C32.552 10.9293 31.972 11.4093 31.542 11.4193L29.2522 11.4693C28.6722 11.3493 28.5122 11.0093 28.6322 10.6093L32.352 0.0499968L26.6723 0L22.9226 9.80938Z" fill="white"/>
</mask>
<g mask="url(#mask1_1559_542)">
<path d="M43.4578 16.5186L42.1079 -1.49023L20.6992 0.0996646L22.0491 18.1085L43.4578 16.5186Z" fill="url(#paint2_linear_1559_542)"/>
</g>
<path d="M26.6499 0.00976562L32.3295 0.0597625L28.5998 10.6191C28.5798 10.6991 28.5598 10.7691 28.5598 10.8491C28.5598 11.1391 28.7498 11.379 29.2197 11.479L31.5096 11.429C31.9396 11.409 32.5295 10.9291 32.6995 10.5291L36.4693 0.0597625L42.1989 0.109759L38.3292 10.9591C37.1992 14.4788 33.3695 16.0787 29.8897 16.0887C29.2797 16.1387 28.7198 16.1687 28.1898 16.1687C24.2701 16.1687 22.6602 14.7588 22.6602 11.979C22.6602 11.329 22.7502 10.6091 22.9101 9.80914L26.6499 0.00976562L22.9201 9.80914C22.7502 10.6091 22.6702 11.329 22.6702 11.979C22.6702 14.7588 24.2901 16.1687 28.1998 16.1687C28.7198 16.1687 29.2897 16.1387 29.8997 16.0887C33.3695 16.0787 37.1992 14.4789 38.3592 10.9491L42.2289 0.0997593L36.4993 0.0497625L32.7295 10.5191C32.5495 10.9291 31.9696 11.409 31.5396 11.419L29.2497 11.469C28.7898 11.369 28.5898 11.1291 28.5898 10.8391C28.5898 10.7691 28.5998 10.6891 28.6298 10.6091L32.3595 0.0497625L26.6499 0.00976562Z" fill="url(#paint3_linear_1559_542)"/>
<mask id="mask2_1559_542" style="mask-type:luminance" maskUnits="userSpaceOnUse" x="38" y="0" width="22" height="17">
<path d="M46.4904 9.64939L44.2006 16.019H38.2109L43.9606 0.209987L50.0202 0.139992L51.6701 6.20961L54.2199 0L59.9896 0.119992L54.2299 16.019L48.6903 16.029L46.4904 9.64939Z" fill="white"/>
</mask>
<g mask="url(#mask2_1559_542)">
<path d="M38.2155 16.1783L38.1055 -0.000634464L59.9941 -0.140625L60.0941 16.0284L38.2155 16.1783Z" fill="url(#paint4_linear_1559_542)"/>
</g>
<path d="M38.2148 16.019L43.9645 0.209987L50.0241 0.139992L51.674 6.20961L54.2238 0L59.9935 0.119992L54.2338 16.019L48.6942 16.039L46.4943 9.64939L44.2045 16.019H38.2148H44.2045L46.4943 9.64939L48.6942 16.039L54.2338 16.019L59.9935 0.119992L54.2238 0L51.674 6.20961L50.0241 0.139992L43.9645 0.209987L38.2148 16.019Z" fill="url(#paint5_linear_1559_542)"/>
<path d="M14.058 19.4688H14.878L13.4381 23.2485L12.5781 23.2785L14.058 19.4688Z" fill="white"/>
<path d="M33.1034 19.4688H31.5035C30.4935 19.5887 29.8636 20.1587 29.4836 20.9387C28.8136 22.0786 28.9836 23.2585 30.0436 23.2385L31.6435 23.2585L31.8934 22.5486L30.4935 22.5686C29.9336 22.5686 29.7536 22.2186 30.0136 21.6386L32.2234 21.6586L32.5134 20.9987H30.2635C30.4135 20.5787 30.5535 20.2787 31.3935 20.1087L32.8534 20.1487L33.1034 19.4688Z" fill="white"/>
<path d="M42.2049 19.4785H40.605C39.5951 19.5985 38.9651 20.1685 38.5852 20.9484C37.9152 22.0884 38.0852 23.2683 39.1451 23.2483L40.745 23.2683L40.995 22.5583L39.5951 22.5783C39.0351 22.5783 38.8551 22.2283 39.1151 21.6484L39.3651 21.0084C39.5151 20.5884 39.6551 20.2885 40.495 20.1185L41.9549 20.1585L42.2049 19.4785Z" fill="white"/>
<path d="M47.2778 19.4692C47.1078 19.9692 47.0078 20.1492 47.0078 20.1492L48.2177 20.1692L47.0278 23.219L47.8778 23.239L49.0277 20.1492L50.3176 20.1092L50.5676 19.4492L47.2778 19.4692Z" fill="white"/>
<path d="M23.5082 19.4482L21.1083 19.4082L19.6484 23.248H20.4984L21.0383 21.7381L22.0183 21.7781L22.2483 23.268H23.1282L22.8182 21.6681C23.5182 21.4081 23.8082 21.0981 23.9882 20.5081C24.1582 19.9282 24.0382 19.5482 23.5082 19.4482ZM23.2382 20.5481C23.1382 20.8581 22.9582 20.9881 22.6982 21.0481L21.3183 21.0681L21.6683 20.1182L22.8782 20.1382C23.1682 20.1882 23.3082 20.3081 23.2382 20.5481Z" fill="white"/>
<path d="M6.60915 19.4883H4.60928L3.10938 23.268H5.56922C6.47916 23.1181 7.07912 22.4381 7.3991 21.5282C7.75908 20.2682 7.57909 19.5083 6.60915 19.4883ZM6.60915 21.3882C6.41917 21.9781 6.13918 22.4681 5.53922 22.5081L4.2793 22.5481L5.14925 20.1182H6.30917C6.87914 20.3882 6.81914 20.5882 6.60915 21.3882Z" fill="white"/>
<defs>
<linearGradient id="paint0_linear_1559_542" x1="13.9146" y1="9.17982" x2="14.0466" y2="4.20982" gradientUnits="userSpaceOnUse">
<stop stop-color="#EE322E"/>
<stop offset="0.3309" stop-color="#F1512C"/>
<stop offset="0.7669" stop-color="#F4752B"/>
<stop offset="1" stop-color="#F5832A"/>
</linearGradient>
<linearGradient id="paint1_linear_1559_542" x1="13.9275" y1="25.3366" x2="13.9669" y2="-1.51066" gradientUnits="userSpaceOnUse">
<stop/>
<stop offset="0.0956971" stop-color="#060606"/>
<stop offset="0.2201" stop-color="#161616"/>
<stop offset="0.3602" stop-color="#313131"/>
<stop offset="0.5119" stop-color="#565656"/>
<stop offset="0.6731" stop-color="#868686"/>
<stop offset="0.8394" stop-color="#C0C0C0"/>
<stop offset="1" stop-color="white"/>
</linearGradient>
<linearGradient id="paint2_linear_1559_542" x1="32.2356" y1="10.4375" x2="31.7891" y2="4.44918" gradientUnits="userSpaceOnUse">
<stop stop-color="#EE322E"/>
<stop offset="0.3309" stop-color="#F1512C"/>
<stop offset="0.7669" stop-color="#F4752B"/>
<stop offset="1" stop-color="#F5832A"/>
</linearGradient>
<linearGradient id="paint3_linear_1559_542" x1="31.8393" y1="26.2516" x2="32.7331" y2="-4.09268" gradientUnits="userSpaceOnUse">
<stop/>
<stop offset="0.0956971" stop-color="#060606"/>
<stop offset="0.2201" stop-color="#161616"/>
<stop offset="0.3602" stop-color="#313131"/>
<stop offset="0.5119" stop-color="#565656"/>
<stop offset="0.6731" stop-color="#868686"/>
<stop offset="0.8394" stop-color="#C0C0C0"/>
<stop offset="1" stop-color="white"/>
</linearGradient>
<linearGradient id="paint4_linear_1559_542" x1="49.1192" y1="10.1269" x2="49.0795" y2="4.16309" gradientUnits="userSpaceOnUse">
<stop stop-color="#EE322E"/>
<stop offset="0.3309" stop-color="#F1512C"/>
<stop offset="0.7669" stop-color="#F4752B"/>
<stop offset="1" stop-color="#F5832A"/>
</linearGradient>
<linearGradient id="paint5_linear_1559_542" x1="49.2423" y1="26.1102" x2="49.0065" y2="-4.05224" gradientUnits="userSpaceOnUse">
<stop/>
<stop offset="0.0956971" stop-color="#060606"/>
<stop offset="0.2201" stop-color="#161616"/>
<stop offset="0.3602" stop-color="#313131"/>
<stop offset="0.5119" stop-color="#565656"/>
<stop offset="0.6731" stop-color="#868686"/>
<stop offset="0.8394" stop-color="#C0C0C0"/>
<stop offset="1" stop-color="white"/>
</linearGradient>
</defs>
</svg>
