<svg width="71" height="9" viewBox="0 0 71 9" fill="none" xmlns="http://www.w3.org/2000/svg">
<path d="M52.4062 8.79258C52.4062 8.77119 52.967 7.25886 54.5497 3.01218L55.4417 0.619141H58.8968L59.2988 1.65854C60.0364 3.56542 62.0268 8.77034 62.0268 8.7921C62.0268 8.80388 61.3229 8.81349 60.4627 8.81349H58.8987L58.1844 6.79512C57.1703 3.92993 57.1844 3.96758 57.1421 4.01158C57.121 4.03363 56.7552 5.05231 56.3293 6.27542C55.9033 7.49852 55.5296 8.56995 55.4987 8.65637L55.4425 8.81349H53.9244C53.0894 8.81349 52.4062 8.80406 52.4062 8.79258Z" fill="#E10091"/>
<path d="M2.37277 5.8894V2.96457H0.00390625V0.595703H7.93236V2.96457H5.61184V8.81422H2.37277V5.8894ZM7.32081 8.50561C7.38244 8.33592 8.0728 6.48705 8.85495 4.39707L10.2771 0.597214L11.9985 0.596428L13.7199 0.595703L14.6761 3.09752C15.202 4.47351 15.9012 6.3034 16.23 7.16393C16.5587 8.02446 16.8277 8.74811 16.8277 8.77204C16.8277 8.79724 16.1717 8.81023 15.2728 8.80286L13.7178 8.79005L12.8806 6.44535C12.4202 5.15577 12.0263 4.0609 12.0051 4.01225C11.9777 3.9491 11.7251 4.62278 11.1219 6.36855L10.2771 8.81326L8.74291 8.81374L7.20877 8.81422L7.32081 8.50561ZM18.5197 5.8894V2.96457H16.1992V0.595703H24.0793V2.96457H21.8072V8.81422H18.5197V5.8894ZM23.3542 8.79331C23.3542 8.77192 23.915 7.25959 25.4976 3.01291L26.3896 0.619875H29.8447L30.2467 1.65928C30.9842 3.56615 32.9747 8.77108 32.9747 8.79283C32.9747 8.80461 32.2708 8.81422 31.4106 8.81422H29.8466L29.1323 6.79585C28.1183 3.93067 28.1323 3.96832 28.09 4.01231C28.0689 4.03437 27.7032 5.05304 27.2772 6.27615C26.8512 7.49926 26.4775 8.57069 26.4466 8.6571L26.3904 8.81422H24.8723C24.0373 8.81422 23.3542 8.80479 23.3542 8.79331Z" fill="black"/>
<path d="M37.1367 0.587891V8.81372H39.844V6.88986L40.823 6.86732C41.9322 6.84176 42.1862 6.79348 42.8352 6.48419C43.5767 6.13092 44.1194 5.44328 44.343 4.57393C44.4652 4.09919 44.476 3.31777 44.367 2.84756C44.1252 1.80502 43.3502 1.05326 42.186 0.731775C41.8205 0.630796 41.6895 0.624753 39.4693 0.606805L37.1367 0.587891ZM39.844 2.91573L40.3879 2.91597C41.0526 2.91627 41.2641 2.97078 41.4942 3.2009C41.8926 3.59937 41.7715 4.31481 41.2575 4.59865C41.0878 4.69232 40.9578 4.71492 40.4496 4.73897L39.8441 4.76749V3.8417L39.844 2.91573ZM45.5003 4.70446V0.595203H48.3526V6.44485H51.495V8.81372H45.5003V4.70446ZM63.7743 7.66555V6.51737L62.3025 3.55629L60.8308 0.595203L62.3631 0.597499L63.8954 0.599856L64.6411 2.14451C65.0511 2.99416 65.4024 3.68923 65.4217 3.68923C65.441 3.68923 65.8197 2.99308 66.2634 2.14222L67.07 0.595203H70.0059L69.8227 0.921526C69.7038 1.13409 69.5866 1.34761 69.4712 1.56209C69.3786 1.73492 68.7334 2.92165 68.0373 4.19927L66.7717 6.5222V8.81372H63.7744L63.7743 7.66555Z" fill="#E10091"/>
</svg>
