<svg width="33" height="35" viewBox="0 0 33 35" fill="none" xmlns="http://www.w3.org/2000/svg">
<path d="M23.3573 0.85H9.64209C8.09591 0.85 6.83828 2.10763 6.83828 3.65381V31.4599C6.83828 33.0061 8.09591 34.2637 9.64209 34.2637H23.3573C24.9035 34.2637 26.161 33.0061 26.161 31.4599V3.65381C26.161 2.10763 24.9035 0.85 23.3573 0.85ZM20.5769 1.85455V2.51477C20.5769 2.95639 20.2174 3.31591 19.7758 3.31591H13.2235C12.7819 3.31591 12.4224 2.95639 12.4224 2.51477V1.85455H20.5769ZM23.3573 33.2591H9.64209C8.65008 33.2591 7.84283 32.4518 7.84283 31.4598V29.3318H25.1565V31.4598C25.1565 32.4518 24.3492 33.2591 23.3573 33.2591ZM25.1565 28.3273H7.84283V3.65381C7.84283 2.6618 8.65008 1.85455 9.64209 1.85455H11.4178V2.51477C11.4178 3.51057 12.2277 4.32045 13.2235 4.32045H19.7758C20.7716 4.32045 21.5815 3.51057 21.5815 2.51477V1.85455H23.3573C24.3492 1.85455 25.1565 2.6618 25.1565 3.65381V28.3273Z" fill="black" stroke="black" stroke-width="0.3"/>
<path d="M31.4737 28.2752C31.8484 28.2752 32.1521 27.9714 32.1521 27.5968C32.1521 27.2221 31.8484 26.9184 31.4737 26.9184C31.099 26.9184 30.7953 27.2221 30.7953 27.5968C30.7953 27.9714 31.099 28.2752 31.4737 28.2752Z" fill="black" stroke="black" stroke-width="0.3"/>
<path d="M3.64169 18.7635C4.01637 18.7635 4.3201 18.4597 4.3201 18.085C4.3201 17.7104 4.01637 17.4066 3.64169 17.4066C3.26702 17.4066 2.96328 17.7104 2.96328 18.085C2.96328 18.4597 3.26702 18.7635 3.64169 18.7635Z" fill="black" stroke="black" stroke-width="0.3"/>
<path d="M32.15 7.34118C32.15 6.09287 31.1347 5.07754 29.8864 5.07754C28.6381 5.07754 27.6227 6.09287 27.6227 7.34118C27.6227 8.58948 28.6381 9.60481 29.8864 9.60481C31.1347 9.60481 32.15 8.58948 32.15 7.34118ZM28.6273 7.34118C28.6273 6.64705 29.1922 6.08208 29.8864 6.08208C30.5805 6.08208 31.1455 6.64705 31.1455 7.34118C31.1455 8.03531 30.5805 8.60027 29.8864 8.60027C29.1922 8.60027 28.6273 8.03531 28.6273 7.34118ZM2.76136 25.5094C1.70731 25.5094 0.85 26.3667 0.85 27.4207C0.85 28.4748 1.70731 29.3321 2.76136 29.3321C3.81542 29.3321 4.67273 28.4748 4.67273 27.4207C4.67273 26.3667 3.81542 25.5094 2.76136 25.5094ZM2.76136 28.3275C2.26148 28.3275 1.85455 27.9206 1.85455 27.4207C1.85455 26.9208 2.26148 26.5139 2.76136 26.5139C3.26125 26.5139 3.66818 26.9208 3.66818 27.4207C3.66818 27.9206 3.26125 28.3275 2.76136 28.3275ZM16.5 29.7366C15.6402 29.7366 14.9409 30.4359 14.9409 31.2957C14.9409 32.1555 15.6402 32.8548 16.5 32.8548C17.3598 32.8548 18.0591 32.1555 18.0591 31.2957C18.0591 30.4359 17.3598 29.7366 16.5 29.7366ZM16.5 31.8503C16.1944 31.8503 15.9455 31.6014 15.9455 31.2957C15.9455 30.9901 16.1944 30.7412 16.5 30.7412C16.8056 30.7412 17.0545 30.9901 17.0545 31.2957C17.0545 31.6014 16.8056 31.8503 16.5 31.8503ZM20.5688 14.5889H20.525V12.6253C20.525 10.4057 18.7195 8.60027 16.5 8.60027C14.2805 8.60027 12.475 10.4057 12.475 12.6253V14.5889H12.4312C11.484 14.5889 10.7136 15.3593 10.7136 16.3065V23.3872C10.7136 24.3344 11.484 25.1048 12.4312 25.1048H20.5688C21.516 25.1048 22.2864 24.3344 22.2864 23.3872V16.3065C22.2864 15.3593 21.516 14.5889 20.5688 14.5889ZM13.4795 12.6253C13.4795 10.9599 14.8347 9.60481 16.5 9.60481C18.1653 9.60481 19.5205 10.9599 19.5205 12.6253V14.5889H18.7636V12.6253C18.7636 11.377 17.7483 10.3616 16.5 10.3616C15.2517 10.3616 14.2364 11.377 14.2364 12.6253V14.5889H13.4795V12.6253ZM17.7591 14.5889H15.2409V12.6253C15.2409 11.9311 15.8059 11.3662 16.5 11.3662C17.1941 11.3662 17.7591 11.9311 17.7591 12.6253V14.5889ZM12.4312 15.5934H20.5688C20.9618 15.5934 21.2818 15.9134 21.2818 16.3065V16.7025H11.7182V16.3065C11.7182 15.9134 12.0382 15.5934 12.4312 15.5934ZM20.5688 24.1003H12.4312C12.0382 24.1003 11.7182 23.7803 11.7182 23.3872V17.7071H21.2818V23.3872C21.2818 23.7803 20.9618 24.1003 20.5688 24.1003Z" fill="black" stroke="black" stroke-width="0.3"/>
<path d="M16.4996 18.4633C15.4456 18.4633 14.5883 19.3206 14.5883 20.3746C14.5883 21.2552 15.1864 21.9979 15.9974 22.219V22.911C15.9974 23.1884 16.2222 23.4133 16.4996 23.4133C16.7771 23.4133 17.0019 23.1884 17.0019 22.911V22.219C17.8129 21.9979 18.411 21.2552 18.411 20.3746C18.411 19.3206 17.5537 18.4633 16.4996 18.4633ZM16.4996 21.2815C15.9998 21.2815 15.5928 20.8745 15.5928 20.3746C15.5928 19.8748 15.9998 19.4678 16.4996 19.4678C16.9995 19.4678 17.4065 19.8748 17.4065 20.3746C17.4065 20.8745 16.9995 21.2815 16.4996 21.2815Z" fill="black" stroke="black" stroke-width="0.3"/>
</svg>
