<svg width="25" height="31" viewBox="0 0 25 31" fill="none" xmlns="http://www.w3.org/2000/svg">
<path d="M16.2188 1L20.6118 5.70686H16.2188V1Z" fill="black"/>
<path d="M9.237 27.986H3.90256C2.29439 27.986 1 26.6916 1 25.0834V3.90256C1 2.29439 2.29439 1 3.90256 1H16.2581L20.6119 5.70686L20.6511 5.74608V20.6119" stroke="black" stroke-miterlimit="10" stroke-linecap="round" stroke-linejoin="round"/>
<path d="M16.2207 1V5.70686H20.6138M4.33594 7.70727H13.7889M4.33594 11.0805H10.1803M22.6534 30.3002H10.8079C9.94494 30.3002 9.23891 29.5941 9.23891 28.7312V22.1808C9.23891 21.3179 9.94494 20.6119 10.8079 20.6119H22.6534C23.5164 20.6119 24.2224 21.3179 24.2224 22.1808V28.7312C24.2224 29.5941 23.5164 30.3002 22.6534 30.3002Z" stroke="black" stroke-miterlimit="10" stroke-linecap="round" stroke-linejoin="round"/>
<path d="M16.1409 26.5344L16.4155 28.221H11.3164L11.591 26.5344C11.6694 26.0637 12.0617 25.7107 12.5323 25.7107H15.1996C15.6702 25.7107 16.0625 26.0637 16.1409 26.5344ZM14.6504 23.1219C14.8858 23.3572 15.0819 23.671 15.0819 24.024V24.1809C15.0034 24.7693 14.4935 25.2008 13.9052 25.2008C13.2384 25.2008 12.7285 24.6516 12.7285 24.024V23.8279C12.8069 23.2396 13.3168 22.8081 13.9052 22.8081H14.0228C14.219 22.8473 14.4543 22.965 14.6504 23.1219Z" fill="black"/>
<path d="M18.2969 23.7896H21.827M18.2969 25.7115H21.827M18.2969 27.6335H21.827" stroke="black" stroke-miterlimit="10" stroke-linecap="round" stroke-linejoin="round"/>
<path d="M18.2979 20.6122H15.1992V19.7493C15.1992 19.3179 15.5522 18.9648 15.9837 18.9648H17.5134C17.9449 18.9648 18.2979 19.3179 18.2979 19.7493V20.6122Z" fill="black"/>
<path d="M4.21875 17.003C4.88555 16.0224 5.9446 14.4926 6.41528 14.6495C7.00364 14.8064 6.6114 16.8461 6.92519 16.9245C7.27821 16.9637 8.02346 15.081 8.61182 15.081C9.16095 15.081 8.84716 16.9637 9.43551 17.0422C9.78853 17.0814 10.3769 16.6107 11.3575 13.6689" stroke="black" stroke-miterlimit="10" stroke-linecap="round" stroke-linejoin="round"/>
</svg>
