<svg width="16" height="15" viewBox="0 0 16 15" fill="none" xmlns="http://www.w3.org/2000/svg">
<path d="M1.89083 15H8.19361C8.69509 15 9.17603 14.8025 9.53063 14.4508C9.88523 14.0992 10.0844 13.6223 10.0844 13.125V12.5C10.0844 12.3342 10.018 12.1753 9.89984 12.0581C9.78164 11.9408 9.62133 11.875 9.45417 11.875C9.28701 11.875 9.12669 11.9408 9.00849 12.0581C8.89029 12.1753 8.82389 12.3342 8.82389 12.5V13.125C8.82389 13.2908 8.75748 13.4497 8.63928 13.5669C8.52108 13.6842 8.36077 13.75 8.19361 13.75H1.89083C1.72367 13.75 1.56336 13.6842 1.44516 13.5669C1.32696 13.4497 1.26056 13.2908 1.26056 13.125V1.875C1.26056 1.70924 1.32696 1.55027 1.44516 1.43306C1.56336 1.31585 1.72367 1.25 1.89083 1.25H8.19361C8.36077 1.25 8.52108 1.31585 8.63928 1.43306C8.75748 1.55027 8.82389 1.70924 8.82389 1.875V2.5C8.82389 2.66576 8.89029 2.82473 9.00849 2.94194C9.12669 3.05915 9.28701 3.125 9.45417 3.125C9.62133 3.125 9.78164 3.05915 9.89984 2.94194C10.018 2.82473 10.0844 2.66576 10.0844 2.5V1.875C10.0844 1.37772 9.88523 0.900806 9.53063 0.549175C9.17603 0.197544 8.69509 0 8.19361 0H1.89083C1.38935 0 0.908412 0.197544 0.553812 0.549175C0.199212 0.900806 0 1.37772 0 1.875V13.125C0 13.6223 0.199212 14.0992 0.553812 14.4508C0.908412 14.8025 1.38935 15 1.89083 15Z" fill="#E11F1F"/>
<path d="M12.7879 4.40615C12.6673 4.30375 12.5122 4.25025 12.3536 4.25633C12.195 4.2624 12.0445 4.32761 11.9323 4.43892C11.82 4.55023 11.7543 4.69944 11.7481 4.85674C11.742 5.01403 11.796 5.16783 11.8992 5.2874L13.4938 6.8749H4.41153C4.24437 6.8749 4.08405 6.94074 3.96585 7.05795C3.84765 7.17516 3.78125 7.33413 3.78125 7.4999C3.78125 7.66566 3.84765 7.82463 3.96585 7.94184C4.08405 8.05905 4.24437 8.1249 4.41153 8.1249H13.4938L11.8992 9.7124C11.7818 9.8295 11.7159 9.9879 11.7159 10.153C11.7159 10.3181 11.7818 10.4765 11.8992 10.5936C12.0173 10.7101 12.1771 10.7754 12.3436 10.7754C12.5101 10.7754 12.6698 10.7101 12.7879 10.5936L14.5716 8.8249C14.9257 8.47333 15.1246 7.99677 15.1246 7.4999C15.1246 7.00302 14.9257 6.52646 14.5716 6.1749L12.7879 4.40615Z" fill="#E11F1F"/>
</svg>
