<svg width="23" height="27" viewBox="0 0 23 27" fill="none" xmlns="http://www.w3.org/2000/svg">
<path d="M0 25.9143C0.04081 25.9551 0.04081 25.9143 0 25.9143C0.04081 25.9959 0.0408099 25.9959 0.0816199 26.0368L0.12243 26.0776C0.16324 26.1184 0.16324 26.1184 0.20405 26.1184H0.24486C0.28567 26.1592 0.32648 26.1592 0.4081 26.1592H5.3053C5.55016 26.1592 5.7134 25.9959 5.7134 25.7511C5.7134 25.5062 5.55016 25.343 5.3053 25.343H1.46916L8.24361 19.1807L9.38629 20.2417C9.8352 20.6498 10.4474 20.8947 11.0187 20.8947C11.59 20.8947 12.2022 20.6907 12.6511 20.2417L13.7938 19.1807L16.3648 21.5477C16.4464 21.6293 16.528 21.6701 16.6505 21.6701C16.7729 21.6701 16.8545 21.6293 16.9361 21.5477C17.0994 21.3844 17.0586 21.1396 16.8953 20.9763L14.3651 18.691L21.2212 12.447V24.8533L18.4053 22.323C18.2421 22.1598 17.9972 22.2006 17.834 22.3639C17.6707 22.5271 17.7115 22.772 17.8748 22.9352L20.5682 25.3838H7.10093C6.85607 25.3838 6.69283 25.547 6.69283 25.7919C6.69283 26.0368 6.85607 26.2 7.10093 26.2H21.6293C21.6701 26.2 21.7109 26.2 21.7925 26.1592H21.8333C21.8741 26.1592 21.8741 26.1184 21.915 26.1184C21.915 26.1184 21.9558 26.1184 21.9558 26.0776L22.0374 25.9959V25.9551C22.0374 25.9143 22.0782 25.8735 22.0782 25.8327V11.3452L22.0374 11.3044C22.0374 11.3044 22.0374 11.2636 21.9966 11.2636L19.5888 9.10062V4.4891C19.5888 4.44829 19.5888 4.40748 19.548 4.36667V4.32586C19.548 4.28505 19.5072 4.24424 19.4664 4.20343L15.3854 0.12243C15.3445 0.08162 15.3037 0.0816199 15.2629 0.04081H15.2221C15.1813 0.04081 15.1405 0.04081 15.0997 0H2.8567C2.61184 0 2.4486 0.16324 2.4486 0.4081V3.18318C2.4486 3.42804 2.61184 3.59128 2.8567 3.59128C3.10156 3.59128 3.2648 3.42804 3.2648 3.18318V0.857009H14.6916V4.52991C14.6916 4.77477 14.8548 4.93801 15.0997 4.93801H18.7726V13.5897L12.1206 19.6296C11.5084 20.2009 10.5698 20.2009 9.95763 19.6296L6.24392 16.2424C6.08068 16.0791 5.83583 16.1199 5.67259 16.2832C5.50935 16.4464 5.55016 16.6913 5.7134 16.8545L7.67227 18.6093L0.816199 24.8533V12.447L4.36667 15.671C4.44829 15.7526 4.52991 15.7935 4.65234 15.7935C4.77477 15.7935 4.85639 15.7526 4.93801 15.671C5.10125 15.5078 5.06044 15.2629 4.8972 15.0997L3.2648 13.6305V4.93801C3.2648 4.69315 3.10156 4.52991 2.8567 4.52991C2.61184 4.52991 2.4486 4.69315 2.4486 4.93801V9.10062L0.12243 11.2227C0.12243 11.2227 0.12243 11.2636 0.0816199 11.2636L0.0408099 11.3044V25.7511C-3.95275e-08 25.8327 0 25.8735 0 25.9143ZM15.5078 4.12181V1.42835L18.2012 4.12181H15.5078ZM19.5888 10.2025L21.0171 11.5084L19.5888 12.8551V10.2025ZM2.4486 12.8551L1.02025 11.5492L2.4486 10.2433V12.8551Z" fill="black"/>
<path d="M16.8532 7.38672H5.18154C4.93668 7.38672 4.77344 7.54996 4.77344 7.79482C4.77344 8.03968 4.93668 8.20292 5.18154 8.20292H16.8532C17.098 8.20292 17.2613 8.03968 17.2613 7.79482C17.2613 7.54996 17.0572 7.38672 16.8532 7.38672ZM16.8532 9.42722H11.9968C11.7519 9.42722 11.5887 9.59046 11.5887 9.83532C11.5887 10.0802 11.7519 10.2434 11.9968 10.2434H16.8532C17.098 10.2434 17.2613 10.0802 17.2613 9.83532C17.2613 9.59046 17.0572 9.42722 16.8532 9.42722ZM5.18154 10.2434H10.2012C10.446 10.2434 10.6093 10.0802 10.6093 9.83532C10.6093 9.59046 10.446 9.42722 10.2012 9.42722H5.18154C4.93668 9.42722 4.77344 9.59046 4.77344 9.83532C4.77344 10.0802 4.97749 10.2434 5.18154 10.2434ZM5.18154 12.2839H12.7722C13.0171 12.2839 13.1803 12.1207 13.1803 11.8758C13.1803 11.631 13.0171 11.4677 12.7722 11.4677H5.18154C4.93668 11.4677 4.77344 11.631 4.77344 11.8758C4.77344 12.1207 4.97749 12.2839 5.18154 12.2839Z" fill="black"/>
</svg>
