<svg width="22" height="20" viewBox="0 0 22 20" fill="none" xmlns="http://www.w3.org/2000/svg">
<path d="M1.75 6.5C2.7165 6.5 3.5 5.7165 3.5 4.75C3.5 3.7835 2.7165 3 1.75 3C0.783502 3 0 3.7835 0 4.75C0 5.7165 0.783502 6.5 1.75 6.5Z" fill="#F2921D"/>
<path d="M10.75 3.5C11.7165 3.5 12.5 2.7165 12.5 1.75C12.5 0.783502 11.7165 0 10.75 0C9.7835 0 9 0.783502 9 1.75C9 2.7165 9.7835 3.5 10.75 3.5Z" fill="#F2921D"/>
<path d="M19.75 6.5C20.7165 6.5 21.5 5.7165 21.5 4.75C21.5 3.7835 20.7165 3 19.75 3C18.7835 3 18 3.7835 18 4.75C18 5.7165 18.7835 6.5 19.75 6.5Z" fill="#F2921D"/>
<path fill-rule="evenodd" clip-rule="evenodd" d="M19.9848 5.897C20.0488 5.579 19.9008 5.257 19.6198 5.097C19.3378 4.938 18.9848 4.977 18.7448 5.195C18.7448 5.195 17.6988 6.146 16.5188 7.219C15.9668 7.721 15.2018 7.916 14.4768 7.741C13.7518 7.566 13.1608 7.043 12.8988 6.344L11.4518 2.487C11.3418 2.194 11.0628 2 10.7498 2C10.4368 2 10.1578 2.194 10.0478 2.487L8.60077 6.344C8.33877 7.043 7.74777 7.566 7.02277 7.741C6.29777 7.916 5.53277 7.721 4.98077 7.219C3.80077 6.146 2.75477 5.195 2.75477 5.195C2.51477 4.977 2.16177 4.938 1.87977 5.097C1.59877 5.257 1.45077 5.579 1.51477 5.897C1.51477 5.897 2.62777 11.462 3.19277 14.289C3.44977 15.575 4.57877 16.5 5.88977 16.5C8.38577 16.5 13.1138 16.5 15.6098 16.5C16.9208 16.5 18.0498 15.575 18.3068 14.289C18.8718 11.462 19.9848 5.897 19.9848 5.897ZM16.7498 18H4.74977C4.33577 18 3.99977 18.336 3.99977 18.75C3.99977 19.164 4.33577 19.5 4.74977 19.5H16.7498C17.1638 19.5 17.4998 19.164 17.4998 18.75C17.4998 18.336 17.1638 18 16.7498 18Z" fill="#F2921D"/>
</svg>
