<svg width="27" height="29" viewBox="0 0 27 29" fill="none" xmlns="http://www.w3.org/2000/svg">
<path fill-rule="evenodd" clip-rule="evenodd" d="M25.1367 8.36096L24.2796 6.87365C23.5545 5.61515 21.9476 5.181 20.6874 5.90311C20.0875 6.25649 19.3717 6.35675 18.6978 6.18178C18.0239 6.0068 17.4473 5.57097 17.0951 4.97038C16.8685 4.58864 16.7468 4.15384 16.7422 3.70994C16.7626 2.99827 16.4941 2.30863 15.9979 1.79812C15.5016 1.28761 14.8198 0.999707 14.1079 1H12.3811C11.6835 1 11.0148 1.27794 10.5228 1.77233C10.0307 2.26673 9.75599 2.93682 9.75935 3.63432C9.73867 5.07442 8.56528 6.23097 7.12503 6.23082C6.68114 6.22621 6.24634 6.10447 5.86459 5.8779C4.60437 5.15579 2.99745 5.58994 2.27234 6.84844L1.35222 8.36096C0.627989 9.61789 1.05623 11.2238 2.31015 11.9532C3.12522 12.4238 3.62733 13.2935 3.62733 14.2346C3.62733 15.1758 3.12522 16.0454 2.31015 16.516C1.05782 17.2405 0.629115 18.8425 1.35222 20.0957L2.22192 21.5956C2.56166 22.2086 3.1317 22.661 3.80588 22.8526C4.48006 23.0442 5.2028 22.9592 5.81417 22.6165C6.41519 22.2658 7.1314 22.1698 7.80359 22.3496C8.47579 22.5295 9.04828 22.9705 9.39382 23.5745C9.62039 23.9562 9.74213 24.391 9.74674 24.8349C9.74674 26.2898 10.9262 27.4692 12.3811 27.4692H14.1079C15.5578 27.4692 16.7352 26.2975 16.7422 24.8475C16.7388 24.1478 17.0153 23.4758 17.51 22.981C18.0048 22.4863 18.6768 22.2098 19.3765 22.2132C19.8193 22.225 20.2523 22.3463 20.6369 22.5661C21.8939 23.2903 23.4998 22.8621 24.2292 21.6082L25.1367 20.0957C25.488 19.4927 25.5844 18.7746 25.4046 18.1004C25.2248 17.4261 24.7836 16.8514 24.1788 16.5034C23.5739 16.1554 23.1327 15.5807 22.9529 14.9064C22.7731 14.2322 22.8696 13.5141 23.2208 12.9111C23.4493 12.5123 23.7799 12.1816 24.1788 11.9532C25.4252 11.2242 25.8524 9.62767 25.1367 8.37357V8.36096Z" stroke="black" stroke-width="1.5" stroke-linecap="round" stroke-linejoin="round"/>
<path d="M13.247 17.8642C15.2517 17.8642 16.8769 16.2391 16.8769 14.2343C16.8769 12.2296 15.2517 10.6045 13.247 10.6045C11.2423 10.6045 9.61719 12.2296 9.61719 14.2343C9.61719 16.2391 11.2423 17.8642 13.247 17.8642Z" stroke="black" stroke-width="1.5" stroke-linecap="round" stroke-linejoin="round"/>
</svg>
