<svg width="31" height="31" viewBox="0 0 31 31" fill="none" xmlns="http://www.w3.org/2000/svg">
<path d="M5.39639 9.53754C4.99796 10.2063 4.66799 10.9135 4.4115 11.6484M19.7395 4.49949C19.0113 4.22637 18.2582 4.02527 17.4909 3.89905M27.391 15.4331C27.3995 16.2104 27.3316 16.9866 27.1882 17.7506M17.7535 27.1854C16.9893 27.3288 16.2129 27.3967 15.4353 27.3879M9.77272 25.8739C9.09506 25.4917 8.45679 25.0435 7.86717 24.5359M23.0656 24.7081C23.3658 24.4614 23.6537 24.2002 23.9284 23.9254C24.2033 23.6507 24.4646 23.3626 24.7114 23.0624M25.877 9.76961C25.5014 9.10262 25.0555 8.46403 24.5392 7.86386L25.4756 6.52641C25.9162 5.89769 25.7615 5.02344 25.1333 4.58311L22.6185 2.82234C21.9901 2.38195 21.1155 2.53659 20.6745 3.16524L19.7395 4.49969M11.6517 4.40826C10.9167 4.66486 10.2095 4.99487 9.54065 5.39328M3.90262 17.4875C4.02854 18.2551 4.22972 19.0084 4.50326 19.7366M5.39639 9.53728L4.24312 8.38401C3.70023 7.84185 3.70003 6.95386 4.24359 6.41064L6.41415 4.24002C6.95697 3.69733 7.84436 3.69713 8.38692 4.24002L9.54045 5.39328M11.6521 4.40826L11.5091 2.78373C11.4421 2.01971 12.0134 1.33985 12.7779 1.27243L15.8363 1.00542C16.5999 0.93793 17.2807 1.50909 17.3478 2.27352L17.491 3.89898M27.391 15.4326L28.9686 15.01C29.71 14.8109 30.1543 14.0415 29.9547 13.3003L29.1605 10.3356C28.9614 9.59369 28.1922 9.14963 27.4503 9.34849L25.8763 9.76994" stroke="black" stroke-miterlimit="10" stroke-linecap="round" stroke-linejoin="round"/>
<path d="M24.7084 23.0623L26.1877 23.7521C26.8828 24.0769 27.7175 23.7735 28.0429 23.0775L29.3398 20.2949C29.6644 19.5997 29.3597 18.765 28.6638 18.4403L27.1847 17.7503M23.062 24.7085L23.7517 26.1883C24.0763 26.8834 23.7732 27.7183 23.077 28.0431L20.2946 29.3402C19.5995 29.6644 18.7649 29.3607 18.44 28.6644L17.75 27.1849M15.4322 27.388L15.0093 28.9648C14.8107 29.7072 14.041 30.1518 13.3001 29.9518L10.3358 29.1576C9.59263 28.9585 9.1491 28.1891 9.34796 27.448L9.76961 25.8741M7.86339 24.5359L6.52681 25.4727C5.89723 25.9131 5.02317 25.7582 4.58271 25.1299L2.82194 22.6152C2.38155 21.9862 2.53619 21.1124 3.16517 20.6714L4.49982 19.7364M3.89925 17.4875L2.27378 17.3448C1.51016 17.2778 0.938263 16.5975 1.00535 15.8327L1.27349 12.7749C1.33945 12.01 2.01991 11.4387 2.78373 11.5059L4.40806 11.6489" stroke="black" stroke-miterlimit="10" stroke-linecap="round" stroke-linejoin="round"/>
<path d="M15.4573 23.1876C19.7183 23.1876 23.1725 19.7334 23.1725 15.4725C23.1725 11.2115 19.7183 7.75732 15.4573 7.75732C11.1964 7.75732 7.74219 11.2115 7.74219 15.4725C7.74219 19.7334 11.1964 23.1876 15.4573 23.1876Z" stroke="black" stroke-miterlimit="10" stroke-linecap="round" stroke-linejoin="round"/>
<path d="M15.4595 16.2873C16.8782 16.2873 18.0284 15.1675 18.0284 13.7862C18.0284 12.4049 16.8782 11.2852 15.4595 11.2852C14.0407 11.2852 12.8906 12.4049 12.8906 13.7862C12.8906 15.1675 14.0407 16.2873 15.4595 16.2873Z" stroke="black" stroke-miterlimit="10" stroke-linecap="round" stroke-linejoin="round"/>
<path d="M9.76172 20.6758C10.9307 18.7559 13.044 17.4741 15.4574 17.4741C17.8707 17.4741 19.9833 18.7552 21.1537 20.675" stroke="black" stroke-miterlimit="10" stroke-linecap="round" stroke-linejoin="round"/>
</svg>
