<svg width="40" height="22" viewBox="0 0 40 22" fill="none" xmlns="http://www.w3.org/2000/svg">
<path d="M23.6379 5.44467C23.6371 5.56378 23.6327 5.68284 23.6245 5.80167C23.6205 5.86041 23.6143 5.91898 23.6081 5.97755C23.5869 6.17615 23.6337 5.81385 23.6029 6.01027C23.5643 6.25655 23.5016 6.49855 23.4243 6.73534C23.4067 6.78938 23.3871 6.84274 23.3675 6.89605C23.3559 6.92771 23.2828 7.10653 23.3585 6.9275C23.3147 7.03126 23.2651 7.13255 23.214 7.23281C23.1036 7.4488 22.9729 7.65389 22.8307 7.85023C22.7192 8.00432 22.9302 7.72707 22.8116 7.87561C22.7769 7.91914 22.7406 7.96143 22.7043 8.00372C22.6318 8.08822 22.5549 8.16883 22.4767 8.24799C22.3984 8.32719 22.316 8.40221 22.2324 8.47568C22.1905 8.51242 22.1474 8.54771 22.1043 8.583C22.0398 8.63413 22.0463 8.62943 22.1237 8.56886C22.094 8.5912 22.064 8.6132 22.0338 8.63481C21.8524 8.76613 21.6596 8.88113 21.4615 8.98528C21.3618 9.03774 21.2594 9.08473 21.1562 9.12984C21.334 9.0521 21.1566 9.12673 21.1248 9.13886C21.0539 9.16586 20.9819 9.18978 20.9099 9.21332C20.691 9.2847 20.4658 9.33575 20.239 9.3742C20.043 9.40739 20.4046 9.35579 20.2063 9.37937C20.1478 9.38633 20.0891 9.39107 20.0304 9.39581C19.8918 9.40709 19.7525 9.40966 19.6135 9.40876C19.4947 9.40803 19.376 9.40064 19.2576 9.39103C19.199 9.38593 19.1406 9.37972 19.0823 9.3724C19.2814 9.39607 19.0856 9.3704 19.0505 9.36442C18.8051 9.32285 18.5643 9.25728 18.3289 9.17731C18.2751 9.15906 18.2221 9.13886 18.1691 9.11865C17.9887 9.04996 18.3153 9.18435 18.1389 9.1072C18.0357 9.06209 17.9351 9.01147 17.8356 8.95909C17.621 8.84623 17.4176 8.71316 17.2231 8.56881C17.3765 8.6827 17.2256 8.56907 17.1993 8.54767C17.1565 8.51215 17.1142 8.47589 17.0726 8.4389C16.9889 8.36543 16.9092 8.28759 16.831 8.20839C16.7527 8.12919 16.6786 8.04589 16.6061 7.96143C16.5699 7.91914 16.5351 7.87561 16.5003 7.83208C16.6246 7.98774 16.4728 7.79025 16.4511 7.75945C16.3219 7.5764 16.2091 7.38216 16.1072 7.18274C16.0816 7.13263 16.0578 7.08158 16.0341 7.03058C16.0196 6.99961 15.9468 6.82228 16.0202 7.00166C15.97 6.87888 15.9273 6.75324 15.8877 6.62671C15.8189 6.40658 15.7706 6.18046 15.7348 5.95273C15.7659 6.15099 15.7363 5.95452 15.7325 5.91915C15.7266 5.86042 15.7218 5.80159 15.7182 5.74268C15.7087 5.60367 15.7078 5.46419 15.7104 5.32493C15.7126 5.20642 15.7214 5.08817 15.7325 4.97023C15.7358 4.93511 15.7636 4.73758 15.7348 4.93665C15.7431 4.87911 15.7536 4.82195 15.764 4.76479C15.8085 4.52035 15.877 4.28074 15.9597 4.04664C15.9786 3.9932 15.9994 3.94044 16.0202 3.88772C15.9492 4.06761 16.0199 3.89024 16.0341 3.8588C16.0804 3.75632 16.1322 3.6564 16.1857 3.55754C16.239 3.45903 16.2976 3.36347 16.3577 3.26906C16.3878 3.22194 16.4195 3.17593 16.4511 3.12997C16.4724 3.09917 16.623 2.89997 16.5004 3.05734C16.6373 2.8816 16.7896 2.71824 16.9497 2.56364C17.0298 2.48627 17.114 2.41322 17.1993 2.34175C17.2251 2.32022 17.3754 2.20471 17.2231 2.32057C17.2823 2.27554 17.3433 2.23295 17.4046 2.19074C17.5893 2.06357 17.785 1.95309 17.9857 1.85356C18.0364 1.82885 18.0874 1.80505 18.1389 1.78217C18.3144 1.70289 17.9896 1.8416 18.1691 1.77073C18.2926 1.72194 18.419 1.68076 18.5461 1.6427C18.6562 1.60976 18.768 1.58293 18.8801 1.55816C18.9366 1.54568 18.9936 1.5353 19.0505 1.52492C19.0852 1.5186 19.2815 1.49079 19.0824 1.51693C19.3376 1.4834 19.5957 1.47554 19.8528 1.48357C19.971 1.48724 20.0888 1.49754 20.2063 1.51001C20.4049 1.53111 20.0426 1.48438 20.239 1.51518C20.2963 1.52415 20.3533 1.53526 20.4102 1.54636C20.6537 1.59387 20.8921 1.66512 21.1248 1.75052C21.1565 1.76214 21.3353 1.83527 21.1562 1.75953C21.2082 1.78149 21.2593 1.80533 21.3104 1.82917C21.4122 1.87663 21.5114 1.9296 21.6096 1.98424C21.7074 2.0387 21.8022 2.09834 21.8958 2.1596C21.9426 2.19019 21.9882 2.2224 22.0338 2.25461C22.0611 2.27392 22.2119 2.38947 22.0608 2.27169C22.2365 2.40865 22.3999 2.5609 22.5545 2.72106C22.6319 2.80116 22.7049 2.88531 22.7764 2.97067C22.7979 2.99638 22.9134 3.14676 22.7975 2.99438C22.8313 3.0388 22.8635 3.08439 22.8957 3.12997C23.0249 3.31302 23.1377 3.50722 23.2395 3.70663C23.2651 3.75679 23.2889 3.80779 23.3127 3.85884C23.3272 3.88981 23.3999 4.06714 23.3266 3.88776C23.3695 3.9929 23.4068 4.10033 23.442 4.20829C23.5134 4.42722 23.5644 4.65231 23.6029 4.87919C23.6361 5.07519 23.5845 4.71357 23.6081 4.91192C23.615 4.9704 23.6198 5.02909 23.6245 5.08775C23.6342 5.20642 23.6371 5.32561 23.6379 5.44467C23.6404 5.85217 23.976 6.19226 24.3855 6.19226C24.7911 6.19226 25.1356 5.85221 25.133 5.44467C25.12 3.34779 23.8864 1.36002 21.9626 0.49107C19.9514 -0.417355 17.6124 -0.0433908 15.9739 1.43042C14.398 2.84806 13.8204 5.18886 14.499 7.18663C14.8278 8.15469 15.4286 9.03603 16.2288 9.67494C17.0959 10.3673 18.0974 10.7636 19.199 10.8807C20.7184 11.0422 22.2489 10.47 23.3729 9.45891C24.4975 8.44723 25.1236 6.94757 25.133 5.44467C25.1356 5.03713 24.791 4.69708 24.3854 4.69708C23.976 4.69708 23.6404 5.03721 23.6379 5.44467Z" fill="black"/>
<path d="M25.0683 10.7164C25.1729 10.7831 25.2757 10.8527 25.3766 10.9249C25.3965 10.9392 25.5605 11.0652 25.4228 10.9575C25.4716 10.9957 25.5191 11.0353 25.5666 11.075C25.7723 11.2468 25.9632 11.4358 26.1433 11.6341C26.2265 11.7258 26.3053 11.8213 26.3825 11.9179C26.2735 11.7815 26.4004 11.9444 26.4149 11.9643C26.4513 12.0145 26.4868 12.0654 26.5215 12.1168C26.6737 12.3396 26.8065 12.5751 26.9262 12.8168C26.9536 12.8731 26.9801 12.9297 27.0057 12.9868C27.0925 13.1775 26.9496 12.8448 27.0281 13.0395C27.0753 13.1565 27.1168 13.2757 27.1562 13.3956C27.2427 13.6586 27.3058 13.9289 27.3536 14.2014C27.3581 14.2269 27.3882 14.4407 27.3646 14.259C27.373 14.3238 27.3793 14.3887 27.3855 14.4537C27.3981 14.5849 27.404 14.7166 27.4077 14.8483C27.4096 14.9164 27.4092 14.9845 27.4092 15.0525V18.8639C27.4092 18.9123 27.4076 18.9362 27.4053 18.9843C27.3956 19.1832 27.4365 18.8251 27.4017 19.0187C27.3915 19.0756 27.3759 19.1314 27.3602 19.187C27.351 19.2199 27.2818 19.3998 27.3568 19.2224C27.3128 19.3264 27.2545 19.4236 27.1922 19.5174C27.0876 19.6749 27.2941 19.3994 27.1712 19.5426C27.1226 19.5993 27.0681 19.6506 27.013 19.7008C26.8736 19.828 27.1419 19.6125 26.9878 19.7218C26.9419 19.7544 26.8931 19.7826 26.8445 19.8108C26.7956 19.8391 26.7441 19.8628 26.6928 19.8864C26.8657 19.8068 26.692 19.8789 26.6574 19.8898C26.6022 19.9072 26.5456 19.9193 26.4891 19.9313C26.2967 19.9723 26.6532 19.9188 26.4547 19.9349C26.4136 19.9382 26.3717 19.9388 26.3304 19.9388H13.0071C12.9543 19.9388 12.9397 19.9375 12.8872 19.9349C12.6882 19.9252 13.0463 19.9661 12.8528 19.9313C12.7959 19.9211 12.7401 19.9055 12.6845 19.8898C12.648 19.8789 12.6117 19.8669 12.5759 19.8537C12.6662 19.8944 12.6734 19.8973 12.5976 19.8627C12.4953 19.8155 12.4 19.7544 12.3083 19.6893C12.4607 19.7974 12.3146 19.6877 12.2875 19.663C12.2462 19.6253 12.2084 19.5839 12.1707 19.5426C12.0435 19.4032 12.259 19.6715 12.1497 19.5174C12.1171 19.4715 12.0889 19.4227 12.0607 19.3741C12.0324 19.3251 12.0087 19.2736 11.9851 19.2223C12.0677 19.4017 11.9773 19.1713 11.9661 19.1315C11.9504 19.0756 11.9401 19.0184 11.9299 18.9613C11.9645 19.1543 11.9356 18.9632 11.9337 18.9247C11.9325 18.8997 11.9327 18.8744 11.9327 18.8494V15.1846C11.9327 14.9841 11.9337 14.7841 11.9461 14.5838C11.9502 14.5183 11.9565 14.4529 11.9627 14.3876C11.9652 14.3623 11.9939 14.1463 11.9682 14.3278C11.9862 14.2 12.0108 14.0732 12.0373 13.947C12.0942 13.6772 12.1748 13.4127 12.2696 13.154C12.2913 13.0948 12.315 13.0364 12.3385 12.978C12.2723 13.1418 12.3533 12.949 12.3636 12.9264C12.4155 12.8125 12.4729 12.7012 12.5321 12.591C12.6597 12.3534 12.8075 12.1272 12.9667 11.9098C13.0892 11.7426 12.8723 12.0266 13.0016 11.8649C13.0403 11.8165 13.0806 11.7694 13.1208 11.7222C13.2013 11.628 13.2861 11.5377 13.3724 11.4488C13.4586 11.3599 13.549 11.2752 13.6408 11.192C13.6869 11.1506 13.7336 11.1099 13.781 11.0701C13.8047 11.0499 14.0129 10.8862 13.872 10.9937C13.9873 10.9058 14.107 10.8241 14.2285 10.745C14.5693 10.5231 14.7102 10.0865 14.4967 9.72217C14.2983 9.38349 13.8157 9.23137 13.4739 9.45398C11.6037 10.6717 10.4375 12.7497 10.4375 14.9911V18.2972C10.4375 18.923 10.4528 19.4974 10.7429 20.0792C11.1628 20.9211 12.1054 21.434 13.0286 21.434H26.3261C27.4121 21.434 28.3581 20.7485 28.7454 19.7462C28.94 19.2425 28.9044 18.6971 28.9044 18.1679V14.9814C28.9044 13.8238 28.59 12.6786 28.0111 11.6776C27.4812 10.7611 26.7127 9.9931 25.823 9.4254C25.4791 9.206 24.9999 9.35248 24.8001 9.69359C24.5881 10.0555 24.7254 10.4977 25.0683 10.7164ZM35.3876 9.60162C35.3865 9.71978 35.3798 9.83782 35.3674 9.95534C35.3882 9.7569 35.3656 9.94961 35.3589 9.98601C35.3486 10.0425 35.3351 10.0984 35.3216 10.1542C35.2949 10.2648 35.2589 10.3728 35.2201 10.4795C35.1544 10.66 35.2873 10.3343 35.2087 10.5088C35.178 10.5769 35.143 10.6429 35.1074 10.7085C35.0544 10.8065 34.9933 10.8999 34.93 10.9915C34.8223 11.1472 35.0309 10.8697 34.9124 11.017C34.8776 11.0602 34.8405 11.1015 34.8035 11.1428C34.7294 11.2253 34.6487 11.3017 34.5662 11.3758C34.5249 11.4128 34.4817 11.4476 34.4385 11.4824C34.5936 11.3576 34.3965 11.5063 34.3643 11.5277C34.2713 11.5896 34.1735 11.6437 34.0744 11.6951C34.0246 11.7209 33.9734 11.744 33.9222 11.767C34.0989 11.6875 33.9243 11.7626 33.8911 11.7747C33.784 11.8137 33.6739 11.8436 33.5632 11.8703C33.5072 11.8838 33.4505 11.8942 33.3939 11.9045C33.309 11.9179 33.3177 11.9172 33.42 11.9026C33.3812 11.9071 33.3423 11.9108 33.3033 11.9138C33.185 11.924 33.0659 11.9239 32.9472 11.9205C32.8882 11.9188 32.8294 11.9138 32.7707 11.9088C32.5725 11.8918 32.9336 11.9364 32.7387 11.9045C32.6254 11.8861 32.5139 11.8581 32.4035 11.827C32.3489 11.8116 32.2951 11.7931 32.2415 11.7747C32.2059 11.7621 32.1707 11.7489 32.1356 11.735C32.2273 11.7748 32.2351 11.7778 32.1591 11.7439C32.0571 11.698 31.959 11.6437 31.8627 11.5869C31.8147 11.5586 31.7683 11.5277 31.722 11.4969C31.6938 11.4781 31.5424 11.3648 31.6941 11.4824C31.504 11.335 31.3359 11.1608 31.1854 10.9738C31.3053 11.1227 31.1906 10.9743 31.171 10.9459C31.1393 10.9001 31.1101 10.8526 31.0809 10.8052C31.0223 10.7099 30.9717 10.6099 30.9239 10.5088C30.8421 10.3357 30.9816 10.6588 30.9125 10.4796C30.8921 10.4267 30.8747 10.3728 30.8573 10.3189C30.8163 10.1916 30.7872 10.0607 30.7633 9.92923C30.7278 9.7349 30.7799 10.095 30.7591 9.89719C30.7529 9.83854 30.7501 9.77963 30.7473 9.72076C30.7416 9.60205 30.7461 9.48312 30.754 9.36466C30.7564 9.3289 30.7826 9.13196 30.7539 9.33129C30.7621 9.27409 30.7736 9.21744 30.7851 9.16084C30.8114 9.03038 30.85 8.90269 30.8931 8.77688C30.9043 8.74429 30.9774 8.56692 30.9008 8.74578C30.9229 8.69422 30.9479 8.6439 30.9727 8.59366C31.0223 8.49361 31.08 8.39779 31.1402 8.30381C31.1701 8.25695 31.2026 8.21179 31.2351 8.16668C31.124 8.32115 31.2332 8.17091 31.2558 8.14378C31.3387 8.04442 31.4304 7.95274 31.5251 7.86465C31.5657 7.82685 31.6083 7.79126 31.6509 7.75576C31.7151 7.70437 31.7085 7.70933 31.6312 7.77059C31.6611 7.74867 31.6914 7.7273 31.722 7.70651C31.8291 7.63239 31.9427 7.56814 32.0582 7.50825C32.108 7.48244 32.1592 7.45938 32.2104 7.43635C32.0264 7.51918 32.2577 7.42311 32.295 7.41029C32.4395 7.36069 32.5886 7.32622 32.7387 7.2988C32.933 7.2633 32.5729 7.31541 32.7707 7.29461C32.8491 7.28636 32.9279 7.28337 33.0066 7.28111C33.1447 7.27718 33.2828 7.28628 33.42 7.30072C33.2216 7.27987 33.4143 7.30251 33.4508 7.30918C33.526 7.32289 33.6003 7.3416 33.6742 7.36095C33.7475 7.38013 33.8195 7.4041 33.8911 7.42866C33.9266 7.44122 33.9619 7.45443 33.9969 7.4683C33.9052 7.42849 33.8974 7.42554 33.9735 7.45942C34.0924 7.51299 34.2062 7.57737 34.3174 7.64563C34.3647 7.67477 34.4106 7.70647 34.4563 7.73816C34.5226 7.78686 34.5166 7.78114 34.4385 7.72099C34.4675 7.74393 34.4961 7.76734 34.5243 7.79131C34.6237 7.87427 34.7154 7.96594 34.8035 8.06061C34.8539 8.11478 34.9008 8.17202 34.9471 8.22965C34.8223 8.07449 34.971 8.27164 34.9924 8.30385C35.0647 8.4124 35.1269 8.52723 35.1847 8.6439C35.2002 8.67525 35.2729 8.8507 35.1998 8.67115C35.2283 8.74108 35.2521 8.81272 35.2753 8.88453C35.3163 9.01184 35.3454 9.14269 35.3693 9.27418C35.3827 9.3591 35.382 9.35039 35.3674 9.24803C35.3719 9.28686 35.3756 9.32574 35.3786 9.36474C35.3853 9.44343 35.3868 9.52259 35.3876 9.60162C35.3914 10.0091 35.7247 10.3492 36.1351 10.3492C36.5397 10.3492 36.8866 10.0092 36.8827 9.60162C36.8724 8.51266 36.4089 7.45023 35.5815 6.73396C34.6873 5.95984 33.5567 5.68119 32.3984 5.84762C31.3332 6.00068 30.3898 6.70419 29.8191 7.59599C29.2273 8.52074 29.098 9.73153 29.433 10.7703C29.7123 11.6361 30.2979 12.3606 31.0607 12.8487C31.86 13.3602 32.8107 13.4883 33.7342 13.3556C35.5479 13.0949 36.8657 11.3856 36.8827 9.60162C36.8866 9.19408 36.5397 8.85403 36.1351 8.85403C35.7247 8.85403 35.3914 9.19416 35.3876 9.60162Z" fill="black"/>
<path d="M36.4512 13.26C36.5031 13.2933 36.5544 13.3274 36.6052 13.3624C36.6262 13.3768 36.7885 13.502 36.6506 13.3931C36.747 13.4693 36.8378 13.5523 36.9264 13.6374C37.0149 13.7224 37.0972 13.8138 37.1771 13.907C37.1939 13.9266 37.3178 14.089 37.2125 13.9487C37.2618 14.0144 37.3073 14.0828 37.3523 14.1515C37.4199 14.2551 37.4798 14.3634 37.537 14.4729C37.5657 14.528 37.5917 14.5844 37.6176 14.6408C37.5434 14.4795 37.6275 14.6681 37.637 14.693C37.6819 14.8106 37.7179 14.9313 37.7507 15.0527C37.7673 15.1141 37.7808 15.1761 37.7942 15.2382C37.8013 15.2711 37.8434 15.542 37.8194 15.3559C37.8894 15.898 37.8467 16.4685 37.8467 17.0132V18.3416C37.8467 18.381 37.8448 18.4202 37.8409 18.4593C37.8559 18.3565 37.8549 18.347 37.8383 18.4308C37.83 18.4679 37.7616 18.6404 37.8385 18.4645C37.8162 18.5155 37.7868 18.5631 37.7576 18.6103C37.6607 18.7673 37.8613 18.4964 37.7374 18.6322C37.7122 18.6599 37.5711 18.7741 37.7222 18.6602C37.6778 18.6936 37.6291 18.7207 37.5807 18.7476C37.4181 18.8377 37.7298 18.6986 37.5517 18.757C37.5138 18.7694 37.3291 18.7989 37.5255 18.7748C37.4898 18.7792 37.4421 18.7805 37.4063 18.7805H30.757C30.3495 18.7805 30.0094 19.1206 30.0094 19.5281C30.0094 19.9357 30.3495 20.2757 30.757 20.2757H37.0274C37.5542 20.2757 38.0762 20.2536 38.521 19.9179C39.0247 19.5379 39.3419 18.98 39.3419 18.3379V15.9381C39.3419 14.9975 39.1063 14.0789 38.5752 13.2944C38.2131 12.7597 37.7488 12.3175 37.206 11.9691C36.8627 11.7487 36.3825 11.8969 36.1832 12.2372C35.9706 12.5998 36.109 13.0403 36.4512 13.26ZM8.59781 9.60162C8.59673 9.71978 8.59 9.83782 8.57765 9.95534C8.59854 9.7569 8.57585 9.94961 8.56919 9.98601C8.55889 10.0425 8.54535 10.0984 8.5319 10.1542C8.5052 10.2648 8.46923 10.3728 8.43035 10.4795C8.36461 10.66 8.49755 10.3343 8.41895 10.5088C8.38827 10.5769 8.35329 10.6429 8.31774 10.7085C8.26464 10.8065 8.20364 10.8999 8.14025 10.9915C8.03255 11.1472 8.24115 10.8697 8.12265 11.017C8.08787 11.0602 8.05079 11.1015 8.01375 11.1428C7.93968 11.2253 7.85903 11.3017 7.77653 11.3758C7.73522 11.4128 7.69199 11.4476 7.64876 11.4824C7.80392 11.3576 7.60673 11.5063 7.57451 11.5277C7.48156 11.5896 7.38373 11.6437 7.28466 11.6951C7.23485 11.7209 7.18368 11.744 7.13254 11.767C7.30914 11.6875 7.13455 11.7626 7.1014 11.7747C6.99434 11.8137 6.88421 11.8436 6.77353 11.8703C6.71752 11.8838 6.66083 11.8942 6.60419 11.9045C6.51926 11.9179 6.52798 11.9172 6.63033 11.9027C6.5915 11.9071 6.55258 11.9108 6.51362 11.9138C6.39521 11.924 6.27615 11.9239 6.15752 11.9205C6.09856 11.9188 6.03978 11.9138 5.98104 11.9088C5.78283 11.8918 6.14393 11.9364 5.949 11.9045C5.83571 11.8861 5.72422 11.8581 5.61383 11.827C5.55919 11.8116 5.50545 11.7931 5.45179 11.7747C5.41628 11.7621 5.381 11.7489 5.34598 11.735C5.43765 11.7748 5.44551 11.7778 5.36943 11.7439C5.26738 11.698 5.16933 11.6437 5.07305 11.5869C5.02507 11.5586 4.97868 11.5277 4.93237 11.4969C4.90418 11.4781 4.75269 11.3648 4.90443 11.4824C4.71433 11.335 4.54632 11.1608 4.39577 10.9738C4.51564 11.1227 4.40103 10.9743 4.38134 10.9459C4.34964 10.9001 4.32046 10.8526 4.29133 10.8052C4.23271 10.7099 4.18205 10.6099 4.13429 10.5088C4.05248 10.3358 4.19196 10.6588 4.12288 10.4796C4.10251 10.4267 4.08512 10.3728 4.06773 10.3189C4.02668 10.1916 3.99767 10.0607 3.97367 9.92923C3.93817 9.7349 3.99028 10.095 3.96944 9.89719C3.96328 9.83854 3.96046 9.77963 3.95769 9.72076C3.95201 9.60205 3.95653 9.48312 3.96444 9.36466C3.96683 9.3289 3.99297 9.13196 3.96435 9.33129C3.97255 9.27409 3.984 9.21744 3.99549 9.16084C4.02185 9.03038 4.06043 8.90269 4.10357 8.77688C4.11477 8.74429 4.18786 8.56692 4.11122 8.74578C4.13331 8.69422 4.15826 8.6439 4.18312 8.59366C4.23271 8.49361 4.29039 8.39779 4.35049 8.30381C4.38048 8.25695 4.41299 8.21179 4.44546 8.16668C4.33434 8.32115 4.44353 8.17091 4.46618 8.14378C4.54909 8.04442 4.64081 7.95274 4.73548 7.86465C4.7761 7.82685 4.8187 7.79126 4.86129 7.75576C4.92545 7.70437 4.91887 7.70933 4.84159 7.77059C4.87147 7.74868 4.90175 7.72731 4.93241 7.70651C5.03951 7.63239 5.15306 7.56814 5.26857 7.50825C5.31838 7.48244 5.36956 7.45938 5.42069 7.43635C5.23675 7.51918 5.46807 7.42311 5.50536 7.41029C5.6498 7.36069 5.79897 7.32622 5.94905 7.2988C6.14333 7.2633 5.78325 7.31541 5.98109 7.29461C6.05943 7.28636 6.13825 7.28337 6.21694 7.28111C6.35501 7.27718 6.49312 7.28628 6.63038 7.30072C6.43195 7.27987 6.62465 7.30251 6.66105 7.30918C6.73632 7.32289 6.81057 7.3416 6.88456 7.36095C6.95786 7.38013 7.02984 7.4041 7.10148 7.42866C7.137 7.44121 7.17228 7.45443 7.2073 7.4683C7.11562 7.42849 7.10776 7.42554 7.18385 7.45942C7.30286 7.51299 7.41667 7.57737 7.52769 7.64563C7.57511 7.67477 7.62091 7.70647 7.66666 7.73816C7.73296 7.78686 7.72702 7.78114 7.64885 7.72099C7.67787 7.74391 7.70649 7.76735 7.73467 7.79131C7.83403 7.87427 7.92575 7.96594 8.01384 8.06061C8.06425 8.11478 8.11115 8.17202 8.15755 8.22965C8.03272 8.07449 8.18143 8.27164 8.20287 8.30385C8.27511 8.4124 8.33731 8.52723 8.39511 8.6439C8.41066 8.67525 8.4832 8.8507 8.41019 8.67115C8.43864 8.74108 8.46248 8.81272 8.48563 8.88453C8.52668 9.01184 8.55569 9.14269 8.5797 9.27418C8.59303 9.3591 8.59234 9.35039 8.57778 9.24803C8.58222 9.28686 8.58594 9.32574 8.58893 9.36474C8.59555 9.44343 8.59704 9.52259 8.59781 9.60162C8.6017 10.0091 8.93495 10.3492 9.3454 10.3492C9.74999 10.3492 10.0969 10.0092 10.093 9.60162C10.0826 8.51266 9.61919 7.45023 8.79184 6.73396C7.89764 5.95984 6.76699 5.68119 5.6087 5.84762C4.54345 6.00068 3.60013 6.70419 3.02944 7.59599C2.43765 8.52074 2.3083 9.73153 2.64339 10.7703C2.92269 11.6361 3.50815 12.3606 4.27099 12.8487C5.07027 13.3602 6.02103 13.4883 6.94449 13.3556C8.75822 13.0949 10.076 11.3856 10.093 9.60162C10.0969 9.19408 9.75004 8.85403 9.34544 8.85403C8.93491 8.85403 8.6017 9.19416 8.59781 9.60162ZM8.58756 18.7804H1.96543C1.90302 18.7804 1.71997 18.7527 1.90332 18.7844C1.84723 18.7747 1.79297 18.757 1.73906 18.7393C1.91259 18.7961 1.755 18.7426 1.71514 18.7205C1.68011 18.701 1.5432 18.5891 1.68686 18.7083C1.65367 18.6808 1.50005 18.4996 1.61813 18.656C1.58463 18.6116 1.55759 18.5628 1.53072 18.5144C1.44054 18.3519 1.57963 18.6635 1.52128 18.4855C1.50885 18.4475 1.47933 18.2629 1.50351 18.4592C1.49941 18.4259 1.49774 18.374 1.49774 18.3406V15.8125C1.49774 15.6804 1.50565 15.5488 1.51816 15.4174C1.53871 15.2016 1.49202 15.5715 1.52713 15.3591C1.5376 15.2957 1.55131 15.2329 1.56503 15.1701C1.59219 15.0458 1.6288 14.9237 1.66841 14.8029C1.68806 14.743 1.71074 14.6841 1.73338 14.6253C1.66926 14.7919 1.77076 14.5471 1.78507 14.5175C1.83937 14.4053 1.90199 14.2973 1.9671 14.1911C1.99957 14.1382 2.0346 14.0869 2.06962 14.0357C2.08355 14.0152 2.20846 13.8509 2.10077 13.9882C2.26626 13.7772 2.45871 13.5884 2.66453 13.417C2.82298 13.285 2.543 13.5047 2.70986 13.3832C2.76001 13.3467 2.81196 13.3127 2.86382 13.2787C3.20395 13.0558 3.34591 12.621 3.13201 12.2559C2.93405 11.9179 2.45038 11.7641 2.10918 11.9877C1.12173 12.6347 0.396183 13.6178 0.123207 14.7727C-0.0278055 15.4114 0.00248248 16.0686 0.00248248 16.7191V18.3331C0.00248248 19.4056 0.892923 20.2756 1.95937 20.2756H8.58743C8.99497 20.2756 9.33502 19.9356 9.33502 19.528C9.33502 19.1205 8.99506 18.7804 8.58756 18.7804Z" fill="black"/>
</svg>
