<svg width="38" height="33" viewBox="0 0 38 33" fill="none" xmlns="http://www.w3.org/2000/svg">
<path d="M18.9655 7.37543C20.5721 7.38139 21.9576 8.61084 22.115 10.2042C22.2477 11.5484 21.6942 12.5607 20.5588 13.2615C20.4111 13.3528 20.3789 13.4272 20.4262 13.5841C21.0563 15.6727 21.6823 17.7621 22.3078 19.852C23.1848 22.7818 24.0604 25.7124 24.9355 28.6426C25.2522 29.7023 25.5721 30.761 25.8772 31.8238C25.9185 31.9679 25.9117 32.1442 25.8713 32.2901C25.8015 32.5425 25.5638 32.7022 25.3201 32.6949C25.0581 32.6871 24.8607 32.5613 24.7781 32.3103C24.6019 31.7743 24.4399 31.2337 24.2738 30.6944C24.1214 30.1988 23.9535 29.7069 23.8277 29.2048C23.7639 28.9501 23.6432 28.8996 23.4014 28.9005C20.9774 28.9097 18.5534 28.906 16.1294 28.906C15.5865 28.906 15.0431 28.9166 14.5007 28.9005C14.2987 28.8946 14.2253 28.9717 14.1721 29.1516C13.8756 30.1534 13.5658 31.1515 13.2662 32.1524C13.1978 32.3805 13.0739 32.5508 12.8495 32.6343C12.6237 32.7183 12.4098 32.693 12.2308 32.5228C12.0225 32.3245 11.9752 32.0845 12.0583 31.8096C12.3529 30.8385 12.6434 29.8666 12.9362 28.8946C13.7958 26.0383 14.6544 23.1819 15.5158 20.3266C16.1945 18.0774 16.8769 15.8292 17.5571 13.5805C17.5924 13.463 17.6208 13.3698 17.463 13.2835C16.2771 12.6356 15.6617 11.3643 15.8797 10.0468C16.094 8.75218 17.094 7.71411 18.3776 7.45987C18.5713 7.42132 18.7691 7.40251 18.965 7.37451L18.9655 7.37543ZM23.3504 27.6417C23.322 27.5421 23.2981 27.4549 23.272 27.3677C23.0292 26.5568 22.7791 25.7478 22.5482 24.9336C22.4918 24.7345 22.4041 24.6789 22.2018 24.6799C20.054 24.6877 17.9063 24.6849 15.7586 24.6849H15.5181C15.2221 25.6725 14.9288 26.65 14.6314 27.6422H23.3504V27.6417ZM22.0609 23.4188C22.0609 23.3853 22.0664 23.3609 22.06 23.3403C21.7878 22.4266 21.518 21.5119 21.2344 20.6015C21.2151 20.539 21.0939 20.4688 21.0196 20.4684C19.6662 20.4606 18.3124 20.4642 16.9586 20.4601C16.8287 20.4601 16.7705 20.5023 16.7351 20.6276C16.6209 21.031 16.4928 21.4307 16.3721 21.8323C16.2147 22.3568 16.0591 22.8818 15.8994 23.4192H22.0609V23.4188ZM20.814 19.1995C20.7649 19.0242 20.7268 18.8768 20.6832 18.7318C20.2023 17.1334 19.7186 15.5355 19.2413 13.9361C19.1991 13.7943 19.1752 13.6924 18.9825 13.6934C18.7934 13.6943 18.7792 13.8072 18.7415 13.9325C18.3615 15.2037 17.9793 16.4744 17.5988 17.7451C17.4552 18.2252 17.3138 18.7061 17.1674 19.1999H20.814V19.1995Z" fill="#1A5096"/>
<path d="M0.00623046 10.286C0.0787395 7.33648 0.930033 4.63391 2.62895 2.22046C3.11907 1.52428 3.70649 0.89419 4.27325 0.254458C4.57935 -0.0906486 5.0938 -0.0722919 5.42238 0.246197C5.76244 0.575242 5.77483 1.06124 5.43294 1.41369C4.20625 2.67892 3.24252 4.11488 2.58719 5.75368C1.73727 7.87847 1.48211 10.0822 1.79418 12.3405C2.18609 15.178 3.42747 17.6098 5.41642 19.6653C5.72343 19.9824 5.76474 20.3707 5.54124 20.7098C5.32372 21.0402 4.91803 21.1779 4.55732 21.0292C4.44718 20.9838 4.33842 20.9136 4.25535 20.8291C2.43758 18.9852 1.1627 16.8255 0.505075 14.3153C0.137481 12.9119 -0.0346134 11.4323 0.00577145 10.2869L0.00623046 10.286Z" fill="#2775B3"/>
<path d="M38.0009 10.8531C37.9289 12.9503 37.4658 14.9489 36.5567 16.8415C35.8559 18.3013 34.9354 19.6065 33.7991 20.7593C33.4007 21.1636 32.9225 21.1966 32.5678 20.8469C32.2039 20.4885 32.225 20.02 32.6197 19.612C34.051 18.1324 35.1052 16.4225 35.716 14.4533C36.6159 11.5516 36.5214 8.67368 35.4379 5.83573C34.817 4.20932 33.8876 2.7752 32.6651 1.53383C32.4242 1.28923 32.2456 1.0304 32.3347 0.660049C32.4118 0.338347 32.6201 0.136423 32.9189 0.0395915C33.2195 -0.0576991 33.4916 0.0285776 33.7165 0.251612C34.9207 1.44801 35.8872 2.81329 36.609 4.34975C37.4305 6.09823 37.8867 7.93666 37.9592 9.86916C37.9716 10.1973 37.9876 10.525 38.0018 10.8531H38.0009Z" fill="#2775B3"/>
<path d="M32.999 10.8513C32.9581 13.4891 31.9164 16.0118 29.8563 18.1109C29.5805 18.3922 29.2335 18.4574 28.9146 18.3087C28.597 18.1604 28.3809 17.8383 28.441 17.495C28.4754 17.2986 28.58 17.0843 28.7186 16.9406C30.0174 15.5951 30.8806 14.0187 31.1876 12.1734C31.6906 9.15234 30.8769 6.50897 28.8031 4.2543C28.7668 4.21484 28.7283 4.17767 28.6915 4.13866C28.3423 3.76923 28.3368 3.29333 28.6778 2.95373C29.0188 2.61413 29.5126 2.60541 29.8549 2.98999C30.3414 3.5361 30.8384 4.08451 31.2422 4.69074C32.4207 6.45849 32.9838 8.42449 32.9985 10.8517L32.999 10.8513Z" fill="#2775B3"/>
<path d="M4.98047 10.7857C5.03508 7.63937 6.05984 5.1167 8.10203 3.01347C8.48293 2.62156 8.94598 2.60458 9.31633 2.95794C9.66189 3.28745 9.65501 3.76839 9.27824 4.15572C8.08826 5.3792 7.27368 6.81745 6.90242 8.47827C6.24433 11.4236 6.88727 14.0766 8.80234 16.4143C8.96204 16.6089 9.14056 16.7884 9.31403 16.971C9.64446 17.3203 9.64491 17.8072 9.31174 18.1417C8.98499 18.4698 8.47926 18.4689 8.14242 18.127C6.5307 16.491 5.5018 14.5511 5.13971 12.2758C5.05022 11.7123 5.01718 11.1395 4.98047 10.7857Z" fill="#2775B3"/>
<path d="M28.0534 10.5523C27.9933 12.4215 27.3641 14.0497 26.1108 15.4338C26.0443 15.5072 25.9759 15.5798 25.9038 15.6481C25.5578 15.9772 25.087 15.9786 24.7533 15.6541C24.4201 15.3296 24.4022 14.8519 24.7262 14.5054C25.5174 13.6596 26.0654 12.6863 26.2567 11.5367C26.5587 9.72167 26.1099 8.11637 24.869 6.74467C24.8226 6.69373 24.7754 6.64416 24.7299 6.5923C24.4013 6.22012 24.4142 5.76166 24.7634 5.42711C25.0856 5.1178 25.5821 5.12468 25.9158 5.46061C26.8923 6.44453 27.5495 7.60973 27.8345 8.96858C27.9437 9.489 27.9827 10.0236 28.0539 10.5519L28.0534 10.5523Z" fill="#2775B3"/>
<path d="M9.96484 10.7742C10.0048 8.57233 10.6826 6.87892 12.0575 5.47555C12.371 5.15568 12.7762 5.11346 13.1181 5.34659C13.549 5.6403 13.6247 6.19927 13.2681 6.57879C12.4967 7.39934 11.9501 8.34425 11.7473 9.45483C11.4026 11.3424 11.8616 13.0128 13.1887 14.4217C13.6867 14.9504 13.5394 15.6548 12.8771 15.86C12.5605 15.9582 12.2902 15.8567 12.0639 15.6287C11.0874 14.6438 10.4375 13.474 10.1484 12.1189C10.0378 11.5994 10.0029 11.0633 9.96484 10.7742Z" fill="#2775B3"/>
</svg>
