<svg width="32" height="30" viewBox="0 0 32 30" fill="none" xmlns="http://www.w3.org/2000/svg">
<path d="M2.95455 22.6553H0.511258C0.714461 21.3583 0.914427 20.0841 1.11439 18.8098C1.15001 18.5839 1.2083 18.3589 1.21721 18.1314C1.22206 18.0002 1.18078 17.8423 1.10468 17.7363C0.826993 17.3477 0.853708 17.0668 1.18725 16.7421C1.29412 16.6377 1.39288 16.4628 1.39369 16.3195C1.40665 14.0398 1.39855 11.7608 1.40907 9.48107C1.40988 9.22606 1.33379 9.07629 1.09901 8.99209C0.998622 8.95566 0.886901 8.91356 0.815659 8.83989C0.659411 8.67798 0.410063 8.49177 0.414111 8.32014C0.418159 8.14609 0.646459 7.9105 0.83428 7.81578C5.72572 5.34658 10.6253 2.89439 15.5199 0.431664C15.8502 0.265701 16.1385 0.255177 16.4736 0.424378C21.3812 2.89843 26.2937 5.36196 31.1989 7.84169C31.373 7.92993 31.5786 8.15904 31.5819 8.32581C31.5851 8.49097 31.3851 8.72817 31.2143 8.81803C29.0673 9.94253 26.9123 11.05 24.7523 12.1478C24.4989 12.2765 24.4074 12.4198 24.4123 12.7016C24.4293 13.6998 24.4139 14.698 24.4212 15.6962C24.4236 15.9811 24.3621 16.2183 24.0528 16.2799C23.7314 16.3438 23.5962 16.1641 23.4659 15.8727C23.3679 15.6533 23.1202 15.429 22.8911 15.3537C22.0508 15.0777 21.204 14.7789 20.3353 14.6389C16.9634 14.0981 13.5964 14.1118 10.2577 14.9165C9.82864 15.0202 9.40685 15.1708 8.99963 15.3424C8.70576 15.4662 8.45236 15.6444 8.34388 16.0054C8.30421 16.1382 7.97876 16.3033 7.84518 16.2604C7.68408 16.2086 7.48735 15.9552 7.48168 15.7836C7.44768 14.7457 7.45254 13.707 7.47197 12.6684C7.47764 12.3704 7.38454 12.2142 7.11738 12.0798C5.55328 11.2921 3.9989 10.4858 2.44128 9.68589C2.34737 9.63813 2.25022 9.59765 2.10936 9.53369C2.09721 9.67861 2.0794 9.79033 2.0794 9.90205C2.07778 12.0199 2.07293 14.1377 2.08831 16.2548C2.08993 16.4224 2.1976 16.6247 2.31984 16.7478C2.61615 17.0449 2.64772 17.3647 2.39676 17.7193C2.31661 17.8326 2.26236 18.0083 2.28179 18.1427C2.49147 19.5546 2.71977 20.9632 2.94079 22.3735C2.95293 22.4521 2.9505 22.5338 2.95698 22.6553H2.95455Z" fill="#1A5096"/>
<path d="M22.2787 15.7972C22.7912 15.9996 23.3506 16.0943 23.5498 16.7225C23.5894 16.8488 23.787 17.0237 23.893 17.0115C24.2209 16.9727 24.2622 17.184 24.3415 17.3977C26.3226 22.7247 22.7912 28.5674 17.1444 29.3033C11.862 29.9922 7.14134 25.9112 7.07496 20.5858C7.05958 19.3747 7.28383 18.2008 7.76229 17.0496C8.1436 17.0714 8.34599 16.8982 8.51681 16.5169C8.71273 16.0805 9.19766 15.9121 9.76274 15.7583C8.22132 17.9935 7.80196 20.3413 8.58158 22.855C9.07946 24.4588 10.0161 25.7849 11.3884 26.762C14.2794 28.8216 18.086 28.7406 20.8005 26.5815C22.4496 25.2692 23.4364 23.5537 23.7012 21.4723C23.9618 19.4208 23.4721 17.5224 22.2787 15.7988V15.7972Z" fill="#1A5096"/>
<path d="M15.9803 29.999C15.0922 29.999 14.2033 30.0006 13.3152 29.9982C13.1112 29.9982 12.8521 30.0046 12.9055 29.7132C12.9242 29.6096 13.1727 29.4784 13.3176 29.4768C15.0938 29.4606 16.8708 29.4598 18.647 29.4768C18.7903 29.4784 19.0364 29.6128 19.0559 29.7181C19.1101 30.016 18.8446 29.9974 18.6446 29.9982C17.7565 30.0014 16.8676 29.9998 15.9795 29.9998L15.9803 29.999Z" fill="#1A5096"/>
<path d="M16.2602 16.2055C17.1435 16.2055 18.0267 16.2128 18.9108 16.2023C19.318 16.1974 19.3212 16.3294 19.1609 16.6605C18.8849 17.2329 18.4032 17.1964 17.8988 17.2037C17.7029 17.2069 17.307 17.0264 17.3345 17.3421C17.3604 17.6376 17.4463 18.1072 17.9539 18.1161C18.2987 18.1226 18.6436 18.121 18.9877 18.1242C19.2686 18.1266 19.3293 18.2319 19.1804 18.4828C18.9723 18.8326 18.7497 19.1281 18.2736 19.0544C17.8446 18.988 17.6284 19.1791 17.4754 19.6C17.0884 20.663 16.1833 21.1034 15.16 21.3479C14.5237 21.5001 14.5067 21.526 14.9341 22.049C15.8198 23.1322 16.7144 24.2081 17.5936 25.2962C17.7045 25.4338 17.9271 25.5804 17.8041 25.7909C17.7086 25.9544 17.4875 25.8589 17.3232 25.8815C16.767 25.9584 16.3614 25.7739 15.9955 25.3164C15.0548 24.1401 14.0663 23.0019 13.0859 21.8579C12.8252 21.5535 12.8301 21.2038 12.9345 20.8848C13.0422 20.5553 13.3871 20.727 13.6186 20.7294C14.2792 20.7359 14.9066 20.6412 15.4774 20.2882C15.7186 20.1392 15.9267 19.9563 16.0522 19.6923C16.2424 19.2932 16.2335 19.0366 15.679 19.0471C14.8176 19.0625 13.9554 19.0374 13.0932 19.0471C12.656 19.052 12.6026 18.903 12.8349 18.5614C13.0438 18.2545 13.2915 18.0853 13.6906 18.1031C14.3359 18.1331 14.9827 18.112 15.6296 18.1088C15.7526 18.1088 15.921 18.1339 15.9396 17.9671C15.9485 17.8886 15.8498 17.7793 15.7745 17.7121C15.3519 17.3365 14.8427 17.1899 14.2865 17.1859C14.0064 17.1843 13.7246 17.2029 13.447 17.1786C13.196 17.1568 12.7467 17.3057 12.7556 16.9722C12.7661 16.5941 13.0219 16.1926 13.5457 16.1934C14.4508 16.1958 15.3559 16.1934 16.2602 16.1934C16.2602 16.1974 16.2602 16.2015 16.2602 16.2055Z" fill="#2775B3"/>
</svg>
