<svg width="38" height="26" viewBox="0 0 38 26" fill="none" xmlns="http://www.w3.org/2000/svg">
<path d="M18.9321 25.2506C15.3967 25.2506 11.8614 25.2519 8.32606 25.2485C7.97693 25.2485 7.62644 25.2377 7.27933 25.2025C5.99308 25.0726 4.94297 24.101 4.82185 22.81C4.68653 21.3647 4.7163 19.91 4.81509 18.4607C4.85298 17.9093 5.13107 17.4431 5.44637 16.9979C7.36459 14.288 9.27468 11.572 11.199 8.86624C11.4209 8.55364 11.5271 8.24172 11.519 7.85943C11.5014 7.04005 11.5068 6.21931 11.5177 5.39992C11.5271 4.63534 12.0224 4.10217 12.7078 4.09337C13.3933 4.08457 13.9075 4.61369 13.9231 5.37624C13.9386 6.16924 13.9393 6.96224 13.9264 7.75523C13.921 8.1064 14.0706 8.2336 14.4075 8.23293C17.432 8.22819 20.4565 8.22819 23.481 8.23293C23.8274 8.23293 23.9566 8.0861 23.9512 7.74441C23.9384 6.97847 23.9418 6.21187 23.9512 5.44593C23.9614 4.64211 24.4418 4.10352 25.14 4.09405C25.8525 4.0839 26.3532 4.63534 26.3607 5.4527C26.3681 6.27276 26.3728 7.09282 26.3586 7.91289C26.3532 8.25119 26.4419 8.53267 26.6394 8.81076C28.5225 11.4631 30.3805 14.1337 32.2818 16.7732C32.8596 17.575 33.1553 18.4154 33.1221 19.3992C33.0923 20.2855 33.1194 21.1733 33.1147 22.0603C33.1032 24.0936 32.0206 25.2154 29.9826 25.2431C27.8993 25.2709 25.8153 25.2512 23.732 25.2519C22.1325 25.2519 20.5329 25.2519 18.9327 25.2519L18.9321 25.2506ZM12.9765 17.7618C13.4731 17.7618 13.9697 17.7577 14.4657 17.7631C14.7479 17.7665 14.892 17.6474 14.8893 17.3571C14.8852 16.9681 14.8839 16.579 14.8893 16.19C14.8933 15.8943 14.737 15.784 14.463 15.7847C13.6578 15.7867 12.8526 15.7874 12.0481 15.7847C11.7971 15.7847 11.6516 15.897 11.5908 16.1446C11.494 16.535 11.3891 16.9241 11.2734 17.3098C11.18 17.6224 11.2734 17.7685 11.6083 17.7631C12.0644 17.7557 12.5204 17.7611 12.9771 17.7611L12.9765 17.7618ZM24.7381 17.7618C25.2219 17.7618 25.7057 17.7563 26.1895 17.7638C26.5041 17.7685 26.5988 17.6318 26.5136 17.3355C26.4013 16.9485 26.2964 16.5587 26.1949 16.169C26.1374 15.9457 26.0142 15.8192 25.7727 15.8192C24.9398 15.8212 24.1062 15.8192 23.2733 15.8199C23.0263 15.8199 22.9018 15.945 22.9018 16.1933C22.9011 16.556 22.9092 16.9194 22.895 17.282C22.8815 17.6224 23.0188 17.7766 23.368 17.7658C23.8247 17.7523 24.2814 17.7624 24.7388 17.7618H24.7381ZM16.9963 17.7618C16.9963 17.7618 16.9963 17.7604 16.9963 17.7597C17.4117 17.7597 17.8265 17.7597 18.2419 17.7597C18.4848 17.7597 18.6168 17.6467 18.6161 17.3937C18.6147 16.9782 18.6141 16.5635 18.6168 16.148C18.6188 15.8889 18.4726 15.7887 18.2372 15.7881C17.4205 15.786 16.6031 15.7867 15.7865 15.7881C15.5165 15.7881 15.4042 15.9356 15.4069 16.1954C15.4103 16.5838 15.4103 16.9721 15.4069 17.3605C15.4042 17.6508 15.551 17.7678 15.8318 17.7631C16.2202 17.7563 16.6086 17.7618 16.9969 17.7618H16.9963ZM17.0274 12.7663V12.7649C17.43 12.7649 17.8326 12.7636 18.2351 12.7649C18.4781 12.7656 18.6154 12.6621 18.6147 12.4063C18.6134 12.0037 18.6134 11.6011 18.6147 11.1985C18.6161 10.9502 18.497 10.8257 18.248 10.8257C17.4293 10.8257 16.6113 10.8257 15.7926 10.8237C15.5476 10.8237 15.4136 10.9401 15.4109 11.1877C15.4069 11.5903 15.4082 11.9929 15.4089 12.3955C15.4089 12.6688 15.5578 12.773 15.8196 12.7683C16.2222 12.7615 16.6248 12.7663 17.0274 12.7663ZM17.0132 15.263C17.4158 15.263 17.8184 15.2603 18.2209 15.2637C18.4841 15.2657 18.6208 15.1507 18.6181 14.878C18.6141 14.4889 18.6141 14.0999 18.6181 13.7108C18.6208 13.4395 18.4855 13.3218 18.2223 13.3218C17.4171 13.3231 16.6126 13.3238 15.8074 13.3211C15.5402 13.3197 15.4103 13.447 15.4103 13.7115C15.4103 14.1006 15.4103 14.4896 15.4089 14.8787C15.4089 15.1446 15.5381 15.2691 15.8068 15.265C16.2094 15.2589 16.6119 15.2637 17.0145 15.263H17.0132ZM20.7596 12.7656C20.7596 12.7656 20.7596 12.7642 20.7596 12.7636C21.1622 12.7636 21.5648 12.7622 21.9674 12.7636C22.2157 12.7649 22.3422 12.6445 22.3429 12.3968C22.3443 11.9943 22.3443 11.5917 22.3415 11.1898C22.3402 10.9401 22.2049 10.8251 21.9613 10.8257C21.1561 10.8257 20.3509 10.8257 19.5464 10.8257C19.2995 10.8257 19.1743 10.9462 19.1743 11.1952C19.1743 11.5842 19.177 11.9733 19.1709 12.3623C19.1662 12.6546 19.3103 12.7717 19.5924 12.7669C19.9815 12.7602 20.3706 12.7649 20.7596 12.7649V12.7656ZM20.7393 15.2637C20.7393 15.2637 20.7393 15.263 20.7393 15.2623C21.1412 15.2623 21.5438 15.2596 21.9457 15.263C22.2103 15.265 22.3456 15.1446 22.3449 14.876C22.3436 14.4869 22.3436 14.0985 22.3436 13.7095C22.3436 13.4409 22.2022 13.3225 21.941 13.3225C21.15 13.3238 20.3591 13.3238 19.5681 13.3225C19.3042 13.3225 19.1709 13.4442 19.1729 13.7129C19.175 14.0884 19.179 14.4639 19.1702 14.8388C19.1628 15.1507 19.3144 15.2718 19.6134 15.265C19.9889 15.2569 20.3645 15.263 20.7393 15.263V15.2637ZM20.763 17.7604C21.1514 17.7604 21.5404 17.7584 21.9288 17.7611C22.2103 17.7631 22.3503 17.6332 22.347 17.347C22.3429 16.9721 22.3449 16.5966 22.3449 16.2218C22.3449 15.9619 22.2231 15.8205 21.9552 15.8205C21.1514 15.8205 20.3476 15.8205 19.5431 15.8219C19.2961 15.8219 19.1743 15.9491 19.1736 16.1961C19.1736 16.5844 19.1763 16.9735 19.1702 17.3619C19.1655 17.6576 19.3204 17.7665 19.5965 17.7631C19.9849 17.7584 20.3739 17.7618 20.7623 17.7611L20.763 17.7604ZM13.3459 15.2637C13.7221 15.2637 14.099 15.2576 14.4752 15.2657C14.7661 15.2718 14.8933 15.1365 14.8899 14.8523C14.8859 14.4761 14.8879 14.0999 14.8886 13.723C14.8886 13.4639 14.7749 13.3197 14.5009 13.3211C13.896 13.3238 13.2911 13.3252 12.6862 13.3211C12.4426 13.3197 12.3208 13.447 12.262 13.6689C12.1557 14.0715 12.0461 14.4734 11.9324 14.8746C11.8492 15.1683 11.9771 15.2698 12.2565 15.265C12.6192 15.2583 12.9826 15.2637 13.3452 15.263L13.3459 15.2637ZM24.4323 15.2637C24.4323 15.2637 24.4323 15.2623 24.4323 15.2616C24.822 15.2616 25.2118 15.2603 25.6015 15.2616C25.8363 15.2623 25.9182 15.1493 25.8586 14.9274C25.7429 14.4991 25.6232 14.0721 25.5108 13.6432C25.4499 13.4111 25.3004 13.3177 25.0683 13.3197C24.477 13.3238 23.8856 13.3231 23.2949 13.3204C23.0283 13.3191 22.8984 13.4449 22.9004 13.7129C22.9025 14.0891 22.9065 14.4653 22.8977 14.8415C22.8903 15.1568 23.0459 15.2725 23.3443 15.265C23.707 15.2562 24.0696 15.263 24.433 15.263L24.4323 15.2637ZM13.7065 12.7629V12.7656C13.9616 12.7656 14.2174 12.7588 14.4725 12.7676C14.7627 12.7771 14.892 12.6411 14.8893 12.3569C14.8859 11.9807 14.8872 11.6045 14.8879 11.2283C14.8879 10.9712 14.7803 10.821 14.5043 10.8237C14.1145 10.8271 13.7248 10.8264 13.3351 10.8278C13.1341 10.8278 13.0069 10.9252 12.9541 11.1201C12.8391 11.5484 12.72 11.9753 12.6084 12.4043C12.5441 12.6492 12.6618 12.7602 12.9 12.7629C13.1686 12.7656 13.4372 12.7636 13.7065 12.7636V12.7629ZM24.092 12.7656C24.092 12.7656 24.092 12.7636 24.092 12.7629C24.3606 12.7629 24.6292 12.7642 24.8978 12.7629C25.1455 12.7609 25.2382 12.6404 25.1725 12.3989C25.0589 11.9841 24.9445 11.57 24.8362 11.1539C24.776 10.9238 24.6319 10.8217 24.3978 10.8237C24.0216 10.8271 23.6454 10.8251 23.2692 10.8251C23.0188 10.8251 22.9011 10.9529 22.9011 11.1992C22.9011 11.589 22.9038 11.9787 22.8984 12.3677C22.8943 12.6634 23.0459 12.7751 23.3254 12.7669C23.5804 12.7602 23.8362 12.7656 24.0913 12.7656H24.092Z" fill="#1A5096"/>
<path d="M18.7023 0.00544215C22.6849 -0.0195928 26.386 0.154298 30.0492 0.831593C31.3064 1.06435 32.5547 1.34988 33.7246 1.88103C35.4175 2.64967 36.7619 3.80398 37.5394 5.53207C37.8134 6.14035 37.9156 6.7899 37.8533 7.46111C37.829 7.72702 37.7072 7.86978 37.4406 7.92121C34.1028 8.5667 30.9714 8.06465 28.0715 6.25334C27.8989 6.14576 27.7988 6.00367 27.7602 5.80745C27.539 4.67344 26.8163 3.97246 25.796 3.52454C24.7493 3.06511 23.641 2.85942 22.5157 2.73222C19.6956 2.41285 16.8815 2.4345 14.081 2.92979C13.3117 3.06579 12.5633 3.28298 11.8576 3.63077C10.9631 4.07125 10.3447 4.73636 10.1329 5.73302C10.0842 5.96104 9.96039 6.10449 9.76417 6.22763C6.97515 7.98481 3.94863 8.52069 0.715748 7.99699C0.0655171 7.89144 -0.0116173 7.79265 0.00123843 7.11874C0.0228902 5.96646 0.470135 4.97724 1.20224 4.10846C2.28889 2.81747 3.64957 1.95343 5.26398 1.46153C7.43728 0.799115 9.67012 0.488547 11.9206 0.275412C14.2644 0.0534814 16.6143 -0.0236518 18.7016 0.00611943L18.7023 0.00544215Z" fill="#1A5096"/>
<path d="M4.36133 10.8174C3.64817 10.793 2.78278 10.7064 1.94715 10.4209C1.22317 10.1732 0.663605 9.75439 0.413256 8.99996C0.371982 8.87614 0.246808 8.74352 0.336121 8.62444C0.428818 8.50062 0.587824 8.59061 0.713675 8.61293C3.0135 9.01755 5.26056 8.81321 7.45821 8.0324C8.20655 7.76648 8.9258 7.43426 9.60445 7.02085C9.86495 6.86184 9.99756 6.8835 9.99012 7.22181C9.98674 7.36863 9.99553 7.51816 10.0158 7.66364C10.1214 8.42619 9.81488 8.98711 9.19645 9.41744C7.79043 10.3958 6.21662 10.8018 4.362 10.818L4.36133 10.8174Z" fill="#2775B3"/>
<path d="M33.5531 10.8179C31.7642 10.8057 30.2438 10.4437 28.873 9.54653C27.9271 8.92743 27.6591 8.27652 27.8912 7.1716C27.9487 6.89689 28.0861 6.98215 28.2396 7.05996C28.6828 7.28392 29.1159 7.53089 29.5712 7.72711C31.9922 8.77248 34.5045 9.06004 37.1027 8.60806C37.2427 8.5837 37.4173 8.48154 37.5235 8.6013C37.6521 8.74609 37.4917 8.89969 37.4417 9.04381C37.2143 9.69877 36.7441 10.1054 36.1094 10.3531C35.2312 10.6948 34.3137 10.7868 33.5538 10.8186L33.5531 10.8179Z" fill="#2775B3"/>
</svg>
