<svg width="30" height="37" viewBox="0 0 30 37" fill="none" xmlns="http://www.w3.org/2000/svg">
<path d="M21.4258 20.3946C21.4207 20.3307 21.4156 20.2662 21.4112 20.2023C21.5594 19.9631 21.5176 19.7056 21.4522 19.4605C20.979 17.6906 19.4608 16.4403 17.5302 16.4425C11.9543 16.4484 6.37768 16.4447 0.801755 16.444C0.185388 16.444 0.18392 16.4418 0.18392 15.8254C0.183186 13.9939 0.18392 12.1617 0.18392 10.3302C0.18392 9.60743 0.191992 9.59863 0.906684 9.59863C3.5101 9.59863 6.11352 9.59863 8.7162 9.59863C9.03539 9.59863 9.3399 9.58175 9.37366 9.16056C9.37953 9.08572 9.42062 9.05857 9.47565 9.01894C9.8917 8.71957 10.026 8.40331 9.96801 7.81189C9.87335 6.84332 9.77136 5.83585 10.0443 4.857C10.0854 4.70878 10.0377 4.53047 9.88436 4.43508C9.76623 4.3617 9.66863 4.39766 9.63268 4.54441C8.60467 4.58844 7.57739 4.5833 6.54938 4.54735C6.44592 4.28099 6.25587 4.33969 6.03574 4.37565C5.70994 4.42921 5.46853 4.33823 5.48321 3.92291C5.50082 3.40927 5.50376 2.89416 5.48174 2.38126C5.4678 2.05547 5.59768 1.96961 5.90366 1.97548C6.7064 1.99163 7.51208 1.9432 8.31189 1.99309C8.95101 2.03272 9.32523 1.74581 9.62607 1.23658C10.0509 0.516748 10.5807 0.0331943 11.5375 0.124916C12.1268 0.181416 12.7373 0.294416 13.3426 0.156467C13.54 0.111707 13.6838 0.247456 13.7638 0.414756C14.0382 0.986363 14.5981 1.30115 14.9738 1.78104C15.1176 1.96448 15.3179 1.98576 15.5366 1.98356C16.4201 1.97622 17.3035 1.99089 18.187 1.97475C18.4944 1.96888 18.6221 2.05693 18.6082 2.38126C18.5861 2.89416 18.6177 3.41001 18.5927 3.92218C18.5847 4.09315 18.785 4.55616 18.2449 4.28099C18.1503 4.23256 18.0468 4.41013 18.0211 4.54515C17.9258 4.54515 17.8311 4.54515 17.7357 4.54515C17.6374 4.32868 17.5398 4.33015 17.4429 4.54515C16.4002 4.55469 15.3568 4.56423 14.3141 4.57377C14.2099 4.61119 14.1674 4.68823 14.1674 4.7961C14.1674 5.90336 14.1432 7.01208 14.1769 8.11861C14.1975 8.78561 15.1286 9.57808 15.7846 9.60156C17.1568 9.65072 18.5414 9.44086 19.8879 9.96184C20.4756 10.1893 21.114 10.2942 21.701 10.5584C22.2579 10.8093 22.8039 11.0977 23.4055 11.2393L23.4224 11.2452C23.666 11.6796 24.0307 11.9555 24.5143 12.0736L24.482 12.1C24.482 12.1 24.5135 12.0722 24.5135 12.0729C24.5033 12.4104 24.6896 12.508 24.9912 12.4647C24.9912 12.4647 24.9839 12.464 24.9839 12.4647C25.0169 12.5014 25.0499 12.5381 25.0829 12.5741L25.0807 12.5653C25.0631 12.7201 25.1306 12.7825 25.2833 12.7531L25.2532 12.7722C25.2532 12.7722 25.2825 12.7516 25.2825 12.7524C25.1145 13.2183 25.4161 13.2506 25.747 13.2557L25.7433 13.2528C25.8644 13.6843 25.9084 14.1766 26.5138 14.2236L26.5116 14.2221C26.4859 14.4569 26.585 14.647 26.6914 14.8517C26.9687 15.3815 27.3906 15.8203 27.5286 16.4506C27.5895 16.7287 27.6673 17.1499 28.0349 17.3186L28.0415 17.3377C28.1516 18.4369 28.2477 19.5383 28.3783 20.6345C28.437 21.1247 28.3695 21.2626 27.8889 21.2641C25.9187 21.2692 23.9478 21.2619 21.9776 21.2707C21.6893 21.2722 21.5741 21.1834 21.5829 20.8862C21.588 20.7182 21.6973 20.4863 21.4266 20.3939L21.4258 20.3946Z" fill="#1A5096"/>
<path d="M25.4418 36.8966C22.2132 36.9597 19.9591 34.0276 21.0597 30.7696C21.9402 28.1625 23.4298 25.8651 24.8966 23.5633C25.094 23.2536 25.3016 23.0129 25.634 23.5303C27.0223 25.689 28.3607 27.8668 29.333 30.2575C30.2707 32.5622 29.7542 34.7217 27.8163 36.1474C27.0664 36.6992 26.2123 36.9671 25.4411 36.8959L25.4418 36.8966Z" fill="#1A5096"/>
<path d="M9.6322 4.54318C9.66816 4.39643 9.76502 4.36048 9.88389 4.43385C10.0372 4.52924 10.0849 4.70755 10.0438 4.85577C9.77162 5.83462 9.87361 6.84209 9.96754 7.81066C10.0255 8.40281 9.89122 8.71834 9.47518 9.01772C9.42014 9.05734 9.37905 9.08449 9.37318 9.15933C9.33943 9.58052 9.03491 9.59813 8.71572 9.59739C6.11231 9.59666 3.50889 9.59666 0.906207 9.59739C0.190781 9.59739 0.183443 9.6062 0.183443 10.329C0.183443 12.1605 0.183443 13.9927 0.183443 15.8242C0.183443 16.4413 0.185645 16.4427 0.801278 16.4427C6.3772 16.4427 11.9539 16.4471 17.5298 16.4413C19.4611 16.4391 20.9792 17.6894 21.4518 19.4593C21.5171 19.7036 21.5589 19.9612 21.4107 20.2011C21.2449 19.2876 20.9374 18.4379 20.2594 17.7716C19.4178 16.9439 18.3883 16.5506 17.2179 16.5491C11.6471 16.5433 6.07635 16.5433 0.505569 16.555C0.187112 16.555 0.0073377 16.4985 0 16.1588C0.082916 16.0986 0.0851165 16.0238 0.0381553 15.9408C0.038889 15.8895 0.0396234 15.8388 0.041091 15.7875C0.135014 15.0038 0.0821828 14.2165 0.078514 13.4313C0.0726438 12.148 0.13428 10.8631 0.0432922 9.58052C0.107864 9.43963 0.234072 9.45578 0.355145 9.45871C0.398437 9.45358 0.442463 9.4477 0.485756 9.44183C3.14494 9.44183 5.80339 9.4411 8.46257 9.44037C8.51614 9.4932 8.54989 9.46752 8.57704 9.41248C8.98649 9.3303 9.81124 8.41162 9.81711 7.98383C9.83105 6.93014 9.81931 5.87571 9.82298 4.82202C9.82298 4.67526 9.78409 4.57474 9.6322 4.54172V4.54318Z" fill="#1A5096"/>
<path d="M18.0194 4.54597C18.0451 4.41095 18.1486 4.23338 18.2432 4.28181C18.784 4.55624 18.5829 4.09323 18.591 3.923C18.616 3.41009 18.5844 2.89499 18.6064 2.38208C18.6204 2.05775 18.4927 1.9697 18.1852 1.97557C17.3018 1.99171 16.4183 1.97704 15.5349 1.98438C15.3162 1.98584 15.1159 1.9653 14.9721 1.78186C14.5964 1.30197 14.0358 0.987182 13.7621 0.415575C13.6821 0.248276 13.5375 0.112529 13.3409 0.157289C12.7355 0.295238 12.125 0.182238 11.5358 0.125738C10.579 0.0340162 10.0492 0.516837 9.62434 1.2374C9.32423 1.74664 8.94928 2.03354 8.31016 1.99392C7.51035 1.94402 6.70467 1.99245 5.90193 1.97631C5.59594 1.97044 5.46607 2.05629 5.48001 2.38208C5.50202 2.89499 5.49909 3.41009 5.48148 3.92373C5.4668 4.33904 5.70821 4.43003 6.034 4.37647C6.25414 4.34051 6.44492 4.28108 6.54764 4.54817C5.74343 4.61812 5.33961 4.25197 5.33619 3.44972C5.33472 3.04834 5.35087 2.64624 5.32959 2.24633C5.31418 1.94989 5.41911 1.8589 5.71482 1.86257C6.64524 1.87431 7.57639 1.85523 8.50755 1.85377C8.74675 1.85377 8.94267 1.80314 9.06594 1.57053C9.11657 1.47514 9.23691 1.4157 9.28314 1.31958C9.8342 0.172698 10.769 -0.122278 11.9599 0.0420866C12.464 0.111795 12.9857 0.064834 13.4994 0.0472236C13.754 0.0384183 13.9125 0.138211 14.0615 0.334128C14.3865 0.764117 14.7431 1.16989 15.066 1.60135C15.2164 1.8024 15.3815 1.87945 15.6317 1.87431C16.5144 1.85597 17.3972 1.87064 18.2799 1.84716C18.6028 1.83836 18.7392 1.91467 18.7231 2.26835C18.6981 2.8128 18.7282 3.35946 18.7304 3.90465C18.7334 4.61054 18.7319 4.61054 18.0194 4.5467V4.54597Z" fill="#1A5096"/>
<path d="M23.4065 11.2403C22.8048 11.0979 22.2596 10.8096 21.702 10.5593C21.1142 10.2952 20.4766 10.1902 19.8888 9.96278C18.5424 9.44254 17.157 9.6524 15.7856 9.6025C15.1289 9.57902 14.1984 8.78655 14.1779 8.11955C14.1441 7.01303 14.1691 5.90503 14.1683 4.79704C14.1683 4.68991 14.2109 4.61213 14.3151 4.57471C14.3173 5.66729 14.3166 6.75987 14.3217 7.85246C14.3246 8.59797 15.1582 9.4418 15.892 9.43226C16.8892 9.41906 17.8908 9.39924 18.8762 9.53499C20.5074 9.75953 22.0571 10.2453 23.4072 11.2395L23.4065 11.2403Z" fill="#1A5096"/>
<path d="M21.4272 20.3945C21.698 20.4863 21.5894 20.7181 21.5835 20.8869C21.574 21.1841 21.6892 21.2729 21.9783 21.2714C23.9484 21.2618 25.9194 21.2699 27.8895 21.2648C28.3701 21.2633 28.4376 21.1254 28.3789 20.6352C28.2483 19.5382 28.1522 18.4376 28.0422 17.3384C28.4098 18.3414 28.5404 19.3812 28.536 20.4452C28.5316 21.4607 28.5396 21.4607 27.5483 21.4607C25.7029 21.4607 23.8582 21.446 22.0128 21.4717C21.5483 21.4783 21.3076 21.3895 21.4037 20.8751C21.4331 20.7196 21.4199 20.556 21.4265 20.396L21.4272 20.3945Z" fill="#1A5096"/>
<path d="M28.0352 17.3182C27.6676 17.1494 27.5891 16.7282 27.5289 16.4501C27.3917 15.8198 26.9691 15.3818 26.6917 14.8513C26.5846 14.6465 26.4863 14.4565 26.5119 14.2217C27.2391 15.1462 27.7322 16.1852 28.0352 17.3182Z" fill="#1A5096"/>
<path d="M26.5126 14.2237C25.9073 14.1767 25.8633 13.6844 25.7422 13.2529C26.0694 13.5208 26.3226 13.8466 26.5126 14.2237Z" fill="#1A5096"/>
<path d="M24.5137 12.0745C24.0302 11.9564 23.6655 11.6812 23.4219 11.2461C23.8555 11.4303 24.2055 11.7252 24.5137 12.0745Z" fill="#1A5096"/>
<path d="M25.7469 13.2558C25.4159 13.2507 25.1143 13.2184 25.2824 12.7524C25.4834 12.8779 25.65 13.0349 25.7469 13.2558Z" fill="#1A5096"/>
<path d="M24.9898 12.4656C24.6882 12.5089 24.5018 12.4113 24.5121 12.0737C24.7227 12.142 24.8614 12.2975 24.9898 12.4656Z" fill="#1A5096"/>
<path d="M17.4414 4.54614C17.539 4.33041 17.6366 4.32894 17.7342 4.54614C17.6366 4.54614 17.539 4.54614 17.4414 4.54614Z" fill="#1A5096"/>
<path d="M25.2836 12.7538C25.1309 12.7831 25.0627 12.7207 25.081 12.5659C25.1794 12.5953 25.2483 12.6569 25.2836 12.7538Z" fill="#1A5096"/>
<path d="M0.0381552 15.9424C0.0851165 16.0253 0.082916 16.1001 0 16.1603C0.0124741 16.0877 0.0256812 16.015 0.0381552 15.9424Z" fill="#1A5096"/>
<path d="M8.57541 9.41357C8.54826 9.46861 8.5145 9.49502 8.46094 9.44146C8.49909 9.43192 8.53725 9.42311 8.57541 9.41357Z" fill="#1A5096"/>
</svg>
