<svg width="185" height="185" viewBox="0 0 185 185" fill="none" xmlns="http://www.w3.org/2000/svg">
<path d="M92.5312 185C143.6 185 185 143.6 185 92.5312C185 41.4622 143.6 0.0625 92.5312 0.0625C41.4622 0.0625 0.0625 41.4622 0.0625 92.5312C0.0625 143.6 41.4622 185 92.5312 185Z" fill="#E13B36"/>
<path d="M157.913 27.1489C174.992 44.5438 184.51 67.9787 184.398 92.3555C184.286 116.732 174.553 140.079 157.315 157.316C140.078 174.553 116.732 184.286 92.355 184.398C67.9782 184.51 44.5433 174.992 27.1484 157.914L157.913 27.1489Z" fill="#D1302E"/>
<path d="M102.592 92.5312L132.773 62.3508C133.452 61.6947 133.994 60.9098 134.367 60.042C134.74 59.1742 134.936 58.2408 134.944 57.2964C134.952 56.3519 134.772 55.4153 134.415 54.5411C134.057 53.667 133.529 52.8728 132.861 52.2049C132.193 51.5371 131.399 51.0089 130.525 50.6513C129.651 50.2936 128.714 50.1136 127.769 50.1219C126.825 50.1301 125.892 50.3263 125.024 50.6991C124.156 51.0718 123.371 51.6137 122.715 52.2931L92.5346 82.4735L62.3543 52.2931C61.0127 50.9974 59.216 50.2805 57.351 50.2967C55.486 50.3129 53.702 51.0609 52.3832 52.3797C51.0644 53.6985 50.3163 55.4826 50.3001 57.3476C50.2839 59.2126 51.0008 61.0093 52.2965 62.3508L82.4769 92.5312L52.2965 122.712C51.6172 123.368 51.0753 124.153 50.7025 125.02C50.3297 125.888 50.1335 126.822 50.1253 127.766C50.1171 128.711 50.297 129.647 50.6547 130.521C51.0123 131.395 51.5405 132.19 52.2083 132.858C52.8762 133.525 53.6704 134.054 54.5445 134.411C55.4187 134.769 56.3553 134.949 57.2998 134.941C58.2442 134.932 59.1776 134.736 60.0454 134.363C60.9132 133.991 61.6981 133.449 62.3543 132.769L92.5346 102.589L122.715 132.769C123.371 133.449 124.156 133.991 125.024 134.363C125.892 134.736 126.825 134.932 127.769 134.941C128.714 134.949 129.651 134.769 130.525 134.411C131.399 134.054 132.193 133.525 132.861 132.858C133.529 132.19 134.057 131.395 134.415 130.521C134.772 129.647 134.952 128.711 134.944 127.766C134.936 126.822 134.74 125.888 134.367 125.02C133.994 124.153 133.452 123.368 132.773 122.712L102.592 92.5312Z" fill="#F2F2F2"/>
</svg>
