<svg width="231" height="317" viewBox="0 0 231 317" fill="none" xmlns="http://www.w3.org/2000/svg">
<path opacity="0.3" d="M138.701 252.673C158.97 252.673 175.401 236.241 175.401 215.972C175.401 195.703 158.97 179.271 138.701 179.271C118.431 179.271 102 195.703 102 215.972C102 236.241 118.431 252.673 138.701 252.673Z" fill="#2775B3"/>
<path opacity="0.3" d="M158.954 203.393C179.224 203.393 195.655 186.961 195.655 166.692C195.655 146.423 179.224 129.992 158.954 129.992C138.685 129.992 122.254 146.423 122.254 166.692C122.254 186.961 138.685 203.393 158.954 203.393Z" fill="#2775B3"/>
<path opacity="0.3" d="M57.3021 178.367C77.5712 178.367 94.0026 161.936 94.0026 141.667C94.0026 121.398 77.5712 104.966 57.3021 104.966C37.0329 104.966 20.6016 121.398 20.6016 141.667C20.6016 161.936 37.0329 178.367 57.3021 178.367Z" fill="#2775B3"/>
<path opacity="0.3" d="M76.1341 122.122C96.4033 122.122 112.835 105.691 112.835 85.4217C112.835 65.1526 96.4033 48.7212 76.1341 48.7212C55.865 48.7212 39.4336 65.1526 39.4336 85.4217C39.4336 105.691 55.865 122.122 76.1341 122.122Z" fill="#2775B3"/>
<path opacity="0.3" d="M147.341 133.732C167.61 133.732 184.042 117.301 184.042 97.0316C184.042 76.7624 167.61 60.3311 147.341 60.3311C127.072 60.3311 110.641 76.7624 110.641 97.0316C110.641 117.301 127.072 133.732 147.341 133.732Z" fill="#2775B3"/>
<path opacity="0.3" d="M136.846 67.1814C149.213 54.8137 149.213 34.7615 136.846 22.3938C124.478 10.026 104.426 10.026 92.0579 22.3938C79.6901 34.7615 79.6901 54.8137 92.0579 67.1814C104.426 79.5492 124.478 79.5492 136.846 67.1814Z" fill="#2775B3"/>
<path opacity="0.3" d="M107.059 236.962C119.578 224.443 119.578 204.145 107.059 191.626C94.5395 179.107 74.2419 179.107 61.7227 191.626C49.2035 204.145 49.2035 224.443 61.7227 236.962C74.2419 249.481 94.5395 249.481 107.059 236.962Z" fill="#2775B3"/>
<path opacity="0.96" d="M106.129 221.969C85.2297 239.772 70.9112 227.904 66.912 220.163C61.5557 209.798 67.686 200.298 67.686 200.298C67.686 200.298 45.5264 212.821 29.5011 189.723C11.8273 164.245 34.9237 143.025 34.9237 143.025C34.9237 143.025 10.1503 127.54 20.2134 99.1609C30.2765 70.7815 57.1078 75.6822 57.1078 75.6822C57.1078 75.6822 55.5434 62.7573 68.2012 54.5257C77.4197 48.5269 88.326 51.6883 88.326 51.6883C88.326 51.6883 83.0389 19.8885 109.483 18.9219C136.626 17.9282 130.639 55.0422 130.639 55.0422C130.639 55.0422 141.484 45.0415 152.891 53.3653C165.082 62.2666 159.534 74.9081 159.534 74.9081C159.534 74.9081 174.949 75.2308 177.465 94.5802C179.013 106.495 167.79 113.867 167.79 113.867C167.79 113.867 191.302 117.392 193.332 141.989C194.88 160.758 181.979 165.984 181.979 165.984C181.979 165.984 203.975 186.689 183.785 213.199C165.962 236.604 134.249 221.97 134.249 221.97C134.249 221.97 130.616 244.462 114.124 239.515C106.386 237.192 106.129 221.969 106.129 221.969Z" fill="#2775B3"/>
<path d="M99.5156 289.708C99.5156 289.708 99.7664 288.903 100.234 287.39C100.76 285.825 101.374 283.673 101.971 281.133C103.245 275.815 104.599 267.828 104.984 257.99C105.914 238.305 103.509 211.169 103.214 184.075C103.145 177.263 103.166 170.464 103.431 163.761C103.667 157.063 104.274 150.447 104.83 144.194C105.341 138.218 105.351 132.21 104.86 126.233C104.347 120.426 104.8 114.617 105.71 109.643C106.608 104.596 107.834 100.135 108.349 96.0976C108.853 92.6162 108.823 89.0782 108.258 85.6061C107.906 83.3555 107.335 81.1444 106.556 79.004L105.742 76.7197L106.691 78.9552C109.019 84.3933 109.981 90.3189 109.491 96.2142C109.199 100.375 108.218 104.96 107.629 109.927C107.031 114.956 106.893 120.194 107.72 125.933C108.512 131.718 108.951 137.998 108.748 144.404C108.547 150.785 108.326 157.229 108.477 163.824C108.593 170.412 108.958 177.109 109.408 183.794C111.23 210.658 115.194 237.286 115.442 258.156C115.628 268.581 114.694 277.395 113.567 283.631C112.983 286.884 112.438 289.223 112.039 290.687L111.454 293.043L99.5156 289.708Z" fill="#0C4072"/>
<path d="M128.455 312.255C128.23 312.581 127.982 312.89 127.714 313.182H87.5956C84.8843 310.105 83.0351 306.286 83.332 302.504C83.9611 294.161 92.8976 284.595 100.016 273.764C100.016 273.764 117.146 272.838 118.556 273.319C119.928 273.768 135.242 303.134 128.455 312.255ZM100.222 271.559C99.5851 270.339 92.8068 264.317 93.4439 263.855C94.0811 263.393 102.887 266.867 103.815 266.577C104.742 266.287 109.609 261.942 110.651 262.239C111.694 262.536 110.825 265.483 111.172 266.352C111.519 267.221 114.186 265.02 115.055 265.132C115.924 265.245 115.692 266.87 116.444 267.334C117.197 267.797 119.283 266.348 120.964 266.059C122.645 265.771 124.382 266.059 124.555 266.58C124.729 267.101 119.315 269.915 118.936 271.62C118.556 273.326 100.222 271.559 100.222 271.559Z" fill="#2775B3"/>
<path d="M107.508 219.865L108.321 219.399L109.27 218.843C109.5 218.626 109.742 218.422 109.995 218.232C111.248 217.181 112.883 214.889 114.198 211.416C115.579 207.995 116.831 203.565 118.672 198.907C119.621 196.586 120.659 194.188 122.011 191.886C123.319 189.54 124.88 187.344 126.665 185.337C130.423 181.157 134.957 178.442 138.954 175.739C142.939 173.057 146.31 170.096 148.373 166.85C150.542 163.677 151.521 160.548 152.223 158.409L153.099 154.954C153.099 154.954 152.874 156.235 152.482 158.478C151.94 160.675 151.194 163.91 149.196 167.359C148.132 169.221 146.858 170.955 145.4 172.527C143.848 174.203 142.03 175.781 140.113 177.318C136.271 180.325 132.045 183.418 129.104 187.241C126.013 191.223 124.079 195.83 122.656 200.328C121.233 204.826 120.351 209.261 119.12 213.174C117.959 217.085 116.15 220.471 114.075 222.528L112.529 223.924L111.59 224.576L110.82 225.102L107.508 219.865Z" fill="#0C4072"/>
<path d="M120.953 195.371L122.184 193.966C123.362 192.685 124.651 191.511 126.037 190.458C129.426 187.819 134.848 185.592 140.377 185.094C143.118 184.785 145.905 184.788 148.408 184.823C150.931 184.823 153.193 184.281 154.915 183.221C156.309 182.388 157.467 181.214 158.28 179.808C158.6 179.276 158.851 178.705 159.027 178.11C159.027 178.11 158.915 178.788 158.396 179.872C157.661 181.377 156.553 182.67 155.178 183.626C153.508 184.858 151.023 185.62 148.474 185.795C145.898 185.947 143.24 186.137 140.611 186.623C135.324 187.492 130.554 189.918 127.68 192.497C126.521 193.516 125.454 194.634 124.491 195.839L123.363 197.33C123.111 197.644 122.746 197.848 122.345 197.897C121.945 197.947 121.542 197.838 121.22 197.595C120.899 197.352 120.685 196.993 120.624 196.594C120.563 196.196 120.659 195.789 120.893 195.461C120.904 195.432 120.93 195.4 120.953 195.371ZM103.995 205.357C103.995 205.357 103.53 203.932 102.715 201.441C101.826 199.24 100.58 196.064 98.0353 192.678C95.6168 189.257 91.9348 185.899 87.5289 182.413C83.2179 178.928 78.1464 174.75 75.2344 169.065C73.6686 166.361 72.7319 163.206 71.989 160.417C71.3394 157.535 70.8757 154.614 70.6008 151.673C70.0788 146.029 70.0043 140.798 69.2614 136.415C68.6391 132.001 66.9893 128.583 65.3137 126.601C63.6774 124.568 62.2526 123.89 62.3312 123.8C62.2526 123.89 63.7167 124.469 65.5116 126.425C67.3445 128.323 69.2858 131.758 70.2103 136.224C71.2583 140.657 71.6745 145.929 72.5475 151.423C72.9926 154.208 73.6111 156.962 74.3994 159.67C75.3592 162.502 76.3217 165.101 77.9146 167.503C80.8469 172.41 85.528 175.81 90.0952 179.042C94.6963 182.223 99.0995 185.685 102.14 189.446C105.268 193.073 107.08 196.837 108.281 199.413L109.812 203.234C109.964 203.612 110.04 204.015 110.036 204.422C110.032 204.829 109.948 205.231 109.789 205.605C109.63 205.979 109.398 206.319 109.108 206.603C108.817 206.888 108.474 207.113 108.096 207.265C107.719 207.417 107.315 207.494 106.909 207.49C106.502 207.486 106.1 207.402 105.726 207.242C105.351 207.083 105.012 206.852 104.727 206.561C104.442 206.271 104.217 205.927 104.065 205.55C104.037 205.493 104.015 205.417 103.995 205.357ZM106.667 146.066L107.219 143.607C107.729 141.415 108.359 139.253 109.104 137.129C110.053 134.502 111.478 131.479 113.661 128.659C115.808 125.812 118.822 123.357 122.144 121.61C125.431 119.808 129.043 118.638 132.271 117.619C135.525 116.606 138.289 115.168 140.39 113.503C142.448 111.816 143.605 109.801 143.979 108.277C144.385 106.742 144.185 105.804 144.185 105.804C144.185 105.804 144.512 106.703 144.291 108.338C144.143 109.965 143.114 112.269 141.045 114.234C139.021 116.228 136.003 117.818 132.759 119.023C129.481 120.196 126.066 121.263 122.927 123.039C119.773 124.734 117.004 127.04 115.026 129.71C113.005 132.348 111.714 135.23 110.77 137.749C109.997 139.79 109.334 141.872 108.786 143.985C108.395 145.541 108.173 146.425 108.173 146.425C108.125 146.625 108 146.797 107.825 146.905C107.65 147.012 107.439 147.046 107.24 146.998C107.04 146.95 106.867 146.825 106.76 146.65C106.653 146.475 106.619 146.264 106.667 146.065V146.066ZM105.515 129.817C105.515 129.817 105.359 129.219 105.087 128.175C104.715 126.805 104.137 125.499 103.375 124.301C101.613 121.199 97.2558 118.451 94.4049 114.243C91.5797 110.021 90.6293 104.982 90.3053 101.324C90.0586 99.4839 90.1033 97.9344 90.0518 96.8499C90.022 95.7653 90.0044 95.1553 90.0044 95.1553C90.0044 95.1553 90.0464 95.7707 90.1183 96.8471C90.2118 97.9208 90.2281 99.4663 90.5453 101.288C91.0062 104.917 92.1626 109.851 95.038 113.79C97.8849 117.705 102.34 120.25 104.464 123.571C105.351 124.859 106.042 126.273 106.512 127.764L107.003 129.391C107.033 129.488 107.043 129.591 107.034 129.692C107.024 129.793 106.995 129.891 106.947 129.981C106.9 130.071 106.835 130.151 106.757 130.216C106.678 130.28 106.588 130.329 106.491 130.359C106.393 130.389 106.291 130.4 106.19 130.39C106.089 130.38 105.99 130.351 105.901 130.303C105.811 130.256 105.731 130.191 105.666 130.113C105.601 130.034 105.553 129.944 105.523 129.847C105.519 129.837 105.517 129.827 105.515 129.817Z" fill="#0C4072"/>
<path d="M128.264 118.951L129.407 118.101C130.072 117.207 130.561 116.195 130.848 115.119C131.698 112.223 131.966 108.029 132.08 103.867C132.194 99.7048 132.27 95.4914 132.713 92.3693C132.88 91.1104 133.182 89.8732 133.615 88.6792C134.058 87.8767 134.313 87.4185 134.313 87.4185L133.676 88.7036C133.303 89.9059 133.06 91.1449 132.953 92.3992C132.658 95.5172 132.786 99.6886 132.854 103.874C132.922 108.058 132.876 112.279 132.107 115.467C131.818 116.857 131.203 118.157 130.314 119.263L129.194 120.179C129.115 120.244 129.025 120.292 128.927 120.321C128.83 120.351 128.728 120.361 128.627 120.35C128.525 120.34 128.427 120.31 128.338 120.262C128.248 120.214 128.169 120.149 128.105 120.07C128.04 119.992 127.992 119.901 127.963 119.804C127.933 119.706 127.923 119.604 127.934 119.503C127.944 119.402 127.974 119.304 128.022 119.214C128.07 119.125 128.135 119.045 128.214 118.981L128.264 118.951Z" fill="#0C4072"/>
<path d="M130.016 118.265C130.016 118.265 130.694 118.185 131.961 118.13C133.752 118.157 135.529 118.456 137.231 119.015C141.433 120.303 146.11 123.624 150.923 126.44C153.324 127.87 155.914 128.939 158.498 129.307C161.082 129.676 163.549 129.479 165.609 129.104C169.75 128.291 172.251 126.892 172.251 126.892C172.251 126.892 169.811 128.383 165.663 129.344C163.597 129.794 161.101 130.103 158.436 129.798C155.767 129.516 153.029 128.49 150.553 127.125C145.586 124.423 140.846 121.327 136.861 120.265C135.311 119.815 133.704 119.593 132.09 119.608C130.897 119.696 130.183 119.803 130.183 119.803C129.979 119.833 129.773 119.781 129.608 119.659C129.443 119.537 129.333 119.354 129.303 119.151C129.272 118.948 129.324 118.741 129.447 118.576C129.569 118.411 129.752 118.301 129.955 118.271H129.975L130.016 118.265ZM74.1326 164.424C74.1326 164.424 73.3843 164.256 72.1289 164.079C71.6002 164.262 70.9888 164.225 70.2147 164.545C69.4515 164.922 68.5432 165.243 67.6796 165.931C64.0573 168.353 60.0771 172.892 55.9165 177.173C53.8866 179.295 51.7501 181.313 49.5151 183.218C47.2905 184.936 45.1255 186.48 43.0079 187.285C41.9749 187.749 41.0043 188.09 40.0824 188.188C39.1822 188.36 38.4041 188.54 37.7425 188.424L35.6914 188.299L37.7425 188.357C38.3987 188.454 39.1687 188.248 40.0472 188.047C40.9527 187.924 41.9003 187.555 42.9049 187.063C44.9614 186.205 47.0532 184.608 49.1925 182.842C51.3482 180.882 53.402 178.811 55.3458 176.64C59.3613 172.244 63.1585 167.578 66.93 164.856C67.8098 164.109 68.836 163.679 69.6955 163.229C70.5794 162.822 71.6192 162.757 72.3445 162.605C73.6635 162.75 74.3875 162.891 74.3875 162.891L74.443 162.902C74.6415 162.944 74.8154 163.063 74.9274 163.232C75.0395 163.401 75.0806 163.607 75.0421 163.806C75.0035 164.005 74.8883 164.182 74.7213 164.297C74.5542 164.412 74.3487 164.457 74.1489 164.422L74.1326 164.424Z" fill="#0C4072"/>
<path d="M167.478 125.3C165.021 125.919 163.622 126.258 163.263 126.358C163.571 125.777 170.405 123.81 169.77 121.904C169.092 119.87 163.698 125.739 163.199 126.318C165.056 122.024 171.488 117.471 173.704 119.888C175.968 122.301 170.335 124.581 167.478 125.3Z" fill="white"/>
<path d="M163.266 126.358C163.325 123.722 164.486 118.589 163.206 119.108C161.928 119.588 163.266 126.358 163.266 126.358C163.266 126.358 161.708 123.282 161.648 120.8C161.589 118.318 162.227 115.688 164.004 115.688C165.782 115.688 166.258 118.13 163.266 126.358Z" fill="white"/>
<path d="M163.267 126.358C160.727 121.675 158.658 121.862 157.93 122.121C157.202 122.38 156.574 123.578 156.574 123.578C156.574 123.578 157.327 122.708 158.971 123.225C160.615 123.743 163.267 126.358 163.267 126.358Z" fill="white"/>
<path d="M163.209 126.318C160.071 123.765 157.227 124.447 157.204 124.517C157.18 124.588 158.12 125.762 158.12 125.762C158.301 125.546 158.532 125.377 158.793 125.27C159.054 125.163 159.337 125.121 159.618 125.148C160.635 125.222 163.209 126.318 163.209 126.318Z" fill="#2775B3"/>
<path d="M149.969 125.945H178.927V144.158H149.969V125.945Z" fill="#DBDBDB"/>
<path d="M149.969 125.945H161.652V144.158H149.969V125.945Z" fill="white"/>
<path d="M149.805 125.945H179.083V130.199H149.805V125.945Z" fill="white"/>
<path d="M149.805 125.945H161.488V130.199H149.805V125.945Z" fill="#CBCBCB"/>
<path d="M169.501 125.945H172.077V144.158H169.501V125.945ZM154.523 125.945H157.098V144.158H154.523V125.945ZM52.673 174.061C50.2165 174.681 48.8175 175.02 48.4583 175.12C48.766 174.539 55.5999 172.573 54.9654 170.667C54.2876 168.633 48.8934 174.502 48.3945 175.081C50.2518 170.786 56.6831 166.234 58.8996 168.65C61.1608 171.067 55.528 173.343 52.673 174.061Z" fill="white"/>
<path d="M48.4507 175.121C48.5104 172.485 49.6708 167.353 48.3911 167.872C47.1127 168.35 48.4507 175.121 48.4507 175.121C48.4507 175.121 46.8931 172.045 46.8334 169.569C46.7534 167.113 47.4123 164.456 49.1896 164.456C50.9668 164.456 51.4508 166.893 48.4507 175.121ZM48.4507 175.121C45.9102 170.437 43.8415 170.625 43.1135 170.883C42.3855 171.14 41.7578 172.34 41.7578 172.34C41.7578 172.34 42.5102 171.471 44.1546 171.988C45.799 172.504 48.4507 175.121 48.4507 175.121Z" fill="white"/>
<path d="M48.3966 175.081C45.2569 172.529 42.4141 173.209 42.391 173.28C42.368 173.35 43.3075 174.525 43.3075 174.525C43.4895 174.309 43.7215 174.14 43.9835 174.034C44.2455 173.927 44.5295 173.886 44.8109 173.914C45.8209 173.985 48.3966 175.081 48.3966 175.081Z" fill="white"/>
<path d="M35.1562 174.708H64.1146V192.922H35.1562V174.708Z" fill="#DBDBDB"/>
<path d="M35.1562 174.708H46.8394V192.922H35.1562V174.708Z" fill="white"/>
<path d="M34.9961 174.708H64.2744V178.962H34.9961V174.708Z" fill="white"/>
<path d="M34.9961 174.708H46.6792V178.962H34.9961V174.708Z" fill="#CBCBCB"/>
<path d="M54.6883 174.708H57.2641V192.922H54.6883V174.708ZM39.7109 174.708H42.2867V192.922H39.7109V174.708ZM56.9441 122.301C58.5452 122.708 59.4562 122.926 59.6907 122.991C59.4901 122.611 55.0354 121.33 55.4475 120.087C55.8867 118.759 59.4047 122.587 59.73 122.965C58.5194 120.166 54.3277 117.197 52.8826 118.772C51.4117 120.342 55.0828 121.826 56.9441 122.301Z" fill="white"/>
<path d="M59.6889 122.986C59.6496 121.267 58.8945 117.921 59.7283 118.26C60.5606 118.571 59.6889 122.986 59.6889 122.986C59.6889 122.986 60.7043 120.981 60.7436 119.366C60.783 117.751 60.3654 116.034 59.2077 116.034C58.0499 116.034 57.7368 117.621 59.6889 122.986Z" fill="white"/>
<path d="M59.6875 122.986C61.3441 119.933 62.6916 120.055 63.1661 120.223C63.6406 120.391 64.0554 121.172 64.0554 121.172C64.0554 121.172 63.5647 120.605 62.4924 120.941C61.42 121.278 59.6875 122.986 59.6875 122.986Z" fill="white"/>
<path d="M59.7305 122.96C61.7762 121.295 63.6294 121.74 63.6456 121.786C63.6619 121.832 63.0478 122.599 63.0478 122.599C62.929 122.459 62.7777 122.349 62.6069 122.28C62.4361 122.21 62.251 122.184 62.0676 122.202C61.4088 122.246 59.7305 122.96 59.7305 122.96Z" fill="white"/>
<path d="M49.4844 122.716H68.3606V134.589H49.4844V122.716Z" fill="#DBDBDB"/>
<path d="M60.7422 122.716H68.3583V134.589H60.7422V122.716Z" fill="white"/>
<path d="M49.3828 122.716H68.4678V125.488H49.3828V122.716Z" fill="white"/>
<path d="M60.8516 122.716H68.4677V125.488H60.8516V122.716Z" fill="#CBCBCB"/>
<path d="M53.9492 122.716H55.6289V134.589H53.9492V122.716ZM63.7127 122.716H65.3924V134.589H63.7127V122.716ZM157.313 176.993C158.916 177.399 159.827 177.617 160.061 177.683C159.86 177.303 155.406 176.022 155.816 174.779C156.256 173.45 159.774 177.279 160.099 177.655C158.888 174.857 154.697 171.888 153.252 173.464C151.774 175.036 155.445 176.528 157.313 176.993Z" fill="white"/>
<path d="M160.054 177.683C160.015 175.964 159.26 172.618 160.092 172.957C160.926 173.269 160.054 177.683 160.054 177.683C160.054 177.683 161.069 175.678 161.107 174.063C161.145 172.449 160.73 170.731 159.571 170.731C158.412 170.731 158.1 172.325 160.054 177.683Z" fill="white"/>
<path d="M160.055 177.683C161.71 174.628 163.059 174.752 163.533 174.92C164.008 175.088 164.421 175.869 164.421 175.869C164.421 175.869 163.932 175.301 162.86 175.638C161.787 175.976 160.055 177.683 160.055 177.683Z" fill="white"/>
<path d="M160.094 177.656C162.141 175.992 163.994 176.435 164.009 176.482C164.024 176.528 163.412 177.295 163.412 177.295C163.293 177.154 163.142 177.044 162.971 176.975C162.8 176.905 162.615 176.878 162.431 176.896C161.773 176.941 160.094 177.656 160.094 177.656Z" fill="#2775B3"/>
<path d="M149.848 177.413H168.724V189.286H149.848V177.413Z" fill="#DBDBDB"/>
<path d="M161.109 177.413H168.725V189.286H161.109V177.413Z" fill="white"/>
<path d="M149.742 177.413H168.827V180.185H149.742V177.413Z" fill="white"/>
<path d="M161.211 177.413H168.827V180.185H161.211V177.413Z" fill="#CBCBCB"/>
<path d="M154.312 177.413H155.992V189.286H154.312V177.413ZM164.076 177.413H165.756V189.286H164.076V177.413Z" fill="white"/>
<path d="M136.697 80.7806C136.969 79.0136 135.757 77.3603 133.99 77.088C132.223 76.8158 130.57 78.0275 130.298 79.7946C130.025 81.5616 131.237 83.2149 133.004 83.4872C134.771 83.7595 136.425 82.5477 136.697 80.7806Z" fill="#2775B3"/>
<path d="M133.5 83.1145C135.059 83.1145 136.323 81.8502 136.323 80.2906C136.323 78.7311 135.059 77.4668 133.5 77.4668C131.94 77.4668 130.676 78.7311 130.676 80.2906C130.676 81.8502 131.94 83.1145 133.5 83.1145Z" fill="#DBDBDB"/>
<path d="M132.34 80.8531L132.808 80.7798C132.824 80.9461 132.902 81.1001 133.027 81.211C133.172 81.3191 133.351 81.3724 133.531 81.3614C133.704 81.3737 133.875 81.3258 134.015 81.2259C134.064 81.1894 134.103 81.1423 134.13 81.0882C134.158 81.0342 134.172 80.9746 134.173 80.9141C134.174 80.8638 134.162 80.8141 134.139 80.7699C134.115 80.7257 134.08 80.6884 134.037 80.6619C133.883 80.5883 133.721 80.5341 133.553 80.5006C133.306 80.4466 133.064 80.3703 132.831 80.2728C132.704 80.2152 132.598 80.1207 132.526 80.0017C132.456 79.8893 132.42 79.7596 132.421 79.6275C132.42 79.507 132.45 79.3881 132.507 79.2818C132.561 79.1741 132.641 79.0811 132.74 79.0107C132.832 78.9487 132.933 78.9029 133.041 78.8751C133.173 78.8367 133.31 78.8175 133.447 78.8182C133.644 78.8142 133.84 78.8464 134.025 78.9131C134.17 78.9606 134.297 79.0497 134.391 79.1693C134.479 79.2985 134.535 79.4467 134.555 79.6018L134.091 79.6655C134.085 79.6001 134.065 79.5368 134.033 79.4791C134.002 79.4214 133.96 79.3705 133.908 79.3293C133.784 79.2406 133.633 79.1975 133.481 79.2073C133.319 79.1933 133.156 79.2313 133.016 79.3157C132.975 79.3439 132.941 79.3815 132.918 79.4253C132.894 79.4692 132.882 79.5181 132.881 79.5679C132.88 79.6279 132.9 79.6863 132.938 79.7333C132.986 79.7909 133.049 79.8344 133.119 79.8594C133.166 79.8765 133.306 79.9172 133.538 79.9814C133.776 80.0399 134.01 80.1132 134.239 80.201C134.365 80.2523 134.473 80.3384 134.551 80.4491C134.63 80.5696 134.669 80.7118 134.663 80.8558C134.664 81.0147 134.617 81.1702 134.528 81.3018C134.431 81.4485 134.293 81.5631 134.131 81.6312C133.944 81.7096 133.743 81.7484 133.541 81.7451C133.247 81.765 132.955 81.6852 132.711 81.5187C132.508 81.3513 132.376 81.1137 132.34 80.8531Z" fill="#2775B3"/>
<path d="M133.34 79.069L133.5 78.2827L133.658 79.069H133.34ZM133.34 81.5119L133.5 82.2982L133.658 81.5119H133.34Z" fill="#2775B3"/>
<path d="M132.747 96.294C138.657 96.294 143.447 92.8034 143.447 88.4976C143.447 84.1917 138.657 80.7012 132.747 80.7012C126.838 80.7012 122.047 84.1917 122.047 88.4976C122.047 92.8034 126.838 96.294 132.747 96.294Z" fill="white"/>
<path d="M125.34 83.1859C126.153 81.1185 124.946 79.104 124.946 79.104C124.946 79.104 129.839 80.3336 130.545 81.3544C131.252 82.3752 125.34 83.1859 125.34 83.1859ZM122.716 88.6533C122.049 89.1644 120.734 88.8499 120.734 88.8499C120.756 89.5944 120.922 90.3275 121.225 91.0081C121.873 92.46 122.445 92.8721 122.445 92.8721C122.445 92.8721 122.975 91.4799 123.839 91.5585C124.702 91.6371 122.716 88.6533 122.716 88.6533ZM125.391 93.9675C126.778 95.2757 126.504 97.2712 126.504 97.2712C126.978 97.5158 127.479 97.7063 127.995 97.8393C128.701 98.01 129.428 98.0807 130.154 98.0494C130.154 98.0494 130.389 95.9034 131.174 95.799C131.959 95.6946 125.391 93.9675 125.391 93.9675ZM140.344 93.9675C138.957 95.2757 139.231 97.2712 139.231 97.2712C138.757 97.5158 138.257 97.7063 137.74 97.8393C137.034 98.01 136.307 98.0807 135.582 98.0494C135.582 98.0494 135.347 95.9034 134.562 95.799C133.777 95.6946 140.344 93.9675 140.344 93.9675ZM141.143 85.4905L141.594 85.2018C141.79 85.0925 141.995 84.9991 142.207 84.9225C142.476 84.8196 142.759 84.7556 143.046 84.7327C143.408 84.6948 143.775 84.7317 144.122 84.8413C144.47 84.9509 144.791 85.1309 145.066 85.3699C145.384 85.6406 145.611 86.002 145.718 86.4056C145.741 86.5149 145.755 86.6261 145.759 86.7377C145.758 86.8417 145.75 86.9454 145.734 87.0482C145.7 87.2649 145.618 87.4714 145.494 87.6528C145.247 88.0161 144.75 88.2507 144.305 88.0595C144.2 88.0107 144.109 87.9368 144.04 87.8444C143.97 87.7519 143.924 87.6438 143.907 87.5295C143.879 87.327 143.902 87.1209 143.972 86.9289C144.085 86.5817 144.281 86.2669 144.541 86.0111C144.776 85.7839 145.067 85.6242 145.384 85.5488C145.855 85.4517 146.344 85.5217 146.769 85.7468C146.887 85.8043 147.001 85.8709 147.109 85.946L147.225 86.0233L147.105 85.9528C146.994 85.8841 146.877 85.8242 146.756 85.7739C146.336 85.5786 145.86 85.5355 145.412 85.6519C145.121 85.7373 144.86 85.8999 144.655 86.1223C144.429 86.3699 144.266 86.6684 144.179 86.9926C144.075 87.3125 144.12 87.707 144.412 87.806C144.705 87.905 145.058 87.745 145.226 87.4657C145.31 87.3198 145.364 87.1587 145.386 86.9916C145.407 86.8245 145.395 86.6548 145.351 86.4924C145.246 86.1757 145.049 85.8976 144.785 85.6939C144.538 85.4979 144.251 85.359 143.943 85.2872C143.668 85.2246 143.383 85.2141 143.104 85.256C142.866 85.2876 142.633 85.3529 142.413 85.4499C142.245 85.5202 142.082 85.6032 141.926 85.698L141.495 86.0043L141.143 85.4905Z" fill="white"/>
<path d="M124.596 87.1108C124.596 87.6164 124.508 88.0258 124.4 88.0258C124.291 88.0258 124.203 87.6191 124.203 87.1108C124.203 86.6024 124.291 86.1943 124.4 86.1943C124.508 86.1943 124.596 86.6051 124.596 87.1108Z" fill="#82374B"/>
<path d="M150.957 153.21C152.306 153.21 153.399 152.117 153.399 150.769C153.399 149.42 152.306 148.327 150.957 148.327C149.609 148.327 148.516 149.42 148.516 150.769C148.516 152.117 149.609 153.21 150.957 153.21Z" fill="#2775B3"/>
<path d="M150.958 152.898C152.134 152.898 153.088 151.945 153.088 150.768C153.088 149.592 152.134 148.639 150.958 148.639C149.782 148.639 148.828 149.592 148.828 150.768C148.828 151.945 149.782 152.898 150.958 152.898Z" fill="#DBDBDB"/>
<path d="M151.561 151.698C151.378 151.824 151.157 151.884 150.935 151.869C150.783 151.872 150.631 151.842 150.491 151.782C150.369 151.732 150.264 151.648 150.191 151.538C150.123 151.44 150.086 151.322 150.087 151.202C150.081 151.097 150.11 150.993 150.167 150.904C150.224 150.816 150.308 150.748 150.406 150.71C150.579 150.643 150.756 150.588 150.935 150.543C151.11 150.496 151.216 150.466 151.251 150.453C151.304 150.433 151.35 150.4 151.387 150.358C151.415 150.322 151.43 150.278 151.43 150.233C151.429 150.195 151.419 150.158 151.4 150.124C151.382 150.091 151.356 150.063 151.324 150.042C151.219 149.978 151.096 149.95 150.973 149.96C150.859 149.953 150.745 149.985 150.652 150.051C150.575 150.115 150.526 150.207 150.516 150.306L150.167 150.259C150.182 150.142 150.224 150.03 150.29 149.932C150.36 149.843 150.454 149.775 150.561 149.738C150.7 149.688 150.848 149.664 150.996 149.666C151.101 149.666 151.205 149.68 151.305 149.71C151.387 149.731 151.464 149.766 151.533 149.814C151.606 149.866 151.666 149.934 151.708 150.013C151.751 150.093 151.773 150.183 151.773 150.274C151.775 150.376 151.746 150.476 151.691 150.562C151.636 150.648 151.557 150.716 151.464 150.758C151.288 150.83 151.107 150.887 150.922 150.928C150.795 150.953 150.673 150.994 150.557 151.05C150.524 151.07 150.497 151.098 150.478 151.131C150.46 151.164 150.45 151.202 150.451 151.24C150.452 151.286 150.463 151.331 150.484 151.372C150.505 151.412 150.534 151.448 150.571 151.476C150.677 151.55 150.807 151.585 150.937 151.575C151.072 151.584 151.207 151.544 151.316 151.462C151.41 151.379 151.47 151.263 151.482 151.137L151.835 151.193C151.81 151.389 151.713 151.57 151.561 151.698Z" fill="#2775B3"/>
<path d="M151.08 149.847L150.959 149.254L150.84 149.847H151.08ZM151.08 151.691L150.959 152.283L150.84 151.691H151.08Z" fill="#2775B3"/>
<path d="M151.529 162.839C155.986 162.839 159.6 160.206 159.6 156.959C159.6 153.711 155.986 151.078 151.529 151.078C147.071 151.078 143.457 153.711 143.457 156.959C143.457 160.206 147.071 162.839 151.529 162.839Z" fill="white"/>
<path d="M157.111 152.953C156.498 151.394 157.406 149.874 157.406 149.874C157.406 149.874 153.716 150.801 153.183 151.571C152.651 152.341 157.111 152.953 157.111 152.953ZM159.089 157.077C159.592 157.462 160.58 157.224 160.58 157.224C160.564 157.786 160.438 158.338 160.21 158.851C159.722 159.947 159.292 160.258 159.292 160.258C159.292 160.258 158.885 159.206 158.241 159.266C157.598 159.326 159.089 157.077 159.089 157.077ZM157.072 161.083C156.025 162.07 156.232 163.574 156.232 163.574C155.875 163.759 155.497 163.903 155.107 164.004C154.575 164.133 154.027 164.186 153.48 164.161C153.48 164.161 153.303 162.544 152.71 162.464C152.118 162.384 157.072 161.083 157.072 161.083ZM145.787 161.083C146.834 162.07 146.626 163.574 146.626 163.574C146.984 163.759 147.361 163.903 147.751 164.004C148.284 164.133 148.831 164.186 149.378 164.161C149.378 164.161 149.556 162.544 150.147 162.464C150.738 162.384 145.787 161.083 145.787 161.083ZM145.19 154.691L144.85 154.474C144.702 154.39 144.547 154.32 144.387 154.262C144.183 154.185 143.97 154.136 143.753 154.119C143.48 154.09 143.204 154.118 142.942 154.201C142.68 154.284 142.438 154.42 142.231 154.6C142.073 154.723 141.945 154.88 141.854 155.058C141.764 155.237 141.714 155.433 141.708 155.633C141.709 155.711 141.715 155.789 141.727 155.866C141.753 156.03 141.815 156.185 141.907 156.323C142 156.468 142.139 156.578 142.302 156.633C142.465 156.689 142.642 156.688 142.805 156.629C142.883 156.592 142.952 156.537 143.004 156.467C143.057 156.398 143.092 156.317 143.105 156.231C143.126 156.078 143.109 155.923 143.057 155.778C142.97 155.516 142.822 155.278 142.626 155.084C142.449 154.913 142.23 154.792 141.991 154.735C141.636 154.662 141.266 154.716 140.946 154.886C140.857 154.929 140.771 154.979 140.69 155.035L140.602 155.093L140.692 155.04C140.777 154.989 140.864 154.943 140.955 154.905C141.273 154.757 141.632 154.724 141.971 154.813C142.19 154.877 142.386 155 142.54 155.168C142.711 155.354 142.834 155.58 142.899 155.824C142.978 156.065 142.944 156.366 142.723 156.441C142.607 156.472 142.484 156.464 142.373 156.418C142.262 156.371 142.17 156.289 142.11 156.185C142.046 156.075 142.005 155.953 141.989 155.827C141.973 155.701 141.982 155.572 142.017 155.45C142.095 155.211 142.243 155.001 142.443 154.848C142.629 154.7 142.845 154.595 143.077 154.54C143.285 154.493 143.499 154.485 143.71 154.517C143.89 154.54 144.066 154.589 144.232 154.662C144.359 154.716 144.482 154.779 144.599 154.851L144.925 155.081L145.19 154.691Z" fill="white"/>
<path d="M157.676 155.912C157.676 156.295 157.741 156.604 157.824 156.604C157.906 156.604 157.971 156.295 157.971 155.912C157.971 155.53 157.905 155.222 157.824 155.222C157.742 155.222 157.676 155.531 157.676 155.912Z" fill="#82374B"/>
<path d="M71.9704 145.12C73.6498 145.12 75.0112 143.758 75.0112 142.079C75.0112 140.399 73.6498 139.038 71.9704 139.038C70.2911 139.038 68.9297 140.399 68.9297 142.079C68.9297 143.758 70.2911 145.12 71.9704 145.12Z" fill="#2775B3"/>
<path d="M72.5793 144.661C74.0053 144.328 74.8908 142.901 74.5571 141.475C74.2234 140.049 72.797 139.164 71.371 139.497C69.945 139.831 69.0596 141.258 69.3932 142.684C69.7269 144.109 71.1534 144.995 72.5793 144.661Z" fill="#DBDBDB"/>
<path d="M72.7178 143.238C72.4894 143.395 72.2147 143.47 71.9383 143.451C71.7484 143.454 71.56 143.418 71.3852 143.344C71.2333 143.281 71.1031 143.176 71.011 143.04C70.9248 142.917 70.8776 142.771 70.8754 142.621C70.8705 142.486 70.9074 142.353 70.9812 142.24C71.0546 142.136 71.1562 142.055 71.274 142.007C71.4889 141.924 71.709 141.854 71.9329 141.8C72.1498 141.741 72.2813 141.703 72.326 141.687C72.3923 141.663 72.4512 141.622 72.4968 141.568C72.532 141.523 72.5511 141.468 72.551 141.412C72.5491 141.364 72.5358 141.318 72.5122 141.277C72.4886 141.235 72.4554 141.2 72.4155 141.175C72.284 141.095 72.1306 141.06 71.9776 141.073C71.833 141.063 71.6893 141.103 71.5709 141.187C71.4742 141.266 71.4128 141.38 71.4001 141.504L70.9649 141.444C70.9831 141.299 71.0356 141.159 71.1181 141.038C71.2068 140.925 71.3265 140.841 71.4624 140.796C71.6365 140.735 71.8201 140.705 72.0047 140.708C72.1349 140.707 72.2646 140.725 72.3897 140.761C72.4909 140.789 72.5864 140.835 72.6717 140.897C72.7633 140.961 72.8385 141.046 72.8913 141.145C72.9446 141.244 72.9721 141.356 72.9713 141.469C72.9726 141.593 72.9388 141.715 72.8737 141.821C72.8049 141.931 72.7048 142.018 72.5863 142.071C72.367 142.162 72.1402 142.233 71.9085 142.285C71.7514 142.316 71.5989 142.367 71.4543 142.435C71.4127 142.459 71.3783 142.494 71.3545 142.536C71.3306 142.577 71.3183 142.625 71.3187 142.673C71.3193 142.729 71.3329 142.785 71.3586 142.836C71.3842 142.887 71.4211 142.931 71.4665 142.965C71.5991 143.059 71.7603 143.103 71.922 143.09C72.0908 143.102 72.2585 143.054 72.3951 142.955C72.5135 142.85 72.5872 142.705 72.6012 142.548L73.0418 142.617C73.0132 142.857 72.898 143.077 72.7178 143.238Z" fill="#2775B3"/>
<path d="M72.1199 140.932L71.9708 140.193L71.8203 140.932H72.1199ZM72.1199 143.227L71.9708 143.964L71.8203 143.227H72.1199Z" fill="#2775B3"/>
<path d="M72.6772 157.112C78.2289 157.112 82.7295 153.833 82.7295 149.789C82.7295 145.744 78.2289 142.465 72.6772 142.465C67.1255 142.465 62.625 145.744 62.625 149.789C62.625 153.833 67.1255 157.112 72.6772 157.112Z" fill="white"/>
<path d="M79.6329 144.805C78.871 142.862 80.0016 140.97 80.0016 140.97C80.0016 140.97 75.4045 142.126 74.7416 143.085C74.0787 144.043 79.6329 144.805 79.6329 144.805ZM82.0975 149.935C82.7238 150.415 83.9588 150.119 83.9588 150.119C83.9399 150.821 83.7833 151.512 83.4979 152.153C82.8905 153.516 82.355 153.904 82.355 153.904C82.355 153.904 81.8575 152.595 81.0468 152.669C80.2361 152.744 82.0975 149.935 82.0975 149.935ZM79.5841 154.925C78.2826 156.153 78.5402 158.027 78.5402 158.027C78.0952 158.259 77.6255 158.441 77.1398 158.569C76.4745 158.729 75.79 158.796 75.1063 158.766C75.1063 158.766 74.8853 156.75 74.1478 156.652C73.4104 156.554 79.5841 154.925 79.5841 154.925ZM65.534 154.925C66.8368 156.153 66.5778 158.027 66.5778 158.027C67.0233 158.259 67.4935 158.441 67.9796 158.569C68.6426 158.729 69.3249 158.795 70.0063 158.766C70.0063 158.766 70.2286 156.75 70.9647 156.652C71.7009 156.554 65.534 154.925 65.534 154.925ZM64.7897 146.963L64.3654 146.692C64.1807 146.589 63.988 146.501 63.7892 146.429C63.536 146.332 63.2703 146.272 63.0002 146.25C62.6597 146.215 62.3155 146.25 61.9891 146.353C61.6626 146.456 61.3608 146.625 61.1023 146.849C60.8045 147.104 60.5909 147.444 60.4895 147.823C60.4681 147.925 60.4554 148.03 60.4516 148.134C60.452 148.232 60.4597 148.329 60.4746 148.426C60.5066 148.63 60.5834 148.824 60.6997 148.994C60.9315 149.336 61.3992 149.555 61.8167 149.376C61.915 149.33 62.0005 149.261 62.0657 149.175C62.1309 149.088 62.1739 148.987 62.1909 148.88C62.2169 148.69 62.1959 148.496 62.1299 148.316C62.0231 147.989 61.8395 147.693 61.5944 147.453C61.3747 147.239 61.101 147.089 60.8027 147.019C60.3609 146.927 59.901 146.993 59.5026 147.204C59.3914 147.259 59.2845 147.321 59.1827 147.392L59.0742 147.465L59.1867 147.398C59.2914 147.333 59.4011 147.277 59.5148 147.23C59.9099 147.046 60.3567 147.006 60.7783 147.116C61.0506 147.196 61.2962 147.348 61.4887 147.557C61.6999 147.789 61.8532 148.068 61.936 148.37C62.0323 148.67 61.9903 149.04 61.7164 149.139C61.4426 149.238 61.1091 149.081 60.9518 148.819C60.8723 148.682 60.821 148.531 60.801 148.374C60.781 148.217 60.7926 148.058 60.8352 147.905C60.9321 147.608 61.1169 147.346 61.3653 147.156C61.5974 146.971 61.8679 146.839 62.157 146.772C62.4153 146.713 62.6826 146.702 62.9446 146.742C63.1686 146.772 63.3873 146.833 63.594 146.924C63.752 146.99 63.9048 147.068 64.0509 147.157L64.4576 147.444L64.7897 146.963Z" fill="white"/>
<path d="M80.3359 148.486C80.3359 148.96 80.4186 149.345 80.5203 149.345C80.622 149.345 80.7047 148.96 80.7047 148.486C80.7047 148.011 80.622 147.625 80.5203 147.625C80.4186 147.625 80.3359 148.01 80.3359 148.486Z" fill="#82374B"/>
<path d="M106.542 79.3005L113.365 82.8876L112.061 75.2918L117.581 69.9112L109.953 68.8036L106.542 61.8911L103.131 68.8036L95.5039 69.9112L101.023 75.2918L99.72 82.8876L106.542 79.3005Z" fill="white"/>
<path d="M143.904 106.997C145.468 106.997 146.737 105.697 146.737 104.094C146.737 102.491 145.468 101.192 143.904 101.192C142.339 101.192 141.07 102.491 141.07 104.094C141.07 105.697 142.339 106.997 143.904 106.997Z" fill="white"/>
<path d="M146.74 104.094L147.081 107.535L146.74 111.862C146.74 111.862 140.88 106.472 141.075 104.099C141.27 101.725 146.74 104.094 146.74 104.094Z" fill="white"/>
<path d="M149.568 106.997C151.133 106.997 152.401 105.697 152.401 104.094C152.401 102.491 151.133 101.192 149.568 101.192C148.003 101.192 146.734 102.491 146.734 104.094C146.734 105.697 148.003 106.997 149.568 106.997Z" fill="white"/>
<path d="M146.734 104.094V111.862C146.734 111.862 152.595 106.472 152.4 104.099C152.204 101.725 146.734 104.094 146.734 104.094Z" fill="white"/>
<path d="M84.438 97.3312C86.5007 97.3312 88.1728 95.6542 88.1728 93.5855C88.1728 91.5169 86.5007 89.8398 84.438 89.8398C82.3753 89.8398 80.7031 91.5169 80.7031 93.5855C80.7031 95.6542 82.3753 97.3312 84.438 97.3312Z" fill="white"/>
<path d="M88.1713 93.5851L88.6214 98.0235L88.1713 103.602C88.1713 103.602 80.444 96.6462 80.7016 93.5851C80.9592 90.524 88.1713 93.5851 88.1713 93.5851Z" fill="white"/>
<path d="M91.9028 97.3312C93.9655 97.3312 95.6377 95.6542 95.6377 93.5855C95.6377 91.5169 93.9655 89.8398 91.9028 89.8398C89.8401 89.8398 88.168 91.5169 88.168 93.5855C88.168 95.6542 89.8401 97.3312 91.9028 97.3312Z" fill="white"/>
<path d="M88.1719 93.5851V103.602C88.1719 103.602 95.8992 96.6462 95.6429 93.5851C95.3867 90.524 88.1719 93.5851 88.1719 93.5851Z" fill="white"/>
<g opacity="0.3">
<path d="M88.3127 122.175C88.4307 122.613 86.1667 123.6 83.2574 124.378C80.3482 125.156 77.8958 125.433 77.7778 124.995C77.6599 124.557 79.9239 123.57 82.8331 122.79C85.7424 122.011 88.1961 121.736 88.3127 122.175Z" fill="white"/>
<path d="M81.0512 116.134C81.489 116.017 82.7376 119.252 83.8384 123.372C84.9392 127.492 85.4774 130.917 85.0395 131.034C84.6016 131.151 83.3531 127.916 82.2509 123.796C81.1488 119.676 80.6133 116.252 81.0512 116.134Z" fill="white"/>
</g>
<g opacity="0.3">
<path d="M83.5414 70.3792C83.5956 70.5826 82.5463 71.0394 81.1988 71.4C79.8512 71.7606 78.7125 71.8894 78.6583 71.6861C78.604 71.4827 79.6533 71.0259 81.0008 70.6653C82.3484 70.3047 83.4871 70.1813 83.5414 70.3792Z" fill="white"/>
<path d="M80.175 67.5865C80.3784 67.5309 80.9572 69.0329 81.467 70.9404C81.9767 72.8478 82.2275 74.4366 82.0241 74.4908C81.8208 74.5451 81.2419 73.043 80.7322 71.1369C80.2225 69.2309 79.9744 67.6407 80.175 67.5865Z" fill="white"/>
</g>
<g opacity="0.3">
<path d="M89.9336 208.436C89.9896 208.048 87.9451 207.431 85.367 207.059C82.7889 206.687 80.6536 206.701 80.5975 207.089C80.5415 207.477 82.586 208.094 85.1641 208.465C87.7422 208.837 89.8775 208.824 89.9336 208.436Z" fill="white"/>
<path d="M86.2294 201.179C86.6171 201.235 86.5006 204.236 85.9786 207.881C85.4567 211.527 84.7111 214.437 84.3234 214.38C83.9356 214.324 84.0522 211.323 84.5728 207.678C85.0934 204.033 85.8404 201.123 86.2294 201.179Z" fill="white"/>
</g>
<g opacity="0.3">
<path d="M122.766 46.4986C122.71 46.8863 120.575 46.9053 117.997 46.527C115.418 46.1488 113.375 45.5388 113.431 45.151C113.486 44.7633 115.622 44.7443 118.2 45.1212C120.778 45.4981 122.821 46.1122 122.766 46.4986Z" fill="white"/>
<path d="M119.05 39.223C119.438 39.2799 119.321 42.28 118.801 45.9267C118.28 49.5734 117.533 52.4813 117.144 52.4258C116.755 52.3702 116.873 49.3687 117.394 45.7234C117.914 42.078 118.661 39.1674 119.05 39.223Z" fill="white"/>
</g>
<g opacity="0.3">
<path d="M132.748 158.054C132.486 158.653 129.058 157.737 125.088 156.008C121.119 154.28 118.111 152.394 118.371 151.796C118.631 151.198 122.061 152.115 126.031 153.843C130 155.572 133.008 157.456 132.748 158.054Z" fill="white"/>
<path d="M130.179 153.107C130.33 153.492 128.384 154.617 125.832 155.622C123.279 156.626 121.087 157.128 120.938 156.743C120.789 156.358 122.733 155.232 125.284 154.229C127.835 153.226 130.027 152.723 130.179 153.107Z" fill="white"/>
<path d="M123.738 150.305C123.355 150.455 123.856 152.647 124.861 155.199C125.865 157.75 126.991 159.697 127.374 159.546C127.758 159.396 127.256 157.204 126.253 154.651C125.25 152.098 124.123 150.153 123.738 150.305Z" fill="white"/>
<path d="M126.65 155.413C129.095 149.798 130.592 145.036 129.994 144.776C129.397 144.515 126.93 148.856 124.485 154.47C122.04 160.085 120.543 164.847 121.141 165.108C121.739 165.368 124.206 161.028 126.65 155.413Z" fill="white"/>
</g>
<g opacity="0.3">
<path d="M162.998 203.952C163.133 204.32 161.266 205.361 158.822 206.276C156.378 207.191 154.286 207.632 154.148 207.267C154.01 206.902 155.879 205.858 158.323 204.943C160.768 204.028 162.859 203.584 162.998 203.952Z" fill="white"/>
<path d="M159.81 202.885C160.038 202.988 159.666 204.293 158.982 205.796C158.297 207.299 157.558 208.437 157.332 208.334C157.106 208.231 157.477 206.928 158.16 205.423C158.844 203.918 159.584 202.782 159.81 202.885Z" fill="white"/>
<path d="M161.292 206.833C161.396 206.607 160.26 205.868 158.755 205.183C157.25 204.499 155.946 204.128 155.843 204.355C155.74 204.582 156.876 205.321 158.381 206.005C159.886 206.69 161.189 207.06 161.292 206.833Z" fill="white"/>
<path d="M160.927 211.852C161.295 211.714 160.543 208.8 159.248 205.344C157.953 201.887 156.605 199.197 156.237 199.335C155.869 199.473 156.62 202.387 157.915 205.843C159.21 209.3 160.559 211.99 160.927 211.852Z" fill="white"/>
</g>
<g opacity="0.3">
<path d="M49.914 99.3721C50.0428 98.8803 47.5025 97.7893 44.2403 96.9353C40.978 96.0813 38.2291 95.7876 38.1003 96.2794C37.9716 96.7712 40.5118 97.8622 43.774 98.7163C47.0363 99.5703 49.7853 99.8639 49.914 99.3721Z" fill="white"/>
<path d="M47.3461 95.8658C47.5087 96.1369 46.1463 97.2431 44.3026 98.3209C42.4589 99.3987 40.8321 100.049 40.6694 99.7715C40.5067 99.4936 41.8705 98.3941 43.7142 97.315C45.5579 96.2359 47.1834 95.5947 47.3461 95.8658Z" fill="white"/>
<path d="M45.9563 101.166C46.2341 101.003 45.585 99.3765 44.5063 97.5328C43.4276 95.6891 42.3279 94.3263 42.05 94.4888C41.7721 94.6514 42.4213 96.2778 43.5 98.1215C44.5787 99.9653 45.6784 101.328 45.9563 101.166Z" fill="white"/>
<path d="M46.1923 89.4643C46.6831 89.5998 46.1029 93.4377 44.895 98.0524C43.6871 102.667 42.3097 106.304 41.819 106.169C41.3282 106.033 41.9084 102.195 43.115 97.582C44.3215 92.9686 45.7002 89.3355 46.1923 89.4643Z" fill="white"/>
</g>
<path d="M157.868 311.935H147.242C147.675 310.242 150.69 309.557 151.839 309.031C153.33 308.354 153.362 307.365 153.705 307.223C154.048 307.081 157.197 307.963 157.197 307.963C157.913 308.931 157.942 311.095 157.868 311.935ZM168.973 311.935H179.599C179.167 310.242 176.152 309.557 175.002 309.031C173.511 308.354 173.48 307.365 173.137 307.223C172.794 307.081 169.645 307.963 169.645 307.963C168.922 308.931 168.892 311.095 168.973 311.935Z" fill="#4D477A"/>
<path d="M153.4 239.822C152.939 238.9 152.993 237.349 153.121 236.998C153.248 236.647 153.715 236.768 153.715 236.768C153.715 236.768 153.521 235.872 155.351 235.762C157.181 235.652 158.876 235.835 159.228 236.453C159.58 237.072 159.288 239.857 159.069 240.063C158.851 240.27 153.4 239.822 153.4 239.822Z" fill="#822646"/>
<path d="M158.891 239.857C159.038 239.688 159.256 239.616 159.413 239.761C159.57 239.906 159.213 241.599 158.771 241.599C158.329 241.599 158.891 239.857 158.891 239.857ZM153.722 239.857C153.577 239.688 153.359 239.616 153.202 239.761C153.044 239.906 153.406 241.602 153.843 241.602C154.279 241.602 153.722 239.857 153.722 239.857ZM156.587 248.483C156.433 248.507 156.277 248.513 156.122 248.5C156.087 248.498 156.053 248.493 156.02 248.483C154.742 248.313 152.966 247.227 153.887 246.801C154.617 246.468 154.765 245.778 154.811 244.903C154.827 244.524 154.819 244.113 154.834 243.671C155.322 243.645 155.812 243.653 156.299 243.694C156.387 243.7 156.473 243.718 156.555 243.748C156.657 243.787 156.789 244.155 156.905 244.663C157.199 245.971 157.385 248.25 156.587 248.483Z" fill="#5E2A1F"/>
<path d="M156.583 248.484C156.43 248.507 156.273 248.513 156.118 248.5C156.084 248.498 156.05 248.493 156.017 248.484C155.289 248.259 155.389 246.315 155.637 244.986C155.773 244.308 155.933 243.792 156.044 243.746C156.124 243.716 156.207 243.698 156.292 243.691C156.785 243.65 157.28 243.642 157.774 243.668C157.805 245.117 157.68 246.32 158.723 246.801C159.654 247.235 157.863 248.321 156.583 248.484Z" fill="#5E2A1F"/>
<path d="M157.777 243.668C157.607 244.089 157.298 244.439 156.902 244.661C156.516 244.879 156.08 244.991 155.637 244.986C155.358 244.999 155.078 244.971 154.807 244.901C154.823 244.521 154.815 244.11 154.83 243.668C155.319 243.642 155.808 243.65 156.296 243.691C156.788 243.65 157.283 243.642 157.777 243.668ZM158.862 240.244C158.893 240.192 159.09 239.973 159.162 240.069C159.233 240.165 159.026 241.213 158.832 241.193C158.638 241.173 158.862 240.244 158.862 240.244ZM153.744 240.244C153.713 240.192 153.518 239.973 153.445 240.069C153.371 240.165 153.58 241.213 153.775 241.193C153.971 241.173 153.744 240.244 153.744 240.244Z" fill="#E69283"/>
<path d="M158.959 240.598C158.959 242.826 157.584 244.459 156.306 244.459C155.097 244.459 153.651 242.832 153.651 240.598C153.651 238.364 153.451 236.561 156.306 236.561C159.25 236.561 158.959 238.368 158.959 240.598Z" fill="#5E2A1F"/>
<path d="M156.01 242.239C156.016 242.239 156.021 242.237 156.025 242.233C156.029 242.229 156.032 242.224 156.032 242.218C156.033 242.212 156.032 242.205 156.029 242.199C156.025 242.194 156.02 242.19 156.014 242.188C155.919 242.176 155.832 242.129 155.771 242.055C155.71 241.982 155.679 241.888 155.685 241.792C155.928 241.682 156.121 241.484 156.227 241.239C156.328 240.966 156.328 240.667 156.227 240.394C156.226 240.392 156.225 240.389 156.223 240.386C156.221 240.384 156.219 240.382 156.216 240.381C156.213 240.379 156.21 240.378 156.207 240.378C156.204 240.378 156.201 240.378 156.199 240.38C156.193 240.383 156.188 240.388 156.186 240.394C156.183 240.4 156.183 240.407 156.185 240.413C156.28 240.672 156.28 240.956 156.185 241.215C156.078 241.455 155.884 241.645 155.643 241.747H155.63V241.764C155.62 241.874 155.652 241.984 155.72 242.071C155.788 242.158 155.886 242.217 155.995 242.234L156.01 242.239ZM155.549 240.56C155.559 240.801 155.483 241 155.381 241.004C155.279 241.009 155.189 240.815 155.179 240.573C155.17 240.332 155.245 240.134 155.347 240.13C155.449 240.126 155.54 240.319 155.549 240.56ZM157.058 240.56C157.05 240.801 157.124 241 157.226 241.004C157.328 241.009 157.419 240.815 157.428 240.573C157.438 240.332 157.362 240.134 157.26 240.13C157.158 240.126 157.067 240.319 157.058 240.56ZM158.052 239.764C158.133 239.927 157.126 239.679 157.084 239.576C157.042 239.473 157.161 239.42 157.355 239.417C157.549 239.414 158.031 239.722 158.052 239.764ZM154.555 239.764C154.474 239.927 155.481 239.679 155.525 239.576C155.568 239.473 155.446 239.42 155.254 239.417C155.061 239.414 154.577 239.722 154.555 239.764Z" fill="#681B3D"/>
<path d="M156.864 243.107C156.864 243.271 156.645 243.404 156.374 243.404C156.102 243.404 155.883 243.268 155.883 243.108C155.883 242.948 156.102 242.812 156.374 242.812C156.645 242.812 156.864 242.943 156.864 243.107Z" fill="#FA6855"/>
<path d="M156.661 243.179C156.378 243.233 156.086 243.222 155.807 243.146C155.79 243.139 155.784 243.124 155.794 243.112C155.799 243.105 155.807 243.1 155.815 243.098C155.824 243.096 155.833 243.096 155.841 243.1C156.223 243.236 157.105 243.115 157.293 242.89C157.3 242.884 157.308 242.88 157.316 242.878C157.325 242.876 157.333 242.877 157.342 242.879C157.358 242.887 157.364 242.902 157.353 242.914C157.248 243.038 156.968 243.133 156.661 243.179Z" fill="#681B3D"/>
<path d="M158.246 241.235C158.272 241.371 158.126 241.506 157.918 241.544C157.711 241.582 157.521 241.517 157.495 241.388C157.47 241.259 157.616 241.117 157.823 241.081C158.031 241.044 158.219 241.108 158.246 241.235ZM154.366 241.235C154.339 241.371 154.487 241.506 154.695 241.544C154.902 241.582 155.09 241.517 155.116 241.388C155.142 241.259 154.996 241.117 154.789 241.081C154.583 241.044 154.392 241.108 154.366 241.235Z" fill="#FA7369"/>
<path d="M153.648 239.786C153.663 239.607 153.895 238.457 154.351 238.129C154.806 237.801 154.971 236.578 154.159 237.062C153.347 237.546 153.648 239.786 153.648 239.786ZM158.958 239.786C158.944 239.607 158.712 238.457 158.256 238.129C157.801 237.801 157.635 236.578 158.447 237.062C159.259 237.546 158.958 239.786 158.958 239.786Z" fill="#822646"/>
<path d="M154.034 238.111C155.139 238.677 158.341 238.33 158.396 238.092C158.45 237.855 159.372 237.107 158.278 236.737C157.184 236.367 155.973 235.879 155.024 236.33C154.075 236.781 153.701 237.461 153.765 237.744C153.78 237.821 153.813 237.894 153.859 237.957C153.906 238.021 153.966 238.073 154.034 238.111Z" fill="#822646"/>
<path d="M153.886 246.801C155.067 248.322 156.759 248.31 157.56 247.96C158.361 247.61 158.57 246.817 158.699 246.785C158.828 246.752 162.224 246.598 163.402 247.502C164.58 248.406 161.813 260.226 161.854 262.65C161.894 265.074 162.881 266.717 162.922 267.787C162.963 268.856 151.499 268.526 151.416 267.334C151.334 266.142 151.951 264.216 151.951 262.98C151.951 261.743 150.101 254.303 150.02 252.419C149.939 250.535 149.005 248.333 149.363 247.467C149.753 246.522 153.769 246.648 153.886 246.801Z" fill="#FA9185"/>
<path d="M174.718 307.36C174.718 307.36 172.574 308.062 170.93 308.062C169.286 308.062 168.625 307.749 168.625 307.749L157.855 274.051L158.104 307.912C158.104 307.912 156.304 308.375 154.818 308.375C153.88 308.368 152.945 308.263 152.029 308.062C152.029 308.062 150.402 288.486 151.201 271.188C151.24 270.147 151.293 269.106 151.36 268.09C151.372 267.827 151.399 267.563 151.411 267.3C151.411 267.3 159.827 265.996 162.43 267.388H162.443C162.623 267.473 162.784 267.592 162.917 267.739C163.207 268.052 163.641 269.056 164.192 270.536C167.525 279.683 174.718 307.36 174.718 307.36Z" fill="#732A3D"/>
<path d="M164.198 270.723C163.045 271.074 161.425 269.593 160.809 268.238C161.31 267.897 161.854 267.624 162.427 267.425H162.452C162.633 267.514 162.794 267.639 162.925 267.792C163.213 268.12 163.647 269.172 164.198 270.723ZM153.798 268.593C153.731 269.212 152.771 271.408 151.207 271.408C151.246 270.316 151.299 269.225 151.366 268.154C151.982 268.134 153.798 268.593 153.798 268.593Z" fill="#591929"/>
<path d="M152.814 266.328C158.508 267.19 162.152 265.403 162.337 265.485C162.521 265.566 163.002 267.605 162.94 267.789C162.878 267.974 159.532 268.874 155.876 268.895C152.252 268.916 151.35 268.601 151.33 268.478C151.31 268.355 151.33 266.759 151.601 266.58C151.872 266.401 152.814 266.328 152.814 266.328Z" fill="#591929"/>
<path d="M149.552 264.404C151.492 265.843 154.925 267.498 154.664 267.929C154.404 268.36 151.754 269.08 150.261 268.145C148.769 267.209 148.266 265.662 148.266 265.338C148.266 265.014 149.552 264.404 149.552 264.404Z" fill="#5E2A1F"/>
<path d="M158.969 266.246L155.586 266.488C155.396 266.502 155.253 266.666 155.267 266.856L155.411 268.868C155.425 269.058 155.589 269.201 155.779 269.187L159.162 268.945C159.352 268.931 159.495 268.766 159.481 268.576L159.337 266.564C159.323 266.375 159.159 266.232 158.969 266.246Z" fill="#914157"/>
<path d="M158.604 266.691L156.014 266.876C155.877 266.886 155.774 267.005 155.783 267.143L155.882 268.511C155.891 268.649 156.011 268.752 156.148 268.742L158.738 268.557C158.875 268.547 158.978 268.427 158.969 268.29L158.871 266.922C158.861 266.784 158.741 266.681 158.604 266.691Z" fill="#591929"/>
<path d="M149.587 247.208C146.726 249.166 142.086 255.72 142.086 258.391C142.086 261.062 147.712 265.938 148.064 265.896C148.417 265.854 150.13 264.623 150.086 264.369C150.041 264.116 146.042 258.56 146.042 258.305C146.042 258.051 151.097 252.54 151.185 252.285C151.273 252.03 149.587 247.208 149.587 247.208Z" fill="#FA9185"/>
<path d="M154.076 290.638C153.669 291.9 151.447 290.558 151.576 289.464C151.704 288.37 154.269 290.043 154.076 290.638ZM166.884 290.502C168.321 291.496 169.446 288.541 168.592 288.455C167.738 288.37 166.268 290.077 166.884 290.502Z" fill="#591929"/>
<path d="M171.484 244.68C171.648 242.707 173.155 239.749 173.789 239.969C174.423 240.188 175.898 241.421 175.652 242.626C175.405 243.831 173.296 245.227 173.296 245.858C173.296 246.488 171.484 244.68 171.484 244.68Z" fill="#5E2A1F"/>
<path d="M179.017 240.703C179.926 240.645 180.595 239.544 180.511 238.245C180.428 236.946 179.624 235.94 178.715 235.998C177.807 236.056 177.138 237.157 177.221 238.456C177.305 239.756 178.109 240.762 179.017 240.703Z" fill="#9893C7"/>
<path d="M179.971 238.269V238.572C179.989 239.996 176.666 239.978 173.87 239.71C172.813 239.609 171.837 239.467 171.137 239.363C170.491 239.262 170.088 239.188 170.088 239.188C170.072 239.094 170.062 238.999 170.057 238.904C169.965 237.766 170.358 237.107 170.358 237.107C170.569 237.145 170.783 237.168 170.998 237.177C171.905 237.204 172.811 237.101 173.689 236.874L173.952 236.8C176.189 236.19 178.991 233.547 178.991 233.547C178.991 233.547 179.877 235.842 179.971 238.269Z" fill="#4D477A"/>
<path d="M179.608 243.08C179.608 243.08 176.49 240.81 174.195 240.492C174.1 240.48 174.012 240.466 173.924 240.452C173.022 240.339 172.11 240.354 171.212 240.496C171.004 240.534 170.799 240.585 170.598 240.65C170.598 240.65 170.144 240.07 170.075 238.98V238.907C170.069 238.812 170.069 238.716 170.075 238.621C170.075 238.621 170.464 238.496 171.093 238.313C171.771 238.121 172.72 237.854 173.76 237.619C176.499 236.995 179.792 236.555 179.958 237.967C179.97 238.066 179.982 238.171 179.989 238.271V238.315C180.184 240.717 179.608 243.08 179.608 243.08Z" fill="#4D477A"/>
<path d="M171.492 240.389C173.223 242.386 174.021 244.064 174.021 244.064C174.021 244.064 174.105 241.144 173.455 240.252C172.806 239.36 171.492 240.389 171.492 240.389Z" fill="#383266"/>
<path d="M173.69 236.835L173.924 240.496C173.023 240.378 172.11 240.391 171.213 240.536L170.996 237.147C171.904 237.174 172.812 237.069 173.69 236.835Z" fill="#9893C7"/>
<path d="M171.531 244.612C171.655 241.755 173.421 240.851 173.627 241.037C173.833 241.223 173.277 243.584 172.703 244.282C172.128 244.981 171.531 244.612 171.531 244.612Z" fill="#5E2A1F"/>
<path d="M163.401 247.502C165.263 248.598 168.715 253.816 168.715 253.816C168.715 253.816 171.098 244.529 171.386 244.529C171.673 244.529 173.399 245.393 173.564 245.844C173.73 246.296 173.564 257.761 170.728 258.747C167.892 259.734 161.195 251.638 161.238 251.268C161.282 250.898 163.401 247.502 163.401 247.502Z" fill="#FA9185"/>
<path d="M66.1807 311.935H75.7788C75.387 310.353 72.6608 309.714 71.6264 309.224C70.2789 308.586 70.2518 307.668 69.9413 307.535C69.6309 307.402 66.7867 308.228 66.7867 308.228C66.1401 309.129 66.1129 311.145 66.1807 311.935ZM54.602 311.935H45.0039C45.3943 310.353 48.1219 309.714 49.1563 309.224C50.5038 308.586 50.5309 307.668 50.8414 307.535C51.1518 307.402 53.996 308.228 53.996 308.228C54.6427 309.129 54.6698 311.145 54.602 311.935Z" fill="#4D477A"/>
<path d="M62.7903 244.239C62.8595 243.061 60.7812 241.236 60.7812 239.765C60.7812 238.294 61.9593 237.942 61.9593 237.942C61.9593 237.942 61.6055 236.215 63.1455 235.526C64.7805 234.797 66.9238 236.232 66.9238 236.232C66.9238 236.232 68.678 235.979 69.0481 237.086C69.4182 238.194 68.2862 239.281 67.5704 239.235C66.8546 239.189 62.7903 244.239 62.7903 244.239Z" fill="#681B3D"/>
<path d="M65.4985 247.213C65.7195 247.657 60.9611 246.475 61.6552 246.297C62.3493 246.119 62.9566 243.549 62.9702 242.824C63.51 242.894 64.0406 243.023 64.5522 243.209C65.1433 243.46 65.6368 243.83 65.4537 244.376C65.4537 244.391 65.4388 244.421 65.4388 244.436C65.3287 244.79 65.264 245.157 65.2463 245.528C65.188 246.297 65.3358 246.918 65.4985 247.213Z" fill="#5E2A1F"/>
<path d="M65.4374 244.436C65.3273 244.79 65.2626 245.158 65.2449 245.528C64.2851 245.177 63.6073 243.213 63.6073 243.213C63.6073 243.213 63.103 243.254 62.9688 242.824C62.9688 242.824 63.088 242.263 63.5015 242.263C63.6493 242.263 64.0926 242.678 64.5508 243.212C64.8742 243.599 65.1705 244.008 65.4374 244.436Z" fill="#E69283"/>
<path d="M68.0629 241.656C68.0778 241.848 68.0778 242.041 68.0629 242.233C68.0331 243.474 67.7389 244.583 66.7777 244.909C64.8717 245.558 63.2164 242.75 63.1418 241.331C63.0673 239.912 66.4375 238.228 66.8021 238.435C67.1668 238.643 67.7037 238.909 67.7037 238.909C67.902 239.813 68.0222 240.732 68.0629 241.656Z" fill="#5E2A1F"/>
<path d="M67.1089 242.562C67.1041 242.562 67.0993 242.561 67.0955 242.558C67.0918 242.555 67.0893 242.55 67.0886 242.546C67.0875 242.543 67.087 242.54 67.087 242.537C67.0871 242.535 67.0877 242.532 67.0888 242.529C67.09 242.527 67.0916 242.524 67.0937 242.523C67.0957 242.521 67.0982 242.519 67.1008 242.518C67.1799 242.5 67.249 242.452 67.2942 242.385C67.3395 242.317 67.3576 242.235 67.3448 242.155C67.127 242.085 66.9439 241.935 66.8324 241.735C66.7229 241.514 66.6959 241.261 66.7565 241.022C66.7569 241.019 66.7579 241.017 66.7594 241.015C66.7608 241.013 66.7626 241.011 66.7648 241.009C66.767 241.008 66.7694 241.007 66.7719 241.007C66.7744 241.006 66.777 241.006 66.7795 241.007C66.7846 241.009 66.7888 241.013 66.7915 241.018C66.7942 241.023 66.7952 241.028 66.7944 241.034C66.736 241.261 66.7605 241.501 66.8636 241.712C66.9739 241.905 67.1522 242.05 67.3638 242.118H67.376V242.132C67.3942 242.225 67.3762 242.321 67.3258 242.401C67.2754 242.481 67.1964 242.538 67.1049 242.562H67.1089ZM67.2513 241.201C67.2648 241.414 67.3489 241.58 67.4384 241.575C67.5278 241.569 67.5888 241.392 67.5739 241.18C67.559 240.969 67.4763 240.801 67.3868 240.806C67.2974 240.812 67.2364 240.989 67.2513 241.201ZM65.6706 241.377C65.6841 241.59 65.7682 241.757 65.8577 241.751C65.9471 241.746 66.0095 241.568 65.9932 241.357C65.977 241.145 65.8956 240.977 65.8061 240.982C65.7167 240.988 65.653 241.165 65.6706 241.377ZM65.108 240.65C65.0537 240.798 65.897 240.494 65.9214 240.402C65.9458 240.31 65.8414 240.276 65.6733 240.291C65.5052 240.306 65.1283 240.618 65.108 240.65ZM67.7705 240.379C67.8546 240.515 66.9666 240.389 66.9205 240.302C66.8744 240.215 66.9734 240.166 67.1401 240.143C67.3069 240.12 67.7488 240.341 67.7705 240.379Z" fill="#681B3D"/>
<path d="M66.4173 243.525C66.4485 243.695 66.6884 243.796 66.9392 243.751C67.19 243.706 67.3825 243.529 67.3459 243.358C67.3093 243.187 67.0816 243.087 66.824 243.133C66.5664 243.179 66.3875 243.354 66.4173 243.525Z" fill="#FA6855"/>
<path d="M66.6211 243.566C66.9033 243.574 67.1828 243.511 67.4345 243.383C67.4374 243.381 67.4397 243.378 67.4412 243.375C67.4428 243.372 67.4436 243.368 67.4436 243.364C67.4436 243.361 67.4428 243.357 67.4412 243.354C67.4397 243.351 67.4374 243.348 67.4345 243.345C67.4273 243.341 67.4188 243.338 67.4101 243.338C67.4014 243.338 67.3929 243.341 67.3857 243.345C67.0495 243.56 66.186 243.579 65.965 243.377C65.9576 243.372 65.9492 243.37 65.9406 243.37C65.932 243.37 65.9236 243.372 65.9162 243.377C65.9131 243.379 65.9106 243.382 65.9089 243.385C65.9072 243.389 65.9063 243.392 65.9062 243.396C65.9062 243.4 65.9072 243.404 65.9089 243.407C65.9106 243.411 65.9131 243.414 65.9162 243.416C66.0368 243.519 66.3215 243.57 66.6211 243.566Z" fill="#681B3D"/>
<path d="M64.9228 242.205C64.9066 242.364 65.1018 242.513 65.358 242.539C65.6142 242.565 65.8338 242.456 65.8501 242.297C65.8664 242.139 65.6711 241.99 65.4149 241.964C65.1587 241.938 64.9377 242.047 64.9228 242.205ZM68.0639 241.656C68.0788 241.848 68.0788 242.041 68.0639 242.232C67.828 242.204 67.6355 242.056 67.6572 241.908C67.6789 241.761 67.8375 241.671 68.0639 241.656Z" fill="#FA7369"/>
<path d="M63.218 241.223C62.8519 240.979 62.2961 241.118 62.3653 241.765C62.4344 242.411 63.2695 243.451 63.7914 242.895C64.3133 242.34 63.218 241.223 63.218 241.223ZM70.5738 252.944C71.1744 254.421 71.4509 257.515 72.3362 259.086C73.2214 260.657 75.7253 262.611 75.7253 263.258C75.7253 263.904 74.3697 264.704 72.6154 264.243C70.8612 263.782 68.3898 258.754 67.8706 257.439C66.5258 254.021 70.5738 252.944 70.5738 252.944Z" fill="#5E2A1F"/>
<path d="M68.125 248.187C69.3709 249.18 71.0803 253.705 71.0573 253.867C71.0343 254.028 68.5629 255.53 68.4246 255.252C68.2863 254.974 68.125 248.187 68.125 248.187Z" fill="#EB9086"/>
<path d="M70.8711 308.054C70.8711 308.054 70.2651 308.557 68.5949 308.986C67.6254 309.221 66.6359 309.364 65.6396 309.414C65.6396 309.414 63.4976 296.587 62.2992 286.892C61.841 283.138 61.5156 279.858 61.5156 277.967C61.5156 271.198 64.6486 268.73 65.0403 268.73C65.3942 268.73 68.4539 270.311 68.4539 270.311C69.7337 276.681 70.8711 308.054 70.8711 308.054Z" fill="#6E2F3F"/>
<path d="M64.7529 273.386C64.0575 276.489 63.156 284.883 62.2992 286.892C61.841 283.138 61.5156 279.858 61.5156 277.967C62.9933 275.705 64.7529 273.386 64.7529 273.386Z" fill="#2775B3"/>
<path d="M66.4385 269.203C66.4385 270.386 64.2965 274.095 62.0787 281.188C60.0696 287.588 54.8679 308.927 54.8679 308.927C54.8679 308.927 53.9962 308.97 52.1932 308.656C50.3901 308.341 49.4141 307.814 49.4141 307.814C49.4141 307.814 52.8141 282.913 56.0351 271.519C56.6709 269.243 57.3054 267.499 57.9114 266.613C57.9368 266.614 57.9619 266.619 57.9859 266.628H58.0008C58.9457 266.794 66.4385 268.109 66.4385 269.203Z" fill="#6E2F3F"/>
<path d="M59.8661 268.508C59.6885 269.864 57.6645 271.951 56.0391 271.523C56.6749 269.247 57.3093 267.503 57.9153 266.617C57.9408 266.618 57.9659 266.623 57.9899 266.632H58.0048C58.9361 267.208 59.8661 268.508 59.8661 268.508Z" fill="#2775B3"/>
<path d="M68.2896 248.42C69.0786 249.765 69.7809 253.029 69.6114 253.637C69.442 254.244 67.6294 253.532 67.5074 253.306C67.3854 253.079 68.2896 248.42 68.2896 248.42Z" fill="#DB7467"/>
<path d="M69.0867 270.814C68.5851 271.33 63.176 270.473 60.1312 269.129C57.0864 267.784 56.9102 267.12 56.9102 266.897C56.9102 266.72 57.2653 259.922 57.2504 256.006C57.2504 254.721 57.1908 253.745 57.0877 253.421C57.0512 253.31 57.0262 253.196 57.0132 253.08C56.7421 251.336 57.546 246.474 57.546 246.474C60.1759 245.41 66.6045 247.035 68.1269 248.203C69.6493 249.37 69.6032 270.296 69.0867 270.814Z" fill="#EB9086"/>
<path d="M57.5167 253.344C56.7467 255.776 55.1457 258.885 55.1457 258.885C55.1457 258.885 63.7352 262.275 64.1974 262.275C64.6597 262.275 64.6285 261.967 66.1374 261.383C67.6462 260.798 68.3227 260.859 68.3851 261.074C68.4474 261.288 67.5229 261.906 67.5229 261.906C67.5229 261.906 71.0937 261.875 71.4638 262.459C71.8339 263.043 68.4813 264.122 64.2286 264.154C59.9759 264.185 52.7746 263.137 51.7904 261.074C50.8062 259.01 52.1591 254.424 52.7136 253.075C53.2681 251.726 57.5167 253.344 57.5167 253.344ZM73.218 264.396C73.6329 265.277 76.7428 263.727 76.7888 263.103C76.8349 262.479 76.0975 261.533 75.6582 261.694C75.219 261.856 73.0337 264.004 73.218 264.396Z" fill="#5E2A1F"/>
<path d="M63.1555 241.193C63.7113 240.317 64.6209 239.653 65.4126 239.531C66.2043 239.409 67.5505 239.349 67.8528 239.183C68.1551 239.018 68.5225 238.079 67.0394 238.079C65.5563 238.079 63.9363 238.253 63.3276 239.299C62.7189 240.344 63.1555 241.193 63.1555 241.193Z" fill="#681B3D"/>
<path d="M57.249 256.006C57.249 254.721 57.1893 253.745 57.0863 253.421C57.0498 253.31 57.0248 253.196 57.0117 253.081C57.7506 250.346 58.8744 247.081 58.8744 247.081C60.3521 247.731 59.9494 253.059 57.249 256.006Z" fill="#DB7467"/>
<path d="M57.5488 246.48C54.6612 246.948 52.0299 253.801 52.099 253.914C52.1681 254.028 56.3707 255.415 56.9943 255.254C57.6179 255.093 61.6808 245.809 57.5488 246.48Z" fill="#EB9086"/>
<path d="M67.5967 292.13C68.4006 293.071 69.8688 291.785 69.6885 291.241C69.5082 290.697 66.8782 291.291 67.5967 292.13ZM52.7454 290.508C52.9677 291.77 55.412 291.806 55.5137 291.234C55.6154 290.662 52.4892 289.054 52.7454 290.508Z" fill="#2775B3"/>
<path d="M63.3596 242.367C63.3596 242.367 63.0885 241.579 62.9434 241.563C62.7984 241.546 62.7767 241.834 62.9041 242.041C63.1075 242.377 63.3596 242.367 63.3596 242.367Z" fill="#E69283"/>
<path d="M212.128 237.218C214.162 235.872 216.351 236.811 216.97 239.294C217.59 241.776 217.29 245.631 219.884 249.088C222.178 252.147 223.16 254.405 221.521 256.189C220.041 257.801 217.407 256.662 217.407 256.662C217.407 256.662 216.096 259.576 213.729 258.301C211.362 257.027 209.943 250.108 211.831 247.377C213.72 244.647 215.472 241.574 214.38 239.379C213.515 237.64 212.704 238.314 212.449 238.168C212.194 238.023 212.128 237.218 212.128 237.218Z" fill="#681B3D"/>
<path d="M210.806 237.136C211.225 236.953 211.698 236.938 212.128 237.094C212.647 237.286 213.136 238.043 213.182 238.365C213.258 238.915 213.237 239.785 212.911 239.758C212.586 239.731 210.316 239.32 210.316 238.693C210.316 238.065 210.806 237.136 210.806 237.136Z" fill="#F5B6AE"/>
<path d="M210.158 244.765C211.391 244.641 212.995 243.379 213.295 241.533C213.566 239.86 213.055 238.937 212.481 238.55C212.31 238.439 212.116 238.366 211.914 238.338C211.711 238.31 211.505 238.326 211.31 238.386C211.361 237.997 211.265 237.603 211.041 237.28C210.818 236.957 210.482 236.729 210.099 236.64C208.68 236.234 207.997 237.16 207.997 237.16C207.997 237.16 206.621 236.433 205.921 237.488C205.108 238.719 206.057 239.781 206.823 239.781C207.589 239.781 210.158 244.765 210.158 244.765Z" fill="#681B3D"/>
<path d="M211.418 247.526C210.899 247.201 210.22 245.114 210.198 243.846V243.827C210.096 243.74 209.986 243.662 209.871 243.593H209.853C209.784 243.55 209.731 243.526 209.692 243.541C209.543 243.564 208.187 243.726 208.004 244.663C207.964 244.872 207.975 245.087 208.036 245.291C208.128 245.617 208.17 245.956 208.159 246.295C208.159 246.295 208.159 246.313 208.178 246.295C208.187 247.343 207.794 248.169 207.512 248.434C207.145 248.803 211.945 247.853 211.418 247.526Z" fill="#5E2A1F"/>
<path d="M208.004 244.662C207.964 244.87 207.975 245.086 208.035 245.289C208.128 245.616 208.17 245.955 208.159 246.294C208.159 246.294 208.159 246.312 208.178 246.294C209.296 246.126 210.095 243.945 210.095 243.945C210.136 243.919 210.17 243.885 210.196 243.844V243.825C210.221 243.803 210.237 243.772 210.241 243.739C210.241 243.739 210.501 243.709 210.377 243.53C210.328 243.47 210.142 243.489 209.875 243.592H209.857C209.355 243.766 208.872 243.99 208.415 244.26C208.254 244.367 208.114 244.503 208.004 244.662Z" fill="#E69283"/>
<path d="M205.833 242.616C205.689 243.925 205.833 245.114 206.425 245.428C207.595 246.056 210.029 245.39 210.663 242.238C211.383 238.781 206.913 239.23 206.913 239.23C206.446 239.883 206.082 240.992 205.921 242.092C205.882 242.265 205.853 242.44 205.833 242.616Z" fill="#5E2A1F"/>
<path d="M206.554 243.1C206.559 243.101 206.564 243.101 206.568 243.099C206.572 243.096 206.576 243.093 206.577 243.088C206.58 243.083 206.58 243.077 206.579 243.072C206.577 243.066 206.574 243.061 206.569 243.058C206.495 243.028 206.435 242.971 206.401 242.899C206.368 242.826 206.363 242.744 206.389 242.668C206.611 242.634 206.813 242.517 206.953 242.341C207.092 242.144 207.158 241.904 207.139 241.663C207.138 241.658 207.135 241.653 207.132 241.65C207.128 241.647 207.123 241.644 207.118 241.644C207.113 241.646 207.108 241.649 207.104 241.654C207.101 241.658 207.099 241.664 207.099 241.67C207.12 241.899 207.058 242.128 206.926 242.317C206.79 242.485 206.597 242.596 206.383 242.63H206.371V242.643C206.339 242.73 206.341 242.826 206.376 242.911C206.412 242.996 206.479 243.064 206.564 243.102L206.554 243.1ZM206.63 241.757C206.583 241.96 206.476 242.109 206.389 242.09C206.302 242.071 206.271 241.888 206.317 241.684C206.363 241.479 206.472 241.331 206.558 241.35C206.645 241.369 206.676 241.552 206.63 241.757ZM208.14 242.176C208.094 242.379 207.987 242.528 207.9 242.509C207.814 242.49 207.782 242.308 207.829 242.102C207.875 241.896 207.983 241.75 208.07 241.769C208.157 241.788 208.188 241.972 208.14 242.176ZM208.796 241.562C208.826 241.713 208.055 241.29 208.043 241.193C208.031 241.095 208.14 241.083 208.3 241.124C208.46 241.164 208.788 241.524 208.796 241.562ZM206.251 240.871C206.148 240.988 207.03 241.007 207.087 240.931C207.144 240.855 207.059 240.786 206.899 240.741C206.739 240.697 206.28 240.843 206.251 240.871Z" fill="#681B3D"/>
<path d="M207.079 244.144C207.022 244.304 206.78 244.366 206.537 244.279C206.294 244.193 206.143 243.995 206.199 243.833C206.256 243.672 206.499 243.611 206.742 243.698C206.984 243.784 207.135 243.982 207.079 244.144Z" fill="#FA6855"/>
<path d="M206.874 244.152C206.601 244.114 206.342 244.01 206.118 243.849C206.116 243.846 206.113 243.843 206.112 243.84C206.11 243.837 206.109 243.833 206.109 243.83C206.109 243.826 206.11 243.822 206.112 243.819C206.113 243.816 206.116 243.813 206.118 243.811C206.125 243.805 206.134 243.802 206.142 243.802C206.151 243.802 206.159 243.805 206.166 243.811C206.46 244.072 207.295 244.225 207.542 244.064C207.549 244.06 207.557 244.058 207.566 244.058C207.574 244.058 207.582 244.06 207.589 244.064C207.592 244.066 207.595 244.069 207.597 244.072C207.598 244.076 207.599 244.079 207.599 244.083C207.599 244.087 207.598 244.09 207.597 244.094C207.595 244.097 207.592 244.1 207.589 244.102C207.451 244.198 207.165 244.202 206.874 244.152Z" fill="#681B3D"/>
<path d="M208.733 243.09C208.724 243.246 208.511 243.362 208.259 243.345C208.007 243.329 207.809 243.191 207.818 243.033C207.828 242.876 208.04 242.762 208.293 242.779C208.545 242.795 208.743 242.94 208.733 243.09ZM205.832 242.616C206.016 242.616 206.174 242.502 206.186 242.375C206.198 242.247 206.08 242.144 205.915 242.091C205.878 242.265 205.85 242.44 205.832 242.616Z" fill="#FA7369"/>
<path d="M210.634 242.025C210.948 241.89 211.583 242.195 211.4 242.94C211.217 243.686 210.27 244.041 210.066 243.777C209.861 243.513 210.634 242.025 210.634 242.025Z" fill="#5E2A1F"/>
<path d="M210.484 243.183C210.484 243.183 210.766 242.497 210.845 242.505C210.924 242.513 211.005 242.715 210.869 242.925C210.829 242.995 210.774 243.054 210.707 243.099C210.64 243.144 210.564 243.172 210.484 243.183Z" fill="#E69283"/>
<path d="M211.417 247.526C210.669 250.791 207.939 253.658 207.282 252.542C206.626 251.427 205.672 248.882 206.846 248.447C208.02 248.012 211.417 247.526 211.417 247.526ZM205.753 248.969C203.933 249.952 201.248 258.269 201.029 258.164C200.809 258.06 196.826 251.25 196.723 250.724C196.62 250.198 195.157 248.513 193.993 248.723C192.828 248.934 192.864 249.777 193.044 249.987C193.224 250.197 195.201 250.97 195.456 251.741C195.71 252.513 198.105 261.673 201.2 261.286C204.295 260.9 206.706 254.4 206.706 253.874C206.706 253.348 205.753 248.969 205.753 248.969Z" fill="#5E2A1F"/>
<path d="M193.011 250.205C193.015 250.224 193.023 250.241 193.035 250.255C193.047 250.269 193.063 250.28 193.08 250.287C193.098 250.294 193.117 250.296 193.135 250.294C193.154 250.291 193.171 250.284 193.186 250.273L194.698 249.065C194.72 249.045 194.736 249.019 194.744 248.99C194.752 248.961 194.751 248.931 194.741 248.902L193.303 244.311C193.297 244.287 193.283 244.265 193.264 244.248C193.246 244.232 193.222 244.221 193.197 244.219L191.207 244.097C191.15 244.097 191.111 244.159 191.13 244.221L193.011 250.205Z" fill="#4D477A"/>
<path d="M191.36 244.04C191.287 244.044 191.218 244.071 191.162 244.117C191.157 244.146 191.162 244.175 191.176 244.201C191.19 244.227 191.211 244.248 191.238 244.261C191.292 244.267 191.36 244.04 191.36 244.04ZM193.339 250.211C193.203 250.309 193.129 250.303 193.103 250.292C193.077 250.281 193.118 250.114 193.194 250.114C193.27 250.114 193.339 250.211 193.339 250.211Z" fill="#4D477A"/>
<path d="M191.281 244.105V244.191L191.718 245.538L192.137 246.884L192.557 248.229V248.246L193.168 250.152C193.173 250.172 193.184 250.189 193.2 250.202C193.215 250.214 193.235 250.221 193.255 250.221C193.273 250.239 193.308 250.221 193.343 250.204L193.553 250.029H193.571L194.847 248.999C194.872 248.982 194.89 248.956 194.896 248.927C194.902 248.897 194.897 248.867 194.881 248.841L194.203 246.672L193.45 244.26C193.433 244.208 193.399 244.156 193.346 244.156L192.668 244.121L192.004 244.068L191.357 244.033C191.34 244.033 191.34 244.033 191.322 244.05C191.304 244.068 191.281 244.087 191.281 244.105Z" fill="#4D477A"/>
<path d="M193.211 249.831C193.235 249.907 193.311 249.939 193.364 249.896L194.699 248.896C194.719 248.877 194.733 248.854 194.739 248.828C194.745 248.802 194.744 248.774 194.734 248.749L193.343 244.438C193.338 244.416 193.326 244.396 193.31 244.381C193.293 244.365 193.272 244.355 193.25 244.351L191.558 244.258C191.509 244.258 191.475 244.313 191.493 244.37L193.211 249.831Z" fill="#676299"/>
<path d="M196.724 250.724C196.441 249.535 194.627 247.913 194.322 247.993C193.972 248.085 194.508 249.144 195.084 249.679C195.66 250.215 196.724 250.724 196.724 250.724ZM198.545 285.5C199.638 291.999 207.357 305.69 207.029 306.837C206.701 307.983 203.297 309.586 203.297 309.804C203.297 310.022 205.919 309.804 208.042 309.422C210.165 309.039 210.888 308.608 210.337 307.402C209.785 306.195 209.458 306.182 209.408 304.998C209.352 303.706 207.132 288.504 203.308 286.374C199.483 284.244 198.545 285.5 198.545 285.5ZM206.117 286.831C210.215 291.993 223.762 300.504 224.03 301.667C224.299 302.831 223.16 305.844 223.264 306.037C223.369 306.229 224.977 305.017 226.396 303.19C227.727 301.483 228.089 301.084 227.029 300.297C225.969 299.509 225.553 299.529 224.867 298.566C223.884 297.181 215.091 285.3 210.715 285.28C206.339 285.26 206.117 286.831 206.117 286.831Z" fill="#5E2A1F"/>
<path d="M210.71 242.006C210.38 241.238 209.761 240.38 208.805 240.161C207.849 239.943 206.605 239.812 206.488 239.71C206.371 239.608 206.27 239.044 207.201 238.976C208.132 238.909 210.375 238.476 210.929 239.456C211.484 240.437 210.71 242.006 210.71 242.006Z" fill="#681B3D"/>
<path d="M211.444 247.51C211.425 247.51 211.421 247.52 211.416 247.539C211.145 249.079 207.92 251.839 207.854 251.633C207.535 250.635 207.762 248.208 207.701 248.173C207.603 248.116 206.003 248.65 205.757 248.969C205.51 249.288 204.301 252.511 204.519 254.805C204.737 257.099 206.704 260.958 206.668 262.269C206.631 263.58 200.404 275.943 198.711 279.93C197.018 283.917 197.4 285.718 197.4 285.718C197.4 285.718 198.439 286.865 206.303 288.012C214.167 289.159 220.013 286.156 220.013 286.156C220.013 286.156 215.946 279.054 215.588 272.392C215.206 265.128 212.803 262.452 212.803 262.452C212.803 262.452 214.933 253.494 214.933 252.621C214.933 251.748 215.261 248.579 214.551 248.061C213.88 247.564 211.685 247.514 211.444 247.51Z" fill="#EB9086"/>
<path d="M213.805 247.997C216.467 247.364 219.467 257.699 219.74 260.103C220.012 262.506 217.914 270.61 217.914 271.372C217.914 272.134 217.95 274.219 217.622 275.304C217.294 276.388 216.311 277.961 215.693 277.744C215.075 277.527 215.911 273.848 215.911 273.848C215.911 273.848 215.292 275.014 215.11 274.904C214.928 274.794 215.11 273.083 215.693 272.057C216.276 271.031 216.421 270.892 216.458 270.601C216.494 270.31 216.166 266.67 216.348 264.374C216.504 262.411 216.89 261.243 216.857 260.37C216.825 259.497 209.818 248.943 213.805 247.997Z" fill="#5E2A1F"/>
<path d="M200.914 311.935H211.331C211.925 310.921 211.227 308.474 210.335 307.409C210.335 307.409 209.985 308.649 207.609 309.05C205.722 309.383 205.144 309.05 204.114 309.243C203.151 309.4 200.879 310.624 200.914 311.935ZM223.326 309.761L230.17 301.907C229.796 300.793 227.491 299.713 226.103 299.684C226.103 299.684 226.809 300.769 225.551 302.82C224.561 304.461 223.932 304.677 223.4 305.581C222.886 306.41 222.315 308.926 223.326 309.761Z" fill="#6E2F3F"/>
<path opacity="0.1" d="M192.558 248.229V248.246L193.169 250.152C193.174 250.172 193.185 250.189 193.201 250.202C193.216 250.214 193.236 250.221 193.256 250.221C193.274 250.239 193.309 250.221 193.344 250.204L193.554 250.029H193.572L193.588 249.96L193.623 249.697L194.148 246.97V246.919L194.201 246.674L193.449 244.262C193.431 244.209 193.397 244.157 193.344 244.157L193.309 244.315V244.366L192.609 247.949L192.558 248.229ZM191.719 245.538L192.138 246.884L192.191 246.603L192.627 244.315L192.645 244.191L192.662 244.122L191.998 244.069L191.98 244.157L191.963 244.279L191.772 245.258L191.719 245.538Z" fill="white"/>
<path d="M139.063 313.178H0.711723C0.522963 313.178 0.341933 313.103 0.208459 312.97C0.0749849 312.836 0 312.655 0 312.467C0 312.278 0.0749849 312.097 0.208459 311.963C0.341933 311.83 0.522963 311.755 0.711723 311.755H139.063C139.251 311.755 139.432 311.83 139.566 311.963C139.699 312.097 139.774 312.278 139.774 312.467C139.774 312.655 139.699 312.836 139.566 312.97C139.432 313.103 139.251 313.178 139.063 313.178ZM192.493 313.178H143.734C143.545 313.178 143.364 313.103 143.231 312.97C143.097 312.836 143.022 312.655 143.022 312.467C143.022 312.278 143.097 312.097 143.231 311.963C143.364 311.83 143.545 311.755 143.734 311.755H192.493C192.682 311.755 192.863 311.83 192.997 311.963C193.13 312.097 193.205 312.278 193.205 312.467C193.205 312.655 193.13 312.836 192.997 312.97C192.863 313.103 192.682 313.178 192.493 313.178ZM216.555 313.178H197.479C197.291 313.178 197.11 313.103 196.976 312.97C196.843 312.836 196.768 312.655 196.768 312.467C196.768 312.278 196.843 312.097 196.976 311.963C197.11 311.83 197.291 311.755 197.479 311.755H216.555C216.744 311.755 216.925 311.83 217.058 311.963C217.192 312.097 217.267 312.278 217.267 312.467C217.267 312.655 217.192 312.836 217.058 312.97C216.925 313.103 216.744 313.178 216.555 313.178Z" fill="#82374B"/>
<path d="M19.8985 278.88C18.8845 277.253 15.0331 277.825 14.8704 281.312C14.7077 284.799 14.141 286.016 11.6276 289.786C9.11423 293.557 9.80291 298.827 16.1271 300.003C22.4513 301.178 26.8707 299.516 28.2088 297.408C29.5468 295.3 30.6828 292.016 26.3854 288.57C22.0879 285.124 24.2163 281.178 22.2086 279.326C20.9695 278.186 19.8985 278.88 19.8985 278.88Z" fill="#822A2A"/>
<path d="M21.1673 283.225C21.3029 283.075 21.49 283.01 21.631 283.14C21.7719 283.27 21.4466 284.777 21.0589 284.777C20.6712 284.777 21.1673 283.225 21.1673 283.225ZM16.5676 283.225C16.4388 283.075 16.2449 283.01 16.1039 283.14C15.9629 283.27 16.2869 284.777 16.676 284.777C17.0651 284.777 16.5676 283.225 16.5676 283.225ZM19.1162 290.899C18.9794 290.92 18.8406 290.925 18.7027 290.913C18.6725 290.912 18.6425 290.907 18.6133 290.899C17.4745 290.748 15.9019 289.781 16.7153 289.408C17.3647 289.111 17.4948 288.499 17.5369 287.719C17.5504 287.38 17.5369 287.014 17.5572 286.621C17.9919 286.599 18.4276 286.606 18.8613 286.643C18.9391 286.648 19.0158 286.664 19.0891 286.69C19.1786 286.725 19.2952 287.049 19.3995 287.504C19.6612 288.664 19.8266 290.692 19.1162 290.899Z" fill="#5E2A1F"/>
<path d="M19.119 290.899C18.9822 290.92 18.8434 290.925 18.7055 290.913C18.6753 290.912 18.6453 290.907 18.6161 290.899C17.9667 290.699 18.0562 288.968 18.2771 287.788C18.3951 287.188 18.5401 286.725 18.6432 286.683C18.7143 286.657 18.7887 286.641 18.8641 286.636C19.3024 286.599 19.7426 286.592 20.1818 286.614C20.209 287.905 20.0991 288.974 21.0237 289.401C21.8507 289.788 20.2564 290.754 19.119 290.899Z" fill="#5E2A1F"/>
<path d="M20.1804 286.614C20.0286 286.989 19.7537 287.301 19.4009 287.498C19.0582 287.693 18.6699 287.793 18.2757 287.788C18.0275 287.799 17.7791 287.773 17.5383 287.712C17.5518 287.373 17.5382 287.007 17.5586 286.614C17.9933 286.592 18.429 286.599 18.8627 286.636C19.301 286.599 19.7412 286.592 20.1804 286.614ZM21.1579 283.617C21.2229 283.508 21.4466 283.389 21.4737 283.438C21.5009 283.487 21.2717 284.424 21.1362 284.243C21.0752 284.167 21.1579 283.617 21.1579 283.617ZM16.5798 283.617C16.5147 283.508 16.291 283.389 16.2639 283.438C16.2368 283.487 16.4659 284.424 16.6015 284.243C16.6625 284.167 16.5798 283.617 16.5798 283.617Z" fill="#E69283"/>
<path d="M21.231 283.883C21.231 285.866 20.0109 287.318 18.8708 287.318C17.7944 287.318 16.5106 285.866 16.5106 283.883C16.5106 281.899 16.3303 280.293 18.8708 280.293C21.49 280.293 21.231 281.901 21.231 283.883Z" fill="#5E2A1F"/>
<path d="M18.6052 285.344C18.6102 285.344 18.6151 285.342 18.6186 285.338C18.6222 285.335 18.6242 285.33 18.6242 285.325C18.6254 285.319 18.6244 285.313 18.6214 285.308C18.6184 285.303 18.6136 285.3 18.6079 285.298C18.5237 285.287 18.4466 285.245 18.3922 285.18C18.3379 285.115 18.3103 285.032 18.3151 284.947C18.5338 284.849 18.708 284.673 18.8031 284.453C18.8926 284.211 18.8926 283.945 18.8031 283.702C18.8013 283.697 18.7976 283.693 18.7929 283.691C18.7881 283.688 18.7826 283.687 18.7774 283.689C18.7719 283.692 18.7677 283.696 18.7655 283.702C18.7633 283.708 18.7631 283.714 18.7652 283.72C18.8496 283.95 18.8496 284.203 18.7652 284.433C18.6716 284.645 18.5011 284.814 18.288 284.906H18.2758V284.92C18.2663 285.018 18.2945 285.116 18.3547 285.193C18.4149 285.271 18.5026 285.323 18.5998 285.339L18.6052 285.344ZM18.1117 283.849C18.1212 284.09 18.0467 284.288 17.9436 284.292C17.8406 284.296 17.7525 284.104 17.743 283.864C17.7335 283.624 17.8094 283.423 17.9111 283.419C18.0128 283.415 18.1022 283.607 18.1117 283.849Z" fill="#681B3D"/>
<path d="M19.9867 283.841C19.9959 283.6 19.9209 283.402 19.8191 283.398C19.7174 283.394 19.6275 283.586 19.6182 283.827C19.609 284.068 19.684 284.266 19.7858 284.27C19.8875 284.274 19.9775 284.082 19.9867 283.841Z" fill="#681B3D"/>
<path d="M20.4931 283.083C20.565 283.226 19.6797 283.008 19.635 282.916C19.5902 282.824 19.7041 282.78 19.8763 282.78C20.0485 282.78 20.4741 283.046 20.4931 283.083ZM17.2463 283.083C17.1745 283.226 18.0665 283.008 18.1031 282.916C18.1397 282.824 18.0353 282.78 17.8631 282.78C17.691 282.78 17.2639 283.046 17.2463 283.083Z" fill="#681B3D"/>
<path d="M19.421 286.115C19.421 286.293 19.1824 286.438 18.8896 286.438C18.5968 286.438 18.3568 286.296 18.3555 286.118C18.3541 285.94 18.5941 285.795 18.8882 285.795C19.1824 285.795 19.4197 285.938 19.421 286.115Z" fill="#FA6855"/>
<path d="M19.2039 286.201C18.896 286.259 18.5789 286.247 18.2766 286.164C18.259 286.164 18.2522 286.141 18.263 286.128C18.2694 286.121 18.2776 286.116 18.2868 286.113C18.2959 286.111 18.3056 286.111 18.3146 286.114C18.7294 286.269 19.6865 286.13 19.8898 285.888C19.8967 285.881 19.9053 285.877 19.9146 285.874C19.9239 285.872 19.9336 285.873 19.9427 285.876C19.9603 285.884 19.9658 285.9 19.9549 285.914C19.8492 286.04 19.5374 286.144 19.2039 286.201Z" fill="#681B3D"/>
<path d="M20.7658 284.586C20.7915 284.715 20.618 284.857 20.3767 284.907C20.1354 284.957 19.9185 284.892 19.8927 284.764C19.867 284.635 20.0405 284.492 20.2818 284.442C20.5231 284.392 20.7387 284.457 20.7658 284.586ZM16.9713 284.586C16.9455 284.715 17.1191 284.857 17.3604 284.907C17.6017 284.957 17.8186 284.892 17.8443 284.764C17.8701 284.635 17.6966 284.492 17.4552 284.442C17.2139 284.392 17.0011 284.457 16.9713 284.586Z" fill="#FA7369"/>
<path d="M16.207 282.892C18.2039 282.973 19.8104 281.486 19.8104 281.486C19.8104 281.486 20.2306 282.724 21.3491 282.919C22.4675 283.114 21.6663 280.441 20.6522 280.163C19.6382 279.885 17.3797 279.414 16.8469 280.142C16.3141 280.87 16.207 282.892 16.207 282.892Z" fill="#822A2A"/>
<path d="M16.7173 289.401C17.2135 290.592 18.2872 290.936 19.4802 290.743C20.6732 290.551 20.8982 289.477 21.0229 289.401C21.1476 289.325 24.4704 289.203 25.3217 289.969C26.1731 290.735 23.3506 303.428 22.5847 304.024C21.8187 304.619 16.2876 303.386 15.9039 303.003C15.5203 302.619 12.8835 294.409 12.8415 292.157C12.7995 289.906 12.3562 290.245 13.0326 289.69C13.7484 289.094 16.6713 289.292 16.7173 289.401Z" fill="#FA8A8A"/>
<path d="M25.3192 289.97C29.4323 292.722 32.4947 297.09 33.1197 299.16C33.7447 301.23 27.5317 306.616 26.1977 306.308C24.8637 306 26.2831 305.485 26.9636 304.096C27.6442 302.706 29.9705 299.415 29.9705 299.415C29.9705 299.415 25.0901 295.586 24.6102 294.026C24.1303 292.465 25.3192 289.97 25.3192 289.97ZM13.2226 289.575C10.228 291.073 6.45652 296.593 5.83292 298.658C5.20931 300.723 11.421 306.114 12.7536 305.807C14.0862 305.499 12.6682 304.984 11.9876 303.594C11.3071 302.205 8.98077 298.913 8.98077 298.913C8.98077 298.913 13.4056 295.184 13.8883 293.626C14.3709 292.068 13.2226 289.575 13.2226 289.575Z" fill="#FA8A8A"/>
<path d="M24.9541 309.059C21.7764 307.839 14.6009 307.952 14.3799 309.286C14.1589 310.62 21.4985 312.377 23.456 311.527C25.4136 310.677 24.9541 309.059 24.9541 309.059Z" fill="#6E2F4C"/>
<path d="M20.7523 300.527V309.308H13.4547C13.3939 309.307 13.3349 309.287 13.2862 309.25C13.2375 309.214 13.2016 309.163 13.1836 309.105L11.0051 300.868C10.9945 300.828 10.9933 300.786 11.0013 300.746C11.0093 300.705 11.0265 300.667 11.0515 300.634C11.0764 300.601 11.1085 300.575 11.1454 300.556C11.1822 300.538 11.2228 300.528 11.264 300.527H20.7523Z" fill="#4D477A"/>
<path d="M28.3501 300.868L26.1716 309.111C26.1534 309.17 26.1175 309.22 26.0688 309.257C26.0202 309.293 25.9613 309.314 25.9005 309.315H18.6016V300.534H28.0912C28.1317 300.535 28.1715 300.545 28.2077 300.563C28.2439 300.581 28.2756 300.607 28.3004 300.639C28.3253 300.671 28.3426 300.708 28.3512 300.748C28.3598 300.787 28.3595 300.828 28.3501 300.868Z" fill="#4D477A"/>
<path opacity="0.1" d="M28.0936 300.527L22.027 309.308H14.4922L19.2668 302.391L20.5588 300.527H28.0936Z" fill="white"/>
<path d="M36.1069 309.789C34.8949 310.375 31.6142 311.26 28.5152 311.687C28.1085 311.741 27.6855 311.796 27.2951 311.836C25.7849 311.987 24.3818 311.987 23.3745 311.755C23.2914 311.743 23.2094 311.725 23.1291 311.701C20.3934 310.924 20.2822 309.903 20.3107 309.658C20.2972 309.631 20.3107 309.617 20.3107 309.617C20.7879 309.427 21.2502 309.236 21.7138 309.06C30.1 305.671 36.5543 303 38.3234 304.857C40.182 306.807 38.1228 308.805 36.1069 309.789Z" fill="#6E2F4C"/>
<path d="M27.2873 311.823C25.7771 311.973 24.374 311.973 23.3667 311.741C23.326 311.728 23.2989 311.714 23.2582 311.701C21.8416 311.047 20.7259 310.121 20.3029 309.644C20.2893 309.617 20.3029 309.604 20.3029 309.604C20.7801 309.414 21.2424 309.223 21.706 309.046C23.0129 309.155 24.7413 309.482 25.4368 309.986C26.1716 310.506 26.764 311.214 27.2873 311.823Z" fill="#45123E"/>
<path d="M20.2978 312.122C23.5324 313.2 24.4109 315.122 26.0851 315.639C27.3703 316.036 28.1186 315.615 28.467 315.289C28.5486 315.218 28.6038 315.121 28.6238 315.014C28.6437 314.907 28.6271 314.797 28.5768 314.701C28.0237 313.633 25.9834 309.938 24.2129 309.768C22.1415 309.57 20.2422 310.25 20.2422 310.25L20.2978 312.122Z" fill="#4D477A"/>
<path d="M20.3261 311.22C17.8683 312.96 17.6147 314.896 16.3323 315.76C15.3481 316.424 14.612 316.223 14.231 316.014C14.1424 315.968 14.0711 315.894 14.0274 315.803C13.9838 315.713 13.9701 315.611 13.9883 315.513C14.1849 314.428 14.9699 310.616 16.4285 310.04C18.1272 309.362 19.9058 309.525 19.9058 309.525L20.3261 311.22Z" fill="#4D477A"/>
<path d="M21.6726 309.789C10.1237 306.562 1.53285 303.561 0.463231 307.533C-0.831427 312.342 10.8205 312.342 14.0565 312.427C17.3792 312.514 19.5781 312.555 20.302 312.342C21.0259 312.129 21.8258 309.824 21.6726 309.789Z" fill="#6E2F4C"/>
<path d="M21.637 303.849C21.9176 304.363 21.2655 305.257 20.1823 305.849C19.0992 306.44 17.9943 306.502 17.7137 305.984C17.433 305.466 18.0838 304.574 19.1683 303.983C20.2528 303.392 21.3563 303.334 21.637 303.849Z" fill="#9893C7"/>
<path d="M100.988 298.98V295.71H106.388C108.248 295.71 109.578 295.32 110.378 294.54C111.198 293.76 111.608 292.81 111.608 291.69C111.608 290.27 111.158 289.15 110.258 288.33C109.378 287.49 107.998 287.08 106.118 287.1H99.218V285H118.328V287.1H110.768L111.848 285.99C113.188 286.57 114.138 287.39 114.698 288.45C115.258 289.49 115.538 290.63 115.538 291.87C115.538 293.35 115.178 294.63 114.458 295.71C113.738 296.77 112.718 297.58 111.398 298.14C110.078 298.7 108.488 298.98 106.628 298.98H100.988ZM111.728 306L106.238 297.6H110.408L115.928 306H111.728ZM99.218 291.27V289.17H118.328V291.27H99.218Z" fill="white"/>
<path d="M66.4355 257.33L66.9868 255.221L70.4698 256.131C71.6694 256.445 72.593 256.418 73.2406 256.049C73.901 255.685 74.3256 255.141 74.5144 254.419C74.7539 253.503 74.6524 252.704 74.2102 252.024C73.7843 251.334 72.9633 250.836 71.7473 250.532L67.2969 249.369L67.651 248.014L79.9768 251.237L79.6227 252.591L74.7465 251.316L75.6303 250.783C76.3968 251.383 76.8713 252.072 77.0537 252.85C77.2396 253.615 77.228 254.397 77.0189 255.197C76.7694 256.152 76.3213 256.917 75.6749 257.492C75.0317 258.054 74.2373 258.405 73.2915 258.543C72.3456 258.682 71.2729 258.594 70.0732 258.281L66.4355 257.33ZM72.179 263.669L70.0543 257.325L72.744 258.028L74.888 264.377L72.179 263.669ZM66.5938 252.059L66.9479 250.704L79.2737 253.926L78.9196 255.281L66.5938 252.059Z" fill="#0C4072"/>
</svg>
