<svg width="160" height="160" viewBox="0 0 160 160" fill="none" xmlns="http://www.w3.org/2000/svg">
<g clip-path="url(#clip0_1264_737)">
<path d="M154.371 79.9965C156.842 77.119 158.573 73.6821 159.415 69.9839C160.257 66.2857 160.184 62.4379 159.203 58.7743C158.221 55.1107 156.36 51.7419 153.782 48.9603C151.203 46.1787 147.985 44.0681 144.406 42.8118C145.107 39.0842 144.889 35.2418 143.769 31.6179C142.648 27.994 140.661 24.6982 137.979 22.0163C135.297 19.3344 132.001 17.3475 128.377 16.2279C124.753 15.1083 120.91 14.8899 117.183 15.5916C115.927 12.012 113.817 8.79296 111.035 6.21392C108.254 3.63488 104.885 1.77381 101.22 0.792268C97.5563 -0.189271 93.708 -0.261601 90.0096 0.581557C86.3112 1.42472 82.8745 3.15788 79.9978 5.63057C77.1203 3.15958 73.6834 1.42798 69.9852 0.585985C66.287 -0.256008 62.4392 -0.182965 58.7756 0.798775C55.112 1.78052 51.7432 3.6413 48.9616 6.21971C46.18 8.79813 44.0695 12.0163 42.8131 15.595C39.0857 14.8945 35.2437 15.1139 31.6203 16.2342C27.9969 17.3546 24.7016 19.342 22.0201 22.0241C19.3387 24.7063 17.3521 28.0021 16.2327 31.6258C15.1133 35.2495 14.8948 39.0915 15.5963 42.8187C12.0176 44.0751 8.79943 46.1856 6.22101 48.9672C3.6426 51.7489 1.7818 55.1176 0.800062 58.7812C-0.181678 62.4448 -0.254732 66.2926 0.587262 69.9908C1.42926 73.689 3.16089 77.126 5.63188 80.0034C3.16014 82.8809 1.42797 86.318 0.585738 90.0166C-0.256495 93.7152 -0.183378 97.5635 0.798793 101.227C1.78096 104.891 3.64248 108.26 6.22178 111.042C8.80107 113.823 12.0202 115.933 15.5998 117.188C14.8977 120.915 15.1159 124.758 16.2354 128.382C17.355 132.006 19.3421 135.301 22.0242 137.983C24.7063 140.665 28.0024 142.652 31.6265 143.771C35.2505 144.89 39.0928 145.108 42.8201 144.405C44.0764 147.984 46.1869 151.202 48.9685 153.78C51.7502 156.359 55.1189 158.219 58.7825 159.201C62.4461 160.183 66.2939 160.256 69.9921 159.414C73.6903 158.572 77.1273 156.84 80.0048 154.369C82.8822 156.841 86.3194 158.573 90.018 159.416C93.7166 160.258 97.5648 160.185 101.229 159.202C104.893 158.22 108.262 156.359 111.043 153.779C113.824 151.2 115.934 147.981 117.19 144.401C120.917 145.103 124.759 144.885 128.383 143.766C132.007 142.646 135.303 140.659 137.985 137.977C140.667 135.295 142.654 131.999 143.774 128.375C144.893 124.751 145.112 120.909 144.41 117.181C147.989 115.925 151.207 113.815 153.786 111.033C156.364 108.251 158.225 104.882 159.206 101.218C160.188 97.5546 160.26 93.7066 159.418 90.0084C158.575 86.3102 156.843 82.8735 154.371 79.9965Z" fill="#18C07A"/>
<path d="M65.6424 110.535L43.4114 88.3175C42.5676 87.4724 42.0938 86.3271 42.0938 85.133C42.0938 83.9388 42.5676 82.7935 43.4114 81.9484L46.1122 79.2441C46.9573 78.4004 48.1026 77.9265 49.2968 77.9265C50.4909 77.9265 51.6363 78.4004 52.4813 79.2441L68.6415 95.3939L106.7 54.9501C107.519 54.0811 108.649 53.5727 109.843 53.5363C111.036 53.4999 112.195 53.9385 113.066 54.7559L115.839 57.3736C116.709 58.1926 117.218 59.3236 117.255 60.5179C117.291 61.7122 116.852 62.8721 116.033 63.7426L72.119 110.434C71.7055 110.875 71.2077 111.228 70.655 111.472C70.1024 111.717 69.5062 111.847 68.902 111.857C68.2978 111.866 67.6979 111.754 67.1379 111.527C66.578 111.3 66.0694 110.962 65.6424 110.535Z" fill="white"/>
</g>
<defs>
<clipPath id="clip0_1264_737">
<rect width="160" height="160" fill="white"/>
</clipPath>
</defs>
</svg>
