<svg width="23" height="33" viewBox="0 0 23 33" fill="none" xmlns="http://www.w3.org/2000/svg">
<path d="M6.38792 0.000735389H7.79374C8.00014 0.405304 9.11216 1.23728 9.36923 1.09948C9.91276 0.808398 10.5341 0.595428 10.8617 0.000735389H12.1397C12.2374 0.411199 12.6355 0.494471 12.9168 0.689755C13.7174 1.24465 14.734 0.926305 15.2077 0.000735389H16.6136C16.7465 0.557109 17.3216 0.608695 17.6683 0.921148C17.8049 1.04421 18.001 1.22402 18.1766 1.10538C18.6914 0.757552 19.3429 0.589535 19.6815 0H20.9596C21.0947 0.469417 21.5471 0.596166 21.8938 0.790712C22.715 1.25055 23.0029 1.89167 23 2.83566C22.9728 11.9108 22.975 20.9867 22.9978 30.0626C23 30.9543 22.7209 31.5637 21.9467 32.008C21.5831 32.2166 21.1101 32.3485 20.9588 32.8341H19.6808C19.5523 32.4119 19.1336 32.3316 18.8295 32.1267C18.0473 31.6013 17.0388 31.9336 16.6128 32.8341H15.207C15.0013 32.4318 13.8871 31.5976 13.6315 31.7347C13.088 32.0257 12.4681 32.2402 12.139 32.8341H10.861C10.7633 32.4229 10.3652 32.3404 10.0839 32.1451C9.28477 31.5902 8.26749 31.9086 7.79301 32.8341H6.38718C6.25424 32.2778 5.67987 32.2254 5.33245 31.9137C5.19584 31.7907 4.99972 31.6101 4.82418 31.7295C4.3093 32.0773 3.6578 32.2453 3.3192 32.8349H2.04118C1.9075 32.364 1.45359 32.2387 1.10764 32.0442C0.287211 31.5843 -0.00291592 30.9439 2.20602e-05 29.9999C0.0271984 20.9241 0.0249948 11.8482 0.00222545 2.77229C2.19706e-05 1.87988 0.280599 1.27192 1.05402 0.827558C1.4176 0.61901 1.89135 0.488575 2.04118 0.000735389H3.3192C3.44774 0.42299 3.87448 0.495208 4.17342 0.705967C4.93876 1.24613 5.95971 0.906408 6.38718 0.000735389H6.38792ZM17.2687 17.941C16.8471 17.9336 16.4255 17.9182 16.0039 17.9219C15.8276 17.9233 15.5904 17.8541 15.5383 18.1208C15.4898 18.3684 15.4295 18.6595 15.5691 18.8644C15.7057 19.0641 15.9004 18.8194 16.0708 18.7833C16.4409 18.7045 16.8067 18.6035 17.174 18.5121C17.4274 18.4863 17.6257 18.3736 17.6103 18.0958C17.5992 17.8946 17.4068 17.9417 17.268 17.941H17.2687ZM12.1339 26.0287C13.5742 26.0508 14.5518 25.1613 14.5606 23.7376C14.5812 20.4045 14.5628 17.0714 14.5702 13.7376C14.5724 12.6875 13.6903 11.3397 12.1045 11.465C11.6168 11.4547 11.1269 11.4104 10.6414 11.4414C9.39861 11.521 8.4614 12.3979 8.45038 13.5969C8.4188 17.028 8.41659 20.4598 8.45111 23.8902C8.46433 25.1842 9.42726 26.0405 10.7332 26.0552C11.1996 26.0604 11.6667 26.0383 12.1339 26.028V26.0287ZM9.88999 30.6403C9.87971 29.5519 9.85841 28.4627 9.86502 27.3743C9.86722 27.0759 9.78863 26.9182 9.49483 26.812C8.80955 26.5652 8.29393 26.095 7.92081 25.4701C7.49847 24.7619 6.87122 24.3736 6.06695 24.252C4.89175 24.0744 4.43417 23.5954 4.28359 22.4436C4.21308 21.9027 4.37834 21.6271 4.95786 21.6418C5.63873 21.6595 6.32035 21.6499 7.00196 21.6418C7.17824 21.6396 7.38242 21.7111 7.47056 21.4406C7.7269 20.658 7.42282 19.9896 6.64646 19.7074C6.42832 19.6286 6.19548 19.5836 5.96558 19.5438C4.88367 19.3581 4.43196 18.8843 4.29167 17.7737C4.21161 17.1378 4.36218 16.9521 4.99458 16.944C5.65489 16.9359 6.3152 16.9476 6.97478 16.9373C7.12388 16.9351 7.31118 17.0221 7.40446 16.787C7.68797 16.0737 7.32954 15.2505 6.60239 14.9992C6.42318 14.9373 6.23294 14.8983 6.04491 14.8695C4.90791 14.6956 4.44224 14.2277 4.29388 13.1009C4.20574 12.4296 4.34602 12.2712 5.04453 12.2586C5.91564 12.2439 6.78749 12.2306 7.6586 12.2166C7.70267 12.2026 7.74747 12.1886 7.79154 12.1739C9.77761 9.71627 13.2106 9.717 15.2092 12.1761C15.2547 12.1894 15.2995 12.2034 15.3451 12.2166C16.2581 12.2306 17.1718 12.2498 18.0847 12.2564C18.4872 12.2594 18.7348 12.3972 18.7399 12.8452C18.7517 13.969 18.1398 14.703 17.0227 14.8563C16.5915 14.9152 16.1956 15.0412 15.8335 15.2822C15.2966 15.6389 15.4229 16.1989 15.4942 16.6743C15.561 17.1194 16.0149 16.9219 16.3036 16.9344C16.8985 16.9602 17.4949 16.9476 18.0906 16.941C18.5901 16.9351 18.7708 17.1812 18.7289 17.6654C18.6283 18.8231 18.1464 19.3456 16.958 19.5549C15.7454 19.7678 15.5184 20.0464 15.5103 21.1304C15.5074 21.5836 15.68 21.6654 16.0722 21.6507C16.7524 21.6256 17.434 21.6492 18.1149 21.6426C18.535 21.6381 18.7458 21.8179 18.7392 22.2549C18.7223 23.3972 18.1281 24.0876 16.9962 24.2424C16.1405 24.3596 15.489 24.7686 15.0447 25.521C14.698 26.1068 14.2037 26.5541 13.5669 26.7855C13.2187 26.9123 13.1328 27.0884 13.1365 27.4362C13.1489 28.5025 13.124 29.5688 13.1129 30.6352C13.1005 30.6492 13.0748 30.6676 13.0777 30.6764C13.088 30.7059 13.1085 30.7324 13.1254 30.7597C13.8504 30.5946 14.4696 30.8621 14.9808 31.3235C15.6403 31.9174 16.2199 31.8629 16.8464 31.2984C17.6059 30.6145 18.4109 30.5261 19.2386 31.1952C19.9065 31.6983 20.5752 31.7305 21.2445 31.2918C21.2982 31.2564 21.3474 31.2114 21.4047 31.1871C21.9122 30.9771 22.015 30.5954 22.0121 30.0655C21.9893 26.0928 21.9996 22.1201 21.9996 18.1474C21.9996 12.9786 22.0003 7.80986 21.9967 2.64112C21.9967 2.43257 22.0929 2.15917 21.9173 2.028C21.4245 1.66028 20.9324 1.23507 20.3683 1.03758C19.9511 0.89167 19.6044 1.39646 19.2408 1.6367C18.4344 2.25939 17.644 2.25792 16.8838 1.56005C16.2448 0.973468 15.6088 0.87988 14.9573 1.535C14.9132 1.57922 14.8449 1.59764 14.7964 1.63817C14.0678 2.25644 13.3186 2.28223 12.6135 1.63596C11.8628 0.947676 11.1673 0.926305 10.41 1.62417C9.68066 2.29624 8.89254 2.26897 8.18009 1.60722C7.43531 0.915989 6.76104 0.957993 6.03022 1.61606C5.30381 2.26897 4.51716 2.28813 3.79956 1.61606C3.0614 0.924832 2.41504 0.989681 1.63721 1.5888C1.18256 1.9381 0.989387 2.25276 0.990856 2.82829C1.00922 11.8835 1.02685 20.9388 0.973962 29.994C0.967352 31.1282 1.83112 31.221 2.40329 31.6919C2.87924 32.084 3.22519 31.616 3.5065 31.3772C4.45987 30.5696 5.3655 30.5519 6.29758 31.3743C6.36074 31.4303 6.44741 31.4605 6.50838 31.518C6.9241 31.9078 7.30457 31.8459 7.74453 31.5143C8.36738 31.0449 9.00199 30.5386 9.8775 30.7619C9.89293 30.7509 9.92157 30.7383 9.9201 30.7295C9.91496 30.6985 9.90027 30.6691 9.88926 30.6389L9.88999 30.6403ZM12.1655 29.3529C12.1655 28.7339 12.1442 28.1134 12.1721 27.4952C12.1963 26.9579 11.8327 27.0537 11.5301 27.0633C11.2238 27.0729 10.8184 26.91 10.8301 27.5018C10.8529 28.6971 10.85 29.8938 10.8294 31.0898C10.8213 31.5637 11.1181 31.7973 11.4736 31.8069C11.8643 31.8172 12.1897 31.5865 12.1713 31.0825C12.1508 30.5062 12.1669 29.9292 12.1655 29.3529ZM15.5324 23.2505C15.5632 23.3316 15.406 23.6566 15.7006 23.6028C16.2558 23.5011 16.7979 23.3161 17.337 23.1392C17.4935 23.0877 17.6352 22.9277 17.5794 22.742C17.5273 22.5703 17.3297 22.6094 17.1916 22.6042C16.8126 22.5888 16.4299 22.6197 16.0531 22.5836C15.5772 22.5379 15.445 22.7568 15.5316 23.2512L15.5324 23.2505ZM6.41216 22.5895C6.26453 22.5895 6.11248 22.5667 5.97073 22.5947C5.76801 22.6352 5.43014 22.4421 5.38901 22.7649C5.34787 23.084 5.64902 23.2137 5.93767 23.2638C6.35266 23.336 6.77133 23.3913 7.16281 23.5637C7.28474 23.6175 7.39124 23.6389 7.46836 23.4731C7.67842 23.0235 7.42062 22.5991 6.91896 22.5902C6.75003 22.5873 6.58183 22.5902 6.41289 22.5902L6.41216 22.5895ZM16.5533 13.2225C16.5533 13.2225 16.5533 13.2196 16.5533 13.2174C16.2977 13.2174 16.0406 13.1982 15.7865 13.2218C15.3164 13.2645 15.5515 13.6381 15.5214 13.8703C15.5037 14.0073 15.4699 14.308 15.7366 14.2063C16.2397 14.0147 16.7751 13.9698 17.2768 13.7922C17.4435 13.7332 17.5904 13.6065 17.5853 13.4208C17.5779 13.1533 17.3341 13.2483 17.1909 13.2292C16.9815 13.2019 16.7656 13.2218 16.5526 13.2218L16.5533 13.2225ZM6.40702 13.2129C6.25865 13.2129 6.10514 13.1886 5.96265 13.2188C5.76213 13.2616 5.41986 13.0604 5.38827 13.3957C5.35816 13.7148 5.6571 13.8371 5.95383 13.8828C6.35193 13.944 6.75076 14.0059 7.12609 14.1673C7.26123 14.2255 7.3905 14.3028 7.47644 14.0788C7.67035 13.5777 7.44706 13.2203 6.91602 13.2129C6.74635 13.2107 6.57668 13.2129 6.40702 13.2129ZM6.43786 17.9174C6.26966 17.9174 6.09853 17.9005 5.93327 17.9219C5.74303 17.9462 5.44116 17.798 5.39415 18.0744C5.34494 18.3647 5.61009 18.5224 5.87304 18.5608C6.33357 18.6286 6.78748 18.7067 7.21643 18.8961C7.3222 18.9425 7.40005 18.9528 7.46836 18.8231C7.68504 18.4097 7.4118 17.9292 6.94393 17.9182C6.77573 17.9145 6.6068 17.9182 6.4386 17.9182L6.43786 17.9174Z" fill="#1A5096"/>
<path d="M7.66016 12.2192C7.70445 12.2052 7.74948 12.1911 7.79377 12.1763C7.74948 12.1903 7.70445 12.2044 7.66016 12.2192Z" fill="#F5F5F5"/>
<path d="M9.87809 30.7631C9.86554 30.7201 9.86997 30.6794 9.89064 30.6401C9.90171 30.6705 9.91647 30.7001 9.92164 30.7312C9.92312 30.7394 9.89359 30.7527 9.87883 30.7638L9.87809 30.7631Z" fill="#35343A"/>
<path d="M13.1106 30.6375C13.1313 30.6775 13.135 30.7189 13.1224 30.7619C13.1055 30.7345 13.0855 30.7078 13.0745 30.6782C13.0715 30.67 13.0973 30.6508 13.1099 30.6367L13.1106 30.6375Z" fill="#35343A"/>
<path d="M11.504 8.33837C9.67433 8.33837 7.8447 8.34206 6.01508 8.3369C4.88396 8.33395 4.34924 7.78642 4.3419 6.63978C4.33896 6.19173 4.32794 5.74295 4.34631 5.2949C4.38009 4.45997 4.93096 3.85938 5.75433 3.8557C9.58399 3.83875 13.4136 3.83949 17.2433 3.8557C18.0652 3.85938 18.6234 4.45629 18.6565 5.28901C18.677 5.80043 18.6726 6.31406 18.6587 6.82548C18.6337 7.75768 18.0637 8.32806 17.1214 8.33469C15.2491 8.34648 13.3769 8.33837 11.5047 8.33837H11.504ZM11.4812 7.37817C13.0126 7.37817 14.5433 7.37891 16.0747 7.37817C17.8706 7.3767 17.7016 7.54177 17.7024 5.71273C17.7024 4.87928 17.6296 4.80927 16.7835 4.80854C13.5297 4.80706 10.2766 4.80411 7.0228 4.80854C5.10137 4.81148 5.32172 4.5963 5.29013 6.56903C5.27985 7.18731 5.52444 7.39438 6.12305 7.38627C7.90934 7.36269 9.69563 7.37743 11.4819 7.37817H11.4812Z" fill="#1A5096"/>
<path d="M13.0453 22.8189C13.1842 23.2551 13.1827 23.6906 13.0431 24.1262C13.0358 24.1652 13.0307 24.205 13.0285 24.2448L13.0351 24.236C12.5878 24.8314 12.0376 25.2271 11.251 25.1077C10.4937 24.9928 9.92741 24.3959 9.84662 23.6619C9.76142 22.883 10.1918 22.1807 10.9278 21.8992C11.6145 21.6368 12.3924 21.8734 12.85 22.4902C12.9256 22.5919 12.9807 22.7091 13.0453 22.8189ZM11.4919 24.1438C11.915 24.1158 12.1559 23.8889 12.1544 23.4585C12.1529 23.0326 11.9098 22.7658 11.4897 22.768C11.0747 22.7702 10.8117 23.0392 10.8088 23.4548C10.8059 23.8734 11.0607 24.1092 11.4919 24.1438Z" fill="#3E3D43"/>
<path d="M13.0368 18.0849C13.1749 18.4983 13.1741 18.9257 13.1646 19.3539C12.7195 19.8955 12.3104 20.4659 11.4752 20.4187C10.6879 20.3738 10.0386 19.8815 9.87404 19.1217C9.71099 18.3671 10.0819 17.6059 10.7819 17.2603C11.4539 16.9279 12.2523 17.0893 12.7467 17.6656C12.8568 17.7938 12.9406 17.9449 13.036 18.0849H13.0368ZM11.5134 18.0635C11.0823 18.0908 10.8186 18.3214 10.8076 18.7422C10.7951 19.1969 11.0683 19.4762 11.5208 19.4681C11.9402 19.4607 12.1958 19.1866 12.1921 18.7636C12.1884 18.3421 11.9372 18.1041 11.5142 18.0635H11.5134Z" fill="#3E3D43"/>
<path d="M12.9075 13.208C13.2116 13.701 13.2138 14.2198 13.0353 14.7533C12.2692 15.9058 11.0779 16.1011 10.2751 15.2058C9.62066 14.4762 9.70733 13.3981 10.4705 12.7688C11.2094 12.1593 12.2288 12.3436 12.9083 13.2087L12.9075 13.208ZM11.4738 14.7732C11.9027 14.7533 12.1694 14.53 12.184 14.1092C12.2002 13.656 11.9328 13.3745 11.4826 13.3789C11.0676 13.3826 10.8054 13.6486 10.8047 14.0724C10.8039 14.4932 11.0529 14.7312 11.4738 14.7739V14.7732Z" fill="#3E3D43"/>
<path d="M13.0273 24.2452C13.0296 24.2052 13.0347 24.1652 13.0421 24.126C13.0369 24.166 13.0325 24.2052 13.0273 24.2452Z" fill="#76747F"/>
<path d="M11.4917 24.1434C11.0613 24.1088 10.8057 23.873 10.8086 23.4544C10.8116 23.038 11.0745 22.7691 11.4895 22.7676C11.9096 22.7654 12.1527 23.0321 12.1542 23.4581C12.1557 23.8884 11.914 24.1154 11.4917 24.1434Z" fill="#4FB788"/>
<path d="M11.5117 18.0635C11.9347 18.1033 12.1859 18.3413 12.1896 18.7635C12.1933 19.1865 11.9377 19.4607 11.5183 19.468C11.0666 19.4761 10.7926 19.1976 10.8051 18.7422C10.8168 18.3214 11.0805 18.0907 11.5109 18.0635H11.5117Z" fill="#F1D354"/>
<path d="M11.4738 14.773C11.0529 14.7302 10.804 14.4922 10.8047 14.0714C10.8054 13.6484 11.0676 13.3824 11.4826 13.378C11.9329 13.3736 12.2002 13.6558 12.1841 14.1083C12.1686 14.529 11.902 14.7523 11.4738 14.7722V14.773Z" fill="#E32E46"/>
</svg>
