<svg width="27" height="27" viewBox="0 0 27 27" fill="none" xmlns="http://www.w3.org/2000/svg">
<path d="M13.4872 1.89799e-05C20.9609 -0.0123274 26.9901 6.00038 27 13.4765C27.0107 20.9577 21.0046 26.9893 13.5342 27C6.04729 27.0107 0.0107168 21.0095 1.65786e-05 13.544C-0.0115067 6.03412 5.98556 0.0123654 13.4872 1.89799e-05ZM16.8076 16.8076C17.02 16.8076 17.1689 16.8076 17.3179 16.8076C18.9633 16.8076 20.6087 16.8101 22.254 16.8076C23.1298 16.806 23.5792 16.3911 23.5924 15.5079C23.613 14.1548 23.6105 12.8 23.5907 11.4468C23.5784 10.6262 23.1133 10.1965 22.2886 10.1949C20.6292 10.1916 18.9707 10.194 17.3113 10.194H16.8076C16.8076 9.96605 16.8076 9.80307 16.8076 9.6401C16.8076 8.00873 16.8093 6.37653 16.806 4.74516C16.8043 3.87515 16.3722 3.41668 15.5038 3.40681C14.1605 3.39199 12.8164 3.39117 11.4731 3.40845C10.6311 3.41998 10.1957 3.88502 10.194 4.72705C10.1908 6.37242 10.1924 8.01778 10.1924 9.66315C10.1924 9.82365 10.1924 9.98416 10.1924 10.1932C9.9858 10.1932 9.82612 10.1932 9.66562 10.1932C8.00626 10.1932 6.34772 10.1908 4.68836 10.1949C3.90972 10.1965 3.42821 10.6212 3.41339 11.3875C3.38705 12.7703 3.38211 14.1548 3.40845 15.5376C3.42491 16.4002 3.87926 16.8051 4.73528 16.8068C6.38065 16.8101 8.02601 16.8068 9.67138 16.8068C9.83106 16.8068 9.99074 16.8068 10.1924 16.8068C10.1924 17.0208 10.1924 17.1821 10.1924 17.3434C10.1924 19.0028 10.1899 20.6613 10.1949 22.3207C10.1973 23.073 10.6212 23.5669 11.3563 23.5817C12.7819 23.6097 14.2083 23.6097 15.6331 23.5833C16.3714 23.5702 16.8027 23.0771 16.8051 22.3314C16.8101 20.7272 16.8076 19.123 16.8076 17.5188C16.8076 17.3015 16.8076 17.085 16.8076 16.8068V16.8076Z" fill="#1A5096"/>
<path d="M14.3075 14.3069C14.3075 14.7662 14.3001 15.1604 14.3099 15.5547C14.3182 15.8765 14.198 16.0485 13.8531 16.023C13.6762 16.0098 13.4975 16.0205 13.3189 16.0205C12.7222 16.0205 12.6728 15.9687 12.695 15.3571C12.7192 14.6696 12.3976 14.3198 11.7304 14.3077C11.236 14.2989 10.9912 14.0479 10.9962 13.5546C11.0017 12.98 11.2884 12.6931 11.8563 12.6936C12.695 12.6936 12.7016 12.6936 12.6917 11.8425C12.681 10.8853 12.7033 10.9791 13.5716 10.9799C14.0627 10.981 14.3072 11.2208 14.305 11.6993C14.3023 12.3611 14.629 12.6928 15.2853 12.6944C15.4219 12.6944 15.5792 12.6599 15.6903 12.715C15.822 12.78 15.9142 12.9241 16.022 13.0352C16.0286 13.0426 16.0236 13.0615 16.0236 13.0755C15.9998 14.4501 16.2368 14.2929 14.9026 14.3069C14.7273 14.3085 14.5519 14.3069 14.3075 14.3069Z" fill="#2775B3"/>
</svg>
