<svg width="50" height="24" viewBox="0 0 50 24" fill="none" xmlns="http://www.w3.org/2000/svg">
<path d="M32.8454 9.32999C31.9037 8.40773 31.0505 7.58148 30.2091 6.74445C28.5987 5.14157 26.9915 3.53653 25.3908 1.92394C25.0672 1.59818 24.7889 1.39971 24.3736 1.81607C21.9067 4.28943 19.428 6.75092 16.8532 9.31596C17.7539 10.2188 18.6082 11.0752 19.4625 11.9317C19.648 12.1172 19.9069 12.2736 19.9964 12.4969C20.0913 12.731 20.0234 13.0309 20.0266 13.3016C19.7559 13.294 19.3859 13.3976 19.2306 13.2606C18.4917 12.6037 17.8111 11.881 17.111 11.1799C15.4013 9.47021 13.6917 7.76054 11.982 6.05087C11.3665 5.43532 10.7405 5.44682 10.1041 6.08539C7.79898 8.39371 5.48095 10.6891 3.19636 13.0179C2.63222 13.5928 2.22234 13.7104 1.73047 12.7148C2.47906 12.0094 3.24059 11.2122 4.08733 10.5176C4.90064 9.85098 5.23502 9.09052 5.14657 8.0302C5.05381 6.91595 5.12715 6.91056 6.37516 7.02274C6.42693 7.27299 6.48195 7.53942 6.56069 7.9245C8.03413 6.38957 9.43099 4.93338 10.8893 3.41572C12.6713 5.26345 14.2591 6.91056 15.8975 8.60944C16.9665 7.55344 17.9222 6.7013 18.7463 5.73914C18.9911 5.4533 18.8832 4.85572 18.9124 4.39945C18.9339 4.05644 18.9167 3.71127 18.9167 3.28412C19.3611 3.2647 19.7246 3.24852 20.1388 3.23019C20.2068 3.51711 20.2628 3.75873 20.333 4.05752C20.4775 3.98201 20.621 3.94426 20.7137 3.85257C21.8722 2.70488 23.0479 1.57229 24.1665 0.385774C24.6778 -0.15679 25.0046 -0.105014 25.504 0.403033C27.9116 2.8559 30.358 5.27101 32.7753 7.71308C33.0179 7.95794 33.1593 8.3031 33.4365 8.74212C35.2443 6.81887 36.8094 5.15451 38.4706 3.38767C40.0637 5.0337 41.4692 6.48557 43.016 8.08306C43.1498 7.56531 43.2166 7.30535 43.2835 7.04539C44.5099 6.85447 44.6027 6.8782 44.5099 8.05393C44.429 9.07866 44.7472 9.82293 45.5185 10.4809C46.3555 11.1961 47.1171 11.9997 47.8883 12.7418C47.2691 13.7341 47.2131 13.746 46.5044 13.0384C44.0914 10.6319 41.6677 8.23623 39.2839 5.80062C38.737 5.2408 38.408 5.27855 37.8784 5.81896C35.4945 8.25348 33.0719 10.6513 30.6589 13.0578C30.3623 13.3534 30.0905 13.8053 29.5975 13.2843C29.1434 12.8043 29.5792 12.5584 29.8499 12.2866C30.8121 11.3223 31.7872 10.3709 32.8443 9.32783L32.8454 9.32999Z" fill="#1A5096"/>
<path d="M0 23.4559C0.920093 22.6846 1.76792 21.7969 2.7743 21.1637C5.69961 19.3225 9.00677 18.493 12.3528 17.8156C17.8668 16.6981 23.451 16.5147 29.0396 16.8027C34.133 17.0648 39.1649 17.8231 43.9574 19.7065C45.7555 20.413 47.4738 21.263 48.8253 22.6965C49.0918 22.9791 49.2999 23.3146 49.4833 23.691C45.8407 21.4409 41.8184 20.3019 37.6893 19.5921C34.6896 19.0755 31.6413 18.7087 28.6027 18.5965C25.0065 18.4639 21.3843 18.4994 17.7978 18.7788C12.2071 19.2146 6.73512 20.2997 1.67947 22.909C1.19084 23.1614 0.719463 23.4494 0.239462 23.7201C0.159641 23.6328 0.0798205 23.5454 0 23.458V23.4559Z" fill="#1A5096"/>
<path d="M10.5774 12.3924V15.2368C9.77592 15.2368 8.90544 15.4342 8.18922 15.1861C7.30688 14.8808 7.88395 13.9273 7.79982 13.2704C7.7653 12.9997 8.03065 12.4539 8.20863 12.4323C8.9734 12.3384 9.75542 12.3924 10.5763 12.3924H10.5774Z" fill="#1A5096"/>
<path d="M39.0335 12.4377C39.397 12.4172 39.6257 12.3945 39.8555 12.3913C42.0387 12.3643 42.2911 12.5617 41.838 14.719C41.5964 15.8678 40.466 15.0297 39.7692 15.2336C39.3949 15.3436 39.0076 15.2659 39.0281 14.6878C39.0529 13.9661 39.0346 13.2424 39.0346 12.4377H39.0335Z" fill="#1A5096"/>
<path d="M21.5977 11.8409V9.06658C22.3991 9.06658 23.1995 9.05364 23.9987 9.0806C24.1217 9.08492 24.2609 9.26182 24.3472 9.39018C24.4043 9.47539 24.3838 9.61454 24.3935 9.72995C24.5683 11.9833 24.3234 12.1774 21.5977 11.8398V11.8409Z" fill="#1A5096"/>
<path d="M21.6367 12.5896C22.4209 12.5896 23.2202 12.567 24.0162 12.6123C24.15 12.6199 24.3668 12.9143 24.3754 13.0858C24.4153 13.8301 24.3927 14.5787 24.3927 15.3769H21.6367V12.5896Z" fill="#1A5096"/>
<path d="M28.0952 15.3853H25.2929C25.2929 14.5677 25.1181 13.7382 25.336 13.0306C25.6305 12.0738 26.5765 12.7146 27.2204 12.6067C27.4825 12.5625 28.0337 12.83 28.0553 13.0036C28.1481 13.7684 28.0952 14.5504 28.0952 15.3853Z" fill="#1A5096"/>
<path d="M28.0344 11.8788H25.3021C25.3021 11.0601 25.2806 10.2328 25.3248 9.40866C25.3313 9.28246 25.6322 9.08075 25.8048 9.07212C26.5232 9.03437 27.2448 9.05594 28.0344 9.05594V11.8788Z" fill="#1A5096"/>
<path d="M11.6211 12.4346H14.2411V15.1787H11.6211V12.4346Z" fill="#1A5096"/>
<path d="M38.0676 12.458V15.1762H35.4141V12.458H38.0676Z" fill="#1A5096"/>
<path d="M7.90677 18.0942C7.83665 17.9421 7.81616 17.9173 7.814 17.8903C7.59288 15.8117 8.14946 15.4342 10.5484 16.0339C10.6728 16.912 10.3255 17.4592 9.50641 17.6756C8.98326 17.8137 8.45904 17.9496 7.90784 18.0942H7.90677Z" fill="#1A5096"/>
<path d="M41.7739 18.1017C40.9315 17.8806 40.1193 17.7533 39.3944 17.4308C39.1571 17.3251 39.0859 16.7135 39.0665 16.3273C39.06 16.1968 39.4365 16.0145 39.6641 15.9174C39.8118 15.8549 40.0082 15.9045 40.1829 15.9034C42.0846 15.9002 42.145 15.9767 41.775 18.1006L41.7739 18.1017Z" fill="#1A5096"/>
<path d="M38.8176 6.40444C39.6902 7.29217 40.8185 8.43986 41.9468 9.58755C41.923 9.61883 41.9004 9.65011 41.8766 9.6814C40.7904 8.63186 39.7042 7.58125 38.4271 6.34619C37.3625 7.49388 36.3453 8.58979 35.3281 9.68679C35.3616 9.72346 35.3961 9.76013 35.4295 9.79681C36.5621 8.66206 37.6958 7.52732 38.8176 6.40444Z" fill="#1A5096"/>
<path d="M11.0867 6.34521C12.0812 7.33434 13.2235 8.46909 14.3647 9.60383C14.3431 9.62972 14.3227 9.65453 14.3011 9.68042C13.2364 8.6352 12.1718 7.58998 11.0522 6.49083C9.92713 7.59214 8.85064 8.64707 7.77414 9.70091C7.76443 9.68905 7.7558 9.67718 7.74609 9.66532C8.88084 8.53812 10.0145 7.40985 11.0856 6.34521H11.0867Z" fill="#1A5096"/>
<path d="M21.467 5.75948C22.6233 4.6366 23.7796 3.5148 24.8432 2.48145C25.8453 3.50833 26.9811 4.67111 28.0533 5.77026C27.9627 5.70123 27.7642 5.58042 27.6024 5.42186C26.8355 4.66464 26.0621 3.9139 25.3253 3.12756C24.9511 2.72738 24.6782 2.76513 24.3233 3.13835C23.6211 3.87615 22.8908 4.58806 22.1681 5.30752C21.974 5.5006 21.7658 5.67858 21.563 5.86303C21.5306 5.82851 21.4983 5.79399 21.4648 5.75948H21.467Z" fill="#1A5096"/>
<path d="M38.0611 15.9142V17.145C37.2575 17.0069 36.4938 16.899 35.7441 16.7275C35.5877 16.6919 35.4313 16.4374 35.3838 16.2551C35.3644 16.1796 35.6276 15.9358 35.77 15.9293C36.5164 15.8959 37.265 15.9131 38.0611 15.9131V15.9142Z" fill="#1A5096"/>
<path d="M11.6555 17.1429C11.4505 15.9402 11.4742 15.9089 12.541 15.9057C12.9736 15.9046 13.4094 15.8733 13.8354 15.9262C14.0037 15.9467 14.1482 16.1592 14.3046 16.2843C14.173 16.4396 14.0652 16.6942 13.9066 16.7319C13.1828 16.9002 12.444 17.0059 11.6565 17.144L11.6555 17.1429Z" fill="#1A5096"/>
</svg>
