<svg width="39" height="28" viewBox="0 0 39 28" fill="none" xmlns="http://www.w3.org/2000/svg">
<path d="M2.66976 10.1276C2.50282 10.1928 2.36178 10.2363 2.23027 10.3008C1.74035 10.5398 1.52776 10.9718 1.77987 11.4479C2.04152 11.9403 2.42583 12.3668 2.74744 12.8279C3.24417 13.541 3.70683 14.2806 4.23763 14.9672C4.48634 15.2885 4.85224 15.5235 5.17999 15.7795C5.35647 15.9181 5.56293 16.0179 5.81777 16.1727C5.7544 16.0756 5.73328 16.0213 5.69444 15.986C4.74867 15.1357 4.09999 14.0524 3.35933 13.0412C3.02545 12.5848 2.69974 12.1223 2.35837 11.6706C1.94409 11.1219 2.07764 10.7612 2.74472 10.601C3.19579 10.4923 3.57192 10.6872 3.94464 10.8638C5.2454 11.4818 6.23955 12.4571 7.10014 13.5886C7.59278 14.2365 8.08611 14.8959 8.80701 15.3143C9.05163 15.4562 9.34395 15.5418 9.62536 15.5934C10.6277 15.7754 11.6429 15.8929 12.6378 16.1055C14.0326 16.4037 15.1139 17.237 16.0679 18.255C17.216 19.4802 18.093 20.8603 18.4841 22.5113C18.6394 23.166 18.6272 23.822 18.5597 24.4964C18.4595 25.4948 18.4589 26.5033 18.418 27.5071C18.4125 27.6389 18.4173 27.7706 18.4173 27.9221H11.8276C11.8215 27.8053 11.8099 27.6959 11.8099 27.5866C11.8085 26.9529 11.7908 26.3186 11.8133 25.6856C11.8555 24.5039 11.2123 23.7174 10.2938 23.1347C8.39137 21.9272 6.46372 20.7604 4.54494 19.5787C3.79814 19.1182 3.29664 18.4615 2.89871 17.6872C1.90116 15.7449 0.994914 13.7645 0.217452 11.7236C-0.0346616 11.0614 -0.0176274 10.3857 0.0253 9.71468C0.132278 8.05686 0.285591 6.40245 0.428682 4.74735C0.445717 4.547 0.496138 4.3453 0.562914 4.15445C0.665803 3.86106 0.901564 3.76937 1.19047 3.88347C1.57886 4.03696 1.82621 4.33375 1.92296 4.72087C2.05856 5.26623 2.17576 5.82041 2.2473 6.378C2.40538 7.62153 2.53076 8.86981 2.67044 10.1276H2.66976Z" fill="#1A5096"/>
<path d="M27.1765 27.9259H20.5861C20.5861 27.5978 20.6011 27.2848 20.5834 26.9737C20.5289 26.0392 20.4723 25.1047 20.3967 24.1722C20.302 23.0081 20.5936 21.9283 21.0917 20.8953C21.8644 19.2932 23.0023 17.9858 24.438 16.946C25.3088 16.3151 26.3418 16.0577 27.3843 15.8709C27.9962 15.7609 28.6156 15.6685 29.2356 15.6319C29.9661 15.5884 30.4969 15.2115 30.95 14.7069C31.5687 14.0168 32.1329 13.2772 32.757 12.5927C33.5433 11.7301 34.4619 11.0299 35.5861 10.6618C35.8457 10.5769 36.1742 10.5953 36.4426 10.6679C36.9251 10.7983 37.0171 11.1447 36.7254 11.5515C36.1251 12.3882 35.5398 13.2358 34.9143 14.0535C34.4216 14.698 33.8779 15.3045 33.3566 15.9273C33.3028 15.9918 33.2463 16.0543 33.2129 16.1385C33.8834 15.6977 34.5859 15.3514 35.0247 14.5832C35.5255 13.7071 36.2205 12.9411 36.8263 12.1234C36.9666 11.9339 37.1118 11.7396 37.2092 11.5277C37.4695 10.9627 37.2201 10.4296 36.6259 10.2353C36.5401 10.2075 36.4522 10.1878 36.3323 10.1552C36.3779 9.73953 36.4188 9.32796 36.4699 8.91708C36.6259 7.662 36.769 6.40421 36.9523 5.15321C37.0232 4.66966 37.2078 4.21327 37.6821 3.94908C38.0855 3.72428 38.3764 3.82275 38.467 4.27303C38.5808 4.83673 38.666 5.40857 38.7178 5.98178C38.8214 7.11868 38.8943 8.2583 38.9781 9.39656C39.0578 10.4818 38.9236 11.5148 38.4827 12.5376C37.6501 14.4685 36.814 16.3925 35.7994 18.2378C35.4369 18.8965 34.8734 19.3237 34.2738 19.7007C32.4238 20.8634 30.5364 21.9677 28.6946 23.1433C27.7829 23.7253 27.139 24.5206 27.1908 25.705C27.2173 26.3149 27.1962 26.9268 27.1949 27.5381C27.1949 27.6597 27.1833 27.7805 27.1758 27.9266L27.1765 27.9259Z" fill="#1A5096"/>
<path d="M26.1863 15.0042C24.9374 15.3091 23.8124 15.9088 22.883 16.8426C22.637 16.4779 22.4353 16.1397 22.1948 15.8307C21.7185 15.2174 21.0964 14.7998 20.3707 14.5193C20.0907 14.4106 19.876 14.4072 19.7064 14.6809C19.6648 14.7475 19.6076 14.8045 19.5633 14.8588C19.5006 14.8398 19.4542 14.8398 19.4413 14.8195C19.1558 14.3603 18.7988 14.4283 18.3742 14.6266C17.3753 15.0938 16.6667 15.8341 16.1761 16.8447C15.9976 16.7048 15.8225 16.5846 15.6678 16.4433C14.9946 15.8253 14.2042 15.4205 13.3327 15.1699C13.069 15.0945 12.9545 14.9879 12.9647 14.6843C12.9933 13.7912 12.9763 12.8961 12.9777 12.0023C12.9777 11.8943 12.9777 11.787 12.9777 11.6791C12.9416 11.6736 12.9054 11.6682 12.8686 11.6628C12.637 12.7114 12.4046 13.7607 12.1716 14.8133C11.448 14.7081 10.723 14.6028 9.94141 14.4894C10.0382 13.9793 10.1322 13.4842 10.2249 12.9898C10.449 11.7979 10.7761 10.6393 11.3253 9.54991C12.1069 7.99872 13.364 6.95079 14.8849 6.17452C15.1567 6.03597 15.3659 6.04548 15.556 6.30763C15.6739 6.46995 15.8279 6.60646 15.9901 6.78032C16.1727 6.59016 16.3519 6.41969 16.5107 6.23293C16.6497 6.06993 16.7859 6.04956 16.9863 6.12902C18.0731 6.55824 18.9875 7.22721 19.7745 8.07886C19.812 8.11961 19.8324 8.17598 19.8379 8.18549C20.4927 7.7488 21.0875 7.31753 21.7158 6.94264C22.3297 6.5759 22.3447 6.60103 22.8312 7.12194C22.9 7.19529 22.9654 7.27203 23.0738 7.39428C23.2659 7.18578 23.437 7.00988 23.5957 6.82379C23.7272 6.67098 23.8533 6.66419 24.0427 6.74229C26.1461 7.60753 27.5382 9.13562 28.2257 11.2784C28.5589 12.3168 28.7824 13.3898 29.0645 14.4833C28.2619 14.6048 27.5512 14.7128 26.85 14.8195C26.5993 13.7967 26.3492 12.7759 26.0991 11.7551C26.0412 11.7653 25.9826 11.7748 25.9247 11.785C26.0092 12.8356 26.0944 13.887 26.185 15.0069L26.1863 15.0042ZM19.536 10.3479C18.4669 10.3343 17.5539 11.2016 17.5368 12.2475C17.5184 13.3477 18.3926 14.2687 19.4747 14.289C20.5547 14.3094 21.4534 13.4163 21.4691 12.3079C21.4834 11.2525 20.6051 10.3622 19.536 10.3486V10.3479Z" fill="#2775B3"/>
<path d="M18.8915 2.94505C18.884 4.55464 17.5628 5.87831 15.9738 5.86948C14.3324 5.85998 13.0248 4.5594 13.0234 2.94369C13.0214 1.40337 14.2295 -0.0214874 15.9963 0.000245445C17.6235 0.0199409 18.8725 1.27434 18.8922 2.94505H18.8915Z" fill="#2775B3"/>
<path d="M20.1915 3.61964C20.2024 2.07728 21.525 0.766517 23.0397 0.7964C24.6539 0.82832 25.9199 2.0963 25.9076 3.66922C25.8954 5.2204 24.5701 6.51894 23.0247 6.49449C21.4514 6.46936 20.1806 5.17965 20.1915 3.61964Z" fill="#2775B3"/>
</svg>
