<svg width="32" height="26" viewBox="0 0 32 26" fill="none" xmlns="http://www.w3.org/2000/svg">
<path d="M15.8891 2.44117C16.7437 1.1905 17.8796 0.35337 19.3947 0.0745835C19.5975 0.037412 19.7995 0.00101518 20.0069 0.0288938C20.0978 0.13189 20.2214 0.112528 20.3333 0.102461C20.8119 0.060643 21.2174 0.247275 21.6012 0.497409C22.0651 0.800201 22.4807 1.15101 22.8514 1.57228C23.8474 2.70292 24.1714 4.0349 24.0246 5.48149C23.8381 7.32225 22.9057 8.82227 21.6836 10.1558C20.1188 11.8634 18.2091 13.1318 16.241 14.3167C15.8782 14.5351 15.475 14.6373 15.0197 14.5103C14.1021 14.2555 13.2847 13.7963 12.4573 13.3518C12.3353 13.2859 12.2335 13.1698 12.0735 13.2101C12.0735 13.2101 12.082 13.2039 12.082 13.2031C12.0517 13.0745 11.9725 13.0219 11.8419 13.0521L11.8544 13.0443C11.8279 12.963 11.7635 12.9553 11.692 12.9623L11.6997 12.9677C11.6718 12.939 11.6438 12.9096 11.6158 12.8809L11.6104 12.9018C11.6104 12.8453 11.598 12.8151 11.5482 12.8755C9.68977 11.5536 8.00378 10.059 7.01161 7.95649C6.06606 5.9531 5.95728 3.94429 7.34026 2.06945C8.25784 0.824981 9.51184 0.117174 11.0844 0.0296666C11.1396 0.0954911 11.2157 0.107883 11.2942 0.104011C12.4798 0.0381868 13.2505 0.753736 13.9739 1.53744C14.5644 2.17709 14.935 2.94376 15.1968 3.86298C15.4509 3.34335 15.6708 2.89265 15.8914 2.44117H15.8891Z" fill="#F16B55"/>
<path d="M14.832 21.0949C14.832 21.8553 14.8344 22.6166 14.8305 23.377C14.8289 23.6218 14.8266 23.868 14.7994 24.1104C14.6961 25.0389 14.306 25.3487 13.3768 25.2534C11.6481 25.0761 10.4019 23.9083 10.168 22.1008C10.039 21.1011 9.5674 20.4537 8.70343 19.9875C7.26063 19.2084 5.85357 18.3643 4.40921 17.5876C3.459 17.0773 2.77295 16.3408 2.29279 15.3983C1.43736 13.7187 0.758306 11.9623 0.055163 10.216C0.00543801 10.0913 0 9.96666 0 9.83734C0 8.0322 -1.61231e-06 6.22706 0.000775341 4.42114C0.000775341 4.03549 0.185691 3.81633 0.579607 3.7234C0.992169 3.6266 1.23225 3.72805 1.40007 4.10208C1.68832 4.74484 1.8002 5.43561 1.89654 6.12328C2.02085 7.01695 2.10787 7.91526 2.2081 8.81202C2.22597 8.97387 2.27026 9.11791 2.00299 9.1667C1.48243 9.2604 1.25478 9.63289 1.33403 10.1603C1.38686 10.5126 1.54225 10.8216 1.75514 11.1043C2.42176 11.9917 3.06741 12.8955 3.76356 13.7589C4.24294 14.3537 4.87771 14.792 5.50394 15.2264C5.60572 15.2969 5.75334 15.3751 5.85357 15.2458C5.93903 15.135 5.82948 15.0274 5.75489 14.943C5.66088 14.8369 5.55599 14.7401 5.4511 14.6448C4.41232 13.7078 3.4489 12.7065 2.70224 11.5139C2.49014 11.1755 2.24151 10.8603 2.0193 10.5281C1.76213 10.1448 1.93772 9.75138 2.3969 9.67006C2.65873 9.6236 2.9128 9.68245 3.16142 9.75292C4.31364 10.0782 5.21724 10.7589 5.91805 11.7129C6.06956 11.9197 6.24437 12.0607 6.47435 12.166C8.22405 12.9667 9.97142 13.7705 11.7165 14.5829C12.2199 14.8175 12.697 15.101 13.1663 15.3999C14.2206 16.0713 14.7528 17.0471 14.8072 18.2683C14.8491 19.2076 14.8157 20.1501 14.8157 21.0918C14.8219 21.0918 14.8274 21.0918 14.8336 21.0918L14.832 21.0949Z" fill="#1A5096"/>
<path d="M16.9567 21.0728C16.9567 20.3123 16.9699 19.551 16.9544 18.7906C16.9202 17.1403 17.6 15.9237 19.0653 15.1191C20.6985 14.2224 22.4288 13.5339 24.1015 12.7231C24.1948 12.6782 24.2872 12.6325 24.3836 12.5938C25.1318 12.2956 25.7712 11.8937 26.2941 11.2339C26.9654 10.3867 27.9001 9.8671 28.9909 9.68511C29.1284 9.66188 29.2768 9.65724 29.4128 9.68202C29.8533 9.76178 30.0212 10.1513 29.7764 10.5199C28.7672 12.0378 27.712 13.5169 26.2887 14.6909C26.2685 14.7071 26.2475 14.7234 26.232 14.7435C26.1092 14.9038 25.7821 15.0448 25.9647 15.2523C26.1271 15.4366 26.3625 15.1904 26.528 15.0657C27.2933 14.4911 28.0182 13.8808 28.5636 13.0731C29.0111 12.411 29.5192 11.7899 29.9994 11.1511C30.203 10.88 30.3661 10.5904 30.4337 10.2535C30.5534 9.66343 30.3397 9.29714 29.7593 9.16239C29.5899 9.1229 29.5527 9.06249 29.5674 8.90684C29.7073 7.45715 29.8261 6.00359 30.2045 4.58952C30.248 4.42845 30.3071 4.26969 30.377 4.11791C30.5526 3.73845 30.7849 3.62926 31.1905 3.71909C31.5929 3.80815 31.7848 4.04047 31.7856 4.44471C31.7864 6.23746 31.7856 8.02943 31.7864 9.82218C31.7864 9.96467 31.7794 10.1025 31.7242 10.2388C31.0763 11.8403 30.4322 13.4425 29.6964 15.0068C29.1347 16.201 28.322 17.1179 27.1208 17.7343C25.6974 18.4646 24.33 19.3032 22.9299 20.08C22.1755 20.4989 21.7567 21.0944 21.6433 21.9711C21.4016 23.8304 20.2789 24.9758 18.5409 25.2391C17.5013 25.3963 17.0421 25.0571 16.9815 24.0108C16.9349 23.214 16.9613 22.4125 16.9559 21.6133C16.9544 21.4328 16.9559 21.2524 16.9559 21.072L16.9567 21.0728Z" fill="#1A5096"/>
<path d="M12.0719 13.2108C12.2327 13.1705 12.3337 13.2867 12.4557 13.3525C13.2831 13.797 14.1005 14.2563 15.0181 14.511C15.4734 14.6373 15.8766 14.5358 16.2394 14.3174C18.2075 13.1326 20.1172 11.8641 21.682 10.1566C22.9041 8.82303 23.8365 7.32301 24.023 5.48224C24.1698 4.03565 23.8466 2.70368 22.8498 1.57304C22.4792 1.15254 22.0635 0.800961 21.5996 0.498168C21.2158 0.248035 20.8103 0.0606283 20.3317 0.103221C20.2198 0.113288 20.0962 0.132647 20.0053 0.0296511C22.9057 -0.307215 25.5823 2.27543 25.4634 5.27548C25.3912 7.10308 24.6049 8.62091 23.4643 9.98696C22.0759 11.6512 20.3433 12.908 18.5198 14.0456C17.7327 14.5366 16.9154 14.9803 16.1136 15.4488C15.9745 15.5302 15.8587 15.5805 15.6909 15.4829C14.5076 14.7976 13.3142 14.1308 12.1907 13.3479C12.1395 13.3123 12.075 13.2875 12.0703 13.2108H12.0719Z" fill="#E84838"/>
<path d="M27.8359 9.44334C27.9929 7.81554 28.0543 6.20478 28.5282 4.65364C28.6906 4.12163 29.1218 3.96442 29.5344 4.24476C29.6478 4.32142 29.7154 4.39809 29.6742 4.56149C29.3207 5.9531 29.2166 7.37955 29.1031 8.80291C29.0837 9.04917 29.0223 9.16146 28.7621 9.19863C28.4622 9.242 28.1716 9.35119 27.8359 9.44257V9.44334Z" fill="#2775B3"/>
<path d="M3.95142 9.4373C3.56294 9.33895 3.21798 9.23982 2.86835 9.16858C2.67955 9.12986 2.70596 8.99898 2.69509 8.87663C2.57 7.42849 2.47132 5.9757 2.1147 4.55931C2.05488 4.32157 2.21027 4.25497 2.36022 4.19534C2.62205 4.0908 2.89476 4.04898 3.09755 4.31073C3.17447 4.40985 3.22497 4.53531 3.26149 4.65689C3.72766 6.21035 3.79448 7.81801 3.95142 9.4373Z" fill="#2775B3"/>
<path d="M5.3683 10.186C4.46704 9.98073 4.37535 9.33255 4.35205 8.59455C4.32097 7.62886 4.19199 6.66782 4.01718 5.71531C3.99542 5.59605 3.8377 5.4218 4.03738 5.34669C4.23395 5.27312 4.46315 5.29558 4.58591 5.50776C4.68148 5.67271 4.75295 5.85702 4.80346 6.04133C5.05752 6.9652 5.14765 7.91617 5.2502 8.86481C5.29838 9.3101 5.33023 9.75693 5.3683 10.186Z" fill="#2775B3"/>
<path d="M26.4141 10.2659C26.55 8.77441 26.6347 7.33866 27.0139 5.94318C27.0931 5.65201 27.1708 5.32521 27.5857 5.31901C27.7784 5.31592 27.8639 5.35464 27.8126 5.58541C27.5531 6.76948 27.4583 7.97522 27.3884 9.18097C27.3674 9.54495 27.2742 9.78346 26.9307 9.92673C26.7684 9.99488 26.6301 10.1203 26.4141 10.2659Z" fill="#2775B3"/>
<path d="M15.889 2.44112C15.6692 2.89183 15.4485 3.34253 15.1944 3.86293C14.9326 2.94448 14.562 2.17705 13.9715 1.53739C13.2482 0.75369 12.4774 0.0381405 11.2918 0.103965C11.2133 0.108611 11.1372 0.0954448 11.082 0.0296203C13.0353 -0.122938 14.5519 0.653792 15.7119 2.19099C15.7733 2.2723 15.83 2.35749 15.8883 2.44112H15.889Z" fill="#E84838"/>
<path d="M25.1758 11.3334C25.3055 10.1323 25.4415 8.93276 25.7398 7.75721C25.7872 7.57058 25.8502 7.38705 25.9217 7.20816C25.9924 7.03159 26.1206 6.85503 26.3218 6.92318C26.5292 6.99365 26.3668 7.1919 26.3529 7.32122C26.2542 8.2296 26.1128 9.13333 26.0335 10.0433C25.9947 10.4947 25.8696 10.8572 25.4866 11.1197C25.3957 11.1816 25.3397 11.2939 25.2675 11.383C25.2372 11.3659 25.2061 11.3497 25.1758 11.3326V11.3334Z" fill="#2775B3"/>
<path d="M6.61803 11.3639C6.02366 10.9845 5.75095 10.5144 5.72298 9.82828C5.68646 8.94468 5.51631 8.06651 5.41064 7.18524C5.40054 7.0985 5.2972 6.97305 5.45026 6.92271C5.56603 6.88476 5.68257 6.932 5.75949 7.03345C5.91022 7.23325 5.97626 7.47099 6.03687 7.70718C6.34299 8.89435 6.47507 10.1078 6.6188 11.3647L6.61803 11.3639Z" fill="#2775B3"/>
<path d="M11.8398 13.0529C11.9704 13.0235 12.0496 13.0754 12.0799 13.2039C11.9556 13.2233 11.8888 13.1521 11.8398 13.0529Z" fill="#E84838"/>
<path d="M11.6914 12.963C11.7629 12.956 11.8266 12.963 11.8538 13.0451C11.773 13.0714 11.7279 13.0257 11.6914 12.963Z" fill="#E84838"/>
<path d="M11.614 12.8818C11.642 12.9105 11.67 12.9399 11.698 12.9686C11.649 12.9601 11.6071 12.9446 11.614 12.8818Z" fill="#E84838"/>
<path d="M11.5469 12.8763C11.5966 12.8151 11.6083 12.8461 11.609 12.9026C11.5826 12.9065 11.5624 12.8979 11.5469 12.8763Z" fill="#E84838"/>
</svg>
