<svg width="35" height="35" viewBox="0 0 35 35" fill="none" xmlns="http://www.w3.org/2000/svg">
<path d="M30.4771 6.93683C27.0914 11.0144 23.7066 15.0936 20.3193 19.1694C19.4285 20.2411 18.5308 21.3068 17.6306 22.3699C17.418 22.6211 17.2457 22.9983 16.8102 22.6254C14.6719 20.795 12.5251 18.9748 10.4727 16.9832C11.2777 17.1881 12.0819 17.3939 12.8869 17.5979C14.407 17.9846 15.952 17.5336 16.3789 16.5802C16.8367 15.56 16.3335 14.4077 14.9214 13.3824C14.3607 12.9751 13.7691 12.5713 13.1304 12.3192C12.1856 11.9454 12.364 11.5888 12.9109 10.9621C14.3084 9.3614 15.639 7.70158 16.9953 6.06577C18.5823 4.22419 20.2061 2.41091 21.7382 0.523888C22.3049 -0.173134 22.641 -0.146557 23.2574 0.437295C25.6099 2.66296 28.23 4.59199 30.4771 6.93683ZM22.5132 11.8614C21.661 11.8614 20.9288 11.8709 20.1967 11.8563C19.9583 11.852 19.5022 11.9377 19.6325 11.5382C19.8349 10.9141 19.4619 10.2179 19.93 9.64604C20.0123 9.54487 20.0869 9.33997 20.0398 9.24995C19.9206 9.02361 19.7251 9.0982 19.5717 9.24738C19.281 9.52944 18.9844 9.43428 18.7529 9.20537C18.3911 8.847 18.8446 8.68839 18.9921 8.46548C19.0967 8.30773 19.2853 8.15683 19.1061 7.97079C18.8781 7.7333 18.6877 7.93735 18.5283 8.0951C17.9487 8.66352 17.3743 9.23709 16.8059 9.81665C16.655 9.97097 16.3746 10.1544 16.5727 10.3799C16.8419 10.686 17.0399 10.3585 17.232 10.193C17.3494 10.0927 17.4472 9.96755 17.5706 9.87667C17.8707 9.65547 18.1742 9.72406 18.4065 9.96583C18.7049 10.2753 18.3122 10.4117 18.2016 10.6234C18.049 10.9183 17.3443 11.0709 17.7841 11.4859C18.1065 11.7903 18.2856 11.1627 18.5729 11.0255C18.6697 10.9792 18.7803 10.9595 18.9089 10.9209C18.9381 11.0547 19.0135 11.1867 18.9767 11.263C18.3525 12.5516 19.0821 12.6708 20.0955 12.603C20.5165 12.5747 20.9443 12.6347 21.3678 12.6665C21.8848 12.7051 22.2569 12.5224 22.5124 11.8614H22.5132Z" fill="#2775B3"/>
<path d="M15.2564 6.01865C14.7275 7.75478 13.3643 8.89419 12.2455 10.2059C11.9942 10.5009 11.5879 10.3611 11.2586 10.4434C10.836 10.5497 10.2067 10.1914 10.0738 11.0033C9.94348 11.804 10.487 11.9506 11.0306 12.1975C12.0843 12.6777 13.1165 13.2049 14.1479 13.7322C14.7035 14.016 15.157 14.4369 15.5831 14.8905C15.8917 15.2197 16.1447 15.5798 15.9295 16.0256C15.7177 16.4628 15.4982 16.8709 14.8715 16.9472C12.783 17.201 10.9706 16.3582 9.31076 15.3594C7.53177 14.2886 5.88566 13.1072 3.65828 13.5058C3.15159 13.5967 2.98784 13.3164 2.99641 12.8328C3.0307 10.9012 3.04357 8.96878 3.06414 7.03632C4.46762 7.1092 5.78793 6.81598 7.10995 6.32558C9.77458 5.33706 12.5069 5.22904 15.2564 6.0178V6.01865Z" fill="#1A5096"/>
<path d="M2.3337 6.73252C2.31998 9.08165 2.30197 11.4316 2.2934 13.7808C2.2874 15.5546 2.29254 15.5546 0.575281 15.5958C0.18176 12.6628 0.204909 9.70237 0.00343321 6.75653C-0.0222871 6.37415 0.0917402 6.13667 0.507553 6.22497C1.1257 6.357 1.83129 6.18296 2.3337 6.73252Z" fill="#2775B3"/>
<path d="M24.1665 22.8809C25.0187 22.8809 25.8881 22.9881 26.7206 22.8578C28.3058 22.61 29.3561 23.3636 30.3472 24.4413C32.097 26.3429 33.2304 28.5471 33.8057 31.0549C33.9557 31.7099 33.9823 32.166 33.0564 32.1317C30.9027 32.052 28.7902 32.8193 26.6177 32.4875C26.3708 32.4498 26.1247 32.6135 25.8752 32.346C24.8258 31.2255 23.4704 31.1526 22.0343 31.1903C20.0239 31.2435 17.8471 31.6319 16.0441 31.0069C14.2814 30.3956 12.8967 28.692 11.3475 27.4669C10.7097 26.9619 10.0812 26.4441 9.43564 25.9485C9.05241 25.6553 8.78578 25.3098 8.66146 24.8305C8.47799 24.1267 8.35196 23.4236 8.97696 22.8929C9.65941 22.3125 10.3067 22.7446 10.8871 23.1227C12.5427 24.1995 14.1862 25.2961 15.8117 26.4166C16.381 26.8093 16.9597 26.9739 17.6524 26.9585C19.3568 26.9199 21.063 26.9542 22.7674 26.937C23.07 26.9336 23.5733 27.1111 23.5535 26.5529C23.5381 26.1097 23.094 26.2417 22.8145 26.2289C22.0798 26.1963 21.3425 26.2031 20.6069 26.18C19.4597 26.1431 18.3572 25.2412 18.3958 24.3821C18.4318 23.572 19.4109 22.8869 20.5631 22.8809C21.7643 22.8741 22.9654 22.8792 24.1674 22.8792L24.1665 22.8809Z" fill="#1A5096"/>
<path d="M30.0035 34.8812C28.648 34.8812 27.2925 34.8743 25.9371 34.8855C25.5127 34.8889 25.168 34.8752 25.2015 34.2914C25.228 33.8215 25.1372 33.374 25.8453 33.3131C28.6497 33.0722 31.4524 32.7979 34.2533 32.5226C34.6983 32.4789 34.844 32.6212 34.892 33.0765C35.0712 34.7818 35.0001 34.8812 33.2571 34.8803C32.1725 34.8803 31.088 34.8803 30.0043 34.8803L30.0035 34.8812Z" fill="#2775B3"/>
<path d="M22.512 11.8613C22.2556 12.5223 21.8835 12.7049 21.3674 12.6663C20.9439 12.6346 20.5161 12.5746 20.0951 12.6029C19.0817 12.6706 18.3521 12.5514 18.9763 11.2628C19.0131 11.1857 18.9377 11.0545 18.9085 10.9207C18.7808 10.9593 18.6702 10.9782 18.5724 11.0253C18.2852 11.1625 18.1061 11.7901 17.7837 11.4857C17.343 11.0708 18.0486 10.9182 18.2012 10.6232C18.311 10.4106 18.7036 10.2743 18.4061 9.96566C18.1729 9.72389 17.8703 9.65616 17.5702 9.8765C17.4468 9.96738 17.349 10.0917 17.2316 10.1929C17.0387 10.3583 16.8415 10.6867 16.5723 10.3798C16.3742 10.1543 16.6546 9.97081 16.8055 9.81648C17.3739 9.23692 17.9483 8.66336 18.5279 8.09494C18.6882 7.93804 18.8785 7.73399 19.1057 7.97062C19.2849 8.15752 19.0971 8.30756 18.9917 8.46531C18.8434 8.68822 18.3898 8.84597 18.7525 9.2052C18.9831 9.43411 19.2798 9.52927 19.5713 9.24721C19.7247 9.09803 19.9193 9.02258 20.0394 9.24978C20.0874 9.34066 20.0128 9.54556 19.9296 9.64587C19.4615 10.2177 19.8345 10.913 19.6321 11.538C19.5027 11.9384 19.9579 11.8518 20.1963 11.8561C20.9284 11.8707 21.6606 11.8613 22.5128 11.8613H22.512Z" fill="white"/>
</svg>
