<svg width="32" height="33" viewBox="0 0 32 33" fill="none" xmlns="http://www.w3.org/2000/svg">
<path d="M17.1097 2.25143C16.1403 2.25143 15.2979 2.24714 14.4546 2.25229C13.2561 2.26001 12.5526 2.94718 12.5492 4.13449C12.5415 6.7073 12.5423 9.28096 12.5492 11.8538C12.5526 13.0274 13.251 13.7154 14.4237 13.7171C16.6104 13.7197 18.7981 13.7154 20.9848 13.7154C22.97 13.7154 24.956 13.7077 26.9411 13.73C27.1633 13.7325 27.4421 13.8518 27.5957 14.0114C28.2202 14.6591 28.8062 15.3437 29.405 16.0162C29.5971 16.2324 29.7979 16.4503 29.6546 16.7755C29.5045 17.1169 29.2017 17.1178 28.892 17.1161C28.0392 17.1118 27.1873 17.1143 26.2754 17.1143C26.2754 17.3074 26.2754 17.4592 26.2754 17.6111C26.2745 22.0995 26.2728 26.588 26.272 31.0765C26.272 31.8683 26.1493 31.9944 25.3506 31.9953C23.1638 31.997 20.9762 31.985 18.7895 32.0064C18.376 32.0107 18.2979 31.8683 18.2996 31.4925C18.3142 28.9197 18.3073 26.3469 18.3073 23.7733C18.3073 22.996 18.1555 22.8407 17.386 22.8399C15.6565 22.8382 13.927 22.839 12.1966 22.8416C11.5772 22.8424 11.4116 23.0097 11.4108 23.6369C11.4091 26.2526 11.4031 28.8691 11.4177 31.4848C11.4194 31.8597 11.3396 32.0081 10.9287 32.0047C8.69901 31.9875 6.4685 32.0013 4.23885 31.9995C3.59629 31.9995 3.42386 31.8254 3.42386 31.1811C3.42128 26.9217 3.42214 22.6614 3.42128 18.402C3.42128 18.1172 3.40155 17.8307 3.423 17.5476C3.44788 17.2224 3.36123 17.0903 2.99834 17.1066C2.28544 17.1384 1.5691 17.1143 0.854484 17.1152C0.537923 17.1152 0.20678 17.1469 0.0489289 16.778C-0.108064 16.4117 0.14501 16.1861 0.352619 15.9536C2.23568 13.8424 4.12218 11.7328 6.00696 9.6224C8.72903 6.57347 11.4503 3.52454 14.1715 0.475604C14.7411 -0.161806 14.9659 -0.158376 15.5355 0.48504C16.0339 1.04781 16.535 1.60716 17.108 2.24972L17.1097 2.25143ZM6.81594 18.8524C6.81594 18.8524 6.81766 18.8524 6.81938 18.8524C6.81938 19.5233 6.81766 20.1942 6.81938 20.865C6.82195 21.5505 7.00125 21.7366 7.6764 21.7401C8.64753 21.7452 9.6178 21.7452 10.5889 21.7401C11.2632 21.7366 11.4425 21.5496 11.4451 20.8633C11.4503 19.4933 11.4537 18.1232 11.4554 16.754C11.4554 16.1998 11.2649 15.9879 10.7168 15.9819C9.6607 15.9708 8.60378 15.9725 7.54772 15.9802C7.0124 15.9845 6.81594 16.2033 6.81594 16.7532C6.81594 17.4523 6.81594 18.1524 6.81594 18.8516V18.8524ZM22.8747 18.8653H22.8765C22.8765 18.1378 22.8765 17.4103 22.8765 16.6837C22.8765 16.2462 22.668 15.9922 22.2502 15.9871C21.1384 15.9733 20.0257 15.9708 18.9139 15.9845C18.4678 15.9896 18.2662 16.2153 18.2662 16.6605C18.2645 18.1155 18.2687 19.5705 18.2773 21.0254C18.2799 21.5213 18.4849 21.7341 18.9782 21.7375C20.0343 21.7461 21.0895 21.7469 22.1455 21.7392C22.6646 21.7358 22.8679 21.5265 22.8739 21.0057C22.8816 20.2928 22.8756 19.579 22.8756 18.8653H22.8747ZM17.1492 18.8601C17.1492 18.8601 17.1466 18.8601 17.1458 18.8601C17.1458 18.1472 17.1483 17.4335 17.1458 16.7206C17.1432 16.1861 16.9553 15.9836 16.4346 15.9811C15.3914 15.9751 14.3482 15.9751 13.3041 15.9811C12.7474 15.9845 12.5509 16.1784 12.5492 16.7274C12.5441 18.1421 12.5432 19.5576 12.5483 20.9723C12.5501 21.5239 12.7534 21.7349 13.2913 21.7383C14.3345 21.7461 15.3785 21.7452 16.4217 21.7383C16.9433 21.7349 17.1441 21.529 17.1483 21.0049C17.1543 20.2902 17.1501 19.5756 17.1501 18.861L17.1492 18.8601Z" fill="#1A5096"/>
<path d="M22.8586 12.5455C20.0851 12.5455 17.3124 12.5455 14.5388 12.5455C13.8929 12.5455 13.717 12.3782 13.7161 11.7425C13.7144 9.24087 13.7144 6.73927 13.7161 4.23767C13.7161 3.60026 13.8929 3.42267 14.5363 3.42267C20.0825 3.42096 25.6296 3.42096 31.1759 3.42267C31.821 3.42267 31.9951 3.59597 31.996 4.23509C31.9986 6.73669 31.9994 9.23829 31.9977 11.7399C31.9977 12.379 31.8218 12.5463 31.1784 12.5455C28.4049 12.5455 25.6322 12.5455 22.8586 12.5455ZM25.1998 9.78305C25.1415 9.59775 25.1209 9.48279 25.0711 9.38242C24.5178 8.27231 23.9696 7.15877 23.3982 6.05896C23.1495 5.58026 22.5807 5.5897 22.3165 6.06325C22.1011 6.44845 21.9132 6.84908 21.7142 7.24456C21.3616 7.94546 21.0047 8.64378 20.6616 9.34896C20.4737 9.73415 20.5741 10.0833 20.8872 10.2283C21.2098 10.3776 21.5203 10.2429 21.7245 9.85941C21.8112 9.69555 21.8815 9.52311 21.9759 9.36354C22.0231 9.28462 22.1054 9.17138 22.1758 9.1688C22.6313 9.15165 23.1048 9.08988 23.5364 9.19197C23.7302 9.23743 23.8409 9.62949 23.9919 9.86198C24.0537 9.9572 24.1051 10.103 24.1909 10.1288C24.3951 10.1914 24.6405 10.266 24.8232 10.2026C24.9871 10.1459 25.09 9.91259 25.199 9.78219L25.1998 9.78305ZM28.006 9.05385C28.235 9.39786 28.4109 9.67067 28.5962 9.93833C28.839 10.2875 29.1804 10.381 29.4729 10.188C29.7681 9.99409 29.8135 9.64493 29.5793 9.28462C29.346 8.92602 29.0869 8.58287 28.8767 8.21226C28.8115 8.0973 28.8124 7.88369 28.8767 7.76788C29.0843 7.39555 29.3408 7.04982 29.5699 6.68865C29.8092 6.31118 29.7698 5.99119 29.4704 5.78959C29.1787 5.59313 28.8441 5.68492 28.5962 6.04009C28.4049 6.31461 28.2222 6.596 28.0068 6.91771C27.8678 6.71611 27.7709 6.57799 27.6765 6.43729C27.5813 6.29488 27.4938 6.14733 27.3926 6.00921C27.1558 5.68407 26.8272 5.59999 26.5441 5.7853C26.2542 5.97489 26.1967 6.30346 26.4111 6.64833C26.6299 6.99921 26.8504 7.35008 27.0966 7.68123C27.2579 7.89827 27.2673 8.06899 27.1052 8.28776C26.859 8.6189 26.6325 8.96634 26.4094 9.31465C26.195 9.65008 26.2507 9.99924 26.5304 10.1854C26.8092 10.3707 27.1584 10.2918 27.3831 9.97608C27.5805 9.69984 27.7632 9.41244 28.0034 9.05299L28.006 9.05385ZM17.6924 6.85251C17.6924 7.81677 17.6864 8.71327 17.695 9.60976C17.6993 10.0464 17.9301 10.2866 18.3015 10.2798C18.6524 10.2738 18.8575 10.0413 18.8635 9.61491C18.8712 9.00066 18.866 8.38727 18.8669 7.77302C18.8669 7.16564 19.1769 6.85937 19.7968 6.85422C19.8397 6.85422 19.8826 6.85508 19.9255 6.85422C20.3425 6.83707 20.5741 6.63117 20.5758 6.27601C20.5775 5.92342 20.3407 5.69093 19.9332 5.68835C18.8343 5.68063 17.7345 5.67978 16.6347 5.69007C16.2263 5.6935 15.9861 5.93114 15.9878 6.27687C15.9895 6.62517 16.2237 6.83793 16.6415 6.85079C16.9787 6.86109 17.3167 6.85251 17.6933 6.85251H17.6924Z" fill="#1A5096"/>
<path d="M12.6055 24.0425H17.0896V31.9685H12.6055V24.0425ZM16.8632 27.7125C16.8563 27.3814 16.5844 27.1249 16.2541 27.1369C15.9452 27.148 15.7033 27.408 15.705 27.7262C15.7076 28.0668 15.9692 28.3139 16.309 28.2967C16.6247 28.2804 16.87 28.0222 16.8632 27.7125Z" fill="#1A5096"/>
<path d="M3.4616 10.7147C3.44187 10.5002 3.42386 10.3921 3.42386 10.2832C3.42214 9.02554 3.42042 7.76873 3.42386 6.51107C3.42557 5.89425 3.60401 5.71924 4.21397 5.71924C5.39957 5.71924 6.58517 5.71924 7.90889 5.71924C6.40244 7.41185 4.96462 9.02725 3.46246 10.7147H3.4616Z" fill="#1A5096"/>
<path d="M16.8613 27.7128C16.8681 28.0225 16.6228 28.2815 16.3071 28.297C15.9674 28.3141 15.7048 28.0662 15.7031 27.7265C15.7014 27.4082 15.9425 27.1483 16.2522 27.1371C16.5825 27.1251 16.8544 27.3816 16.8613 27.7128Z" fill="#2775B3"/>
<path d="M8.02432 20.5125C8.02432 19.4667 8.01917 18.4416 8.03375 17.4172C8.03547 17.328 8.17016 17.1667 8.24737 17.1642C8.88392 17.1436 9.52219 17.1522 10.2042 17.1522V20.5117H8.02346L8.02432 20.5125Z" fill="#2775B3"/>
<path d="M19.4621 20.5451C19.4621 19.4684 19.4561 18.4699 19.4715 17.4721C19.4732 17.3666 19.5976 17.1745 19.6706 17.1719C20.3354 17.1487 21.0011 17.1582 21.702 17.1582C21.702 18.2648 21.7072 19.2917 21.6917 20.3178C21.6909 20.395 21.5425 20.5331 21.4593 20.5357C20.8055 20.5537 20.1518 20.546 19.4629 20.546L19.4621 20.5451Z" fill="#2775B3"/>
<path d="M15.941 20.5226H13.75V17.188H15.941V20.5226Z" fill="#2775B3"/>
</svg>
