<svg width="55" height="13" viewBox="0 0 55 13" fill="none" xmlns="http://www.w3.org/2000/svg">
<g clip-path="url(#clip0_1263_611)">
<path d="M54.8694 0.573534C54.6745 0.31863 54.4797 0.127452 53.5055 0.063726C53.2457 0.063726 52.4663 0 51.1024 0C47.5302 0 45.0623 1.08333 43.8282 3.1863C44.1529 1.08342 42.0746 0 37.5282 0C32.2024 0 28.8251 2.10288 27.4612 6.3726C26.9416 7.96575 26.9416 9.24027 27.3313 10.2599H26.0324C25.0581 10.3236 23.7591 10.3873 22.9149 10.3873C20.9664 10.3873 19.7323 10.0687 19.2778 9.43143C18.8881 8.8579 18.8881 7.77458 19.4077 6.18143C20.252 3.56869 22.2654 2.42157 25.5128 2.42157C27.2014 2.42157 28.8251 2.61275 28.8251 2.61275C29.02 2.61275 29.1499 2.35785 29.1499 2.16667L29.0849 1.97549L28.955 1.08334C28.8901 0.509807 28.4354 0.19119 27.6561 0.0637377C26.9416 1.17049e-05 26.3571 1.17e-05 25.5778 1.17e-05H25.5128C21.2911 1.17e-05 18.3035 1.40193 16.6798 4.0785C17.2643 1.33836 15.3159 1.17e-05 10.8343 1.17e-05C8.3013 1.17e-05 6.48281 0.0637377 5.44365 0.19119C4.59933 0.31864 4.07975 0.637272 3.88485 1.21079L3.49515 2.35785C3.4302 2.54903 3.5601 2.67648 3.8199 2.67648C4.01474 2.67648 4.79412 2.54903 6.09311 2.4853C7.84669 2.35785 9.08074 2.29412 9.92513 2.29412C12.3931 2.29412 13.4973 2.93138 13.1077 4.1422C13.0427 4.39711 12.8479 4.58828 12.5231 4.65201C10.185 5.03437 8.30144 5.28927 6.93753 5.48043C3.04059 5.99024 0.767372 7.13728 0.182936 9.04906C-0.661388 11.6618 1.41695 12.9363 6.41802 12.9363C8.886 12.9363 11.0294 12.8089 12.718 12.4902C13.6922 12.2991 14.2119 12.1079 14.4067 11.4706L15.316 8.53927C15.251 11.4706 17.2644 12.9364 21.551 12.9364C23.3695 12.9364 25.1232 12.8727 25.9675 12.7452C26.8118 12.6178 27.2665 12.4266 27.4614 11.7893L27.6562 10.8972C28.5655 12.2991 30.5789 13.0001 33.6315 13.0001C36.8789 13.0001 38.7624 12.9363 39.282 12.7452C39.7366 12.6177 39.9964 12.3628 40.1263 12.0442C40.1263 11.9804 40.1263 11.9167 40.1913 11.853L40.581 10.6422C40.6459 10.451 40.516 10.3236 40.2562 10.3236L38.1779 10.451C36.814 10.5148 35.7099 10.5785 34.9305 10.5785C33.4366 10.5785 32.4625 10.451 31.8779 10.2599C31.0336 9.94123 30.6439 9.3677 30.7088 8.41178L37.2687 7.58335C40.1914 7.201 42.2048 6.30884 43.179 4.90691L40.9058 12.3628C40.8408 12.4903 40.9058 12.6177 40.9707 12.6814C41.0357 12.7452 41.1656 12.8089 41.4254 12.8089H44.1532C44.6078 12.8089 44.8027 12.554 44.8676 12.3628L47.2707 4.14225C47.5954 3.05892 48.5697 2.5491 50.3882 2.5491C52.0119 2.5491 53.1809 2.5491 53.9604 2.61283H54.0253C54.1552 2.61283 54.415 2.5491 54.6099 2.23047L54.9995 1.08341C54.9995 0.892237 54.9993 0.700986 54.8694 0.573534ZM11.0944 10.3872C10.2501 10.5147 9.01606 10.5784 7.45726 10.5784C4.66453 10.5784 3.49539 10.0049 3.82013 8.92156C4.07993 8.15685 4.79436 7.64705 5.96337 7.51964L12.2634 6.69122L11.0944 10.3872ZM40.1267 3.75983C39.8669 4.58826 38.6328 5.16175 36.4246 5.48038L31.1638 6.18137L31.2937 5.73529C31.7483 4.33337 32.3329 3.44118 33.1122 2.93132C33.8916 2.42151 35.1905 2.16661 37.0091 2.16661C39.4122 2.23033 40.4514 2.74022 40.1267 3.75983Z" fill="#83B81A"/>
</g>
<defs>
<clipPath id="clip0_1263_611">
<rect width="55" height="13" fill="white"/>
</clipPath>
</defs>
</svg>
