<svg width="53" height="22" viewBox="0 0 53 22" fill="none" xmlns="http://www.w3.org/2000/svg">
<path d="M37.6336 5.45898C39.7572 10.8476 41.8739 16.2167 44.0031 21.6192C42.245 21.6192 40.5414 21.6192 38.7805 21.6192C39.2675 20.6648 39.7433 19.7356 40.2442 18.7547C36.8452 18.7547 33.5203 18.7547 30.1297 18.7547C30.6376 19.7147 31.126 20.6397 31.6394 21.6095C29.8758 21.6095 28.1763 21.6095 26.3945 21.6095C28.5265 16.2153 30.6502 10.8434 32.778 5.45898C34.3951 5.45898 35.9927 5.45898 37.6336 5.45898ZM37.7689 16.585C36.9248 14.2702 36.0932 11.9931 35.2253 9.61416C34.1621 12.621 33.1408 15.5106 32.0957 18.4659C34.0379 17.8226 35.8783 17.2129 37.7689 16.585Z" fill="#EB1C24"/>
<path d="M0 20.5812C0 13.729 0 6.90322 0 0.0788556C0.160458 -0.0481157 0.332079 0.0146718 0.541373 0.0216483C0.849732 0.487675 1.16786 0.970446 1.48738 1.45461C1.57528 1.58716 1.54319 1.73646 1.54319 1.88017C1.54319 3.60057 1.5404 5.31956 1.54459 7.03995C1.54459 7.17669 1.50273 7.32459 1.60179 7.48645C2.0427 7.05391 2.48082 6.6423 2.98871 6.31301C5.99975 4.361 10.2456 5.51909 12.0023 8.3585C13.1394 10.1975 13.4157 12.1718 13.205 14.2592C13.0334 15.9698 12.5367 17.5646 11.4763 18.9557C10.3405 20.4459 8.81544 21.2677 6.99319 21.551C4.64771 21.9165 2.37897 21.6124 0.195341 20.6831C0.136739 20.658 0.0795315 20.6231 0 20.5812ZM1.53761 19.465C1.64365 19.5794 1.79295 19.6073 1.92829 19.6478C3.90681 20.2436 5.88673 20.2799 7.85409 19.6045C9.04287 19.1957 10.0391 18.4771 10.667 17.393C11.8404 15.3698 12.2297 13.1806 11.5949 10.9035C11.1205 9.20684 10.1326 7.84364 8.45685 7.13344C6.0123 6.09674 3.2287 6.99949 1.53761 9.35474C1.53761 12.6965 1.53761 16.08 1.53761 19.465Z" fill="black"/>
<path d="M28.0273 13.1999C28.026 15.957 27.3283 18.0932 25.5912 19.808C22.8564 22.5079 18.5017 22.3418 15.9372 19.4619C14.2935 17.6146 13.7228 15.417 13.8386 13.0018C13.9307 11.0567 14.5265 9.30563 15.8046 7.80151C18.6636 4.43747 23.6196 4.56304 26.2916 8.07359C27.525 9.69492 28.026 11.5465 28.0273 13.1999ZM26.4493 13.5975C26.4674 12.219 26.1716 10.9228 25.4698 9.72841C23.3713 6.15925 18.9119 6.25971 16.7674 9.12285C14.8544 11.6776 14.9312 15.8077 16.9962 18.2397C18.997 20.5977 22.4518 20.7205 24.6061 18.5076C25.9372 17.1416 26.4395 15.4616 26.4493 13.5975Z" fill="black"/>
<path d="M52.0472 6.73683C50.3115 6.73683 48.6064 6.73683 46.8777 6.73683C46.8777 6.88194 46.8777 6.99914 46.8777 7.11635C46.8777 10.2111 46.8735 13.3072 46.8818 16.402C46.8832 17.1945 46.9237 17.9857 47.0967 18.767C47.2335 19.3893 47.6018 19.7591 48.2185 19.9042C49.5524 20.2195 50.8445 20.0256 52.1212 19.6028C52.4058 19.5093 52.6877 19.4061 53.0002 19.2972C53.0002 19.847 53.0002 20.3576 53.0002 20.9046C51.5672 21.5143 50.0757 21.8436 48.499 21.6915C47.8348 21.6274 47.2042 21.446 46.6167 21.1181C45.488 20.4888 44.9173 19.5512 44.9215 18.2452C44.9326 14.5686 44.9257 10.8906 44.9257 7.21402C44.9257 7.0703 44.9257 6.92658 44.9257 6.73543C43.289 6.73543 41.6732 6.73543 39.957 6.73543C40.5305 6.23034 41.0216 5.7978 41.5351 5.34572C42.6416 5.34572 43.7634 5.34572 44.9131 5.34572C44.9131 4.05368 44.9131 2.78816 44.9131 1.531C45.3694 1.02033 45.8103 0.529182 46.2498 0.0380403C46.4493 -0.0052137 46.6447 0.000368825 46.8749 0.0394369C46.8749 1.79471 46.8749 3.54719 46.8749 5.34293C48.6246 5.34293 50.3394 5.34293 52.0486 5.34293C52.0472 5.82989 52.0472 6.2708 52.0472 6.73683Z" fill="black"/>
</svg>
