<svg width="57" height="13" viewBox="0 0 57 13" fill="none" xmlns="http://www.w3.org/2000/svg">
<path fill-rule="evenodd" clip-rule="evenodd" d="M8.93046 9.0343C8.81138 9.90225 8.53355 10.6124 8.09695 11.1647C7.34282 12.0721 6.39024 12.5456 5.08044 12.5061C3.41342 12.4667 2.50053 11.8749 1.42887 10.8491C0.515982 9.98116 0 8.60032 0 7.57455C0 6.8644 0.198455 6.43042 0.515982 5.68082C0.8732 4.89177 1.27011 4.49724 1.78609 3.98436C2.77836 3.03749 3.96909 2.60352 5.19951 2.60352C6.19178 2.60352 7.02529 2.84023 7.70004 3.31366C8.21602 3.70819 8.49385 4.18162 8.49385 4.73396C8.49385 5.04958 8.37478 5.28629 8.21602 5.52301C8.01756 5.72027 7.77942 5.83863 7.50158 5.83863C7.22375 5.83863 6.9856 5.72027 6.78715 5.52301C6.58869 5.28629 6.46962 5.04958 6.46962 4.73396C6.46962 4.41834 6.62838 4.10272 6.94591 3.74764L7.02529 3.55038C7.02529 3.15585 6.42993 2.99804 5.2392 2.95859C4.00878 2.91914 3.25465 3.23476 2.77836 3.7871C2.22269 4.41834 2.14331 5.60192 2.14331 7.25893V8.32415C2.14331 9.50773 2.183 10.4151 2.46084 11.0069C2.81805 11.7565 3.65156 12.1905 4.88198 12.1905C5.87425 12.1905 6.70776 11.9143 7.34282 11.362C7.97787 10.8097 8.37478 10.0206 8.57324 9.0343H8.93046Z" fill="#00ACA4"/>
<path fill-rule="evenodd" clip-rule="evenodd" d="M13.0572 5.32535C13.1763 4.77302 13.4144 4.29959 13.6922 3.86561C14.2876 3.0371 15.002 2.60312 15.8752 2.60312C16.3515 2.60312 16.7087 2.72148 16.9866 2.9582C17.2644 3.19491 17.4232 3.51053 17.4232 3.90506C17.4232 4.22068 17.3438 4.4574 17.1453 4.65466C16.9866 4.85192 16.7484 4.93083 16.4706 4.93083C16.1928 4.93083 15.9546 4.85192 15.7562 4.65466C15.5577 4.4574 15.4783 4.22068 15.4783 3.90506C15.4783 3.54999 15.6768 3.23436 15.9943 2.99765C15.9943 2.9582 14.8433 3.19491 14.3273 3.7078C14.0891 3.94451 13.851 4.22068 13.7319 4.4574C13.6129 4.69411 13.4541 5.04919 13.2953 5.56207C13.1366 6.0355 13.0572 6.74565 13.0572 7.69251V11.7561H15.0814V12.1507H9.44531V11.7561H11.2314V3.43163H9.44531V3.0371H11.7474C12.3824 3.0371 12.819 2.83984 13.0969 2.44531V5.32535H13.0572Z" fill="#00ACA4"/>
<path fill-rule="evenodd" clip-rule="evenodd" d="M22.2653 2.56445C23.2973 2.56445 24.3292 2.95898 25.3215 3.78748C26.5122 4.81325 27.1076 6.03628 27.1076 7.49603C27.1076 8.83742 26.5916 9.98155 25.5993 11.0073C24.6071 11.9936 23.456 12.5065 22.1859 12.5065C20.8364 12.5065 19.6457 11.9936 18.6534 10.9679C18.1771 10.4944 17.7802 9.9421 17.5024 9.35031C17.2245 8.75852 17.1055 8.12728 17.1055 7.57494C17.1055 6.90424 17.2642 6.273 17.6215 5.60231C17.939 4.97106 18.4153 4.37927 19.0106 3.86639C20.0029 2.99843 21.1143 2.56445 22.2653 2.56445ZM24.9643 9.23195V5.91793C24.9643 5.24723 24.9246 4.7738 24.8452 4.45818C24.7658 4.18201 24.6071 3.90584 24.4086 3.66913C23.8926 3.15624 23.1782 2.88007 22.1859 2.88007C21.1539 2.88007 20.3998 3.11679 19.9632 3.62967C19.4472 4.10311 19.2091 4.85271 19.2091 5.87847V9.15305C19.2091 10.2577 19.4472 11.0468 19.9632 11.5202C20.1617 11.7175 20.4792 11.8753 20.8761 11.9936C21.3127 12.112 21.7493 12.1909 22.2256 12.1909C22.7416 12.1909 23.2179 12.112 23.6148 11.9542C24.0514 11.7964 24.3292 11.5991 24.5277 11.3229C24.8055 10.889 24.9643 10.1788 24.9643 9.23195Z" fill="#00ACA4"/>
<path fill-rule="evenodd" clip-rule="evenodd" d="M30.6828 4.97067C30.921 4.26053 31.3576 3.70819 31.9926 3.23476C32.6674 2.80078 33.3818 2.56406 34.2153 2.56406C35.287 2.56406 36.1205 2.87968 36.6364 3.55038C36.9143 3.90545 37.0731 4.41833 37.1524 5.08903C37.4303 4.29998 37.8669 3.70819 38.5019 3.23476C39.0973 2.80078 39.8514 2.56406 40.6452 2.56406C41.6772 2.56406 42.5107 2.87968 43.0664 3.51092C43.3045 3.78709 43.503 4.14217 43.5824 4.45779C43.6617 4.81286 43.7014 5.3652 43.7014 6.15425V11.796H45.4875V12.1905H40.0102V11.796H41.7963V4.89177C41.7963 3.66873 41.2803 3.07695 40.2483 3.07695C39.2957 3.07695 38.4622 3.55038 37.8272 4.49724C37.3906 5.16793 37.1921 5.72027 37.1921 6.1937V11.8749H38.9782V12.2694H33.5406V11.8749H35.3663V4.53669C35.3663 4.06326 35.2473 3.66873 35.0091 3.39257C34.771 3.1164 34.4138 2.95859 33.9375 2.95859C33.2627 2.95859 32.588 3.23476 31.9529 3.74764C31.3576 4.29998 30.921 4.93122 30.7225 5.75973V11.8354H32.4689V12.23H27.0709V11.8354H28.8173V3.43202H27.0312V3.03749H29.2539C30.0081 3.03749 30.4844 2.84023 30.6431 2.40625V4.97067H30.6828Z" fill="#00ACA4"/>
<path fill-rule="evenodd" clip-rule="evenodd" d="M46.9954 0.986316H54.2589V0H46.9954V0.986316ZM52.4728 6.90421V4.65541C52.4728 4.14253 52.3934 3.748 52.2743 3.51128C52.1155 3.27457 51.8377 3.11676 51.4408 2.9984C51.1233 2.9195 50.6867 2.88004 50.2104 2.88004C49.4166 2.88004 48.8212 2.9984 48.3846 3.23512C47.9877 3.43238 47.7495 3.70855 47.7495 3.98472C47.7495 4.10307 47.8289 4.22143 47.9877 4.37924C48.3052 4.61596 48.464 4.89213 48.464 5.20775C48.464 5.52337 48.3449 5.76009 48.1861 5.95735C47.9877 6.15461 47.7495 6.23352 47.4717 6.23352C47.1542 6.23352 46.916 6.11516 46.7176 5.9179C46.5191 5.72063 46.4001 5.44446 46.4001 5.08939C46.4001 4.37924 46.7573 3.78745 47.4717 3.27457C48.1861 2.76168 49.0593 2.52497 50.0516 2.52497C51.2027 2.52497 52.4728 2.72223 53.3856 3.31402C53.9016 3.62964 54.0604 3.90581 54.2192 4.18198C54.3382 4.45815 54.3779 4.81322 54.3779 5.28665V9.35028C54.4176 10.4944 54.497 11.2046 54.5367 11.3624C54.6161 11.7569 54.9336 11.9147 55.2511 11.9147C55.6083 11.8752 55.8068 11.7174 56.0053 10.9678H56.4022C56.0449 12.2698 55.4496 12.4276 54.5764 12.4276C54.0207 12.4276 53.4253 12.2303 53.1078 11.9936C52.7903 11.7174 52.5918 11.3624 52.5124 10.8495C52.1949 11.3624 51.7583 11.7569 51.1233 11.9936C50.5279 12.2698 49.9325 12.3881 49.1387 12.3881C47.9877 12.3881 47.1542 12.1514 46.5985 11.678C46.0825 11.244 45.8047 10.6917 45.8047 10.0999C45.8047 9.58699 46.0031 9.11356 46.3604 8.60068C46.7573 8.12724 47.1939 7.77217 47.7495 7.53546C48.3449 7.29874 48.9006 7.14093 49.7738 6.98312C50.6073 6.86476 51.4408 6.78586 52.2743 6.78586H52.4728V6.90421ZM52.4728 7.25929H52.3537C50.3691 7.25929 49.099 7.496 48.464 7.96943C48.0274 8.28506 47.8289 8.87685 47.8289 9.70535C47.8289 10.4944 47.948 11.0862 48.2655 11.4018C48.5434 11.7174 49.0196 11.9147 49.7341 11.9147C50.3691 11.9147 50.9248 11.7569 51.4408 11.4807C51.9568 11.2046 52.314 10.81 52.5124 10.3366V7.25929H52.4728Z" fill="#00ACA4"/>
<path fill-rule="evenodd" clip-rule="evenodd" d="M46.9961 0.986316H54.2595V0H46.9961V0.986316Z" fill="#00ACA4"/>
</svg>
