<svg width="45" height="45" viewBox="0 0 45 45" fill="none" xmlns="http://www.w3.org/2000/svg">
<path d="M22.003 2.37796C16.5859 2.37796 11.6801 4.57522 8.12829 8.12979C4.57508 11.6762 2.37918 16.5847 2.37918 22.0045C2.37918 27.4202 4.57508 32.3253 8.12829 35.8731C11.6801 39.4229 16.5859 41.6242 22.003 41.6242C27.4214 41.6242 32.3299 39.4229 35.8763 35.8731C39.4282 32.3253 41.6194 27.4202 41.6194 22.0045C41.6194 16.5847 39.4282 11.6762 35.8763 8.12979C32.3299 4.57522 27.4214 2.37796 22.003 2.37796ZM22.003 0.00013868C34.1525 0.00013868 44.0033 9.85229 44.0033 22.0045C44.0033 34.1526 34.1525 44.0034 22.003 44.0034C9.85485 44.0034 0 34.1526 0 22.0045C0 9.85229 9.85485 0.00013868 22.003 0.00013868Z" fill="#007DB8"/>
<path d="M11.5978 21.8249C11.5978 20.5427 10.747 19.8143 9.54258 19.8143H8.80543V23.8369H9.52161C10.6415 23.8369 11.5978 23.2282 11.5978 21.8249ZM24.7103 23.2722L19.2798 27.5483L14.3165 23.6408C13.6003 25.3612 11.8697 26.5562 9.87666 26.5562H5.62891V17.0936H9.87666C12.1037 17.0936 13.7085 18.5098 14.3151 20.0186L19.2798 16.115L21.1186 17.5623L16.5685 21.1385L17.443 21.8229L21.9917 18.2487L23.8332 19.6919L19.2838 23.2722L20.1569 23.9579L24.7103 20.377V17.0936H28.0113V23.7943H31.3041V26.5677H24.7103V23.2722ZM35.4856 23.7956H38.7771V26.5677H32.1813V17.0936H35.4856V23.7956Z" fill="#007DB8"/>
</svg>
