<svg width="57" height="12" viewBox="0 0 57 12" fill="none" xmlns="http://www.w3.org/2000/svg">
<path d="M23.9368 2.66602C22.9178 2.66602 21.7589 3.13955 21.0509 4.08759L21.0514 4.08567L21.0509 4.08615L21.0514 2.8149H18.6211V11.6872H21.0509V6.63874C21.0509 5.73008 21.7537 4.76428 23.0548 4.76428C24.0603 4.76428 25.1009 5.46546 25.1009 6.63874V11.6872H27.5311V6.18729C27.5311 4.14666 26.0748 2.66602 23.9368 2.66602Z" fill="#E60012"/>
<path d="M44.8029 2.81641L42.6059 8.86002L40.409 2.81641H37.6328L41.2742 11.6859H43.9373L47.5786 2.81641H44.8029Z" fill="#E60012"/>
<path d="M11.3658 5.48851C11.7797 4.93141 12.4389 4.60435 13.2351 4.60435C14.1108 4.60435 14.7753 5.10574 15.1188 5.84583L10.8729 7.61175C10.7569 6.70549 10.9883 5.99663 11.3658 5.48851ZM16.0347 8.95984C15.0119 9.71865 14.4275 9.89971 13.4948 9.89971C12.6554 9.89971 11.9982 9.63845 11.5349 9.18028L17.7479 6.59648C17.6123 5.63355 17.2477 4.7734 16.6867 4.11929C15.8704 3.16885 14.6622 2.66602 13.191 2.66602C10.5188 2.66602 8.50391 4.64229 8.50391 7.25251C8.50391 9.93045 10.5236 11.8385 13.4588 11.8385C15.1034 11.8385 16.785 11.0571 17.5716 10.1442L16.0347 8.95984Z" fill="#E60012"/>
<path d="M8.27206 9.45084H2.74849V0.162109H0.285156V11.6879H8.27206V9.45084Z" fill="#E60012"/>
<path d="M51.9434 4.75371C50.5863 4.75371 49.6008 5.78483 49.6008 7.25155C49.6008 8.65199 50.6447 9.74939 51.976 9.74939C53.3337 9.74939 54.3186 8.68993 54.3186 7.25155C54.3186 5.85111 53.2752 4.75371 51.9434 4.75371ZM51.9434 11.8371C49.2856 11.8371 47.2031 9.85217 47.2031 7.25155C47.2031 4.68023 49.3 2.66602 51.976 2.66602C54.6338 2.66602 56.7158 4.65094 56.7158 7.25155C56.7158 9.82239 54.6195 11.8371 51.9434 11.8371Z" fill="#E60012"/>
<path d="M33.232 4.75371C31.8748 4.75371 30.8899 5.78483 30.8899 7.25155C30.8899 8.65199 31.9333 9.74939 33.2651 9.74939C34.6222 9.74939 35.6072 8.68993 35.6072 7.25155C35.6072 5.85111 34.5638 4.75371 33.232 4.75371ZM33.232 11.8371C30.5742 11.8371 28.4922 9.85217 28.4922 7.25155C28.4922 4.68023 30.5886 2.66602 33.2651 2.66602C35.9224 2.66602 38.0049 4.65094 38.0049 7.25155C38.0049 9.82239 35.908 11.8371 33.232 11.8371Z" fill="#E60012"/>
</svg>
