<svg width="60" height="19" viewBox="0 0 60 19" fill="none" xmlns="http://www.w3.org/2000/svg">
<path d="M9.5087 1.55078H10.0556C14.4311 1.73318 17.8647 5.41159 17.6824 9.8196C17.5305 13.954 14.1881 17.298 10.0556 17.45H9.47831C5.34589 17.298 2.00349 13.954 1.85156 9.78919V9.2116C2.00349 5.04679 5.34589 1.70278 9.5087 1.55078ZM8.47559 2.94918C6.50054 3.34438 4.82934 4.59079 3.88739 6.35399C3.34045 7.35719 3.09737 8.48199 3.09737 9.60679C3.12775 11.4308 3.91777 13.1636 5.25473 14.41C5.25473 12.5252 5.25473 10.61 5.25473 8.72519C5.25473 7.63079 5.77129 6.59719 6.65246 5.95879C8.08058 4.98599 10.2987 5.38119 11.1799 6.90119C11.818 7.90439 11.6661 9.1204 11.6661 10.2756C11.6964 10.5188 11.5749 10.762 11.3926 10.914C11.0887 11.0964 10.6937 11.0356 10.5114 10.7316C10.481 10.7012 10.4506 10.6404 10.4506 10.5796C10.2987 9.6068 10.633 8.51239 10.1164 7.60039C9.56947 6.53639 7.89827 6.38439 7.10824 7.26599C6.74362 7.69159 6.53092 8.26919 6.56131 8.84679C6.56131 11.0052 6.56131 13.1636 6.56131 15.322C9.78217 17.1156 13.8234 15.9604 15.6162 12.738C17.1051 10.0324 16.5581 6.62759 14.2488 4.56039C14.2488 6.47559 14.2488 8.36039 14.2488 10.2756C14.2792 11.3396 13.793 12.3428 12.9423 13.0116C11.818 13.7716 10.3595 13.802 9.20484 13.0724C8.59713 12.6468 8.17174 12.0388 7.98942 11.3396C7.74634 10.5796 7.86788 9.75879 7.8375 8.96839C7.8375 8.69479 7.80711 8.39079 8.01981 8.17799C8.26289 7.93479 8.68829 7.90439 8.93137 8.17799C8.99214 8.23879 9.02253 8.29959 9.05291 8.36039C9.26561 9.36359 8.8706 10.458 9.38715 11.4004C9.93409 12.5252 11.7268 12.6468 12.4865 11.7044C12.8207 11.2788 12.9726 10.7316 12.9423 10.2148C12.9423 8.05639 12.9423 5.86759 12.9423 3.70919C11.6053 2.91878 10.0252 2.64518 8.47559 2.94918ZM23.1518 6.96199C24.5495 5.59399 26.798 5.59399 28.1654 6.99239C28.8338 7.72199 29.1985 8.72519 29.1377 9.698C29.1377 10.8532 29.1377 12.0084 29.1377 13.1332C28.6211 13.1332 28.0742 13.1332 27.5577 13.1332V9.698C27.588 9.15079 27.4057 8.60359 27.1019 8.17799C26.403 7.38759 25.218 7.32679 24.428 7.99559C24.0026 8.42119 23.7595 8.99879 23.7595 9.60679C23.7595 10.7924 23.7595 11.978 23.7595 13.1636C23.2125 13.1636 22.696 13.1636 22.1794 13.1636C22.1794 11.978 22.1794 10.7924 22.1794 9.60679C22.149 8.63399 22.5137 7.69159 23.1518 6.96199ZM33.2701 6.01959C35.2756 5.65479 37.1898 6.99239 37.5545 8.99879C37.9191 11.0052 36.5821 12.9204 34.5767 13.2852C32.5713 13.65 30.657 12.3124 30.2923 10.306C30.262 10.0628 30.2316 9.8196 30.2316 9.5764C30.262 7.84359 31.5078 6.35399 33.2701 6.01959ZM33.3613 7.56999C32.2066 7.87399 31.5381 9.05959 31.842 10.2148C32.1459 11.37 33.3309 12.0388 34.4855 11.7348C35.6098 11.4308 36.3087 10.2756 36.0352 9.12039C35.7313 7.96519 34.5463 7.26599 33.3613 7.56999ZM43.4492 6.29319C44.3912 6.01959 45.3939 5.92839 46.3662 6.01959C47.1867 6.04999 48.0071 6.17159 48.7971 6.38439C48.7971 6.90119 48.7971 7.38759 48.7971 7.90439C47.764 7.63079 46.7005 7.47879 45.637 7.47879C45.0293 7.47879 44.3608 7.44839 43.8139 7.75239C43.5404 7.90439 43.4492 8.23879 43.6012 8.51239C43.6619 8.60359 43.7531 8.69479 43.8443 8.72519C44.5127 8.96839 45.242 8.93799 45.9712 8.99879C46.822 9.08999 47.7032 9.1812 48.4021 9.6676C49.3136 10.3364 49.1617 11.8868 48.2805 12.5252C47.4601 13.1332 46.427 13.2244 45.4243 13.2548C44.2696 13.2852 43.115 13.1636 41.9907 12.8596C41.9907 12.3732 41.9907 11.8868 41.9907 11.4004C43.2973 11.7044 44.6343 11.826 45.9712 11.7652C46.3662 11.7652 46.7613 11.6436 47.1259 11.4612C47.369 11.3092 47.4297 11.0052 47.3082 10.762C47.2474 10.6708 47.1563 10.61 47.0651 10.5492C46.3359 10.306 45.5155 10.3668 44.7558 10.2452C43.905 10.1236 42.9631 9.94119 42.325 9.33319C41.8388 8.84679 41.8388 8.05639 42.0515 7.44839C42.325 6.90119 42.8415 6.47559 43.4492 6.29319ZM38.8307 6.11079C39.3776 6.11079 39.8941 6.11079 40.4107 6.11079C40.4107 8.45159 40.4107 10.8228 40.4107 13.1636C39.8638 13.1636 39.3472 13.1636 38.8307 13.1636C38.8307 10.8228 38.8307 8.45159 38.8307 6.11079ZM50.8025 6.90119C51.4102 6.29319 52.3218 6.08039 53.1726 6.08039C54.6007 6.08039 56.0288 6.08039 57.4873 6.08039V7.53959H53.1422C52.6864 7.50919 52.261 7.63079 51.866 7.87399C51.5622 8.11719 51.5318 8.54279 51.471 8.90759C53.4461 8.90759 55.4515 8.90759 57.4265 8.90759V10.3364H51.471C51.471 10.7316 51.6229 11.0964 51.8964 11.4004C52.2306 11.6436 52.6256 11.7652 53.0207 11.7348H57.4569V13.2244C55.9377 13.2244 54.4488 13.2244 52.9295 13.2244C52.0483 13.194 51.1064 12.9204 50.5898 12.1604C49.9821 11.3396 49.9517 10.2756 49.9821 9.30279C50.0125 8.42119 50.1948 7.53959 50.8025 6.90119Z" fill="black"/>
</svg>
