<svg width="62" height="19" viewBox="0 0 62 19" fill="none" xmlns="http://www.w3.org/2000/svg">
<path d="M1 0.59375H61V18.4062H1V0.59375ZM13.4781 2.34611C13.4687 2.99122 13.4687 3.63632 13.4687 4.28142C12.8219 4.29105 12.175 4.29105 11.5281 4.28142V5.26351C12.175 5.26351 12.8219 5.25388 13.4687 5.27314V7.21807C13.7781 7.21807 14.0875 7.21807 14.3969 7.2277C14.4062 6.57297 14.3969 5.91824 14.3969 5.27314C15.0156 5.26351 15.6437 5.25388 16.2625 5.28277C16.3 4.94578 16.2812 4.60878 16.2719 4.28142C15.6437 4.29105 15.025 4.29105 14.3969 4.28142V2.34611H13.4781ZM2.9125 4.28142V16.0569C6.7375 16.0569 10.5625 16.0473 14.3969 16.0666C14.4156 13.6691 14.3969 11.2716 14.3969 8.87415H13.4687V15.0652C10.2719 15.0845 7.06562 15.0748 3.86875 15.0748V5.26351C5.88437 5.26351 7.9 5.27314 9.91562 5.25388C9.89687 4.92652 9.91562 4.59915 9.89687 4.28142C7.5625 4.30067 5.2375 4.28142 2.9125 4.28142ZM17.9969 4.29105C17.9781 4.31993 17.9406 4.35845 17.9219 4.3777C17.9125 8.09425 17.9219 11.8108 17.9219 15.5274C17.9312 15.7007 17.8844 15.9029 17.9781 16.0666C31.6844 16.0473 45.3812 16.0569 59.0875 16.0569V4.29105C45.3906 4.30068 31.6937 4.29105 17.9969 4.29105ZM6.7375 7.24696C6.74687 7.56469 6.74687 7.88243 6.7375 8.19054C7.27187 8.2098 7.79687 8.20017 8.33125 8.20017C8.33125 9.51925 8.34062 10.8287 8.33125 12.1478C7.79687 12.1574 7.2625 12.1382 6.7375 12.1574C6.74687 12.4752 6.74687 12.7929 6.7375 13.101C8.10625 13.1106 9.475 13.101 10.8437 13.1106V12.1478C10.3281 12.1382 9.80312 12.1767 9.2875 12.1189C9.29687 10.4917 9.2875 8.86453 9.2875 7.23733C8.43437 7.24696 7.59062 7.2277 6.7375 7.24696Z" fill="white" stroke="white" stroke-width="0.125333"/>
<path d="M13.4758 2.3457H14.3945V4.28101C15.0227 4.29064 15.6414 4.29064 16.2695 4.28101C16.2789 4.60837 16.2977 4.94536 16.2602 5.28236C15.6414 5.25347 15.0133 5.2631 14.3945 5.27273C14.3945 5.91783 14.4039 6.57256 14.3945 7.22729C14.0852 7.21766 13.7758 7.21766 13.4664 7.21766V5.27273C12.8195 5.25347 12.1727 5.2631 11.5258 5.2631V4.28101C12.1727 4.29064 12.8195 4.29064 13.4664 4.28101C13.4664 3.63591 13.4664 2.9908 13.4758 2.3457ZM2.91016 4.28101C5.23516 4.28101 7.56016 4.30026 9.89453 4.28101C9.91328 4.59874 9.89453 4.92611 9.91328 5.25347C7.89765 5.27273 5.88203 5.2631 3.86641 5.2631V15.0744C7.06328 15.0744 10.2695 15.084 13.4664 15.0648V8.87374H14.3945C14.3945 11.2712 14.4133 13.6687 14.3945 16.0661C10.5602 16.0469 6.73516 16.0565 2.91016 16.0565V4.28101ZM17.9945 4.29064C31.6914 4.29064 45.3883 4.30026 59.0851 4.29064V16.0565C45.3789 16.0565 31.682 16.0469 17.9758 16.0661C17.882 15.9025 17.9289 15.7003 17.9195 15.527C17.9195 11.8104 17.9102 8.09384 17.9195 4.37729C17.9383 4.35803 17.9758 4.31952 17.9945 4.29064ZM22.8883 7.31395C22.2508 7.47763 21.6508 7.86276 21.2852 8.43084C20.507 9.62476 20.6383 11.3964 21.6695 12.3881C22.832 13.4761 24.8945 13.3798 25.8883 12.0992C26.807 10.9053 26.7133 8.98928 25.5977 7.94942C24.8758 7.28506 23.8258 7.09249 22.8883 7.31395ZM27.5008 7.22729C27.4914 9.19148 27.4914 11.1653 27.4914 13.1295C27.8102 13.1295 28.1289 13.1295 28.4476 13.1199C28.4289 11.7719 28.4758 10.4143 28.4289 9.06631L28.532 9.12408C29.4508 10.3854 30.3789 11.6371 31.2977 12.8984C31.5039 13.245 31.9633 13.1199 32.2914 13.1006C32.2726 11.1557 32.282 9.20111 32.282 7.25617C31.9633 7.24655 31.6351 7.20803 31.3164 7.25617C31.3351 8.60415 31.2977 9.95212 31.3352 11.2905C30.332 10.0195 29.3758 8.70043 28.3914 7.41023C28.1945 7.12138 27.7914 7.29469 27.5008 7.22729ZM33.5477 7.23692C33.557 9.20111 33.5477 11.1557 33.5477 13.1102C34.7195 13.1199 35.9008 13.1295 37.0726 13.1006C37.0633 12.8214 37.0633 12.5422 37.0633 12.2629C36.2195 12.2629 35.3758 12.2437 34.532 12.2629C34.4945 11.6756 34.4945 11.0786 34.532 10.4817C35.1602 10.5009 35.7883 10.4913 36.4164 10.4913C36.4164 10.2217 36.4164 9.94249 36.407 9.66327C35.7789 9.68253 35.1508 9.65364 34.5226 9.68253C34.4758 9.16259 34.532 8.63303 34.4945 8.1131C35.3476 8.0457 36.2101 8.10347 37.0726 8.08422C37.0633 7.80499 37.0633 7.51614 37.0726 7.23692C35.9008 7.21766 34.7195 7.21766 33.5477 7.23692ZM38.3289 7.24655C38.3383 9.19148 38.3383 11.146 38.3289 13.1006C38.5914 13.1006 38.8445 13.1006 39.0976 13.1102V10.8187C39.707 10.7994 40.3445 10.8861 40.9351 10.6935C41.4039 10.5395 41.8351 10.2025 42.0226 9.73067C42.2851 9.09519 42.1914 8.28641 41.7133 7.78574C41.3195 7.38134 40.7289 7.24655 40.1851 7.22729C39.5664 7.22729 38.9476 7.20803 38.3289 7.24655ZM43.1476 13.1295C44.207 13.1102 45.257 13.1295 46.3164 13.1295C46.3164 12.8984 46.3258 12.677 46.307 12.4555C45.5008 12.4748 44.7039 12.4555 43.8976 12.4651C43.8976 10.7224 43.8883 8.98928 43.907 7.25617C43.6539 7.20803 43.4008 7.22729 43.1476 7.21766C43.1195 9.19148 43.1101 11.1653 43.1476 13.1295ZM46.9539 7.23692C46.9633 8.36344 46.9539 9.48033 46.9539 10.6069C46.9351 11.1364 47.0195 11.6949 47.3101 12.1474C47.9383 13.1969 49.4195 13.428 50.4039 12.8214C51.0508 12.4266 51.407 11.6563 51.4164 10.8957C51.4258 9.6729 51.4164 8.45009 51.4164 7.22729C51.1633 7.22729 50.9101 7.21766 50.657 7.21766V10.7994C50.6664 11.2712 50.5164 11.7719 50.1695 12.0896C49.6164 12.5999 48.6883 12.5807 48.1539 12.0415C47.8445 11.7237 47.7133 11.252 47.7133 10.7994C47.7133 9.6055 47.7226 8.41158 47.7133 7.22729C47.4601 7.21766 47.207 7.21766 46.9539 7.23692ZM53.4883 7.50651C52.7476 7.94942 52.5414 9.0952 53.0945 9.76918C53.4508 10.1928 54.0133 10.318 54.5195 10.4913C54.8758 10.6069 55.2883 10.7513 55.4383 11.1364C55.5976 11.5986 55.3726 12.1763 54.932 12.3688C54.482 12.571 53.9289 12.5229 53.4976 12.2629C53.3008 12.1666 53.1508 11.9645 52.9258 11.9067C52.7195 11.9741 52.6445 12.2244 52.5508 12.417C53.2633 13.1391 54.4445 13.3895 55.3539 12.8888C56.1695 12.4459 56.4976 11.1942 55.9164 10.4335C55.3633 9.78844 54.4258 9.82695 53.7695 9.34553C53.3289 9.0278 53.4414 8.27678 53.8914 8.02644C54.4351 7.71834 55.1195 7.88202 55.5883 8.25753C55.8789 8.45009 55.9726 7.98793 56.0851 7.80499C55.4008 7.15989 54.2851 7.00584 53.4883 7.50651Z" fill="#EB0028" stroke="#EB0028" stroke-width="0.125333"/>
<path d="M6.73828 7.24791C7.59141 7.22865 8.43516 7.24791 9.28828 7.23828C9.28828 8.86548 9.29766 10.4927 9.28828 12.1199C9.80391 12.1776 10.3289 12.1391 10.8445 12.1488V13.1116C9.47578 13.102 8.10703 13.1116 6.73828 13.102C6.74766 12.7939 6.74766 12.4761 6.73828 12.1584C7.26328 12.1391 7.79766 12.1584 8.33203 12.1488C8.34141 10.8297 8.33203 9.52021 8.33203 8.20112C7.79766 8.20112 7.27266 8.21075 6.73828 8.19149C6.74766 7.88338 6.74766 7.56565 6.73828 7.24791Z" fill="#EB0028" stroke="#EB0028" stroke-width="0.125333"/>
<path d="M22.8923 7.31345C23.8298 7.09199 24.8798 7.28456 25.6017 7.94892C26.7173 8.98878 26.811 10.9048 25.8923 12.0987C24.8985 13.3793 22.836 13.4756 21.6735 12.3876C20.6423 11.3959 20.511 9.62426 21.2892 8.43034C21.6548 7.86226 22.2548 7.47713 22.8923 7.31345ZM22.9767 8.25703C22.4329 8.44959 22.0485 8.9599 21.936 9.52797C21.8048 10.1827 21.8423 10.9048 22.1985 11.4729C22.836 12.4839 24.5423 12.4743 25.1423 11.4248C25.4142 10.953 25.4704 10.3849 25.4142 9.84571C25.3673 9.32578 25.1517 8.78659 24.7298 8.47848C24.2329 8.10297 23.5485 8.06446 22.9767 8.25703ZM27.5048 7.22679C27.7954 7.29419 28.1985 7.12088 28.3954 7.40973C29.3798 8.69993 30.336 10.019 31.3392 11.29C31.3017 9.95162 31.3392 8.60365 31.3204 7.25567C31.6392 7.20753 31.9673 7.24605 32.286 7.25567C32.286 9.20061 32.2767 11.1552 32.2954 13.1001C31.9673 13.1194 31.5079 13.2445 31.3017 12.8979C30.3829 11.6366 29.4548 10.3849 28.536 9.12358L28.4329 9.06581C28.4798 10.4138 28.4329 11.7714 28.4517 13.1194C28.1329 13.129 27.8142 13.129 27.4954 13.129C27.4954 11.1648 27.4954 9.19098 27.5048 7.22679ZM33.5517 7.23642C34.7235 7.21716 35.9048 7.21716 37.0767 7.23642C37.0673 7.51564 37.0673 7.80449 37.0767 8.08372C36.2142 8.10297 35.3517 8.0452 34.4985 8.1126C34.536 8.63253 34.4798 9.16209 34.5267 9.68203C35.1548 9.65314 35.7829 9.68203 36.411 9.66277C36.4204 9.94199 36.4204 10.2212 36.4204 10.4908C35.7923 10.4908 35.1642 10.5004 34.536 10.4812C34.4985 11.0781 34.4985 11.6751 34.536 12.2624C35.3798 12.2432 36.2235 12.2624 37.0673 12.2624C37.0673 12.5417 37.0673 12.8209 37.0767 13.1001C35.9048 13.129 34.7235 13.1194 33.5517 13.1097C33.5517 11.1552 33.561 9.20061 33.5517 7.23642ZM38.3329 7.24605C38.9517 7.20753 39.5704 7.22679 40.1892 7.22679C40.7329 7.24605 41.3235 7.38084 41.7173 7.78524C42.1954 8.28591 42.2892 9.09469 42.0267 9.73017C41.8392 10.202 41.4079 10.539 40.9392 10.693C40.3485 10.8856 39.711 10.7989 39.1017 10.8182V13.1097C38.8485 13.1001 38.5954 13.1001 38.3329 13.1001C38.3423 11.1455 38.3423 9.19098 38.3329 7.24605ZM39.1017 7.84301V10.1923C39.486 10.1923 39.8704 10.202 40.2548 10.1827C40.6485 10.1538 41.0704 9.96125 41.2579 9.58574C41.5204 9.08507 41.436 8.33405 40.911 8.03557C40.3485 7.73709 39.7017 7.88152 39.1017 7.84301ZM43.1517 13.129C43.1142 11.1648 43.1235 9.19098 43.1517 7.21716C43.4048 7.22679 43.6579 7.20753 43.911 7.25567C43.8923 8.98878 43.9017 10.7219 43.9017 12.4646C44.7079 12.455 45.5048 12.4743 46.311 12.455C46.3298 12.6765 46.3204 12.8979 46.3204 13.129C45.261 13.129 44.211 13.1097 43.1517 13.129ZM46.9579 7.23642C47.211 7.21716 47.4642 7.21716 47.7173 7.22679C47.7267 8.41108 47.7173 9.605 47.7173 10.7989C47.7173 11.2515 47.8485 11.7232 48.1579 12.041C48.6923 12.5802 49.6204 12.5994 50.1735 12.0891C50.5204 11.7714 50.6704 11.2707 50.661 10.7989V7.21716C50.9142 7.21716 51.1673 7.22679 51.4204 7.22679C51.4204 8.44959 51.4298 9.6724 51.4204 10.8952C51.411 11.6558 51.0548 12.4261 50.4079 12.8209C49.4235 13.4275 47.9423 13.1964 47.3142 12.1469C47.0235 11.6944 46.9392 11.1359 46.9579 10.6063C46.9579 9.47983 46.9673 8.36294 46.9579 7.23642ZM53.4923 7.50601C54.2892 7.00534 55.4048 7.15939 56.0892 7.80449C55.9767 7.98743 55.8829 8.44959 55.5923 8.25703C55.1235 7.88152 54.4392 7.71784 53.8954 8.02594C53.4454 8.27628 53.3329 9.0273 53.7735 9.34503C54.4298 9.82645 55.3673 9.78794 55.9204 10.433C56.5017 11.1937 56.1735 12.4454 55.3579 12.8883C54.4485 13.389 53.2673 13.1386 52.5548 12.4165C52.6485 12.2239 52.7235 11.9736 52.9298 11.9062C53.1548 11.964 53.3048 12.1661 53.5017 12.2624C53.9329 12.5224 54.486 12.5705 54.936 12.3683C55.3767 12.1758 55.6017 11.5981 55.4423 11.1359C55.2923 10.7508 54.8798 10.6064 54.5235 10.4908C54.0173 10.3175 53.4548 10.1923 53.0985 9.76868C52.5454 9.09469 52.7517 7.94892 53.4923 7.50601Z" fill="white" stroke="white" stroke-width="0.125333"/>
<path d="M39.0984 7.84391C39.6984 7.88243 40.3452 7.738 40.9077 8.03648C41.4327 8.33496 41.5171 9.08597 41.2546 9.58665C41.0671 9.96215 40.6452 10.1547 40.2515 10.1836C39.8671 10.2029 39.4827 10.1932 39.0984 10.1932V7.84391ZM22.9734 8.25793C23.5452 8.06536 24.2296 8.10388 24.7265 8.47938C25.1484 8.78749 25.364 9.32668 25.4109 9.84661C25.4671 10.3858 25.4109 10.9539 25.139 11.4257C24.539 12.4752 22.8327 12.4848 22.1952 11.4738C21.839 10.9057 21.8015 10.1836 21.9327 9.52888C22.0452 8.9608 22.4296 8.4505 22.9734 8.25793Z" fill="#EB0028" stroke="#EB0028" stroke-width="0.125333"/>
</svg>
