<svg width="49" height="12" viewBox="0 0 49 12" fill="none" xmlns="http://www.w3.org/2000/svg">
<path d="M12.4585 6.21008V0.420281H14.2113V0.802948C14.2113 1.01346 14.2145 1.18567 14.2182 1.18567C14.2221 1.18567 14.3327 1.11629 14.4641 1.03151C16.0143 0.0312973 18.2678 -0.269917 20.289 0.252978C22.1099 0.724091 23.43 1.84236 23.8993 3.31149C24.1735 4.17001 24.1584 5.1247 23.8574 5.95495C23.483 6.98777 22.7133 7.81814 21.6032 8.38701C20.6317 8.8848 19.5225 9.13406 18.2789 9.13406C17.248 9.13406 16.2866 8.95694 15.4402 8.61123C15.1044 8.47404 14.6739 8.24887 14.4127 8.07372L14.2113 7.93868V12H12.4585V6.21008ZM19.1268 7.59482C20.1127 7.45076 20.8777 7.12851 21.4512 6.61565C21.8854 6.22746 22.1877 5.68832 22.3022 5.09807C22.3491 4.85665 22.3492 4.2866 22.3025 4.04591C22.1676 3.35125 21.7812 2.74448 21.2028 2.319C20.9697 2.14753 20.4961 1.90311 20.1938 1.79837C19.3401 1.50257 18.3051 1.41497 17.3571 1.5583C15.7111 1.80711 14.5987 2.64808 14.3002 3.86896C14.1685 4.40765 14.1921 4.98921 14.3661 5.49744C14.7613 6.65192 15.9269 7.42019 17.5741 7.61192C17.9052 7.6505 18.8144 7.64046 19.1268 7.59482ZM24.9378 6.21008V0.420281H26.6905V0.802948C26.6905 1.01346 26.6944 1.18567 26.699 1.18567C26.7036 1.18567 26.8 1.12345 26.9133 1.04747C27.1753 0.871483 27.6925 0.608287 28.0242 0.482217C29.4558 -0.0621128 31.2038 -0.149939 32.7335 0.245701C35.2271 0.890605 36.6955 2.65745 36.5568 4.84605C36.451 6.51666 35.3719 7.88893 33.597 8.6101C33.018 8.84531 32.4246 8.99367 31.682 9.08883C31.2901 9.13903 30.2338 9.13903 29.8246 9.08871C28.6666 8.9464 27.6499 8.59216 26.8572 8.05477L26.6905 7.94179V12H24.9378V6.21008ZM31.6485 7.58631C33.0139 7.37625 33.9762 6.80958 34.4818 5.91778C34.7755 5.39974 34.8854 4.71061 34.7765 4.07079C34.5501 2.74093 33.4156 1.8207 31.6785 1.55801C30.532 1.38467 29.2376 1.55734 28.3576 2.00098C27.4594 2.45387 26.9188 3.13003 26.7342 4.03153C26.6858 4.26821 26.6859 4.87662 26.7345 5.10856C26.8652 5.73299 27.1606 6.24963 27.609 6.63788C28.2263 7.1725 29.0298 7.49087 30.0723 7.61395C30.4172 7.65462 31.3055 7.63905 31.6485 7.58631ZM5.21863 9.1221C4.28886 9.03749 3.49527 8.84881 2.82046 8.55188C1.28552 7.87652 0.316055 6.73665 0.0529499 5.29792C0.00268344 5.02316 -0.0164814 4.4041 0.0160988 4.1083C0.206104 2.38342 1.43955 1.01718 3.38965 0.371602C4.42739 0.0280823 5.70476 -0.0841681 6.85136 0.0674545C8.95198 0.345316 10.541 1.34874 11.2394 2.83851C11.8081 4.05149 11.7359 5.52491 11.0523 6.65768C10.7444 7.16794 10.2374 7.69455 9.71501 8.04676C8.90221 8.5947 7.93143 8.93557 6.75236 9.08702C6.51619 9.11737 5.43771 9.14202 5.21863 9.1221ZM6.46204 7.61378C7.37636 7.51382 8.14553 7.24487 8.72425 6.82295C9.19735 6.47796 9.57177 5.96951 9.73976 5.44385C9.83811 5.1362 9.8576 4.99175 9.8576 4.57129C9.8576 4.15207 9.83838 4.00879 9.7408 3.70092C9.4201 2.68892 8.48212 1.93611 7.17152 1.63896C6.0224 1.37836 4.68229 1.46895 3.68944 1.87423C2.97312 2.16665 2.40775 2.64002 2.07615 3.22485C1.72363 3.84674 1.64357 4.69375 1.86851 5.42371C2.11086 6.21025 2.74927 6.86847 3.62779 7.23765C4.1063 7.43875 4.69877 7.57892 5.28532 7.62968C5.51037 7.64914 6.22697 7.63944 6.46204 7.61378ZM42.6183 9.12278C42.5816 9.1185 42.453 9.1053 42.3324 9.09356C41.3649 8.99908 40.3477 8.68433 39.602 8.24864C38.5939 7.65964 37.8917 6.82244 37.5711 5.82736C37.3542 5.15397 37.3172 4.39716 37.467 3.70087C37.6937 2.64803 38.3158 1.75403 39.282 1.09282C40.556 0.220882 42.4294 -0.16641 44.2377 0.068357C45.7401 0.263357 46.9779 0.829403 47.8392 1.71533C48.4952 2.39002 48.8722 3.18062 48.9813 4.10954C49.0096 4.35096 49.0052 4.83916 48.9723 5.09531C48.736 6.93988 47.3165 8.34972 45.1427 8.89896C44.4836 9.06547 44.0699 9.1159 43.2946 9.12414C42.9593 9.12769 42.655 9.12707 42.6183 9.12278ZM43.7709 7.62292C44.9283 7.51326 45.8716 7.12033 46.4771 6.49573C46.8871 6.07285 47.1251 5.60732 47.2189 5.04466C47.2576 4.81282 47.257 4.32947 47.2178 4.089C47.0068 2.79435 45.8987 1.85584 44.2568 1.58131C43.8625 1.51537 43.6003 1.49388 43.1898 1.49388C41.3489 1.49388 39.9205 2.20895 39.3712 3.40552C39.2074 3.76218 39.1319 4.13024 39.1319 4.57129C39.1319 5.15324 39.2635 5.61482 39.5607 6.07471C40.1064 6.91901 41.1411 7.45837 42.5107 7.61248C42.7932 7.64424 43.4856 7.64993 43.7709 7.62292Z" fill="#006B33"/>
</svg>
