<svg width="56" height="9" viewBox="0 0 56 9" fill="none" xmlns="http://www.w3.org/2000/svg">
<path d="M5.68701 3.32505C5.68701 4.4458 5.06861 5.20487 3.50252 5.20487H3.00766V1.63552C3.18359 1.6268 3.34789 1.6268 3.50252 1.6268C4.98541 1.62668 5.68701 2.24101 5.68701 3.32505ZM4.07946 6.75899C6.88164 6.75899 8.65335 5.49362 8.65335 3.28932C8.65321 0.867233 6.75782 0 3.66738 0C2.47219 0 1.02991 0.0720648 0 0.180469V8.81965H3.0078V6.75899H4.07946ZM44.3793 3.32505C44.3793 4.4458 43.7618 5.20487 42.1953 5.20487H41.7021V1.63552C41.8765 1.6268 42.041 1.6268 42.1953 1.6268C43.6783 1.62668 44.3793 2.24101 44.3793 3.32505ZM42.7736 6.75899C45.5735 6.75899 47.3462 5.49362 47.3462 3.28932C47.3462 0.867233 45.4511 0 42.3604 0C41.1655 0 39.7224 0.0720648 38.6923 0.180469V8.81965H41.7017V6.75899H42.7736ZM51.2603 2.38526C51.2603 1.91555 51.7966 1.69837 52.6611 1.69837C53.6092 1.69837 54.6401 1.87921 55.34 2.13322L55.0931 0.253025C54.3097 0.108404 53.6092 0 52.3322 0C49.9008 0 48.253 0.840715 48.253 2.6028C48.253 5.63824 52.9513 5.02428 52.9513 6.4339C52.9513 6.97556 52.4973 7.26455 51.3842 7.26455C50.3968 7.26455 48.871 6.97556 47.9646 6.57816L48.2952 8.56675C49.2009 8.85587 50.4371 9 51.4264 9C53.9392 9 56 8.2769 56 6.10783C56 3.21726 51.2603 3.75891 51.2603 2.38526ZM36.4269 0.180469H33.4191V8.81965H36.4269V0.180469ZM24.2294 0.180469H21.2213V8.81965H24.2294V0.180469ZM29.4626 7.08408V0.180469H26.4545V8.81965H31.8943L32.3471 7.08408H29.4626ZM18.9963 0.180469H15.9883V3.61429H12.8565V0.180469H9.84785V8.81965H12.8564V5.42156H15.9881V8.81965H18.9962L18.9963 0.180469Z" fill="#1978BE"/>
</svg>
