<svg width="50" height="12" viewBox="0 0 50 12" fill="none" xmlns="http://www.w3.org/2000/svg">
<path d="M18.6068 11.9879C17.5488 11.868 16.6936 11.4854 16.0064 10.8246C15.1568 10.0079 14.7058 8.90687 14.7058 7.64874C14.7058 5.11981 16.5658 3.26577 19.0982 3.2698C19.7658 3.27095 20.4318 3.42339 21.0197 3.7104C21.2999 3.84728 21.6585 4.08098 21.8481 4.25042C21.9199 4.31468 21.9856 4.36713 21.9938 4.36713C22.0021 4.36713 22.0091 4.15302 22.0091 3.89166V3.41561H23.1057V11.8819H22.0091V10.9018L21.909 10.9831C21.1736 11.5796 20.5042 11.8701 19.6169 11.9781C19.4226 12.0018 18.7829 12.0081 18.6068 11.9879ZM19.6181 10.8673C20.9437 10.6494 21.8628 9.73275 22.1248 8.36685C22.1858 8.05016 22.1872 7.25338 22.1278 6.9413C22.0583 6.57735 21.9653 6.29812 21.8107 5.98978C21.3544 5.07976 20.5504 4.52821 19.4791 4.38989C19.1082 4.34177 18.5665 4.3726 18.212 4.46165C17.1784 4.72128 16.3812 5.45437 16.0203 6.47764C15.8704 6.90269 15.8401 7.09979 15.8401 7.64874C15.8401 8.07091 15.8481 8.1709 15.8981 8.39077C16.1984 9.70393 17.1611 10.6408 18.4428 10.8681C18.709 10.9151 19.329 10.9148 19.6181 10.8673ZM9.04199 11.9539C8.30895 11.8787 7.63184 11.6456 7.05277 11.2695C6.72894 11.0592 6.22258 10.5606 6.00179 10.235C5.46246 9.43911 5.20369 8.48413 5.24167 7.42916C5.27641 6.47015 5.54901 5.65119 6.07833 4.91637C6.15546 4.80889 6.35359 4.58873 6.51786 4.42678C7.10518 3.8493 7.81231 3.48362 8.66457 3.31677C9.00784 3.24963 9.77591 3.22427 10.133 3.26807C11.7781 3.47094 13.0104 4.54925 13.4337 6.15692C13.5368 6.54853 13.5833 6.88194 13.6013 7.36202L13.6169 7.78274H6.34829L6.36478 8.03287C6.43838 9.14489 7.09752 10.1411 8.08168 10.6275C8.54682 10.8575 8.99047 10.9574 9.54834 10.958C10.5051 10.9592 11.2279 10.6699 11.8299 10.0457C11.9803 9.8898 12.3198 9.44343 12.3783 9.325C12.3857 9.3103 13.3351 9.91861 13.3351 9.93792C13.3351 9.997 12.9462 10.5036 12.7316 10.7235C11.9391 11.5361 10.957 11.9366 9.68347 11.9663C9.45031 11.9721 9.1618 11.9663 9.04199 11.9539ZM12.4752 6.72777C12.2688 5.45581 11.3821 4.53369 10.1321 4.29134C9.86894 4.24034 9.18859 4.2461 8.92335 4.30172C8.29335 4.43398 7.76785 4.70082 7.33127 5.11059C6.86907 5.54457 6.56114 6.08949 6.39628 6.76437L6.37979 6.83151H12.4917L12.4752 6.72777ZM45.4513 11.9522C43.5416 11.7781 42.1238 10.5114 41.7396 8.63686C41.4785 7.36116 41.7208 6.03099 42.3941 5.04777C43.0388 4.10548 43.9576 3.52281 45.1463 3.30092C45.482 3.23839 46.4799 3.23868 46.7973 3.30179C47.5904 3.45941 48.2463 3.79743 48.7924 4.33053C49.5799 5.09878 50 6.18545 50 7.4525V7.78274L46.3796 7.78908L42.7594 7.79513L42.7659 7.99051C42.7924 8.75904 43.1633 9.56273 43.7459 10.1123C44.1975 10.5385 44.7454 10.8082 45.3845 10.9197C45.6686 10.969 46.2789 10.9687 46.5647 10.9197C47.4506 10.7658 48.092 10.3396 48.6408 9.53968C48.7191 9.42557 48.7924 9.33479 48.8039 9.33796C48.8333 9.34546 49.6826 9.88029 49.7189 9.91429C49.7571 9.94974 49.5234 10.2947 49.2499 10.6065C48.3764 11.6003 46.9875 12.0925 45.4513 11.9522ZM48.8781 6.76437C48.8781 6.72748 48.8563 6.60847 48.8298 6.49983C48.5301 5.27629 47.6475 4.46165 46.4234 4.27809C45.9568 4.20806 45.4001 4.25619 44.9279 4.40776C43.9067 4.7354 43.1171 5.56388 42.846 6.59147C42.8189 6.69434 42.7968 6.7903 42.7968 6.80471C42.7968 6.82373 43.6711 6.83151 45.8376 6.83151H48.8787L48.8781 6.76437ZM0 7.63635V3.39141H5.18456V4.39134L3.14677 4.39768L1.10927 4.40373L1.1028 8.14295L1.09661 11.8819H0V7.63635ZM25.0249 5.9284V0H26.1465V11.8574H25.0249V5.9284ZM28.066 7.62396V3.39083H29.1626L29.1637 3.94612L29.1649 4.50113L29.2574 4.39162C29.5621 4.02911 29.8762 3.77409 30.2318 3.60032C30.6557 3.39285 31.0287 3.30236 31.5554 3.27758C32.163 3.24963 32.6573 3.34184 33.1384 3.57295C33.6485 3.81789 34.0156 4.17003 34.3616 4.74664C34.3851 4.78641 34.3998 4.77546 34.4896 4.64636C34.9609 3.97062 35.6622 3.52367 36.5406 3.33925C36.8889 3.26605 37.654 3.25856 37.9914 3.32484C38.6082 3.44673 39.0939 3.69196 39.4958 4.08502C39.9235 4.50343 40.1861 5.00743 40.3474 5.71833L40.4143 6.0137L40.4225 8.93569L40.4305 11.8571H39.3321V9.24921C39.3321 7.6231 39.3224 6.54623 39.3062 6.3886C39.2037 5.38694 38.6741 4.66307 37.8463 4.39278C37.5214 4.28803 37.1773 4.25323 36.8374 4.29077C35.7696 4.40401 35.0796 4.96939 34.8385 5.9284C34.7872 6.13185 34.7861 6.19121 34.7775 8.99649L34.7687 11.8571H33.6741V9.29906C33.6741 7.77006 33.6638 6.61712 33.6485 6.43327C33.5467 5.20338 32.8569 4.4239 31.755 4.29278C30.7496 4.17291 29.706 4.74751 29.3274 5.62987C29.169 5.99785 29.1782 5.80709 29.169 8.97257L29.1608 11.8574H28.0657L28.066 7.62396Z" fill="#676C73"/>
</svg>
