<svg width="64" height="22" viewBox="0 0 64 22" fill="none" xmlns="http://www.w3.org/2000/svg">
<path d="M63.9594 5.23777C63.0892 0.0640974 48.0754 -1.55045 30.4239 1.63145C23.0109 2.96843 16.3174 4.94041 11.1047 7.15892C11.9054 7.17707 12.4993 7.36718 12.8601 7.73979C13.1422 8.0322 13.2847 8.43353 13.2847 8.93354V9.44675H11.5539V8.9936C11.5539 8.61604 11.3352 8.38204 10.9479 8.38204C10.6224 8.38204 10.4219 8.53419 10.3572 8.83387C10.3356 8.95233 10.3379 9.07417 10.3643 9.19163C10.5495 9.97547 13.1196 10.4623 13.3991 11.9088C13.4358 12.095 13.4855 12.4933 13.4071 13.0633C13.2468 14.23 12.2567 14.6802 10.9963 14.6802C9.23713 14.6802 8.52248 13.8174 8.52248 12.628L8.52375 12.0653H10.3792L10.3802 12.7663C10.3802 13.1603 10.6569 13.3778 11.0336 13.3778C11.3907 13.3778 11.5991 13.229 11.6712 12.9247C11.7046 12.7847 11.7193 12.5785 11.6584 12.4207C11.3151 11.529 8.91519 11.1124 8.6197 9.67051C8.55372 9.34641 8.5483 9.0705 8.60312 8.72165C8.63125 8.54872 8.68298 8.38082 8.75676 8.22297C2.97484 11.0227 -0.407491 14.1033 0.0394058 16.763C0.910568 21.9374 15.924 23.5503 33.5752 20.3684C41.3343 18.97 48.31 16.8766 53.6189 14.5307C53.5421 14.5346 53.4675 14.5432 53.3878 14.5432C52.1797 14.5432 51.101 14.0745 50.9892 12.796C50.9694 12.5633 50.9659 12.4659 50.9653 12.3333L50.9659 9.39394C50.9659 9.2672 50.9802 9.04476 50.9939 8.92991C51.1371 7.69424 52.0806 7.18467 53.3884 7.18467C54.4005 7.18467 55.6414 7.48533 55.7778 8.9309C55.796 9.11242 55.7941 9.30615 55.7938 9.36985V9.64741H54.0457V9.23321C54.0457 9.2243 54.0432 9.06951 54.024 8.97281C53.9954 8.82528 53.8739 8.48337 53.376 8.48337C52.8842 8.48337 52.7567 8.82594 52.7248 8.97314C52.7066 9.054 52.698 9.17017 52.698 9.29889V12.4933C52.6964 12.6042 52.7018 12.691 52.7127 12.7547C52.7213 12.8049 52.8096 13.2452 53.3821 13.2452C53.9504 13.2452 54.0384 12.8049 54.0464 12.7547C54.0613 12.6682 54.0632 12.5653 54.0626 12.4933V11.5035H53.3747V10.4375H55.8072V12.3339C55.8065 12.463 55.8046 12.5583 55.7836 12.796C55.7543 13.1313 55.6522 13.4151 55.4922 13.6577C61.1224 10.8897 64.4005 7.85893 63.9594 5.23777ZM18.1897 14.4072L17.3042 8.17742H17.2723L16.3642 14.4072H14.4979L15.7532 7.3718H18.7982L20.0459 14.4072H18.1897ZM27.1666 14.4072L27.1254 8.29788H27.0955L25.9974 14.4072H24.2458L23.1531 8.29788H23.1219L23.082 14.4072H21.3464L21.4968 7.3718H24.2885L25.1013 12.5979H25.1412L25.9562 7.3718H28.7466L28.8965 14.4072H27.1666ZM35.3398 13.0438C35.153 14.4066 33.8636 14.6448 32.9523 14.6448C31.4392 14.6448 30.5033 13.9752 30.5033 12.6125L30.5043 12.0567H32.3374L32.3387 12.7491C32.3387 13.125 32.5947 13.3551 32.9899 13.3551C33.3425 13.3551 33.549 13.2085 33.6207 12.9075C33.6539 12.7673 33.6676 12.5626 33.609 12.4082C33.2711 11.5332 30.89 11.1045 30.6005 9.68503C30.5342 9.36325 30.5294 9.08997 30.5839 8.74476C30.7854 7.45794 31.9782 7.19061 32.9383 7.19061C33.797 7.19061 34.4221 7.38467 34.797 7.77279C35.0765 8.06257 35.218 8.46026 35.218 8.95499V9.46259H33.5038V9.01473C33.5038 8.63122 33.2739 8.40944 32.9045 8.40944C32.5768 8.40944 32.3785 8.56026 32.3135 8.85697C32.2924 8.97421 32.2952 9.09473 32.3218 9.21077C32.5054 9.99098 35.0529 10.4679 35.3318 11.9009C35.3678 12.0837 35.4173 12.4762 35.3398 13.0438ZM41.6888 12.4045C41.6913 12.5366 41.6789 12.8003 41.6719 12.8679C41.5673 14.027 40.7666 14.6161 39.2981 14.6161C37.8239 14.6161 37.0225 14.027 36.9186 12.8679C36.9068 12.7142 36.9012 12.5601 36.9017 12.4059V7.37015H38.6555V12.5646C38.6536 12.6808 38.6593 12.7666 38.6705 12.8263C38.6922 12.9418 38.8031 13.3168 39.2981 13.3168C39.7916 13.3168 39.9025 12.9415 39.9258 12.8277C39.9356 12.7663 39.9417 12.6762 39.9417 12.5643V7.37015H41.6888V12.4045ZM49.2449 14.3356H46.8045L45.1664 8.76291H45.139L45.2299 14.3356H43.529V7.3718H46.0717L47.5858 12.725H47.6212L47.5316 7.3718H49.2449V14.3356Z" fill="#2D4F9E"/>
</svg>
