<svg width="317" height="298" viewBox="0 0 317 298" fill="none" xmlns="http://www.w3.org/2000/svg">
<path opacity="0.6" d="M90.3371 20.1631L146.788 35.8292C153.769 37.7669 161.125 36.548 166.524 32.5607L193.792 12.4215C204.396 4.59034 220.861 8.17351 227.73 19.8076L251.742 60.481C256.028 67.7408 264.451 72.2731 273.205 72.0296L292.112 71.5043C310.73 70.987 323.049 90.5641 312.623 104.098L249.017 186.662C245.477 191.258 244.37 197.154 245.977 202.851L262.075 259.917C266.675 276.224 249.313 289.166 232.435 282.013L198.376 267.58C185.165 261.981 170.479 268.732 168.28 281.414C165.459 297.679 143.28 302.805 130.539 290.135L114.944 274.626C108.59 268.308 98.9001 265.936 90.5108 268.646L84.2751 270.66C65.892 276.6 47.4627 258.538 55.3531 242.313L70.3439 211.486C74.4405 203.062 71.4049 192.778 63.0315 186.723L9.12722 147.741C-5.49113 137.169 -1.90401 116.665 15.2786 112.577L64.1504 100.946C76.4796 98.0122 82.7258 85.8831 77.6735 74.6886L64.7915 46.1483C57.7173 30.4729 72.6713 15.2609 90.3371 20.1631Z" fill="#2775B3"/>
<path d="M272.979 0C271.419 0 270.122 1.11629 269.838 2.59194L222.776 9.15276C222.388 7.8219 221.161 6.84778 219.705 6.84778C217.937 6.84778 216.505 8.28132 216.505 10.0479C216.505 10.3625 216.552 10.6666 216.637 10.9536L168.282 34.231C167.695 33.5228 166.809 33.0713 165.818 33.0713C164.779 33.0713 163.858 33.5689 163.273 34.3363L115.734 21.374C115.628 19.7022 114.242 18.3779 112.543 18.3779C110.775 18.3779 109.343 19.8114 109.343 21.578C109.343 21.7952 109.365 22.0085 109.406 22.2138L61.3543 50.3356C60.7935 49.8525 60.0656 49.5576 59.2665 49.5576C57.4986 49.5576 56.0664 50.9911 56.0664 52.7577C56.0664 54.5256 57.4999 55.9578 59.2665 55.9578C61.0344 55.9578 62.4666 54.5243 62.4666 52.7577C62.4666 52.5405 62.4442 52.3286 62.4034 52.1219L110.452 24.0002C111.013 24.4833 111.741 24.7781 112.54 24.7781C113.642 24.7781 114.614 24.2213 115.189 23.3736L162.615 36.3056C162.634 38.0564 164.058 39.4715 165.814 39.4715C167.582 39.4715 169.014 38.038 169.014 36.2714C169.014 36.2398 169.01 36.2095 169.009 36.1793L217.859 12.6622C218.381 13.0295 219.015 13.248 219.701 13.248C221.04 13.248 222.185 12.4253 222.663 11.259L270.122 4.64417C270.65 5.68543 271.728 6.40022 272.976 6.40022C274.744 6.40022 276.176 4.96668 276.176 3.20011C276.179 1.43353 274.747 0 272.979 0Z" fill="#222222"/>
<path d="M272.981 18.3779C271.213 18.3779 269.781 19.8115 269.781 21.578C269.781 21.7439 269.798 21.9058 269.822 22.0638L221.873 47.2052C221.303 46.68 220.544 46.3562 219.706 46.3562C218.181 46.3562 216.908 47.4238 216.586 48.852L169.321 54.6901C168.807 53.6094 167.708 52.8604 166.433 52.8604C165.641 52.8604 164.917 53.1487 164.359 53.6252L115.73 31.489C115.739 31.3863 115.746 31.2837 115.746 31.1784C115.746 29.4105 114.312 27.9783 112.545 27.9783C111.27 27.9783 110.172 28.726 109.657 29.8054L62.4482 24.4069C62.2639 22.8141 60.9133 21.5767 59.2704 21.5767C57.5025 21.5767 56.0703 23.0103 56.0703 24.7768C56.0703 26.5447 57.5038 27.9769 59.2704 27.9769C60.4275 27.9769 61.4372 27.3609 62.0006 26.4407L109.42 31.8629C109.735 33.3004 111.013 34.3772 112.545 34.3772C113.462 34.3772 114.286 33.9901 114.869 33.3728L163.297 55.4168C163.255 55.6235 163.232 55.838 163.232 56.0579C163.232 57.8258 164.666 59.258 166.433 59.258C167.964 59.258 169.242 58.1825 169.556 56.7463L216.81 50.9108C217.321 51.9995 218.424 52.7551 219.706 52.7551C221.474 52.7551 222.906 51.3215 222.906 49.555C222.906 49.3746 222.888 49.1982 222.859 49.0271L270.783 23.8988C271.357 24.4412 272.128 24.7768 272.98 24.7768C274.748 24.7768 276.18 23.3433 276.18 21.5767C276.181 19.8115 274.749 18.3779 272.981 18.3779Z" fill="#222222"/>
<path d="M94.2022 98.1582L92.2408 93.1335C91.6142 91.5276 91.8183 89.7175 92.7858 88.2906L95.8135 83.8268C96.4782 82.8461 96.5256 81.6469 95.9412 80.6174C95.3567 79.5867 94.2944 79.0115 93.1202 79.0826L87.7362 79.3945C86.0183 79.4893 84.357 78.7416 83.2987 77.3805L79.9893 73.122C79.3969 72.3611 78.54 71.9438 77.6159 71.9438C77.4053 71.9438 77.192 71.9662 76.9761 72.0097C75.8164 72.2479 74.9436 73.0733 74.6448 74.2185L73.2784 79.4353C72.8414 81.1032 71.6132 82.4472 69.9928 83.033L64.9194 84.8654C63.8058 85.2682 63.062 86.2107 62.9304 87.3862C62.7988 88.5631 63.3148 89.6465 64.3113 90.2862L68.8515 93.198C70.3021 94.1287 71.2012 95.7136 71.2578 97.4355L71.4329 102.826C71.471 104.009 72.1371 105.009 73.2152 105.497C74.2934 105.987 75.4847 105.83 76.3996 105.08L80.5711 101.662C81.9046 100.57 83.691 100.204 85.3443 100.683L90.5256 102.182C91.6642 102.511 92.8187 102.186 93.6164 101.312C94.4128 100.442 94.6327 99.2613 94.2022 98.1582Z" fill="white"/>
<path d="M97.6253 85.0588C98.7521 83.3976 98.8364 81.2808 97.8451 79.534C96.8539 77.7885 94.9873 76.7736 92.989 76.892L87.6051 77.204C86.6112 77.2619 85.6423 76.8249 85.0263 76.0338L81.7169 71.7753C80.4848 70.1904 78.4997 69.4545 76.5317 69.8586C74.565 70.2628 73.0275 71.7187 72.5181 73.6616L71.1517 78.8784C70.8976 79.8473 70.1842 80.6279 69.2429 80.9688L64.1696 82.8012C62.2819 83.4831 60.9695 85.1457 60.7444 87.1413C60.5206 89.137 61.4303 91.0483 63.1205 92.133L67.6607 95.0448C68.5031 95.5859 69.0257 96.506 69.0586 97.5065L69.2337 102.897C69.2982 104.903 70.4751 106.666 72.3022 107.495C73.0012 107.812 73.741 107.969 74.4742 107.969C75.6576 107.969 76.8253 107.564 77.7836 106.778L81.9552 103.36C82.7292 102.726 83.7652 102.513 84.7288 102.792L89.91 104.291C91.8385 104.849 93.8776 104.275 95.2308 102.793C96.5841 101.311 96.9724 99.2283 96.2431 97.3577L94.2817 92.3331C93.9171 91.3998 94.0356 90.348 94.5976 89.52L97.6253 85.0588ZM90.5208 102.186L85.3396 100.687C83.6849 100.208 81.8999 100.574 80.5664 101.666L76.3948 105.084C75.4786 105.834 74.2886 105.989 73.2105 105.501C72.1324 105.011 71.4663 104.013 71.4281 102.83L71.253 97.4393C71.1978 95.7162 70.2987 94.1326 68.8467 93.2019L64.3065 90.2901C63.31 89.6503 62.794 88.567 62.9257 87.3901C63.0573 86.2133 63.801 85.2708 64.9147 84.8693L69.988 83.0369C71.6098 82.4511 72.838 81.1057 73.2737 79.4392L74.6401 74.2224C74.9402 73.0772 75.8117 72.2505 76.9714 72.0135C77.1859 71.9701 77.4005 71.9477 77.6111 71.9477C78.5352 71.9477 79.3922 72.365 79.9846 73.1259L83.2939 77.3844C84.3523 78.7455 86.0149 79.4932 87.7314 79.3984L93.1154 79.0864C94.2896 79.014 95.3519 79.5906 95.9364 80.6213C96.5209 81.6507 96.4735 82.8513 95.8087 83.8306L92.7811 88.2945C91.8135 89.7201 91.6095 91.5314 92.2361 93.1374L94.1975 98.162C94.6279 99.2651 94.4081 100.446 93.6091 101.32C92.814 102.19 91.6582 102.515 90.5208 102.186Z" fill="#222222"/>
<path d="M62.8392 112.035C62.0678 111.024 61.8427 109.699 62.2376 108.49L63.3579 105.064C63.5606 104.446 63.4026 103.805 62.938 103.351C62.4733 102.897 61.8296 102.753 61.2161 102.969L57.8146 104.165C56.6154 104.587 55.2859 104.391 54.2578 103.642L51.3446 101.517C51.0485 101.301 50.7088 101.191 50.3653 101.191C50.102 101.191 49.8361 101.255 49.586 101.387C49.0094 101.689 48.6763 102.256 48.6908 102.906L48.7764 106.51C48.8067 107.782 48.2103 108.986 47.1796 109.732L44.2586 111.846C43.732 112.226 43.4832 112.837 43.5912 113.478C43.7004 114.119 44.1362 114.613 44.7601 114.798L48.2143 115.83C49.4333 116.194 50.3942 117.135 50.7852 118.345L51.8922 121.775C52.0923 122.394 52.5952 122.819 53.2376 122.914C53.88 123.01 54.4842 122.745 54.8541 122.211L56.9037 119.245C57.6251 118.2 58.8138 117.577 60.0827 117.577C60.0854 117.577 60.088 117.577 60.0906 117.577L63.6949 117.584C63.6962 117.584 63.6975 117.584 63.6988 117.584C64.3478 117.584 64.9059 117.238 65.1942 116.656C65.4825 116.074 65.4193 115.417 65.0257 114.901L62.8392 112.035Z" fill="white"/>
<path d="M66.7708 113.571L64.5829 110.705C64.2499 110.268 64.1525 109.695 64.3236 109.173L65.4439 105.746C65.9046 104.338 65.5321 102.82 64.4737 101.784C63.414 100.748 61.8896 100.411 60.4917 100.9L57.0901 102.096C56.5715 102.279 55.9975 102.193 55.5526 101.869L52.6395 99.7447C51.4429 98.8719 49.8843 98.7561 48.5706 99.4432C47.2581 100.13 46.4644 101.477 46.4999 102.958L46.5855 106.562C46.5986 107.111 46.3406 107.632 45.8957 107.954L42.9746 110.068C41.7741 110.937 41.1831 112.383 41.4305 113.843C41.678 115.303 42.714 116.475 44.1331 116.898L47.5872 117.93C48.1138 118.088 48.5298 118.494 48.6982 119.018L49.8053 122.448C50.2608 123.858 51.4534 124.868 52.9185 125.084C53.1107 125.113 53.3016 125.126 53.4925 125.126C54.7496 125.126 55.9291 124.516 56.6597 123.458L58.7093 120.492C59.0213 120.041 59.5346 119.771 60.0836 119.771C60.0849 119.771 60.0862 119.771 60.0875 119.771L63.6918 119.777C63.6944 119.777 63.697 119.777 63.6997 119.777C65.1779 119.777 66.5035 118.955 67.1604 117.63C67.8199 116.305 67.6698 114.747 66.7708 113.571ZM65.1951 116.657C64.9068 117.238 64.3486 117.586 63.6997 117.586C63.6983 117.586 63.697 117.586 63.6957 117.586L60.0915 117.579C60.0888 117.579 60.0862 117.579 60.0836 117.579C58.8146 117.579 57.6272 118.202 56.9045 119.247L54.8549 122.213C54.485 122.747 53.8795 123.012 53.2384 122.916C52.5947 122.821 52.0932 122.396 51.8931 121.777L50.786 118.346C50.3951 117.135 49.4341 116.195 48.2151 115.832L44.761 114.8C44.1383 114.613 43.7013 114.121 43.592 113.48C43.4841 112.839 43.7329 112.229 44.2594 111.847L47.1805 109.733C48.2112 108.987 48.8075 107.782 48.7772 106.512L48.6917 102.908C48.6759 102.258 49.0102 101.69 49.5868 101.389C49.8369 101.257 50.1028 101.193 50.3661 101.193C50.7084 101.193 51.048 101.302 51.3455 101.519L54.2586 103.644C55.2867 104.394 56.6162 104.589 57.8155 104.166L61.217 102.971C61.8304 102.755 62.4741 102.899 62.9388 103.353C63.4035 103.807 63.5601 104.448 63.3587 105.065L62.2385 108.492C61.8436 109.702 62.0674 111.026 62.8401 112.037L65.0279 114.903C65.4215 115.419 65.4847 116.074 65.1951 116.657ZM252.489 204.633C254.3 198.899 256.537 193.644 259.259 188.751C263.711 180.754 268.85 176.262 274.543 175.386C274.675 175.366 274.807 175.348 274.938 175.332C276.706 175.112 278.144 175.338 279.211 176.002C281.399 177.367 281.815 180.578 280.952 182.894C279.975 185.514 277.701 187.55 275.608 189.192C273.027 191.218 270.231 193.081 267.531 194.882C264.062 197.193 260.474 199.584 257.253 202.373C256.474 203.047 255.734 203.741 255.03 204.449C248.899 214.442 241.718 228.663 240.041 242.569C239.683 245.539 239.638 248.021 239.736 250.008C241.556 244.635 246.366 236.541 258.926 228.406C262.848 224.251 266.939 220.662 271.287 217.551C278.732 212.229 285.301 210.366 290.819 212.01C290.947 212.049 291.073 212.088 291.2 212.13C292.891 212.688 294.094 213.507 294.775 214.564C296.169 216.734 295.17 219.814 293.399 221.537C291.394 223.488 288.469 224.355 285.874 224.944C282.673 225.67 279.35 226.158 276.138 226.63C272.013 227.236 267.747 227.861 263.643 229.002C262.366 229.358 261.132 229.768 259.944 230.224C259.942 230.224 259.942 230.225 259.941 230.225C260.554 230.286 261.265 230.387 262.085 230.55C265.599 230.403 268.971 230.546 272.261 230.994C278.458 231.836 282.598 233.989 284.572 237.393C284.618 237.472 284.662 237.551 284.705 237.631C285.285 238.701 285.5 239.673 285.342 240.517C285.018 242.249 283.078 243.313 281.39 243.339C279.479 243.37 277.619 242.431 276.051 241.506C274.118 240.368 272.237 239.053 270.419 237.782C268.084 236.15 265.67 234.463 263.094 233.105C262.847 232.976 262.6 232.851 262.354 232.73C258.894 231.959 257.481 232.306 257.411 232.325C257.229 232.383 257.044 232.384 256.869 232.344C249.435 237.765 245.521 242.933 243.474 246.725C240.48 252.272 240.727 256.133 240.731 256.183C240.732 256.201 240.73 256.22 240.73 256.239C240.731 256.276 240.731 256.313 240.727 256.349C240.725 256.381 240.721 256.414 240.714 256.446C240.709 256.479 240.701 256.512 240.692 256.543C240.682 256.576 240.672 256.608 240.659 256.64C240.647 256.67 240.634 256.7 240.619 256.729C240.605 256.759 240.588 256.787 240.57 256.816C240.552 256.845 240.534 256.873 240.513 256.899C240.493 256.924 240.472 256.949 240.451 256.973C240.427 256.998 240.403 257.021 240.378 257.044C240.353 257.066 240.327 257.086 240.299 257.105C240.273 257.124 240.247 257.142 240.218 257.159C240.186 257.178 240.152 257.195 240.118 257.209C240.101 257.217 240.086 257.228 240.069 257.235C240.058 257.238 240.049 257.238 240.039 257.241C239.973 257.263 239.904 257.281 239.833 257.29C239.819 257.291 239.804 257.296 239.79 257.298C239.787 257.298 239.785 257.299 239.782 257.299C239.706 257.306 239.631 257.3 239.558 257.291C239.549 257.29 239.54 257.291 239.531 257.29C239.531 257.29 239.531 257.29 239.529 257.29C239.529 257.29 239.529 257.29 239.528 257.29C239.449 257.277 239.374 257.252 239.301 257.223C239.286 257.216 239.27 257.21 239.254 257.202C239.183 257.169 239.116 257.129 239.055 257.082C239.047 257.075 239.041 257.067 239.032 257.061C238.976 257.015 238.928 256.963 238.883 256.907C238.872 256.894 238.862 256.882 238.853 256.869C238.807 256.803 238.767 256.733 238.737 256.657C238.734 256.65 238.73 256.646 238.728 256.64C238.651 256.443 236.885 251.722 237.956 242.533C239.56 228.781 246.39 214.788 252.489 204.633Z" fill="#222222"/>
<path d="M274.089 183.913C275.301 183.913 276.283 182.931 276.283 181.719C276.283 180.507 275.301 179.524 274.089 179.524C272.877 179.524 271.895 180.507 271.895 181.719C271.895 182.931 272.877 183.913 274.089 183.913Z" fill="white"/>
<path d="M286.437 220.997C287.649 220.997 288.631 220.015 288.631 218.803C288.631 217.591 287.649 216.608 286.437 216.608C285.225 216.608 284.242 217.591 284.242 218.803C284.242 220.015 285.225 220.997 286.437 220.997Z" fill="white"/>
<path d="M280.215 240.279C281.225 240.279 282.044 239.461 282.044 238.451C282.044 237.441 281.225 236.623 280.215 236.623C279.205 236.623 278.387 237.441 278.387 238.451C278.387 239.461 279.205 240.279 280.215 240.279Z" fill="white"/>
<path d="M94.8817 190.065C99.9313 197.156 104.21 204.795 107.489 212.979C109.151 217.129 110.578 221.7 109.389 226.01C108.092 230.717 103.849 234.138 99.2692 235.832C88.0813 239.971 75.1479 235.136 66.5217 226.897C57.8955 218.658 52.6958 207.55 47.7936 196.676C43.934 188.114 40.0836 179.411 34.4653 171.822C32.0577 168.57 19.3441 156.676 23.3907 152.166C28.8905 145.81 48.7519 147.712 63.34 158.518C75.3546 167.418 86.2463 177.94 94.8817 190.065Z" fill="#222222"/>
<path d="M39.9201 159.867C40.2952 159.392 40.9863 159.311 41.4602 159.688C61.8943 175.861 76.7917 195.576 85.6918 209.267C85.7405 209.342 85.7865 209.415 85.8353 209.489C83.9831 200.234 78.6268 181.097 64.6403 168.934C64.2085 168.559 64.1625 167.903 64.5376 167.472C64.9128 167.04 65.5683 166.994 66.0001 167.369C76.2257 176.261 81.873 188.644 84.8098 197.467C87.4978 205.54 88.4548 212.036 88.7036 214.025C96.3505 226.428 100.23 235.295 100.272 235.394C100.513 235.95 100.257 236.596 99.7019 236.837C99.6967 236.839 99.6914 236.841 99.6861 236.843C99.1346 237.074 98.4975 236.818 98.2579 236.267C98.175 236.075 94.4035 227.515 86.9278 215.385C86.8844 215.328 86.8462 215.268 86.8146 215.202C84.0595 210.741 80.8041 205.802 77.0511 200.622C74.3157 201.31 65.7987 202.042 54.9333 189.229C54.5621 188.792 54.6174 188.139 55.0531 187.768C55.4902 187.396 56.1444 187.45 56.5143 187.887C65.5789 198.576 72.7452 199.119 75.6847 198.753C66.5846 186.455 54.728 172.983 40.0965 161.402C39.6252 161.032 39.5449 160.342 39.9201 159.867Z" fill="white"/>
<path d="M90.0671 77.5386C90.0448 69.0058 96.0461 58.6262 103.463 54.3467L167.444 17.425C171.177 15.2701 174.561 15.07 177.005 16.4904L182.723 19.8274C182.729 19.8313 182.736 19.8353 182.743 19.8392L182.779 19.8603V19.8616C185.19 21.2635 186.685 24.2399 186.697 28.4786L186.63 198.458C186.652 206.979 180.651 217.371 173.234 221.651L109.255 258.573C105.521 260.727 102.14 260.924 99.6964 259.502L99.6951 259.504L93.9188 256.135C91.5072 254.733 90.0118 251.752 90 247.518L90.0671 77.5386Z" fill="#222222"/>
<path d="M106.019 258.148L122.944 248.379L162.398 225.613L172.847 219.582C180.297 215.283 184.886 207.334 184.887 198.734L184.912 27.2633C184.912 22.631 179.899 19.7363 175.887 22.0505L162.223 29.9355C162.082 30.0172 161.954 30.1212 161.846 30.2423L151.955 41.3946C151.847 41.517 151.72 41.6197 151.579 41.7013L131.533 53.267C131.241 53.4355 130.9 53.5013 130.565 53.4552L123.765 52.5009C123.431 52.4535 123.09 52.5206 122.797 52.6891L110.387 59.8515C102.835 64.21 98.1826 72.2662 98.1813 80.9846L98.1563 253.605C98.1523 257.642 102.523 260.166 106.019 258.148Z" fill="white"/>
<path d="M150.407 40.1575L137.077 47.8517C136.343 48.2756 135.748 48.0241 135.748 47.2896C135.748 46.5551 136.343 45.6165 137.077 45.1926L150.407 37.4984C151.141 37.0745 151.736 37.326 151.736 38.0605C151.736 38.795 151.141 39.7336 150.407 40.1575ZM93.2446 108.548C93.5053 108.846 93.7278 109.196 93.8897 109.563C94.074 109.979 94.1793 110.416 94.1793 110.818L94.178 124.947C94.1766 125.476 93.991 125.847 93.6935 126.021L92.4851 126.721C92.7839 126.547 92.9695 126.176 92.9708 125.647L92.9722 111.518C92.9735 111.117 92.8668 110.68 92.6825 110.264C92.5206 109.898 92.2982 109.546 92.0375 109.25C91.8177 109 91.5702 108.787 91.3069 108.635L90.8475 108.371C90.3855 108.104 89.9656 108.08 89.6602 108.258L90.8673 107.556C91.1714 107.378 91.5926 107.403 92.0546 107.669L92.5141 107.934C92.7773 108.085 93.0261 108.298 93.2446 108.548Z" fill="white"/>
<path d="M93.015 111.532L92.9123 125.661C92.9018 126.727 92.1527 127.146 91.23 126.604L90.7732 126.335C89.8583 125.798 89.1185 124.505 89.129 123.439L89.2317 109.31C89.2422 108.256 89.9991 107.832 90.914 108.368L91.3708 108.636C92.2949 109.179 93.0255 110.478 93.015 111.532Z" fill="#222222"/>
<path d="M131.772 47.7013C130.87 48.2212 130.142 49.4836 130.145 50.5196C130.147 51.5556 130.88 51.9742 131.782 51.4543C132.684 50.9343 133.413 49.6719 133.41 48.6359C133.407 47.5986 132.673 47.18 131.772 47.7013ZM150.269 223.748C150.427 223.716 150.576 223.701 150.709 223.701C150.968 223.701 151.17 223.76 151.27 223.872C151.418 224.039 151.418 224.418 151.271 224.859C150.821 226.211 149.195 227.645 147.791 227.928C147.326 228.021 146.943 227.974 146.793 227.802C146.645 227.635 146.644 227.256 146.791 226.815C147.248 225.442 148.842 224.036 150.269 223.748Z" fill="white"/>
<path d="M145.238 229.177C145.741 229.746 146.491 230.047 147.363 230.047C147.631 230.047 147.912 230.018 148.2 229.96C150.339 229.529 152.552 227.576 153.238 225.515C153.629 224.341 153.477 223.242 152.822 222.499C152.164 221.754 151.083 221.469 149.86 221.716C147.722 222.148 145.511 224.1 144.824 226.161C144.431 227.337 144.583 228.436 145.238 229.177ZM146.789 226.817C147.247 225.441 148.84 224.037 150.268 223.748C150.426 223.717 150.575 223.701 150.708 223.701C150.967 223.701 151.168 223.76 151.269 223.872C151.417 224.039 151.417 224.419 151.27 224.859C150.82 226.211 149.194 227.645 147.789 227.928C147.325 228.021 146.942 227.974 146.792 227.803C146.643 227.637 146.641 227.258 146.789 226.817Z" fill="#222222"/>
<path d="M135.91 128.485L99.2305 107.308V87.9893L135.91 125.448V128.485Z" fill="white"/>
<path d="M171.24 44.2881L164.336 48.2754L201.668 86.4016L208.573 82.4143L191.951 65.4396L171.24 44.2881Z" fill="white"/>
<path d="M202.465 91.3223L209.36 87.3403V84.4956L202.465 88.4763V91.3223Z" fill="white"/>
<path d="M106.406 81.7231L129.606 105.415L143.737 119.849L150.643 115.862L114.688 79.143L113.311 77.7358L106.406 81.7231Z" fill="white"/>
<path d="M144.539 124.767L151.436 120.785V117.937L144.539 121.917V124.767Z" fill="white"/>
<path d="M194.092 90.7771L156.76 52.6509L149.855 56.6369L187.188 94.7631L194.092 90.7771Z" fill="white"/>
<path d="M187.973 99.6889L194.868 95.7069V92.8608L187.973 96.8416V99.6889Z" fill="white"/>
<path d="M222.13 74.5881L184.799 36.4619L178.82 39.9134L203.288 64.8996L216.153 78.0383L222.13 74.5881Z" fill="white"/>
<path d="M216.953 80.1093V82.9539L222.752 79.6064V76.7617L216.953 80.1093Z" fill="white"/>
<path d="M179.609 99.1389L142.277 61.0127L135.371 64.9987L141.063 70.8118L172.703 103.125L179.609 99.1389Z" fill="white"/>
<path d="M173.5 108.044L180.395 104.062V101.216L173.5 105.197V108.044Z" fill="white"/>
<path d="M165.124 107.5L127.791 69.374L120.887 73.36L158.219 111.486L165.124 107.5Z" fill="white"/>
<path d="M159.012 116.411L165.907 112.43V109.582L159.012 113.562V116.411Z" fill="white"/>
<path d="M224.397 73.9117C224.383 73.9025 224.366 73.8999 224.35 73.892L185.153 33.8623L97.9185 84.2268C97.85 84.24 97.7829 84.2584 97.717 84.2847C97.3037 84.4532 97.0352 84.8547 97.0352 85.301V107.941C97.0352 108.334 97.2445 108.696 97.5841 108.892L136.458 131.335C136.628 131.432 136.817 131.482 137.007 131.482C137.196 131.482 137.386 131.433 137.556 131.335L224.398 81.19C224.738 80.9938 224.947 80.6318 224.947 80.2395V74.8621C224.946 74.4699 224.737 74.1078 224.397 73.9117ZM216.953 82.9539V80.1092L222.752 76.7617V79.6063L216.953 82.9539ZM208.573 82.4142L201.669 86.4002L164.336 48.274L171.241 44.288L191.951 65.4395L208.573 82.4142ZM194.867 95.7069L187.972 99.689V96.8417L194.867 92.8609V95.7069ZM114.685 79.143L150.641 115.862L143.736 119.848L129.604 105.415L106.404 81.7218L113.308 77.7358L114.685 79.143ZM135.909 128.485L99.2296 107.308V87.989L135.909 125.448V128.485ZM151.437 120.785L144.542 124.767V121.917L151.437 117.937V120.785ZM120.887 73.3601L127.791 69.3742L165.123 107.5L158.219 111.486L120.887 73.3601ZM165.907 112.43L159.011 116.412V113.564L165.907 109.583V112.43ZM141.061 70.8116L135.369 64.9985L142.274 61.0125L179.606 99.1387L172.702 103.125L141.061 70.8116ZM180.397 104.062L173.502 108.044V105.197L180.397 101.216V104.062ZM149.853 56.6369L156.758 52.6509L194.09 90.7771L187.186 94.7631L149.853 56.6369ZM209.358 87.3401L202.462 91.3221V88.4761L209.358 84.4954V87.3401ZM203.286 64.8998L178.819 39.9124L184.797 36.4608L222.129 74.587L216.151 78.0386L203.286 64.8998Z" fill="#222222"/>
<path d="M261.301 87.3858L214.812 99.5488L219.849 118.8L266.338 106.637L261.301 87.3858Z" fill="white"/>
<path d="M226.827 119.245L261.689 110.125C261.69 110.125 261.692 110.124 261.694 110.124L269.017 108.209L262.871 84.7114L212.137 97.9831L218.283 121.48L226.827 119.245C226.826 119.247 226.826 119.247 226.827 119.245ZM223.826 112.78C221.657 111.835 219.369 112.526 218.318 112.953L216.586 106.332C218.987 105.63 220.589 104.393 221.35 102.65C222.127 100.87 221.8 99.0125 221.424 97.8225L254.008 89.299C254.723 91.5539 255.931 93.0665 257.608 93.7984C258.405 94.1459 259.218 94.2723 259.98 94.2723C261.19 94.2723 262.268 93.9537 262.95 93.6917L264.567 99.8708C262.287 100.583 260.758 101.797 260.021 103.487C259.246 105.267 259.571 107.124 259.947 108.314L227.284 116.859C226.558 114.837 225.398 113.466 223.826 112.78ZM262.076 107.757C261.797 106.924 261.51 105.564 262.034 104.364C262.495 103.305 263.536 102.513 265.125 101.998L266.34 106.642L262.076 107.757ZM262.391 91.5513C261.727 91.8356 259.982 92.4451 258.476 91.7817C257.433 91.3223 256.649 90.2994 256.134 88.7422L261.302 87.3902L262.391 91.5513ZM219.296 98.3793C219.576 99.2126 219.864 100.572 219.339 101.773C218.857 102.877 217.739 103.691 216.029 104.204L214.812 99.5522L219.296 98.3793ZM218.881 115.1C219.364 114.875 221.308 114.071 222.96 114.797C223.905 115.213 224.636 116.098 225.148 117.418L219.851 118.804L218.881 115.1Z" fill="#222222"/>
<path d="M241.804 110.253C240.625 110.253 239.437 109.807 238.367 108.946C237.034 107.873 236.033 106.262 235.549 104.411C234.518 100.471 236.177 96.6125 239.245 95.8082C242.315 95.0039 245.651 97.5577 246.681 101.499C247.166 103.35 247.082 105.244 246.444 106.833C245.761 108.535 244.533 109.696 242.984 110.101C242.595 110.203 242.2 110.253 241.804 110.253ZM240.405 97.8552C240.201 97.8552 239.999 97.8802 239.801 97.9315C237.934 98.4199 236.959 101.133 237.671 103.855C238.037 105.255 238.773 106.455 239.743 107.236C240.617 107.939 241.571 108.202 242.428 107.978C243.286 107.753 243.989 107.057 244.407 106.015C244.87 104.86 244.924 103.454 244.558 102.054C243.922 99.6218 242.115 97.8552 240.405 97.8552ZM226.296 107.929C225.809 107.929 225.364 107.603 225.235 107.109C225.082 106.524 225.432 105.923 226.018 105.771L232.1 104.18C232.686 104.029 233.286 104.378 233.439 104.964C233.591 105.549 233.241 106.15 232.655 106.302L226.574 107.893C226.482 107.918 226.388 107.929 226.296 107.929ZM249.464 101.869C248.977 101.869 248.532 101.542 248.403 101.049C248.251 100.463 248.601 99.8627 249.186 99.71L255.268 98.1198C255.854 97.9671 256.454 98.3172 256.607 98.903C256.76 99.4888 256.409 100.089 255.824 100.242L249.742 101.832C249.65 101.857 249.556 101.869 249.464 101.869Z" fill="#222222"/>
<path d="M215.214 143.295L244.837 168.455C237.456 177.144 226.615 182.161 215.214 182.161C193.892 182.161 176.348 164.617 176.348 143.295C176.348 121.974 193.892 104.429 215.214 104.429C218.123 104.429 221.021 104.756 223.858 105.402L215.214 143.295Z" fill="white"/>
<path d="M215.214 183.258C204.609 183.258 194.593 179.082 187.009 171.499C179.427 163.916 175.25 153.9 175.25 143.294C175.25 132.689 179.426 122.673 187.009 115.089C194.593 107.506 204.608 103.33 215.214 103.33C218.201 103.33 221.19 103.667 224.102 104.331C224.693 104.465 225.062 105.053 224.927 105.644L216.431 142.887L245.547 167.617C246.009 168.009 246.066 168.701 245.672 169.163C238.067 178.121 226.965 183.258 215.214 183.258ZM215.214 105.526C205.195 105.526 195.73 109.474 188.561 116.643C181.394 123.81 177.444 133.276 177.444 143.295C177.444 153.314 181.392 162.779 188.561 169.948C195.73 177.116 205.195 181.065 215.214 181.065C225.953 181.065 236.119 176.526 243.279 168.571L214.503 144.131C214.191 143.867 214.053 143.451 214.144 143.052L222.541 106.245C220.132 105.768 217.672 105.526 215.214 105.526Z" fill="#222222"/>
<path d="M232.992 106.678L219.855 140.119L255.55 136.033C254.628 129.622 252.068 123.547 248.114 118.401C244.16 113.257 238.948 109.22 232.992 106.678Z" fill="white"/>
<path d="M257.871 136.872C257.046 129.666 254.275 122.817 249.854 117.065C245.434 111.314 239.53 106.873 232.778 104.22C232.213 103.998 231.578 104.277 231.356 104.84L217.146 141.015C217.005 141.374 217.063 141.78 217.298 142.084C217.507 142.356 217.829 142.513 218.168 142.513C218.209 142.513 218.251 142.511 218.293 142.507L256.907 138.088C257.197 138.055 257.46 137.909 257.642 137.68C257.821 137.451 257.904 137.161 257.871 136.872ZM219.855 140.119L232.991 106.678C238.948 109.22 244.16 113.256 248.114 118.401C252.068 123.547 254.627 129.621 255.55 136.033L219.855 140.119Z" fill="#222222"/>
<path d="M257.679 143.122L223.484 144.757L252.551 162.841C255.913 157.071 257.685 150.522 257.685 143.828C257.685 143.593 257.682 143.357 257.679 143.122Z" fill="white"/>
<path d="M259.835 141.92C259.806 141.314 259.303 140.844 258.687 140.877L219.865 142.733C219.386 142.756 218.977 143.089 218.856 143.553C218.735 144.018 218.931 144.508 219.338 144.76L252.338 165.292C252.518 165.404 252.718 165.458 252.916 165.458C253.282 165.458 253.64 165.275 253.848 164.94C257.794 158.599 259.879 151.299 259.879 143.83C259.881 143.193 259.865 142.55 259.835 141.92ZM223.485 144.756L257.68 143.122C257.685 143.357 257.686 143.593 257.686 143.828C257.686 150.521 255.914 157.071 252.552 162.841L223.485 144.756Z" fill="#222222"/>
<path d="M195.972 161.316C195.66 161.336 195.348 161.191 195.135 160.954C194.922 160.717 194.822 160.4 194.86 160.084L195.77 152.739L126.316 193.045L138.432 191.827C138.469 191.823 138.506 191.822 138.542 191.822C138.851 191.822 139.148 191.954 139.358 192.185C139.592 192.445 139.687 192.801 139.616 193.144L137.789 201.876L208.425 161.049L195.972 161.316Z" fill="white"/>
<path d="M213.73 159.567C213.597 159.092 213.165 158.765 212.674 158.765C212.666 158.765 212.658 158.765 212.65 158.765L197.195 159.096L198.22 150.817C198.271 150.404 198.083 149.997 197.736 149.766C197.388 149.537 196.941 149.524 196.58 149.732L120.824 193.695C120.378 193.955 120.172 194.49 120.33 194.981C120.489 195.474 120.974 195.784 121.483 195.736L137.16 194.16L135.137 203.83C135.049 204.254 135.217 204.69 135.567 204.944C135.758 205.082 135.985 205.152 136.211 205.152C136.4 205.152 136.59 205.103 136.76 205.004L213.222 160.811C213.656 160.562 213.864 160.049 213.73 159.567ZM139.615 193.144C139.686 192.801 139.591 192.446 139.357 192.185C139.148 191.952 138.852 191.822 138.541 191.822C138.504 191.822 138.467 191.823 138.432 191.827L126.316 193.045L195.769 152.739L194.859 160.084C194.82 160.4 194.92 160.719 195.135 160.954C195.349 161.19 195.66 161.336 195.972 161.316L208.425 161.05L137.788 201.878L139.615 193.144Z" fill="#222222"/>
<path d="M135.14 203.831L137.161 194.178L122.418 195.645L117.695 279.415L137.86 290.979L135.118 204.091C135.114 204.004 135.121 203.917 135.14 203.831Z" fill="white"/>
<path d="M137.312 204.152L139.613 193.162C139.684 192.82 139.589 192.464 139.355 192.204C139.122 191.943 138.778 191.811 138.43 191.846L121.264 193.553C120.726 193.607 120.308 194.044 120.277 194.582L115.463 279.966C115.439 280.381 115.652 280.773 116.012 280.98L138.468 293.859C138.636 293.957 138.826 294.004 139.014 294.004C139.21 294.004 139.405 293.952 139.579 293.848C139.92 293.642 140.122 293.27 140.111 292.872L137.312 204.152ZM117.694 279.415L122.417 195.645L137.159 194.178L135.139 203.831C135.12 203.917 135.114 204.004 135.116 204.091L137.858 290.979L117.694 279.415Z" fill="#222222"/>
<path d="M116.566 280.032L133.275 273.489L136.213 204.055L139.019 292.909L116.566 280.032Z" fill="#222222"/>
<path d="M194.941 160.359L195.005 169.173L209.677 160.702L194.941 160.359Z" fill="#222222"/>
<path d="M137.328 204.678L140.056 291.049L215.289 247.864L211.653 161.719L137.328 204.678Z" fill="white"/>
<path d="M213.771 159.816C213.755 159.433 213.54 159.085 213.204 158.901C212.867 158.717 212.459 158.721 212.127 158.913L135.665 203.106C135.315 203.309 135.105 203.687 135.118 204.091L137.923 292.945C137.935 293.329 138.148 293.681 138.485 293.868C138.651 293.961 138.835 294.007 139.02 294.007C139.208 294.007 139.396 293.958 139.566 293.861L216.963 249.435C217.319 249.231 217.531 248.846 217.514 248.437L213.771 159.816ZM140.058 291.049L137.331 204.678L211.656 161.719L215.293 247.864L140.058 291.049Z" fill="#222222"/>
<path d="M188.742 181.914C188.963 182.862 188.531 184.036 187.779 184.539C187.028 185.04 186.238 184.68 186.018 183.732C185.797 182.784 186.227 181.61 186.98 181.107C187.733 180.605 188.522 180.966 188.742 181.914ZM166.391 195.538C166.612 196.486 166.18 197.66 165.429 198.162C164.677 198.663 163.887 198.303 163.667 197.355C163.446 196.407 163.877 195.233 164.63 194.73C165.383 194.23 166.171 194.591 166.391 195.538Z" fill="#222222"/>
<path d="M178.201 214.32C176.961 214.32 175.742 214.016 174.554 213.409C167.712 209.91 164.273 197.285 164.131 196.751C163.975 196.165 164.322 195.565 164.908 195.408C165.494 195.253 166.094 195.599 166.251 196.185C166.284 196.307 169.58 208.403 175.555 211.457C177.129 212.262 178.717 212.341 180.404 211.696C184.43 210.161 187.188 207.592 188.603 204.064C192.066 195.429 186.582 183.696 186.525 183.579C186.266 183.031 186.498 182.377 187.045 182.118C187.592 181.86 188.246 182.09 188.507 182.637C188.751 183.151 194.461 195.341 190.642 204.874C188.99 208.997 185.809 211.981 181.186 213.745C180.182 214.129 179.184 214.32 178.201 214.32Z" fill="#222222"/>
<path d="M110.959 155.967C110.544 155.967 110.147 155.73 109.962 155.33C109.708 154.78 109.948 154.128 110.498 153.874L147.058 137.001C147.607 136.745 148.26 136.986 148.514 137.536C148.768 138.087 148.528 138.738 147.978 138.992L111.418 155.866C111.268 155.934 111.113 155.967 110.959 155.967ZM145.065 158.633C144.811 158.082 144.158 157.842 143.609 158.097L110.497 173.379C109.947 173.633 109.707 174.284 109.961 174.835C110.147 175.236 110.543 175.472 110.958 175.472C111.112 175.472 111.268 175.439 111.417 175.37L144.529 160.089C145.079 159.835 145.319 159.183 145.065 158.633ZM136.25 153.58C135.996 153.03 135.343 152.789 134.794 153.045L110.498 164.259C109.948 164.513 109.708 165.165 109.962 165.715C110.148 166.116 110.544 166.352 110.959 166.352C111.113 166.352 111.269 166.319 111.418 166.251L135.715 155.036C136.264 154.782 136.504 154.131 136.25 153.58ZM286.525 87.7564C284.41 87.7564 283.025 86.881 282.126 85.8555C280.162 83.6111 279.617 79.4303 280.559 74.1872C278.269 73.8489 275.652 73.5224 272.664 73.2183C261.057 72.0362 249.547 71.7677 249.432 71.765C248.86 71.7519 248.407 71.278 248.419 70.7053C248.431 70.1327 248.915 69.6931 249.478 69.6917C249.594 69.6944 261.176 69.9642 272.862 71.1542C275.92 71.4662 278.612 71.7993 280.987 72.1481C281.01 72.0573 281.032 71.9651 281.054 71.873C282.531 65.9098 285.535 59.7965 289.089 55.521C289.806 54.6587 290.582 53.94 291.409 53.366C291.214 53.0975 291.022 52.825 290.835 52.5499C287.651 47.8926 285.759 42.8443 285.647 38.7029C285.548 35.0461 286.877 32.2738 289.388 30.8955C289.89 30.6204 290.52 30.8034 290.795 31.3062C291.071 31.8078 290.888 32.4383 290.385 32.7134C288.084 33.9758 287.665 36.6376 287.719 38.6463C287.828 42.6705 289.853 47.7662 293.236 52.3617C296.57 50.9755 300.48 51.6219 304.366 54.3467C308.285 57.094 311.682 61.8106 310.294 64.1827C309.398 65.7123 307.217 65.6584 303.812 64.0221C299.717 62.0554 295.842 58.9093 292.675 55.0155C291.849 55.5776 291.186 56.2423 290.684 56.8465C287.081 61.1814 284.347 67.1077 283.026 72.4667C295.752 74.5544 298.096 77.1293 298.619 79.0222C299.395 81.8366 295.957 83.9955 294.826 84.705C291.25 86.952 288.552 87.7564 286.525 87.7564ZM282.589 74.5031C281.793 78.8616 282.049 82.6199 283.686 84.4904C285.91 87.0323 290.374 85.0552 293.726 82.9503C295.829 81.6286 296.859 80.4307 296.622 79.5738C296.408 78.8024 294.709 76.4987 282.589 74.5031ZM294.575 54.0664C297.323 57.356 300.779 60.2652 304.711 62.1542C307.761 63.618 308.502 63.1415 308.506 63.1362C308.921 62.4267 307.061 58.7671 303.177 56.0449C299.593 53.5306 296.732 53.3476 294.575 54.0664ZM72.7774 271.229C72.7115 271.229 72.6431 271.222 72.576 271.209C72.0139 271.099 71.6492 270.552 71.7598 269.991C73.5567 260.893 67.554 249.942 60.9616 245.013C60.6601 244.788 60.3139 244.543 59.9322 244.3C58.263 255.058 55.4117 264.101 52.6039 267.014C51.4323 268.229 50.42 268.191 49.775 267.943C48.6271 267.503 47.0685 265.938 46.771 257.452C46.5591 251.398 47.2857 243.668 51.9589 241.223C53.7768 240.273 55.9422 240.256 58.2748 241.131C60.2086 226.239 59.9098 207.57 53.7742 193.177C50.5977 185.725 47.3068 181.954 44.2199 182.247C36.2782 183.026 29.2409 208.405 27.2005 218.118C27.082 218.679 26.5318 219.037 25.9723 218.92C25.4115 218.802 25.0535 218.253 25.1706 217.692C25.1891 217.602 27.0939 208.606 30.2584 199.602C34.6222 187.186 39.2506 180.653 44.0172 180.186C48.198 179.772 52.0128 183.76 55.6816 192.366C62.4794 208.313 61.8067 227.492 60.7997 237.506C60.6443 239.047 60.4627 240.573 60.2573 242.072C60.8984 242.437 61.5474 242.865 62.2016 243.353C69.2969 248.657 75.7458 260.503 73.7923 270.393C73.6949 270.888 73.2618 271.229 72.7774 271.229ZM55.0287 242.563C54.3073 242.563 53.5938 242.71 52.9198 243.062C50.0199 244.579 48.5718 249.664 48.843 257.381C49.1221 265.335 50.5043 266.004 50.5188 266.009C50.5148 266.008 50.9755 265.948 51.8167 264.667C54.0638 261.244 56.5109 253.231 57.9826 243.251C57.044 242.846 56.0304 242.563 55.0287 242.563Z" fill="#222222"/>
<path d="M208.477 216.334L210.317 283.735L243.974 264.412L240.558 198.186L208.477 216.334Z" fill="white"/>
<path d="M242.659 196.301C242.639 195.922 242.424 195.579 242.091 195.395C241.758 195.212 241.354 195.215 241.022 195.402L206.823 214.75C206.47 214.95 206.255 215.329 206.266 215.735L208.173 285.631C208.184 286.017 208.397 286.369 208.733 286.558C208.9 286.652 209.084 286.699 209.27 286.699C209.458 286.699 209.646 286.65 209.816 286.553L245.651 265.979C246.009 265.774 246.221 265.384 246.2 264.971L242.659 196.301ZM210.318 283.736L208.478 216.335L240.558 198.186L243.974 264.413L210.318 283.736Z" fill="#222222"/>
<path d="M206.287 215.486L207.733 208.397L196.448 209.575L192.371 274.711L208.127 283.694L206.264 215.734C206.263 215.652 206.269 215.567 206.287 215.486Z" fill="white"/>
<path d="M208.462 215.801L210.182 207.37C210.252 207.028 210.154 206.672 209.92 206.414C209.686 206.156 209.343 206.022 208.993 206.06L195.296 207.49C194.763 207.545 194.349 207.978 194.316 208.513L190.139 275.257C190.113 275.674 190.327 276.072 190.69 276.278L208.734 286.564C208.903 286.66 209.089 286.708 209.278 286.708C209.472 286.708 209.669 286.655 209.841 286.551C210.181 286.347 210.385 285.976 210.374 285.58L208.462 215.801ZM192.37 274.712L196.447 209.576L207.732 208.398L206.286 215.487C206.268 215.568 206.262 215.653 206.263 215.735L208.126 283.695L192.37 274.712Z" fill="#222222"/>
<path d="M191.234 275.324L209.266 285.602L207.709 228.707L204.588 270.297L191.234 275.324Z" fill="#222222"/>
<path d="M227.564 197.003C227.357 196.767 227.261 196.455 227.3 196.144L227.917 191.12L200.43 206.954L208.993 206.06C209.031 206.057 209.069 206.054 209.107 206.054C209.415 206.054 209.71 206.183 209.919 206.413C210.154 206.673 210.251 207.028 210.181 207.37L208.915 213.563L237.433 197.429L228.38 197.374C228.068 197.374 227.771 197.238 227.564 197.003Z" fill="white"/>
<path d="M242.622 196.081C242.496 195.6 242.063 195.263 241.566 195.259L229.629 195.187L230.363 189.204C230.415 188.791 230.227 188.385 229.88 188.156C229.534 187.927 229.087 187.913 228.727 188.121L194.862 207.629C194.413 207.887 194.207 208.426 194.366 208.918C194.525 209.411 195.007 209.729 195.523 209.671L207.734 208.397L206.284 215.484C206.199 215.906 206.366 216.339 206.713 216.591C206.904 216.731 207.131 216.801 207.358 216.801C207.544 216.801 207.731 216.753 207.898 216.658L242.098 197.31C242.532 197.067 242.747 196.563 242.622 196.081ZM208.918 213.564L210.185 207.371C210.255 207.029 210.157 206.674 209.923 206.414C209.713 206.184 209.417 206.055 209.111 206.055C209.072 206.055 209.034 206.056 208.996 206.062L200.433 206.955L227.92 191.121L227.303 196.145C227.265 196.456 227.361 196.768 227.567 197.004C227.774 197.238 228.072 197.375 228.385 197.376L237.438 197.431L208.918 213.564Z" fill="#222222"/>
<path d="M227.781 196.815V203.511L239.53 196.887L227.781 196.815Z" fill="#222222"/>
<path d="M235.559 206.25C235.587 206.022 235.576 205.792 235.505 205.581C235.279 204.92 234.605 204.693 233.999 205.076C233.392 205.457 233.082 206.303 233.308 206.965C233.377 207.169 233.492 207.325 233.631 207.441C234.35 209.795 236.188 216.87 233.947 221.537C233.06 223.384 231.661 224.613 229.67 225.295C227.298 226.107 225.149 226.007 223.282 224.999C219.571 222.996 217.857 217.997 217.475 216.734C217.514 216.491 217.503 216.245 217.427 216.02C217.202 215.359 216.528 215.133 215.921 215.515C215.314 215.896 215.005 216.741 215.23 217.404C215.294 217.594 215.4 217.745 215.527 217.859C216.187 219.856 218.152 224.717 222.23 226.926C223.601 227.669 225.071 228.04 226.627 228.04C227.829 228.04 229.083 227.819 230.381 227.374C232.924 226.504 234.791 224.858 235.93 222.485C238.739 216.618 236.175 208.103 235.559 206.25Z" fill="#222222"/>
</svg>
