<svg width="11" height="20" viewBox="0 0 11 20" fill="none" xmlns="http://www.w3.org/2000/svg">
<path fill-rule="evenodd" clip-rule="evenodd" d="M0.366323 0.292192C0.563868 0.104594 0.825895 0 1.09832 0C1.37075 0 1.63278 0.104594 1.83032 0.292192L10.3933 8.55619C10.585 8.73835 10.7376 8.9576 10.8419 9.20059C10.9462 9.44359 11 9.70526 11 9.96969C11 10.2341 10.9462 10.4958 10.8419 10.7388C10.7376 10.9818 10.585 11.201 10.3933 11.3832L1.76832 19.7082C1.36832 20.0932 0.720324 20.0982 0.314323 19.7182C0.216029 19.6277 0.137393 19.5179 0.0832996 19.3957C0.0292063 19.2735 0.000808716 19.1415 -0.000128746 19.0079C-0.00106621 18.8742 0.0254745 18.7418 0.0778484 18.6189C0.130222 18.496 0.207309 18.3851 0.304323 18.2932L8.19732 10.6762C8.29324 10.5851 8.36962 10.4755 8.42181 10.3539C8.47401 10.2324 8.50092 10.1015 8.50092 9.96919C8.50092 9.83691 8.47401 9.70602 8.42181 9.58448C8.36962 9.46293 8.29324 9.35328 8.19732 9.26219L0.367323 1.70519C0.271433 1.61419 0.195071 1.50462 0.142889 1.38316C0.0907068 1.2617 0.063796 1.13089 0.063796 0.998692C0.063796 0.866496 0.0907068 0.735683 0.142889 0.614221C0.195071 0.49276 0.270433 0.383192 0.366323 0.292192Z" fill="#09376E"/>
</svg>
