<svg width="28" height="32" viewBox="0 0 28 32" fill="none" xmlns="http://www.w3.org/2000/svg">
<path d="M14.6591 30.9926C15.7618 30.2911 16.8679 29.5929 17.9706 28.8914C18.4698 28.575 18.9755 28.2617 19.4617 27.9224C20.6166 27.1166 21.6998 26.1997 22.6623 25.1688C24.5677 23.1231 26.0163 20.6989 26.9331 18.0595C27.6803 15.9028 28 13.6288 28 11.3515V7.00888C28 6.42487 27.5922 5.9159 27.0408 5.7495C26.6427 5.62878 26.248 5.5048 25.8662 5.34493C25.9706 5.38735 26.075 5.43303 26.1794 5.47544C25.4976 5.18506 24.8581 4.81312 24.2708 4.36288L24.5351 4.56843C23.9543 4.11818 23.4323 3.59942 22.9821 3.01867L23.1876 3.28294C22.7374 2.69567 22.3622 2.05293 22.0718 1.37103C22.1142 1.47544 22.1599 1.57984 22.2023 1.68425C22.1044 1.44934 22.0131 1.2079 21.9347 0.966467C21.7586 0.415081 21.2659 0.00725032 20.6754 0.00725032H8.96574C8.42741 0.00725032 7.88581 -0.0090629 7.34747 0.00725032H7.32463C6.73083 0.00725032 6.24144 0.415081 6.06525 0.966467C5.98695 1.21117 5.89886 1.44934 5.79772 1.68425C5.84013 1.57984 5.88581 1.47544 5.92822 1.37103C5.63785 2.05293 5.26264 2.69241 4.8124 3.28294L5.01794 3.01867C4.5677 3.59942 4.04568 4.11818 3.46493 4.56843L3.7292 4.36288C3.14192 4.81312 2.49918 5.18506 1.82055 5.47544C1.92496 5.43303 2.02936 5.38735 2.13377 5.34493C1.74878 5.5048 1.35726 5.62878 0.959217 5.7495C0.40783 5.9159 0 6.42487 0 7.00888V10.9436C0 11.6353 0 12.327 0.0489396 13.0187C0.153344 14.4249 0.391517 15.8278 0.786297 17.1818C1.56933 19.8702 2.92659 22.3466 4.72757 24.4836C6.12724 26.1443 7.81403 27.4885 9.64111 28.6467L13.2529 30.9371C13.2822 30.9567 13.3148 30.9763 13.3442 30.9958C13.9217 31.3612 14.8091 31.1361 15.1289 30.526C15.4682 29.88 15.2757 29.1329 14.6591 28.7413C14.0718 28.3694 13.4845 27.9975 12.9005 27.6255C12.1501 27.1492 11.4029 26.6761 10.6525 26.1997C10.1272 25.867 9.61501 25.5113 9.11909 25.1329L9.38336 25.3384C8.15008 24.3825 7.04078 23.2732 6.08483 22.0399L6.29038 22.3042C5.31811 21.0415 4.50897 19.6581 3.88581 18.19C3.92822 18.2944 3.9739 18.3988 4.01631 18.5032C3.3801 16.9926 2.94617 15.4069 2.72757 13.7821C2.74388 13.8963 2.7602 14.0138 2.77325 14.128C2.63295 13.0709 2.61011 12.0138 2.61011 10.9534V7.02193C2.29037 7.44281 1.97064 7.86043 1.6509 8.28131C2.77651 7.942 3.86623 7.49175 4.82219 6.80334C5.95432 5.98767 6.92007 4.98278 7.63785 3.78213C8.03263 3.12307 8.3491 2.40529 8.58401 1.67446C8.16313 1.9942 7.74551 2.31394 7.32463 2.63368H19.0343C19.5726 2.63368 20.1142 2.64673 20.6525 2.63368H20.6754C20.2545 2.31394 19.8369 1.9942 19.416 1.67446C20.2349 4.22911 22.0946 6.45097 24.5351 7.59942C25.1223 7.87674 25.7259 8.09208 26.3491 8.28131C26.0294 7.86043 25.7096 7.44281 25.3899 7.02193V11.6484C25.3899 12.4771 25.3344 13.3058 25.2268 14.128C25.2431 14.0138 25.2594 13.8963 25.2724 13.7821C25.0506 15.4037 24.6166 16.9926 23.9837 18.5032C24.0261 18.3988 24.0718 18.2944 24.1142 18.19C23.491 19.6581 22.6819 21.0415 21.7096 22.3042L21.9152 22.0399C20.9592 23.2732 19.8499 24.3825 18.6166 25.3384L18.8809 25.1329C18.1501 25.6973 17.3736 26.1834 16.5971 26.6794C15.7357 27.2275 14.8744 27.7723 14.0131 28.3205C13.7912 28.4608 13.5661 28.6043 13.3442 28.7446C13.0604 28.9241 12.8352 29.1949 12.7439 29.5244C12.6591 29.8376 12.6982 30.2519 12.8744 30.5293C13.2463 31.1035 14.0424 31.3841 14.6591 30.9926Z" fill="black"/>
</svg>
