<svg width="25" height="31" viewBox="0 0 25 31" fill="none" xmlns="http://www.w3.org/2000/svg">
<path d="M24.2507 21.9347L21.8871 18.8002C21.8457 18.7445 21.8232 18.6767 21.8232 18.6071V9.75716C21.8509 7.28153 20.9336 4.88981 19.2608 3.07626C17.5881 1.2627 15.2878 0.165927 12.8354 0.0125855C11.5558 -0.0537968 10.2762 0.142926 9.07451 0.590776C7.87282 1.03863 6.77417 1.72823 5.84546 2.6176C4.91676 3.50696 4.17743 4.57748 3.6725 5.76396C3.16757 6.95044 2.90761 8.22806 2.90843 9.51902V18.9353C2.90843 19.005 2.88602 19.0727 2.84455 19.1284L0.749298 21.9347C0.37443 22.3494 0.127156 22.8649 0.0375114 23.4185C-0.0521334 23.9721 0.0197094 24.5401 0.244313 25.0533C0.468916 25.5666 0.836614 26.0031 1.30274 26.3099C1.76887 26.6166 2.31337 26.7803 2.87011 26.7812H22.1107C22.6691 26.7841 23.2162 26.6231 23.6852 26.3178C24.1542 26.0125 24.5248 25.5762 24.7518 25.0622C24.9788 24.5482 25.0522 23.9787 24.9633 23.4233C24.8743 22.8679 24.6266 22.3506 24.2507 21.9347ZM22.9731 24.2517C22.9008 24.4249 22.7789 24.5725 22.6231 24.6757C22.4672 24.7788 22.2844 24.8329 22.0979 24.831H2.87011C2.68666 24.8276 2.50804 24.7712 2.35549 24.6684C2.20293 24.5657 2.08286 24.421 2.00953 24.2516C1.9362 24.0821 1.9127 23.895 1.94182 23.7125C1.97094 23.53 2.05147 23.3597 2.17382 23.2219L2.24409 23.1383L4.39683 20.2805C4.67814 19.8896 4.8281 19.4182 4.82483 18.9353V9.51902C4.82482 8.52117 5.02031 7.53313 5.40007 6.61156C5.77984 5.68999 6.33641 4.85302 7.03789 4.14863C7.73936 3.44424 8.57193 2.88629 9.48786 2.50678C10.4038 2.12727 11.3851 1.93365 12.3754 1.93704H12.7459C14.7069 2.06719 16.5434 2.95122 17.876 4.40653C19.2087 5.86184 19.9357 7.77726 19.9068 9.75716V18.6393C19.9068 19.1317 20.0661 19.6107 20.3604 20.0038L22.7495 23.1704L22.8134 23.2412C22.9418 23.378 23.0269 23.5503 23.0576 23.736C23.0883 23.9218 23.0634 24.1126 22.9859 24.2839L22.9731 24.2517ZM16.2721 29.2785C15.7927 29.82 15.2051 30.2533 14.5479 30.55C13.8907 30.8466 13.1786 31 12.4585 31C11.7383 31 11.0263 30.8466 10.369 30.55C9.7118 30.2533 9.12423 29.82 8.64484 29.2785C8.4915 29.0859 8.4172 28.8415 8.43721 28.5954C8.45722 28.3494 8.57003 28.1204 8.75244 27.9556C8.93485 27.7907 9.17301 27.7026 9.41795 27.7092C9.66289 27.7158 9.896 27.8168 10.0694 27.9912C10.369 28.3305 10.7365 28.602 11.1477 28.7879C11.5589 28.9738 12.0046 29.0699 12.4553 29.0699C12.906 29.0699 13.3516 28.9738 13.7628 28.7879C14.174 28.602 14.5415 28.3305 14.8412 27.9912C15.0145 27.8168 15.2477 27.7158 15.4926 27.7092C15.7375 27.7026 15.9757 27.7907 16.1581 27.9556C16.3405 28.1204 16.4533 28.3494 16.4733 28.5954C16.4933 28.8415 16.419 29.0859 16.2657 29.2785H16.2721Z" fill="black"/>
</svg>
