<svg width="31" height="31" viewBox="0 0 31 31" fill="none" xmlns="http://www.w3.org/2000/svg">
<path d="M15.5015 16.1905C19.6962 16.1905 23.0967 12.79 23.0967 8.59524C23.0967 4.4005 19.6962 1 15.5015 1C11.3068 1 7.90625 4.4005 7.90625 8.59524C7.90625 12.79 11.3068 16.1905 15.5015 16.1905Z" stroke="#303C42" stroke-width="2" stroke-linecap="round" stroke-linejoin="round"/>
<path d="M15.5 18.9521C11.491 19.062 7.56244 20.102 4.02429 21.9902C3.11382 22.4522 2.34921 23.1575 1.81534 24.0278C1.28148 24.8981 0.999251 25.8993 1 26.9202V27.9283C1 28.4777 1.21824 29.0046 1.60671 29.3931C1.79906 29.5854 2.02741 29.738 2.27873 29.8421C2.53005 29.9462 2.79941 29.9998 3.07143 29.9998H27.9286C28.4779 29.9998 29.0048 29.7815 29.3933 29.3931C29.7818 29.0046 30 28.4777 30 27.9283V26.9202C30.0008 25.8993 29.7185 24.8981 29.1847 24.0278C28.6508 23.1575 27.8862 22.4522 26.9757 21.9902C23.4376 20.102 19.509 19.062 15.5 18.9521Z" stroke="#303C42" stroke-width="2" stroke-linecap="round" stroke-linejoin="round"/>
</svg>
