<svg width="32" height="29" viewBox="0 0 32 29" fill="none" xmlns="http://www.w3.org/2000/svg">
<path d="M16.3977 26.1444L23.0437 26.1601L26.1584 28.7264C26.5096 29.0251 27.0137 29.079 27.42 28.8895C27.8402 28.6899 28.1013 28.28 28.1013 27.8195V26.1444H28.2286C30.0321 26.1444 31.4994 24.6771 31.4994 22.8738V15.9127C31.4994 14.1126 30.0321 12.6482 28.2286 12.6482H16.3977C14.5977 12.6482 13.1333 14.1126 13.1333 15.9127V22.8738C13.1333 24.6771 14.5977 26.1444 16.3977 26.1444ZM14.1039 15.9127C14.1039 14.648 15.1328 13.6188 16.3977 13.6188H28.2286C29.4968 13.6188 30.5288 14.648 30.5288 15.9127V22.8738C30.5288 24.1421 29.4968 25.1738 28.2286 25.1738H27.8179C27.439 25.1738 27.1307 25.4823 27.1307 25.8615V27.8195C27.1307 27.9051 27.0854 27.9738 27.007 28.0113C26.9558 28.035 26.875 28.0615 26.7812 27.9819L23.6698 25.4184C23.4873 25.2605 23.2489 25.1738 22.9984 25.1738H16.3977C15.1328 25.1738 14.1039 24.1421 14.1039 22.8738V15.9127ZM8.09747 26.5006L10.6212 23.9766C10.8416 23.7525 10.8416 23.3913 10.6212 23.1672L8.09747 20.6432C7.73811 20.2839 7.12057 20.5403 7.12057 21.0501V21.8179C3.96203 21.5477 1.96653 19.9098 0.674114 16.5269C0.608231 16.3452 0.326646 16.3724 0.309303 16.5724C-0.00610083 19.1913 0.503142 21.2932 1.82589 22.8174C3.63893 24.9117 6.37946 25.2463 7.12057 25.2994V26.094C7.12057 26.6028 7.73917 26.8589 8.09747 26.5006ZM23.3998 0.499352L20.876 3.02305C20.6556 3.24722 20.6556 3.60836 20.876 3.83253L23.3998 6.35647C23.7591 6.71583 24.3766 6.45941 24.3766 5.9496V5.18183C27.5352 5.45197 29.5307 7.08989 30.8231 10.4728C30.8889 10.6542 31.1704 10.6277 31.188 10.4273C31.5034 7.80837 30.994 5.70647 29.6713 4.1823C27.8583 2.08798 25.1178 1.75338 24.3766 1.7003V0.905988C24.3766 0.397483 23.7584 0.140357 23.3998 0.499352ZM8.92235 1.45006V4.115H5.22993V1.45006C5.22993 1.06474 4.91802 0.780799 4.5631 0.776909C4.1974 0.772901 3.89201 1.06317 3.89201 1.45006V8.05387C3.89201 8.42625 4.17176 8.68874 4.50184 8.71443C4.87832 8.74372 5.22993 8.46337 5.22993 8.05387V5.38894H8.92235V8.05387C8.92235 8.42553 9.2105 8.71738 9.5861 8.71738C9.94845 8.71738 10.2603 8.43817 10.2603 8.05387V1.45006C10.2603 1.06057 9.94262 0.778031 9.58823 0.776872C9.21941 0.775666 8.92235 1.07084 8.92235 1.45006ZM12.3472 1.45006V8.05387C12.3472 8.42553 12.6354 8.71738 13.011 8.71738C13.3733 8.71738 13.6852 8.43817 13.6852 8.05387V1.45006C13.6852 1.064 13.3721 0.779752 13.0162 0.77689C12.6498 0.773944 12.3472 1.06619 12.3472 1.45006Z" fill="black"/>
</svg>
