<svg width="29" height="31" viewBox="0 0 29 31" fill="none" xmlns="http://www.w3.org/2000/svg">
<path d="M10.4603 28.2185V23.7718C10.4602 22.6407 11.3639 21.7217 12.4835 21.7141H16.5848C17.7098 21.7141 18.6218 22.6354 18.6218 23.7718V28.2323C18.6215 29.1926 19.3803 29.9775 20.3306 30H23.0648C25.7904 30 28 27.768 28 25.0147V12.3649C27.9854 11.2817 27.482 10.2646 26.6329 9.6029L17.282 1.99369C15.6439 0.668771 13.3151 0.668771 11.677 1.99369L2.36709 9.61671C1.51479 10.2757 1.0105 11.2945 1 12.3787V25.0147C1 27.768 3.20956 30 5.93519 30H8.66937C9.64335 30 10.4329 29.2024 10.4329 28.2185" stroke="black" stroke-width="2" stroke-linecap="round" stroke-linejoin="round"/>
</svg>
