<svg width="34" height="31" viewBox="0 0 34 31" fill="none" xmlns="http://www.w3.org/2000/svg">
<path d="M19.1341 18.4274C19.2024 18.4518 19.2776 18.4481 19.3432 18.4173C19.4089 18.3865 19.4597 18.3309 19.4845 18.2628L20.1487 16.419C20.1689 16.3519 20.1626 16.2796 20.1311 16.217C20.0995 16.1545 20.0452 16.1063 19.9793 16.0826C19.9134 16.0589 19.8408 16.0613 19.7766 16.0894C19.7125 16.1175 19.6615 16.1692 19.6343 16.2338L18.9695 18.0772C18.9572 18.111 18.9518 18.1469 18.9534 18.1828C18.9551 18.2187 18.9638 18.2539 18.9791 18.2865C18.9944 18.319 19.0159 18.3482 19.0425 18.3724C19.0691 18.3966 19.1002 18.4152 19.1341 18.4274Z" fill="#02437E"/>
<path d="M18.4817 14.4221L16.7201 15.2514C16.6858 15.2656 16.6548 15.2866 16.6289 15.3131C16.6029 15.3396 16.5827 15.371 16.5693 15.4056C16.5559 15.4402 16.5496 15.4771 16.551 15.5142C16.5523 15.5512 16.5611 15.5876 16.5769 15.6212C16.5927 15.6547 16.6151 15.6847 16.6428 15.7093C16.6705 15.7339 16.703 15.7526 16.7382 15.7643C16.7733 15.776 16.8105 15.7805 16.8475 15.7774C16.8844 15.7743 16.9203 15.7637 16.9531 15.7463L18.7146 14.9169C18.7767 14.8839 18.8238 14.8283 18.8459 14.7616C18.8681 14.6949 18.8638 14.6222 18.8339 14.5585C18.8039 14.4949 18.7506 14.4453 18.6851 14.4199C18.6195 14.3945 18.5467 14.3953 18.4817 14.4221Z" fill="#02437E"/>
<path d="M19.102 12.6692C19.1143 12.6355 19.1199 12.5996 19.1184 12.5637C19.1169 12.5278 19.1083 12.4926 19.0932 12.46C19.0781 12.4274 19.0566 12.3981 19.0302 12.3738C19.0037 12.3495 18.9727 12.3306 18.939 12.3183L17.1122 11.6482C17.0449 11.6263 16.9716 11.6313 16.9079 11.6623C16.8441 11.6933 16.7949 11.7477 16.7706 11.8143C16.7462 11.8808 16.7486 11.9542 16.7773 12.019C16.806 12.0838 16.8587 12.1349 16.9243 12.1616L18.7508 12.8317C18.7845 12.8443 18.8204 12.85 18.8563 12.8486C18.8923 12.8472 18.9276 12.8387 18.9602 12.8236C18.9929 12.8085 19.0222 12.7871 19.0466 12.7606C19.0709 12.7341 19.0897 12.703 19.102 12.6692Z" fill="#02437E"/>
<path d="M20.4877 11.5434C20.5336 11.5435 20.5789 11.532 20.6192 11.51C20.6595 11.488 20.6936 11.4561 20.7184 11.4174C20.7431 11.3787 20.7577 11.3343 20.7607 11.2885C20.7638 11.2426 20.7552 11.1968 20.7358 11.1551L19.9133 9.37793C19.8984 9.34504 19.8771 9.31543 19.8507 9.2908C19.8243 9.26617 19.7933 9.24701 19.7595 9.23443C19.7256 9.22185 19.6896 9.21609 19.6535 9.21749C19.6175 9.21889 19.582 9.22742 19.5493 9.24259C19.5165 9.25776 19.487 9.27926 19.4626 9.30586C19.4382 9.33247 19.4193 9.36364 19.407 9.39758C19.3947 9.43153 19.3892 9.46757 19.3909 9.50364C19.3926 9.53971 19.4014 9.57509 19.4169 9.60773L20.2393 11.3847C20.2857 11.4846 20.3846 11.5434 20.4877 11.5434Z" fill="#02437E"/>
<path d="M22.5629 11.7934C22.675 11.7934 22.78 11.7237 22.8205 11.6121L23.4842 9.76892C23.5062 9.70132 23.5011 9.62781 23.4698 9.56395C23.4386 9.50009 23.3837 9.45091 23.3168 9.42682C23.2499 9.40274 23.1763 9.40564 23.1115 9.43491C23.0467 9.46418 22.9959 9.51753 22.9697 9.58364L22.3052 11.4266C22.2904 11.4679 22.2857 11.5123 22.2915 11.5558C22.2973 11.5994 22.3136 11.6409 22.3388 11.6769C22.3641 11.7128 22.3976 11.7422 22.4366 11.7625C22.4756 11.7828 22.5189 11.7934 22.5629 11.7934Z" fill="#02437E"/>
<path d="M23.8564 13.4504C23.8951 13.4504 23.9348 13.4422 23.9727 13.4239L25.7335 12.594C25.8705 12.5296 25.9291 12.3669 25.8644 12.2301C25.7998 12.0933 25.637 12.0353 25.5005 12.0992L23.7392 12.9293C23.6829 12.9558 23.6373 13.0007 23.6099 13.0566C23.5825 13.1126 23.575 13.1762 23.5887 13.2369C23.6023 13.2976 23.6363 13.3519 23.685 13.3907C23.7337 13.4296 23.7941 13.4506 23.8564 13.4504Z" fill="#02437E"/>
<path d="M31.2143 5.92367H8.22448C7.43594 2.1909 5.25268 1.95049 5.07032 1.93035H3.40683C3.14973 1.28997 2.5287 0.724609 1.80218 0.724609C0.845599 0.724609 0.0703125 1.50705 0.0703125 2.47265C0.0703125 3.43772 0.845599 4.21989 1.80218 4.21989C2.53427 4.21989 3.15874 3.63836 3.41213 2.99057H4.96376C5.02579 3.0017 6.47432 3.44169 7.01953 6.4999C7.74261 10.5526 9.58554 20.7368 9.59561 20.7355C9.59561 21.862 10.2718 23.9299 12.8285 23.9299H22.6472L22.2433 22.8867H12.8285C11.7325 22.8867 11.2564 22.1019 11.0465 21.5354C14.5851 21.3021 18.1232 21.0605 21.6607 20.8105L21.2639 19.5313C17.78 19.7769 14.2956 20.0142 10.8106 20.2433C10.4997 18.526 9.17682 11.2097 8.46382 7.22907H31.0089C32.0524 7.22907 32.7938 8.07618 32.6642 9.12077L31.6975 16.9243C31.6941 16.9449 31.6662 17.1013 31.5541 17.32L32.7092 17.9047C32.93 17.465 32.9761 17.1313 32.9801 17.0931L33.9727 9.07677C34.1888 7.33562 32.9533 5.92367 31.2143 5.92367Z" fill="#02437E"/>
<path d="M28.631 20.0971L30.845 19.227C30.9439 19.1878 31.0294 19.1208 31.0912 19.0341C31.1529 18.9474 31.1883 18.8448 31.193 18.7385C31.1981 18.6322 31.1725 18.5267 31.1191 18.4346C31.0658 18.3425 30.9869 18.2678 30.8922 18.2195L21.5034 13.4668C21.4075 13.4179 21.2993 13.3987 21.1926 13.4116C21.0858 13.4245 20.9853 13.4689 20.9038 13.5391C20.8219 13.6098 20.7624 13.7027 20.7325 13.8067C20.7027 13.9107 20.7038 14.0211 20.7358 14.1244L23.918 24.394C23.984 24.6063 24.1698 24.7581 24.3898 24.7785C24.4975 24.7879 24.6056 24.7653 24.7005 24.7135C24.7954 24.6617 24.8729 24.5831 24.9234 24.4875L26.2052 22.0469L28.939 25.6702C28.9898 25.7377 29.0555 25.7925 29.131 25.8303C29.2065 25.8682 29.2897 25.888 29.3742 25.8883C29.4929 25.8883 29.6098 25.8488 29.7058 25.7754L31.3796 24.488C31.4375 24.4432 31.486 24.3873 31.5222 24.3235C31.5584 24.2598 31.5817 24.1896 31.5906 24.1169C31.5996 24.0441 31.594 23.9703 31.5743 23.8998C31.5546 23.8292 31.5211 23.7632 31.4758 23.7056L28.631 20.0971ZM29.4778 24.5631L26.558 20.6919C26.5026 20.6184 26.4296 20.5602 26.3457 20.5225C26.2617 20.4848 26.1697 20.469 26.078 20.4764C25.9862 20.4843 25.898 20.5151 25.8213 20.5661C25.7446 20.617 25.682 20.6865 25.6393 20.768L24.5714 22.802L22.1647 15.0364L29.3016 18.6494L27.5427 19.3407C27.4626 19.3722 27.3911 19.4221 27.3338 19.4864C27.2766 19.5507 27.2353 19.6275 27.2132 19.7107C27.1907 19.7941 27.1881 19.8816 27.2054 19.9662C27.2228 20.0509 27.2597 20.1303 27.3131 20.1981L30.273 23.9516L29.4778 24.5631Z" fill="#02437E"/>
<path d="M26.3654 26.231C25.1085 26.231 24.0859 27.2604 24.0859 28.5258C24.0859 29.7912 25.1083 30.8207 26.3654 30.8207C27.6218 30.8207 28.6446 29.7912 28.6446 28.5258C28.6446 27.2604 27.6218 26.231 26.3654 26.231ZM26.3654 29.7262C25.7121 29.7262 25.1804 29.1877 25.1804 28.5258C25.1804 27.864 25.7121 27.3254 26.3654 27.3254C27.0188 27.3254 27.5502 27.864 27.5502 28.5258C27.5502 29.1877 27.0188 29.7262 26.3654 29.7262Z" fill="#02437E"/>
<path d="M13.2443 26.231C11.9877 26.231 10.9648 27.2604 10.9648 28.5258C10.9648 29.7912 11.9877 30.8207 13.2443 30.8207C14.5012 30.8207 15.5238 29.7912 15.5238 28.5258C15.5238 27.2604 14.5012 26.231 13.2443 26.231ZM13.2443 29.7262C12.591 29.7262 12.0593 29.1877 12.0593 28.5258C12.0593 27.864 12.591 27.3254 13.2443 27.3254C13.8977 27.3254 14.4291 27.864 14.4291 28.5258C14.4291 29.1877 13.8977 29.7262 13.2443 29.7262Z" fill="#02437E"/>
</svg>
