<svg width="28" height="28" viewBox="0 0 28 28" fill="none" xmlns="http://www.w3.org/2000/svg">
<path d="M14 0C6.2832 0 0 6.2776 0 14C0 14.308 0.252 14.56 0.56 14.56C0.868 14.56 1.12 14.308 1.12 14C1.12 6.8992 6.8992 1.12 14 1.12C21.1008 1.12 26.88 6.8992 26.88 14C26.88 21.1008 21.1008 26.88 14 26.88C10.4272 26.88 7.084 25.4296 4.6592 22.8648H6.5688C6.8768 22.8648 7.1288 22.6128 7.1288 22.3048C7.1288 21.9968 6.8768 21.7448 6.5688 21.7448H3.444C3.4104 21.7448 3.3768 21.7504 3.3488 21.756C3.3264 21.7616 3.304 21.7672 3.2816 21.7728C3.2032 21.7896 3.136 21.8288 3.08 21.8792C3.0464 21.9016 3.024 21.9296 3.0016 21.9632C2.9792 21.9856 2.9624 22.008 2.9568 22.036C2.9456 22.0528 2.9344 22.0696 2.9288 22.0864C2.8784 22.1816 2.8672 22.2936 2.884 22.4V25.4296C2.884 25.7376 3.1304 25.9896 3.444 25.9896C3.752 25.9896 4.004 25.7376 4.004 25.4296V23.8C6.6248 26.488 10.192 28 14 28C21.7224 28 28 21.7224 28 14C28 6.2776 21.7224 0 14 0Z" fill="#161616"/>
<path d="M16.4408 5.13477H11.5632C11.2496 5.13477 11.0032 5.38677 11.0032 5.69477V6.64117H17.0008V5.69477C17.0008 5.38677 16.7488 5.13477 16.4408 5.13477ZM8.66797 8.97637V21.6492C8.66797 22.3212 9.21117 22.8644 9.88317 22.8644H18.1208C18.7872 22.8644 19.336 22.3212 19.336 21.6492V8.97637C19.336 8.30437 18.7872 7.76117 18.1208 7.76117H9.88317C9.21117 7.76117 8.66797 8.30437 8.66797 8.97637ZM12.4592 14.7276L13.6744 12.1124C13.8032 11.8324 14.1392 11.7092 14.4192 11.838C14.6992 11.9668 14.8224 12.3028 14.6936 12.5828L13.848 14.4028H15.0408C15.2312 14.4028 15.4048 14.498 15.5112 14.6548C15.6176 14.8116 15.6288 15.0132 15.556 15.1868L14.0944 18.502C13.9992 18.7092 13.7976 18.838 13.5792 18.838C13.5064 18.838 13.428 18.8212 13.3552 18.7932C13.0696 18.67 12.9464 18.3396 13.0696 18.054L14.184 15.5284H12.9744C12.784 15.5284 12.6048 15.4332 12.504 15.2708C12.392 15.1028 12.3808 14.9012 12.4592 14.7276Z" fill="#161616"/>
</svg>
