<svg width="25" height="28" viewBox="0 0 25 28" fill="none" xmlns="http://www.w3.org/2000/svg">
<path d="M1.38901 8.42343L9.72229 1.06823C10.4862 0.380313 11.4751 0 12.5 0C13.5249 0 14.5139 0.380313 15.2778 1.06823L23.6111 8.42343M1.38901 8.42343C0.947859 8.82065 0.595822 9.30795 0.35634 9.85286C0.116858 10.3978 -0.00457297 10.9878 0.000131658 11.5836V23.805C0.000131658 24.9176 0.439116 25.9846 1.22051 26.7713C2.00191 27.558 3.06171 28 4.16677 28H20.8333C21.9384 28 22.9982 27.558 23.7796 26.7713C24.561 25.9846 25 24.9176 25 23.805V11.5697C25.0027 10.9762 24.8803 10.3888 24.6409 9.84648C24.4015 9.30412 24.0505 8.81909 23.6111 8.42343M1.38901 8.42343L1.52284 8.57205L9.85463 1.21817L9.85464 1.21818L9.85612 1.21685C10.5834 0.561899 11.5247 0.2 12.5 0.2C13.4753 0.2 14.4167 0.561899 15.144 1.21685L15.144 1.21685L15.1455 1.21817L23.4772 8.57205L23.6111 8.42343M1.38901 8.42343L1.52136 8.57337L1.52208 8.57274C1.10241 8.95082 0.767406 9.41461 0.539438 9.93333C0.31133 10.4524 0.195643 11.0144 0.200125 11.5821L0.200138 11.5836L0.200132 23.805C0.200132 24.865 0.618371 25.8813 1.36241 26.6304C2.10641 27.3794 3.11519 27.8 4.16677 27.8H20.8333C21.8849 27.8 22.8937 27.3794 23.6377 26.6304C24.3817 25.8813 24.8 24.865 24.8 23.805V11.5697V11.5687C24.8026 11.0033 24.686 10.4438 24.4579 9.92724C24.23 9.41095 23.896 8.9493 23.478 8.57271L23.4787 8.57337L23.6111 8.42343M15.2778 25.4033H15.4778V25.2033V18.2117C15.4778 17.7882 15.3107 17.3819 15.0129 17.082C14.715 16.7821 14.3108 16.6134 13.8889 16.6134H11.1112C10.6893 16.6134 10.285 16.7821 9.98718 17.082C9.68936 17.3819 9.52229 17.7882 9.52229 18.2117V25.2033V25.4033H9.72229H15.2778ZM17.8556 25.2033V25.4033H18.0556H20.8333C21.2552 25.4033 21.6594 25.2346 21.9573 24.9347C22.2551 24.6349 22.4222 24.2285 22.4222 23.805V11.5697V11.5694C22.4219 11.3427 22.3737 11.1186 22.2806 10.912C22.1876 10.7054 22.0519 10.521 21.8825 10.3711L21.8822 10.3708L13.5492 3.02989C13.5492 3.02985 13.5491 3.02981 13.5491 3.02977C13.2592 2.77343 12.8863 2.63189 12.5 2.63189C12.1138 2.63189 11.7409 2.77343 11.451 3.02977C11.451 3.02981 11.4509 3.02985 11.4509 3.02989L3.1179 10.3708L3.1176 10.3711C2.94817 10.521 2.81246 10.7054 2.71944 10.912C2.62641 11.1186 2.57818 11.3427 2.57789 11.5694V11.5697V23.805C2.57789 24.2285 2.74496 24.6349 3.04278 24.9347C3.34065 25.2346 3.74493 25.4033 4.16677 25.4033H6.94453H7.14453V25.2033V18.2117C7.14453 17.1517 7.56277 16.1355 8.30681 15.3864C9.0508 14.6373 10.0596 14.2167 11.1112 14.2167H13.8889C14.9405 14.2167 15.9493 14.6373 16.6933 15.3864C17.4373 16.1355 17.8556 17.1517 17.8556 18.2117V25.2033Z" fill="#02437E" stroke="white" stroke-width="0.4"/>
</svg>
